<?xml version="1.0" encoding="utf-8" standalone="no"?>
<!DOCTYPE svg PUBLIC "-//W3C//DTD SVG 1.1//EN"
  "http://www.w3.org/Graphics/SVG/1.1/DTD/svg11.dtd">
<svg xmlns:xlink="http://www.w3.org/1999/xlink" width="611.684375pt" height="231.428375pt" viewBox="0 0 611.684375 231.428375" xmlns="http://www.w3.org/2000/svg" version="1.1">
 <metadata>
  <rdf:RDF xmlns:dc="http://purl.org/dc/elements/1.1/" xmlns:cc="http://creativecommons.org/ns#" xmlns:rdf="http://www.w3.org/1999/02/22-rdf-syntax-ns#">
   <cc:Work>
    <dc:type rdf:resource="http://purl.org/dc/dcmitype/StillImage"/>
    <dc:date>2022-10-07T11:50:43.447853</dc:date>
    <dc:format>image/svg+xml</dc:format>
    <dc:creator>
     <cc:Agent>
      <dc:title>Matplotlib v3.5.2, https://matplotlib.org/</dc:title>
     </cc:Agent>
    </dc:creator>
   </cc:Work>
  </rdf:RDF>
 </metadata>
 <defs>
  <style type="text/css">*{stroke-linejoin: round; stroke-linecap: butt}</style>
 </defs>
 <g id="figure_1">
  <g id="patch_1">
   <path d="M 0 231.428375 
L 611.684375 231.428375 
L 611.684375 -0 
L 0 -0 
z
" style="fill: #ffffff"/>
  </g>
  <g id="axes_1">
   <g id="patch_2">
    <path d="M 45.044375 195.024 
L 603.044375 195.024 
L 603.044375 28.704 
L 45.044375 28.704 
z
" style="fill: #ffffff"/>
   </g>
   <g id="matplotlib.axis_1">
    <g id="xtick_1">
     <g id="line2d_1">
      <path d="M 45.044375 195.024 
L 45.044375 28.704 
" clip-path="url(#p0aea91f1a3)" style="fill: none; stroke: #dddddd; stroke-linecap: square"/>
     </g>
     <g id="line2d_2">
      <defs>
       <path id="mba3f95fc09" d="M 0 0 
L 0 3.5 
" style="stroke: #000000"/>
      </defs>
      <g>
       <use xlink:href="#mba3f95fc09" x="45.044375" y="195.024" style="stroke: #000000"/>
      </g>
     </g>
     <g id="text_1">
      <text style="font: 12px 'Source Code Pro'; text-anchor: middle" x="45.044375" y="210.568375" transform="rotate(-0, 45.044375, 210.568375)">0</text>
     </g>
    </g>
    <g id="xtick_2">
     <g id="line2d_3">
      <path d="M 114.794375 195.024 
L 114.794375 28.704 
" clip-path="url(#p0aea91f1a3)" style="fill: none; stroke: #dddddd; stroke-linecap: square"/>
     </g>
     <g id="line2d_4">
      <g>
       <use xlink:href="#mba3f95fc09" x="114.794375" y="195.024" style="stroke: #000000"/>
      </g>
     </g>
     <g id="text_2">
      <text style="font: 12px 'Source Code Pro'; text-anchor: middle" x="114.794375" y="210.568375" transform="rotate(-0, 114.794375, 210.568375)">2</text>
     </g>
    </g>
    <g id="xtick_3">
     <g id="line2d_5">
      <path d="M 184.544375 195.024 
L 184.544375 28.704 
" clip-path="url(#p0aea91f1a3)" style="fill: none; stroke: #dddddd; stroke-linecap: square"/>
     </g>
     <g id="line2d_6">
      <g>
       <use xlink:href="#mba3f95fc09" x="184.544375" y="195.024" style="stroke: #000000"/>
      </g>
     </g>
     <g id="text_3">
      <text style="font: 12px 'Source Code Pro'; text-anchor: middle" x="184.544375" y="210.568375" transform="rotate(-0, 184.544375, 210.568375)">4</text>
     </g>
    </g>
    <g id="xtick_4">
     <g id="line2d_7">
      <path d="M 254.294375 195.024 
L 254.294375 28.704 
" clip-path="url(#p0aea91f1a3)" style="fill: none; stroke: #dddddd; stroke-linecap: square"/>
     </g>
     <g id="line2d_8">
      <g>
       <use xlink:href="#mba3f95fc09" x="254.294375" y="195.024" style="stroke: #000000"/>
      </g>
     </g>
     <g id="text_4">
      <text style="font: 12px 'Source Code Pro'; text-anchor: middle" x="254.294375" y="210.568375" transform="rotate(-0, 254.294375, 210.568375)">6</text>
     </g>
    </g>
    <g id="xtick_5">
     <g id="line2d_9">
      <path d="M 324.044375 195.024 
L 324.044375 28.704 
" clip-path="url(#p0aea91f1a3)" style="fill: none; stroke: #dddddd; stroke-linecap: square"/>
     </g>
     <g id="line2d_10">
      <g>
       <use xlink:href="#mba3f95fc09" x="324.044375" y="195.024" style="stroke: #000000"/>
      </g>
     </g>
     <g id="text_5">
      <text style="font: 12px 'Source Code Pro'; text-anchor: middle" x="324.044375" y="210.568375" transform="rotate(-0, 324.044375, 210.568375)">8</text>
     </g>
    </g>
    <g id="xtick_6">
     <g id="line2d_11">
      <path d="M 393.794375 195.024 
L 393.794375 28.704 
" clip-path="url(#p0aea91f1a3)" style="fill: none; stroke: #dddddd; stroke-linecap: square"/>
     </g>
     <g id="line2d_12">
      <g>
       <use xlink:href="#mba3f95fc09" x="393.794375" y="195.024" style="stroke: #000000"/>
      </g>
     </g>
     <g id="text_6">
      <text style="font: 12px 'Source Code Pro'; text-anchor: middle" x="393.794375" y="210.568375" transform="rotate(-0, 393.794375, 210.568375)">10</text>
     </g>
    </g>
    <g id="xtick_7">
     <g id="line2d_13">
      <path d="M 463.544375 195.024 
L 463.544375 28.704 
" clip-path="url(#p0aea91f1a3)" style="fill: none; stroke: #dddddd; stroke-linecap: square"/>
     </g>
     <g id="line2d_14">
      <g>
       <use xlink:href="#mba3f95fc09" x="463.544375" y="195.024" style="stroke: #000000"/>
      </g>
     </g>
     <g id="text_7">
      <text style="font: 12px 'Source Code Pro'; text-anchor: middle" x="463.544375" y="210.568375" transform="rotate(-0, 463.544375, 210.568375)">12</text>
     </g>
    </g>
    <g id="xtick_8">
     <g id="line2d_15">
      <path d="M 533.294375 195.024 
L 533.294375 28.704 
" clip-path="url(#p0aea91f1a3)" style="fill: none; stroke: #dddddd; stroke-linecap: square"/>
     </g>
     <g id="line2d_16">
      <g>
       <use xlink:href="#mba3f95fc09" x="533.294375" y="195.024" style="stroke: #000000"/>
      </g>
     </g>
     <g id="text_8">
      <text style="font: 12px 'Source Code Pro'; text-anchor: middle" x="533.294375" y="210.568375" transform="rotate(-0, 533.294375, 210.568375)">14</text>
     </g>
    </g>
    <g id="xtick_9">
     <g id="line2d_17">
      <path d="M 603.044375 195.024 
L 603.044375 28.704 
" clip-path="url(#p0aea91f1a3)" style="fill: none; stroke: #dddddd; stroke-linecap: square"/>
     </g>
     <g id="line2d_18">
      <g>
       <use xlink:href="#mba3f95fc09" x="603.044375" y="195.024" style="stroke: #000000"/>
      </g>
     </g>
     <g id="text_9">
      <text style="font: 12px 'Source Code Pro'; text-anchor: middle" x="603.044375" y="210.568375" transform="rotate(-0, 603.044375, 210.568375)">16</text>
     </g>
    </g>
    <g id="text_10">
     <!-- $\mathrm{v_f\ (m\ h^{-1}})$ -->
     <g transform="translate(292.844375 227.528375)">
      <text>
       <tspan style="font: 12px 'DejaVu Sans'" x="0 14.398203 19.079844 34.665742" y="-0.28125">v(mh</tspan>
       <tspan style="font: 8.4px 'DejaVu Sans'" x="7.216406 42.386055 49.424336" y="1.6875 -4.875 -4.875">f−1</tspan>
       <tspan style="font: 12px 'Source Code Pro'" x="55.096797" y="-0.28125">)</tspan>
      </text>
     </g>
    </g>
   </g>
   <g id="matplotlib.axis_2">
    <g id="ytick_1">
     <g id="line2d_19">
      <path d="M 45.044375 195.024 
L 603.044375 195.024 
" clip-path="url(#p0aea91f1a3)" style="fill: none; stroke: #dddddd; stroke-linecap: square"/>
     </g>
     <g id="line2d_20">
      <defs>
       <path id="mf830da5a1e" d="M 0 0 
L -3.5 0 
" style="stroke: #000000"/>
      </defs>
      <g>
       <use xlink:href="#mf830da5a1e" x="45.044375" y="195.024" style="stroke: #000000"/>
      </g>
     </g>
     <g id="text_11">
      <text style="font: 12px 'Source Code Pro'; text-anchor: end" x="38.044375" y="199.296187" transform="rotate(-0, 38.044375, 199.296187)">0.6</text>
     </g>
    </g>
    <g id="ytick_2">
     <g id="line2d_21">
      <path d="M 45.044375 139.584 
L 603.044375 139.584 
" clip-path="url(#p0aea91f1a3)" style="fill: none; stroke: #dddddd; stroke-linecap: square"/>
     </g>
     <g id="line2d_22">
      <g>
       <use xlink:href="#mf830da5a1e" x="45.044375" y="139.584" style="stroke: #000000"/>
      </g>
     </g>
     <g id="text_12">
      <text style="font: 12px 'Source Code Pro'; text-anchor: end" x="38.044375" y="143.856187" transform="rotate(-0, 38.044375, 143.856187)">0.7</text>
     </g>
    </g>
    <g id="ytick_3">
     <g id="line2d_23">
      <path d="M 45.044375 84.144 
L 603.044375 84.144 
" clip-path="url(#p0aea91f1a3)" style="fill: none; stroke: #dddddd; stroke-linecap: square"/>
     </g>
     <g id="line2d_24">
      <g>
       <use xlink:href="#mf830da5a1e" x="45.044375" y="84.144" style="stroke: #000000"/>
      </g>
     </g>
     <g id="text_13">
      <text style="font: 12px 'Source Code Pro'; text-anchor: end" x="38.044375" y="88.416187" transform="rotate(-0, 38.044375, 88.416187)">0.8</text>
     </g>
    </g>
    <g id="ytick_4">
     <g id="line2d_25">
      <path d="M 45.044375 28.704 
L 603.044375 28.704 
" clip-path="url(#p0aea91f1a3)" style="fill: none; stroke: #dddddd; stroke-linecap: square"/>
     </g>
     <g id="line2d_26">
      <g>
       <use xlink:href="#mf830da5a1e" x="45.044375" y="28.704" style="stroke: #000000"/>
      </g>
     </g>
     <g id="text_14">
      <text style="font: 12px 'Source Code Pro'; text-anchor: end" x="38.044375" y="32.976187" transform="rotate(-0, 38.044375, 32.976187)">0.9</text>
     </g>
    </g>
    <g id="text_15">
     <!-- $\mathrm{\epsilon\ (-)}$ -->
     <g transform="translate(9.984375 126.804)rotate(-90)">
      <text>
       <tspan style="font: 12px 'DejaVu Sans'" x="0 10.382774 15.064414 25.119102" y="-0.890625">ε(−)</tspan>
      </text>
     </g>
    </g>
   </g>
   <g id="PathCollection_1">
    <defs>
     <path id="m366702a927" d="M 0 4 
C 1.060812 4 2.078319 3.578535 2.828427 2.828427 
C 3.578535 2.078319 4 1.060812 4 0 
C 4 -1.060812 3.578535 -2.078319 2.828427 -2.828427 
C 2.078319 -3.578535 1.060812 -4 0 -4 
C -1.060812 -4 -2.078319 -3.578535 -2.828427 -2.828427 
C -3.578535 -2.078319 -4 -1.060812 -4 0 
C -4 1.060812 -3.578535 2.078319 -2.828427 2.828427 
C -2.078319 3.578535 -1.060812 4 0 4 
z
" style="stroke: #00a6d6"/>
    </defs>
    <g clip-path="url(#p0aea91f1a3)">
     <use xlink:href="#m366702a927" x="160.249121" y="149.789645" style="fill: #00a6d6; stroke: #00a6d6"/>
     <use xlink:href="#m366702a927" x="218.664589" y="122.4702" style="fill: #00a6d6; stroke: #00a6d6"/>
     <use xlink:href="#m366702a927" x="254.005453" y="90.947763" style="fill: #00a6d6; stroke: #00a6d6"/>
     <use xlink:href="#m366702a927" x="331.75449" y="83.205411" style="fill: #00a6d6; stroke: #00a6d6"/>
     <use xlink:href="#m366702a927" x="327.48439" y="76.845164" style="fill: #00a6d6; stroke: #00a6d6"/>
     <use xlink:href="#m366702a927" x="437.523695" y="59.700695" style="fill: #00a6d6; stroke: #00a6d6"/>
     <use xlink:href="#m366702a927" x="450.100057" y="55.181129" style="fill: #00a6d6; stroke: #00a6d6"/>
     <use xlink:href="#m366702a927" x="538.082311" y="39.228846" style="fill: #00a6d6; stroke: #00a6d6"/>
    </g>
   </g>
   <g id="line2d_27">
    <path d="M 99.038077 195.024 
L 100.59749 193.344 
L 102.193784 191.664 
L 103.827641 189.984 
L 105.49975 188.304 
L 107.210812 186.624 
L 108.961535 184.944 
L 110.752637 183.264 
L 112.584846 181.584 
L 114.458899 179.904 
L 116.375542 178.224 
L 118.335532 176.544 
L 120.339634 174.864 
L 122.388624 173.184 
L 124.483288 171.504 
L 126.62442 169.824 
L 128.812827 168.144 
L 131.049324 166.464 
L 133.334737 164.784 
L 135.669901 163.104 
L 138.055663 161.424 
L 140.492879 159.744 
L 142.982417 158.064 
L 145.525154 156.384 
L 148.12198 154.704 
L 150.773792 153.024 
L 153.481501 151.344 
L 156.246027 149.664 
L 159.068303 147.984 
L 161.94927 146.304 
L 164.889884 144.624 
L 167.891109 142.944 
L 170.953921 141.264 
L 174.079309 139.584 
L 177.268271 137.904 
L 180.521818 136.224 
L 183.840974 134.544 
L 187.226771 132.864 
L 190.680256 131.184 
L 194.202486 129.504 
L 197.794531 127.824 
L 201.457474 126.144 
L 205.192407 124.464 
L 209.000437 122.784 
L 212.882682 121.104 
L 216.840273 119.424 
L 220.874353 117.744 
L 224.986078 116.064 
L 229.176616 114.384 
L 233.447149 112.704 
L 237.798869 111.024 
L 242.232985 109.344 
L 246.750715 107.664 
L 251.353292 105.984 
L 256.041963 104.304 
L 260.817986 102.624 
L 265.682635 100.944 
L 270.637194 99.264 
L 275.682963 97.584 
L 280.821256 95.904 
L 286.053399 94.224 
L 291.380731 92.544 
L 296.804609 90.864 
L 302.326399 89.184 
L 307.947484 87.504 
L 313.66926 85.824 
L 319.493138 84.144 
L 325.420542 82.464 
L 331.452913 80.784 
L 337.591702 79.104 
L 343.83838 77.424 
L 350.194428 75.744 
L 356.661344 74.064 
L 363.240641 72.384 
L 369.933846 70.704 
L 376.742502 69.024 
L 383.668166 67.344 
L 390.71241 65.664 
L 397.876824 63.984 
L 405.163009 62.304 
L 412.572586 60.624 
L 420.107188 58.944 
L 427.768467 57.264 
L 435.558086 55.584 
L 443.47773 53.904 
L 451.529094 52.224 
L 459.713893 50.544 
L 468.033857 48.864 
L 476.490731 47.184 
L 485.086279 45.504 
L 493.822279 43.824 
L 502.700526 42.144 
L 511.722832 40.464 
L 520.891026 38.784 
L 530.206954 37.104 
L 539.672477 35.424 
L 549.289475 33.744 
L 559.059845 32.064 
L 568.9855 30.384 
L 579.06837 28.704 
" clip-path="url(#p0aea91f1a3)" style="fill: none; stroke-dasharray: 11.1,4.8; stroke-dashoffset: 0; stroke: #000000; stroke-width: 3"/>
   </g>
   <g id="patch_3">
    <path d="M 45.044375 195.024 
L 45.044375 28.704 
" style="fill: none; stroke: #000000; stroke-linejoin: miter; stroke-linecap: square"/>
   </g>
   <g id="patch_4">
    <path d="M 603.044375 195.024 
L 603.044375 28.704 
" style="fill: none; stroke: #000000; stroke-linejoin: miter; stroke-linecap: square"/>
   </g>
   <g id="patch_5">
    <path d="M 45.044375 195.024 
L 603.044375 195.024 
" style="fill: none; stroke: #000000; stroke-linejoin: miter; stroke-linecap: square"/>
   </g>
   <g id="patch_6">
    <path d="M 45.044375 28.704 
L 603.044375 28.704 
" style="fill: none; stroke: #000000; stroke-linejoin: miter; stroke-linecap: square"/>
   </g>
   <g id="legend_1">
    <g id="PathCollection_2">
     <g>
      <use xlink:href="#m366702a927" x="198.644375" y="12.39" style="fill: #00a6d6; stroke: #00a6d6"/>
     </g>
    </g>
    <g id="text_16">
     <text style="font: 12px 'Source Code Pro'; text-anchor: start" x="220.244375" y="15.54" transform="rotate(-0, 220.244375, 15.54)">measurement</text>
    </g>
    <g id="line2d_28">
     <path d="M 323.444375 11.34 
L 335.444375 11.34 
L 347.444375 11.34 
" style="fill: none; stroke-dasharray: 11.1,4.8; stroke-dashoffset: 0; stroke: #000000; stroke-width: 3"/>
    </g>
    <g id="text_17">
     <!-- $model\ (R^2=0.97)$ -->
     <g transform="translate(357.044375 15.54)">
      <text>
       <tspan style="font: 12px 'Source Code Pro'" x="0 7.199997 14.399994 21.599991 28.799988 38.39996 45.599957 59.673349 68.313346 75.513343 82.71334 89.913336 97.113333" y="-0.46250000000000213">model(R=0.97)</tspan>
       <tspan style="font: 8.4px 'Source Code Pro'" x="52.901946" y="-4.542187500000002">2</tspan>
      </text>
     </g>
    </g>
   </g>
  </g>
 </g>
 <defs>
  <clipPath id="p0aea91f1a3">
   <rect x="45.044375" y="28.704" width="558" height="166.32"/>
  </clipPath>
 </defs>
</svg>
