<?xml version="1.0" encoding="utf-8" standalone="no"?>
<!DOCTYPE svg PUBLIC "-//W3C//DTD SVG 1.1//EN"
  "http://www.w3.org/Graphics/SVG/1.1/DTD/svg11.dtd">
<svg xmlns:xlink="http://www.w3.org/1999/xlink" width="576pt" height="288pt" viewBox="0 0 576 288" xmlns="http://www.w3.org/2000/svg" version="1.1">
 <metadata>
  <rdf:RDF xmlns:dc="http://purl.org/dc/elements/1.1/" xmlns:cc="http://creativecommons.org/ns#" xmlns:rdf="http://www.w3.org/1999/02/22-rdf-syntax-ns#">
   <cc:Work>
    <dc:type rdf:resource="http://purl.org/dc/dcmitype/StillImage"/>
    <dc:date>2022-10-30T20:52:17.406383</dc:date>
    <dc:format>image/svg+xml</dc:format>
    <dc:creator>
     <cc:Agent>
      <dc:title>Matplotlib v3.5.2, https://matplotlib.org/</dc:title>
     </cc:Agent>
    </dc:creator>
   </cc:Work>
  </rdf:RDF>
 </metadata>
 <defs>
  <style type="text/css">*{stroke-linejoin: round; stroke-linecap: butt}</style>
 </defs>
 <g id="figure_1">
  <g id="patch_1">
   <path d="M 0 288 
L 576 288 
L 576 0 
L 0 0 
z
" style="fill: #ffffff"/>
  </g>
  <g id="axes_1">
   <g id="patch_2">
    <path d="M 69.12 98.4 
L 564.48 98.4 
L 564.48 28.8 
L 69.12 28.8 
z
" style="fill: #ffffff"/>
   </g>
   <g id="PolyCollection_1">
    <path d="M 97.19596 98.4 
L 97.19596 98.4 
L 97.925523 98.4 
L 98.115681 98.4 
L 98.734032 98.4 
L 98.776439 98.4 
L 99.056386 98.4 
L 99.067783 98.4 
L 99.190012 98.4 
L 99.351261 28.8 
L 126.872094 28.8 
L 127.169543 28.8 
L 128.081008 28.8 
L 128.082604 28.8 
L 145.124547 28.8 
L 145.161333 28.8 
L 165.144991 28.8 
L 165.146577 28.8 
L 173.066654 28.8 
L 173.409084 28.8 
L 173.424177 28.8 
L 173.500951 98.4 
L 173.554107 98.4 
L 173.662045 98.4 
L 173.667018 98.4 
L 173.676819 98.4 
L 173.680186 98.4 
L 173.776882 98.4 
L 175.017114 98.4 
L 175.136131 98.4 
L 186.926726 98.4 
L 187.326173 98.4 
L 202.209222 98.4 
L 202.21055 98.4 
L 239.274163 98.4 
L 239.274523 98.4 
L 265.068392 98.4 
L 265.338702 98.4 
L 265.384476 98.4 
L 265.492085 98.4 
L 265.498355 98.4 
L 265.501721 98.4 
L 265.59921 98.4 
L 276.338239 98.4 
L 276.338496 98.4 
L 283.529164 98.4 
L 283.561935 98.4 
L 283.597908 98.4 
L 283.707288 98.4 
L 306.617456 98.4 
L 307.120805 98.4 
L 310.709977 98.4 
L 310.888739 98.4 
L 311.50677 98.4 
L 311.839399 98.4 
L 313.402469 98.4 
L 321.688532 98.4 
L 321.791961 98.4 
L 321.90375 98.4 
L 322.065483 28.8 
L 346.77835 28.8 
L 346.794895 28.8 
L 350.465093 28.8 
L 350.466442 28.8 
L 364.75135 28.8 
L 364.800491 28.8 
L 387.529633 28.8 
L 387.530415 28.8 
L 395.471547 28.8 
L 395.695598 28.8 
L 395.747313 28.8 
L 395.929287 28.8 
L 396.032716 98.4 
L 396.176781 98.4 
L 396.198464 98.4 
L 396.205053 98.4 
L 396.211313 98.4 
L 396.304147 98.4 
L 397.541333 98.4 
L 397.613772 98.4 
L 409.411441 98.4 
L 409.857619 98.4 
L 424.594347 98.4 
L 424.594388 98.4 
L 461.65761 98.4 
L 461.658361 98.4 
L 494.077601 98.4 
L 494.138787 98.4 
L 494.221986 98.4 
L 494.246726 98.4 
L 497.62035 98.4 
L 497.756066 98.4 
L 497.852917 98.4 
L 497.961813 98.4 
L 497.976587 98.4 
L 498.04742 98.4 
L 498.05962 98.4 
L 498.062678 98.4 
L 498.160167 98.4 
L 498.7208 98.4 
L 498.722334 98.4 
L 516.00403 98.4 
L 516.118547 98.4 
L 516.150669 98.4 
L 516.258762 98.4 
L 535.785824 98.4 
L 535.786308 98.4 
L 539.177929 98.4 
L 539.631808 98.4 
L 541.963636 98.4 
L 541.963636 98.4 
L 541.963636 98.4 
L 539.631808 98.4 
L 539.177929 98.4 
L 535.786308 98.4 
L 535.785824 98.4 
L 516.258762 98.4 
L 516.150669 98.4 
L 516.118547 98.4 
L 516.00403 98.4 
L 498.722334 98.4 
L 498.7208 98.4 
L 498.160167 98.4 
L 498.062678 98.4 
L 498.05962 98.4 
L 498.04742 98.4 
L 497.976587 98.4 
L 497.961813 98.4 
L 497.852917 98.4 
L 497.756066 98.4 
L 497.62035 98.4 
L 494.246726 98.4 
L 494.221986 98.4 
L 494.138787 98.4 
L 494.077601 98.4 
L 461.658361 98.4 
L 461.65761 98.4 
L 424.594388 98.4 
L 424.594347 98.4 
L 409.857619 98.4 
L 409.411441 98.4 
L 397.613772 98.4 
L 397.541333 98.4 
L 396.304147 98.4 
L 396.211313 98.4 
L 396.205053 98.4 
L 396.198464 98.4 
L 396.176781 98.4 
L 396.032716 98.4 
L 395.929287 98.4 
L 395.747313 98.4 
L 395.695598 98.4 
L 395.471547 98.4 
L 387.530415 98.4 
L 387.529633 98.4 
L 364.800491 98.4 
L 364.75135 98.4 
L 350.466442 98.4 
L 350.465093 98.4 
L 346.794895 98.4 
L 346.77835 98.4 
L 322.065483 98.4 
L 321.90375 98.4 
L 321.791961 98.4 
L 321.688532 98.4 
L 313.402469 98.4 
L 311.839399 98.4 
L 311.50677 98.4 
L 310.888739 98.4 
L 310.709977 98.4 
L 307.120805 98.4 
L 306.617456 98.4 
L 283.707288 98.4 
L 283.597908 98.4 
L 283.561935 98.4 
L 283.529164 98.4 
L 276.338496 98.4 
L 276.338239 98.4 
L 265.59921 98.4 
L 265.501721 98.4 
L 265.498355 98.4 
L 265.492085 98.4 
L 265.384476 98.4 
L 265.338702 98.4 
L 265.068392 98.4 
L 239.274523 98.4 
L 239.274163 98.4 
L 202.21055 98.4 
L 202.209222 98.4 
L 187.326173 98.4 
L 186.926726 98.4 
L 175.136131 98.4 
L 175.017114 98.4 
L 173.776882 98.4 
L 173.680186 98.4 
L 173.676819 98.4 
L 173.667018 98.4 
L 173.662045 98.4 
L 173.554107 98.4 
L 173.500951 98.4 
L 173.424177 98.4 
L 173.409084 98.4 
L 173.066654 98.4 
L 165.146577 98.4 
L 165.144991 98.4 
L 145.161333 98.4 
L 145.124547 98.4 
L 128.082604 98.4 
L 128.081008 98.4 
L 127.169543 98.4 
L 126.872094 98.4 
L 99.351261 98.4 
L 99.190012 98.4 
L 99.067783 98.4 
L 99.056386 98.4 
L 98.776439 98.4 
L 98.734032 98.4 
L 98.115681 98.4 
L 97.925523 98.4 
L 97.19596 98.4 
z
" clip-path="url(#p599d59c145)" style="fill: url(#h8847256649)"/>
   </g>
   <g id="PolyCollection_2">
    <defs>
     <path id="m147c217e29" d="M 97.19596 -189.6 
L 97.19596 -189.6 
L 97.925523 -189.6 
L 98.115681 -189.6 
L 98.734032 -189.6 
L 98.776439 -189.6 
L 99.056386 -189.6 
L 99.067783 -189.6 
L 99.190012 -189.6 
L 99.351261 -189.6 
L 126.872094 -189.6 
L 127.169543 -189.6 
L 128.081008 -189.6 
L 128.082604 -189.6 
L 145.124547 -189.6 
L 145.161333 -189.6 
L 165.144991 -189.6 
L 165.146577 -189.6 
L 173.066654 -189.6 
L 173.409084 -189.6 
L 173.424177 -189.6 
L 173.500951 -189.6 
L 173.554107 -189.6 
L 173.662045 -189.6 
L 173.667018 -189.6 
L 173.676819 -189.6 
L 173.680186 -189.6 
L 173.776882 -189.6 
L 175.017114 -189.6 
L 175.136131 -189.6 
L 186.926726 -189.6 
L 187.326173 -189.6 
L 202.209222 -189.6 
L 202.21055 -189.6 
L 239.274163 -189.6 
L 239.274523 -189.6 
L 265.068392 -189.6 
L 265.338702 -189.6 
L 265.384476 -189.6 
L 265.492085 -189.6 
L 265.498355 -189.6 
L 265.501721 -189.6 
L 265.59921 -189.6 
L 276.338239 -189.6 
L 276.338496 -189.6 
L 283.529164 -189.6 
L 283.561935 -189.6 
L 283.597908 -189.6 
L 283.707288 -259.2 
L 306.617456 -259.2 
L 307.120805 -189.6 
L 310.709977 -189.6 
L 310.888739 -189.6 
L 311.50677 -189.6 
L 311.839399 -189.6 
L 313.402469 -189.6 
L 321.688532 -189.6 
L 321.791961 -189.6 
L 321.90375 -189.6 
L 322.065483 -189.6 
L 346.77835 -189.6 
L 346.794895 -189.6 
L 350.465093 -189.6 
L 350.466442 -189.6 
L 364.75135 -189.6 
L 364.800491 -189.6 
L 387.529633 -189.6 
L 387.530415 -189.6 
L 395.471547 -189.6 
L 395.695598 -189.6 
L 395.747313 -189.6 
L 395.929287 -189.6 
L 396.032716 -189.6 
L 396.176781 -189.6 
L 396.198464 -189.6 
L 396.205053 -189.6 
L 396.211313 -189.6 
L 396.304147 -189.6 
L 397.541333 -189.6 
L 397.613772 -189.6 
L 409.411441 -189.6 
L 409.857619 -189.6 
L 424.594347 -189.6 
L 424.594388 -189.6 
L 461.65761 -189.6 
L 461.658361 -189.6 
L 494.077601 -189.6 
L 494.138787 -189.6 
L 494.221986 -189.6 
L 494.246726 -189.6 
L 497.62035 -189.6 
L 497.756066 -189.6 
L 497.852917 -189.6 
L 497.961813 -189.6 
L 497.976587 -189.6 
L 498.04742 -189.6 
L 498.05962 -189.6 
L 498.062678 -189.6 
L 498.160167 -189.6 
L 498.7208 -189.6 
L 498.722334 -189.6 
L 516.00403 -189.6 
L 516.118547 -189.6 
L 516.150669 -189.6 
L 516.258762 -259.2 
L 535.785824 -259.2 
L 535.786308 -259.2 
L 539.177929 -259.2 
L 539.631808 -189.6 
L 541.963636 -189.6 
L 541.963636 -189.6 
L 541.963636 -189.6 
L 539.631808 -189.6 
L 539.177929 -189.6 
L 535.786308 -189.6 
L 535.785824 -189.6 
L 516.258762 -189.6 
L 516.150669 -189.6 
L 516.118547 -189.6 
L 516.00403 -189.6 
L 498.722334 -189.6 
L 498.7208 -189.6 
L 498.160167 -189.6 
L 498.062678 -189.6 
L 498.05962 -189.6 
L 498.04742 -189.6 
L 497.976587 -189.6 
L 497.961813 -189.6 
L 497.852917 -189.6 
L 497.756066 -189.6 
L 497.62035 -189.6 
L 494.246726 -189.6 
L 494.221986 -189.6 
L 494.138787 -189.6 
L 494.077601 -189.6 
L 461.658361 -189.6 
L 461.65761 -189.6 
L 424.594388 -189.6 
L 424.594347 -189.6 
L 409.857619 -189.6 
L 409.411441 -189.6 
L 397.613772 -189.6 
L 397.541333 -189.6 
L 396.304147 -189.6 
L 396.211313 -189.6 
L 396.205053 -189.6 
L 396.198464 -189.6 
L 396.176781 -189.6 
L 396.032716 -189.6 
L 395.929287 -189.6 
L 395.747313 -189.6 
L 395.695598 -189.6 
L 395.471547 -189.6 
L 387.530415 -189.6 
L 387.529633 -189.6 
L 364.800491 -189.6 
L 364.75135 -189.6 
L 350.466442 -189.6 
L 350.465093 -189.6 
L 346.794895 -189.6 
L 346.77835 -189.6 
L 322.065483 -189.6 
L 321.90375 -189.6 
L 321.791961 -189.6 
L 321.688532 -189.6 
L 313.402469 -189.6 
L 311.839399 -189.6 
L 311.50677 -189.6 
L 310.888739 -189.6 
L 310.709977 -189.6 
L 307.120805 -189.6 
L 306.617456 -189.6 
L 283.707288 -189.6 
L 283.597908 -189.6 
L 283.561935 -189.6 
L 283.529164 -189.6 
L 276.338496 -189.6 
L 276.338239 -189.6 
L 265.59921 -189.6 
L 265.501721 -189.6 
L 265.498355 -189.6 
L 265.492085 -189.6 
L 265.384476 -189.6 
L 265.338702 -189.6 
L 265.068392 -189.6 
L 239.274523 -189.6 
L 239.274163 -189.6 
L 202.21055 -189.6 
L 202.209222 -189.6 
L 187.326173 -189.6 
L 186.926726 -189.6 
L 175.136131 -189.6 
L 175.017114 -189.6 
L 173.776882 -189.6 
L 173.680186 -189.6 
L 173.676819 -189.6 
L 173.667018 -189.6 
L 173.662045 -189.6 
L 173.554107 -189.6 
L 173.500951 -189.6 
L 173.424177 -189.6 
L 173.409084 -189.6 
L 173.066654 -189.6 
L 165.146577 -189.6 
L 165.144991 -189.6 
L 145.161333 -189.6 
L 145.124547 -189.6 
L 128.082604 -189.6 
L 128.081008 -189.6 
L 127.169543 -189.6 
L 126.872094 -189.6 
L 99.351261 -189.6 
L 99.190012 -189.6 
L 99.067783 -189.6 
L 99.056386 -189.6 
L 98.776439 -189.6 
L 98.734032 -189.6 
L 98.115681 -189.6 
L 97.925523 -189.6 
L 97.19596 -189.6 
z
"/>
    </defs>
    <g clip-path="url(#p599d59c145)">
     <use xlink:href="#m147c217e29" x="0" y="288" style="fill: #dddddd"/>
    </g>
   </g>
   <g id="PolyCollection_3">
    <path d="M 97.19596 98.4 
L 97.19596 98.4 
L 97.925523 98.4 
L 98.115681 98.4 
L 98.734032 98.4 
L 98.776439 98.4 
L 99.056386 98.4 
L 99.067783 98.4 
L 99.190012 98.4 
L 99.351261 98.4 
L 126.872094 98.4 
L 127.169543 98.4 
L 128.081008 98.4 
L 128.082604 98.4 
L 145.124547 98.4 
L 145.161333 98.4 
L 165.144991 98.4 
L 165.146577 98.4 
L 173.066654 98.4 
L 173.409084 98.4 
L 173.424177 98.4 
L 173.500951 98.4 
L 173.554107 98.4 
L 173.662045 98.4 
L 173.667018 98.4 
L 173.676819 98.4 
L 173.680186 28.8 
L 173.776882 28.8 
L 175.017114 28.8 
L 175.136131 28.8 
L 186.926726 28.8 
L 187.326173 28.8 
L 202.209222 28.8 
L 202.21055 28.8 
L 239.274163 28.8 
L 239.274523 28.8 
L 265.068392 28.8 
L 265.338702 28.8 
L 265.384476 98.4 
L 265.492085 98.4 
L 265.498355 98.4 
L 265.501721 98.4 
L 265.59921 28.8 
L 276.338239 28.8 
L 276.338496 28.8 
L 283.529164 28.8 
L 283.561935 28.8 
L 283.597908 98.4 
L 283.707288 98.4 
L 306.617456 98.4 
L 307.120805 98.4 
L 310.709977 98.4 
L 310.888739 98.4 
L 311.50677 98.4 
L 311.839399 98.4 
L 313.402469 98.4 
L 321.688532 98.4 
L 321.791961 98.4 
L 321.90375 98.4 
L 322.065483 98.4 
L 346.77835 98.4 
L 346.794895 98.4 
L 350.465093 98.4 
L 350.466442 98.4 
L 364.75135 98.4 
L 364.800491 98.4 
L 387.529633 98.4 
L 387.530415 98.4 
L 395.471547 98.4 
L 395.695598 98.4 
L 395.747313 98.4 
L 395.929287 98.4 
L 396.032716 98.4 
L 396.176781 98.4 
L 396.198464 98.4 
L 396.205053 98.4 
L 396.211313 28.8 
L 396.304147 28.8 
L 397.541333 28.8 
L 397.613772 28.8 
L 409.411441 28.8 
L 409.857619 28.8 
L 424.594347 28.8 
L 424.594388 28.8 
L 461.65761 28.8 
L 461.658361 28.8 
L 494.077601 28.8 
L 494.138787 28.8 
L 494.221986 28.8 
L 494.246726 28.8 
L 497.62035 28.8 
L 497.756066 28.8 
L 497.852917 28.8 
L 497.961813 28.8 
L 497.976587 98.4 
L 498.04742 98.4 
L 498.05962 98.4 
L 498.062678 98.4 
L 498.160167 28.8 
L 498.7208 28.8 
L 498.722334 28.8 
L 516.00403 28.8 
L 516.118547 28.8 
L 516.150669 98.4 
L 516.258762 98.4 
L 535.785824 98.4 
L 535.786308 98.4 
L 539.177929 98.4 
L 539.631808 98.4 
L 541.963636 98.4 
L 541.963636 98.4 
L 541.963636 98.4 
L 539.631808 98.4 
L 539.177929 98.4 
L 535.786308 98.4 
L 535.785824 98.4 
L 516.258762 98.4 
L 516.150669 98.4 
L 516.118547 98.4 
L 516.00403 98.4 
L 498.722334 98.4 
L 498.7208 98.4 
L 498.160167 98.4 
L 498.062678 98.4 
L 498.05962 98.4 
L 498.04742 98.4 
L 497.976587 98.4 
L 497.961813 98.4 
L 497.852917 98.4 
L 497.756066 98.4 
L 497.62035 98.4 
L 494.246726 98.4 
L 494.221986 98.4 
L 494.138787 98.4 
L 494.077601 98.4 
L 461.658361 98.4 
L 461.65761 98.4 
L 424.594388 98.4 
L 424.594347 98.4 
L 409.857619 98.4 
L 409.411441 98.4 
L 397.613772 98.4 
L 397.541333 98.4 
L 396.304147 98.4 
L 396.211313 98.4 
L 396.205053 98.4 
L 396.198464 98.4 
L 396.176781 98.4 
L 396.032716 98.4 
L 395.929287 98.4 
L 395.747313 98.4 
L 395.695598 98.4 
L 395.471547 98.4 
L 387.530415 98.4 
L 387.529633 98.4 
L 364.800491 98.4 
L 364.75135 98.4 
L 350.466442 98.4 
L 350.465093 98.4 
L 346.794895 98.4 
L 346.77835 98.4 
L 322.065483 98.4 
L 321.90375 98.4 
L 321.791961 98.4 
L 321.688532 98.4 
L 313.402469 98.4 
L 311.839399 98.4 
L 311.50677 98.4 
L 310.888739 98.4 
L 310.709977 98.4 
L 307.120805 98.4 
L 306.617456 98.4 
L 283.707288 98.4 
L 283.597908 98.4 
L 283.561935 98.4 
L 283.529164 98.4 
L 276.338496 98.4 
L 276.338239 98.4 
L 265.59921 98.4 
L 265.501721 98.4 
L 265.498355 98.4 
L 265.492085 98.4 
L 265.384476 98.4 
L 265.338702 98.4 
L 265.068392 98.4 
L 239.274523 98.4 
L 239.274163 98.4 
L 202.21055 98.4 
L 202.209222 98.4 
L 187.326173 98.4 
L 186.926726 98.4 
L 175.136131 98.4 
L 175.017114 98.4 
L 173.776882 98.4 
L 173.680186 98.4 
L 173.676819 98.4 
L 173.667018 98.4 
L 173.662045 98.4 
L 173.554107 98.4 
L 173.500951 98.4 
L 173.424177 98.4 
L 173.409084 98.4 
L 173.066654 98.4 
L 165.146577 98.4 
L 165.144991 98.4 
L 145.161333 98.4 
L 145.124547 98.4 
L 128.082604 98.4 
L 128.081008 98.4 
L 127.169543 98.4 
L 126.872094 98.4 
L 99.351261 98.4 
L 99.190012 98.4 
L 99.067783 98.4 
L 99.056386 98.4 
L 98.776439 98.4 
L 98.734032 98.4 
L 98.115681 98.4 
L 97.925523 98.4 
L 97.19596 98.4 
z
" clip-path="url(#p599d59c145)" style="fill: url(#h73fed62ba0)"/>
   </g>
   <g id="matplotlib.axis_1">
    <g id="xtick_1">
     <g id="line2d_1">
      <path d="M 91.018631 98.4 
L 91.018631 28.8 
" clip-path="url(#p599d59c145)" style="fill: none; stroke: #b0b0b0; stroke-linecap: square"/>
     </g>
     <g id="line2d_2">
      <defs>
       <path id="mc4dbd5baad" d="M 0 0 
L 0 3.5 
" style="stroke: #000000"/>
      </defs>
      <g>
       <use xlink:href="#mc4dbd5baad" x="91.018631" y="98.4" style="stroke: #000000"/>
      </g>
     </g>
    </g>
    <g id="xtick_2">
     <g id="line2d_3">
      <path d="M 165.146577 98.4 
L 165.146577 28.8 
" clip-path="url(#p599d59c145)" style="fill: none; stroke: #b0b0b0; stroke-linecap: square"/>
     </g>
     <g id="line2d_4">
      <g>
       <use xlink:href="#mc4dbd5baad" x="165.146577" y="98.4" style="stroke: #000000"/>
      </g>
     </g>
    </g>
    <g id="xtick_3">
     <g id="line2d_5">
      <path d="M 239.274523 98.4 
L 239.274523 28.8 
" clip-path="url(#p599d59c145)" style="fill: none; stroke: #b0b0b0; stroke-linecap: square"/>
     </g>
     <g id="line2d_6">
      <g>
       <use xlink:href="#mc4dbd5baad" x="239.274523" y="98.4" style="stroke: #000000"/>
      </g>
     </g>
    </g>
    <g id="xtick_4">
     <g id="line2d_7">
      <path d="M 313.402469 98.4 
L 313.402469 28.8 
" clip-path="url(#p599d59c145)" style="fill: none; stroke: #b0b0b0; stroke-linecap: square"/>
     </g>
     <g id="line2d_8">
      <g>
       <use xlink:href="#mc4dbd5baad" x="313.402469" y="98.4" style="stroke: #000000"/>
      </g>
     </g>
    </g>
    <g id="xtick_5">
     <g id="line2d_9">
      <path d="M 387.530415 98.4 
L 387.530415 28.8 
" clip-path="url(#p599d59c145)" style="fill: none; stroke: #b0b0b0; stroke-linecap: square"/>
     </g>
     <g id="line2d_10">
      <g>
       <use xlink:href="#mc4dbd5baad" x="387.530415" y="98.4" style="stroke: #000000"/>
      </g>
     </g>
    </g>
    <g id="xtick_6">
     <g id="line2d_11">
      <path d="M 461.658361 98.4 
L 461.658361 28.8 
" clip-path="url(#p599d59c145)" style="fill: none; stroke: #b0b0b0; stroke-linecap: square"/>
     </g>
     <g id="line2d_12">
      <g>
       <use xlink:href="#mc4dbd5baad" x="461.658361" y="98.4" style="stroke: #000000"/>
      </g>
     </g>
    </g>
    <g id="xtick_7">
     <g id="line2d_13">
      <path d="M 535.786308 98.4 
L 535.786308 28.8 
" clip-path="url(#p599d59c145)" style="fill: none; stroke: #b0b0b0; stroke-linecap: square"/>
     </g>
     <g id="line2d_14">
      <g>
       <use xlink:href="#mc4dbd5baad" x="535.786308" y="98.4" style="stroke: #000000"/>
      </g>
     </g>
    </g>
    <g id="xtick_8">
     <g id="line2d_15">
      <defs>
       <path id="m1d74eb7a07" d="M 0 0 
L 0 2 
" style="stroke: #000000; stroke-width: 0.6"/>
      </defs>
      <g>
       <use xlink:href="#m1d74eb7a07" x="120.669809" y="98.4" style="stroke: #000000; stroke-width: 0.6"/>
      </g>
     </g>
    </g>
    <g id="xtick_9">
     <g id="line2d_16">
      <g>
       <use xlink:href="#m1d74eb7a07" x="209.623345" y="98.4" style="stroke: #000000; stroke-width: 0.6"/>
      </g>
     </g>
    </g>
    <g id="xtick_10">
     <g id="line2d_17">
      <g>
       <use xlink:href="#m1d74eb7a07" x="298.57688" y="98.4" style="stroke: #000000; stroke-width: 0.6"/>
      </g>
     </g>
    </g>
    <g id="xtick_11">
     <g id="line2d_18">
      <g>
       <use xlink:href="#m1d74eb7a07" x="476.483951" y="98.4" style="stroke: #000000; stroke-width: 0.6"/>
      </g>
     </g>
    </g>
   </g>
   <g id="matplotlib.axis_2">
    <g id="ytick_1">
     <g id="line2d_19">
      <path d="M 69.12 98.4 
L 564.48 98.4 
" clip-path="url(#p599d59c145)" style="fill: none; stroke: #b0b0b0; stroke-linecap: square"/>
     </g>
     <g id="line2d_20">
      <defs>
       <path id="mfea4440d74" d="M 0 0 
L -3.5 0 
" style="stroke: #000000"/>
      </defs>
      <g>
       <use xlink:href="#mfea4440d74" x="69.12" y="98.4" style="stroke: #000000"/>
      </g>
     </g>
     <g id="text_1">
      <text style="font: 12px 'Source Code Pro'; text-anchor: end" x="62.12" y="102.672188" transform="rotate(-0, 62.12, 102.672188)">0.00</text>
     </g>
    </g>
    <g id="ytick_2">
     <g id="line2d_21">
      <path d="M 69.12 63.6 
L 564.48 63.6 
" clip-path="url(#p599d59c145)" style="fill: none; stroke: #b0b0b0; stroke-linecap: square"/>
     </g>
     <g id="line2d_22">
      <g>
       <use xlink:href="#mfea4440d74" x="69.12" y="63.6" style="stroke: #000000"/>
      </g>
     </g>
     <g id="text_2">
      <text style="font: 12px 'Source Code Pro'; text-anchor: end" x="62.12" y="67.872188" transform="rotate(-0, 62.12, 67.872188)">0.25</text>
     </g>
    </g>
    <g id="ytick_3">
     <g id="line2d_23">
      <path d="M 69.12 28.8 
L 564.48 28.8 
" clip-path="url(#p599d59c145)" style="fill: none; stroke: #b0b0b0; stroke-linecap: square"/>
     </g>
     <g id="line2d_24">
      <g>
       <use xlink:href="#mfea4440d74" x="69.12" y="28.8" style="stroke: #000000"/>
      </g>
     </g>
     <g id="text_3">
      <text style="font: 12px 'Source Code Pro'; text-anchor: end" x="62.12" y="33.072188" transform="rotate(-0, 62.12, 33.072188)">0.50</text>
     </g>
    </g>
   </g>
   <g id="line2d_25">
    <path d="M 91.636364 97.008 
L 93.901384 97.008 
L 94.107295 98.4 
L 94.210251 98.4 
L 94.416162 97.008 
L 94.725028 97.008 
L 94.930939 98.4 
L 95.445716 98.4 
L 95.651627 97.008 
L 95.754583 97.008 
L 95.960494 98.4 
L 97.504826 98.4 
L 97.710737 97.008 
L 98.740292 97.008 
L 98.843247 98.4 
L 99.049158 97.008 
L 99.152114 97.008 
L 99.358025 98.4 
L 124.685073 98.4 
L 124.890984 97.008 
L 130.45058 97.008 
L 130.656491 98.4 
L 132.509689 98.4 
L 132.7156 97.008 
L 134.362888 97.008 
L 134.568799 98.4 
L 135.186532 98.4 
L 135.392443 97.008 
L 164.219978 97.008 
L 164.425889 95.616 
L 164.631799 97.008 
L 166.690909 97.008 
L 166.89682 95.616 
L 167.205686 95.616 
L 167.411597 97.008 
L 168.132286 97.008 
L 168.338197 95.616 
L 168.647063 95.616 
L 168.852974 97.008 
L 169.161841 97.008 
L 169.367752 95.616 
L 170.294351 95.616 
L 170.500262 97.008 
L 170.706173 97.008 
L 170.912084 95.616 
L 171.426861 95.616 
L 171.632772 97.008 
L 171.941639 97.008 
L 172.14755 95.616 
L 172.456416 95.616 
L 172.662327 97.008 
L 173.177104 97.008 
L 173.383015 95.616 
L 174.309615 95.616 
L 174.515526 97.008 
L 175.442125 97.008 
L 175.648036 95.616 
L 175.750991 95.616 
L 175.956902 97.008 
L 176.265769 97.008 
L 176.47168 95.616 
L 176.986457 95.616 
L 177.192368 97.008 
L 177.295324 97.008 
L 177.398279 95.616 
L 177.60419 97.008 
L 178.221923 97.008 
L 178.427834 95.616 
L 181.001721 95.616 
L 181.207632 97.008 
L 184.811074 97.008 
L 185.016985 95.616 
L 185.222896 97.008 
L 185.737673 97.008 
L 185.943584 95.616 
L 186.458361 95.616 
L 186.664272 97.008 
L 187.17905 97.008 
L 187.384961 95.616 
L 187.487916 95.616 
L 187.693827 97.008 
L 188.208605 97.008 
L 188.414516 95.616 
L 189.032248 95.616 
L 189.238159 97.008 
L 189.752937 97.008 
L 189.958848 95.616 
L 191.297269 95.616 
L 191.400224 94.224 
L 191.50318 94.224 
L 191.709091 92.832 
L 191.812046 92.832 
L 192.120913 90.048 
L 192.223868 90.048 
L 192.63569 85.872 
L 192.738646 85.872 
L 192.944557 84.48 
L 193.047512 84.48 
L 193.356379 81.696 
L 193.459334 81.696 
L 193.716723 80.304 
L 193.768201 80.304 
L 193.974111 78.912 
L 194.077067 78.912 
L 194.282978 77.52 
L 194.385933 77.52 
L 194.591844 76.128 
L 194.6948 76.128 
L 194.900711 74.736 
L 195.106622 74.736 
L 195.312533 73.344 
L 195.82731 73.344 
L 196.033221 71.952 
L 198.607108 71.952 
L 198.813019 73.344 
L 199.533707 73.344 
L 199.739618 74.736 
L 201.07804 74.736 
L 201.283951 76.128 
L 201.592817 76.128 
L 201.695773 77.52 
L 202.519416 77.52 
L 202.725327 78.912 
L 203.34306 78.912 
L 203.548971 80.304 
L 205.196259 80.304 
L 205.40217 81.696 
L 206.122858 81.696 
L 206.328769 83.088 
L 206.946502 83.088 
L 207.152413 84.48 
L 207.976057 84.48 
L 208.181968 85.872 
L 209.108567 85.872 
L 209.314478 87.264 
L 210.652899 87.264 
L 210.85881 88.656 
L 212.91792 88.656 
L 213.020875 90.048 
L 217.447961 90.048 
L 217.653872 91.44 
L 222.389824 91.44 
L 222.595735 90.048 
L 228.464198 90.048 
L 228.670108 88.656 
L 232.27355 88.656 
L 232.479461 87.264 
L 234.847437 87.264 
L 235.053348 85.872 
L 237.112458 85.872 
L 237.318369 84.48 
L 239.377478 84.48 
L 239.583389 83.088 
L 241.539544 83.088 
L 241.745455 81.696 
L 243.598653 81.696 
L 243.804564 80.304 
L 245.760718 80.304 
L 245.966629 78.912 
L 247.716872 78.912 
L 247.819828 77.52 
L 249.570071 77.52 
L 249.775982 76.128 
L 251.629181 76.128 
L 251.732136 74.736 
L 253.585335 74.736 
L 253.791246 73.344 
L 255.438533 73.344 
L 255.644444 71.952 
L 257.600599 71.952 
L 257.80651 70.56 
L 259.556753 70.56 
L 259.762664 69.168 
L 262.027684 69.168 
L 262.233595 67.776 
L 264.292705 67.776 
L 264.498616 66.384 
L 266.042948 66.384 
L 266.300337 64.992 
L 268.616835 64.992 
L 268.822746 63.6 
L 269.234568 63.6 
L 269.440479 62.208 
L 269.780232 59.424 
L 269.852301 59.424 
L 270.058212 58.032 
L 270.161167 58.032 
L 270.264123 56.64 
L 270.572989 56.64 
L 270.7789 55.248 
L 270.881856 55.248 
L 271.087767 53.856 
L 271.293678 53.856 
L 271.499588 52.464 
L 271.705499 52.464 
L 271.91141 51.072 
L 272.220277 51.072 
L 272.426188 49.68 
L 272.735054 49.68 
L 272.940965 48.288 
L 273.352787 48.288 
L 273.558698 46.896 
L 274.176431 46.896 
L 274.382342 45.504 
L 275.000075 45.504 
L 275.205986 44.112 
L 276.853273 44.112 
L 277.059184 42.72 
L 283.648335 42.72 
L 283.854246 44.112 
L 286.531089 44.112 
L 286.737 42.72 
L 287.045866 42.72 
L 287.251777 41.328 
L 287.86951 41.328 
L 288.075421 39.936 
L 290.13453 39.936 
L 290.237486 41.328 
L 290.443397 39.936 
L 291.472952 39.936 
L 291.575907 41.328 
L 291.781818 39.936 
L 292.090685 39.936 
L 292.296596 41.328 
L 292.605462 41.328 
L 292.811373 39.936 
L 293.32615 39.936 
L 293.532061 41.328 
L 295.797082 41.328 
L 295.900037 39.936 
L 296.105948 41.328 
L 300.8419 41.328 
L 301.047811 42.72 
L 301.253722 42.72 
L 301.459633 41.328 
L 301.562589 41.328 
L 301.7685 42.72 
L 307.122185 42.72 
L 307.328096 44.112 
L 307.636962 44.112 
L 307.842873 42.72 
L 310.725627 42.72 
L 310.931538 44.112 
L 311.34336 44.112 
L 311.54927 42.72 
L 313.093603 42.72 
L 313.299514 44.112 
L 313.505425 42.72 
L 313.814291 42.72 
L 314.020202 44.112 
L 321.947774 44.112 
L 322.153685 42.72 
L 322.359596 44.112 
L 322.462551 44.112 
L 322.668462 42.72 
L 322.874373 42.72 
L 323.080284 44.112 
L 328.742836 44.112 
L 328.948747 42.72 
L 329.257613 42.72 
L 329.463524 44.112 
L 329.56648 44.112 
L 329.772391 42.72 
L 329.978302 44.112 
L 336.979274 44.112 
L 337.185185 45.504 
L 337.288141 45.504 
L 337.494052 44.112 
L 342.53887 44.112 
L 342.744781 45.504 
L 345.318668 45.504 
L 345.524579 44.112 
L 346.451178 44.112 
L 346.657089 45.504 
L 347.274822 45.504 
L 347.480733 44.112 
L 348.716199 44.112 
L 348.92211 42.72 
L 350.260531 42.72 
L 350.466442 44.112 
L 357.055593 44.112 
L 357.261504 45.504 
L 357.467415 44.112 
L 363.747699 44.112 
L 363.95361 42.72 
L 366.01272 42.72 
L 366.218631 44.112 
L 368.689562 44.112 
L 368.895473 42.72 
L 372.190049 42.72 
L 372.39596 44.112 
L 373.837336 44.112 
L 374.043247 42.72 
L 375.072802 42.72 
L 375.278713 44.112 
L 384.132884 44.112 
L 384.338795 42.72 
L 385.36835 42.72 
L 385.574261 41.328 
L 385.883128 41.328 
L 386.089039 42.72 
L 395.869809 42.72 
L 396.07572 44.112 
L 399.473251 44.112 
L 399.576207 42.72 
L 399.782117 44.112 
L 401.223494 44.112 
L 401.429405 42.72 
L 402.253049 42.72 
L 402.45896 44.112 
L 403.179648 44.112 
L 403.385559 42.72 
L 411.827909 42.72 
L 412.03382 44.112 
L 412.239731 42.72 
L 412.342686 44.112 
L 412.857464 66.384 
L 412.960419 66.384 
L 413.063374 67.776 
L 413.372241 64.992 
L 413.887018 70.56 
L 413.989974 70.56 
L 414.29884 73.344 
L 414.504751 73.344 
L 414.76214 74.736 
L 415.22544 74.736 
L 415.431351 73.344 
L 415.534306 73.344 
L 415.740217 71.952 
L 416.666816 71.952 
L 416.872727 70.56 
L 417.593416 70.56 
L 417.696371 69.168 
L 418.931837 69.168 
L 419.137748 67.776 
L 420.887991 67.776 
L 421.093902 69.168 
L 421.81459 69.168 
L 422.020501 70.56 
L 422.74119 70.56 
L 422.947101 71.952 
L 423.461878 71.952 
L 423.667789 73.344 
L 424.182566 73.344 
L 424.285522 74.736 
L 424.800299 74.736 
L 425.00621 76.128 
L 425.520988 76.128 
L 425.726899 77.52 
L 426.241676 77.52 
L 426.447587 78.912 
L 427.06532 78.912 
L 427.168275 80.304 
L 427.888964 80.304 
L 428.094875 81.696 
L 428.712608 81.696 
L 428.918519 83.088 
L 429.639207 83.088 
L 429.845118 84.48 
L 430.668762 84.48 
L 430.874673 85.872 
L 431.801272 85.872 
L 432.007183 87.264 
L 433.242649 87.264 
L 433.44856 88.656 
L 435.404714 88.656 
L 435.507669 90.048 
L 449.818481 90.048 
L 450.024392 88.656 
L 450.950991 88.656 
L 451.156902 87.264 
L 451.980546 87.264 
L 452.186457 85.872 
L 454.554433 85.872 
L 454.760344 84.48 
L 456.716498 84.48 
L 456.819454 85.872 
L 459.599252 85.872 
L 459.805163 87.264 
L 461.555406 87.264 
L 461.761317 88.656 
L 463.305649 88.656 
L 463.51156 90.048 
L 464.952937 90.048 
L 465.158848 91.44 
L 466.600224 91.44 
L 466.806135 92.832 
L 468.247512 92.832 
L 468.453423 94.224 
L 470.100711 94.224 
L 470.306622 95.616 
L 472.056865 95.616 
L 472.262776 97.008 
L 474.733707 97.008 
L 474.939618 98.4 
L 539.461818 98.4 
L 539.461818 98.4 
" clip-path="url(#p599d59c145)" style="fill: none; stroke-dasharray: 11.1,4.8; stroke-dashoffset: 0; stroke: #c3312f; stroke-width: 3"/>
   </g>
   <g id="line2d_26">
    <path d="M 91.636364 98.66448 
L 189.44407 98.568678 
L 190.37067 97.965205 
L 190.782492 97.526315 
L 191.606135 96.977704 
L 192.017957 96.385883 
L 192.429779 95.673822 
L 192.738646 94.96176 
L 193.253423 93.964874 
L 193.551994 93.395225 
L 193.665245 92.89812 
L 193.974111 92.049 
L 194.6948 90.80664 
L 194.808051 90.6048 
L 195.209577 89.816 
L 196.239132 88.674982 
L 197.268687 87.853701 
L 197.371642 87.740064 
L 197.88642 87.428256 
L 197.989375 87.376752 
L 198.915975 87.323289 
L 200.460307 87.612 
L 200.563262 87.66768 
L 202.313505 88.0296 
L 204.074044 88.0296 
L 204.681481 97.35948 
L 204.691777 98.69232 
L 204.784437 97.859904 
L 204.887392 96.195072 
L 205.247737 92.865408 
L 205.30951 90.36816 
L 205.40217 90.394453 
L 206.637636 90.647024 
L 208.459948 91.491504 
L 208.696745 91.6604 
L 211.888365 92.860932 
L 213.926884 93.372969 
L 214.153386 93.446118 
L 215.903629 93.653583 
L 224.448934 93.972304 
L 226.096221 93.845032 
L 226.44627 93.787788 
L 230.111485 93.329836 
L 232.170595 93.032612 
L 234.538571 92.565882 
L 238.759746 91.751153 
L 241.138017 91.7184 
L 241.436588 94.27968 
L 241.539544 95.56032 
L 241.683681 96.84096 
L 241.75575 98.76192 
L 241.84841 97.944816 
L 242.054321 95.493504 
L 242.157276 93.042192 
L 242.569098 90.535933 
L 244.412001 90.096353 
L 244.525253 90.059722 
L 246.687318 89.565195 
L 246.790273 89.522462 
L 249.137658 88.789951 
L 249.261205 88.741117 
L 251.629181 88.081857 
L 251.732136 88.002556 
L 252.514598 87.70069 
L 252.658736 87.618363 
L 255.438533 86.803093 
L 256.262177 86.591021 
L 256.365133 86.532129 
L 257.477052 86.119883 
L 257.600599 86.031545 
L 258.93902 85.753144 
L 259.927392 85.542014 
L 260.277441 85.386437 
L 264.344183 84.04848 
L 265.373737 83.522473 
L 267.278414 82.893939 
L 269.55373 82.61472 
L 270.161167 82.107413 
L 270.3156 81.80272 
L 270.572989 81.4408 
L 270.7789 81.078879 
L 270.881856 80.723919 
L 271.468702 80.177173 
L 271.705499 79.864747 
L 272.024661 79.55232 
L 272.220277 79.188173 
L 273.249832 77.852967 
L 273.558698 77.246055 
L 273.857269 76.760526 
L 273.97052 76.458601 
L 274.495593 76.044479 
L 274.588253 75.818666 
L 275.10303 75.141227 
L 275.205986 74.98192 
L 275.823719 74.61072 
L 278.20199 74.61072 
L 278.809428 95.73084 
L 278.819723 98.748 
L 278.912383 95.34804 
L 279.42716 74.94828 
L 279.530116 71.486674 
L 280.456715 71.037258 
L 283.154149 70.616342 
L 285.614785 70.796639 
L 285.707445 71.216096 
L 286.839955 73.732833 
L 286.984093 74.857801 
L 287.251777 76.230661 
L 288.693154 82.797669 
L 288.796109 83.492177 
L 289.300591 85.08204 
L 289.413842 85.611995 
L 291.164085 90.381583 
L 291.267041 90.75792 
L 291.781818 91.42608 
L 291.884774 91.626926 
L 293.017284 92.700754 
L 293.120239 92.923474 
L 294.046839 93.9456 
L 294.263045 94.11264 
L 295.076394 95.266674 
L 296.723681 96.256983 
L 296.826637 96.347871 
L 300.430079 97.490287 
L 304.857164 98.266852 
L 315.66749 98.674423 
L 316.182267 98.731097 
L 318.035466 98.569029 
L 408.533333 98.652261 
L 411.045447 98.542996 
L 411.652884 97.287947 
L 413.269285 93.51582 
L 414.092929 92.499558 
L 414.597411 92.062306 
L 414.720958 91.84368 
L 414.916573 91.56064 
L 415.328395 91.088907 
L 415.431351 90.954192 
L 415.904946 90.671616 
L 416.35795 90.11238 
L 416.563861 89.82528 
L 417.037456 89.25108 
L 417.181594 89.05968 
L 418.005238 88.19838 
L 418.128784 87.91128 
L 419.446614 86.53668 
L 420.270258 86.08428 
L 420.393805 85.984752 
L 422.226412 85.681356 
L 422.432323 85.809662 
L 424.604684 86.38704 
L 426.457883 86.38704 
L 427.06532 97.1907 
L 427.075615 98.73408 
L 427.168275 97.682347 
L 427.580097 92.42368 
L 427.703644 89.26848 
L 427.786008 89.2911 
L 429.021474 89.676201 
L 430.153984 90.271618 
L 431.162948 90.821234 
L 431.286495 90.912836 
L 434.889936 92.5913 
L 438.596334 93.25888 
L 441.376132 93.399627 
L 445.494351 93.350938 
L 449.900845 93.073458 
L 450.230303 92.994757 
L 451.496655 92.74969 
L 454.245567 91.813419 
L 456.098765 91.41912 
L 457.334231 91.389105 
L 459.805163 91.692356 
L 462.893827 92.08032 
L 463.521856 92.08032 
L 464.129293 97.90236 
L 464.139588 98.73408 
L 464.232248 98.03286 
L 464.747026 93.82554 
L 464.757321 93.12432 
L 464.849981 93.13998 
L 466.085447 93.433857 
L 468.412241 94.200556 
L 468.76229 94.347998 
L 470.049233 94.819813 
L 470.718444 95.085208 
L 477.101684 96.867408 
L 479.552024 97.143024 
L 479.603502 97.18896 
L 480.746308 97.41864 
L 481.055174 97.510512 
L 484.185021 97.85712 
L 496.18963 98.34192 
L 500.585829 98.38608 
L 501.203562 98.77584 
L 501.821294 98.6088 
L 502.38755 98.29328 
L 502.439027 98.13552 
L 506.402813 97.44416 
L 508.245716 97.491988 
L 511.674134 97.85712 
L 512.003591 97.923508 
L 514.289203 98.189058 
L 520.919536 98.697448 
L 539.461818 98.78976 
L 539.461818 98.78976 
" clip-path="url(#p599d59c145)" style="fill: none; stroke: #c3312f; stroke-width: 3; stroke-linecap: square"/>
   </g>
   <g id="patch_3">
    <path d="M 69.12 98.4 
L 69.12 28.8 
" style="fill: none; stroke: #000000; stroke-linejoin: miter; stroke-linecap: square"/>
   </g>
   <g id="patch_4">
    <path d="M 564.48 98.4 
L 564.48 28.8 
" style="fill: none; stroke: #000000; stroke-linejoin: miter; stroke-linecap: square"/>
   </g>
   <g id="patch_5">
    <path d="M 69.12 98.4 
L 564.48 98.4 
" style="fill: none; stroke: #000000; stroke-linejoin: miter; stroke-linecap: square"/>
   </g>
   <g id="patch_6">
    <path d="M 69.12 28.8 
L 564.48 28.8 
" style="fill: none; stroke: #000000; stroke-linejoin: miter; stroke-linecap: square"/>
   </g>
   <g id="patch_7">
    <path d="M 196.033221 26.485718 
Q 196.033221 48.218456 196.033221 68.833161 
" style="fill: none; stroke: #000000; stroke-linecap: round"/>
    <path d="M 198.433221 64.033161 
L 196.033221 68.833161 
L 193.633221 64.033161 
" style="fill: none; stroke: #000000; stroke-linecap: round"/>
   </g>
   <g id="text_4">
    <g id="patch_8">
     <path d="M 192.433221 23.982187 
L 199.633221 23.982187 
Q 203.233221 23.982187 203.233221 20.382187 
L 203.233221 9.377812 
Q 203.233221 5.777812 199.633221 5.777812 
L 192.433221 5.777812 
Q 188.833221 5.777812 188.833221 9.377812 
L 188.833221 20.382187 
Q 188.833221 23.982187 192.433221 23.982187 
z
" style="fill: #cccccc; stroke: #000000; stroke-linejoin: miter"/>
    </g>
    <text style="font: 12px 'Source Code Pro'; text-anchor: middle" x="196.033221" y="17.922188" transform="rotate(-0, 196.033221, 17.922188)">2</text>
   </g>
   <g id="patch_9">
    <path d="M 245.451852 26.483474 
Q 245.451852 52.393472 245.451852 77.185435 
" style="fill: none; stroke: #000000; stroke-linecap: round"/>
    <path d="M 247.851852 72.385435 
L 245.451852 77.185435 
L 243.051852 72.385435 
" style="fill: none; stroke: #000000; stroke-linecap: round"/>
   </g>
   <g id="text_5">
    <g id="patch_10">
     <path d="M 241.851852 23.982187 
L 249.051852 23.982187 
Q 252.651852 23.982187 252.651852 20.382187 
L 252.651852 9.377812 
Q 252.651852 5.777812 249.051852 5.777812 
L 241.851852 5.777812 
Q 238.251852 5.777812 238.251852 9.377812 
L 238.251852 20.382187 
Q 238.251852 23.982187 241.851852 23.982187 
z
" style="fill: #cccccc; stroke: #000000; stroke-linejoin: miter"/>
    </g>
    <text style="font: 12px 'Source Code Pro'; text-anchor: middle" x="245.451852" y="17.922188" transform="rotate(-0, 245.451852, 17.922188)">3</text>
   </g>
   <g id="patch_11">
    <path d="M 319.579798 26.484145 
Q 319.579798 61.527263 319.579798 95.452348 
" style="fill: none; stroke: #000000; stroke-linecap: round"/>
    <path d="M 321.979798 90.652348 
L 319.579798 95.452348 
L 317.179798 90.652348 
" style="fill: none; stroke: #000000; stroke-linecap: round"/>
   </g>
   <g id="text_6">
    <g id="patch_12">
     <path d="M 315.979798 23.982187 
L 323.179798 23.982187 
Q 326.779798 23.982187 326.779798 20.382187 
L 326.779798 9.377812 
Q 326.779798 5.777812 323.179798 5.777812 
L 315.979798 5.777812 
Q 312.379798 5.777812 312.379798 9.377812 
L 312.379798 20.382187 
Q 312.379798 23.982187 315.979798 23.982187 
z
" style="fill: #cccccc; stroke: #000000; stroke-linejoin: miter"/>
    </g>
    <text style="font: 12px 'Source Code Pro'; text-anchor: middle" x="319.579798" y="17.922188" transform="rotate(-0, 319.579798, 17.922188)">5</text>
   </g>
   <g id="patch_13">
    <path d="M 415.328395 26.48356 
Q 415.328395 48.914163 415.328395 70.226732 
" style="fill: none; stroke: #000000; stroke-linecap: round"/>
    <path d="M 417.728395 65.426732 
L 415.328395 70.226732 
L 412.928395 65.426732 
" style="fill: none; stroke: #000000; stroke-linecap: round"/>
   </g>
   <g id="text_7">
    <g id="patch_14">
     <path d="M 411.728395 23.982187 
L 418.928395 23.982187 
Q 422.528395 23.982187 422.528395 20.382187 
L 422.528395 9.377812 
Q 422.528395 5.777812 418.928395 5.777812 
L 411.728395 5.777812 
Q 408.128395 5.777812 408.128395 9.377812 
L 408.128395 20.382187 
Q 408.128395 23.982187 411.728395 23.982187 
z
" style="fill: #cccccc; stroke: #000000; stroke-linejoin: miter"/>
    </g>
    <text style="font: 12px 'Source Code Pro'; text-anchor: middle" x="415.328395" y="17.922188" transform="rotate(-0, 415.328395, 17.922188)">7</text>
   </g>
   <g id="patch_15">
    <path d="M 455.481033 26.487846 
Q 455.481033 54.483997 455.481033 81.362115 
" style="fill: none; stroke: #000000; stroke-linecap: round"/>
    <path d="M 457.881033 76.562115 
L 455.481033 81.362115 
L 453.081033 76.562115 
" style="fill: none; stroke: #000000; stroke-linecap: round"/>
   </g>
   <g id="text_8">
    <g id="patch_16">
     <path d="M 451.881033 23.982187 
L 459.081033 23.982187 
Q 462.681033 23.982187 462.681033 20.382187 
L 462.681033 9.377812 
Q 462.681033 5.777812 459.081033 5.777812 
L 451.881033 5.777812 
Q 448.281033 5.777812 448.281033 9.377812 
L 448.281033 20.382187 
Q 448.281033 23.982187 451.881033 23.982187 
z
" style="fill: #cccccc; stroke: #000000; stroke-linejoin: miter"/>
    </g>
    <text style="font: 12px 'Source Code Pro'; text-anchor: middle" x="455.481033" y="17.922188" transform="rotate(-0, 455.481033, 17.922188)">9</text>
   </g>
   <g id="patch_17">
    <path d="M 530.20612 26.480088 
Q 530.20612 61.4414 530.20612 95.284678 
" style="fill: none; stroke: #000000; stroke-linecap: round"/>
    <path d="M 532.60612 90.484678 
L 530.20612 95.284678 
L 527.80612 90.484678 
" style="fill: none; stroke: #000000; stroke-linecap: round"/>
   </g>
   <g id="text_9">
    <g id="patch_18">
     <path d="M 523.00612 23.982187 
L 537.40612 23.982187 
Q 541.00612 23.982187 541.00612 20.382187 
L 541.00612 9.377812 
Q 541.00612 5.777812 537.40612 5.777812 
L 523.00612 5.777812 
Q 519.40612 5.777812 519.40612 9.377812 
L 519.40612 20.382187 
Q 519.40612 23.982187 523.00612 23.982187 
z
" style="fill: #cccccc; stroke: #000000; stroke-linejoin: miter"/>
    </g>
    <text style="font: 12px 'Source Code Pro'; text-anchor: middle" x="530.20612" y="17.922188" transform="rotate(-0, 530.20612, 17.922188)">10</text>
   </g>
  </g>
  <g id="axes_2">
   <g id="patch_19">
    <path d="M 69.12 237.6 
L 564.48 237.6 
L 564.48 98.4 
L 69.12 98.4 
z
" style="fill: #ffffff"/>
   </g>
   <g id="PolyCollection_4">
    <path d="M 97.19596 237.6 
L 97.19596 237.6 
L 97.925523 237.6 
L 98.115681 237.6 
L 98.734032 237.6 
L 98.776439 237.6 
L 99.056386 237.6 
L 99.067783 237.6 
L 99.190012 237.6 
L 99.351261 98.4 
L 126.872094 98.4 
L 127.169543 98.4 
L 128.081008 98.4 
L 128.082604 98.4 
L 145.124547 98.4 
L 145.161333 98.4 
L 165.144991 98.4 
L 165.146577 98.4 
L 173.066654 98.4 
L 173.409084 98.4 
L 173.424177 98.4 
L 173.500951 237.6 
L 173.554107 237.6 
L 173.662045 237.6 
L 173.667018 237.6 
L 173.676819 237.6 
L 173.680186 237.6 
L 173.776882 237.6 
L 175.017114 237.6 
L 175.136131 237.6 
L 186.926726 237.6 
L 187.326173 237.6 
L 202.209222 237.6 
L 202.21055 237.6 
L 239.274163 237.6 
L 239.274523 237.6 
L 265.068392 237.6 
L 265.338702 237.6 
L 265.384476 237.6 
L 265.492085 237.6 
L 265.498355 237.6 
L 265.501721 237.6 
L 265.59921 237.6 
L 276.338239 237.6 
L 276.338496 237.6 
L 283.529164 237.6 
L 283.561935 237.6 
L 283.597908 237.6 
L 283.707288 237.6 
L 306.617456 237.6 
L 307.120805 237.6 
L 310.709977 237.6 
L 310.888739 237.6 
L 311.50677 237.6 
L 311.839399 237.6 
L 313.402469 237.6 
L 321.688532 237.6 
L 321.791961 237.6 
L 321.90375 237.6 
L 322.065483 98.4 
L 346.77835 98.4 
L 346.794895 98.4 
L 350.465093 98.4 
L 350.466442 98.4 
L 364.75135 98.4 
L 364.800491 98.4 
L 387.529633 98.4 
L 387.530415 98.4 
L 395.471547 98.4 
L 395.695598 98.4 
L 395.747313 98.4 
L 395.929287 98.4 
L 396.032716 237.6 
L 396.176781 237.6 
L 396.198464 237.6 
L 396.205053 237.6 
L 396.211313 237.6 
L 396.304147 237.6 
L 397.541333 237.6 
L 397.613772 237.6 
L 409.411441 237.6 
L 409.857619 237.6 
L 424.594347 237.6 
L 424.594388 237.6 
L 461.65761 237.6 
L 461.658361 237.6 
L 494.077601 237.6 
L 494.138787 237.6 
L 494.221986 237.6 
L 494.246726 237.6 
L 497.62035 237.6 
L 497.756066 237.6 
L 497.852917 237.6 
L 497.961813 237.6 
L 497.976587 237.6 
L 498.04742 237.6 
L 498.05962 237.6 
L 498.062678 237.6 
L 498.160167 237.6 
L 498.7208 237.6 
L 498.722334 237.6 
L 516.00403 237.6 
L 516.118547 237.6 
L 516.150669 237.6 
L 516.258762 237.6 
L 535.785824 237.6 
L 535.786308 237.6 
L 539.177929 237.6 
L 539.631808 237.6 
L 541.963636 237.6 
L 541.963636 237.6 
L 541.963636 237.6 
L 539.631808 237.6 
L 539.177929 237.6 
L 535.786308 237.6 
L 535.785824 237.6 
L 516.258762 237.6 
L 516.150669 237.6 
L 516.118547 237.6 
L 516.00403 237.6 
L 498.722334 237.6 
L 498.7208 237.6 
L 498.160167 237.6 
L 498.062678 237.6 
L 498.05962 237.6 
L 498.04742 237.6 
L 497.976587 237.6 
L 497.961813 237.6 
L 497.852917 237.6 
L 497.756066 237.6 
L 497.62035 237.6 
L 494.246726 237.6 
L 494.221986 237.6 
L 494.138787 237.6 
L 494.077601 237.6 
L 461.658361 237.6 
L 461.65761 237.6 
L 424.594388 237.6 
L 424.594347 237.6 
L 409.857619 237.6 
L 409.411441 237.6 
L 397.613772 237.6 
L 397.541333 237.6 
L 396.304147 237.6 
L 396.211313 237.6 
L 396.205053 237.6 
L 396.198464 237.6 
L 396.176781 237.6 
L 396.032716 237.6 
L 395.929287 237.6 
L 395.747313 237.6 
L 395.695598 237.6 
L 395.471547 237.6 
L 387.530415 237.6 
L 387.529633 237.6 
L 364.800491 237.6 
L 364.75135 237.6 
L 350.466442 237.6 
L 350.465093 237.6 
L 346.794895 237.6 
L 346.77835 237.6 
L 322.065483 237.6 
L 321.90375 237.6 
L 321.791961 237.6 
L 321.688532 237.6 
L 313.402469 237.6 
L 311.839399 237.6 
L 311.50677 237.6 
L 310.888739 237.6 
L 310.709977 237.6 
L 307.120805 237.6 
L 306.617456 237.6 
L 283.707288 237.6 
L 283.597908 237.6 
L 283.561935 237.6 
L 283.529164 237.6 
L 276.338496 237.6 
L 276.338239 237.6 
L 265.59921 237.6 
L 265.501721 237.6 
L 265.498355 237.6 
L 265.492085 237.6 
L 265.384476 237.6 
L 265.338702 237.6 
L 265.068392 237.6 
L 239.274523 237.6 
L 239.274163 237.6 
L 202.21055 237.6 
L 202.209222 237.6 
L 187.326173 237.6 
L 186.926726 237.6 
L 175.136131 237.6 
L 175.017114 237.6 
L 173.776882 237.6 
L 173.680186 237.6 
L 173.676819 237.6 
L 173.667018 237.6 
L 173.662045 237.6 
L 173.554107 237.6 
L 173.500951 237.6 
L 173.424177 237.6 
L 173.409084 237.6 
L 173.066654 237.6 
L 165.146577 237.6 
L 165.144991 237.6 
L 145.161333 237.6 
L 145.124547 237.6 
L 128.082604 237.6 
L 128.081008 237.6 
L 127.169543 237.6 
L 126.872094 237.6 
L 99.351261 237.6 
L 99.190012 237.6 
L 99.067783 237.6 
L 99.056386 237.6 
L 98.776439 237.6 
L 98.734032 237.6 
L 98.115681 237.6 
L 97.925523 237.6 
L 97.19596 237.6 
z
" clip-path="url(#p5170b423fe)" style="fill: url(#h8847256649)"/>
   </g>
   <g id="PolyCollection_5">
    <defs>
     <path id="me34fe1dd85" d="M 97.19596 -50.4 
L 97.19596 -50.4 
L 97.925523 -50.4 
L 98.115681 -50.4 
L 98.734032 -50.4 
L 98.776439 -50.4 
L 99.056386 -50.4 
L 99.067783 -50.4 
L 99.190012 -50.4 
L 99.351261 -50.4 
L 126.872094 -50.4 
L 127.169543 -50.4 
L 128.081008 -50.4 
L 128.082604 -50.4 
L 145.124547 -50.4 
L 145.161333 -50.4 
L 165.144991 -50.4 
L 165.146577 -50.4 
L 173.066654 -50.4 
L 173.409084 -50.4 
L 173.424177 -50.4 
L 173.500951 -50.4 
L 173.554107 -50.4 
L 173.662045 -50.4 
L 173.667018 -50.4 
L 173.676819 -50.4 
L 173.680186 -50.4 
L 173.776882 -50.4 
L 175.017114 -50.4 
L 175.136131 -50.4 
L 186.926726 -50.4 
L 187.326173 -50.4 
L 202.209222 -50.4 
L 202.21055 -50.4 
L 239.274163 -50.4 
L 239.274523 -50.4 
L 265.068392 -50.4 
L 265.338702 -50.4 
L 265.384476 -50.4 
L 265.492085 -50.4 
L 265.498355 -50.4 
L 265.501721 -50.4 
L 265.59921 -50.4 
L 276.338239 -50.4 
L 276.338496 -50.4 
L 283.529164 -50.4 
L 283.561935 -50.4 
L 283.597908 -50.4 
L 283.707288 -189.6 
L 306.617456 -189.6 
L 307.120805 -50.4 
L 310.709977 -50.4 
L 310.888739 -50.4 
L 311.50677 -50.4 
L 311.839399 -50.4 
L 313.402469 -50.4 
L 321.688532 -50.4 
L 321.791961 -50.4 
L 321.90375 -50.4 
L 322.065483 -50.4 
L 346.77835 -50.4 
L 346.794895 -50.4 
L 350.465093 -50.4 
L 350.466442 -50.4 
L 364.75135 -50.4 
L 364.800491 -50.4 
L 387.529633 -50.4 
L 387.530415 -50.4 
L 395.471547 -50.4 
L 395.695598 -50.4 
L 395.747313 -50.4 
L 395.929287 -50.4 
L 396.032716 -50.4 
L 396.176781 -50.4 
L 396.198464 -50.4 
L 396.205053 -50.4 
L 396.211313 -50.4 
L 396.304147 -50.4 
L 397.541333 -50.4 
L 397.613772 -50.4 
L 409.411441 -50.4 
L 409.857619 -50.4 
L 424.594347 -50.4 
L 424.594388 -50.4 
L 461.65761 -50.4 
L 461.658361 -50.4 
L 494.077601 -50.4 
L 494.138787 -50.4 
L 494.221986 -50.4 
L 494.246726 -50.4 
L 497.62035 -50.4 
L 497.756066 -50.4 
L 497.852917 -50.4 
L 497.961813 -50.4 
L 497.976587 -50.4 
L 498.04742 -50.4 
L 498.05962 -50.4 
L 498.062678 -50.4 
L 498.160167 -50.4 
L 498.7208 -50.4 
L 498.722334 -50.4 
L 516.00403 -50.4 
L 516.118547 -50.4 
L 516.150669 -50.4 
L 516.258762 -189.6 
L 535.785824 -189.6 
L 535.786308 -189.6 
L 539.177929 -189.6 
L 539.631808 -50.4 
L 541.963636 -50.4 
L 541.963636 -50.4 
L 541.963636 -50.4 
L 539.631808 -50.4 
L 539.177929 -50.4 
L 535.786308 -50.4 
L 535.785824 -50.4 
L 516.258762 -50.4 
L 516.150669 -50.4 
L 516.118547 -50.4 
L 516.00403 -50.4 
L 498.722334 -50.4 
L 498.7208 -50.4 
L 498.160167 -50.4 
L 498.062678 -50.4 
L 498.05962 -50.4 
L 498.04742 -50.4 
L 497.976587 -50.4 
L 497.961813 -50.4 
L 497.852917 -50.4 
L 497.756066 -50.4 
L 497.62035 -50.4 
L 494.246726 -50.4 
L 494.221986 -50.4 
L 494.138787 -50.4 
L 494.077601 -50.4 
L 461.658361 -50.4 
L 461.65761 -50.4 
L 424.594388 -50.4 
L 424.594347 -50.4 
L 409.857619 -50.4 
L 409.411441 -50.4 
L 397.613772 -50.4 
L 397.541333 -50.4 
L 396.304147 -50.4 
L 396.211313 -50.4 
L 396.205053 -50.4 
L 396.198464 -50.4 
L 396.176781 -50.4 
L 396.032716 -50.4 
L 395.929287 -50.4 
L 395.747313 -50.4 
L 395.695598 -50.4 
L 395.471547 -50.4 
L 387.530415 -50.4 
L 387.529633 -50.4 
L 364.800491 -50.4 
L 364.75135 -50.4 
L 350.466442 -50.4 
L 350.465093 -50.4 
L 346.794895 -50.4 
L 346.77835 -50.4 
L 322.065483 -50.4 
L 321.90375 -50.4 
L 321.791961 -50.4 
L 321.688532 -50.4 
L 313.402469 -50.4 
L 311.839399 -50.4 
L 311.50677 -50.4 
L 310.888739 -50.4 
L 310.709977 -50.4 
L 307.120805 -50.4 
L 306.617456 -50.4 
L 283.707288 -50.4 
L 283.597908 -50.4 
L 283.561935 -50.4 
L 283.529164 -50.4 
L 276.338496 -50.4 
L 276.338239 -50.4 
L 265.59921 -50.4 
L 265.501721 -50.4 
L 265.498355 -50.4 
L 265.492085 -50.4 
L 265.384476 -50.4 
L 265.338702 -50.4 
L 265.068392 -50.4 
L 239.274523 -50.4 
L 239.274163 -50.4 
L 202.21055 -50.4 
L 202.209222 -50.4 
L 187.326173 -50.4 
L 186.926726 -50.4 
L 175.136131 -50.4 
L 175.017114 -50.4 
L 173.776882 -50.4 
L 173.680186 -50.4 
L 173.676819 -50.4 
L 173.667018 -50.4 
L 173.662045 -50.4 
L 173.554107 -50.4 
L 173.500951 -50.4 
L 173.424177 -50.4 
L 173.409084 -50.4 
L 173.066654 -50.4 
L 165.146577 -50.4 
L 165.144991 -50.4 
L 145.161333 -50.4 
L 145.124547 -50.4 
L 128.082604 -50.4 
L 128.081008 -50.4 
L 127.169543 -50.4 
L 126.872094 -50.4 
L 99.351261 -50.4 
L 99.190012 -50.4 
L 99.067783 -50.4 
L 99.056386 -50.4 
L 98.776439 -50.4 
L 98.734032 -50.4 
L 98.115681 -50.4 
L 97.925523 -50.4 
L 97.19596 -50.4 
z
"/>
    </defs>
    <g clip-path="url(#p5170b423fe)">
     <use xlink:href="#me34fe1dd85" x="0" y="288" style="fill: #dddddd"/>
    </g>
   </g>
   <g id="PolyCollection_6">
    <path d="M 97.19596 237.6 
L 97.19596 237.6 
L 97.925523 237.6 
L 98.115681 237.6 
L 98.734032 237.6 
L 98.776439 237.6 
L 99.056386 237.6 
L 99.067783 237.6 
L 99.190012 237.6 
L 99.351261 237.6 
L 126.872094 237.6 
L 127.169543 237.6 
L 128.081008 237.6 
L 128.082604 237.6 
L 145.124547 237.6 
L 145.161333 237.6 
L 165.144991 237.6 
L 165.146577 237.6 
L 173.066654 237.6 
L 173.409084 237.6 
L 173.424177 237.6 
L 173.500951 237.6 
L 173.554107 237.6 
L 173.662045 237.6 
L 173.667018 237.6 
L 173.676819 237.6 
L 173.680186 98.4 
L 173.776882 98.4 
L 175.017114 98.4 
L 175.136131 98.4 
L 186.926726 98.4 
L 187.326173 98.4 
L 202.209222 98.4 
L 202.21055 98.4 
L 239.274163 98.4 
L 239.274523 98.4 
L 265.068392 98.4 
L 265.338702 98.4 
L 265.384476 237.6 
L 265.492085 237.6 
L 265.498355 237.6 
L 265.501721 237.6 
L 265.59921 98.4 
L 276.338239 98.4 
L 276.338496 98.4 
L 283.529164 98.4 
L 283.561935 98.4 
L 283.597908 237.6 
L 283.707288 237.6 
L 306.617456 237.6 
L 307.120805 237.6 
L 310.709977 237.6 
L 310.888739 237.6 
L 311.50677 237.6 
L 311.839399 237.6 
L 313.402469 237.6 
L 321.688532 237.6 
L 321.791961 237.6 
L 321.90375 237.6 
L 322.065483 237.6 
L 346.77835 237.6 
L 346.794895 237.6 
L 350.465093 237.6 
L 350.466442 237.6 
L 364.75135 237.6 
L 364.800491 237.6 
L 387.529633 237.6 
L 387.530415 237.6 
L 395.471547 237.6 
L 395.695598 237.6 
L 395.747313 237.6 
L 395.929287 237.6 
L 396.032716 237.6 
L 396.176781 237.6 
L 396.198464 237.6 
L 396.205053 237.6 
L 396.211313 98.4 
L 396.304147 98.4 
L 397.541333 98.4 
L 397.613772 98.4 
L 409.411441 98.4 
L 409.857619 98.4 
L 424.594347 98.4 
L 424.594388 98.4 
L 461.65761 98.4 
L 461.658361 98.4 
L 494.077601 98.4 
L 494.138787 98.4 
L 494.221986 98.4 
L 494.246726 98.4 
L 497.62035 98.4 
L 497.756066 98.4 
L 497.852917 98.4 
L 497.961813 98.4 
L 497.976587 237.6 
L 498.04742 237.6 
L 498.05962 237.6 
L 498.062678 237.6 
L 498.160167 98.4 
L 498.7208 98.4 
L 498.722334 98.4 
L 516.00403 98.4 
L 516.118547 98.4 
L 516.150669 237.6 
L 516.258762 237.6 
L 535.785824 237.6 
L 535.786308 237.6 
L 539.177929 237.6 
L 539.631808 237.6 
L 541.963636 237.6 
L 541.963636 237.6 
L 541.963636 237.6 
L 539.631808 237.6 
L 539.177929 237.6 
L 535.786308 237.6 
L 535.785824 237.6 
L 516.258762 237.6 
L 516.150669 237.6 
L 516.118547 237.6 
L 516.00403 237.6 
L 498.722334 237.6 
L 498.7208 237.6 
L 498.160167 237.6 
L 498.062678 237.6 
L 498.05962 237.6 
L 498.04742 237.6 
L 497.976587 237.6 
L 497.961813 237.6 
L 497.852917 237.6 
L 497.756066 237.6 
L 497.62035 237.6 
L 494.246726 237.6 
L 494.221986 237.6 
L 494.138787 237.6 
L 494.077601 237.6 
L 461.658361 237.6 
L 461.65761 237.6 
L 424.594388 237.6 
L 424.594347 237.6 
L 409.857619 237.6 
L 409.411441 237.6 
L 397.613772 237.6 
L 397.541333 237.6 
L 396.304147 237.6 
L 396.211313 237.6 
L 396.205053 237.6 
L 396.198464 237.6 
L 396.176781 237.6 
L 396.032716 237.6 
L 395.929287 237.6 
L 395.747313 237.6 
L 395.695598 237.6 
L 395.471547 237.6 
L 387.530415 237.6 
L 387.529633 237.6 
L 364.800491 237.6 
L 364.75135 237.6 
L 350.466442 237.6 
L 350.465093 237.6 
L 346.794895 237.6 
L 346.77835 237.6 
L 322.065483 237.6 
L 321.90375 237.6 
L 321.791961 237.6 
L 321.688532 237.6 
L 313.402469 237.6 
L 311.839399 237.6 
L 311.50677 237.6 
L 310.888739 237.6 
L 310.709977 237.6 
L 307.120805 237.6 
L 306.617456 237.6 
L 283.707288 237.6 
L 283.597908 237.6 
L 283.561935 237.6 
L 283.529164 237.6 
L 276.338496 237.6 
L 276.338239 237.6 
L 265.59921 237.6 
L 265.501721 237.6 
L 265.498355 237.6 
L 265.492085 237.6 
L 265.384476 237.6 
L 265.338702 237.6 
L 265.068392 237.6 
L 239.274523 237.6 
L 239.274163 237.6 
L 202.21055 237.6 
L 202.209222 237.6 
L 187.326173 237.6 
L 186.926726 237.6 
L 175.136131 237.6 
L 175.017114 237.6 
L 173.776882 237.6 
L 173.680186 237.6 
L 173.676819 237.6 
L 173.667018 237.6 
L 173.662045 237.6 
L 173.554107 237.6 
L 173.500951 237.6 
L 173.424177 237.6 
L 173.409084 237.6 
L 173.066654 237.6 
L 165.146577 237.6 
L 165.144991 237.6 
L 145.161333 237.6 
L 145.124547 237.6 
L 128.082604 237.6 
L 128.081008 237.6 
L 127.169543 237.6 
L 126.872094 237.6 
L 99.351261 237.6 
L 99.190012 237.6 
L 99.067783 237.6 
L 99.056386 237.6 
L 98.776439 237.6 
L 98.734032 237.6 
L 98.115681 237.6 
L 97.925523 237.6 
L 97.19596 237.6 
z
" clip-path="url(#p5170b423fe)" style="fill: url(#h73fed62ba0)"/>
   </g>
   <g id="matplotlib.axis_3">
    <g id="xtick_12">
     <g id="line2d_27">
      <path d="M 91.018631 237.6 
L 91.018631 98.4 
" clip-path="url(#p5170b423fe)" style="fill: none; stroke: #b0b0b0; stroke-linecap: square"/>
     </g>
     <g id="line2d_28">
      <g>
       <use xlink:href="#mc4dbd5baad" x="91.018631" y="237.6" style="stroke: #000000"/>
      </g>
     </g>
     <g id="line2d_29">
      <defs>
       <path id="m0a576095ad" d="M 0 0 
L 0 -3.5 
" style="stroke: #000000"/>
      </defs>
      <g>
       <use xlink:href="#m0a576095ad" x="91.018631" y="98.4" style="stroke: #000000"/>
      </g>
     </g>
     <g id="text_10">
      <text style="font: 12px 'Source Code Pro'; text-anchor: middle" x="91.018631" y="253.144375" transform="rotate(-0, 91.018631, 253.144375)">04:00</text>
     </g>
    </g>
    <g id="xtick_13">
     <g id="line2d_30">
      <path d="M 165.146577 237.6 
L 165.146577 98.4 
" clip-path="url(#p5170b423fe)" style="fill: none; stroke: #b0b0b0; stroke-linecap: square"/>
     </g>
     <g id="line2d_31">
      <g>
       <use xlink:href="#mc4dbd5baad" x="165.146577" y="237.6" style="stroke: #000000"/>
      </g>
     </g>
     <g id="line2d_32">
      <g>
       <use xlink:href="#m0a576095ad" x="165.146577" y="98.4" style="stroke: #000000"/>
      </g>
     </g>
     <g id="text_11">
      <text style="font: 12px 'Source Code Pro'; text-anchor: middle" x="165.146577" y="253.144375" transform="rotate(-0, 165.146577, 253.144375)">06:00</text>
     </g>
    </g>
    <g id="xtick_14">
     <g id="line2d_33">
      <path d="M 239.274523 237.6 
L 239.274523 98.4 
" clip-path="url(#p5170b423fe)" style="fill: none; stroke: #b0b0b0; stroke-linecap: square"/>
     </g>
     <g id="line2d_34">
      <g>
       <use xlink:href="#mc4dbd5baad" x="239.274523" y="237.6" style="stroke: #000000"/>
      </g>
     </g>
     <g id="line2d_35">
      <g>
       <use xlink:href="#m0a576095ad" x="239.274523" y="98.4" style="stroke: #000000"/>
      </g>
     </g>
     <g id="text_12">
      <text style="font: 12px 'Source Code Pro'; text-anchor: middle" x="239.274523" y="253.144375" transform="rotate(-0, 239.274523, 253.144375)">08:00</text>
     </g>
    </g>
    <g id="xtick_15">
     <g id="line2d_36">
      <path d="M 313.402469 237.6 
L 313.402469 98.4 
" clip-path="url(#p5170b423fe)" style="fill: none; stroke: #b0b0b0; stroke-linecap: square"/>
     </g>
     <g id="line2d_37">
      <g>
       <use xlink:href="#mc4dbd5baad" x="313.402469" y="237.6" style="stroke: #000000"/>
      </g>
     </g>
     <g id="line2d_38">
      <g>
       <use xlink:href="#m0a576095ad" x="313.402469" y="98.4" style="stroke: #000000"/>
      </g>
     </g>
     <g id="text_13">
      <text style="font: 12px 'Source Code Pro'; text-anchor: middle" x="313.402469" y="253.144375" transform="rotate(-0, 313.402469, 253.144375)">10:00</text>
     </g>
    </g>
    <g id="xtick_16">
     <g id="line2d_39">
      <path d="M 387.530415 237.6 
L 387.530415 98.4 
" clip-path="url(#p5170b423fe)" style="fill: none; stroke: #b0b0b0; stroke-linecap: square"/>
     </g>
     <g id="line2d_40">
      <g>
       <use xlink:href="#mc4dbd5baad" x="387.530415" y="237.6" style="stroke: #000000"/>
      </g>
     </g>
     <g id="line2d_41">
      <g>
       <use xlink:href="#m0a576095ad" x="387.530415" y="98.4" style="stroke: #000000"/>
      </g>
     </g>
     <g id="text_14">
      <text style="font: 12px 'Source Code Pro'; text-anchor: middle" x="387.530415" y="253.144375" transform="rotate(-0, 387.530415, 253.144375)">12:00</text>
     </g>
    </g>
    <g id="xtick_17">
     <g id="line2d_42">
      <path d="M 461.658361 237.6 
L 461.658361 98.4 
" clip-path="url(#p5170b423fe)" style="fill: none; stroke: #b0b0b0; stroke-linecap: square"/>
     </g>
     <g id="line2d_43">
      <g>
       <use xlink:href="#mc4dbd5baad" x="461.658361" y="237.6" style="stroke: #000000"/>
      </g>
     </g>
     <g id="line2d_44">
      <g>
       <use xlink:href="#m0a576095ad" x="461.658361" y="98.4" style="stroke: #000000"/>
      </g>
     </g>
     <g id="text_15">
      <text style="font: 12px 'Source Code Pro'; text-anchor: middle" x="461.658361" y="253.144375" transform="rotate(-0, 461.658361, 253.144375)">14:00</text>
     </g>
    </g>
    <g id="xtick_18">
     <g id="line2d_45">
      <path d="M 535.786308 237.6 
L 535.786308 98.4 
" clip-path="url(#p5170b423fe)" style="fill: none; stroke: #b0b0b0; stroke-linecap: square"/>
     </g>
     <g id="line2d_46">
      <g>
       <use xlink:href="#mc4dbd5baad" x="535.786308" y="237.6" style="stroke: #000000"/>
      </g>
     </g>
     <g id="line2d_47">
      <g>
       <use xlink:href="#m0a576095ad" x="535.786308" y="98.4" style="stroke: #000000"/>
      </g>
     </g>
     <g id="text_16">
      <text style="font: 12px 'Source Code Pro'; text-anchor: middle" x="535.786308" y="253.144375" transform="rotate(-0, 535.786308, 253.144375)">16:00</text>
     </g>
    </g>
    <g id="xtick_19">
     <g id="line2d_48">
      <g>
       <use xlink:href="#m1d74eb7a07" x="120.669809" y="237.6" style="stroke: #000000; stroke-width: 0.6"/>
      </g>
     </g>
    </g>
    <g id="xtick_20">
     <g id="line2d_49">
      <g>
       <use xlink:href="#m1d74eb7a07" x="209.623345" y="237.6" style="stroke: #000000; stroke-width: 0.6"/>
      </g>
     </g>
    </g>
    <g id="xtick_21">
     <g id="line2d_50">
      <g>
       <use xlink:href="#m1d74eb7a07" x="298.57688" y="237.6" style="stroke: #000000; stroke-width: 0.6"/>
      </g>
     </g>
    </g>
    <g id="xtick_22">
     <g id="line2d_51">
      <g>
       <use xlink:href="#m1d74eb7a07" x="476.483951" y="237.6" style="stroke: #000000; stroke-width: 0.6"/>
      </g>
     </g>
    </g>
   </g>
   <g id="matplotlib.axis_4">
    <g id="ytick_4">
     <g id="line2d_52">
      <path d="M 69.12 237.6 
L 564.48 237.6 
" clip-path="url(#p5170b423fe)" style="fill: none; stroke: #b0b0b0; stroke-linecap: square"/>
     </g>
     <g id="line2d_53">
      <g>
       <use xlink:href="#mfea4440d74" x="69.12" y="237.6" style="stroke: #000000"/>
      </g>
     </g>
     <g id="text_17">
      <text style="font: 12px 'Source Code Pro'; text-anchor: end" x="62.12" y="241.872188" transform="rotate(-0, 62.12, 241.872188)">0</text>
     </g>
    </g>
    <g id="ytick_5">
     <g id="line2d_54">
      <path d="M 69.12 208.6 
L 564.48 208.6 
" clip-path="url(#p5170b423fe)" style="fill: none; stroke: #b0b0b0; stroke-linecap: square"/>
     </g>
     <g id="line2d_55">
      <g>
       <use xlink:href="#mfea4440d74" x="69.12" y="208.6" style="stroke: #000000"/>
      </g>
     </g>
     <g id="text_18">
      <text style="font: 12px 'Source Code Pro'; text-anchor: end" x="62.12" y="212.872188" transform="rotate(-0, 62.12, 212.872188)">5</text>
     </g>
    </g>
    <g id="ytick_6">
     <g id="line2d_56">
      <path d="M 69.12 179.6 
L 564.48 179.6 
" clip-path="url(#p5170b423fe)" style="fill: none; stroke: #b0b0b0; stroke-linecap: square"/>
     </g>
     <g id="line2d_57">
      <g>
       <use xlink:href="#mfea4440d74" x="69.12" y="179.6" style="stroke: #000000"/>
      </g>
     </g>
     <g id="text_19">
      <text style="font: 12px 'Source Code Pro'; text-anchor: end" x="62.12" y="183.872188" transform="rotate(-0, 62.12, 183.872188)">10</text>
     </g>
    </g>
    <g id="ytick_7">
     <g id="line2d_58">
      <path d="M 69.12 150.6 
L 564.48 150.6 
" clip-path="url(#p5170b423fe)" style="fill: none; stroke: #b0b0b0; stroke-linecap: square"/>
     </g>
     <g id="line2d_59">
      <g>
       <use xlink:href="#mfea4440d74" x="69.12" y="150.6" style="stroke: #000000"/>
      </g>
     </g>
     <g id="text_20">
      <text style="font: 12px 'Source Code Pro'; text-anchor: end" x="62.12" y="154.872188" transform="rotate(-0, 62.12, 154.872188)">15</text>
     </g>
    </g>
    <g id="ytick_8">
     <g id="line2d_60">
      <path d="M 69.12 121.6 
L 564.48 121.6 
" clip-path="url(#p5170b423fe)" style="fill: none; stroke: #b0b0b0; stroke-linecap: square"/>
     </g>
     <g id="line2d_61">
      <g>
       <use xlink:href="#mfea4440d74" x="69.12" y="121.6" style="stroke: #000000"/>
      </g>
     </g>
     <g id="text_21">
      <text style="font: 12px 'Source Code Pro'; text-anchor: end" x="62.12" y="125.872188" transform="rotate(-0, 62.12, 125.872188)">20</text>
     </g>
    </g>
    <g id="text_22">
     <!-- conc. (mg $L^{-1}\ /\ ppm\ x\ 1000$) -->
     <g transform="translate(26.56 225.84)rotate(-90)">
      <text>
       <tspan style="font: 12px 'Source Code Pro'" x="0 7.199997 14.399994 21.599991 28.799988 35.999985 43.199982 50.399979 57.599976 64.799973 71.999969 92.073336 101.673308 108.873304 116.073301 125.673273 135.273245 142.473242 149.673239 156.873236 164.073233" y="-0.5609375000000014">conc.(mgL/ppmx1000)</tspan>
       <tspan style="font: 8.4px 'Source Code Pro'" x="79.301959 84.341956" y="-4.640625000000001">1</tspan>
      </text>
     </g>
    </g>
   </g>
   <g id="line2d_62">
    <path d="M 91.636364 237.013394 
L 187.858556 236.932484 
L 188.414516 235.4094 
L 190.061803 234.783134 
L 190.37067 234.825408 
L 190.514807 234.843599 
L 191.812046 235.075416 
L 192.203277 234.92105 
L 192.326824 234.662964 
L 192.738646 234.05852 
L 192.841601 233.803965 
L 193.56229 233.416735 
L 193.665245 233.341631 
L 193.974111 233.249932 
L 194.859529 233.02808 
L 195.075735 232.770149 
L 195.312533 232.829351 
L 196.033221 232.87104 
L 196.434747 232.632561 
L 196.547999 232.408982 
L 196.753909 232.2793 
L 197.577553 232.024469 
L 198.092331 231.754072 
L 198.298242 231.87928 
L 198.782132 232.377355 
L 198.915975 232.452496 
L 199.224841 232.516549 
L 199.430752 232.240487 
L 199.533707 232.050052 
L 200.048485 231.753461 
L 200.460307 231.768386 
L 200.563262 231.755598 
L 201.294246 231.505569 
L 201.592817 231.063243 
L 201.603113 231.078753 
L 201.942866 231.140789 
L 202.931238 233.166432 
L 203.137149 233.035761 
L 203.446016 232.914194 
L 203.682813 232.751803 
L 204.063749 232.373811 
L 204.166704 232.161346 
L 205.350692 231.049161 
L 205.711036 231.159807 
L 205.896356 231.026036 
L 206.019903 230.845772 
L 206.112563 230.75564 
L 206.122858 230.779749 
L 206.946502 230.883496 
L 207.255369 230.850289 
L 208.696745 231.13054 
L 209.520389 231.116352 
L 209.880733 230.912429 
L 210.37492 230.592927 
L 210.642604 230.839329 
L 210.652899 230.830013 
L 211.270632 230.677132 
L 211.579499 230.608338 
L 212.094276 230.479494 
L 212.403143 230.26406 
L 212.814964 229.930442 
L 213.123831 229.915762 
L 213.545948 230.33615 
L 213.741564 230.298627 
L 214.256341 230.451889 
L 214.575503 230.150132 
L 214.585799 230.085108 
L 214.668163 230.100198 
L 215.079985 230.079407 
L 215.162349 229.953934 
L 215.285896 229.769049 
L 215.697718 229.306837 
L 215.728605 229.214395 
L 215.800673 229.257121 
L 216.315451 229.370154 
L 216.624317 229.334693 
L 216.830228 229.471448 
L 216.87141 229.543063 
L 216.933184 229.497045 
L 217.530325 229.220937 
L 217.550917 229.281462 
L 217.962738 229.421793 
L 217.973034 229.401172 
L 219.002589 229.666859 
L 219.610026 229.377549 
L 219.815937 229.305706 
L 220.536626 229.586022 
L 220.773423 229.672983 
L 221.154358 229.658021 
L 221.257314 229.560336 
L 221.463225 229.51462 
L 222.183913 229.512078 
L 222.389824 229.356895 
L 222.729577 228.700776 
L 223.110513 228.9323 
L 223.419379 228.780452 
L 224.037112 228.981404 
L 224.654845 228.987594 
L 224.860756 228.900312 
L 225.169622 228.958176 
L 225.478489 228.840478 
L 225.6844 228.842959 
L 226.343315 228.717689 
L 226.940456 228.003581 
L 227.434643 228.260205 
L 227.815578 227.921068 
L 227.928829 227.727298 
L 227.94942 227.749394 
L 228.093558 227.793586 
L 228.464198 228.331723 
L 229.287841 228.778815 
L 229.679072 228.695156 
L 229.782028 228.38677 
L 229.802619 228.411375 
L 230.657149 228.516069 
L 231.038085 227.987306 
L 231.346951 228.173715 
L 231.449906 228.360308 
L 231.964684 228.800306 
L 231.974979 228.873639 
L 232.067639 228.828179 
L 232.170595 228.658811 
L 232.582417 228.314927 
L 233.303105 228.185679 
L 234.023793 228.326544 
L 234.126749 228.213445 
L 234.229704 227.944737 
L 234.415024 227.697243 
L 234.435615 227.724082 
L 235.012166 227.938795 
L 235.259259 228.368217 
L 235.568126 228.549512 
L 235.876992 228.528593 
L 236.000539 228.183392 
L 236.11379 227.753317 
L 236.597681 228.036672 
L 236.906547 227.983182 
L 237.215413 227.787911 
L 237.833146 227.956652 
L 238.450879 228.221705 
L 238.759746 228.038222 
L 239.068612 227.819187 
L 240.695309 227.611025 
L 240.818855 227.29649 
L 241.024766 227.111112 
L 241.539544 227.18663 
L 241.683681 227.226793 
L 241.84841 227.40317 
L 242.064617 227.506208 
L 242.157276 227.752688 
L 242.569098 227.848792 
L 242.775009 227.863743 
L 243.083876 227.942688 
L 243.289787 227.795061 
L 243.392742 227.75795 
L 244.010475 228.030651 
L 244.113431 228.121842 
L 244.628208 228.192812 
L 244.834119 228.105463 
L 245.657763 227.700123 
L 246.481407 227.758826 
L 246.934411 227.981245 
L 247.202095 228.057809 
L 247.613917 227.885458 
L 247.922783 227.784676 
L 248.334605 227.782292 
L 248.849383 227.630529 
L 249.36416 227.675238 
L 250.187804 227.697403 
L 250.599626 227.553231 
L 251.011448 227.386397 
L 251.42327 227.215608 
L 251.835092 226.894561 
L 251.865978 226.927785 
L 252.143958 227.333142 
L 252.452825 227.403052 
L 252.55578 227.290719 
L 252.864646 226.921599 
L 252.905829 226.816872 
L 252.967602 226.856144 
L 254.100112 227.233701 
L 254.110408 227.183624 
L 254.923756 226.660846 
L 255.232623 226.475114 
L 255.438533 226.453594 
L 255.644444 226.323957 
L 255.850355 226.159697 
L 256.272473 226.387568 
L 256.550453 226.732453 
L 256.571044 226.673362 
L 256.982866 226.493917 
L 257.291732 226.628633 
L 257.497643 226.48428 
L 257.600599 226.432274 
L 257.909465 226.384721 
L 259.319955 226.18416 
L 259.453797 226.242008 
L 260.07153 226.44393 
L 260.092121 226.487044 
L 260.174486 226.446154 
L 260.689263 226.349767 
L 261.306996 226.50158 
L 261.409951 226.524937 
L 261.94532 226.542799 
L 262.542462 227.193019 
L 262.954284 227.02957 
L 263.139603 226.883792 
L 263.160195 226.904919 
L 263.777927 226.9236 
L 263.983838 226.960997 
L 264.498616 227.13975 
L 264.601571 227.129009 
L 264.611867 227.148386 
L 264.725118 227.187138 
L 264.889847 227.538009 
L 264.910438 227.522085 
L 265.631126 227.380916 
L 265.734082 227.245811 
L 265.837037 227.250524 
L 265.919401 227.299136 
L 266.042948 227.652008 
L 266.557725 228.813905 
L 266.681272 229.660218 
L 267.082798 231.340145 
L 267.175458 231.677042 
L 267.484325 232.256695 
L 267.597576 232.701129 
L 267.896147 233.712304 
L 268.102058 234.215126 
L 268.410924 234.640237 
L 268.71979 234.508955 
L 269.028657 234.336718 
L 269.543434 234.490773 
L 269.55373 234.447072 
L 269.955256 234.363838 
L 270.171463 234.526078 
L 270.470034 234.615261 
L 270.789196 234.498305 
L 270.87156 234.419135 
L 270.881856 234.426892 
L 271.602544 234.565258 
L 271.705499 234.64932 
L 272.735054 234.970717 
L 273.661654 234.751476 
L 273.87786 234.765982 
L 274.073475 234.864105 
L 274.382342 235.007228 
L 274.783868 235.029718 
L 274.897119 235.114654 
L 276.328201 235.586472 
L 276.647363 235.488306 
L 278.20199 235.224658 
L 278.500561 235.301575 
L 279.118294 235.636679 
L 281.074448 235.496208 
L 281.692181 235.305768 
L 282.659963 235.525259 
L 283.030602 234.986296 
L 283.751291 234.843093 
L 284.080748 234.959898 
L 284.780845 236.115049 
L 285.398578 236.643807 
L 286.984093 236.959547 
L 316.697045 236.928152 
L 317.726599 236.928353 
L 326.786682 236.838952 
L 327.610325 236.709568 
L 328.125103 236.401871 
L 329.051702 235.892735 
L 330.287168 235.810037 
L 330.596034 235.486619 
L 331.316723 234.959347 
L 331.934456 235.132272 
L 333.375832 235.948429 
L 333.581743 236.138061 
L 335.229031 236.729877 
L 337.802918 236.866517 
L 339.244295 236.782995 
L 340.129712 236.575691 
L 340.376805 236.464572 
L 340.994538 236.141845 
L 341.40636 235.645183 
L 341.818182 235.23228 
L 342.641826 234.707241 
L 343.67138 234.749596 
L 345.318668 234.891216 
L 346.657089 234.842093 
L 347.583689 234.754097 
L 348.201422 234.903253 
L 349.333932 235.535956 
L 349.642798 235.728541 
L 351.094471 236.241994 
L 353.143285 236.40929 
L 357.158548 236.85046 
L 359.114703 236.930412 
L 371.46936 237.021405 
L 376.205312 236.926378 
L 380.220576 236.863015 
L 385.162439 236.826391 
L 385.574261 236.68629 
L 386.397905 236.289619 
L 387.118593 235.709724 
L 388.251104 234.88117 
L 389.177703 234.716543 
L 389.69248 234.784042 
L 390.104302 234.966796 
L 390.927946 235.457393 
L 391.854545 236.136059 
L 392.060456 236.271152 
L 393.398878 236.659571 
L 395.869809 236.770028 
L 397.002319 236.473304 
L 397.928919 236.309991 
L 398.855518 236.360973 
L 402.767826 236.749687 
L 403.282604 236.500138 
L 403.488515 236.265426 
L 403.900337 235.726206 
L 404.826936 235.113151 
L 407.606734 235.154281 
L 409.254022 234.576132 
L 409.665844 234.326999 
L 409.871755 233.991155 
L 410.489487 233.404348 
L 410.613034 233.509927 
L 411.827909 235.581551 
L 413.269285 236.224062 
L 413.938496 236.181465 
L 414.195885 235.91664 
L 414.432682 235.651815 
L 414.76214 235.091024 
L 415.019529 234.908504 
L 415.431351 234.792342 
L 415.904946 234.797075 
L 416.152039 234.627239 
L 416.769772 234.100477 
L 417.078638 233.794728 
L 417.902282 233.015801 
L 418.108193 232.869334 
L 418.211149 232.788237 
L 419.652525 232.525963 
L 420.270258 232.282266 
L 420.393805 232.008412 
L 420.785036 231.810584 
L 421.196857 231.820905 
L 421.516019 232.166875 
L 421.598384 232.195351 
L 421.608679 232.115964 
L 422.535279 231.463405 
L 423.050056 231.637509 
L 423.060352 231.692259 
L 423.153012 231.666814 
L 424.079611 231.334268 
L 424.388477 231.26477 
L 425.212121 231.4638 
L 425.315077 231.618573 
L 425.479805 231.635414 
L 425.829854 231.514323 
L 426.447587 231.120141 
L 426.591725 230.964179 
L 426.962364 231.015186 
L 427.415369 230.906516 
L 427.631575 230.461366 
L 427.683053 230.487832 
L 427.786008 230.540765 
L 428.19783 230.740833 
L 429.093543 231.35525 
L 429.124429 231.297394 
L 429.845118 230.928063 
L 430.462851 231.060806 
L 431.080584 231.016969 
L 431.38945 231.168079 
L 431.492406 231.235757 
L 431.595361 231.216555 
L 432.52196 230.855963 
L 432.789645 230.704223 
L 433.036738 230.278743 
L 433.551515 229.976732 
L 433.757426 230.096449 
L 434.066293 230.251914 
L 434.58107 230.355895 
L 435.075256 230.812306 
L 435.095847 230.765812 
L 435.610625 230.60888 
L 435.919491 230.750987 
L 436.434269 231.117372 
L 437.669734 231.211607 
L 438.390423 231.538578 
L 438.9052 231.631791 
L 439.203771 231.763408 
L 439.214067 231.711213 
L 439.831799 231.481452 
L 440.140666 231.528925 
L 440.655443 231.568219 
L 441.376132 231.611752 
L 442.302731 231.566257 
L 443.023419 231.668731 
L 443.332286 231.680723 
L 443.847063 231.724568 
L 444.629525 231.50199 
L 444.907505 231.148382 
L 445.597306 231.57576 
L 445.700262 231.791088 
L 445.906173 231.974833 
L 446.317995 232.254136 
L 446.801886 232.630328 
L 446.832772 232.571097 
L 447.244594 232.430728 
L 447.460801 232.486714 
L 449.51991 235.37215 
L 450.230303 235.579404 
L 451.67168 235.647422 
L 452.289413 235.628267 
L 452.701235 235.766121 
L 452.80419 235.805171 
L 453.627834 235.713711 
L 454.039656 235.518343 
L 454.451478 235.348032 
L 455.378077 235.36666 
L 455.686944 235.502009 
L 456.469405 235.402745 
L 456.726794 235.106559 
L 456.912114 234.958465 
L 456.953296 235.030579 
L 457.025365 235.102693 
L 457.951964 235.311573 
L 458.672652 235.098727 
L 459.290385 234.467623 
L 459.908118 234.542379 
L 460.422896 234.47755 
L 460.628807 234.59682 
L 461.45245 235.068236 
L 461.864272 235.203139 
L 462.584961 235.593963 
L 462.893827 235.678668 
L 463.202694 235.598948 
L 463.408605 235.336884 
L 464.335204 234.845382 
L 464.757321 234.916423 
L 465.158848 234.954258 
L 465.313281 234.797446 
L 465.364759 234.891468 
L 466.600224 235.348585 
L 467.217957 235.321442 
L 467.938646 235.109907 
L 468.57697 234.973052 
L 469.33884 235.335794 
L 469.8948 235.274859 
L 470.718444 234.770714 
L 471.02731 234.932952 
L 471.336177 235.227019 
L 471.645043 235.444329 
L 473.910064 235.175311 
L 474.527796 234.930211 
L 475.042574 234.803114 
L 475.485282 234.993311 
L 475.866218 235.186156 
L 476.236857 235.334642 
L 476.782522 235.553905 
L 477.925327 235.214228 
L 478.244489 235.283544 
L 478.460696 235.553841 
L 479.119611 235.743925 
L 480.365372 235.57435 
L 480.581579 235.283921 
L 480.859559 235.342298 
L 481.394927 235.69604 
L 482.270049 235.768186 
L 482.753939 235.568219 
L 483.309899 235.775285 
L 483.577583 235.705152 
L 484.802753 235.928046 
L 485.101324 235.668548 
L 486.995705 236.130216 
L 490.341758 236.191812 
L 491.412495 235.54499 
L 491.793431 235.468158 
L 493.152443 235.853939 
L 493.646629 235.889916 
L 494.13052 235.591907 
L 494.562933 235.680583 
L 494.830617 235.874767 
L 495.623374 236.726271 
L 496.848545 236.953955 
L 498.722334 236.959929 
L 498.73263 236.793684 
L 500.215189 236.236333 
L 501.203562 236.042759 
L 501.821294 235.801482 
L 502.161048 235.680844 
L 502.439027 235.30452 
L 502.922918 235.198951 
L 503.303853 235.26289 
L 504.065724 234.983782 
L 504.446659 235.143839 
L 505.527692 234.895193 
L 505.78508 234.883016 
L 506.402813 234.655796 
L 508.245716 234.502005 
L 508.688425 234.26087 
L 509.007587 234.327774 
L 509.223793 234.253841 
L 509.44 234.318458 
L 509.985664 233.904925 
L 510.418077 233.972344 
L 511.056401 233.906653 
L 511.365267 233.924325 
L 512.487482 233.491396 
L 512.600733 233.603711 
L 513.300831 233.659869 
L 513.57881 233.433587 
L 514.145065 233.514187 
L 514.289203 233.466241 
L 514.793685 233.069096 
L 515.215802 233.022414 
L 515.709989 233.189216 
L 516.090924 233.726145 
L 516.307131 233.66361 
L 516.471859 233.318933 
L 516.801317 233.511534 
L 517.285208 235.032038 
L 517.882349 236.163961 
L 518.170625 236.325311 
L 518.211807 236.486661 
L 518.747175 236.765421 
L 519.838504 236.946636 
L 527.10716 236.987047 
L 539.461818 236.961014 
L 539.461818 236.961014 
" clip-path="url(#p5170b423fe)" style="fill: none; stroke: #00a6d6; stroke-width: 3; stroke-linecap: square"/>
   </g>
   <g id="line2d_63">
    <path d="M 91.636364 175.03622 
L 117.210505 175.03622 
L 117.220801 175.619348 
L 123.140741 175.721424 
L 123.861429 175.797981 
L 129.009203 175.724289 
L 129.729892 175.282137 
L 135.742492 175.282137 
L 135.804265 176.288305 
L 141.332974 176.288305 
L 141.466816 175.829411 
L 142.084549 174.682178 
L 148.076558 174.682178 
L 148.158923 174.841778 
L 153.924429 174.742238 
L 154.645118 174.607382 
L 172.332869 174.485772 
L 172.456416 174.253783 
L 172.971193 173.789806 
L 178.983793 173.789806 
L 179.045567 174.783788 
L 184.584572 174.783788 
L 184.708118 174.353992 
L 185.325851 173.279504 
L 190.782492 173.346052 
L 191.657613 173.811892 
L 197.51578 173.811892 
L 197.577553 169.347455 
L 203.095967 169.347455 
L 203.34306 167.983623 
L 203.651927 166.619791 
L 203.754882 166.278833 
L 209.870438 166.278833 
L 209.932211 167.430076 
L 215.450625 167.430076 
L 215.594762 168.231353 
L 216.006584 170.234545 
L 216.161018 170.635183 
L 221.627954 170.635183 
L 221.875047 173.062803 
L 222.389824 175.490424 
L 227.815578 175.490424 
L 227.94942 177.23381 
L 228.361242 180.139454 
L 228.464198 180.720583 
L 234.61064 180.720583 
L 234.641526 186.875123 
L 240.211418 186.875123 
L 240.921811 191.970373 
L 246.326973 191.970373 
L 246.584362 194.332423 
L 246.790273 196.694473 
L 246.893229 198.269172 
L 246.996184 199.056522 
L 252.514598 199.056522 
L 252.55578 200.098529 
L 252.864646 202.182544 
L 253.122035 204.266558 
L 259.319955 204.266558 
L 259.350842 211.016256 
L 264.910438 211.016256 
L 265.219304 213.497458 
L 265.32226 214.738059 
L 265.538466 216.59896 
L 271.05688 216.59896 
L 271.190722 218.210895 
L 271.602544 222.24073 
L 271.705499 223.046698 
L 277.821055 223.046698 
L 277.882828 226.323779 
L 283.401242 226.323779 
L 283.54538 226.905503 
L 284.163113 228.438011 
L 285.614785 228.907207 
L 285.8104 228.985406 
L 288.075421 229.663133 
L 288.178376 229.715266 
L 290.958174 230.314794 
L 296.353042 230.314794 
L 296.414815 231.189249 
L 302.386233 231.294827 
L 303.209877 231.33002 
L 308.563562 231.232095 
L 309.28425 231.192925 
L 314.329068 231.288471 
L 315.049757 231.861747 
L 320.609353 231.763435 
L 321.330041 231.517656 
L 326.889637 231.624415 
L 327.610325 231.76676 
L 332.861055 231.692348 
L 333.581743 231.245874 
L 339.594343 231.245874 
L 339.656117 230.961013 
L 345.627535 231.057486 
L 346.245267 231.105722 
L 351.598952 231.004969 
L 352.319641 230.870631 
L 358.146921 230.870631 
L 358.188103 230.67295 
L 364.262477 230.576271 
L 364.571343 230.560157 
L 370.501579 230.560157 
L 370.542761 229.875703 
L 382.485597 229.827074 
L 383.206285 229.677426 
L 388.992383 229.677426 
L 389.074747 228.629923 
L 395.200599 228.629923 
L 395.252076 229.010641 
L 401.017583 228.907618 
L 401.841227 228.804596 
L 407.555256 228.804596 
L 407.606734 227.632733 
L 419.343659 227.607546 
L 420.064347 206.654837 
L 425.479805 206.654837 
L 425.623943 202.963946 
L 426.035765 193.736718 
L 426.046061 191.891273 
L 426.138721 191.908424 
L 428.063988 192.337194 
L 428.506697 192.45725 
L 431.379155 193.040379 
L 431.543883 193.108982 
L 432.316049 193.263339 
L 438.431605 193.263339 
L 438.493378 198.015007 
L 444.022088 198.015007 
L 444.15593 199.219248 
L 444.578047 202.22985 
L 444.670707 202.831971 
L 450.209712 202.831971 
L 450.333259 204.218272 
L 450.950991 207.684023 
L 456.953296 207.684023 
L 457.025365 212.204161 
L 462.533483 212.204161 
L 462.996783 213.047563 
L 463.408605 213.370297 
L 464.747026 213.833615 
L 464.849981 213.888123 
L 466.075152 214.324186 
L 466.188403 214.378694 
L 468.556379 215.114551 
L 468.659334 215.169058 
L 469.8948 215.38709 
L 475.042574 215.481159 
L 475.866218 215.763366 
L 481.055174 215.763366 
L 481.672907 217.562862 
L 487.860531 217.562862 
L 487.881122 218.471485 
L 493.451014 218.471485 
L 493.646629 219.677916 
L 494.13052 220.884348 
L 500.204893 220.884348 
L 500.215189 222.165922 
L 505.78508 222.165922 
L 506.021878 222.892105 
L 506.402813 223.255196 
L 512.590438 223.255196 
L 512.600733 224.033121 
L 518.170625 224.033121 
L 518.211807 224.471708 
L 518.747175 224.910296 
L 524.317067 224.910296 
L 524.9348 227.527627 
L 539.461818 227.518324 
L 539.461818 227.518324 
" clip-path="url(#p5170b423fe)" style="fill: none; stroke: #99d28c; stroke-width: 3; stroke-linecap: square"/>
   </g>
   <g id="line2d_64">
    <path d="M 91.636364 197.997954 
L 97.813692 197.997954 
L 97.916648 198.942002 
L 100.377284 198.942002 
L 100.490535 199.243499 
L 101.108268 199.997243 
L 104.011612 199.997243 
L 104.093977 201.364174 
L 106.513431 201.364174 
L 106.770819 202.00778 
L 107.285597 202.865922 
L 109.684459 202.865922 
L 110.147759 203.809652 
L 112.628986 203.809652 
L 113.246719 204.340155 
L 116.242724 204.446408 
L 116.55159 204.504562 
L 121.081631 204.722874 
L 123.758474 204.863906 
L 125.302806 204.969078 
L 126.023494 205.109306 
L 128.092899 205.184601 
L 128.803292 205.636373 
L 131.778706 205.636373 
L 131.891957 206.112749 
L 135.804265 206.520368 
L 137.451553 206.59647 
L 138.069285 206.976981 
L 140.746128 207.076453 
L 141.363861 207.178795 
L 147.232323 207.270681 
L 147.335279 207.329278 
L 149.909166 207.428493 
L 150.526899 207.626923 
L 152.99783 207.705131 
L 153.718519 207.861545 
L 156.498317 207.861545 
L 156.601272 208.028085 
L 159.175159 208.103053 
L 159.895847 208.257905 
L 165.661354 208.224141 
L 166.382043 208.208071 
L 168.852974 208.111745 
L 168.95593 208.096467 
L 174.618481 208.197656 
L 175.339169 208.485376 
L 180.79581 208.647112 
L 181.413543 208.859828 
L 183.98743 208.959731 
L 184.708118 209.034659 
L 186.870183 209.119102 
L 187.487916 209.541316 
L 190.46333 209.541316 
L 190.576581 212.288923 
L 192.996034 212.288923 
L 193.253423 213.702406 
L 193.768201 215.587051 
L 196.033221 215.587051 
L 196.650954 218.386636 
L 199.533707 218.288131 
L 200.470602 218.259987 
L 202.220845 218.155845 
L 202.838578 217.114429 
L 205.299214 217.013497 
L 205.40217 216.7107 
L 205.813992 216.20604 
L 205.916947 216.004176 
L 208.995316 216.004176 
L 209.108567 214.538214 
L 211.486839 214.538214 
L 212.197232 212.77893 
L 215.162349 212.77893 
L 215.285896 210.555609 
L 218.2819 210.555609 
L 218.405447 208.471604 
L 220.773423 208.471604 
L 221.463225 206.420401 
L 223.841496 206.420401 
L 224.448934 203.60628 
L 227.517007 203.60628 
L 227.640554 200.138792 
L 230.018825 200.138792 
L 230.729218 196.911358 
L 233.704632 196.911358 
L 233.817883 193.2996 
L 236.813887 193.2996 
L 236.906547 190.794793 
L 239.30541 190.794793 
L 239.902551 187.240765 
L 242.98092 187.240765 
L 243.083876 184.809588 
L 245.472443 184.809588 
L 246.069585 181.467487 
L 248.530221 181.467487 
L 248.643472 180.73866 
L 249.055294 178.916595 
L 249.158249 178.552182 
L 252.236618 178.552182 
L 252.349869 174.820195 
L 254.728141 174.820195 
L 255.294396 172.071187 
L 255.438533 171.383934 
L 257.827101 171.383934 
L 258.424242 168.153156 
L 260.884878 168.153156 
L 260.998129 167.295365 
L 261.615862 165.29385 
L 264.601571 165.29385 
L 264.704527 162.359656 
L 267.093094 162.359656 
L 267.690236 159.845535 
L 267.824078 159.448268 
L 269.337523 158.701251 
L 269.780232 158.410745 
L 271.087767 157.74673 
L 273.291014 157.74673 
L 273.87786 156.008422 
L 276.338496 156.008422 
L 276.441452 155.734203 
L 277.16214 154.939061 
L 278.706472 154.281487 
L 279.324205 153.9527 
L 280.559671 153.623912 
L 285.707445 153.584488 
L 286.325178 152.958081 
L 289.290296 152.958081 
L 289.310887 153.925131 
L 291.792114 154.028363 
L 292.502507 154.33806 
L 294.870483 154.33806 
L 294.973438 154.648687 
L 295.591171 155.430813 
L 301.047811 155.614211 
L 301.150767 155.681179 
L 301.933229 156.08299 
L 304.239431 156.175136 
L 304.764504 156.728017 
L 304.857164 156.820164 
L 307.256027 156.820164 
L 307.739918 157.500418 
L 307.945829 157.636469 
L 310.921242 157.636469 
L 311.034493 158.145709 
L 313.453947 158.145709 
L 313.711336 158.699861 
L 314.123158 159.254013 
L 316.491134 159.254013 
L 317.314777 160.507574 
L 319.590094 160.507574 
L 320.300486 162.187195 
L 322.771418 162.273197 
L 323.492106 162.789206 
L 325.860082 162.873403 
L 326.477815 163.294386 
L 329.257613 163.403077 
L 329.978302 163.446553 
L 331.934456 163.520039 
L 332.655144 163.960954 
L 335.187849 164.071007 
L 335.434942 164.18106 
L 335.949719 164.254428 
L 338.111785 164.310495 
L 338.935428 164.646892 
L 341.303404 164.714786 
L 342.024093 165.122153 
L 344.381773 165.195214 
L 344.495024 165.341337 
L 345.009802 165.633583 
L 347.97492 165.633583 
L 348.088171 166.247786 
L 350.569398 166.337479 
L 351.393042 166.606558 
L 353.658062 166.693058 
L 354.275795 167.125561 
L 356.952637 167.224023 
L 357.57037 167.322486 
L 360.319282 167.322486 
L 360.329577 167.524623 
L 360.350168 167.516201 
L 364.88021 167.255137 
L 366.527497 167.255137 
L 366.630453 166.855655 
L 369.636753 166.855655 
L 369.719117 166.617167 
L 372.601871 166.713435 
L 373.322559 166.751943 
L 375.278713 166.832322 
L 375.896446 167.234218 
L 378.882155 167.234218 
L 378.98511 167.741066 
L 384.472637 167.604485 
L 385.038893 166.967951 
L 388.127557 166.967951 
L 388.158444 166.263074 
L 390.824991 166.188667 
L 391.339768 166.081751 
L 396.281631 166.643315 
L 398.855518 166.705413 
L 400.482215 166.705413 
L 400.502806 166.949361 
L 403.179648 166.843179 
L 404.106248 166.710452 
L 406.680135 166.653289 
L 406.78309 166.596126 
L 412.208844 166.487214 
L 412.342686 169.237697 
L 412.754508 176.113905 
L 412.867759 177.489147 
L 415.89465 177.489147 
L 415.956423 191.597392 
L 418.375877 191.597392 
L 418.520015 195.582194 
L 419.137748 205.5442 
L 421.464542 205.5442 
L 421.81459 206.960398 
L 422.226412 207.668497 
L 424.697344 207.579797 
L 426.550542 206.675872 
L 426.859409 206.539438 
L 427.683053 206.164242 
L 427.786008 206.096025 
L 429.021474 205.800391 
L 431.904227 205.545643 
L 433.860382 205.545643 
L 433.963337 204.817704 
L 434.58107 202.997855 
L 437.515301 202.997855 
L 437.669734 201.272813 
L 440.048006 201.272813 
L 440.758399 198.463712 
L 443.085193 198.463712 
L 443.332286 197.444576 
L 443.950019 196.21075 
L 446.832772 194.171188 
L 449.283113 194.171188 
L 449.406659 193.578276 
L 450.127348 192.392451 
L 452.98951 192.392451 
L 453.010101 191.595895 
L 455.481033 191.595895 
L 455.99581 190.785976 
L 456.098765 190.65099 
L 459.135952 190.65099 
L 459.290385 190.22499 
L 461.668657 190.137654 
L 462.37905 189.613637 
L 465.323577 189.613637 
L 465.467714 189.152303 
L 469.235885 189.055673 
L 469.688889 188.935852 
L 471.233221 188.53645 
L 471.336177 188.49651 
L 472.056865 188.456569 
L 474.013019 188.556167 
L 474.424841 189.054154 
L 474.733707 189.253349 
L 477.101684 189.149117 
L 478.244489 189.044885 
L 480.180052 189.044885 
L 480.746308 190.197439 
L 483.845267 190.197439 
L 483.907041 189.40546 
L 486.408859 189.321354 
L 486.954523 189.237247 
L 486.995705 188.976282 
L 487.860531 188.715316 
L 487.881122 188.45435 
L 488.745948 187.932419 
L 489.724025 187.671453 
L 490.053483 187.410488 
L 493.142147 187.410488 
L 493.152443 185.880062 
L 495.623374 185.880062 
L 496.138152 185.713871 
L 496.18963 185.54768 
L 498.722334 185.54768 
L 498.73263 185.746633 
L 499.360658 186.144537 
L 501.769817 186.144537 
L 501.821294 186.508121 
L 502.439027 187.237803 
L 514.145065 187.210968 
L 514.289203 187.043268 
L 514.670138 186.875568 
L 514.793685 186.71323 
L 520.919536 186.809749 
L 523.441945 186.984024 
L 524.317067 187.158299 
L 526.489428 187.158299 
L 527.10716 187.351607 
L 529.588388 187.351607 
L 530.20612 187.805313 
L 533.294785 188.503547 
L 536.393745 188.503547 
L 536.424632 189.44023 
L 538.895563 189.44023 
L 539.461818 190.13598 
L 539.461818 190.13598 
" clip-path="url(#p5170b423fe)" style="fill: none; stroke: #f1be3e; stroke-width: 3; stroke-linecap: square"/>
   </g>
   <g id="patch_20">
    <path d="M 69.12 237.6 
L 69.12 98.4 
" style="fill: none; stroke: #000000; stroke-linejoin: miter; stroke-linecap: square"/>
   </g>
   <g id="patch_21">
    <path d="M 564.48 237.6 
L 564.48 98.4 
" style="fill: none; stroke: #000000; stroke-linejoin: miter; stroke-linecap: square"/>
   </g>
   <g id="patch_22">
    <path d="M 69.12 237.6 
L 564.48 237.6 
" style="fill: none; stroke: #000000; stroke-linejoin: miter; stroke-linecap: square"/>
   </g>
   <g id="patch_23">
    <path d="M 69.12 98.4 
L 564.48 98.4 
" style="fill: none; stroke: #000000; stroke-linejoin: miter; stroke-linecap: square"/>
   </g>
   <g id="patch_24">
    <path d="M 103.373288 133.203632 
Q 103.373288 184.109002 103.373288 233.896338 
" style="fill: none; stroke: #000000; stroke-linecap: round"/>
    <path d="M 105.773288 229.096338 
L 103.373288 233.896338 
L 100.973288 229.096338 
" style="fill: none; stroke: #000000; stroke-linecap: round"/>
   </g>
   <g id="text_23">
    <g id="patch_25">
     <path d="M 99.773288 130.702188 
L 106.973288 130.702188 
Q 110.573288 130.702188 110.573288 127.102188 
L 110.573288 116.097813 
Q 110.573288 112.497813 106.973288 112.497813 
L 99.773288 112.497813 
Q 96.173288 112.497813 96.173288 116.097813 
L 96.173288 127.102188 
Q 96.173288 130.702188 99.773288 130.702188 
z
" style="fill: #cccccc; stroke: #000000; stroke-linejoin: miter"/>
    </g>
    <text style="font: 12px 'Source Code Pro'; text-anchor: middle" x="103.373288" y="124.642188" transform="rotate(-0, 103.373288, 124.642188)">1</text>
   </g>
   <g id="patch_26">
    <path d="M 263.983838 133.206038 
Q 263.983838 179.083537 263.983838 223.843003 
" style="fill: none; stroke: #000000; stroke-linecap: round"/>
    <path d="M 266.383838 219.043003 
L 263.983838 223.843003 
L 261.583838 219.043003 
" style="fill: none; stroke: #000000; stroke-linecap: round"/>
   </g>
   <g id="text_24">
    <g id="patch_27">
     <path d="M 260.383838 130.702188 
L 267.583838 130.702188 
Q 271.183838 130.702188 271.183838 127.102188 
L 271.183838 116.097813 
Q 271.183838 112.497813 267.583838 112.497813 
L 260.383838 112.497813 
Q 256.783838 112.497813 256.783838 116.097813 
L 256.783838 127.102188 
Q 256.783838 130.702188 260.383838 130.702188 
z
" style="fill: #cccccc; stroke: #000000; stroke-linejoin: miter"/>
    </g>
    <text style="font: 12px 'Source Code Pro'; text-anchor: middle" x="263.983838" y="124.642188" transform="rotate(-0, 263.983838, 124.642188)">4</text>
   </g>
   <g id="patch_28">
    <path d="M 396.796409 133.202642 
Q 396.796409 183.866807 396.796409 233.412938 
" style="fill: none; stroke: #000000; stroke-linecap: round"/>
    <path d="M 399.196409 228.612938 
L 396.796409 233.412938 
L 394.396409 228.612938 
" style="fill: none; stroke: #000000; stroke-linecap: round"/>
   </g>
   <g id="text_25">
    <g id="patch_29">
     <path d="M 393.196409 130.702188 
L 400.396409 130.702188 
Q 403.996409 130.702188 403.996409 127.102188 
L 403.996409 116.097813 
Q 403.996409 112.497813 400.396409 112.497813 
L 393.196409 112.497813 
Q 389.596409 112.497813 389.596409 116.097813 
L 389.596409 127.102188 
Q 389.596409 130.702188 393.196409 130.702188 
z
" style="fill: #cccccc; stroke: #000000; stroke-linejoin: miter"/>
    </g>
    <text style="font: 12px 'Source Code Pro'; text-anchor: middle" x="396.796409" y="124.642188" transform="rotate(-0, 396.796409, 124.642188)">6</text>
   </g>
   <g id="patch_30">
    <path d="M 449.303704 133.206843 
Q 449.303704 183.192115 449.303704 232.059353 
" style="fill: none; stroke: #000000; stroke-linecap: round"/>
    <path d="M 451.703704 227.259353 
L 449.303704 232.059353 
L 446.903704 227.259353 
" style="fill: none; stroke: #000000; stroke-linecap: round"/>
   </g>
   <g id="text_26">
    <g id="patch_31">
     <path d="M 445.703704 130.702188 
L 452.903704 130.702188 
Q 456.503704 130.702188 456.503704 127.102188 
L 456.503704 116.097813 
Q 456.503704 112.497813 452.903704 112.497813 
L 445.703704 112.497813 
Q 442.103704 112.497813 442.103704 116.097813 
L 442.103704 127.102188 
Q 442.103704 130.702188 445.703704 130.702188 
z
" style="fill: #cccccc; stroke: #000000; stroke-linejoin: miter"/>
    </g>
    <text style="font: 12px 'Source Code Pro'; text-anchor: middle" x="449.303704" y="124.642188" transform="rotate(-0, 449.303704, 124.642188)">8</text>
   </g>
   <g id="legend_1">
    <g id="line2d_65">
     <path d="M 50.1984 275.52 
L 62.1984 275.52 
L 74.1984 275.52 
" style="fill: none; stroke-dasharray: 11.1,4.8; stroke-dashoffset: 0; stroke: #c3312f; stroke-width: 3"/>
    </g>
    <g id="text_27">
     <!-- $Inline\ N_2ON$ -->
     <g transform="translate(83.7984 279.72)">
      <text>
       <tspan style="font: 12px 'Source Code Pro'" x="0 7.199997 14.399994 21.599991 28.799988 35.999985 45.599957 58.23335 65.433347 72.633344" y="-0.40625">InlineNON</tspan>
       <tspan style="font: 8.4px 'Source Code Pro'" x="52.901946" y="1.3421874999999996">2</tspan>
      </text>
     </g>
    </g>
    <g id="line2d_66">
     <path d="M 187.7184 275.52 
L 199.7184 275.52 
L 211.7184 275.52 
" style="fill: none; stroke: #c3312f; stroke-width: 3; stroke-linecap: square"/>
    </g>
    <g id="text_28">
     <!-- $Offgas\ N_2ON$ -->
     <g transform="translate(221.3184 279.72)">
      <text>
       <tspan style="font: 12px 'Source Code Pro'" x="0 7.199997 14.399994 21.599991 28.799988 35.999985 45.599957 58.23335 65.433347 72.633344" y="-0.3125">OffgasNON</tspan>
       <tspan style="font: 8.4px 'Source Code Pro'" x="52.901946" y="1.4359374999999996">2</tspan>
      </text>
     </g>
    </g>
    <g id="line2d_67">
     <path d="M 325.2384 275.52 
L 337.2384 275.52 
L 349.2384 275.52 
" style="fill: none; stroke: #00a6d6; stroke-width: 3; stroke-linecap: square"/>
    </g>
    <g id="text_29">
     <!-- $O_2$ -->
     <g transform="translate(358.8384 279.72)">
      <text>
       <tspan style="font: 12px 'Source Code Pro'" x="0" y="-0.984375">O</tspan>
       <tspan style="font: 8.4px 'Source Code Pro'" x="7.301989" y="0.7640624999999996">2</tspan>
      </text>
     </g>
    </g>
    <g id="line2d_68">
     <path d="M 395.5584 275.52 
L 407.5584 275.52 
L 419.5584 275.52 
" style="fill: none; stroke: #99d28c; stroke-width: 3; stroke-linecap: square"/>
    </g>
    <g id="text_30">
     <!-- $NH_4N$ -->
     <g transform="translate(429.1584 279.72)">
      <text>
       <tspan style="font: 12px 'Source Code Pro'" x="0 7.199997 19.83339 27.033387" y="-0.125">NHN</tspan>
       <tspan style="font: 8.4px 'Source Code Pro'" x="14.501986" y="1.6234374999999996">4</tspan>
      </text>
     </g>
    </g>
    <g id="line2d_69">
     <path d="M 487.4784 275.52 
L 499.4784 275.52 
L 511.4784 275.52 
" style="fill: none; stroke: #f1be3e; stroke-width: 3; stroke-linecap: square"/>
    </g>
    <g id="text_31">
     <!-- $NO_3N$ -->
     <g transform="translate(521.0784 279.72)">
      <text>
       <tspan style="font: 12px 'Source Code Pro'" x="0 7.199997 19.83339 27.033387" y="-0.984375">NON</tspan>
       <tspan style="font: 8.4px 'Source Code Pro'" x="14.501986" y="0.7640624999999996">3</tspan>
      </text>
     </g>
    </g>
   </g>
  </g>
 </g>
 <defs>
  <clipPath id="p599d59c145">
   <rect x="69.12" y="28.8" width="495.36" height="69.6"/>
  </clipPath>
  <clipPath id="p5170b423fe">
   <rect x="69.12" y="98.4" width="495.36" height="139.2"/>
  </clipPath>
 </defs>
 <defs>
  <pattern id="h8847256649" patternUnits="userSpaceOnUse" x="0" y="0" width="72" height="72">
   <rect x="0" y="0" width="73" height="73" fill="#dddddd"/>
   <path d="M -36 36 
L 36 -36 
M -32 40 
L 40 -32 
M -28 44 
L 44 -28 
M -24 48 
L 48 -24 
M -20 52 
L 52 -20 
M -16 56 
L 56 -16 
M -12 60 
L 60 -12 
M -8 64 
L 64 -8 
M -4 68 
L 68 -4 
M 0 72 
L 72 0 
M 4 76 
L 76 4 
M 8 80 
L 80 8 
M 12 84 
L 84 12 
M 16 88 
L 88 16 
M 20 92 
L 92 20 
M 24 96 
L 96 24 
M 28 100 
L 100 28 
M 32 104 
L 104 32 
M 36 108 
L 108 36 
" style="fill: #ffffff; stroke: #ffffff; stroke-width: 1.0; stroke-linecap: butt; stroke-linejoin: miter"/>
  </pattern>
  <pattern id="h73fed62ba0" patternUnits="userSpaceOnUse" x="0" y="0" width="72" height="72">
   <rect x="0" y="0" width="73" height="73" fill="#ffffff"/>
   <path d="M -36 36 
L 36 -36 
M -32 40 
L 40 -32 
M -28 44 
L 44 -28 
M -24 48 
L 48 -24 
M -20 52 
L 52 -20 
M -16 56 
L 56 -16 
M -12 60 
L 60 -12 
M -8 64 
L 64 -8 
M -4 68 
L 68 -4 
M 0 72 
L 72 0 
M 4 76 
L 76 4 
M 8 80 
L 80 8 
M 12 84 
L 84 12 
M 16 88 
L 88 16 
M 20 92 
L 92 20 
M 24 96 
L 96 24 
M 28 100 
L 100 28 
M 32 104 
L 104 32 
M 36 108 
L 108 36 
M -36 36 
L 36 108 
M -32 32 
L 40 104 
M -28 28 
L 44 100 
M -24 24 
L 48 96 
M -20 20 
L 52 92 
M -16 16 
L 56 88 
M -12 12 
L 60 84 
M -8 8 
L 64 80 
M -4 4 
L 68 76 
M 0 0 
L 72 72 
M 4 -4 
L 76 68 
M 8 -8 
L 80 64 
M 12 -12 
L 84 60 
M 16 -16 
L 88 56 
M 20 -20 
L 92 52 
M 24 -24 
L 96 48 
M 28 -28 
L 100 44 
M 32 -32 
L 104 40 
M 36 -36 
L 108 36 
" style="fill: #dddddd; stroke: #dddddd; stroke-width: 1.0; stroke-linecap: butt; stroke-linejoin: miter"/>
  </pattern>
 </defs>
</svg>
