<?xml version="1.0" encoding="utf-8" standalone="no"?>
<!DOCTYPE svg PUBLIC "-//W3C//DTD SVG 1.1//EN"
  "http://www.w3.org/Graphics/SVG/1.1/DTD/svg11.dtd">
<svg xmlns:xlink="http://www.w3.org/1999/xlink" width="576pt" height="288pt" viewBox="0 0 576 288" xmlns="http://www.w3.org/2000/svg" version="1.1">
 <metadata>
  <rdf:RDF xmlns:dc="http://purl.org/dc/elements/1.1/" xmlns:cc="http://creativecommons.org/ns#" xmlns:rdf="http://www.w3.org/1999/02/22-rdf-syntax-ns#">
   <cc:Work>
    <dc:type rdf:resource="http://purl.org/dc/dcmitype/StillImage"/>
    <dc:date>2022-10-30T20:52:19.932714</dc:date>
    <dc:format>image/svg+xml</dc:format>
    <dc:creator>
     <cc:Agent>
      <dc:title>Matplotlib v3.5.2, https://matplotlib.org/</dc:title>
     </cc:Agent>
    </dc:creator>
   </cc:Work>
  </rdf:RDF>
 </metadata>
 <defs>
  <style type="text/css">*{stroke-linejoin: round; stroke-linecap: butt}</style>
 </defs>
 <g id="figure_1">
  <g id="patch_1">
   <path d="M 0 288 
L 576 288 
L 576 0 
L 0 0 
z
" style="fill: #ffffff"/>
  </g>
  <g id="axes_1">
   <g id="patch_2">
    <path d="M 69.12 98.4 
L 564.48 98.4 
L 564.48 28.8 
L 69.12 28.8 
z
" style="fill: #ffffff"/>
   </g>
   <g id="PolyCollection_1">
    <path d="M 91.636364 98.4 
L 91.636364 98.4 
L 155.950961 98.4 
L 155.968831 98.4 
L 220.299083 98.4 
L 220.301299 98.4 
L 284.633373 98.4 
L 284.633766 98.4 
L 302.938158 98.4 
L 303.533895 98.4 
L 303.62673 98.4 
L 303.812669 98.4 
L 305.286829 98.4 
L 305.460509 98.4 
L 305.778026 98.4 
L 305.962856 98.4 
L 306.0964 98.4 
L 306.263664 98.4 
L 306.283178 98.4 
L 306.289308 98.4 
L 306.451837 98.4 
L 337.433996 98.4 
L 337.640574 98.4 
L 337.759607 98.4 
L 337.950013 98.4 
L 343.138838 98.4 
L 343.599655 98.4 
L 348.965447 98.4 
L 348.966234 98.4 
L 377.759284 98.4 
L 378.593658 98.4 
L 384.821202 98.4 
L 385.218741 98.4 
L 385.957206 98.4 
L 386.110532 98.4 
L 386.291735 98.4 
L 386.714078 98.4 
L 386.730536 98.4 
L 386.892225 98.4 
L 387.173215 28.8 
L 391.998257 28.8 
L 392.917657 28.8 
L 413.296825 28.8 
L 413.298701 28.8 
L 434.831118 28.8 
L 435.344616 28.8 
L 450.208043 28.8 
L 450.476506 28.8 
L 450.663284 28.8 
L 450.915843 28.8 
L 451.071134 98.4 
L 451.351016 98.4 
L 451.368297 98.4 
L 451.374444 98.4 
L 451.541137 98.4 
L 453.689376 98.4 
L 453.902639 98.4 
L 466.53196 98.4 
L 466.634552 98.4 
L 474.164256 98.4 
L 474.933387 98.4 
L 477.629739 98.4 
L 477.631169 98.4 
L 541.945766 98.4 
L 541.963636 98.4 
L 541.963636 98.4 
L 541.963636 98.4 
L 541.963636 98.4 
L 541.963636 98.4 
L 541.945766 98.4 
L 477.631169 98.4 
L 477.629739 98.4 
L 474.933387 98.4 
L 474.164256 98.4 
L 466.634552 98.4 
L 466.53196 98.4 
L 453.902639 98.4 
L 453.689376 98.4 
L 451.541137 98.4 
L 451.374444 98.4 
L 451.368297 98.4 
L 451.351016 98.4 
L 451.071134 98.4 
L 450.915843 98.4 
L 450.663284 98.4 
L 450.476506 98.4 
L 450.208043 98.4 
L 435.344616 98.4 
L 434.831118 98.4 
L 413.298701 98.4 
L 413.296825 98.4 
L 392.917657 98.4 
L 391.998257 98.4 
L 387.173215 98.4 
L 386.892225 98.4 
L 386.730536 98.4 
L 386.714078 98.4 
L 386.291735 98.4 
L 386.110532 98.4 
L 385.957206 98.4 
L 385.218741 98.4 
L 384.821202 98.4 
L 378.593658 98.4 
L 377.759284 98.4 
L 348.966234 98.4 
L 348.965447 98.4 
L 343.599655 98.4 
L 343.138838 98.4 
L 337.950013 98.4 
L 337.759607 98.4 
L 337.640574 98.4 
L 337.433996 98.4 
L 306.451837 98.4 
L 306.289308 98.4 
L 306.283178 98.4 
L 306.263664 98.4 
L 306.0964 98.4 
L 305.962856 98.4 
L 305.778026 98.4 
L 305.460509 98.4 
L 305.286829 98.4 
L 303.812669 98.4 
L 303.62673 98.4 
L 303.533895 98.4 
L 302.938158 98.4 
L 284.633766 98.4 
L 284.633373 98.4 
L 220.301299 98.4 
L 220.299083 98.4 
L 155.968831 98.4 
L 155.950961 98.4 
L 91.636364 98.4 
z
" clip-path="url(#p166efc8b9f)" style="fill: url(#hcd1ea77871)"/>
   </g>
   <g id="PolyCollection_2">
    <defs>
     <path id="md6ce3a4ffa" d="M 91.636364 -189.6 
L 91.636364 -189.6 
L 155.950961 -189.6 
L 155.968831 -189.6 
L 220.299083 -189.6 
L 220.301299 -189.6 
L 284.633373 -189.6 
L 284.633766 -189.6 
L 302.938158 -189.6 
L 303.533895 -189.6 
L 303.62673 -189.6 
L 303.812669 -189.6 
L 305.286829 -189.6 
L 305.460509 -189.6 
L 305.778026 -189.6 
L 305.962856 -189.6 
L 306.0964 -189.6 
L 306.263664 -189.6 
L 306.283178 -189.6 
L 306.289308 -189.6 
L 306.451837 -189.6 
L 337.433996 -189.6 
L 337.640574 -189.6 
L 337.759607 -189.6 
L 337.950013 -259.2 
L 343.138838 -259.2 
L 343.599655 -259.2 
L 348.965447 -259.2 
L 348.966234 -259.2 
L 377.759284 -259.2 
L 378.593658 -189.6 
L 384.821202 -189.6 
L 385.218741 -189.6 
L 385.957206 -189.6 
L 386.110532 -189.6 
L 386.291735 -189.6 
L 386.714078 -189.6 
L 386.730536 -189.6 
L 386.892225 -189.6 
L 387.173215 -189.6 
L 391.998257 -189.6 
L 392.917657 -189.6 
L 413.296825 -189.6 
L 413.298701 -189.6 
L 434.831118 -189.6 
L 435.344616 -189.6 
L 450.208043 -189.6 
L 450.476506 -189.6 
L 450.663284 -189.6 
L 450.915843 -189.6 
L 451.071134 -189.6 
L 451.351016 -189.6 
L 451.368297 -189.6 
L 451.374444 -189.6 
L 451.541137 -189.6 
L 453.689376 -189.6 
L 453.902639 -189.6 
L 466.53196 -189.6 
L 466.634552 -189.6 
L 474.164256 -189.6 
L 474.933387 -189.6 
L 477.629739 -189.6 
L 477.631169 -189.6 
L 541.945766 -189.6 
L 541.963636 -189.6 
L 541.963636 -189.6 
L 541.963636 -189.6 
L 541.963636 -189.6 
L 541.963636 -189.6 
L 541.945766 -189.6 
L 477.631169 -189.6 
L 477.629739 -189.6 
L 474.933387 -189.6 
L 474.164256 -189.6 
L 466.634552 -189.6 
L 466.53196 -189.6 
L 453.902639 -189.6 
L 453.689376 -189.6 
L 451.541137 -189.6 
L 451.374444 -189.6 
L 451.368297 -189.6 
L 451.351016 -189.6 
L 451.071134 -189.6 
L 450.915843 -189.6 
L 450.663284 -189.6 
L 450.476506 -189.6 
L 450.208043 -189.6 
L 435.344616 -189.6 
L 434.831118 -189.6 
L 413.298701 -189.6 
L 413.296825 -189.6 
L 392.917657 -189.6 
L 391.998257 -189.6 
L 387.173215 -189.6 
L 386.892225 -189.6 
L 386.730536 -189.6 
L 386.714078 -189.6 
L 386.291735 -189.6 
L 386.110532 -189.6 
L 385.957206 -189.6 
L 385.218741 -189.6 
L 384.821202 -189.6 
L 378.593658 -189.6 
L 377.759284 -189.6 
L 348.966234 -189.6 
L 348.965447 -189.6 
L 343.599655 -189.6 
L 343.138838 -189.6 
L 337.950013 -189.6 
L 337.759607 -189.6 
L 337.640574 -189.6 
L 337.433996 -189.6 
L 306.451837 -189.6 
L 306.289308 -189.6 
L 306.283178 -189.6 
L 306.263664 -189.6 
L 306.0964 -189.6 
L 305.962856 -189.6 
L 305.778026 -189.6 
L 305.460509 -189.6 
L 305.286829 -189.6 
L 303.812669 -189.6 
L 303.62673 -189.6 
L 303.533895 -189.6 
L 302.938158 -189.6 
L 284.633766 -189.6 
L 284.633373 -189.6 
L 220.301299 -189.6 
L 220.299083 -189.6 
L 155.968831 -189.6 
L 155.950961 -189.6 
L 91.636364 -189.6 
z
"/>
    </defs>
    <g clip-path="url(#p166efc8b9f)">
     <use xlink:href="#md6ce3a4ffa" x="0" y="288" style="fill: #dddddd"/>
    </g>
   </g>
   <g id="PolyCollection_3">
    <path d="M 91.636364 98.4 
L 91.636364 28.8 
L 155.950961 28.8 
L 155.968831 28.8 
L 220.299083 28.8 
L 220.301299 28.8 
L 284.633373 28.8 
L 284.633766 28.8 
L 302.938158 28.8 
L 303.533895 28.8 
L 303.62673 28.8 
L 303.812669 28.8 
L 305.286829 28.8 
L 305.460509 28.8 
L 305.778026 28.8 
L 305.962856 28.8 
L 306.0964 98.4 
L 306.263664 98.4 
L 306.283178 98.4 
L 306.289308 98.4 
L 306.451837 28.8 
L 337.433996 28.8 
L 337.640574 28.8 
L 337.759607 98.4 
L 337.950013 98.4 
L 343.138838 98.4 
L 343.599655 98.4 
L 348.965447 98.4 
L 348.966234 98.4 
L 377.759284 98.4 
L 378.593658 98.4 
L 384.821202 98.4 
L 385.218741 98.4 
L 385.957206 98.4 
L 386.110532 98.4 
L 386.291735 98.4 
L 386.714078 98.4 
L 386.730536 98.4 
L 386.892225 98.4 
L 387.173215 98.4 
L 391.998257 98.4 
L 392.917657 98.4 
L 413.296825 98.4 
L 413.298701 98.4 
L 434.831118 98.4 
L 435.344616 98.4 
L 450.208043 98.4 
L 450.476506 98.4 
L 450.663284 98.4 
L 450.915843 98.4 
L 451.071134 98.4 
L 451.351016 98.4 
L 451.368297 98.4 
L 451.374444 28.8 
L 451.541137 28.8 
L 453.689376 28.8 
L 453.902639 28.8 
L 466.53196 28.8 
L 466.634552 28.8 
L 474.164256 28.8 
L 474.933387 28.8 
L 477.629739 28.8 
L 477.631169 28.8 
L 541.945766 28.8 
L 541.963636 28.8 
L 541.963636 28.8 
L 541.963636 98.4 
L 541.963636 98.4 
L 541.963636 98.4 
L 541.945766 98.4 
L 477.631169 98.4 
L 477.629739 98.4 
L 474.933387 98.4 
L 474.164256 98.4 
L 466.634552 98.4 
L 466.53196 98.4 
L 453.902639 98.4 
L 453.689376 98.4 
L 451.541137 98.4 
L 451.374444 98.4 
L 451.368297 98.4 
L 451.351016 98.4 
L 451.071134 98.4 
L 450.915843 98.4 
L 450.663284 98.4 
L 450.476506 98.4 
L 450.208043 98.4 
L 435.344616 98.4 
L 434.831118 98.4 
L 413.298701 98.4 
L 413.296825 98.4 
L 392.917657 98.4 
L 391.998257 98.4 
L 387.173215 98.4 
L 386.892225 98.4 
L 386.730536 98.4 
L 386.714078 98.4 
L 386.291735 98.4 
L 386.110532 98.4 
L 385.957206 98.4 
L 385.218741 98.4 
L 384.821202 98.4 
L 378.593658 98.4 
L 377.759284 98.4 
L 348.966234 98.4 
L 348.965447 98.4 
L 343.599655 98.4 
L 343.138838 98.4 
L 337.950013 98.4 
L 337.759607 98.4 
L 337.640574 98.4 
L 337.433996 98.4 
L 306.451837 98.4 
L 306.289308 98.4 
L 306.283178 98.4 
L 306.263664 98.4 
L 306.0964 98.4 
L 305.962856 98.4 
L 305.778026 98.4 
L 305.460509 98.4 
L 305.286829 98.4 
L 303.812669 98.4 
L 303.62673 98.4 
L 303.533895 98.4 
L 302.938158 98.4 
L 284.633766 98.4 
L 284.633373 98.4 
L 220.301299 98.4 
L 220.299083 98.4 
L 155.968831 98.4 
L 155.950961 98.4 
L 91.636364 98.4 
z
" clip-path="url(#p166efc8b9f)" style="fill: url(#hfdf4f769b3)"/>
   </g>
   <g id="matplotlib.axis_1">
    <g id="xtick_1">
     <g id="line2d_1">
      <path d="M 91.636364 98.4 
L 91.636364 28.8 
" clip-path="url(#p166efc8b9f)" style="fill: none; stroke: #b0b0b0; stroke-linecap: square"/>
     </g>
     <g id="line2d_2">
      <defs>
       <path id="md5f5864e1e" d="M 0 0 
L 0 3.5 
" style="stroke: #000000"/>
      </defs>
      <g>
       <use xlink:href="#md5f5864e1e" x="91.636364" y="98.4" style="stroke: #000000"/>
      </g>
     </g>
    </g>
    <g id="xtick_2">
     <g id="line2d_3">
      <path d="M 155.968831 98.4 
L 155.968831 28.8 
" clip-path="url(#p166efc8b9f)" style="fill: none; stroke: #b0b0b0; stroke-linecap: square"/>
     </g>
     <g id="line2d_4">
      <g>
       <use xlink:href="#md5f5864e1e" x="155.968831" y="98.4" style="stroke: #000000"/>
      </g>
     </g>
    </g>
    <g id="xtick_3">
     <g id="line2d_5">
      <path d="M 220.301299 98.4 
L 220.301299 28.8 
" clip-path="url(#p166efc8b9f)" style="fill: none; stroke: #b0b0b0; stroke-linecap: square"/>
     </g>
     <g id="line2d_6">
      <g>
       <use xlink:href="#md5f5864e1e" x="220.301299" y="98.4" style="stroke: #000000"/>
      </g>
     </g>
    </g>
    <g id="xtick_4">
     <g id="line2d_7">
      <path d="M 284.633766 98.4 
L 284.633766 28.8 
" clip-path="url(#p166efc8b9f)" style="fill: none; stroke: #b0b0b0; stroke-linecap: square"/>
     </g>
     <g id="line2d_8">
      <g>
       <use xlink:href="#md5f5864e1e" x="284.633766" y="98.4" style="stroke: #000000"/>
      </g>
     </g>
    </g>
    <g id="xtick_5">
     <g id="line2d_9">
      <path d="M 348.966234 98.4 
L 348.966234 28.8 
" clip-path="url(#p166efc8b9f)" style="fill: none; stroke: #b0b0b0; stroke-linecap: square"/>
     </g>
     <g id="line2d_10">
      <g>
       <use xlink:href="#md5f5864e1e" x="348.966234" y="98.4" style="stroke: #000000"/>
      </g>
     </g>
    </g>
    <g id="xtick_6">
     <g id="line2d_11">
      <path d="M 413.298701 98.4 
L 413.298701 28.8 
" clip-path="url(#p166efc8b9f)" style="fill: none; stroke: #b0b0b0; stroke-linecap: square"/>
     </g>
     <g id="line2d_12">
      <g>
       <use xlink:href="#md5f5864e1e" x="413.298701" y="98.4" style="stroke: #000000"/>
      </g>
     </g>
    </g>
    <g id="xtick_7">
     <g id="line2d_13">
      <path d="M 477.631169 98.4 
L 477.631169 28.8 
" clip-path="url(#p166efc8b9f)" style="fill: none; stroke: #b0b0b0; stroke-linecap: square"/>
     </g>
     <g id="line2d_14">
      <g>
       <use xlink:href="#md5f5864e1e" x="477.631169" y="98.4" style="stroke: #000000"/>
      </g>
     </g>
    </g>
    <g id="xtick_8">
     <g id="line2d_15">
      <path d="M 541.963636 98.4 
L 541.963636 28.8 
" clip-path="url(#p166efc8b9f)" style="fill: none; stroke: #b0b0b0; stroke-linecap: square"/>
     </g>
     <g id="line2d_16">
      <g>
       <use xlink:href="#md5f5864e1e" x="541.963636" y="98.4" style="stroke: #000000"/>
      </g>
     </g>
    </g>
    <g id="xtick_9">
     <g id="line2d_17">
      <defs>
       <path id="m6b38814d6e" d="M 0 0 
L 0 2 
" style="stroke: #000000; stroke-width: 0.6"/>
      </defs>
      <g>
       <use xlink:href="#m6b38814d6e" x="130.235844" y="98.4" style="stroke: #000000; stroke-width: 0.6"/>
      </g>
     </g>
    </g>
    <g id="xtick_10">
     <g id="line2d_18">
      <g>
       <use xlink:href="#m6b38814d6e" x="207.434805" y="98.4" style="stroke: #000000; stroke-width: 0.6"/>
      </g>
     </g>
    </g>
    <g id="xtick_11">
     <g id="line2d_19">
      <g>
       <use xlink:href="#m6b38814d6e" x="361.832727" y="98.4" style="stroke: #000000; stroke-width: 0.6"/>
      </g>
     </g>
    </g>
    <g id="xtick_12">
     <g id="line2d_20">
      <g>
       <use xlink:href="#m6b38814d6e" x="439.031688" y="98.4" style="stroke: #000000; stroke-width: 0.6"/>
      </g>
     </g>
    </g>
    <g id="xtick_13">
     <g id="line2d_21">
      <g>
       <use xlink:href="#m6b38814d6e" x="516.230649" y="98.4" style="stroke: #000000; stroke-width: 0.6"/>
      </g>
     </g>
    </g>
   </g>
   <g id="matplotlib.axis_2">
    <g id="ytick_1">
     <g id="line2d_22">
      <path d="M 69.12 98.4 
L 564.48 98.4 
" clip-path="url(#p166efc8b9f)" style="fill: none; stroke: #b0b0b0; stroke-linecap: square"/>
     </g>
     <g id="line2d_23">
      <defs>
       <path id="mdb8638d0a9" d="M 0 0 
L -3.5 0 
" style="stroke: #000000"/>
      </defs>
      <g>
       <use xlink:href="#mdb8638d0a9" x="69.12" y="98.4" style="stroke: #000000"/>
      </g>
     </g>
     <g id="text_1">
      <text style="font: 12px 'Source Code Pro'; text-anchor: end" x="62.12" y="102.672188" transform="rotate(-0, 62.12, 102.672188)">0.00</text>
     </g>
    </g>
    <g id="ytick_2">
     <g id="line2d_24">
      <path d="M 69.12 63.6 
L 564.48 63.6 
" clip-path="url(#p166efc8b9f)" style="fill: none; stroke: #b0b0b0; stroke-linecap: square"/>
     </g>
     <g id="line2d_25">
      <g>
       <use xlink:href="#mdb8638d0a9" x="69.12" y="63.6" style="stroke: #000000"/>
      </g>
     </g>
     <g id="text_2">
      <text style="font: 12px 'Source Code Pro'; text-anchor: end" x="62.12" y="67.872188" transform="rotate(-0, 62.12, 67.872188)">0.25</text>
     </g>
    </g>
    <g id="ytick_3">
     <g id="line2d_26">
      <path d="M 69.12 28.8 
L 564.48 28.8 
" clip-path="url(#p166efc8b9f)" style="fill: none; stroke: #b0b0b0; stroke-linecap: square"/>
     </g>
     <g id="line2d_27">
      <g>
       <use xlink:href="#mdb8638d0a9" x="69.12" y="28.8" style="stroke: #000000"/>
      </g>
     </g>
     <g id="text_3">
      <text style="font: 12px 'Source Code Pro'; text-anchor: end" x="62.12" y="33.072188" transform="rotate(-0, 62.12, 33.072188)">0.50</text>
     </g>
    </g>
   </g>
   <g id="line2d_28">
    <path d="M 91.636364 98.4 
L 204.396883 98.4 
L 204.664935 97.008 
L 217.620779 97.008 
L 217.799481 95.616 
L 227.985455 95.616 
L 228.164156 94.224 
L 241.566753 94.224 
L 241.799065 92.832 
L 253.53974 92.832 
L 253.718442 91.44 
L 264.261818 91.44 
L 264.279688 90.744 
L 264.440519 90.048 
L 278.557922 90.048 
L 278.736623 88.656 
L 312.511169 88.656 
L 312.68987 87.264 
L 315.191688 87.264 
L 315.209558 86.568 
L 315.37039 85.872 
L 316.263896 85.872 
L 316.442597 84.48 
L 317.336104 84.48 
L 317.514805 83.088 
L 318.408312 83.088 
L 318.587013 81.696 
L 319.301818 81.696 
L 319.462649 81 
L 319.480519 80.304 
L 320.374026 80.304 
L 320.552727 78.912 
L 321.624935 78.912 
L 321.803636 77.52 
L 322.697143 77.52 
L 322.947325 76.128 
L 324.126753 76.128 
L 324.323325 74.736 
L 325.556364 74.736 
L 325.806545 73.344 
L 327.164675 73.344 
L 327.343377 71.952 
L 328.594286 71.952 
L 328.701506 71.024 
L 328.772987 70.56 
L 330.381299 70.56 
L 330.56 69.168 
L 332.347013 69.168 
L 332.525714 67.776 
L 334.848831 67.776 
L 335.009662 67.08 
L 335.045403 66.384 
L 337.529351 66.384 
L 337.708052 64.992 
L 341.103377 64.992 
L 341.282078 63.6 
L 344.677403 63.6 
L 344.695273 62.904 
L 344.856104 62.208 
L 346.821818 62.208 
L 346.839688 61.512 
L 347.000519 60.816 
L 347.536623 60.816 
L 347.715325 59.424 
L 347.894026 59.424 
L 348.072727 58.032 
L 348.43013 58.032 
L 348.608831 56.64 
L 348.966234 56.64 
L 348.984104 55.944 
L 349.144935 55.248 
L 350.753247 55.248 
L 350.931948 53.856 
L 351.825455 53.856 
L 352.004156 52.464 
L 353.612468 52.464 
L 353.791169 51.072 
L 355.042078 51.072 
L 355.220779 52.464 
L 355.399481 52.464 
L 355.578182 53.856 
L 355.756883 53.856 
L 355.935584 55.248 
L 356.114286 53.856 
L 358.258701 53.856 
L 358.437403 52.464 
L 358.616104 52.464 
L 358.633974 51.768 
L 358.794805 51.072 
L 359.330909 51.072 
L 359.50961 49.68 
L 359.688312 49.68 
L 359.867013 51.072 
L 361.654026 51.072 
L 361.850597 52.464 
L 362.19013 52.464 
L 362.368831 51.072 
L 362.904935 51.072 
L 363.083636 52.464 
L 364.513247 52.464 
L 364.691948 51.072 
L 366.121558 51.072 
L 366.139429 51.768 
L 366.30026 52.464 
L 368.444675 52.464 
L 368.623377 51.072 
L 369.695584 51.072 
L 369.874286 52.464 
L 379.702857 52.464 
L 379.881558 53.856 
L 382.204675 53.856 
L 382.222545 53.16 
L 382.383377 52.464 
L 382.562078 52.464 
L 382.740779 51.072 
L 383.276883 51.072 
L 383.455584 52.464 
L 383.634286 52.464 
L 383.812987 51.072 
L 384.349091 51.072 
L 384.527792 52.464 
L 387.923117 52.464 
L 388.101818 51.072 
L 389.352727 51.072 
L 389.531429 49.68 
L 393.82026 49.68 
L 393.998961 51.072 
L 395.24987 51.072 
L 395.428571 49.68 
L 404.006234 49.68 
L 404.184935 51.072 
L 405.793247 51.072 
L 405.971948 49.68 
L 407.044156 49.68 
L 407.222857 51.072 
L 407.58026 51.072 
L 407.758961 49.68 
L 407.937662 49.68 
L 408.116364 51.072 
L 408.295065 51.072 
L 408.473766 49.68 
L 410.260779 49.68 
L 410.439481 51.072 
L 414.192208 51.072 
L 414.54961 49.68 
L 415.264416 49.68 
L 415.443117 51.072 
L 424.556883 51.072 
L 424.735584 49.68 
L 425.092987 49.68 
L 425.271688 51.072 
L 432.062338 51.072 
L 432.241039 52.464 
L 433.134545 52.464 
L 433.313247 51.072 
L 433.491948 51.072 
L 433.670649 52.464 
L 440.997403 52.464 
L 441.176104 53.856 
L 441.890909 53.856 
L 442.06961 52.464 
L 443.677922 52.464 
L 443.856623 53.856 
L 444.75013 53.856 
L 444.928831 55.248 
L 448.324156 55.248 
L 448.502857 56.64 
L 451.898182 56.64 
L 452.076883 58.032 
L 452.255584 56.64 
L 459.046234 56.64 
L 459.224935 58.032 
L 460.833247 58.032 
L 461.011948 56.64 
L 481.383896 56.64 
L 481.562597 58.032 
L 482.098701 69.168 
L 482.277403 69.168 
L 482.456104 70.56 
L 482.634805 70.56 
L 482.813506 69.168 
L 483.170909 69.168 
L 483.528312 71.952 
L 483.707013 71.952 
L 484.082286 74.736 
L 484.243117 74.736 
L 484.529039 76.128 
L 484.600519 76.128 
L 484.957922 78.912 
L 485.136623 78.912 
L 485.762078 83.088 
L 485.851429 83.088 
L 486.03013 84.48 
L 486.387532 87.264 
L 486.566234 87.264 
L 487.102338 91.44 
L 487.281039 91.44 
L 487.45974 92.832 
L 487.638442 92.832 
L 487.817143 94.224 
L 488.353247 94.224 
L 488.371117 94.92 
L 488.531948 95.616 
L 488.889351 95.616 
L 489.068052 97.008 
L 489.782857 97.008 
L 489.961558 98.4 
L 498.896623 98.4 
L 499.111065 97.008 
L 515.873247 97.008 
L 516.051948 98.4 
L 531.598961 98.4 
L 531.777662 97.008 
L 531.956364 98.4 
L 541.945766 98.4 
L 541.945766 98.4 
" clip-path="url(#p166efc8b9f)" style="fill: none; stroke-dasharray: 11.1,4.8; stroke-dashoffset: 0; stroke: #c3312f; stroke-width: 3"/>
   </g>
   <g id="line2d_29">
    <path d="M 91.636364 99.01248 
L 99.016727 99.11688 
L 113.080519 99.202469 
L 159.310545 99.005242 
L 159.489247 98.979629 
L 163.527896 98.800339 
L 185.418805 97.56016 
L 185.526026 97.46736 
L 193.263792 96.81776 
L 194.872104 96.63216 
L 196.194494 96.482367 
L 199.85787 96.344655 
L 201.358961 96.22813 
L 209.203948 95.656097 
L 209.400519 95.63491 
L 217.602909 95.04169 
L 217.799481 95.009911 
L 222.981818 94.80864 
L 223.696623 94.89042 
L 224.59013 95.3811 
L 224.608 95.46288 
L 225.841039 94.145216 
L 232.095584 93.713552 
L 232.310026 93.685999 
L 252.396052 92.292252 
L 253.182338 92.223348 
L 259.615584 91.706568 
L 259.794286 91.6836 
L 268.550649 91.017528 
L 268.908052 90.983076 
L 273.554286 90.581136 
L 274.269091 90.52639 
L 287.86826 90.1872 
L 288.743896 91.52352 
L 288.940468 92.19168 
L 289.994805 90.2307 
L 290.012675 89.95056 
L 305.488208 89.716779 
L 312.68987 89.87168 
L 313.940779 90.0364 
L 315.692052 89.624213 
L 316.085195 89.380659 
L 316.78213 88.930306 
L 316.8 88.840235 
L 317.854338 88.209741 
L 317.890078 88.0296 
L 318.944416 87.14046 
L 318.962286 87.01344 
L 321.053091 85.77108 
L 321.267532 85.46658 
L 322.161039 84.70446 
L 322.178909 84.57744 
L 323.251117 84.02064 
L 323.590649 83.736672 
L 323.948052 83.452704 
L 324.126753 83.263392 
L 324.841558 82.78872 
L 325.198961 82.50336 
L 325.860156 82.02776 
L 326.092468 81.83752 
L 326.628571 81.45704 
L 326.985974 81.17168 
L 327.611429 80.719102 
L 328.236883 80.286511 
L 328.701506 79.998118 
L 328.951688 79.853921 
L 330.488519 79.132936 
L 330.738701 78.988739 
L 332.883117 78.051459 
L 332.900987 77.979361 
L 335.027532 77.481515 
L 335.045403 77.4504 
L 339.334234 76.796159 
L 339.352104 76.717701 
L 339.638026 76.482327 
L 339.673766 76.403868 
L 340.388571 76.011577 
L 340.406442 75.933119 
L 342.532987 75.006569 
L 342.550857 74.944799 
L 343.783896 74.895306 
L 344.695273 75.11184 
L 346.285714 79.028 
L 346.464416 79.811232 
L 346.821818 80.594464 
L 346.839688 80.98608 
L 350.753247 81.12528 
L 352.200727 81.12528 
L 353.433766 90.401966 
L 354.327273 92.032594 
L 354.345143 92.35872 
L 359.330909 95.354304 
L 361.832727 96.408744 
L 361.850597 96.47904 
L 366.836364 97.591907 
L 372.197403 98.20512 
L 376.486234 98.431191 
L 386.850909 98.66699 
L 417.051429 98.857371 
L 417.944935 98.932937 
L 419.553247 98.80368 
L 480.865662 98.80368 
L 481.92 97.25682 
L 482.098701 96.294103 
L 482.992208 92.585417 
L 483.010078 91.84368 
L 484.082286 91.8576 
L 484.600519 92.30304 
L 485.136623 92.85984 
L 485.851429 93.41664 
L 486.03013 93.63936 
L 487.995844 94.97568 
L 488.174545 95.1984 
L 489.425455 95.874514 
L 490.497662 96.403474 
L 490.515532 96.47904 
L 491.58774 96.91056 
L 491.60561 97.04048 
L 493.732156 97.30032 
L 497.645714 97.187495 
L 500.683636 96.720076 
L 501.416312 96.592598 
L 503.364156 96.436852 
L 515.176312 96.22848 
L 521.627429 96.692123 
L 526.916987 96.66609 
L 529.990649 96.46773 
L 530.526753 96.349523 
L 533.528935 95.875033 
L 541.945766 95.67168 
L 541.945766 95.67168 
" clip-path="url(#p166efc8b9f)" style="fill: none; stroke: #c3312f; stroke-width: 3; stroke-linecap: square"/>
   </g>
   <g id="patch_3">
    <path d="M 69.12 98.4 
L 69.12 28.8 
" style="fill: none; stroke: #000000; stroke-linejoin: miter; stroke-linecap: square"/>
   </g>
   <g id="patch_4">
    <path d="M 564.48 98.4 
L 564.48 28.8 
" style="fill: none; stroke: #000000; stroke-linejoin: miter; stroke-linecap: square"/>
   </g>
   <g id="patch_5">
    <path d="M 69.12 98.4 
L 564.48 98.4 
" style="fill: none; stroke: #000000; stroke-linejoin: miter; stroke-linecap: square"/>
   </g>
   <g id="patch_6">
    <path d="M 69.12 28.8 
L 564.48 28.8 
" style="fill: none; stroke: #000000; stroke-linejoin: miter; stroke-linecap: square"/>
   </g>
   <g id="patch_7">
    <path d="M 327.522078 26.485718 
Q 327.522078 48.218456 327.522078 68.833161 
" style="fill: none; stroke: #000000; stroke-linecap: round"/>
    <path d="M 329.922078 64.033161 
L 327.522078 68.833161 
L 325.122078 64.033161 
" style="fill: none; stroke: #000000; stroke-linecap: round"/>
   </g>
   <g id="text_4">
    <g id="patch_8">
     <path d="M 323.922078 23.982187 
L 331.122078 23.982187 
Q 334.722078 23.982187 334.722078 20.382187 
L 334.722078 9.377812 
Q 334.722078 5.777812 331.122078 5.777812 
L 323.922078 5.777812 
Q 320.322078 5.777812 320.322078 9.377812 
L 320.322078 20.382187 
Q 320.322078 23.982187 323.922078 23.982187 
z
" style="fill: #cccccc; stroke: #000000; stroke-linejoin: miter"/>
    </g>
    <text style="font: 12px 'Source Code Pro'; text-anchor: middle" x="327.522078" y="17.922188" transform="rotate(-0, 327.522078, 17.922188)">2</text>
   </g>
  </g>
  <g id="axes_2">
   <g id="patch_9">
    <path d="M 69.12 237.6 
L 564.48 237.6 
L 564.48 98.4 
L 69.12 98.4 
z
" style="fill: #ffffff"/>
   </g>
   <g id="PolyCollection_4">
    <path d="M 91.636364 237.6 
L 91.636364 237.6 
L 155.950961 237.6 
L 155.968831 237.6 
L 220.299083 237.6 
L 220.301299 237.6 
L 284.633373 237.6 
L 284.633766 237.6 
L 302.938158 237.6 
L 303.533895 237.6 
L 303.62673 237.6 
L 303.812669 237.6 
L 305.286829 237.6 
L 305.460509 237.6 
L 305.778026 237.6 
L 305.962856 237.6 
L 306.0964 237.6 
L 306.263664 237.6 
L 306.283178 237.6 
L 306.289308 237.6 
L 306.451837 237.6 
L 337.433996 237.6 
L 337.640574 237.6 
L 337.759607 237.6 
L 337.950013 237.6 
L 343.138838 237.6 
L 343.599655 237.6 
L 348.965447 237.6 
L 348.966234 237.6 
L 377.759284 237.6 
L 378.593658 237.6 
L 384.821202 237.6 
L 385.218741 237.6 
L 385.957206 237.6 
L 386.110532 237.6 
L 386.291735 237.6 
L 386.714078 237.6 
L 386.730536 237.6 
L 386.892225 237.6 
L 387.173215 98.4 
L 391.998257 98.4 
L 392.917657 98.4 
L 413.296825 98.4 
L 413.298701 98.4 
L 434.831118 98.4 
L 435.344616 98.4 
L 450.208043 98.4 
L 450.476506 98.4 
L 450.663284 98.4 
L 450.915843 98.4 
L 451.071134 237.6 
L 451.351016 237.6 
L 451.368297 237.6 
L 451.374444 237.6 
L 451.541137 237.6 
L 453.689376 237.6 
L 453.902639 237.6 
L 466.53196 237.6 
L 466.634552 237.6 
L 474.164256 237.6 
L 474.933387 237.6 
L 477.629739 237.6 
L 477.631169 237.6 
L 541.945766 237.6 
L 541.963636 237.6 
L 541.963636 237.6 
L 541.963636 237.6 
L 541.963636 237.6 
L 541.963636 237.6 
L 541.945766 237.6 
L 477.631169 237.6 
L 477.629739 237.6 
L 474.933387 237.6 
L 474.164256 237.6 
L 466.634552 237.6 
L 466.53196 237.6 
L 453.902639 237.6 
L 453.689376 237.6 
L 451.541137 237.6 
L 451.374444 237.6 
L 451.368297 237.6 
L 451.351016 237.6 
L 451.071134 237.6 
L 450.915843 237.6 
L 450.663284 237.6 
L 450.476506 237.6 
L 450.208043 237.6 
L 435.344616 237.6 
L 434.831118 237.6 
L 413.298701 237.6 
L 413.296825 237.6 
L 392.917657 237.6 
L 391.998257 237.6 
L 387.173215 237.6 
L 386.892225 237.6 
L 386.730536 237.6 
L 386.714078 237.6 
L 386.291735 237.6 
L 386.110532 237.6 
L 385.957206 237.6 
L 385.218741 237.6 
L 384.821202 237.6 
L 378.593658 237.6 
L 377.759284 237.6 
L 348.966234 237.6 
L 348.965447 237.6 
L 343.599655 237.6 
L 343.138838 237.6 
L 337.950013 237.6 
L 337.759607 237.6 
L 337.640574 237.6 
L 337.433996 237.6 
L 306.451837 237.6 
L 306.289308 237.6 
L 306.283178 237.6 
L 306.263664 237.6 
L 306.0964 237.6 
L 305.962856 237.6 
L 305.778026 237.6 
L 305.460509 237.6 
L 305.286829 237.6 
L 303.812669 237.6 
L 303.62673 237.6 
L 303.533895 237.6 
L 302.938158 237.6 
L 284.633766 237.6 
L 284.633373 237.6 
L 220.301299 237.6 
L 220.299083 237.6 
L 155.968831 237.6 
L 155.950961 237.6 
L 91.636364 237.6 
z
" clip-path="url(#p9309671fdd)" style="fill: url(#hcd1ea77871)"/>
   </g>
   <g id="PolyCollection_5">
    <defs>
     <path id="m572922306c" d="M 91.636364 -50.4 
L 91.636364 -50.4 
L 155.950961 -50.4 
L 155.968831 -50.4 
L 220.299083 -50.4 
L 220.301299 -50.4 
L 284.633373 -50.4 
L 284.633766 -50.4 
L 302.938158 -50.4 
L 303.533895 -50.4 
L 303.62673 -50.4 
L 303.812669 -50.4 
L 305.286829 -50.4 
L 305.460509 -50.4 
L 305.778026 -50.4 
L 305.962856 -50.4 
L 306.0964 -50.4 
L 306.263664 -50.4 
L 306.283178 -50.4 
L 306.289308 -50.4 
L 306.451837 -50.4 
L 337.433996 -50.4 
L 337.640574 -50.4 
L 337.759607 -50.4 
L 337.950013 -189.6 
L 343.138838 -189.6 
L 343.599655 -189.6 
L 348.965447 -189.6 
L 348.966234 -189.6 
L 377.759284 -189.6 
L 378.593658 -50.4 
L 384.821202 -50.4 
L 385.218741 -50.4 
L 385.957206 -50.4 
L 386.110532 -50.4 
L 386.291735 -50.4 
L 386.714078 -50.4 
L 386.730536 -50.4 
L 386.892225 -50.4 
L 387.173215 -50.4 
L 391.998257 -50.4 
L 392.917657 -50.4 
L 413.296825 -50.4 
L 413.298701 -50.4 
L 434.831118 -50.4 
L 435.344616 -50.4 
L 450.208043 -50.4 
L 450.476506 -50.4 
L 450.663284 -50.4 
L 450.915843 -50.4 
L 451.071134 -50.4 
L 451.351016 -50.4 
L 451.368297 -50.4 
L 451.374444 -50.4 
L 451.541137 -50.4 
L 453.689376 -50.4 
L 453.902639 -50.4 
L 466.53196 -50.4 
L 466.634552 -50.4 
L 474.164256 -50.4 
L 474.933387 -50.4 
L 477.629739 -50.4 
L 477.631169 -50.4 
L 541.945766 -50.4 
L 541.963636 -50.4 
L 541.963636 -50.4 
L 541.963636 -50.4 
L 541.963636 -50.4 
L 541.963636 -50.4 
L 541.945766 -50.4 
L 477.631169 -50.4 
L 477.629739 -50.4 
L 474.933387 -50.4 
L 474.164256 -50.4 
L 466.634552 -50.4 
L 466.53196 -50.4 
L 453.902639 -50.4 
L 453.689376 -50.4 
L 451.541137 -50.4 
L 451.374444 -50.4 
L 451.368297 -50.4 
L 451.351016 -50.4 
L 451.071134 -50.4 
L 450.915843 -50.4 
L 450.663284 -50.4 
L 450.476506 -50.4 
L 450.208043 -50.4 
L 435.344616 -50.4 
L 434.831118 -50.4 
L 413.298701 -50.4 
L 413.296825 -50.4 
L 392.917657 -50.4 
L 391.998257 -50.4 
L 387.173215 -50.4 
L 386.892225 -50.4 
L 386.730536 -50.4 
L 386.714078 -50.4 
L 386.291735 -50.4 
L 386.110532 -50.4 
L 385.957206 -50.4 
L 385.218741 -50.4 
L 384.821202 -50.4 
L 378.593658 -50.4 
L 377.759284 -50.4 
L 348.966234 -50.4 
L 348.965447 -50.4 
L 343.599655 -50.4 
L 343.138838 -50.4 
L 337.950013 -50.4 
L 337.759607 -50.4 
L 337.640574 -50.4 
L 337.433996 -50.4 
L 306.451837 -50.4 
L 306.289308 -50.4 
L 306.283178 -50.4 
L 306.263664 -50.4 
L 306.0964 -50.4 
L 305.962856 -50.4 
L 305.778026 -50.4 
L 305.460509 -50.4 
L 305.286829 -50.4 
L 303.812669 -50.4 
L 303.62673 -50.4 
L 303.533895 -50.4 
L 302.938158 -50.4 
L 284.633766 -50.4 
L 284.633373 -50.4 
L 220.301299 -50.4 
L 220.299083 -50.4 
L 155.968831 -50.4 
L 155.950961 -50.4 
L 91.636364 -50.4 
z
"/>
    </defs>
    <g clip-path="url(#p9309671fdd)">
     <use xlink:href="#m572922306c" x="0" y="288" style="fill: #dddddd"/>
    </g>
   </g>
   <g id="PolyCollection_6">
    <path d="M 91.636364 237.6 
L 91.636364 98.4 
L 155.950961 98.4 
L 155.968831 98.4 
L 220.299083 98.4 
L 220.301299 98.4 
L 284.633373 98.4 
L 284.633766 98.4 
L 302.938158 98.4 
L 303.533895 98.4 
L 303.62673 98.4 
L 303.812669 98.4 
L 305.286829 98.4 
L 305.460509 98.4 
L 305.778026 98.4 
L 305.962856 98.4 
L 306.0964 237.6 
L 306.263664 237.6 
L 306.283178 237.6 
L 306.289308 237.6 
L 306.451837 98.4 
L 337.433996 98.4 
L 337.640574 98.4 
L 337.759607 237.6 
L 337.950013 237.6 
L 343.138838 237.6 
L 343.599655 237.6 
L 348.965447 237.6 
L 348.966234 237.6 
L 377.759284 237.6 
L 378.593658 237.6 
L 384.821202 237.6 
L 385.218741 237.6 
L 385.957206 237.6 
L 386.110532 237.6 
L 386.291735 237.6 
L 386.714078 237.6 
L 386.730536 237.6 
L 386.892225 237.6 
L 387.173215 237.6 
L 391.998257 237.6 
L 392.917657 237.6 
L 413.296825 237.6 
L 413.298701 237.6 
L 434.831118 237.6 
L 435.344616 237.6 
L 450.208043 237.6 
L 450.476506 237.6 
L 450.663284 237.6 
L 450.915843 237.6 
L 451.071134 237.6 
L 451.351016 237.6 
L 451.368297 237.6 
L 451.374444 98.4 
L 451.541137 98.4 
L 453.689376 98.4 
L 453.902639 98.4 
L 466.53196 98.4 
L 466.634552 98.4 
L 474.164256 98.4 
L 474.933387 98.4 
L 477.629739 98.4 
L 477.631169 98.4 
L 541.945766 98.4 
L 541.963636 98.4 
L 541.963636 98.4 
L 541.963636 237.6 
L 541.963636 237.6 
L 541.963636 237.6 
L 541.945766 237.6 
L 477.631169 237.6 
L 477.629739 237.6 
L 474.933387 237.6 
L 474.164256 237.6 
L 466.634552 237.6 
L 466.53196 237.6 
L 453.902639 237.6 
L 453.689376 237.6 
L 451.541137 237.6 
L 451.374444 237.6 
L 451.368297 237.6 
L 451.351016 237.6 
L 451.071134 237.6 
L 450.915843 237.6 
L 450.663284 237.6 
L 450.476506 237.6 
L 450.208043 237.6 
L 435.344616 237.6 
L 434.831118 237.6 
L 413.298701 237.6 
L 413.296825 237.6 
L 392.917657 237.6 
L 391.998257 237.6 
L 387.173215 237.6 
L 386.892225 237.6 
L 386.730536 237.6 
L 386.714078 237.6 
L 386.291735 237.6 
L 386.110532 237.6 
L 385.957206 237.6 
L 385.218741 237.6 
L 384.821202 237.6 
L 378.593658 237.6 
L 377.759284 237.6 
L 348.966234 237.6 
L 348.965447 237.6 
L 343.599655 237.6 
L 343.138838 237.6 
L 337.950013 237.6 
L 337.759607 237.6 
L 337.640574 237.6 
L 337.433996 237.6 
L 306.451837 237.6 
L 306.289308 237.6 
L 306.283178 237.6 
L 306.263664 237.6 
L 306.0964 237.6 
L 305.962856 237.6 
L 305.778026 237.6 
L 305.460509 237.6 
L 305.286829 237.6 
L 303.812669 237.6 
L 303.62673 237.6 
L 303.533895 237.6 
L 302.938158 237.6 
L 284.633766 237.6 
L 284.633373 237.6 
L 220.301299 237.6 
L 220.299083 237.6 
L 155.968831 237.6 
L 155.950961 237.6 
L 91.636364 237.6 
z
" clip-path="url(#p9309671fdd)" style="fill: url(#hfdf4f769b3)"/>
   </g>
   <g id="matplotlib.axis_3">
    <g id="xtick_14">
     <g id="line2d_30">
      <path d="M 91.636364 237.6 
L 91.636364 98.4 
" clip-path="url(#p9309671fdd)" style="fill: none; stroke: #b0b0b0; stroke-linecap: square"/>
     </g>
     <g id="line2d_31">
      <g>
       <use xlink:href="#md5f5864e1e" x="91.636364" y="237.6" style="stroke: #000000"/>
      </g>
     </g>
     <g id="line2d_32">
      <defs>
       <path id="mc997a0ce5b" d="M 0 0 
L 0 -3.5 
" style="stroke: #000000"/>
      </defs>
      <g>
       <use xlink:href="#mc997a0ce5b" x="91.636364" y="98.4" style="stroke: #000000"/>
      </g>
     </g>
     <g id="text_5">
      <text style="font: 12px 'Source Code Pro'; text-anchor: middle" x="91.636364" y="253.144375" transform="rotate(-0, 91.636364, 253.144375)">15:00</text>
     </g>
    </g>
    <g id="xtick_15">
     <g id="line2d_33">
      <path d="M 155.968831 237.6 
L 155.968831 98.4 
" clip-path="url(#p9309671fdd)" style="fill: none; stroke: #b0b0b0; stroke-linecap: square"/>
     </g>
     <g id="line2d_34">
      <g>
       <use xlink:href="#md5f5864e1e" x="155.968831" y="237.6" style="stroke: #000000"/>
      </g>
     </g>
     <g id="line2d_35">
      <g>
       <use xlink:href="#mc997a0ce5b" x="155.968831" y="98.4" style="stroke: #000000"/>
      </g>
     </g>
     <g id="text_6">
      <text style="font: 12px 'Source Code Pro'; text-anchor: middle" x="155.968831" y="253.144375" transform="rotate(-0, 155.968831, 253.144375)">16:00</text>
     </g>
    </g>
    <g id="xtick_16">
     <g id="line2d_36">
      <path d="M 220.301299 237.6 
L 220.301299 98.4 
" clip-path="url(#p9309671fdd)" style="fill: none; stroke: #b0b0b0; stroke-linecap: square"/>
     </g>
     <g id="line2d_37">
      <g>
       <use xlink:href="#md5f5864e1e" x="220.301299" y="237.6" style="stroke: #000000"/>
      </g>
     </g>
     <g id="line2d_38">
      <g>
       <use xlink:href="#mc997a0ce5b" x="220.301299" y="98.4" style="stroke: #000000"/>
      </g>
     </g>
     <g id="text_7">
      <text style="font: 12px 'Source Code Pro'; text-anchor: middle" x="220.301299" y="253.144375" transform="rotate(-0, 220.301299, 253.144375)">17:00</text>
     </g>
    </g>
    <g id="xtick_17">
     <g id="line2d_39">
      <path d="M 284.633766 237.6 
L 284.633766 98.4 
" clip-path="url(#p9309671fdd)" style="fill: none; stroke: #b0b0b0; stroke-linecap: square"/>
     </g>
     <g id="line2d_40">
      <g>
       <use xlink:href="#md5f5864e1e" x="284.633766" y="237.6" style="stroke: #000000"/>
      </g>
     </g>
     <g id="line2d_41">
      <g>
       <use xlink:href="#mc997a0ce5b" x="284.633766" y="98.4" style="stroke: #000000"/>
      </g>
     </g>
     <g id="text_8">
      <text style="font: 12px 'Source Code Pro'; text-anchor: middle" x="284.633766" y="253.144375" transform="rotate(-0, 284.633766, 253.144375)">18:00</text>
     </g>
    </g>
    <g id="xtick_18">
     <g id="line2d_42">
      <path d="M 348.966234 237.6 
L 348.966234 98.4 
" clip-path="url(#p9309671fdd)" style="fill: none; stroke: #b0b0b0; stroke-linecap: square"/>
     </g>
     <g id="line2d_43">
      <g>
       <use xlink:href="#md5f5864e1e" x="348.966234" y="237.6" style="stroke: #000000"/>
      </g>
     </g>
     <g id="line2d_44">
      <g>
       <use xlink:href="#mc997a0ce5b" x="348.966234" y="98.4" style="stroke: #000000"/>
      </g>
     </g>
     <g id="text_9">
      <text style="font: 12px 'Source Code Pro'; text-anchor: middle" x="348.966234" y="253.144375" transform="rotate(-0, 348.966234, 253.144375)">19:00</text>
     </g>
    </g>
    <g id="xtick_19">
     <g id="line2d_45">
      <path d="M 413.298701 237.6 
L 413.298701 98.4 
" clip-path="url(#p9309671fdd)" style="fill: none; stroke: #b0b0b0; stroke-linecap: square"/>
     </g>
     <g id="line2d_46">
      <g>
       <use xlink:href="#md5f5864e1e" x="413.298701" y="237.6" style="stroke: #000000"/>
      </g>
     </g>
     <g id="line2d_47">
      <g>
       <use xlink:href="#mc997a0ce5b" x="413.298701" y="98.4" style="stroke: #000000"/>
      </g>
     </g>
     <g id="text_10">
      <text style="font: 12px 'Source Code Pro'; text-anchor: middle" x="413.298701" y="253.144375" transform="rotate(-0, 413.298701, 253.144375)">20:00</text>
     </g>
    </g>
    <g id="xtick_20">
     <g id="line2d_48">
      <path d="M 477.631169 237.6 
L 477.631169 98.4 
" clip-path="url(#p9309671fdd)" style="fill: none; stroke: #b0b0b0; stroke-linecap: square"/>
     </g>
     <g id="line2d_49">
      <g>
       <use xlink:href="#md5f5864e1e" x="477.631169" y="237.6" style="stroke: #000000"/>
      </g>
     </g>
     <g id="line2d_50">
      <g>
       <use xlink:href="#mc997a0ce5b" x="477.631169" y="98.4" style="stroke: #000000"/>
      </g>
     </g>
     <g id="text_11">
      <text style="font: 12px 'Source Code Pro'; text-anchor: middle" x="477.631169" y="253.144375" transform="rotate(-0, 477.631169, 253.144375)">21:00</text>
     </g>
    </g>
    <g id="xtick_21">
     <g id="line2d_51">
      <path d="M 541.963636 237.6 
L 541.963636 98.4 
" clip-path="url(#p9309671fdd)" style="fill: none; stroke: #b0b0b0; stroke-linecap: square"/>
     </g>
     <g id="line2d_52">
      <g>
       <use xlink:href="#md5f5864e1e" x="541.963636" y="237.6" style="stroke: #000000"/>
      </g>
     </g>
     <g id="line2d_53">
      <g>
       <use xlink:href="#mc997a0ce5b" x="541.963636" y="98.4" style="stroke: #000000"/>
      </g>
     </g>
     <g id="text_12">
      <text style="font: 12px 'Source Code Pro'; text-anchor: middle" x="541.963636" y="253.144375" transform="rotate(-0, 541.963636, 253.144375)">22:00</text>
     </g>
    </g>
    <g id="xtick_22">
     <g id="line2d_54">
      <g>
       <use xlink:href="#m6b38814d6e" x="130.235844" y="237.6" style="stroke: #000000; stroke-width: 0.6"/>
      </g>
     </g>
    </g>
    <g id="xtick_23">
     <g id="line2d_55">
      <g>
       <use xlink:href="#m6b38814d6e" x="207.434805" y="237.6" style="stroke: #000000; stroke-width: 0.6"/>
      </g>
     </g>
    </g>
    <g id="xtick_24">
     <g id="line2d_56">
      <g>
       <use xlink:href="#m6b38814d6e" x="361.832727" y="237.6" style="stroke: #000000; stroke-width: 0.6"/>
      </g>
     </g>
    </g>
    <g id="xtick_25">
     <g id="line2d_57">
      <g>
       <use xlink:href="#m6b38814d6e" x="439.031688" y="237.6" style="stroke: #000000; stroke-width: 0.6"/>
      </g>
     </g>
    </g>
    <g id="xtick_26">
     <g id="line2d_58">
      <g>
       <use xlink:href="#m6b38814d6e" x="516.230649" y="237.6" style="stroke: #000000; stroke-width: 0.6"/>
      </g>
     </g>
    </g>
   </g>
   <g id="matplotlib.axis_4">
    <g id="ytick_4">
     <g id="line2d_59">
      <path d="M 69.12 237.6 
L 564.48 237.6 
" clip-path="url(#p9309671fdd)" style="fill: none; stroke: #b0b0b0; stroke-linecap: square"/>
     </g>
     <g id="line2d_60">
      <g>
       <use xlink:href="#mdb8638d0a9" x="69.12" y="237.6" style="stroke: #000000"/>
      </g>
     </g>
     <g id="text_13">
      <text style="font: 12px 'Source Code Pro'; text-anchor: end" x="62.12" y="241.872188" transform="rotate(-0, 62.12, 241.872188)">0</text>
     </g>
    </g>
    <g id="ytick_5">
     <g id="line2d_61">
      <path d="M 69.12 208.6 
L 564.48 208.6 
" clip-path="url(#p9309671fdd)" style="fill: none; stroke: #b0b0b0; stroke-linecap: square"/>
     </g>
     <g id="line2d_62">
      <g>
       <use xlink:href="#mdb8638d0a9" x="69.12" y="208.6" style="stroke: #000000"/>
      </g>
     </g>
     <g id="text_14">
      <text style="font: 12px 'Source Code Pro'; text-anchor: end" x="62.12" y="212.872188" transform="rotate(-0, 62.12, 212.872188)">5</text>
     </g>
    </g>
    <g id="ytick_6">
     <g id="line2d_63">
      <path d="M 69.12 179.6 
L 564.48 179.6 
" clip-path="url(#p9309671fdd)" style="fill: none; stroke: #b0b0b0; stroke-linecap: square"/>
     </g>
     <g id="line2d_64">
      <g>
       <use xlink:href="#mdb8638d0a9" x="69.12" y="179.6" style="stroke: #000000"/>
      </g>
     </g>
     <g id="text_15">
      <text style="font: 12px 'Source Code Pro'; text-anchor: end" x="62.12" y="183.872188" transform="rotate(-0, 62.12, 183.872188)">10</text>
     </g>
    </g>
    <g id="ytick_7">
     <g id="line2d_65">
      <path d="M 69.12 150.6 
L 564.48 150.6 
" clip-path="url(#p9309671fdd)" style="fill: none; stroke: #b0b0b0; stroke-linecap: square"/>
     </g>
     <g id="line2d_66">
      <g>
       <use xlink:href="#mdb8638d0a9" x="69.12" y="150.6" style="stroke: #000000"/>
      </g>
     </g>
     <g id="text_16">
      <text style="font: 12px 'Source Code Pro'; text-anchor: end" x="62.12" y="154.872188" transform="rotate(-0, 62.12, 154.872188)">15</text>
     </g>
    </g>
    <g id="ytick_8">
     <g id="line2d_67">
      <path d="M 69.12 121.6 
L 564.48 121.6 
" clip-path="url(#p9309671fdd)" style="fill: none; stroke: #b0b0b0; stroke-linecap: square"/>
     </g>
     <g id="line2d_68">
      <g>
       <use xlink:href="#mdb8638d0a9" x="69.12" y="121.6" style="stroke: #000000"/>
      </g>
     </g>
     <g id="text_17">
      <text style="font: 12px 'Source Code Pro'; text-anchor: end" x="62.12" y="125.872188" transform="rotate(-0, 62.12, 125.872188)">20</text>
     </g>
    </g>
    <g id="text_18">
     <!-- conc. (mg $L^{-1}\ /\ ppm\ x\ 1000$) -->
     <g transform="translate(26.56 225.84)rotate(-90)">
      <text>
       <tspan style="font: 12px 'Source Code Pro'" x="0 7.199997 14.399994 21.599991 28.799988 35.999985 43.199982 50.399979 57.599976 64.799973 71.999969 92.073336 101.673308 108.873304 116.073301 125.673273 135.273245 142.473242 149.673239 156.873236 164.073233" y="-0.5609375000000014">conc. (mg L/ppmx1000)</tspan>
       <tspan style="font: 8.4px 'Source Code Pro'" x="79.301959 84.341956" y="-4.640625000000001">−1</tspan>
      </text>
     </g>
    </g>
   </g>
   <g id="line2d_69">
    <path d="M 91.636364 235.974672 
L 91.779325 236.154678 
L 95.031688 236.41691 
L 95.675013 236.270257 
L 97.033143 236.380989 
L 99.016727 236.250719 
L 100.106805 236.047212 
L 102.322701 236.034015 
L 102.644364 235.932749 
L 103.966753 236.18647 
L 104.520727 236.033959 
L 105.860987 235.881448 
L 108.773818 236.057473 
L 109.685195 236.092325 
L 111.257766 236.069589 
L 114.939013 236.379819 
L 115.653818 236.226554 
L 116.029091 236.284577 
L 118.459429 236.156203 
L 118.584519 236.20532 
L 120.425143 236.255432 
L 120.854026 236.355413 
L 122.462338 235.974683 
L 124.910545 236.178753 
L 125.696831 236.134688 
L 127.823377 236.464279 
L 131.05787 236.495819 
L 132.255169 236.303224 
L 132.648312 236.102689 
L 138.902857 236.389499 
L 139.867844 236.199245 
L 141.690597 236.233653 
L 142.762805 236.227268 
L 144.138805 236.039034 
L 145.246753 235.62648 
L 146.21174 235.307602 
L 146.301091 235.201482 
L 146.587013 235.095363 
L 147.051636 234.615227 
L 147.426909 234.444075 
L 148.374026 233.333085 
L 148.463377 233.115121 
L 149.124571 232.761217 
L 150.35761 232.551222 
L 150.625662 232.321217 
L 151.572779 232.391832 
L 152.144623 232.316513 
L 154.217558 231.569914 
L 155.432727 231.431451 
L 155.968831 231.135645 
L 155.986701 230.973491 
L 157.041039 230.723558 
L 157.058909 230.801103 
L 158.738701 230.938074 
L 159.489247 230.765437 
L 161.34774 230.378301 
L 161.651532 230.212314 
L 162.598649 230.500376 
L 163.527896 230.338572 
L 164.242701 230.308849 
L 165.064727 229.977913 
L 166.726649 230.100409 
L 167.316364 230.206566 
L 168.263481 229.940694 
L 168.728104 230.036 
L 170.336416 229.627401 
L 170.425766 229.485231 
L 172.069818 229.622444 
L 172.105558 229.759657 
L 173.267117 229.9705 
L 173.928312 229.900697 
L 174.678857 229.556589 
L 176.287169 229.520977 
L 176.841143 229.323052 
L 177.502338 229.383975 
L 178.074182 229.596041 
L 178.538805 229.429685 
L 178.735377 229.346507 
L 179.682494 229.9415 
L 180.701091 230.288926 
L 181.558857 230.009337 
L 182.845506 230.11696 
L 185.418805 230.263209 
L 185.526026 230.15316 
L 189.296623 229.792927 
L 189.582545 229.504499 
L 190.654753 229.528314 
L 191.190857 229.413561 
L 192.781299 228.278113 
L 193.263792 228.469083 
L 193.513974 228.596799 
L 194.586182 228.868915 
L 195.247377 229.08625 
L 196.194494 229.467687 
L 198.49974 229.481002 
L 198.857143 229.362034 
L 199.035844 229.223566 
L 200.233143 228.669693 
L 200.286753 228.553964 
L 200.644156 228.334294 
L 202.967273 228.385059 
L 204.575584 228.309883 
L 206.183896 228.76998 
L 207.613506 228.672005 
L 207.970909 228.669805 
L 208.685714 228.721933 
L 209.775792 228.404651 
L 210.722909 228.72529 
L 215.136831 227.877942 
L 215.619325 227.475044 
L 215.655065 227.519097 
L 220.283429 228.545997 
L 221.194805 228.642145 
L 222.267013 228.640755 
L 222.981818 228.414113 
L 224.054026 228.16648 
L 225.304935 228.192828 
L 227.091948 228.19345 
L 227.449351 228.083095 
L 228.342857 227.867414 
L 229.057662 227.778657 
L 229.593766 227.709053 
L 229.951169 227.695412 
L 230.665974 227.543056 
L 234.007688 226.264109 
L 234.24 226.427823 
L 234.776104 226.781784 
L 235.133506 226.901229 
L 235.848312 227.029973 
L 236.205714 227.182309 
L 237.277922 227.294251 
L 238.707532 227.273233 
L 239.958442 227.05629 
L 242.281558 227.119551 
L 242.46026 227.106547 
L 244.068571 227.245406 
L 244.765506 227.144027 
L 244.783377 227.051615 
L 246.212987 226.372337 
L 246.749091 226.407533 
L 247.642597 226.483352 
L 248.160831 226.439978 
L 248.178701 226.464875 
L 248.893506 226.458471 
L 249.072208 226.349108 
L 249.42961 226.189885 
L 250.037195 226.322115 
L 250.501818 226.681007 
L 251.037922 226.928373 
L 252.288831 226.469285 
L 252.467532 226.492109 
L 254.254545 226.802076 
L 254.790649 226.638965 
L 254.969351 226.59397 
L 257.292468 226.602505 
L 258.722078 226.225701 
L 260.509091 226.214665 
L 261.76 226.205967 
L 262.957299 226.528206 
L 263.368312 226.421054 
L 265.512727 226.007051 
L 266.227532 225.851398 
L 266.763636 225.751455 
L 267.835844 225.484801 
L 270.873766 225.111717 
L 272.124675 225.147056 
L 272.660779 225.180504 
L 273.375584 225.144322 
L 273.929558 224.883841 
L 274.983896 224.778394 
L 275.162597 224.816331 
L 276.91387 224.948257 
L 276.94961 224.874903 
L 278.379221 224.406481 
L 279.326338 224.430835 
L 281.024 224.244251 
L 281.345662 224.290746 
L 282.131948 224.24325 
L 283.382857 224.318411 
L 284.365714 224.139639 
L 285.026909 223.372618 
L 285.705974 223.357785 
L 285.723844 223.315412 
L 287.492987 222.934916 
L 288.386494 222.787802 
L 289.101299 222.599329 
L 290.173506 222.498744 
L 290.352208 222.482378 
L 292.496623 222.614195 
L 293.032727 222.499161 
L 293.068468 222.444954 
L 293.926234 222.492601 
L 294.641039 222.373244 
L 296.249351 221.677871 
L 296.964156 221.678831 
L 297.857662 221.456104 
L 298.036364 221.433281 
L 298.572468 221.452707 
L 298.92987 221.306396 
L 299.662545 221.072345 
L 300.895584 220.823469 
L 301.824831 220.591142 
L 303.415273 220.591601 
L 304.290909 220.452745 
L 304.558961 220.521773 
L 304.827013 220.829193 
L 305.023584 221.136613 
L 305.184416 221.566886 
L 305.488208 222.006254 
L 305.899221 223.121273 
L 306.131532 223.436709 
L 306.256623 223.746961 
L 306.435325 224.171643 
L 306.614026 224.445852 
L 306.631896 224.602565 
L 306.810597 224.903801 
L 307.096519 225.50192 
L 307.15013 225.628017 
L 307.382442 225.880213 
L 307.686234 226.546091 
L 308.043636 227.11784 
L 308.418909 227.929956 
L 308.59761 228.152554 
L 308.937143 228.718243 
L 309.276675 229.07382 
L 309.294545 229.403002 
L 310.724156 232.20651 
L 311.063688 232.361347 
L 311.081558 232.493436 
L 312.332468 233.300905 
L 312.546909 233.469695 
L 312.68987 233.511241 
L 313.762078 233.521352 
L 314.173091 233.644348 
L 314.655584 233.719375 
L 315.549091 233.878641 
L 315.745662 233.899743 
L 316.263896 233.849592 
L 316.442597 233.684654 
L 317.890078 233.595749 
L 318.408312 233.526012 
L 319.659221 233.345861 
L 320.016623 233.364724 
L 320.552727 233.383096 
L 321.106701 233.403788 
L 322.178909 233.164197 
L 323.233247 233.200351 
L 323.411948 233.110565 
L 325.198961 232.922282 
L 326.628571 232.783755 
L 326.807273 232.65384 
L 328.129662 232.581869 
L 328.772987 232.895945 
L 330.381299 232.606183 
L 331.98961 233.003599 
L 333.597922 233.124002 
L 334.598649 233.212868 
L 335.206234 233.2196 
L 338.494338 233.586719 
L 340.20987 235.437093 
L 341.103377 235.998882 
L 341.282078 236.168649 
L 342.461506 236.568371 
L 343.426494 236.689437 
L 345.74961 236.803881 
L 355.756883 236.876225 
L 472.806234 236.884976 
L 476.022857 236.719186 
L 476.201558 236.429009 
L 476.809143 235.820125 
L 478.703377 236.013398 
L 478.882078 236.055831 
L 479.596883 236.112517 
L 480.847792 236.276646 
L 480.865662 236.304151 
L 481.92 236.383381 
L 482.098701 236.362853 
L 484.600519 236.130355 
L 485.136623 236.022148 
L 486.387532 236.130111 
L 487.817143 236.297745 
L 488.710649 236.241007 
L 491.60561 235.916881 
L 492.642078 236.193541 
L 495.429818 236.161139 
L 496.412675 235.875231 
L 499.075325 235.790644 
L 499.254026 235.722208 
L 500.093922 235.389585 
L 500.147532 235.221012 
L 500.755117 234.738089 
L 501.416312 234.926484 
L 503.90026 234.383359 
L 504.972468 234.071537 
L 505.865974 233.973917 
L 507.295584 233.95015 
L 507.474286 233.745068 
L 507.831688 233.370738 
L 508.189091 233.380206 
L 509.797403 233.923453 
L 511.048312 233.888304 
L 511.763117 233.97679 
L 512.299221 233.841474 
L 512.835325 233.646342 
L 513.55013 233.489169 
L 514.086234 233.401245 
L 517.481558 233.538022 
L 518.553766 233.491628 
L 519.072 233.5686 
L 519.08987 233.450619 
L 519.447273 233.214658 
L 520.305039 233.096677 
L 521.627429 233.283335 
L 522.681766 233.212868 
L 522.949818 233.148552 
L 523.718234 233.341431 
L 524.790442 233.321781 
L 525.96987 233.130885 
L 526.077091 232.93999 
L 527.774753 233.056158 
L 528.024935 232.950259 
L 528.918442 232.926219 
L 529.811948 232.641733 
L 529.990649 232.593543 
L 530.884156 232.616387 
L 531.598961 232.480575 
L 532.135065 232.405868 
L 532.581818 232.437142 
L 533.528935 232.071498 
L 534.940675 232.216597 
L 536.548987 232.083922 
L 536.94213 231.878161 
L 537.692675 231.842558 
L 540.230234 231.832213 
L 540.891429 231.616152 
L 541.373922 231.170561 
L 541.945766 231.129097 
L 541.945766 231.129097 
" clip-path="url(#p9309671fdd)" style="fill: none; stroke: #00a6d6; stroke-width: 3; stroke-linecap: square"/>
   </g>
   <g id="line2d_70">
    <path d="M 91.636364 222.744832 
L 99.016727 222.744832 
L 100.106805 222.218876 
L 109.685195 222.218876 
L 110.757403 174.282784 
L 120.425143 174.282784 
L 120.854026 171.786639 
L 121.408 169.290494 
L 122.462338 169.060014 
L 124.16 168.829534 
L 125.696831 168.599055 
L 129.217247 168.368575 
L 132.648312 167.911007 
L 163.527896 167.970352 
L 164.01039 169.175005 
L 173.71387 169.175005 
L 173.928312 170.024275 
L 174.589506 170.873546 
L 174.678857 171.722816 
L 185.436675 171.722816 
L 185.526026 174.403875 
L 195.175896 174.403875 
L 195.247377 175.505443 
L 195.65839 176.607011 
L 196.194494 177.708579 
L 205.862234 177.708579 
L 207.077403 181.592202 
L 207.613506 181.779297 
L 209.757922 182.434128 
L 209.775792 182.480901 
L 215.02961 184.117979 
L 215.833766 184.445395 
L 218.174753 185.053452 
L 227.36 185.053452 
L 227.628052 186.555149 
L 227.878234 187.556281 
L 228.164156 188.557412 
L 228.342857 189.057978 
L 229.754597 189.565033 
L 229.772468 189.615738 
L 231.559481 190.224204 
L 232.631688 190.731259 
L 236.545247 192.201718 
L 236.563117 192.252424 
L 239.064935 193.063712 
L 239.100675 193.114417 
L 249.858494 193.114417 
L 250.037195 197.451391 
L 259.633455 197.451391 
L 260.509091 201.609499 
L 271.266909 201.609499 
L 271.42774 206.243117 
L 281.024 206.243117 
L 281.05974 206.784071 
L 281.345662 207.865978 
L 281.595844 208.947886 
L 281.953247 210.029794 
L 282.096208 210.570748 
L 291.692468 210.570748 
L 292.139221 212.971544 
L 292.675325 214.772142 
L 292.693195 215.372341 
L 302.360935 215.372341 
L 303.04 217.753113 
L 303.218701 218.348306 
L 303.415273 220.133886 
L 305.112935 220.729863 
L 306.435325 221.463373 
L 307.471792 222.013506 
L 307.507532 222.05935 
L 308.329558 222.380261 
L 308.937143 222.701172 
L 309.562597 222.976238 
L 312.153766 224.214037 
L 312.546909 224.397415 
L 312.68987 224.489103 
L 313.905039 224.901703 
L 313.940779 224.947547 
L 314.655584 225.039236 
L 323.858701 225.039236 
L 324.484156 227.329022 
L 325.02026 228.473915 
L 334.598649 228.473915 
L 334.848831 228.786655 
L 335.027532 229.099395 
L 335.045403 229.255764 
L 335.742338 229.881244 
L 345.249247 229.881244 
L 345.928312 230.617327 
L 346.464416 231.169389 
L 355.989195 231.169389 
L 356.471688 231.666214 
L 357.007792 232.163344 
L 425.057247 232.168311 
L 453.327792 231.951266 
L 453.863896 231.902596 
L 463.692468 232.004105 
L 464.943377 232.139328 
L 495.429818 232.050624 
L 495.876571 208.033697 
L 496.412675 196.025234 
L 506.116156 196.025234 
L 506.938182 190.576482 
L 507.116883 189.798089 
L 507.170494 189.019695 
L 516.873974 189.019695 
L 517.124156 188.297115 
L 517.838961 187.333674 
L 527.542442 187.333674 
L 527.971325 187.976203 
L 528.024935 188.136835 
L 528.72187 188.618731 
L 538.228779 188.618731 
L 539.390338 190.341574 
L 541.945766 190.341574 
L 541.945766 190.341574 
" clip-path="url(#p9309671fdd)" style="fill: none; stroke: #99d28c; stroke-width: 3; stroke-linecap: square"/>
   </g>
   <g id="line2d_71">
    <path d="M 91.636364 236.472521 
L 91.779325 236.472521 
L 92.726442 235.790713 
L 97.033143 235.790713 
L 98.158961 235.018432 
L 102.322701 235.018432 
L 102.644364 234.732993 
L 103.394909 234.447555 
L 108.666597 234.540117 
L 108.773818 234.632679 
L 113.080519 234.632679 
L 114.939013 234.961922 
L 123.838338 234.871529 
L 124.910545 234.74774 
L 129.985662 234.823758 
L 130.200104 234.899775 
L 134.506805 234.899775 
L 135.561143 235.253372 
L 139.867844 235.253372 
L 141.690597 235.591031 
L 155.968831 235.635981 
L 155.986701 235.470194 
L 156.951688 235.138619 
L 157.058909 234.972832 
L 161.34774 234.972832 
L 161.651532 234.713798 
L 162.598649 234.454764 
L 166.726649 234.454764 
L 167.798857 233.807745 
L 172.605922 233.722645 
L 173.267117 233.637544 
L 178.485195 233.637544 
L 178.538805 232.331147 
L 182.845506 232.331147 
L 183.828364 231.007349 
L 189.189403 231.007349 
L 189.296623 229.372439 
L 193.513974 229.372439 
L 194.30026 228.668174 
L 194.586182 227.963909 
L 198.892883 227.963909 
L 199.571948 226.669856 
L 199.929351 226.022829 
L 205.218909 226.022829 
L 205.29039 224.141511 
L 210.615688 224.141511 
L 210.722909 222.476018 
L 215.02961 222.476018 
L 215.476364 221.575253 
L 216.012468 220.674487 
L 220.301299 220.674487 
L 220.319169 220.441062 
L 221.391377 219.04051 
L 225.680208 219.04051 
L 226.555844 217.325154 
L 226.734545 217.039261 
L 232.024104 217.039261 
L 232.274286 215.593653 
L 232.452987 215.497051 
L 234.007688 214.965742 
L 234.24 214.869141 
L 235.66961 214.386133 
L 235.687481 214.337832 
L 237.992727 213.709922 
L 241.799065 213.709922 
L 242.817662 211.793359 
L 247.088623 211.793359 
L 247.106494 211.568041 
L 247.392416 211.117406 
L 247.642597 210.66677 
L 247.874909 210.216135 
L 248.178701 209.7655 
L 252.449662 209.7655 
L 252.467532 209.429401 
L 253.53974 207.412809 
L 257.828571 207.412809 
L 258.007273 206.874742 
L 258.614857 205.798607 
L 258.900779 205.26054 
L 263.207481 205.26054 
L 264.440519 202.566794 
L 268.58639 202.566794 
L 269.265455 201.087346 
L 269.622857 200.347621 
L 274.930286 200.347621 
L 275.019636 197.518206 
L 279.326338 197.518206 
L 279.808831 196.385983 
L 279.987532 196.008576 
L 280.166234 195.25376 
L 280.344935 194.876353 
L 284.633766 194.876353 
L 284.651636 194.589527 
L 284.848208 194.015874 
L 285.598753 192.294917 
L 285.723844 192.008091 
L 289.994805 192.008091 
L 290.012675 191.701907 
L 290.227117 191.089538 
L 290.70961 190.170985 
L 291.067013 189.558617 
L 295.373714 189.558617 
L 296.428052 186.485177 
L 301.735481 186.485177 
L 301.824831 183.647526 
L 306.131532 183.647526 
L 306.256623 183.220494 
L 307.15013 181.085334 
L 311.403221 181.085334 
L 311.617662 180.630555 
L 311.814234 180.327369 
L 312.582649 179.720997 
L 316.78213 179.720997 
L 316.8 179.555024 
L 317.014442 179.223076 
L 317.872208 178.393206 
L 323.233247 178.393206 
L 323.322597 177.705537 
L 327.75439 177.605709 
L 328.772987 177.256312 
L 333.776623 177.356198 
L 334.312727 177.376175 
L 339.316364 177.459316 
L 339.352104 177.625599 
L 343.962597 177.723857 
L 345.034805 177.920373 
L 349.144935 178.004606 
L 350.395844 178.212273 
L 365.228052 178.261843 
L 367.372468 178.360212 
L 370.767792 178.464112 
L 372.018701 178.723862 
L 375.95013 178.795138 
L 377.022338 179.151516 
L 381.48987 179.238942 
L 382.919481 179.362312 
L 394.535065 179.325807 
L 398.269922 179.325807 
L 398.287792 179.583882 
L 403.648831 179.583882 
L 403.666701 180.1437 
L 407.973403 180.1437 
L 408.831169 180.888246 
L 409.188571 181.186065 
L 413.298701 181.186065 
L 413.316571 181.364759 
L 414.388779 182.436926 
L 419.696208 182.436926 
L 419.785558 183.727453 
L 424.09226 183.727453 
L 424.378182 184.020889 
L 425.092987 184.607761 
L 429.363948 184.607761 
L 429.381818 184.748929 
L 430.632727 185.595936 
L 434.921558 185.680206 
L 435.993766 186.101558 
L 440.103896 186.101558 
L 441.354805 186.864073 
L 451.719481 187.022799 
L 452.791688 187.042689 
L 462.084156 187.143718 
L 463.335065 187.26066 
L 476.040727 187.391187 
L 477.631169 187.400039 
L 477.649039 188.043126 
L 478.721247 191.901644 
L 482.992208 191.901644 
L 483.010078 193.001032 
L 484.243117 200.696747 
L 488.353247 200.696747 
L 488.371117 202.018747 
L 489.425455 209.950752 
L 493.732156 209.950752 
L 494.804364 215.586982 
L 499.111065 215.586982 
L 500.147532 217.846528 
L 505.508571 217.846528 
L 505.562182 219.280114 
L 509.868883 219.280114 
L 510.154805 219.68838 
L 510.976831 220.504912 
L 515.480104 220.593404 
L 515.515844 220.63765 
L 516.766753 220.85888 
L 521.609558 220.85888 
L 521.627429 221.717523 
L 532.135065 221.622876 
L 532.581818 221.59592 
L 537.674805 221.59592 
L 537.692675 220.924141 
L 541.945766 220.924141 
L 541.945766 220.924141 
" clip-path="url(#p9309671fdd)" style="fill: none; stroke: #f1be3e; stroke-width: 3; stroke-linecap: square"/>
   </g>
   <g id="patch_10">
    <path d="M 69.12 237.6 
L 69.12 98.4 
" style="fill: none; stroke: #000000; stroke-linejoin: miter; stroke-linecap: square"/>
   </g>
   <g id="patch_11">
    <path d="M 564.48 237.6 
L 564.48 98.4 
" style="fill: none; stroke: #000000; stroke-linejoin: miter; stroke-linecap: square"/>
   </g>
   <g id="patch_12">
    <path d="M 69.12 237.6 
L 564.48 237.6 
" style="fill: none; stroke: #000000; stroke-linejoin: miter; stroke-linecap: square"/>
   </g>
   <g id="patch_13">
    <path d="M 69.12 98.4 
L 564.48 98.4 
" style="fill: none; stroke: #000000; stroke-linejoin: miter; stroke-linecap: square"/>
   </g>
   <g id="patch_14">
    <path d="M 311.438961 133.199652 
Q 311.438961 181.995541 311.438961 229.673397 
" style="fill: none; stroke: #000000; stroke-linecap: round"/>
    <path d="M 313.838961 224.873397 
L 311.438961 229.673397 
L 309.038961 224.873397 
" style="fill: none; stroke: #000000; stroke-linecap: round"/>
   </g>
   <g id="text_19">
    <g id="patch_15">
     <path d="M 307.838961 130.702188 
L 315.038961 130.702188 
Q 318.638961 130.702188 318.638961 127.102188 
L 318.638961 116.097813 
Q 318.638961 112.497813 315.038961 112.497813 
L 307.838961 112.497813 
Q 304.238961 112.497813 304.238961 116.097813 
L 304.238961 127.102188 
Q 304.238961 130.702188 307.838961 130.702188 
z
" style="fill: #cccccc; stroke: #000000; stroke-linejoin: miter"/>
    </g>
    <text style="font: 12px 'Source Code Pro'; text-anchor: middle" x="311.438961" y="124.642188" transform="rotate(-0, 311.438961, 124.642188)">1</text>
   </g>
   <g id="legend_1">
    <g id="line2d_72">
     <path d="M 50.1984 275.52 
L 62.1984 275.52 
L 74.1984 275.52 
" style="fill: none; stroke-dasharray: 11.1,4.8; stroke-dashoffset: 0; stroke: #c3312f; stroke-width: 3"/>
    </g>
    <g id="text_20">
     <!-- $Inline\ N_2O−N$ -->
     <g transform="translate(83.7984 279.72)">
      <text>
       <tspan style="font: 12px 'Source Code Pro'" x="0 7.199997 14.399994 21.599991 28.799988 35.999985 45.599957 58.23335 65.433347 72.633344" y="-0.40625">InlineNO−N</tspan>
       <tspan style="font: 8.4px 'Source Code Pro'" x="52.901946" y="1.3421874999999996">2</tspan>
      </text>
     </g>
    </g>
    <g id="line2d_73">
     <path d="M 187.7184 275.52 
L 199.7184 275.52 
L 211.7184 275.52 
" style="fill: none; stroke: #c3312f; stroke-width: 3; stroke-linecap: square"/>
    </g>
    <g id="text_21">
     <!-- $Offgas\ N_2O−N$ -->
     <g transform="translate(221.3184 279.72)">
      <text>
       <tspan style="font: 12px 'Source Code Pro'" x="0 7.199997 14.399994 21.599991 28.799988 35.999985 45.599957 58.23335 65.433347 72.633344" y="-0.3125">OffgasNO−N</tspan>
       <tspan style="font: 8.4px 'Source Code Pro'" x="52.901946" y="1.4359374999999996">2</tspan>
      </text>
     </g>
    </g>
    <g id="line2d_74">
     <path d="M 325.2384 275.52 
L 337.2384 275.52 
L 349.2384 275.52 
" style="fill: none; stroke: #00a6d6; stroke-width: 3; stroke-linecap: square"/>
    </g>
    <g id="text_22">
     <!-- $O_2$ -->
     <g transform="translate(358.8384 279.72)">
      <text>
       <tspan style="font: 12px 'Source Code Pro'" x="0" y="-0.984375">O</tspan>
       <tspan style="font: 8.4px 'Source Code Pro'" x="7.301989" y="0.7640624999999996">2</tspan>
      </text>
     </g>
    </g>
    <g id="line2d_75">
     <path d="M 395.5584 275.52 
L 407.5584 275.52 
L 419.5584 275.52 
" style="fill: none; stroke: #99d28c; stroke-width: 3; stroke-linecap: square"/>
    </g>
    <g id="text_23">
     <!-- $NH_4−N$ -->
     <g transform="translate(429.1584 279.72)">
      <text>
       <tspan style="font: 12px 'Source Code Pro'" x="0 7.199997 19.83339 27.033387" y="-0.125">NH−N</tspan>
       <tspan style="font: 8.4px 'Source Code Pro'" x="14.501986" y="1.6234374999999996">4</tspan>
      </text>
     </g>
    </g>
    <g id="line2d_76">
     <path d="M 487.4784 275.52 
L 499.4784 275.52 
L 511.4784 275.52 
" style="fill: none; stroke: #f1be3e; stroke-width: 3; stroke-linecap: square"/>
    </g>
    <g id="text_24">
     <!-- $NO_3−N$ -->
     <g transform="translate(521.0784 279.72)">
      <text>
       <tspan style="font: 12px 'Source Code Pro'" x="0 7.199997 19.83339 27.033387" y="-0.984375">NO−N</tspan>
       <tspan style="font: 8.4px 'Source Code Pro'" x="14.501986" y="0.7640624999999996">3</tspan>
      </text>
     </g>
    </g>
   </g>
  </g>
 </g>
 <defs>
  <clipPath id="p166efc8b9f">
   <rect x="69.12" y="28.8" width="495.36" height="69.6"/>
  </clipPath>
  <clipPath id="p9309671fdd">
   <rect x="69.12" y="98.4" width="495.36" height="139.2"/>
  </clipPath>
 </defs>
 <defs>
  <pattern id="hcd1ea77871" patternUnits="userSpaceOnUse" x="0" y="0" width="72" height="72">
   <rect x="0" y="0" width="73" height="73" fill="#dddddd"/>
   <path d="M -36 36 
L 36 -36 
M -32 40 
L 40 -32 
M -28 44 
L 44 -28 
M -24 48 
L 48 -24 
M -20 52 
L 52 -20 
M -16 56 
L 56 -16 
M -12 60 
L 60 -12 
M -8 64 
L 64 -8 
M -4 68 
L 68 -4 
M 0 72 
L 72 0 
M 4 76 
L 76 4 
M 8 80 
L 80 8 
M 12 84 
L 84 12 
M 16 88 
L 88 16 
M 20 92 
L 92 20 
M 24 96 
L 96 24 
M 28 100 
L 100 28 
M 32 104 
L 104 32 
M 36 108 
L 108 36 
" style="fill: #ffffff; stroke: #ffffff; stroke-width: 1.0; stroke-linecap: butt; stroke-linejoin: miter"/>
  </pattern>
  <pattern id="hfdf4f769b3" patternUnits="userSpaceOnUse" x="0" y="0" width="72" height="72">
   <rect x="0" y="0" width="73" height="73" fill="#ffffff"/>
   <path d="M -36 36 
L 36 -36 
M -32 40 
L 40 -32 
M -28 44 
L 44 -28 
M -24 48 
L 48 -24 
M -20 52 
L 52 -20 
M -16 56 
L 56 -16 
M -12 60 
L 60 -12 
M -8 64 
L 64 -8 
M -4 68 
L 68 -4 
M 0 72 
L 72 0 
M 4 76 
L 76 4 
M 8 80 
L 80 8 
M 12 84 
L 84 12 
M 16 88 
L 88 16 
M 20 92 
L 92 20 
M 24 96 
L 96 24 
M 28 100 
L 100 28 
M 32 104 
L 104 32 
M 36 108 
L 108 36 
M -36 36 
L 36 108 
M -32 32 
L 40 104 
M -28 28 
L 44 100 
M -24 24 
L 48 96 
M -20 20 
L 52 92 
M -16 16 
L 56 88 
M -12 12 
L 60 84 
M -8 8 
L 64 80 
M -4 4 
L 68 76 
M 0 0 
L 72 72 
M 4 -4 
L 76 68 
M 8 -8 
L 80 64 
M 12 -12 
L 84 60 
M 16 -16 
L 88 56 
M 20 -20 
L 92 52 
M 24 -24 
L 96 48 
M 28 -28 
L 100 44 
M 32 -32 
L 104 40 
M 36 -36 
L 108 36 
" style="fill: #dddddd; stroke: #dddddd; stroke-width: 1.0; stroke-linecap: butt; stroke-linejoin: miter"/>
  </pattern>
 </defs>
</svg>
