<?xml version="1.0" encoding="utf-8" standalone="no"?>
<!DOCTYPE svg PUBLIC "-//W3C//DTD SVG 1.1//EN"
  "http://www.w3.org/Graphics/SVG/1.1/DTD/svg11.dtd">
<svg xmlns:xlink="http://www.w3.org/1999/xlink" width="576pt" height="288pt" viewBox="0 0 576 288" xmlns="http://www.w3.org/2000/svg" version="1.1">
 <metadata>
  <rdf:RDF xmlns:dc="http://purl.org/dc/elements/1.1/" xmlns:cc="http://creativecommons.org/ns#" xmlns:rdf="http://www.w3.org/1999/02/22-rdf-syntax-ns#">
   <cc:Work>
    <dc:type rdf:resource="http://purl.org/dc/dcmitype/StillImage"/>
    <dc:date>2022-10-30T20:52:22.044293</dc:date>
    <dc:format>image/svg+xml</dc:format>
    <dc:creator>
     <cc:Agent>
      <dc:title>Matplotlib v3.5.2, https://matplotlib.org/</dc:title>
     </cc:Agent>
    </dc:creator>
   </cc:Work>
  </rdf:RDF>
 </metadata>
 <defs>
  <style type="text/css">*{stroke-linejoin: round; stroke-linecap: butt}</style>
 </defs>
 <g id="figure_1">
  <g id="patch_1">
   <path d="M 0 288 
L 576 288 
L 576 0 
L 0 0 
z
" style="fill: #ffffff"/>
  </g>
  <g id="axes_1">
   <g id="patch_2">
    <path d="M 69.12 98.4 
L 564.48 98.4 
L 564.48 28.8 
L 69.12 28.8 
z
" style="fill: #ffffff"/>
   </g>
   <g id="PolyCollection_1">
    <path d="M 102.619956 98.4 
L 102.619956 98.4 
L 108.364557 98.4 
L 108.49813 98.4 
L 109.002643 98.4 
L 109.015661 98.4 
L 109.220647 98.4 
L 109.538907 28.8 
L 127.025619 28.8 
L 127.027938 28.8 
L 148.80055 28.8 
L 149.822268 28.8 
L 162.05626 28.8 
L 162.277417 28.8 
L 180.968867 28.8 
L 181.506697 28.8 
L 181.722138 28.8 
L 182.021359 28.8 
L 182.155257 98.4 
L 182.477951 98.4 
L 182.49764 98.4 
L 182.503987 98.4 
L 182.694674 98.4 
L 185.256902 98.4 
L 185.36448 98.4 
L 200.231545 98.4 
L 200.251885 98.4 
L 208.675547 98.4 
L 209.002696 98.4 
L 273.475323 98.4 
L 273.475831 98.4 
L 320.898487 98.4 
L 321.348733 98.4 
L 321.628285 98.4 
L 321.845008 98.4 
L 346.679438 98.4 
L 346.699778 98.4 
L 357.939329 98.4 
L 358.696729 98.4 
L 395.310797 98.4 
L 396.222395 98.4 
L 408.45354 98.4 
L 408.462428 98.4 
L 408.661048 98.4 
L 408.878096 98.4 
L 419.921996 98.4 
L 419.923725 98.4 
L 445.617479 98.4 
L 445.721884 98.4 
L 455.458045 98.4 
L 456.422974 98.4 
L 456.56989 98.4 
L 456.839273 98.4 
L 456.845944 98.4 
L 457.035371 98.4 
L 492.254563 98.4 
L 492.54331 98.4 
L 492.613117 98.4 
L 492.833012 98.4 
L 493.146451 98.4 
L 493.147672 98.4 
L 498.732015 98.4 
L 498.835139 98.4 
L 538.129142 98.4 
L 538.991578 98.4 
L 541.702003 98.4 
L 541.963636 98.4 
L 541.963636 98.4 
L 541.963636 98.4 
L 541.702003 98.4 
L 538.991578 98.4 
L 538.129142 98.4 
L 498.835139 98.4 
L 498.732015 98.4 
L 493.147672 98.4 
L 493.146451 98.4 
L 492.833012 98.4 
L 492.613117 98.4 
L 492.54331 98.4 
L 492.254563 98.4 
L 457.035371 98.4 
L 456.845944 98.4 
L 456.839273 98.4 
L 456.56989 98.4 
L 456.422974 98.4 
L 455.458045 98.4 
L 445.721884 98.4 
L 445.617479 98.4 
L 419.923725 98.4 
L 419.921996 98.4 
L 408.878096 98.4 
L 408.661048 98.4 
L 408.462428 98.4 
L 408.45354 98.4 
L 396.222395 98.4 
L 395.310797 98.4 
L 358.696729 98.4 
L 357.939329 98.4 
L 346.699778 98.4 
L 346.679438 98.4 
L 321.845008 98.4 
L 321.628285 98.4 
L 321.348733 98.4 
L 320.898487 98.4 
L 273.475831 98.4 
L 273.475323 98.4 
L 209.002696 98.4 
L 208.675547 98.4 
L 200.251885 98.4 
L 200.231545 98.4 
L 185.36448 98.4 
L 185.256902 98.4 
L 182.694674 98.4 
L 182.503987 98.4 
L 182.49764 98.4 
L 182.477951 98.4 
L 182.155257 98.4 
L 182.021359 98.4 
L 181.722138 98.4 
L 181.506697 98.4 
L 180.968867 98.4 
L 162.277417 98.4 
L 162.05626 98.4 
L 149.822268 98.4 
L 148.80055 98.4 
L 127.027938 98.4 
L 127.025619 98.4 
L 109.538907 98.4 
L 109.220647 98.4 
L 109.015661 98.4 
L 109.002643 98.4 
L 108.49813 98.4 
L 108.364557 98.4 
L 102.619956 98.4 
z
" clip-path="url(#pd15d9ceb71)" style="fill: url(#hc141c66d4b)"/>
   </g>
   <g id="PolyCollection_2">
    <defs>
     <path id="m2531e0d94b" d="M 102.619956 -189.6 
L 102.619956 -189.6 
L 108.364557 -189.6 
L 108.49813 -189.6 
L 109.002643 -189.6 
L 109.015661 -189.6 
L 109.220647 -189.6 
L 109.538907 -189.6 
L 127.025619 -189.6 
L 127.027938 -189.6 
L 148.80055 -189.6 
L 149.822268 -189.6 
L 162.05626 -189.6 
L 162.277417 -189.6 
L 180.968867 -189.6 
L 181.506697 -189.6 
L 181.722138 -189.6 
L 182.021359 -189.6 
L 182.155257 -189.6 
L 182.477951 -189.6 
L 182.49764 -189.6 
L 182.503987 -189.6 
L 182.694674 -189.6 
L 185.256902 -189.6 
L 185.36448 -189.6 
L 200.231545 -189.6 
L 200.251885 -189.6 
L 208.675547 -189.6 
L 209.002696 -189.6 
L 273.475323 -189.6 
L 273.475831 -189.6 
L 320.898487 -189.6 
L 321.348733 -189.6 
L 321.628285 -189.6 
L 321.845008 -189.6 
L 346.679438 -189.6 
L 346.699778 -189.6 
L 357.939329 -189.6 
L 358.696729 -189.6 
L 395.310797 -189.6 
L 396.222395 -189.6 
L 408.45354 -189.6 
L 408.462428 -189.6 
L 408.661048 -189.6 
L 408.878096 -189.6 
L 419.921996 -189.6 
L 419.923725 -189.6 
L 445.617479 -189.6 
L 445.721884 -189.6 
L 455.458045 -189.6 
L 456.422974 -189.6 
L 456.56989 -189.6 
L 456.839273 -189.6 
L 456.845944 -189.6 
L 457.035371 -189.6 
L 492.254563 -189.6 
L 492.54331 -189.6 
L 492.613117 -189.6 
L 492.833012 -259.2 
L 493.146451 -259.2 
L 493.147672 -259.2 
L 498.732015 -259.2 
L 498.835139 -259.2 
L 538.129142 -259.2 
L 538.991578 -189.6 
L 541.702003 -189.6 
L 541.963636 -189.6 
L 541.963636 -189.6 
L 541.963636 -189.6 
L 541.702003 -189.6 
L 538.991578 -189.6 
L 538.129142 -189.6 
L 498.835139 -189.6 
L 498.732015 -189.6 
L 493.147672 -189.6 
L 493.146451 -189.6 
L 492.833012 -189.6 
L 492.613117 -189.6 
L 492.54331 -189.6 
L 492.254563 -189.6 
L 457.035371 -189.6 
L 456.845944 -189.6 
L 456.839273 -189.6 
L 456.56989 -189.6 
L 456.422974 -189.6 
L 455.458045 -189.6 
L 445.721884 -189.6 
L 445.617479 -189.6 
L 419.923725 -189.6 
L 419.921996 -189.6 
L 408.878096 -189.6 
L 408.661048 -189.6 
L 408.462428 -189.6 
L 408.45354 -189.6 
L 396.222395 -189.6 
L 395.310797 -189.6 
L 358.696729 -189.6 
L 357.939329 -189.6 
L 346.699778 -189.6 
L 346.679438 -189.6 
L 321.845008 -189.6 
L 321.628285 -189.6 
L 321.348733 -189.6 
L 320.898487 -189.6 
L 273.475831 -189.6 
L 273.475323 -189.6 
L 209.002696 -189.6 
L 208.675547 -189.6 
L 200.251885 -189.6 
L 200.231545 -189.6 
L 185.36448 -189.6 
L 185.256902 -189.6 
L 182.694674 -189.6 
L 182.503987 -189.6 
L 182.49764 -189.6 
L 182.477951 -189.6 
L 182.155257 -189.6 
L 182.021359 -189.6 
L 181.722138 -189.6 
L 181.506697 -189.6 
L 180.968867 -189.6 
L 162.277417 -189.6 
L 162.05626 -189.6 
L 149.822268 -189.6 
L 148.80055 -189.6 
L 127.027938 -189.6 
L 127.025619 -189.6 
L 109.538907 -189.6 
L 109.220647 -189.6 
L 109.015661 -189.6 
L 109.002643 -189.6 
L 108.49813 -189.6 
L 108.364557 -189.6 
L 102.619956 -189.6 
z
"/>
    </defs>
    <g clip-path="url(#pd15d9ceb71)">
     <use xlink:href="#m2531e0d94b" x="0" y="288" style="fill: #dddddd"/>
    </g>
   </g>
   <g id="PolyCollection_3">
    <path d="M 102.619956 98.4 
L 102.619956 98.4 
L 108.364557 98.4 
L 108.49813 98.4 
L 109.002643 98.4 
L 109.015661 98.4 
L 109.220647 98.4 
L 109.538907 98.4 
L 127.025619 98.4 
L 127.027938 98.4 
L 148.80055 98.4 
L 149.822268 98.4 
L 162.05626 98.4 
L 162.277417 98.4 
L 180.968867 98.4 
L 181.506697 98.4 
L 181.722138 98.4 
L 182.021359 98.4 
L 182.155257 98.4 
L 182.477951 98.4 
L 182.49764 98.4 
L 182.503987 28.8 
L 182.694674 28.8 
L 185.256902 28.8 
L 185.36448 28.8 
L 200.231545 28.8 
L 200.251885 28.8 
L 208.675547 28.8 
L 209.002696 28.8 
L 273.475323 28.8 
L 273.475831 28.8 
L 320.898487 28.8 
L 321.348733 28.8 
L 321.628285 28.8 
L 321.845008 28.8 
L 346.679438 28.8 
L 346.699778 28.8 
L 357.939329 28.8 
L 358.696729 28.8 
L 395.310797 28.8 
L 396.222395 28.8 
L 408.45354 28.8 
L 408.462428 28.8 
L 408.661048 28.8 
L 408.878096 28.8 
L 419.921996 28.8 
L 419.923725 28.8 
L 445.617479 28.8 
L 445.721884 28.8 
L 455.458045 28.8 
L 456.422974 28.8 
L 456.56989 98.4 
L 456.839273 98.4 
L 456.845944 98.4 
L 457.035371 28.8 
L 492.254563 28.8 
L 492.54331 28.8 
L 492.613117 98.4 
L 492.833012 98.4 
L 493.146451 98.4 
L 493.147672 98.4 
L 498.732015 98.4 
L 498.835139 98.4 
L 538.129142 98.4 
L 538.991578 98.4 
L 541.702003 98.4 
L 541.963636 98.4 
L 541.963636 98.4 
L 541.963636 98.4 
L 541.702003 98.4 
L 538.991578 98.4 
L 538.129142 98.4 
L 498.835139 98.4 
L 498.732015 98.4 
L 493.147672 98.4 
L 493.146451 98.4 
L 492.833012 98.4 
L 492.613117 98.4 
L 492.54331 98.4 
L 492.254563 98.4 
L 457.035371 98.4 
L 456.845944 98.4 
L 456.839273 98.4 
L 456.56989 98.4 
L 456.422974 98.4 
L 455.458045 98.4 
L 445.721884 98.4 
L 445.617479 98.4 
L 419.923725 98.4 
L 419.921996 98.4 
L 408.878096 98.4 
L 408.661048 98.4 
L 408.462428 98.4 
L 408.45354 98.4 
L 396.222395 98.4 
L 395.310797 98.4 
L 358.696729 98.4 
L 357.939329 98.4 
L 346.699778 98.4 
L 346.679438 98.4 
L 321.845008 98.4 
L 321.628285 98.4 
L 321.348733 98.4 
L 320.898487 98.4 
L 273.475831 98.4 
L 273.475323 98.4 
L 209.002696 98.4 
L 208.675547 98.4 
L 200.251885 98.4 
L 200.231545 98.4 
L 185.36448 98.4 
L 185.256902 98.4 
L 182.694674 98.4 
L 182.503987 98.4 
L 182.49764 98.4 
L 182.477951 98.4 
L 182.155257 98.4 
L 182.021359 98.4 
L 181.722138 98.4 
L 181.506697 98.4 
L 180.968867 98.4 
L 162.277417 98.4 
L 162.05626 98.4 
L 149.822268 98.4 
L 148.80055 98.4 
L 127.027938 98.4 
L 127.025619 98.4 
L 109.538907 98.4 
L 109.220647 98.4 
L 109.015661 98.4 
L 109.002643 98.4 
L 108.49813 98.4 
L 108.364557 98.4 
L 102.619956 98.4 
z
" clip-path="url(#pd15d9ceb71)" style="fill: url(#h109a70856c)"/>
   </g>
   <g id="matplotlib.axis_1">
    <g id="xtick_1">
     <g id="line2d_1">
      <path d="M 127.027938 98.4 
L 127.027938 28.8 
" clip-path="url(#pd15d9ceb71)" style="fill: none; stroke: #b0b0b0; stroke-linecap: square"/>
     </g>
     <g id="line2d_2">
      <defs>
       <path id="m434f2878cd" d="M 0 0 
L 0 3.5 
" style="stroke: #000000"/>
      </defs>
      <g>
       <use xlink:href="#m434f2878cd" x="127.027938" y="98.4" style="stroke: #000000"/>
      </g>
     </g>
    </g>
    <g id="xtick_2">
     <g id="line2d_3">
      <path d="M 200.251885 98.4 
L 200.251885 28.8 
" clip-path="url(#pd15d9ceb71)" style="fill: none; stroke: #b0b0b0; stroke-linecap: square"/>
     </g>
     <g id="line2d_4">
      <g>
       <use xlink:href="#m434f2878cd" x="200.251885" y="98.4" style="stroke: #000000"/>
      </g>
     </g>
    </g>
    <g id="xtick_3">
     <g id="line2d_5">
      <path d="M 273.475831 98.4 
L 273.475831 28.8 
" clip-path="url(#pd15d9ceb71)" style="fill: none; stroke: #b0b0b0; stroke-linecap: square"/>
     </g>
     <g id="line2d_6">
      <g>
       <use xlink:href="#m434f2878cd" x="273.475831" y="98.4" style="stroke: #000000"/>
      </g>
     </g>
    </g>
    <g id="xtick_4">
     <g id="line2d_7">
      <path d="M 346.699778 98.4 
L 346.699778 28.8 
" clip-path="url(#pd15d9ceb71)" style="fill: none; stroke: #b0b0b0; stroke-linecap: square"/>
     </g>
     <g id="line2d_8">
      <g>
       <use xlink:href="#m434f2878cd" x="346.699778" y="98.4" style="stroke: #000000"/>
      </g>
     </g>
    </g>
    <g id="xtick_5">
     <g id="line2d_9">
      <path d="M 419.923725 98.4 
L 419.923725 28.8 
" clip-path="url(#pd15d9ceb71)" style="fill: none; stroke: #b0b0b0; stroke-linecap: square"/>
     </g>
     <g id="line2d_10">
      <g>
       <use xlink:href="#m434f2878cd" x="419.923725" y="98.4" style="stroke: #000000"/>
      </g>
     </g>
    </g>
    <g id="xtick_6">
     <g id="line2d_11">
      <path d="M 493.147672 98.4 
L 493.147672 28.8 
" clip-path="url(#pd15d9ceb71)" style="fill: none; stroke: #b0b0b0; stroke-linecap: square"/>
     </g>
     <g id="line2d_12">
      <g>
       <use xlink:href="#m434f2878cd" x="493.147672" y="98.4" style="stroke: #000000"/>
      </g>
     </g>
    </g>
    <g id="xtick_7">
     <g id="line2d_13">
      <defs>
       <path id="m550522614d" d="M 0 0 
L 0 2 
" style="stroke: #000000; stroke-width: 0.6"/>
      </defs>
      <g>
       <use xlink:href="#m550522614d" x="156.317517" y="98.4" style="stroke: #000000; stroke-width: 0.6"/>
      </g>
     </g>
    </g>
    <g id="xtick_8">
     <g id="line2d_14">
      <g>
       <use xlink:href="#m550522614d" x="244.186253" y="98.4" style="stroke: #000000; stroke-width: 0.6"/>
      </g>
     </g>
    </g>
    <g id="xtick_9">
     <g id="line2d_15">
      <g>
       <use xlink:href="#m550522614d" x="332.054989" y="98.4" style="stroke: #000000; stroke-width: 0.6"/>
      </g>
     </g>
    </g>
    <g id="xtick_10">
     <g id="line2d_16">
      <g>
       <use xlink:href="#m550522614d" x="507.792461" y="98.4" style="stroke: #000000; stroke-width: 0.6"/>
      </g>
     </g>
    </g>
   </g>
   <g id="matplotlib.axis_2">
    <g id="ytick_1">
     <g id="line2d_17">
      <path d="M 69.12 98.4 
L 564.48 98.4 
" clip-path="url(#pd15d9ceb71)" style="fill: none; stroke: #b0b0b0; stroke-linecap: square"/>
     </g>
     <g id="line2d_18">
      <defs>
       <path id="mc2667332ba" d="M 0 0 
L -3.5 0 
" style="stroke: #000000"/>
      </defs>
      <g>
       <use xlink:href="#mc2667332ba" x="69.12" y="98.4" style="stroke: #000000"/>
      </g>
     </g>
     <g id="text_1">
      <text style="font: 12px 'Source Code Pro'; text-anchor: end" x="62.12" y="102.672188" transform="rotate(-0, 62.12, 102.672188)">0.00</text>
     </g>
    </g>
    <g id="ytick_2">
     <g id="line2d_19">
      <path d="M 69.12 63.6 
L 564.48 63.6 
" clip-path="url(#pd15d9ceb71)" style="fill: none; stroke: #b0b0b0; stroke-linecap: square"/>
     </g>
     <g id="line2d_20">
      <g>
       <use xlink:href="#mc2667332ba" x="69.12" y="63.6" style="stroke: #000000"/>
      </g>
     </g>
     <g id="text_2">
      <text style="font: 12px 'Source Code Pro'; text-anchor: end" x="62.12" y="67.872188" transform="rotate(-0, 62.12, 67.872188)">0.25</text>
     </g>
    </g>
    <g id="ytick_3">
     <g id="line2d_21">
      <path d="M 69.12 28.8 
L 564.48 28.8 
" clip-path="url(#pd15d9ceb71)" style="fill: none; stroke: #b0b0b0; stroke-linecap: square"/>
     </g>
     <g id="line2d_22">
      <g>
       <use xlink:href="#mc2667332ba" x="69.12" y="28.8" style="stroke: #000000"/>
      </g>
     </g>
     <g id="text_3">
      <text style="font: 12px 'Source Code Pro'; text-anchor: end" x="62.12" y="33.072188" transform="rotate(-0, 62.12, 33.072188)">0.50</text>
     </g>
    </g>
   </g>
   <g id="line2d_23">
    <path d="M 91.636364 94.224 
L 94.687361 94.224 
L 94.890761 95.616 
L 103.026755 95.616 
L 103.230155 97.008 
L 103.433555 97.008 
L 103.636955 95.616 
L 105.264154 95.616 
L 105.467554 97.008 
L 107.094752 97.008 
L 107.298152 98.4 
L 108.111752 98.4 
L 108.315152 97.008 
L 108.925351 97.008 
L 109.088071 97.704 
L 109.128751 98.4 
L 112.179749 98.4 
L 112.383149 97.008 
L 112.993348 97.008 
L 113.196748 98.4 
L 116.044346 98.4 
L 116.247746 97.008 
L 116.451146 97.008 
L 116.654545 98.4 
L 117.671545 98.4 
L 117.874945 97.008 
L 118.078344 97.008 
L 118.281744 98.4 
L 119.908943 98.4 
L 120.112343 97.008 
L 120.315743 97.008 
L 120.519143 98.4 
L 225.473466 98.4 
L 225.676866 97.008 
L 227.710865 97.008 
L 227.751545 96.312 
L 227.914265 95.616 
L 231.575462 95.616 
L 231.778862 94.224 
L 234.62646 94.224 
L 234.931559 95.616 
L 247.033851 95.616 
L 247.237251 97.008 
L 264.729638 97.008 
L 264.933038 98.4 
L 300.731412 98.4 
L 300.934812 97.008 
L 326.969993 97.008 
L 327.173392 95.616 
L 335.716186 95.616 
L 335.919586 94.224 
L 340.597783 94.224 
L 340.801183 92.832 
L 342.224982 92.832 
L 342.428381 91.44 
L 343.241981 91.44 
L 343.445381 90.048 
L 344.66578 90.048 
L 344.86918 91.44 
L 345.275979 91.44 
L 345.479379 92.832 
L 345.764139 91.44 
L 345.886179 91.44 
L 346.089579 90.048 
L 346.292979 90.048 
L 346.496378 88.656 
L 346.903178 88.656 
L 347.147258 87.264 
L 347.513378 87.264 
L 347.716778 88.656 
L 348.326977 88.656 
L 348.530377 90.048 
L 348.937177 90.048 
L 349.160916 91.44 
L 350.971175 91.44 
L 351.174575 90.048 
L 351.377975 90.048 
L 351.581375 88.656 
L 352.598374 88.656 
L 352.822114 90.048 
L 355.852772 90.048 
L 356.056171 88.656 
L 359.107169 88.656 
L 359.330909 90.048 
L 359.920769 90.048 
L 360.124169 88.656 
L 361.954767 88.656 
L 362.158167 90.048 
L 362.361567 90.048 
L 362.564967 88.656 
L 362.971766 88.656 
L 363.175166 90.048 
L 365.615965 90.048 
L 365.819364 88.656 
L 366.429564 88.656 
L 366.632964 90.048 
L 367.039763 90.048 
L 367.243163 88.656 
L 370.294161 88.656 
L 370.558581 90.048 
L 370.904361 90.048 
L 371.107761 88.656 
L 371.31116 88.656 
L 371.51456 90.048 
L 371.71796 90.048 
L 371.92136 88.656 
L 373.548559 88.656 
L 373.751959 90.048 
L 375.379157 90.048 
L 375.582557 88.656 
L 375.989357 88.656 
L 376.192757 90.048 
L 379.650554 90.048 
L 379.853954 88.656 
L 381.277753 88.656 
L 381.481153 90.048 
L 384.532151 90.048 
L 384.735551 88.656 
L 386.972949 88.656 
L 387.176349 90.048 
L 387.379749 90.048 
L 387.583149 88.656 
L 387.786548 88.656 
L 387.989948 90.048 
L 388.396748 90.048 
L 388.600148 88.656 
L 390.023947 88.656 
L 390.227347 90.048 
L 406.499335 90.048 
L 407.312934 95.616 
L 408.736733 95.616 
L 408.960473 97.008 
L 410.160532 97.008 
L 410.363932 98.4 
L 500.266667 98.4 
L 500.490407 97.008 
L 506.165262 97.008 
L 506.368662 95.616 
L 507.995861 95.616 
L 508.199261 94.224 
L 510.02986 94.224 
L 510.233259 95.616 
L 515.725055 95.616 
L 515.928455 97.008 
L 516.742055 97.008 
L 516.945455 95.616 
L 526.708647 95.616 
L 526.912047 97.008 
L 527.318847 97.008 
L 527.522247 95.616 
L 541.190717 95.616 
L 541.190717 95.616 
" clip-path="url(#pd15d9ceb71)" style="fill: none; stroke-dasharray: 11.1,4.8; stroke-dashoffset: 0; stroke: #c3312f; stroke-width: 3"/>
   </g>
   <g id="line2d_24">
    <path d="M 91.636364 98.56704 
L 218.862971 98.475168 
L 218.964671 98.436192 
L 221.324109 98.16336 
L 225.676866 97.539744 
L 229.155004 96.760224 
L 230.660163 96.552352 
L 234.4434 96.40944 
L 248.27459 96.590946 
L 268.187435 97.08891 
L 275.97765 97.280213 
L 276.933629 98.245333 
L 277.137029 98.406187 
L 277.157369 98.56704 
L 277.177709 98.489252 
L 280.188027 97.16808 
L 283.239024 97.084797 
L 312.528603 96.919731 
L 313.342203 96.897377 
L 327.661552 96.562069 
L 332.258389 96.523256 
L 333.905928 96.67392 
L 336.326386 97.11936 
L 339.173984 97.497189 
L 344.86918 97.960255 
L 349.343976 98.055977 
L 350.564375 98.563328 
L 354.225573 98.343422 
L 372.53156 98.537653 
L 404.261936 98.47056 
L 405.482336 98.25552 
L 410.160532 97.722349 
L 422.384863 97.73184 
L 423.625602 98.58096 
L 424.825661 98.51136 
L 426.046061 98.07984 
L 426.45286 98.23296 
L 432.473496 98.47656 
L 465.627672 98.47424 
L 469.390569 98.29647 
L 481.35048 98.229712 
L 484.665898 98.157792 
L 491.845913 97.9708 
L 495.60881 97.89888 
L 495.81221 98.1216 
L 496.890229 98.4928 
L 498.049608 98.34432 
L 499.249667 97.5648 
L 499.270007 97.45344 
L 501.080266 97.1472 
L 503.521064 97.24928 
L 513.080857 98.102808 
L 518.776053 98.324987 
L 530.573245 98.4696 
L 541.190717 98.4696 
L 541.190717 98.4696 
" clip-path="url(#pd15d9ceb71)" style="fill: none; stroke: #c3312f; stroke-width: 3; stroke-linecap: square"/>
   </g>
   <g id="patch_3">
    <path d="M 69.12 98.4 
L 69.12 28.8 
" style="fill: none; stroke: #000000; stroke-linejoin: miter; stroke-linecap: square"/>
   </g>
   <g id="patch_4">
    <path d="M 564.48 98.4 
L 564.48 28.8 
" style="fill: none; stroke: #000000; stroke-linejoin: miter; stroke-linecap: square"/>
   </g>
   <g id="patch_5">
    <path d="M 69.12 98.4 
L 564.48 98.4 
" style="fill: none; stroke: #000000; stroke-linejoin: miter; stroke-linecap: square"/>
   </g>
   <g id="patch_6">
    <path d="M 69.12 28.8 
L 564.48 28.8 
" style="fill: none; stroke: #000000; stroke-linejoin: miter; stroke-linecap: square"/>
   </g>
   <g id="patch_7">
    <path d="M 358.903769 26.486184 
Q 358.903769 56.571229 358.903769 85.538241 
" style="fill: none; stroke: #000000; stroke-linecap: round"/>
    <path d="M 361.303769 80.738241 
L 358.903769 85.538241 
L 356.503769 80.738241 
" style="fill: none; stroke: #000000; stroke-linecap: round"/>
   </g>
   <g id="text_4">
    <g id="patch_8">
     <path d="M 355.303769 23.982187 
L 362.503769 23.982187 
Q 366.103769 23.982187 366.103769 20.382187 
L 366.103769 9.377812 
Q 366.103769 5.777812 362.503769 5.777812 
L 355.303769 5.777812 
Q 351.703769 5.777812 351.703769 9.377812 
L 351.703769 20.382187 
Q 351.703769 23.982187 355.303769 23.982187 
z
" style="fill: #cccccc; stroke: #000000; stroke-linejoin: miter"/>
    </g>
    <text style="font: 12px 'Source Code Pro'; text-anchor: middle" x="358.903769" y="17.922188" transform="rotate(-0, 358.903769, 17.922188)">1</text>
   </g>
  </g>
  <g id="axes_2">
   <g id="patch_9">
    <path d="M 69.12 237.6 
L 564.48 237.6 
L 564.48 98.4 
L 69.12 98.4 
z
" style="fill: #ffffff"/>
   </g>
   <g id="PolyCollection_4">
    <path d="M 102.619956 237.6 
L 102.619956 237.6 
L 108.364557 237.6 
L 108.49813 237.6 
L 109.002643 237.6 
L 109.015661 237.6 
L 109.220647 237.6 
L 109.538907 98.4 
L 127.025619 98.4 
L 127.027938 98.4 
L 148.80055 98.4 
L 149.822268 98.4 
L 162.05626 98.4 
L 162.277417 98.4 
L 180.968867 98.4 
L 181.506697 98.4 
L 181.722138 98.4 
L 182.021359 98.4 
L 182.155257 237.6 
L 182.477951 237.6 
L 182.49764 237.6 
L 182.503987 237.6 
L 182.694674 237.6 
L 185.256902 237.6 
L 185.36448 237.6 
L 200.231545 237.6 
L 200.251885 237.6 
L 208.675547 237.6 
L 209.002696 237.6 
L 273.475323 237.6 
L 273.475831 237.6 
L 320.898487 237.6 
L 321.348733 237.6 
L 321.628285 237.6 
L 321.845008 237.6 
L 346.679438 237.6 
L 346.699778 237.6 
L 357.939329 237.6 
L 358.696729 237.6 
L 395.310797 237.6 
L 396.222395 237.6 
L 408.45354 237.6 
L 408.462428 237.6 
L 408.661048 237.6 
L 408.878096 237.6 
L 419.921996 237.6 
L 419.923725 237.6 
L 445.617479 237.6 
L 445.721884 237.6 
L 455.458045 237.6 
L 456.422974 237.6 
L 456.56989 237.6 
L 456.839273 237.6 
L 456.845944 237.6 
L 457.035371 237.6 
L 492.254563 237.6 
L 492.54331 237.6 
L 492.613117 237.6 
L 492.833012 237.6 
L 493.146451 237.6 
L 493.147672 237.6 
L 498.732015 237.6 
L 498.835139 237.6 
L 538.129142 237.6 
L 538.991578 237.6 
L 541.702003 237.6 
L 541.963636 237.6 
L 541.963636 237.6 
L 541.963636 237.6 
L 541.702003 237.6 
L 538.991578 237.6 
L 538.129142 237.6 
L 498.835139 237.6 
L 498.732015 237.6 
L 493.147672 237.6 
L 493.146451 237.6 
L 492.833012 237.6 
L 492.613117 237.6 
L 492.54331 237.6 
L 492.254563 237.6 
L 457.035371 237.6 
L 456.845944 237.6 
L 456.839273 237.6 
L 456.56989 237.6 
L 456.422974 237.6 
L 455.458045 237.6 
L 445.721884 237.6 
L 445.617479 237.6 
L 419.923725 237.6 
L 419.921996 237.6 
L 408.878096 237.6 
L 408.661048 237.6 
L 408.462428 237.6 
L 408.45354 237.6 
L 396.222395 237.6 
L 395.310797 237.6 
L 358.696729 237.6 
L 357.939329 237.6 
L 346.699778 237.6 
L 346.679438 237.6 
L 321.845008 237.6 
L 321.628285 237.6 
L 321.348733 237.6 
L 320.898487 237.6 
L 273.475831 237.6 
L 273.475323 237.6 
L 209.002696 237.6 
L 208.675547 237.6 
L 200.251885 237.6 
L 200.231545 237.6 
L 185.36448 237.6 
L 185.256902 237.6 
L 182.694674 237.6 
L 182.503987 237.6 
L 182.49764 237.6 
L 182.477951 237.6 
L 182.155257 237.6 
L 182.021359 237.6 
L 181.722138 237.6 
L 181.506697 237.6 
L 180.968867 237.6 
L 162.277417 237.6 
L 162.05626 237.6 
L 149.822268 237.6 
L 148.80055 237.6 
L 127.027938 237.6 
L 127.025619 237.6 
L 109.538907 237.6 
L 109.220647 237.6 
L 109.015661 237.6 
L 109.002643 237.6 
L 108.49813 237.6 
L 108.364557 237.6 
L 102.619956 237.6 
z
" clip-path="url(#p35246cf2b8)" style="fill: url(#hc141c66d4b)"/>
   </g>
   <g id="PolyCollection_5">
    <defs>
     <path id="m5c966f4297" d="M 102.619956 -50.4 
L 102.619956 -50.4 
L 108.364557 -50.4 
L 108.49813 -50.4 
L 109.002643 -50.4 
L 109.015661 -50.4 
L 109.220647 -50.4 
L 109.538907 -50.4 
L 127.025619 -50.4 
L 127.027938 -50.4 
L 148.80055 -50.4 
L 149.822268 -50.4 
L 162.05626 -50.4 
L 162.277417 -50.4 
L 180.968867 -50.4 
L 181.506697 -50.4 
L 181.722138 -50.4 
L 182.021359 -50.4 
L 182.155257 -50.4 
L 182.477951 -50.4 
L 182.49764 -50.4 
L 182.503987 -50.4 
L 182.694674 -50.4 
L 185.256902 -50.4 
L 185.36448 -50.4 
L 200.231545 -50.4 
L 200.251885 -50.4 
L 208.675547 -50.4 
L 209.002696 -50.4 
L 273.475323 -50.4 
L 273.475831 -50.4 
L 320.898487 -50.4 
L 321.348733 -50.4 
L 321.628285 -50.4 
L 321.845008 -50.4 
L 346.679438 -50.4 
L 346.699778 -50.4 
L 357.939329 -50.4 
L 358.696729 -50.4 
L 395.310797 -50.4 
L 396.222395 -50.4 
L 408.45354 -50.4 
L 408.462428 -50.4 
L 408.661048 -50.4 
L 408.878096 -50.4 
L 419.921996 -50.4 
L 419.923725 -50.4 
L 445.617479 -50.4 
L 445.721884 -50.4 
L 455.458045 -50.4 
L 456.422974 -50.4 
L 456.56989 -50.4 
L 456.839273 -50.4 
L 456.845944 -50.4 
L 457.035371 -50.4 
L 492.254563 -50.4 
L 492.54331 -50.4 
L 492.613117 -50.4 
L 492.833012 -189.6 
L 493.146451 -189.6 
L 493.147672 -189.6 
L 498.732015 -189.6 
L 498.835139 -189.6 
L 538.129142 -189.6 
L 538.991578 -50.4 
L 541.702003 -50.4 
L 541.963636 -50.4 
L 541.963636 -50.4 
L 541.963636 -50.4 
L 541.702003 -50.4 
L 538.991578 -50.4 
L 538.129142 -50.4 
L 498.835139 -50.4 
L 498.732015 -50.4 
L 493.147672 -50.4 
L 493.146451 -50.4 
L 492.833012 -50.4 
L 492.613117 -50.4 
L 492.54331 -50.4 
L 492.254563 -50.4 
L 457.035371 -50.4 
L 456.845944 -50.4 
L 456.839273 -50.4 
L 456.56989 -50.4 
L 456.422974 -50.4 
L 455.458045 -50.4 
L 445.721884 -50.4 
L 445.617479 -50.4 
L 419.923725 -50.4 
L 419.921996 -50.4 
L 408.878096 -50.4 
L 408.661048 -50.4 
L 408.462428 -50.4 
L 408.45354 -50.4 
L 396.222395 -50.4 
L 395.310797 -50.4 
L 358.696729 -50.4 
L 357.939329 -50.4 
L 346.699778 -50.4 
L 346.679438 -50.4 
L 321.845008 -50.4 
L 321.628285 -50.4 
L 321.348733 -50.4 
L 320.898487 -50.4 
L 273.475831 -50.4 
L 273.475323 -50.4 
L 209.002696 -50.4 
L 208.675547 -50.4 
L 200.251885 -50.4 
L 200.231545 -50.4 
L 185.36448 -50.4 
L 185.256902 -50.4 
L 182.694674 -50.4 
L 182.503987 -50.4 
L 182.49764 -50.4 
L 182.477951 -50.4 
L 182.155257 -50.4 
L 182.021359 -50.4 
L 181.722138 -50.4 
L 181.506697 -50.4 
L 180.968867 -50.4 
L 162.277417 -50.4 
L 162.05626 -50.4 
L 149.822268 -50.4 
L 148.80055 -50.4 
L 127.027938 -50.4 
L 127.025619 -50.4 
L 109.538907 -50.4 
L 109.220647 -50.4 
L 109.015661 -50.4 
L 109.002643 -50.4 
L 108.49813 -50.4 
L 108.364557 -50.4 
L 102.619956 -50.4 
z
"/>
    </defs>
    <g clip-path="url(#p35246cf2b8)">
     <use xlink:href="#m5c966f4297" x="0" y="288" style="fill: #dddddd"/>
    </g>
   </g>
   <g id="PolyCollection_6">
    <path d="M 102.619956 237.6 
L 102.619956 237.6 
L 108.364557 237.6 
L 108.49813 237.6 
L 109.002643 237.6 
L 109.015661 237.6 
L 109.220647 237.6 
L 109.538907 237.6 
L 127.025619 237.6 
L 127.027938 237.6 
L 148.80055 237.6 
L 149.822268 237.6 
L 162.05626 237.6 
L 162.277417 237.6 
L 180.968867 237.6 
L 181.506697 237.6 
L 181.722138 237.6 
L 182.021359 237.6 
L 182.155257 237.6 
L 182.477951 237.6 
L 182.49764 237.6 
L 182.503987 98.4 
L 182.694674 98.4 
L 185.256902 98.4 
L 185.36448 98.4 
L 200.231545 98.4 
L 200.251885 98.4 
L 208.675547 98.4 
L 209.002696 98.4 
L 273.475323 98.4 
L 273.475831 98.4 
L 320.898487 98.4 
L 321.348733 98.4 
L 321.628285 98.4 
L 321.845008 98.4 
L 346.679438 98.4 
L 346.699778 98.4 
L 357.939329 98.4 
L 358.696729 98.4 
L 395.310797 98.4 
L 396.222395 98.4 
L 408.45354 98.4 
L 408.462428 98.4 
L 408.661048 98.4 
L 408.878096 98.4 
L 419.921996 98.4 
L 419.923725 98.4 
L 445.617479 98.4 
L 445.721884 98.4 
L 455.458045 98.4 
L 456.422974 98.4 
L 456.56989 237.6 
L 456.839273 237.6 
L 456.845944 237.6 
L 457.035371 98.4 
L 492.254563 98.4 
L 492.54331 98.4 
L 492.613117 237.6 
L 492.833012 237.6 
L 493.146451 237.6 
L 493.147672 237.6 
L 498.732015 237.6 
L 498.835139 237.6 
L 538.129142 237.6 
L 538.991578 237.6 
L 541.702003 237.6 
L 541.963636 237.6 
L 541.963636 237.6 
L 541.963636 237.6 
L 541.702003 237.6 
L 538.991578 237.6 
L 538.129142 237.6 
L 498.835139 237.6 
L 498.732015 237.6 
L 493.147672 237.6 
L 493.146451 237.6 
L 492.833012 237.6 
L 492.613117 237.6 
L 492.54331 237.6 
L 492.254563 237.6 
L 457.035371 237.6 
L 456.845944 237.6 
L 456.839273 237.6 
L 456.56989 237.6 
L 456.422974 237.6 
L 455.458045 237.6 
L 445.721884 237.6 
L 445.617479 237.6 
L 419.923725 237.6 
L 419.921996 237.6 
L 408.878096 237.6 
L 408.661048 237.6 
L 408.462428 237.6 
L 408.45354 237.6 
L 396.222395 237.6 
L 395.310797 237.6 
L 358.696729 237.6 
L 357.939329 237.6 
L 346.699778 237.6 
L 346.679438 237.6 
L 321.845008 237.6 
L 321.628285 237.6 
L 321.348733 237.6 
L 320.898487 237.6 
L 273.475831 237.6 
L 273.475323 237.6 
L 209.002696 237.6 
L 208.675547 237.6 
L 200.251885 237.6 
L 200.231545 237.6 
L 185.36448 237.6 
L 185.256902 237.6 
L 182.694674 237.6 
L 182.503987 237.6 
L 182.49764 237.6 
L 182.477951 237.6 
L 182.155257 237.6 
L 182.021359 237.6 
L 181.722138 237.6 
L 181.506697 237.6 
L 180.968867 237.6 
L 162.277417 237.6 
L 162.05626 237.6 
L 149.822268 237.6 
L 148.80055 237.6 
L 127.027938 237.6 
L 127.025619 237.6 
L 109.538907 237.6 
L 109.220647 237.6 
L 109.015661 237.6 
L 109.002643 237.6 
L 108.49813 237.6 
L 108.364557 237.6 
L 102.619956 237.6 
z
" clip-path="url(#p35246cf2b8)" style="fill: url(#h109a70856c)"/>
   </g>
   <g id="matplotlib.axis_3">
    <g id="xtick_11">
     <g id="line2d_25">
      <path d="M 127.027938 237.6 
L 127.027938 98.4 
" clip-path="url(#p35246cf2b8)" style="fill: none; stroke: #b0b0b0; stroke-linecap: square"/>
     </g>
     <g id="line2d_26">
      <g>
       <use xlink:href="#m434f2878cd" x="127.027938" y="237.6" style="stroke: #000000"/>
      </g>
     </g>
     <g id="line2d_27">
      <defs>
       <path id="m350c11215b" d="M 0 0 
L 0 -3.5 
" style="stroke: #000000"/>
      </defs>
      <g>
       <use xlink:href="#m350c11215b" x="127.027938" y="98.4" style="stroke: #000000"/>
      </g>
     </g>
     <g id="text_5">
      <text style="font: 12px 'Source Code Pro'; text-anchor: middle" x="127.027938" y="253.144375" transform="rotate(-0, 127.027938, 253.144375)">08:00</text>
     </g>
    </g>
    <g id="xtick_12">
     <g id="line2d_28">
      <path d="M 200.251885 237.6 
L 200.251885 98.4 
" clip-path="url(#p35246cf2b8)" style="fill: none; stroke: #b0b0b0; stroke-linecap: square"/>
     </g>
     <g id="line2d_29">
      <g>
       <use xlink:href="#m434f2878cd" x="200.251885" y="237.6" style="stroke: #000000"/>
      </g>
     </g>
     <g id="line2d_30">
      <g>
       <use xlink:href="#m350c11215b" x="200.251885" y="98.4" style="stroke: #000000"/>
      </g>
     </g>
     <g id="text_6">
      <text style="font: 12px 'Source Code Pro'; text-anchor: middle" x="200.251885" y="253.144375" transform="rotate(-0, 200.251885, 253.144375)">09:00</text>
     </g>
    </g>
    <g id="xtick_13">
     <g id="line2d_31">
      <path d="M 273.475831 237.6 
L 273.475831 98.4 
" clip-path="url(#p35246cf2b8)" style="fill: none; stroke: #b0b0b0; stroke-linecap: square"/>
     </g>
     <g id="line2d_32">
      <g>
       <use xlink:href="#m434f2878cd" x="273.475831" y="237.6" style="stroke: #000000"/>
      </g>
     </g>
     <g id="line2d_33">
      <g>
       <use xlink:href="#m350c11215b" x="273.475831" y="98.4" style="stroke: #000000"/>
      </g>
     </g>
     <g id="text_7">
      <text style="font: 12px 'Source Code Pro'; text-anchor: middle" x="273.475831" y="253.144375" transform="rotate(-0, 273.475831, 253.144375)">10:00</text>
     </g>
    </g>
    <g id="xtick_14">
     <g id="line2d_34">
      <path d="M 346.699778 237.6 
L 346.699778 98.4 
" clip-path="url(#p35246cf2b8)" style="fill: none; stroke: #b0b0b0; stroke-linecap: square"/>
     </g>
     <g id="line2d_35">
      <g>
       <use xlink:href="#m434f2878cd" x="346.699778" y="237.6" style="stroke: #000000"/>
      </g>
     </g>
     <g id="line2d_36">
      <g>
       <use xlink:href="#m350c11215b" x="346.699778" y="98.4" style="stroke: #000000"/>
      </g>
     </g>
     <g id="text_8">
      <text style="font: 12px 'Source Code Pro'; text-anchor: middle" x="346.699778" y="253.144375" transform="rotate(-0, 346.699778, 253.144375)">11:00</text>
     </g>
    </g>
    <g id="xtick_15">
     <g id="line2d_37">
      <path d="M 419.923725 237.6 
L 419.923725 98.4 
" clip-path="url(#p35246cf2b8)" style="fill: none; stroke: #b0b0b0; stroke-linecap: square"/>
     </g>
     <g id="line2d_38">
      <g>
       <use xlink:href="#m434f2878cd" x="419.923725" y="237.6" style="stroke: #000000"/>
      </g>
     </g>
     <g id="line2d_39">
      <g>
       <use xlink:href="#m350c11215b" x="419.923725" y="98.4" style="stroke: #000000"/>
      </g>
     </g>
     <g id="text_9">
      <text style="font: 12px 'Source Code Pro'; text-anchor: middle" x="419.923725" y="253.144375" transform="rotate(-0, 419.923725, 253.144375)">12:00</text>
     </g>
    </g>
    <g id="xtick_16">
     <g id="line2d_40">
      <path d="M 493.147672 237.6 
L 493.147672 98.4 
" clip-path="url(#p35246cf2b8)" style="fill: none; stroke: #b0b0b0; stroke-linecap: square"/>
     </g>
     <g id="line2d_41">
      <g>
       <use xlink:href="#m434f2878cd" x="493.147672" y="237.6" style="stroke: #000000"/>
      </g>
     </g>
     <g id="line2d_42">
      <g>
       <use xlink:href="#m350c11215b" x="493.147672" y="98.4" style="stroke: #000000"/>
      </g>
     </g>
     <g id="text_10">
      <text style="font: 12px 'Source Code Pro'; text-anchor: middle" x="493.147672" y="253.144375" transform="rotate(-0, 493.147672, 253.144375)">13:00</text>
     </g>
    </g>
    <g id="xtick_17">
     <g id="line2d_43">
      <g>
       <use xlink:href="#m550522614d" x="156.317517" y="237.6" style="stroke: #000000; stroke-width: 0.6"/>
      </g>
     </g>
    </g>
    <g id="xtick_18">
     <g id="line2d_44">
      <g>
       <use xlink:href="#m550522614d" x="244.186253" y="237.6" style="stroke: #000000; stroke-width: 0.6"/>
      </g>
     </g>
    </g>
    <g id="xtick_19">
     <g id="line2d_45">
      <g>
       <use xlink:href="#m550522614d" x="332.054989" y="237.6" style="stroke: #000000; stroke-width: 0.6"/>
      </g>
     </g>
    </g>
    <g id="xtick_20">
     <g id="line2d_46">
      <g>
       <use xlink:href="#m550522614d" x="507.792461" y="237.6" style="stroke: #000000; stroke-width: 0.6"/>
      </g>
     </g>
    </g>
   </g>
   <g id="matplotlib.axis_4">
    <g id="ytick_4">
     <g id="line2d_47">
      <path d="M 69.12 237.6 
L 564.48 237.6 
" clip-path="url(#p35246cf2b8)" style="fill: none; stroke: #b0b0b0; stroke-linecap: square"/>
     </g>
     <g id="line2d_48">
      <g>
       <use xlink:href="#mc2667332ba" x="69.12" y="237.6" style="stroke: #000000"/>
      </g>
     </g>
     <g id="text_11">
      <text style="font: 12px 'Source Code Pro'; text-anchor: end" x="62.12" y="241.872188" transform="rotate(-0, 62.12, 241.872188)">0</text>
     </g>
    </g>
    <g id="ytick_5">
     <g id="line2d_49">
      <path d="M 69.12 208.6 
L 564.48 208.6 
" clip-path="url(#p35246cf2b8)" style="fill: none; stroke: #b0b0b0; stroke-linecap: square"/>
     </g>
     <g id="line2d_50">
      <g>
       <use xlink:href="#mc2667332ba" x="69.12" y="208.6" style="stroke: #000000"/>
      </g>
     </g>
     <g id="text_12">
      <text style="font: 12px 'Source Code Pro'; text-anchor: end" x="62.12" y="212.872188" transform="rotate(-0, 62.12, 212.872188)">5</text>
     </g>
    </g>
    <g id="ytick_6">
     <g id="line2d_51">
      <path d="M 69.12 179.6 
L 564.48 179.6 
" clip-path="url(#p35246cf2b8)" style="fill: none; stroke: #b0b0b0; stroke-linecap: square"/>
     </g>
     <g id="line2d_52">
      <g>
       <use xlink:href="#mc2667332ba" x="69.12" y="179.6" style="stroke: #000000"/>
      </g>
     </g>
     <g id="text_13">
      <text style="font: 12px 'Source Code Pro'; text-anchor: end" x="62.12" y="183.872188" transform="rotate(-0, 62.12, 183.872188)">10</text>
     </g>
    </g>
    <g id="ytick_7">
     <g id="line2d_53">
      <path d="M 69.12 150.6 
L 564.48 150.6 
" clip-path="url(#p35246cf2b8)" style="fill: none; stroke: #b0b0b0; stroke-linecap: square"/>
     </g>
     <g id="line2d_54">
      <g>
       <use xlink:href="#mc2667332ba" x="69.12" y="150.6" style="stroke: #000000"/>
      </g>
     </g>
     <g id="text_14">
      <text style="font: 12px 'Source Code Pro'; text-anchor: end" x="62.12" y="154.872188" transform="rotate(-0, 62.12, 154.872188)">15</text>
     </g>
    </g>
    <g id="ytick_8">
     <g id="line2d_55">
      <path d="M 69.12 121.6 
L 564.48 121.6 
" clip-path="url(#p35246cf2b8)" style="fill: none; stroke: #b0b0b0; stroke-linecap: square"/>
     </g>
     <g id="line2d_56">
      <g>
       <use xlink:href="#mc2667332ba" x="69.12" y="121.6" style="stroke: #000000"/>
      </g>
     </g>
     <g id="text_15">
      <text style="font: 12px 'Source Code Pro'; text-anchor: end" x="62.12" y="125.872188" transform="rotate(-0, 62.12, 125.872188)">20</text>
     </g>
    </g>
    <g id="text_16">
     <!-- conc. (mg $L^{-1}\ /\ ppm\ x\ 1000$) -->
     <g transform="translate(26.56 225.84)rotate(-90)">
      <text>
       <tspan style="font: 12px 'Source Code Pro'" x="0 7.199997 14.399994 21.599991 28.799988 35.999985 43.199982 50.399979 57.599976 64.799973 71.999969 92.073336 101.673308 108.873304 116.073301 125.673273 135.273245 142.473242 149.673239 156.873236 164.073233" y="-0.5609375000000014">conc. (mg L/ppmx1000)</tspan>
       <tspan style="font: 8.4px 'Source Code Pro'" x="79.301959 84.341956" y="-4.640625000000001">−1</tspan>
      </text>
     </g>
    </g>
   </g>
   <g id="line2d_57">
    <path d="M 91.636364 236.74323 
L 170.209727 236.748044 
L 175.579483 236.608884 
L 176.332062 236.370841 
L 182.576438 236.271957 
L 199.316245 236.406535 
L 201.492624 236.489193 
L 210.055758 236.431665 
L 210.706637 235.53049 
L 211.032077 235.341915 
L 212.862676 234.703248 
L 213.066075 234.424117 
L 213.940695 234.158199 
L 214.469534 234.260661 
L 216.401833 233.971891 
L 218.862971 232.618357 
L 218.964671 232.381934 
L 219.493511 232.145512 
L 221.222409 230.233571 
L 221.324109 230.010375 
L 223.683548 227.445462 
L 224.212387 227.20245 
L 225.270067 226.267817 
L 227.507465 225.023821 
L 227.751545 224.824926 
L 228.727864 224.100316 
L 229.155004 223.945495 
L 229.948263 223.249783 
L 233.202661 222.162855 
L 235.846859 221.767639 
L 236.660458 221.523266 
L 238.084257 221.294968 
L 238.958877 221.347692 
L 242.152254 221.481624 
L 243.169254 221.273691 
L 244.999852 221.267966 
L 245.813452 221.187032 
L 246.708411 221.139623 
L 247.35929 220.702767 
L 247.64405 220.816266 
L 248.864449 221.270261 
L 249.271249 221.402578 
L 250.898448 221.649777 
L 251.508647 221.464697 
L 252.932446 221.087224 
L 253.542646 220.897868 
L 253.562986 220.816859 
L 254.152846 220.907512 
L 254.966445 220.836496 
L 255.495285 221.007461 
L 255.719024 221.149367 
L 255.983444 221.044538 
L 256.797044 220.910305 
L 259.237842 220.941225 
L 260.661641 220.931841 
L 261.29218 221.005962 
L 262.28884 220.849202 
L 262.492239 220.813554 
L 266.153437 221.174257 
L 266.214457 221.226275 
L 267.577236 220.95984 
L 268.390835 221.102089 
L 269.611234 221.500309 
L 271.340133 221.430937 
L 271.848633 221.282827 
L 273.272432 221.135271 
L 274.492831 220.895261 
L 275.34711 220.732643 
L 276.12003 220.563173 
L 276.323429 220.500244 
L 277.177709 220.688412 
L 278.357428 221.260444 
L 278.764228 221.485808 
L 278.967627 221.663645 
L 279.760887 222.10824 
L 279.781227 222.192952 
L 280.086327 222.447088 
L 281.001626 223.399091 
L 281.693186 223.862063 
L 282.018625 224.054917 
L 282.771205 224.129535 
L 282.832225 224.034474 
L 283.564464 223.592472 
L 283.849224 223.424551 
L 284.662823 223.247 
L 284.866223 223.132726 
L 285.679823 222.845922 
L 286.086622 222.609172 
L 287.307021 222.42695 
L 287.917221 222.427267 
L 288.93422 222.180236 
L 289.13762 222.080418 
L 289.46306 221.752869 
L 290.154619 221.802161 
L 291.375018 221.566975 
L 292.269978 221.266748 
L 293.246297 221.448815 
L 295.239616 221.276857 
L 295.646415 221.377517 
L 296.053215 221.578524 
L 297.680414 222.208557 
L 298.697413 222.974832 
L 299.307613 223.25062 
L 299.714412 223.554706 
L 299.917812 223.867907 
L 301.117871 224.406363 
L 301.748411 224.393142 
L 302.35861 224.324363 
L 303.37561 223.981611 
L 303.985809 223.675835 
L 304.596009 223.312886 
L 305.613008 222.794682 
L 305.755388 222.505059 
L 306.019808 222.385069 
L 307.036807 222.170311 
L 307.443607 222.169567 
L 309.681005 221.709375 
L 310.087805 221.588474 
L 310.921744 221.236616 
L 311.511604 221.477254 
L 311.999763 221.808363 
L 312.325203 222.079446 
L 312.548943 222.350529 
L 312.732003 222.760756 
L 313.749002 223.735582 
L 314.155802 224.221494 
L 315.396541 225.085791 
L 315.986401 225.197053 
L 317.0034 225.075101 
L 317.28816 224.957601 
L 318.020399 224.276882 
L 318.630599 224.081493 
L 319.647598 223.743734 
L 320.461197 223.474405 
L 322.088396 222.995607 
L 322.495196 223.032233 
L 323.105395 223.185826 
L 323.308795 223.652736 
L 323.552875 223.936708 
L 323.918995 224.728274 
L 324.203755 225.20689 
L 324.630894 226.186957 
L 324.935994 226.570395 
L 324.956334 226.738671 
L 325.139394 226.911339 
L 325.342794 227.193054 
L 326.156393 227.940949 
L 326.685233 228.373806 
L 326.969993 228.899576 
L 327.376792 229.357597 
L 327.864952 230.043654 
L 327.986992 230.114143 
L 328.312432 230.539799 
L 329.410791 231.827743 
L 330.02099 232.225439 
L 330.63119 232.596408 
L 331.851589 233.41558 
L 332.665188 234.088531 
L 333.051648 234.411109 
L 333.071988 234.52279 
L 333.885588 235.081192 
L 334.027967 235.270255 
L 334.088987 235.347637 
L 336.733186 236.281919 
L 338.767184 236.37899 
L 340.394383 236.319824 
L 343.85218 236.482991 
L 355.852772 236.375663 
L 373.548559 236.529523 
L 386.566149 236.444724 
L 396.471722 236.665115 
L 396.939542 236.605938 
L 397.183622 236.566486 
L 397.549741 235.787568 
L 398.566741 235.392831 
L 399.58374 235.161714 
L 400.885499 234.886347 
L 401.414339 234.897679 
L 402.329638 234.939998 
L 402.634738 234.791318 
L 403.244937 234.683581 
L 404.058537 234.84567 
L 404.078877 234.896007 
L 405.482336 235.19569 
L 409.753732 235.371779 
L 411.177531 236.132821 
L 413.00813 236.396575 
L 413.25221 236.551609 
L 415.489608 236.734889 
L 432.473496 236.723355 
L 454.66442 236.653927 
L 457.979837 236.433643 
L 458.305277 236.065407 
L 458.732417 235.709536 
L 459.057857 235.623998 
L 461.213895 235.52244 
L 461.437635 235.379006 
L 462.190214 235.150996 
L 463.878433 234.532267 
L 464.346253 234.433432 
L 465.627672 233.769315 
L 466.258211 233.831293 
L 467.132831 233.68286 
L 467.78371 233.801986 
L 469.166829 233.697743 
L 470.244848 233.391978 
L 470.692328 233.478955 
L 471.546608 233.297357 
L 472.848367 233.419151 
L 474.129786 233.271599 
L 474.678965 233.106908 
L 475.207805 232.697724 
L 475.858684 232.429833 
L 476.957044 232.333704 
L 477.160443 232.196853 
L 478.767302 232.435935 
L 478.889342 232.564495 
L 480.069061 232.734714 
L 480.496201 232.776372 
L 481.67592 232.618537 
L 482.855639 232.852665 
L 484.035358 232.781598 
L 484.360798 232.630113 
L 484.665898 232.731927 
L 486.252417 232.657107 
L 486.293097 232.587339 
L 487.452476 232.620398 
L 488.205055 232.585964 
L 489.283075 232.019832 
L 490.462794 231.949048 
L 491.093333 231.747988 
L 491.845913 231.61248 
L 492.171353 231.350239 
L 492.700192 231.102155 
L 493.351072 231.184249 
L 494.001951 232.008377 
L 494.307051 232.481488 
L 495.81221 234.420724 
L 496.34105 234.909635 
L 496.829209 235.09442 
L 496.890229 235.279205 
L 498.639468 235.983556 
L 500.266667 236.482508 
L 503.521064 236.736551 
L 518.776053 236.715329 
L 529.556245 236.749861 
L 534.987021 236.754992 
L 539.868618 236.373747 
L 541.190717 236.373747 
L 541.190717 236.373747 
" clip-path="url(#p35246cf2b8)" style="fill: none; stroke: #00a6d6; stroke-width: 3; stroke-linecap: square"/>
   </g>
   <g id="line2d_58">
    <path d="M 91.636364 224.146773 
L 161.585573 224.163476 
L 162.907672 224.319429 
L 194.597369 224.364758 
L 198.665366 224.369794 
L 199.316245 224.251212 
L 222.503829 224.201368 
L 222.707228 223.663382 
L 223.581848 223.125395 
L 223.683548 222.587408 
L 234.931559 222.587408 
L 235.236659 215.653246 
L 235.826519 205.252003 
L 235.948559 198.31784 
L 246.972831 198.31784 
L 247.033851 198.200547 
L 248.05085 197.496788 
L 248.09153 197.379495 
L 259.115802 197.379495 
L 259.441242 198.172433 
L 260.458241 200.154778 
L 271.340133 200.154778 
L 271.645233 201.009815 
L 272.540192 203.574926 
L 283.564464 203.574926 
L 283.645824 204.039471 
L 284.398404 205.897653 
L 284.459424 206.362198 
L 284.662823 206.826744 
L 284.723843 207.291289 
L 295.727775 207.291289 
L 296.053215 208.099039 
L 296.460015 208.906789 
L 296.480355 209.310664 
L 297.070214 210.522288 
L 309.152166 210.522288 
L 309.274205 213.809757 
L 320.217118 213.809757 
L 320.318817 214.583515 
L 320.664597 215.357274 
L 321.193437 216.517912 
L 321.437517 217.291671 
L 333.051648 217.291671 
L 333.071988 218.00576 
L 333.275388 218.719849 
L 333.295728 219.433938 
L 333.478788 220.148026 
L 345.113259 220.148026 
L 345.764139 222.341233 
L 357.47997 222.423069 
L 358.35459 222.668552 
L 418.744006 222.756019 
L 418.927066 223.151371 
L 423.625602 223.251841 
L 432.473496 223.347594 
L 478.889342 223.234362 
L 480.069061 223.731748 
L 491.093333 223.731748 
L 492.171353 224.471027 
L 503.195625 224.471027 
L 503.521064 224.80131 
L 504.578744 225.62702 
L 516.640355 225.62702 
L 516.742055 226.283173 
L 528.132446 226.389366 
L 529.556245 226.530955 
L 541.190717 226.464499 
L 541.190717 226.464499 
" clip-path="url(#p35246cf2b8)" style="fill: none; stroke: #99d28c; stroke-width: 3; stroke-linecap: square"/>
   </g>
   <g id="line2d_59">
    <path d="M 91.636364 209.236596 
L 103.067435 209.236596 
L 103.087775 209.680232 
L 108.111752 209.774105 
L 109.332151 210.243471 
L 114.010347 210.352443 
L 115.434146 211.006275 
L 121.312402 211.006275 
L 121.332742 211.732401 
L 127.455078 211.732401 
L 127.475418 212.367669 
L 132.377354 212.367669 
L 133.516393 212.89501 
L 139.638729 212.89501 
L 139.679409 213.342247 
L 144.561005 213.342247 
L 145.700044 213.660621 
L 150.601981 213.660621 
L 151.74102 214.048787 
L 157.863356 214.048787 
L 157.965055 214.291492 
L 162.907672 214.291492 
L 163.985691 214.54721 
L 176.108322 214.648524 
L 176.332062 214.745401 
L 194.373629 214.780596 
L 194.597369 214.547169 
L 200.272225 214.439223 
L 200.699364 214.331276 
L 205.865721 214.331276 
L 206.72 214.177061 
L 211.886356 214.177061 
L 212.862676 215.751482 
L 218.008692 215.751482 
L 218.862971 217.352551 
L 218.964671 218.95362 
L 224.110687 218.95362 
L 224.212387 219.582655 
L 224.761567 220.21169 
L 225.066667 221.469759 
L 230.090643 221.469759 
L 230.151663 221.581542 
L 231.168662 222.252238 
L 231.189002 222.36402 
L 236.090939 222.36402 
L 237.270658 221.117584 
L 243.352313 221.117584 
L 243.372653 220.032455 
L 248.27459 220.032455 
L 249.474649 218.506419 
L 249.494989 218.288413 
L 254.396925 218.288413 
L 255.576644 217.070894 
L 261.61762 217.070894 
L 261.71932 215.235229 
L 266.621256 215.235229 
L 267.170436 214.684657 
L 267.516216 214.317608 
L 267.577236 214.134084 
L 267.984035 213.767035 
L 273.475831 213.767035 
L 273.496171 213.386877 
L 273.841951 212.626559 
L 273.943651 211.866242 
L 278.825248 211.866242 
L 279.374427 211.436229 
L 279.598167 211.149553 
L 280.188027 210.71954 
L 284.866223 210.71954 
L 285.801863 209.699493 
L 286.005262 209.291475 
L 292.127598 209.291475 
L 292.269978 207.789171 
L 298.310953 207.789171 
L 298.331293 206.422414 
L 303.21289 206.422414 
L 303.37561 205.84594 
L 304.392609 204.404755 
L 310.453925 204.404755 
L 310.494605 202.445905 
L 315.396541 202.445905 
L 316.5966 200.519775 
L 321.437517 200.519775 
L 321.478197 200.34949 
L 322.271456 199.668351 
L 322.291796 199.498066 
L 322.698596 199.157496 
L 327.986992 199.100865 
L 329.003991 198.647814 
L 334.292387 198.544187 
L 335.512786 198.336934 
L 340.394383 198.43612 
L 341.411382 198.584898 
L 346.720118 198.522045 
L 347.513378 198.333488 
L 364.517605 198.407995 
L 364.802365 198.525283 
L 365.615965 198.701216 
L 371.31116 198.809041 
L 372.32816 198.832618 
L 395.515743 198.837264 
L 396.939542 198.914865 
L 400.885499 198.914865 
L 401.414339 200.07048 
L 401.617738 200.359384 
L 401.638078 200.648288 
L 401.902498 201.226095 
L 402.024538 201.514999 
L 406.906135 201.514999 
L 408.126534 204.952241 
L 413.00813 204.952241 
L 413.25221 206.909286 
L 414.208189 208.86633 
L 419.923725 208.86633 
L 419.944065 209.581224 
L 420.310185 210.296118 
L 422.384863 210.642792 
L 426.046061 211.162801 
L 426.45286 211.336138 
L 431.354797 211.336138 
L 432.473496 211.104116 
L 444.697827 211.099696 
L 444.738507 210.636966 
L 450.860843 210.636966 
L 450.881183 210.895726 
L 457.003518 210.895726 
L 457.023858 211.0874 
L 461.905455 211.0874 
L 462.190214 211.58733 
L 462.617354 212.087259 
L 463.268234 213.273689 
L 464.346253 213.646831 
L 466.258211 214.019973 
L 468.76003 214.579685 
L 469.390569 214.952827 
L 474.068766 214.952827 
L 474.129786 215.476903 
L 475.207805 216.525056 
L 481.33014 216.525056 
L 481.35048 216.025363 
L 486.252417 216.025363 
L 486.293097 215.850373 
L 487.350776 215.675383 
L 487.452476 215.500393 
L 504.944863 215.588369 
L 505.961863 215.825246 
L 515.135196 215.933585 
L 519.793052 216.119108 
L 523.45425 216.217612 
L 524.674649 216.316117 
L 530.125765 216.316117 
L 530.166445 216.859113 
L 536.26844 216.859113 
L 536.28878 217.060013 
L 541.190717 217.060013 
L 541.190717 217.060013 
" clip-path="url(#p35246cf2b8)" style="fill: none; stroke: #f1be3e; stroke-width: 3; stroke-linecap: square"/>
   </g>
   <g id="patch_10">
    <path d="M 69.12 237.6 
L 69.12 98.4 
" style="fill: none; stroke: #000000; stroke-linejoin: miter; stroke-linecap: square"/>
   </g>
   <g id="patch_11">
    <path d="M 564.48 237.6 
L 564.48 98.4 
" style="fill: none; stroke: #000000; stroke-linejoin: miter; stroke-linecap: square"/>
   </g>
   <g id="patch_12">
    <path d="M 69.12 237.6 
L 564.48 237.6 
" style="fill: none; stroke: #000000; stroke-linejoin: miter; stroke-linecap: square"/>
   </g>
   <g id="patch_13">
    <path d="M 69.12 98.4 
L 564.48 98.4 
" style="fill: none; stroke: #000000; stroke-linejoin: miter; stroke-linecap: square"/>
   </g>
   <g id="legend_1">
    <g id="line2d_60">
     <path d="M 50.1984 275.52 
L 62.1984 275.52 
L 74.1984 275.52 
" style="fill: none; stroke-dasharray: 11.1,4.8; stroke-dashoffset: 0; stroke: #c3312f; stroke-width: 3"/>
    </g>
    <g id="text_17">
     <!-- $Inline\ N_2O−N$ -->
     <g transform="translate(83.7984 279.72)">
      <text>
       <tspan style="font: 12px 'Source Code Pro'" x="0 7.199997 14.399994 21.599991 28.799988 35.999985 45.599957 58.23335 65.433347 72.633344" y="-0.40625">InlineNO−N</tspan>
       <tspan style="font: 8.4px 'Source Code Pro'" x="52.901946" y="1.3421874999999996">2</tspan>
      </text>
     </g>
    </g>
    <g id="line2d_61">
     <path d="M 187.7184 275.52 
L 199.7184 275.52 
L 211.7184 275.52 
" style="fill: none; stroke: #c3312f; stroke-width: 3; stroke-linecap: square"/>
    </g>
    <g id="text_18">
     <!-- $Offgas\ N_2O−N$ -->
     <g transform="translate(221.3184 279.72)">
      <text>
       <tspan style="font: 12px 'Source Code Pro'" x="0 7.199997 14.399994 21.599991 28.799988 35.999985 45.599957 58.23335 65.433347 72.633344" y="-0.3125">OffgasNO−N</tspan>
       <tspan style="font: 8.4px 'Source Code Pro'" x="52.901946" y="1.4359374999999996">2</tspan>
      </text>
     </g>
    </g>
    <g id="line2d_62">
     <path d="M 325.2384 275.52 
L 337.2384 275.52 
L 349.2384 275.52 
" style="fill: none; stroke: #00a6d6; stroke-width: 3; stroke-linecap: square"/>
    </g>
    <g id="text_19">
     <!-- $O_2$ -->
     <g transform="translate(358.8384 279.72)">
      <text>
       <tspan style="font: 12px 'Source Code Pro'" x="0" y="-0.984375">O</tspan>
       <tspan style="font: 8.4px 'Source Code Pro'" x="7.301989" y="0.7640624999999996">2</tspan>
      </text>
     </g>
    </g>
    <g id="line2d_63">
     <path d="M 395.5584 275.52 
L 407.5584 275.52 
L 419.5584 275.52 
" style="fill: none; stroke: #99d28c; stroke-width: 3; stroke-linecap: square"/>
    </g>
    <g id="text_20">
     <!-- $NH_4−N$ -->
     <g transform="translate(429.1584 279.72)">
      <text>
       <tspan style="font: 12px 'Source Code Pro'" x="0 7.199997 19.83339 27.033387" y="-0.125">NH−N</tspan>
       <tspan style="font: 8.4px 'Source Code Pro'" x="14.501986" y="1.6234374999999996">4</tspan>
      </text>
     </g>
    </g>
    <g id="line2d_64">
     <path d="M 487.4784 275.52 
L 499.4784 275.52 
L 511.4784 275.52 
" style="fill: none; stroke: #f1be3e; stroke-width: 3; stroke-linecap: square"/>
    </g>
    <g id="text_21">
     <!-- $NO_3−N$ -->
     <g transform="translate(521.0784 279.72)">
      <text>
       <tspan style="font: 12px 'Source Code Pro'" x="0 7.199997 19.83339 27.033387" y="-0.984375">NO−N</tspan>
       <tspan style="font: 8.4px 'Source Code Pro'" x="14.501986" y="0.7640624999999996">3</tspan>
      </text>
     </g>
    </g>
   </g>
  </g>
 </g>
 <defs>
  <clipPath id="pd15d9ceb71">
   <rect x="69.12" y="28.8" width="495.36" height="69.6"/>
  </clipPath>
  <clipPath id="p35246cf2b8">
   <rect x="69.12" y="98.4" width="495.36" height="139.2"/>
  </clipPath>
 </defs>
 <defs>
  <pattern id="hc141c66d4b" patternUnits="userSpaceOnUse" x="0" y="0" width="72" height="72">
   <rect x="0" y="0" width="73" height="73" fill="#dddddd"/>
   <path d="M -36 36 
L 36 -36 
M -32 40 
L 40 -32 
M -28 44 
L 44 -28 
M -24 48 
L 48 -24 
M -20 52 
L 52 -20 
M -16 56 
L 56 -16 
M -12 60 
L 60 -12 
M -8 64 
L 64 -8 
M -4 68 
L 68 -4 
M 0 72 
L 72 0 
M 4 76 
L 76 4 
M 8 80 
L 80 8 
M 12 84 
L 84 12 
M 16 88 
L 88 16 
M 20 92 
L 92 20 
M 24 96 
L 96 24 
M 28 100 
L 100 28 
M 32 104 
L 104 32 
M 36 108 
L 108 36 
" style="fill: #ffffff; stroke: #ffffff; stroke-width: 1.0; stroke-linecap: butt; stroke-linejoin: miter"/>
  </pattern>
  <pattern id="h109a70856c" patternUnits="userSpaceOnUse" x="0" y="0" width="72" height="72">
   <rect x="0" y="0" width="73" height="73" fill="#ffffff"/>
   <path d="M -36 36 
L 36 -36 
M -32 40 
L 40 -32 
M -28 44 
L 44 -28 
M -24 48 
L 48 -24 
M -20 52 
L 52 -20 
M -16 56 
L 56 -16 
M -12 60 
L 60 -12 
M -8 64 
L 64 -8 
M -4 68 
L 68 -4 
M 0 72 
L 72 0 
M 4 76 
L 76 4 
M 8 80 
L 80 8 
M 12 84 
L 84 12 
M 16 88 
L 88 16 
M 20 92 
L 92 20 
M 24 96 
L 96 24 
M 28 100 
L 100 28 
M 32 104 
L 104 32 
M 36 108 
L 108 36 
M -36 36 
L 36 108 
M -32 32 
L 40 104 
M -28 28 
L 44 100 
M -24 24 
L 48 96 
M -20 20 
L 52 92 
M -16 16 
L 56 88 
M -12 12 
L 60 84 
M -8 8 
L 64 80 
M -4 4 
L 68 76 
M 0 0 
L 72 72 
M 4 -4 
L 76 68 
M 8 -8 
L 80 64 
M 12 -12 
L 84 60 
M 16 -16 
L 88 56 
M 20 -20 
L 92 52 
M 24 -24 
L 96 48 
M 28 -28 
L 100 44 
M 32 -32 
L 104 40 
M 36 -36 
L 108 36 
" style="fill: #dddddd; stroke: #dddddd; stroke-width: 1.0; stroke-linecap: butt; stroke-linejoin: miter"/>
  </pattern>
 </defs>
</svg>
