<?xml version="1.0" encoding="utf-8" standalone="no"?>
<!DOCTYPE svg PUBLIC "-//W3C//DTD SVG 1.1//EN"
  "http://www.w3.org/Graphics/SVG/1.1/DTD/svg11.dtd">
<svg xmlns:xlink="http://www.w3.org/1999/xlink" width="720pt" height="360pt" viewBox="0 0 720 360" xmlns="http://www.w3.org/2000/svg" version="1.1">
 <metadata>
  <rdf:RDF xmlns:dc="http://purl.org/dc/elements/1.1/" xmlns:cc="http://creativecommons.org/ns#" xmlns:rdf="http://www.w3.org/1999/02/22-rdf-syntax-ns#">
   <cc:Work>
    <dc:type rdf:resource="http://purl.org/dc/dcmitype/StillImage"/>
    <dc:date>2022-10-07T11:54:06.066116</dc:date>
    <dc:format>image/svg+xml</dc:format>
    <dc:creator>
     <cc:Agent>
      <dc:title>Matplotlib v3.5.2, https://matplotlib.org/</dc:title>
     </cc:Agent>
    </dc:creator>
   </cc:Work>
  </rdf:RDF>
 </metadata>
 <defs>
  <style type="text/css">*{stroke-linejoin: round; stroke-linecap: butt}</style>
 </defs>
 <g id="figure_1">
  <g id="patch_1">
   <path d="M 0 360 
L 720 360 
L 720 0 
L 0 0 
z
" style="fill: #ffffff"/>
  </g>
  <g id="axes_1">
   <g id="patch_2">
    <path d="M 86.4 123 
L 705.6 123 
L 705.6 36 
L 86.4 36 
z
" style="fill: #ffffff"/>
   </g>
   <g id="PolyCollection_1">
    <path d="M 121.494949 123 
L 121.494949 123 
L 122.406903 123 
L 122.644602 123 
L 123.41754 123 
L 123.470549 123 
L 123.820482 123 
L 123.834729 123 
L 123.987515 123 
L 124.189076 36 
L 158.590118 36 
L 158.961929 36 
L 160.10126 36 
L 160.103255 36 
L 181.405683 36 
L 181.451666 36 
L 206.431239 36 
L 206.433221 36 
L 216.333317 36 
L 216.761355 36 
L 216.780221 36 
L 216.876189 123 
L 216.942633 123 
L 217.077557 123 
L 217.083773 123 
L 217.096024 123 
L 217.100233 123 
L 217.221102 123 
L 218.771393 123 
L 218.920164 123 
L 233.658408 123 
L 234.157716 123 
L 252.761527 123 
L 252.763187 123 
L 299.092703 123 
L 299.093154 123 
L 331.33549 123 
L 331.673377 123 
L 331.730595 123 
L 331.865106 123 
L 331.872943 123 
L 331.877152 123 
L 331.999012 123 
L 345.422798 123 
L 345.42312 123 
L 354.411455 123 
L 354.452419 123 
L 354.497385 123 
L 354.634109 123 
L 383.27182 123 
L 383.901007 123 
L 388.387472 123 
L 388.610924 123 
L 389.383463 123 
L 389.799249 123 
L 391.753086 123 
L 402.110665 123 
L 402.239952 123 
L 402.379688 123 
L 402.581854 36 
L 433.472938 36 
L 433.493619 36 
L 438.081367 36 
L 438.083053 36 
L 455.939188 36 
L 456.000614 36 
L 484.412041 36 
L 484.413019 36 
L 494.339433 36 
L 494.619498 36 
L 494.684141 36 
L 494.911608 36 
L 495.040895 123 
L 495.220977 123 
L 495.24808 123 
L 495.256316 123 
L 495.264141 123 
L 495.380184 123 
L 496.926666 123 
L 497.017215 123 
L 511.764301 123 
L 512.322023 123 
L 530.742934 123 
L 530.742985 123 
L 577.072012 123 
L 577.072952 123 
L 617.597001 123 
L 617.673484 123 
L 617.777482 123 
L 617.808407 123 
L 622.025438 123 
L 622.195083 123 
L 622.316146 123 
L 622.452266 123 
L 622.470733 123 
L 622.559275 123 
L 622.574525 123 
L 622.578348 123 
L 622.700208 123 
L 623.401001 123 
L 623.402918 123 
L 645.005037 123 
L 645.148184 123 
L 645.188336 123 
L 645.323453 123 
L 669.73228 123 
L 669.732884 123 
L 673.972411 123 
L 674.53976 123 
L 677.454545 123 
L 677.454545 123 
L 677.454545 123 
L 674.53976 123 
L 673.972411 123 
L 669.732884 123 
L 669.73228 123 
L 645.323453 123 
L 645.188336 123 
L 645.148184 123 
L 645.005037 123 
L 623.402918 123 
L 623.401001 123 
L 622.700208 123 
L 622.578348 123 
L 622.574525 123 
L 622.559275 123 
L 622.470733 123 
L 622.452266 123 
L 622.316146 123 
L 622.195083 123 
L 622.025438 123 
L 617.808407 123 
L 617.777482 123 
L 617.673484 123 
L 617.597001 123 
L 577.072952 123 
L 577.072012 123 
L 530.742985 123 
L 530.742934 123 
L 512.322023 123 
L 511.764301 123 
L 497.017215 123 
L 496.926666 123 
L 495.380184 123 
L 495.264141 123 
L 495.256316 123 
L 495.24808 123 
L 495.220977 123 
L 495.040895 123 
L 494.911608 123 
L 494.684141 123 
L 494.619498 123 
L 494.339433 123 
L 484.413019 123 
L 484.412041 123 
L 456.000614 123 
L 455.939188 123 
L 438.083053 123 
L 438.081367 123 
L 433.493619 123 
L 433.472938 123 
L 402.581854 123 
L 402.379688 123 
L 402.239952 123 
L 402.110665 123 
L 391.753086 123 
L 389.799249 123 
L 389.383463 123 
L 388.610924 123 
L 388.387472 123 
L 383.901007 123 
L 383.27182 123 
L 354.634109 123 
L 354.497385 123 
L 354.452419 123 
L 354.411455 123 
L 345.42312 123 
L 345.422798 123 
L 331.999012 123 
L 331.877152 123 
L 331.872943 123 
L 331.865106 123 
L 331.730595 123 
L 331.673377 123 
L 331.33549 123 
L 299.093154 123 
L 299.092703 123 
L 252.763187 123 
L 252.761527 123 
L 234.157716 123 
L 233.658408 123 
L 218.920164 123 
L 218.771393 123 
L 217.221102 123 
L 217.100233 123 
L 217.096024 123 
L 217.083773 123 
L 217.077557 123 
L 216.942633 123 
L 216.876189 123 
L 216.780221 123 
L 216.761355 123 
L 216.333317 123 
L 206.433221 123 
L 206.431239 123 
L 181.451666 123 
L 181.405683 123 
L 160.103255 123 
L 160.10126 123 
L 158.961929 123 
L 158.590118 123 
L 124.189076 123 
L 123.987515 123 
L 123.834729 123 
L 123.820482 123 
L 123.470549 123 
L 123.41754 123 
L 122.644602 123 
L 122.406903 123 
L 121.494949 123 
z
" clip-path="url(#pbf48758423)" style="fill: url(#hbd659344f5)"/>
   </g>
   <g id="PolyCollection_2">
    <defs>
     <path id="m72e484d945" d="M 121.494949 -237 
L 121.494949 -237 
L 122.406903 -237 
L 122.644602 -237 
L 123.41754 -237 
L 123.470549 -237 
L 123.820482 -237 
L 123.834729 -237 
L 123.987515 -237 
L 124.189076 -237 
L 158.590118 -237 
L 158.961929 -237 
L 160.10126 -237 
L 160.103255 -237 
L 181.405683 -237 
L 181.451666 -237 
L 206.431239 -237 
L 206.433221 -237 
L 216.333317 -237 
L 216.761355 -237 
L 216.780221 -237 
L 216.876189 -237 
L 216.942633 -237 
L 217.077557 -237 
L 217.083773 -237 
L 217.096024 -237 
L 217.100233 -237 
L 217.221102 -237 
L 218.771393 -237 
L 218.920164 -237 
L 233.658408 -237 
L 234.157716 -237 
L 252.761527 -237 
L 252.763187 -237 
L 299.092703 -237 
L 299.093154 -237 
L 331.33549 -237 
L 331.673377 -237 
L 331.730595 -237 
L 331.865106 -237 
L 331.872943 -237 
L 331.877152 -237 
L 331.999012 -237 
L 345.422798 -237 
L 345.42312 -237 
L 354.411455 -237 
L 354.452419 -237 
L 354.497385 -237 
L 354.634109 -324 
L 383.27182 -324 
L 383.901007 -237 
L 388.387472 -237 
L 388.610924 -237 
L 389.383463 -237 
L 389.799249 -237 
L 391.753086 -237 
L 402.110665 -237 
L 402.239952 -237 
L 402.379688 -237 
L 402.581854 -237 
L 433.472938 -237 
L 433.493619 -237 
L 438.081367 -237 
L 438.083053 -237 
L 455.939188 -237 
L 456.000614 -237 
L 484.412041 -237 
L 484.413019 -237 
L 494.339433 -237 
L 494.619498 -237 
L 494.684141 -237 
L 494.911608 -237 
L 495.040895 -237 
L 495.220977 -237 
L 495.24808 -237 
L 495.256316 -237 
L 495.264141 -237 
L 495.380184 -237 
L 496.926666 -237 
L 497.017215 -237 
L 511.764301 -237 
L 512.322023 -237 
L 530.742934 -237 
L 530.742985 -237 
L 577.072012 -237 
L 577.072952 -237 
L 617.597001 -237 
L 617.673484 -237 
L 617.777482 -237 
L 617.808407 -237 
L 622.025438 -237 
L 622.195083 -237 
L 622.316146 -237 
L 622.452266 -237 
L 622.470733 -237 
L 622.559275 -237 
L 622.574525 -237 
L 622.578348 -237 
L 622.700208 -237 
L 623.401001 -237 
L 623.402918 -237 
L 645.005037 -237 
L 645.148184 -237 
L 645.188336 -237 
L 645.323453 -324 
L 669.73228 -324 
L 669.732884 -324 
L 673.972411 -324 
L 674.53976 -237 
L 677.454545 -237 
L 677.454545 -237 
L 677.454545 -237 
L 674.53976 -237 
L 673.972411 -237 
L 669.732884 -237 
L 669.73228 -237 
L 645.323453 -237 
L 645.188336 -237 
L 645.148184 -237 
L 645.005037 -237 
L 623.402918 -237 
L 623.401001 -237 
L 622.700208 -237 
L 622.578348 -237 
L 622.574525 -237 
L 622.559275 -237 
L 622.470733 -237 
L 622.452266 -237 
L 622.316146 -237 
L 622.195083 -237 
L 622.025438 -237 
L 617.808407 -237 
L 617.777482 -237 
L 617.673484 -237 
L 617.597001 -237 
L 577.072952 -237 
L 577.072012 -237 
L 530.742985 -237 
L 530.742934 -237 
L 512.322023 -237 
L 511.764301 -237 
L 497.017215 -237 
L 496.926666 -237 
L 495.380184 -237 
L 495.264141 -237 
L 495.256316 -237 
L 495.24808 -237 
L 495.220977 -237 
L 495.040895 -237 
L 494.911608 -237 
L 494.684141 -237 
L 494.619498 -237 
L 494.339433 -237 
L 484.413019 -237 
L 484.412041 -237 
L 456.000614 -237 
L 455.939188 -237 
L 438.083053 -237 
L 438.081367 -237 
L 433.493619 -237 
L 433.472938 -237 
L 402.581854 -237 
L 402.379688 -237 
L 402.239952 -237 
L 402.110665 -237 
L 391.753086 -237 
L 389.799249 -237 
L 389.383463 -237 
L 388.610924 -237 
L 388.387472 -237 
L 383.901007 -237 
L 383.27182 -237 
L 354.634109 -237 
L 354.497385 -237 
L 354.452419 -237 
L 354.411455 -237 
L 345.42312 -237 
L 345.422798 -237 
L 331.999012 -237 
L 331.877152 -237 
L 331.872943 -237 
L 331.865106 -237 
L 331.730595 -237 
L 331.673377 -237 
L 331.33549 -237 
L 299.093154 -237 
L 299.092703 -237 
L 252.763187 -237 
L 252.761527 -237 
L 234.157716 -237 
L 233.658408 -237 
L 218.920164 -237 
L 218.771393 -237 
L 217.221102 -237 
L 217.100233 -237 
L 217.096024 -237 
L 217.083773 -237 
L 217.077557 -237 
L 216.942633 -237 
L 216.876189 -237 
L 216.780221 -237 
L 216.761355 -237 
L 216.333317 -237 
L 206.433221 -237 
L 206.431239 -237 
L 181.451666 -237 
L 181.405683 -237 
L 160.103255 -237 
L 160.10126 -237 
L 158.961929 -237 
L 158.590118 -237 
L 124.189076 -237 
L 123.987515 -237 
L 123.834729 -237 
L 123.820482 -237 
L 123.470549 -237 
L 123.41754 -237 
L 122.644602 -237 
L 122.406903 -237 
L 121.494949 -237 
z
"/>
    </defs>
    <g clip-path="url(#pbf48758423)">
     <use xlink:href="#m72e484d945" x="0" y="360" style="fill: #dddddd"/>
    </g>
   </g>
   <g id="PolyCollection_3">
    <path d="M 121.494949 123 
L 121.494949 123 
L 122.406903 123 
L 122.644602 123 
L 123.41754 123 
L 123.470549 123 
L 123.820482 123 
L 123.834729 123 
L 123.987515 123 
L 124.189076 123 
L 158.590118 123 
L 158.961929 123 
L 160.10126 123 
L 160.103255 123 
L 181.405683 123 
L 181.451666 123 
L 206.431239 123 
L 206.433221 123 
L 216.333317 123 
L 216.761355 123 
L 216.780221 123 
L 216.876189 123 
L 216.942633 123 
L 217.077557 123 
L 217.083773 123 
L 217.096024 123 
L 217.100233 36 
L 217.221102 36 
L 218.771393 36 
L 218.920164 36 
L 233.658408 36 
L 234.157716 36 
L 252.761527 36 
L 252.763187 36 
L 299.092703 36 
L 299.093154 36 
L 331.33549 36 
L 331.673377 36 
L 331.730595 123 
L 331.865106 123 
L 331.872943 123 
L 331.877152 123 
L 331.999012 36 
L 345.422798 36 
L 345.42312 36 
L 354.411455 36 
L 354.452419 36 
L 354.497385 123 
L 354.634109 123 
L 383.27182 123 
L 383.901007 123 
L 388.387472 123 
L 388.610924 123 
L 389.383463 123 
L 389.799249 123 
L 391.753086 123 
L 402.110665 123 
L 402.239952 123 
L 402.379688 123 
L 402.581854 123 
L 433.472938 123 
L 433.493619 123 
L 438.081367 123 
L 438.083053 123 
L 455.939188 123 
L 456.000614 123 
L 484.412041 123 
L 484.413019 123 
L 494.339433 123 
L 494.619498 123 
L 494.684141 123 
L 494.911608 123 
L 495.040895 123 
L 495.220977 123 
L 495.24808 123 
L 495.256316 123 
L 495.264141 36 
L 495.380184 36 
L 496.926666 36 
L 497.017215 36 
L 511.764301 36 
L 512.322023 36 
L 530.742934 36 
L 530.742985 36 
L 577.072012 36 
L 577.072952 36 
L 617.597001 36 
L 617.673484 36 
L 617.777482 36 
L 617.808407 36 
L 622.025438 36 
L 622.195083 36 
L 622.316146 36 
L 622.452266 36 
L 622.470733 123 
L 622.559275 123 
L 622.574525 123 
L 622.578348 123 
L 622.700208 36 
L 623.401001 36 
L 623.402918 36 
L 645.005037 36 
L 645.148184 36 
L 645.188336 123 
L 645.323453 123 
L 669.73228 123 
L 669.732884 123 
L 673.972411 123 
L 674.53976 123 
L 677.454545 123 
L 677.454545 123 
L 677.454545 123 
L 674.53976 123 
L 673.972411 123 
L 669.732884 123 
L 669.73228 123 
L 645.323453 123 
L 645.188336 123 
L 645.148184 123 
L 645.005037 123 
L 623.402918 123 
L 623.401001 123 
L 622.700208 123 
L 622.578348 123 
L 622.574525 123 
L 622.559275 123 
L 622.470733 123 
L 622.452266 123 
L 622.316146 123 
L 622.195083 123 
L 622.025438 123 
L 617.808407 123 
L 617.777482 123 
L 617.673484 123 
L 617.597001 123 
L 577.072952 123 
L 577.072012 123 
L 530.742985 123 
L 530.742934 123 
L 512.322023 123 
L 511.764301 123 
L 497.017215 123 
L 496.926666 123 
L 495.380184 123 
L 495.264141 123 
L 495.256316 123 
L 495.24808 123 
L 495.220977 123 
L 495.040895 123 
L 494.911608 123 
L 494.684141 123 
L 494.619498 123 
L 494.339433 123 
L 484.413019 123 
L 484.412041 123 
L 456.000614 123 
L 455.939188 123 
L 438.083053 123 
L 438.081367 123 
L 433.493619 123 
L 433.472938 123 
L 402.581854 123 
L 402.379688 123 
L 402.239952 123 
L 402.110665 123 
L 391.753086 123 
L 389.799249 123 
L 389.383463 123 
L 388.610924 123 
L 388.387472 123 
L 383.901007 123 
L 383.27182 123 
L 354.634109 123 
L 354.497385 123 
L 354.452419 123 
L 354.411455 123 
L 345.42312 123 
L 345.422798 123 
L 331.999012 123 
L 331.877152 123 
L 331.872943 123 
L 331.865106 123 
L 331.730595 123 
L 331.673377 123 
L 331.33549 123 
L 299.093154 123 
L 299.092703 123 
L 252.763187 123 
L 252.761527 123 
L 234.157716 123 
L 233.658408 123 
L 218.920164 123 
L 218.771393 123 
L 217.221102 123 
L 217.100233 123 
L 217.096024 123 
L 217.083773 123 
L 217.077557 123 
L 216.942633 123 
L 216.876189 123 
L 216.780221 123 
L 216.761355 123 
L 216.333317 123 
L 206.433221 123 
L 206.431239 123 
L 181.451666 123 
L 181.405683 123 
L 160.103255 123 
L 160.10126 123 
L 158.961929 123 
L 158.590118 123 
L 124.189076 123 
L 123.987515 123 
L 123.834729 123 
L 123.820482 123 
L 123.470549 123 
L 123.41754 123 
L 122.644602 123 
L 122.406903 123 
L 121.494949 123 
z
" clip-path="url(#pbf48758423)" style="fill: url(#h3f2321f30d)"/>
   </g>
   <g id="matplotlib.axis_1">
    <g id="xtick_1">
     <g id="line2d_1">
      <path d="M 113.773288 123 
L 113.773288 36 
" clip-path="url(#pbf48758423)" style="fill: none; stroke: #b0b0b0; stroke-linecap: square"/>
     </g>
     <g id="line2d_2">
      <defs>
       <path id="m93c8fb7a0a" d="M 0 0 
L 0 3.5 
" style="stroke: #000000"/>
      </defs>
      <g>
       <use xlink:href="#m93c8fb7a0a" x="113.773288" y="123" style="stroke: #000000"/>
      </g>
     </g>
    </g>
    <g id="xtick_2">
     <g id="line2d_3">
      <path d="M 206.433221 123 
L 206.433221 36 
" clip-path="url(#pbf48758423)" style="fill: none; stroke: #b0b0b0; stroke-linecap: square"/>
     </g>
     <g id="line2d_4">
      <g>
       <use xlink:href="#m93c8fb7a0a" x="206.433221" y="123" style="stroke: #000000"/>
      </g>
     </g>
    </g>
    <g id="xtick_3">
     <g id="line2d_5">
      <path d="M 299.093154 123 
L 299.093154 36 
" clip-path="url(#pbf48758423)" style="fill: none; stroke: #b0b0b0; stroke-linecap: square"/>
     </g>
     <g id="line2d_6">
      <g>
       <use xlink:href="#m93c8fb7a0a" x="299.093154" y="123" style="stroke: #000000"/>
      </g>
     </g>
    </g>
    <g id="xtick_4">
     <g id="line2d_7">
      <path d="M 391.753086 123 
L 391.753086 36 
" clip-path="url(#pbf48758423)" style="fill: none; stroke: #b0b0b0; stroke-linecap: square"/>
     </g>
     <g id="line2d_8">
      <g>
       <use xlink:href="#m93c8fb7a0a" x="391.753086" y="123" style="stroke: #000000"/>
      </g>
     </g>
    </g>
    <g id="xtick_5">
     <g id="line2d_9">
      <path d="M 484.413019 123 
L 484.413019 36 
" clip-path="url(#pbf48758423)" style="fill: none; stroke: #b0b0b0; stroke-linecap: square"/>
     </g>
     <g id="line2d_10">
      <g>
       <use xlink:href="#m93c8fb7a0a" x="484.413019" y="123" style="stroke: #000000"/>
      </g>
     </g>
    </g>
    <g id="xtick_6">
     <g id="line2d_11">
      <path d="M 577.072952 123 
L 577.072952 36 
" clip-path="url(#pbf48758423)" style="fill: none; stroke: #b0b0b0; stroke-linecap: square"/>
     </g>
     <g id="line2d_12">
      <g>
       <use xlink:href="#m93c8fb7a0a" x="577.072952" y="123" style="stroke: #000000"/>
      </g>
     </g>
    </g>
    <g id="xtick_7">
     <g id="line2d_13">
      <path d="M 669.732884 123 
L 669.732884 36 
" clip-path="url(#pbf48758423)" style="fill: none; stroke: #b0b0b0; stroke-linecap: square"/>
     </g>
     <g id="line2d_14">
      <g>
       <use xlink:href="#m93c8fb7a0a" x="669.732884" y="123" style="stroke: #000000"/>
      </g>
     </g>
    </g>
    <g id="xtick_8">
     <g id="line2d_15">
      <defs>
       <path id="m89369d47cd" d="M 0 0 
L 0 2 
" style="stroke: #000000; stroke-width: 0.6"/>
      </defs>
      <g>
       <use xlink:href="#m89369d47cd" x="150.837262" y="123" style="stroke: #000000; stroke-width: 0.6"/>
      </g>
     </g>
    </g>
    <g id="xtick_9">
     <g id="line2d_16">
      <g>
       <use xlink:href="#m89369d47cd" x="262.029181" y="123" style="stroke: #000000; stroke-width: 0.6"/>
      </g>
     </g>
    </g>
    <g id="xtick_10">
     <g id="line2d_17">
      <g>
       <use xlink:href="#m89369d47cd" x="373.2211" y="123" style="stroke: #000000; stroke-width: 0.6"/>
      </g>
     </g>
    </g>
    <g id="xtick_11">
     <g id="line2d_18">
      <g>
       <use xlink:href="#m89369d47cd" x="595.604938" y="123" style="stroke: #000000; stroke-width: 0.6"/>
      </g>
     </g>
    </g>
   </g>
   <g id="matplotlib.axis_2">
    <g id="ytick_1">
     <g id="line2d_19">
      <path d="M 86.4 123 
L 705.6 123 
" clip-path="url(#pbf48758423)" style="fill: none; stroke: #b0b0b0; stroke-linecap: square"/>
     </g>
     <g id="line2d_20">
      <defs>
       <path id="m8ceb85a804" d="M 0 0 
L -3.5 0 
" style="stroke: #000000"/>
      </defs>
      <g>
       <use xlink:href="#m8ceb85a804" x="86.4" y="123" style="stroke: #000000"/>
      </g>
     </g>
     <g id="text_1">
      <text style="font: 12px 'Source Code Pro'; text-anchor: end" x="79.4" y="127.272188" transform="rotate(-0, 79.4, 127.272188)">0.0</text>
     </g>
    </g>
    <g id="ytick_2">
     <g id="line2d_21">
      <path d="M 86.4 88.2 
L 705.6 88.2 
" clip-path="url(#pbf48758423)" style="fill: none; stroke: #b0b0b0; stroke-linecap: square"/>
     </g>
     <g id="line2d_22">
      <g>
       <use xlink:href="#m8ceb85a804" x="86.4" y="88.2" style="stroke: #000000"/>
      </g>
     </g>
     <g id="text_2">
      <text style="font: 12px 'Source Code Pro'; text-anchor: end" x="79.4" y="92.472187" transform="rotate(-0, 79.4, 92.472187)">0.2</text>
     </g>
    </g>
    <g id="ytick_3">
     <g id="line2d_23">
      <path d="M 86.4 53.4 
L 705.6 53.4 
" clip-path="url(#pbf48758423)" style="fill: none; stroke: #b0b0b0; stroke-linecap: square"/>
     </g>
     <g id="line2d_24">
      <g>
       <use xlink:href="#m8ceb85a804" x="86.4" y="53.4" style="stroke: #000000"/>
      </g>
     </g>
     <g id="text_3">
      <text style="font: 12px 'Source Code Pro'; text-anchor: end" x="79.4" y="57.672187" transform="rotate(-0, 79.4, 57.672187)">0.4</text>
     </g>
    </g>
   </g>
   <g id="line2d_25">
    <path d="M 114.545455 121.26 
L 117.37673 121.26 
L 117.505425 123 
L 117.762813 123 
L 117.891508 121.26 
L 118.406285 121.26 
L 118.534979 123 
L 119.307146 123 
L 119.43584 121.26 
L 119.693229 121.26 
L 119.821923 123 
L 121.881033 123 
L 122.009727 121.26 
L 123.425365 121.26 
L 123.554059 123 
L 123.682753 121.26 
L 123.940142 121.26 
L 124.068837 123 
L 155.856341 123 
L 155.985036 121.26 
L 163.063225 121.26 
L 163.191919 123 
L 165.637112 123 
L 165.765806 121.26 
L 167.95361 121.26 
L 168.082305 123 
L 168.983165 123 
L 169.111859 121.26 
L 205.274972 121.26 
L 205.403666 119.52 
L 205.532361 119.52 
L 205.661055 121.26 
L 208.363636 121.26 
L 208.492331 119.52 
L 209.007108 119.52 
L 209.135802 121.26 
L 210.165357 121.26 
L 210.306921 119.52 
L 210.808829 119.52 
L 210.937523 121.26 
L 211.452301 121.26 
L 211.580995 119.52 
L 212.867939 119.52 
L 212.996633 121.26 
L 213.382716 121.26 
L 213.51141 119.52 
L 214.283577 119.52 
L 214.412271 121.26 
L 214.927048 121.26 
L 215.055743 119.52 
L 215.57052 119.52 
L 215.699214 121.26 
L 216.47138 121.26 
L 216.600075 119.52 
L 217.887018 119.52 
L 218.015713 121.26 
L 219.302656 121.26 
L 219.431351 119.52 
L 219.688739 119.52 
L 219.817434 121.26 
L 220.332211 121.26 
L 220.460905 119.52 
L 221.233071 119.52 
L 221.361766 121.26 
L 221.619155 121.26 
L 221.747849 119.52 
L 221.876543 121.26 
L 222.777404 121.26 
L 222.906098 119.52 
L 226.252151 119.52 
L 226.380845 121.26 
L 231.013842 121.26 
L 231.142536 119.52 
L 231.271231 119.52 
L 231.438533 121.26 
L 232.172091 121.26 
L 232.300786 119.52 
L 233.072952 119.52 
L 233.201646 121.26 
L 233.973812 121.26 
L 234.102507 119.52 
L 234.359895 119.52 
L 234.540067 121.26 
L 235.260756 121.26 
L 235.518144 119.52 
L 236.290311 119.52 
L 236.52196 121.26 
L 237.191171 121.26 
L 237.332735 119.52 
L 239.121586 119.52 
L 239.250281 117.78 
L 239.378975 117.78 
L 239.572016 116.04 
L 239.765058 116.04 
L 239.893752 114.3 
L 240.022447 114.3 
L 240.254097 112.56 
L 240.279835 112.56 
L 240.588702 109.08 
L 240.665918 109.08 
L 240.85896 107.34 
L 240.923307 107.34 
L 241.180696 105.6 
L 241.30939 105.6 
L 241.438085 103.86 
L 241.566779 103.86 
L 241.695473 102.12 
L 241.824168 102.12 
L 242.145903 100.38 
L 242.210251 100.38 
L 242.338945 98.64 
L 242.596334 98.64 
L 242.737897 96.9 
L 242.982417 96.9 
L 243.111111 95.16 
L 243.3685 95.16 
L 243.574411 93.42 
L 243.883277 93.42 
L 244.011972 91.68 
L 244.784138 91.68 
L 244.912832 89.94 
L 248.258885 89.94 
L 248.477666 91.68 
L 249.417134 91.68 
L 249.635915 93.42 
L 251.34755 93.42 
L 251.476244 95.16 
L 251.991021 95.16 
L 252.119716 96.9 
L 253.14927 96.9 
L 253.38092 98.64 
L 254.178825 98.64 
L 254.30752 100.38 
L 256.495324 100.38 
L 256.752712 102.12 
L 257.653573 102.12 
L 257.782267 103.86 
L 258.683128 103.86 
L 258.8633 105.6 
L 259.970071 105.6 
L 260.098765 107.34 
L 261.385709 107.34 
L 261.527273 109.08 
L 263.316124 109.08 
L 263.444819 110.82 
L 266.1474 110.82 
L 266.276094 112.56 
L 271.809951 112.56 
L 272.06734 114.3 
L 277.98728 114.3 
L 278.244669 112.56 
L 285.580247 112.56 
L 285.708941 110.82 
L 290.341938 110.82 
L 290.599327 109.08 
L 293.559297 109.08 
L 293.765208 107.34 
L 296.390572 107.34 
L 296.519267 105.6 
L 299.221848 105.6 
L 299.440629 103.86 
L 301.924429 103.86 
L 302.104602 102.12 
L 304.498317 102.12 
L 304.704227 100.38 
L 307.200898 100.38 
L 307.329592 98.64 
L 309.646091 98.64 
L 309.774785 96.9 
L 311.962589 96.9 
L 312.091283 95.16 
L 314.536476 95.16 
L 314.66517 93.42 
L 316.981669 93.42 
L 317.110363 91.68 
L 319.298167 91.68 
L 319.46547 89.94 
L 322.000748 89.94 
L 322.19379 88.2 
L 324.445941 88.2 
L 324.587505 86.46 
L 327.534605 86.46 
L 327.701908 84.72 
L 330.365881 84.72 
L 330.494575 82.98 
L 332.553685 82.98 
L 332.875421 81.24 
L 335.771044 81.24 
L 336.028432 79.5 
L 336.54321 79.5 
L 336.671904 77.76 
L 336.800599 77.76 
L 337.186682 74.28 
L 337.315376 74.28 
L 337.44407 72.54 
L 337.701459 72.54 
L 337.830153 70.8 
L 338.216236 70.8 
L 338.447886 69.06 
L 338.602319 69.06 
L 338.8211 67.32 
L 339.117097 67.32 
L 339.335877 65.58 
L 339.631874 65.58 
L 339.760569 63.84 
L 340.275346 63.84 
L 340.40404 62.1 
L 340.918818 62.1 
L 341.047512 60.36 
L 341.690984 60.36 
L 341.948373 58.62 
L 342.720539 58.62 
L 342.977927 56.88 
L 343.750094 56.88 
L 343.904527 55.14 
L 346.066592 55.14 
L 346.208156 53.4 
L 354.560419 53.4 
L 354.689113 55.14 
L 358.163861 55.14 
L 358.292555 53.4 
L 358.807333 53.4 
L 358.936027 51.66 
L 359.836887 51.66 
L 359.965582 49.92 
L 362.668163 49.92 
L 362.796857 51.66 
L 362.925552 49.92 
L 364.34119 49.92 
L 364.469884 51.66 
L 364.598578 49.92 
L 365.113356 49.92 
L 365.24205 51.66 
L 365.756828 51.66 
L 365.885522 49.92 
L 366.657688 49.92 
L 366.786382 51.66 
L 369.746352 51.66 
L 369.875047 49.92 
L 370.003741 51.66 
L 376.052376 51.66 
L 376.18107 53.4 
L 376.567153 53.4 
L 376.695847 51.66 
L 376.953236 51.66 
L 377.107669 53.4 
L 383.902731 53.4 
L 384.070034 55.14 
L 384.546203 55.14 
L 384.777853 53.4 
L 388.407033 53.4 
L 388.535728 55.14 
L 389.179199 55.14 
L 389.307894 53.4 
L 391.367003 53.4 
L 391.495698 55.14 
L 391.624392 55.14 
L 391.817434 53.4 
L 392.267864 53.4 
L 392.396558 55.14 
L 402.434718 55.14 
L 402.563412 53.4 
L 402.692106 53.4 
L 402.820801 55.14 
L 403.078189 55.14 
L 403.206884 53.4 
L 403.592967 53.4 
L 403.721661 55.14 
L 410.928545 55.14 
L 411.185933 53.4 
L 411.572016 53.4 
L 411.803666 55.14 
L 411.9581 55.14 
L 412.086794 53.4 
L 412.215488 53.4 
L 412.344183 55.14 
L 421.224093 55.14 
L 421.352787 56.88 
L 421.610176 56.88 
L 421.73887 55.14 
L 428.173588 55.14 
L 428.430976 56.88 
L 431.648335 56.88 
L 431.77703 55.14 
L 433.063973 55.14 
L 433.192667 56.88 
L 434.093528 56.88 
L 434.222222 55.14 
L 435.895249 55.14 
L 436.023943 53.4 
L 437.825664 53.4 
L 437.954358 55.14 
L 446.319491 55.14 
L 446.538272 56.88 
L 446.57688 56.88 
L 446.705574 55.14 
L 454.684624 55.14 
L 454.813318 53.4 
L 457.5159 53.4 
L 457.644594 55.14 
L 460.861953 55.14 
L 460.990647 53.4 
L 465.237561 53.4 
L 465.366255 55.14 
L 467.29667 55.14 
L 467.425365 53.4 
L 468.841003 53.4 
L 469.034044 55.14 
L 480.166105 55.14 
L 480.2948 53.4 
L 481.710438 53.4 
L 481.839132 51.66 
L 482.353909 51.66 
L 482.482604 53.4 
L 494.837262 53.4 
L 494.965956 55.14 
L 499.341564 55.14 
L 499.470258 53.4 
L 499.598952 55.14 
L 501.529368 55.14 
L 501.69667 53.4 
L 502.816311 53.4 
L 502.945006 55.14 
L 503.97456 55.14 
L 504.103255 53.4 
L 514.784886 53.4 
L 514.91358 55.14 
L 515.042275 55.14 
L 515.261055 53.4 
L 515.299663 53.4 
L 515.428358 55.14 
L 515.994613 82.11 
L 516.084699 82.98 
L 516.200524 82.98 
L 516.329218 84.72 
L 516.586607 81.24 
L 516.715301 81.24 
L 517.101384 86.46 
L 517.230079 86.46 
L 517.42312 88.2 
L 517.487467 88.2 
L 517.616162 89.94 
L 517.744856 89.94 
L 517.87355 91.68 
L 518.130939 91.68 
L 518.452675 93.42 
L 519.031799 93.42 
L 519.289188 91.68 
L 519.417883 91.68 
L 519.610924 89.94 
L 520.83352 89.94 
L 520.962215 88.2 
L 521.99177 88.2 
L 522.120464 86.46 
L 523.664796 86.46 
L 523.922185 84.72 
L 526.109989 84.72 
L 526.238683 86.46 
L 527.268238 86.46 
L 527.396932 88.2 
L 528.426487 88.2 
L 528.619529 89.94 
L 529.327348 89.94 
L 529.456042 91.68 
L 530.228208 91.68 
L 530.356902 93.42 
L 531.000374 93.42 
L 531.129068 95.16 
L 531.901235 95.16 
L 532.029929 96.9 
L 532.802095 96.9 
L 532.930789 98.64 
L 533.83165 98.64 
L 533.960344 100.38 
L 534.861205 100.38 
L 535.079985 102.12 
L 535.890759 102.12 
L 536.019454 103.86 
L 537.049009 103.86 
L 537.25492 105.6 
L 538.335952 105.6 
L 538.477516 107.34 
L 539.75159 107.34 
L 539.880284 109.08 
L 541.553311 109.08 
L 541.733483 110.82 
L 544.255892 110.82 
L 544.384587 112.56 
L 562.273101 112.56 
L 562.53049 110.82 
L 563.688739 110.82 
L 563.817434 109.08 
L 564.975683 109.08 
L 565.104377 107.34 
L 568.193042 107.34 
L 568.321736 105.6 
L 570.895623 105.6 
L 571.024317 107.34 
L 574.499065 107.34 
L 574.730715 109.08 
L 576.944257 109.08 
L 577.201646 110.82 
L 579.132061 110.82 
L 579.260756 112.56 
L 581.191171 112.56 
L 581.371343 114.3 
L 583.250281 114.3 
L 583.378975 116.04 
L 585.30939 116.04 
L 585.515301 117.78 
L 587.625889 117.78 
L 587.754583 119.52 
L 590.071081 119.52 
L 590.212645 121.26 
L 593.417134 121.26 
L 593.648784 123 
L 674.327273 123 
L 674.327273 123 
" clip-path="url(#pbf48758423)" style="fill: none; stroke-dasharray: 11.1,4.8; stroke-dashoffset: 0; stroke: #c3312f; stroke-width: 3"/>
   </g>
   <g id="line2d_26">
    <path d="M 114.545455 123.3306 
L 236.676394 123.279424 
L 237.744557 122.593659 
L 239.649233 121.0164 
L 240.588702 119.414262 
L 241.438085 117.634108 
L 241.824168 116.922046 
L 241.952862 116.566016 
L 242.081556 116.12265 
L 242.338945 115.3266 
L 243.111111 113.88675 
L 243.497194 113.38215 
L 243.625889 112.927333 
L 244.26936 111.941334 
L 244.398055 111.683673 
L 245.131612 111.030382 
L 245.298915 110.843727 
L 246.585859 109.817127 
L 246.714553 109.67508 
L 247.306547 109.33404 
L 247.615413 109.18962 
L 248.644968 109.154111 
L 250.446689 109.465378 
L 250.588253 109.5498 
L 252.505799 110.037 
L 255.092555 110.037 
L 255.851852 121.69935 
L 255.864721 123.3654 
L 256.495324 117.12228 
L 256.624018 114.00072 
L 256.636887 112.9602 
L 256.688365 112.976633 
L 258.039656 113.223133 
L 258.425739 113.36156 
L 258.554433 113.46712 
L 260.845193 114.52272 
L 260.999626 114.62828 
L 264.731762 116.053306 
L 266.173139 116.419047 
L 269.364759 117.034826 
L 275.928171 117.472096 
L 276.957725 117.532849 
L 282.646016 117.294364 
L 290.084549 116.329659 
L 298.063599 114.709412 
L 301.422522 114.648 
L 301.795735 117.8496 
L 301.924429 119.4504 
L 302.104602 121.0512 
L 302.194688 123.4524 
L 302.310513 122.43102 
L 302.516423 120.38826 
L 302.82529 115.28136 
L 302.953984 114.25998 
L 302.992593 113.215705 
L 312.348672 110.743269 
L 312.477366 110.682226 
L 314.536476 110.102322 
L 314.66517 110.003194 
L 315.566031 109.660166 
L 317.367752 108.974108 
L 321.576057 107.760277 
L 321.923532 107.576239 
L 322.669959 107.325277 
L 324.909241 106.927517 
L 325.346801 106.733047 
L 328.306771 105.949338 
L 328.692854 105.7914 
L 330.880658 104.817 
L 331.009353 104.7358 
L 334.098017 103.617424 
L 336.942162 103.2684 
L 337.701459 102.634267 
L 337.830153 102.4042 
L 338.087542 101.9518 
L 338.473625 101.348599 
L 338.602319 100.904899 
L 339.335877 100.221467 
L 339.528919 99.928567 
L 340.082305 99.288673 
L 340.275346 98.985217 
L 341.56229 97.316209 
L 341.819678 96.709297 
L 342.321586 95.950657 
L 342.46315 95.573251 
L 343.106622 95.129549 
L 343.235316 94.773333 
L 343.878788 93.926534 
L 344.007482 93.727401 
L 344.779648 93.2634 
L 347.752488 93.2634 
L 348.511785 119.66355 
L 348.524654 123.435 
L 349.283951 93.68535 
L 349.29682 89.4354 
L 350.313505 88.846287 
L 353.916947 88.263385 
L 354.431725 88.312685 
L 357.018481 88.495799 
L 357.134306 89.02012 
L 357.739169 90.33092 
L 357.906472 90.85524 
L 358.562813 92.428201 
L 359.32211 96.432376 
L 359.450804 97.471715 
L 360.094276 99.808285 
L 360.22297 100.812514 
L 360.866442 103.497086 
L 360.995137 104.365222 
L 361.612869 106.021329 
L 361.638608 106.683772 
L 362.706771 109.664764 
L 363.054246 110.658429 
L 364.34119 113.7258 
L 364.727273 114.2826 
L 364.855967 114.533657 
L 366.271605 115.875943 
L 366.400299 116.154343 
L 367.429854 117.3624 
L 367.828807 117.6408 
L 368.845492 119.083343 
L 370.454171 120.046143 
L 370.775907 120.252457 
L 371.934156 120.748708 
L 375.28021 121.811682 
L 380.685372 122.781533 
L 382.358399 122.871391 
L 394.455668 123.300771 
L 395.09914 123.432514 
L 397.286944 123.210733 
L 500.628507 123.321449 
L 513.768201 123.3132 
L 513.884025 123.044291 
L 514.270108 122.506473 
L 514.398803 122.103109 
L 514.540367 121.8342 
L 514.656192 121.385667 
L 515.106622 120.4886 
L 515.428358 119.591533 
L 515.660007 119.143 
L 515.814441 118.694467 
L 515.994613 118.245933 
L 516.457912 117.0753 
L 516.856865 116.3532 
L 516.97269 116.171012 
L 518.002245 115.351165 
L 518.130939 115.168977 
L 518.388328 114.895694 
L 518.517022 114.568733 
L 519.160494 113.861133 
L 519.289188 113.69274 
L 519.868313 113.38998 
L 519.945529 113.2386 
L 520.486046 112.52085 
L 521.605686 111.204975 
L 522.506547 110.247975 
L 522.635241 110.008725 
L 522.763936 109.769475 
L 523.664796 108.812475 
L 524.076618 108.28395 
L 525.8526 107.39046 
L 527.808754 107.141791 
L 530.253947 107.9838 
L 533.072353 107.9838 
L 533.83165 121.488375 
L 533.844519 123.4176 
L 534.475122 115.5296 
L 534.629555 111.5856 
L 534.73251 111.613875 
L 536.161018 112.038 
L 538.953685 113.526542 
L 539.108118 113.641045 
L 543.483726 115.7123 
L 545.414141 116.221975 
L 545.542836 116.272 
L 552.106248 116.755333 
L 556.353161 116.713032 
L 561.899888 116.398038 
L 564.074822 116.040378 
L 565.876543 115.455209 
L 566.133932 115.351943 
L 569.351291 114.3899 
L 571.667789 114.236381 
L 574.627759 114.575032 
L 577.857987 115.1004 
L 579.402319 115.1004 
L 580.161616 122.37795 
L 580.174486 123.4176 
L 580.933782 117.281925 
L 580.946652 116.4054 
L 582.606809 116.792321 
L 585.438085 117.713834 
L 586.853722 118.266742 
L 588.140666 118.745929 
L 591.486719 119.83249 
L 593.610176 120.400653 
L 593.931912 120.514286 
L 597.805612 121.25652 
L 598.07587 121.31394 
L 599.980546 121.54362 
L 602.567303 122.0604 
L 604.137374 122.172257 
L 606.376655 122.395971 
L 608.693154 122.545114 
L 608.744631 122.5824 
L 616.813767 122.7894 
L 621.060681 122.9412 
L 625.732286 122.9826 
L 626.504452 123.4698 
L 627.276618 123.261 
L 627.984437 122.8666 
L 628.048784 122.6694 
L 633.003517 121.8052 
L 635.307146 121.864985 
L 638.820501 122.238415 
L 643.41489 122.819308 
L 643.492106 122.8608 
L 646.194688 123.116305 
L 649.798129 123.343421 
L 658.883951 123.4437 
L 674.327273 123.4872 
L 674.327273 123.4872 
" clip-path="url(#pbf48758423)" style="fill: none; stroke: #c3312f; stroke-width: 3; stroke-linecap: square"/>
   </g>
   <g id="patch_3">
    <path d="M 86.4 123 
L 86.4 36 
" style="fill: none; stroke: #000000; stroke-linejoin: miter; stroke-linecap: square"/>
   </g>
   <g id="patch_4">
    <path d="M 705.6 123 
L 705.6 36 
" style="fill: none; stroke: #000000; stroke-linejoin: miter; stroke-linecap: square"/>
   </g>
   <g id="patch_5">
    <path d="M 86.4 123 
L 705.6 123 
" style="fill: none; stroke: #000000; stroke-linejoin: miter; stroke-linecap: square"/>
   </g>
   <g id="patch_6">
    <path d="M 86.4 36 
L 705.6 36 
" style="fill: none; stroke: #000000; stroke-linejoin: miter; stroke-linecap: square"/>
   </g>
   <g id="patch_7">
    <path d="M 245.041526 28.689556 
Q 245.041526 58.314748 245.041526 86.821906 
" style="fill: none; stroke: #000000; stroke-linecap: round"/>
    <path d="M 247.041526 82.821906 
L 245.041526 86.821906 
L 243.041526 82.821906 
" style="fill: none; stroke: #000000; stroke-linecap: round"/>
   </g>
   <g id="text_4">
    <g id="patch_8">
     <path d="M 242.041526 26.185156 
L 248.041526 26.185156 
Q 251.041526 26.185156 251.041526 23.185156 
L 251.041526 14.014844 
Q 251.041526 11.014844 248.041526 11.014844 
L 242.041526 11.014844 
Q 239.041526 11.014844 239.041526 14.014844 
L 239.041526 23.185156 
Q 239.041526 26.185156 242.041526 26.185156 
z
" style="fill: #cccccc; stroke: #000000; stroke-linejoin: miter"/>
    </g>
    <text style="font: 10px 'Source Code Pro'; text-anchor: middle" x="245.041526" y="21.135156" transform="rotate(-0, 245.041526, 21.135156)">2</text>
   </g>
   <g id="patch_9">
    <path d="M 306.814815 28.682874 
Q 306.814815 63.53151 306.814815 97.262113 
" style="fill: none; stroke: #000000; stroke-linecap: round"/>
    <path d="M 308.814815 93.262113 
L 306.814815 97.262113 
L 304.814815 93.262113 
" style="fill: none; stroke: #000000; stroke-linecap: round"/>
   </g>
   <g id="text_5">
    <g id="patch_10">
     <path d="M 303.814815 26.185156 
L 309.814815 26.185156 
Q 312.814815 26.185156 312.814815 23.185156 
L 312.814815 14.014844 
Q 312.814815 11.014844 309.814815 11.014844 
L 303.814815 11.014844 
Q 300.814815 11.014844 300.814815 14.014844 
L 300.814815 23.185156 
Q 300.814815 26.185156 303.814815 26.185156 
z
" style="fill: #cccccc; stroke: #000000; stroke-linejoin: miter"/>
    </g>
    <text style="font: 10px 'Source Code Pro'; text-anchor: middle" x="306.814815" y="21.135156" transform="rotate(-0, 306.814815, 21.135156)">3</text>
   </g>
   <g id="patch_11">
    <path d="M 399.474747 28.68709 
Q 399.474747 74.951684 399.474747 120.098245 
" style="fill: none; stroke: #000000; stroke-linecap: round"/>
    <path d="M 401.474747 116.098245 
L 399.474747 120.098245 
L 397.474747 116.098245 
" style="fill: none; stroke: #000000; stroke-linecap: round"/>
   </g>
   <g id="text_6">
    <g id="patch_12">
     <path d="M 396.474747 26.185156 
L 402.474747 26.185156 
Q 405.474747 26.185156 405.474747 23.185156 
L 405.474747 14.014844 
Q 405.474747 11.014844 402.474747 11.014844 
L 396.474747 11.014844 
Q 393.474747 11.014844 393.474747 14.014844 
L 393.474747 23.185156 
Q 393.474747 26.185156 396.474747 26.185156 
z
" style="fill: #cccccc; stroke: #000000; stroke-linejoin: miter"/>
    </g>
    <text style="font: 10px 'Source Code Pro'; text-anchor: middle" x="399.474747" y="21.135156" transform="rotate(-0, 399.474747, 21.135156)">5</text>
   </g>
   <g id="patch_13">
    <path d="M 519.160494 28.690064 
Q 519.160494 59.183514 519.160494 88.558929 
" style="fill: none; stroke: #000000; stroke-linecap: round"/>
    <path d="M 521.160494 84.558929 
L 519.160494 88.558929 
L 517.160494 84.558929 
" style="fill: none; stroke: #000000; stroke-linecap: round"/>
   </g>
   <g id="text_7">
    <g id="patch_14">
     <path d="M 516.160494 26.185156 
L 522.160494 26.185156 
Q 525.160494 26.185156 525.160494 23.185156 
L 525.160494 14.014844 
Q 525.160494 11.014844 522.160494 11.014844 
L 516.160494 11.014844 
Q 513.160494 11.014844 513.160494 14.014844 
L 513.160494 23.185156 
Q 513.160494 26.185156 516.160494 26.185156 
z
" style="fill: #cccccc; stroke: #000000; stroke-linejoin: miter"/>
    </g>
    <text style="font: 10px 'Source Code Pro'; text-anchor: middle" x="519.160494" y="21.135156" transform="rotate(-0, 519.160494, 21.135156)">7</text>
   </g>
   <g id="patch_15">
    <path d="M 569.351291 28.68346 
Q 569.351291 66.13943 569.351291 102.477366 
" style="fill: none; stroke: #000000; stroke-linecap: round"/>
    <path d="M 571.351291 98.477366 
L 569.351291 102.477366 
L 567.351291 98.477366 
" style="fill: none; stroke: #000000; stroke-linecap: round"/>
   </g>
   <g id="text_8">
    <g id="patch_16">
     <path d="M 566.351291 26.185156 
L 572.351291 26.185156 
Q 575.351291 26.185156 575.351291 23.185156 
L 575.351291 14.014844 
Q 575.351291 11.014844 572.351291 11.014844 
L 566.351291 11.014844 
Q 563.351291 11.014844 563.351291 14.014844 
L 563.351291 23.185156 
Q 563.351291 26.185156 566.351291 26.185156 
z
" style="fill: #cccccc; stroke: #000000; stroke-linejoin: miter"/>
    </g>
    <text style="font: 10px 'Source Code Pro'; text-anchor: middle" x="569.351291" y="21.135156" transform="rotate(-0, 569.351291, 21.135156)">9</text>
   </g>
   <g id="patch_17">
    <path d="M 662.757651 28.684677 
Q 662.757651 74.842138 662.757651 119.881565 
" style="fill: none; stroke: #000000; stroke-linecap: round"/>
    <path d="M 664.757651 115.881565 
L 662.757651 119.881565 
L 660.757651 115.881565 
" style="fill: none; stroke: #000000; stroke-linecap: round"/>
   </g>
   <g id="text_9">
    <g id="patch_18">
     <path d="M 656.757651 26.185156 
L 668.757651 26.185156 
Q 671.757651 26.185156 671.757651 23.185156 
L 671.757651 14.014844 
Q 671.757651 11.014844 668.757651 11.014844 
L 656.757651 11.014844 
Q 653.757651 11.014844 653.757651 14.014844 
L 653.757651 23.185156 
Q 653.757651 26.185156 656.757651 26.185156 
z
" style="fill: #cccccc; stroke: #000000; stroke-linejoin: miter"/>
    </g>
    <text style="font: 10px 'Source Code Pro'; text-anchor: middle" x="662.757651" y="21.135156" transform="rotate(-0, 662.757651, 21.135156)">10</text>
   </g>
  </g>
  <g id="axes_2">
   <g id="patch_19">
    <path d="M 86.4 297 
L 705.6 297 
L 705.6 123 
L 86.4 123 
z
" style="fill: #ffffff"/>
   </g>
   <g id="PolyCollection_4">
    <path d="M 121.494949 297 
L 121.494949 297 
L 122.406903 297 
L 122.644602 297 
L 123.41754 297 
L 123.470549 297 
L 123.820482 297 
L 123.834729 297 
L 123.987515 297 
L 124.189076 123 
L 158.590118 123 
L 158.961929 123 
L 160.10126 123 
L 160.103255 123 
L 181.405683 123 
L 181.451666 123 
L 206.431239 123 
L 206.433221 123 
L 216.333317 123 
L 216.761355 123 
L 216.780221 123 
L 216.876189 297 
L 216.942633 297 
L 217.077557 297 
L 217.083773 297 
L 217.096024 297 
L 217.100233 297 
L 217.221102 297 
L 218.771393 297 
L 218.920164 297 
L 233.658408 297 
L 234.157716 297 
L 252.761527 297 
L 252.763187 297 
L 299.092703 297 
L 299.093154 297 
L 331.33549 297 
L 331.673377 297 
L 331.730595 297 
L 331.865106 297 
L 331.872943 297 
L 331.877152 297 
L 331.999012 297 
L 345.422798 297 
L 345.42312 297 
L 354.411455 297 
L 354.452419 297 
L 354.497385 297 
L 354.634109 297 
L 383.27182 297 
L 383.901007 297 
L 388.387472 297 
L 388.610924 297 
L 389.383463 297 
L 389.799249 297 
L 391.753086 297 
L 402.110665 297 
L 402.239952 297 
L 402.379688 297 
L 402.581854 123 
L 433.472938 123 
L 433.493619 123 
L 438.081367 123 
L 438.083053 123 
L 455.939188 123 
L 456.000614 123 
L 484.412041 123 
L 484.413019 123 
L 494.339433 123 
L 494.619498 123 
L 494.684141 123 
L 494.911608 123 
L 495.040895 297 
L 495.220977 297 
L 495.24808 297 
L 495.256316 297 
L 495.264141 297 
L 495.380184 297 
L 496.926666 297 
L 497.017215 297 
L 511.764301 297 
L 512.322023 297 
L 530.742934 297 
L 530.742985 297 
L 577.072012 297 
L 577.072952 297 
L 617.597001 297 
L 617.673484 297 
L 617.777482 297 
L 617.808407 297 
L 622.025438 297 
L 622.195083 297 
L 622.316146 297 
L 622.452266 297 
L 622.470733 297 
L 622.559275 297 
L 622.574525 297 
L 622.578348 297 
L 622.700208 297 
L 623.401001 297 
L 623.402918 297 
L 645.005037 297 
L 645.148184 297 
L 645.188336 297 
L 645.323453 297 
L 669.73228 297 
L 669.732884 297 
L 673.972411 297 
L 674.53976 297 
L 677.454545 297 
L 677.454545 297 
L 677.454545 297 
L 674.53976 297 
L 673.972411 297 
L 669.732884 297 
L 669.73228 297 
L 645.323453 297 
L 645.188336 297 
L 645.148184 297 
L 645.005037 297 
L 623.402918 297 
L 623.401001 297 
L 622.700208 297 
L 622.578348 297 
L 622.574525 297 
L 622.559275 297 
L 622.470733 297 
L 622.452266 297 
L 622.316146 297 
L 622.195083 297 
L 622.025438 297 
L 617.808407 297 
L 617.777482 297 
L 617.673484 297 
L 617.597001 297 
L 577.072952 297 
L 577.072012 297 
L 530.742985 297 
L 530.742934 297 
L 512.322023 297 
L 511.764301 297 
L 497.017215 297 
L 496.926666 297 
L 495.380184 297 
L 495.264141 297 
L 495.256316 297 
L 495.24808 297 
L 495.220977 297 
L 495.040895 297 
L 494.911608 297 
L 494.684141 297 
L 494.619498 297 
L 494.339433 297 
L 484.413019 297 
L 484.412041 297 
L 456.000614 297 
L 455.939188 297 
L 438.083053 297 
L 438.081367 297 
L 433.493619 297 
L 433.472938 297 
L 402.581854 297 
L 402.379688 297 
L 402.239952 297 
L 402.110665 297 
L 391.753086 297 
L 389.799249 297 
L 389.383463 297 
L 388.610924 297 
L 388.387472 297 
L 383.901007 297 
L 383.27182 297 
L 354.634109 297 
L 354.497385 297 
L 354.452419 297 
L 354.411455 297 
L 345.42312 297 
L 345.422798 297 
L 331.999012 297 
L 331.877152 297 
L 331.872943 297 
L 331.865106 297 
L 331.730595 297 
L 331.673377 297 
L 331.33549 297 
L 299.093154 297 
L 299.092703 297 
L 252.763187 297 
L 252.761527 297 
L 234.157716 297 
L 233.658408 297 
L 218.920164 297 
L 218.771393 297 
L 217.221102 297 
L 217.100233 297 
L 217.096024 297 
L 217.083773 297 
L 217.077557 297 
L 216.942633 297 
L 216.876189 297 
L 216.780221 297 
L 216.761355 297 
L 216.333317 297 
L 206.433221 297 
L 206.431239 297 
L 181.451666 297 
L 181.405683 297 
L 160.103255 297 
L 160.10126 297 
L 158.961929 297 
L 158.590118 297 
L 124.189076 297 
L 123.987515 297 
L 123.834729 297 
L 123.820482 297 
L 123.470549 297 
L 123.41754 297 
L 122.644602 297 
L 122.406903 297 
L 121.494949 297 
z
" clip-path="url(#pb6d7510315)" style="fill: url(#hbd659344f5)"/>
   </g>
   <g id="PolyCollection_5">
    <defs>
     <path id="m507866de66" d="M 121.494949 -63 
L 121.494949 -63 
L 122.406903 -63 
L 122.644602 -63 
L 123.41754 -63 
L 123.470549 -63 
L 123.820482 -63 
L 123.834729 -63 
L 123.987515 -63 
L 124.189076 -63 
L 158.590118 -63 
L 158.961929 -63 
L 160.10126 -63 
L 160.103255 -63 
L 181.405683 -63 
L 181.451666 -63 
L 206.431239 -63 
L 206.433221 -63 
L 216.333317 -63 
L 216.761355 -63 
L 216.780221 -63 
L 216.876189 -63 
L 216.942633 -63 
L 217.077557 -63 
L 217.083773 -63 
L 217.096024 -63 
L 217.100233 -63 
L 217.221102 -63 
L 218.771393 -63 
L 218.920164 -63 
L 233.658408 -63 
L 234.157716 -63 
L 252.761527 -63 
L 252.763187 -63 
L 299.092703 -63 
L 299.093154 -63 
L 331.33549 -63 
L 331.673377 -63 
L 331.730595 -63 
L 331.865106 -63 
L 331.872943 -63 
L 331.877152 -63 
L 331.999012 -63 
L 345.422798 -63 
L 345.42312 -63 
L 354.411455 -63 
L 354.452419 -63 
L 354.497385 -63 
L 354.634109 -237 
L 383.27182 -237 
L 383.901007 -63 
L 388.387472 -63 
L 388.610924 -63 
L 389.383463 -63 
L 389.799249 -63 
L 391.753086 -63 
L 402.110665 -63 
L 402.239952 -63 
L 402.379688 -63 
L 402.581854 -63 
L 433.472938 -63 
L 433.493619 -63 
L 438.081367 -63 
L 438.083053 -63 
L 455.939188 -63 
L 456.000614 -63 
L 484.412041 -63 
L 484.413019 -63 
L 494.339433 -63 
L 494.619498 -63 
L 494.684141 -63 
L 494.911608 -63 
L 495.040895 -63 
L 495.220977 -63 
L 495.24808 -63 
L 495.256316 -63 
L 495.264141 -63 
L 495.380184 -63 
L 496.926666 -63 
L 497.017215 -63 
L 511.764301 -63 
L 512.322023 -63 
L 530.742934 -63 
L 530.742985 -63 
L 577.072012 -63 
L 577.072952 -63 
L 617.597001 -63 
L 617.673484 -63 
L 617.777482 -63 
L 617.808407 -63 
L 622.025438 -63 
L 622.195083 -63 
L 622.316146 -63 
L 622.452266 -63 
L 622.470733 -63 
L 622.559275 -63 
L 622.574525 -63 
L 622.578348 -63 
L 622.700208 -63 
L 623.401001 -63 
L 623.402918 -63 
L 645.005037 -63 
L 645.148184 -63 
L 645.188336 -63 
L 645.323453 -237 
L 669.73228 -237 
L 669.732884 -237 
L 673.972411 -237 
L 674.53976 -63 
L 677.454545 -63 
L 677.454545 -63 
L 677.454545 -63 
L 674.53976 -63 
L 673.972411 -63 
L 669.732884 -63 
L 669.73228 -63 
L 645.323453 -63 
L 645.188336 -63 
L 645.148184 -63 
L 645.005037 -63 
L 623.402918 -63 
L 623.401001 -63 
L 622.700208 -63 
L 622.578348 -63 
L 622.574525 -63 
L 622.559275 -63 
L 622.470733 -63 
L 622.452266 -63 
L 622.316146 -63 
L 622.195083 -63 
L 622.025438 -63 
L 617.808407 -63 
L 617.777482 -63 
L 617.673484 -63 
L 617.597001 -63 
L 577.072952 -63 
L 577.072012 -63 
L 530.742985 -63 
L 530.742934 -63 
L 512.322023 -63 
L 511.764301 -63 
L 497.017215 -63 
L 496.926666 -63 
L 495.380184 -63 
L 495.264141 -63 
L 495.256316 -63 
L 495.24808 -63 
L 495.220977 -63 
L 495.040895 -63 
L 494.911608 -63 
L 494.684141 -63 
L 494.619498 -63 
L 494.339433 -63 
L 484.413019 -63 
L 484.412041 -63 
L 456.000614 -63 
L 455.939188 -63 
L 438.083053 -63 
L 438.081367 -63 
L 433.493619 -63 
L 433.472938 -63 
L 402.581854 -63 
L 402.379688 -63 
L 402.239952 -63 
L 402.110665 -63 
L 391.753086 -63 
L 389.799249 -63 
L 389.383463 -63 
L 388.610924 -63 
L 388.387472 -63 
L 383.901007 -63 
L 383.27182 -63 
L 354.634109 -63 
L 354.497385 -63 
L 354.452419 -63 
L 354.411455 -63 
L 345.42312 -63 
L 345.422798 -63 
L 331.999012 -63 
L 331.877152 -63 
L 331.872943 -63 
L 331.865106 -63 
L 331.730595 -63 
L 331.673377 -63 
L 331.33549 -63 
L 299.093154 -63 
L 299.092703 -63 
L 252.763187 -63 
L 252.761527 -63 
L 234.157716 -63 
L 233.658408 -63 
L 218.920164 -63 
L 218.771393 -63 
L 217.221102 -63 
L 217.100233 -63 
L 217.096024 -63 
L 217.083773 -63 
L 217.077557 -63 
L 216.942633 -63 
L 216.876189 -63 
L 216.780221 -63 
L 216.761355 -63 
L 216.333317 -63 
L 206.433221 -63 
L 206.431239 -63 
L 181.451666 -63 
L 181.405683 -63 
L 160.103255 -63 
L 160.10126 -63 
L 158.961929 -63 
L 158.590118 -63 
L 124.189076 -63 
L 123.987515 -63 
L 123.834729 -63 
L 123.820482 -63 
L 123.470549 -63 
L 123.41754 -63 
L 122.644602 -63 
L 122.406903 -63 
L 121.494949 -63 
z
"/>
    </defs>
    <g clip-path="url(#pb6d7510315)">
     <use xlink:href="#m507866de66" x="0" y="360" style="fill: #dddddd"/>
    </g>
   </g>
   <g id="PolyCollection_6">
    <path d="M 121.494949 297 
L 121.494949 297 
L 122.406903 297 
L 122.644602 297 
L 123.41754 297 
L 123.470549 297 
L 123.820482 297 
L 123.834729 297 
L 123.987515 297 
L 124.189076 297 
L 158.590118 297 
L 158.961929 297 
L 160.10126 297 
L 160.103255 297 
L 181.405683 297 
L 181.451666 297 
L 206.431239 297 
L 206.433221 297 
L 216.333317 297 
L 216.761355 297 
L 216.780221 297 
L 216.876189 297 
L 216.942633 297 
L 217.077557 297 
L 217.083773 297 
L 217.096024 297 
L 217.100233 123 
L 217.221102 123 
L 218.771393 123 
L 218.920164 123 
L 233.658408 123 
L 234.157716 123 
L 252.761527 123 
L 252.763187 123 
L 299.092703 123 
L 299.093154 123 
L 331.33549 123 
L 331.673377 123 
L 331.730595 297 
L 331.865106 297 
L 331.872943 297 
L 331.877152 297 
L 331.999012 123 
L 345.422798 123 
L 345.42312 123 
L 354.411455 123 
L 354.452419 123 
L 354.497385 297 
L 354.634109 297 
L 383.27182 297 
L 383.901007 297 
L 388.387472 297 
L 388.610924 297 
L 389.383463 297 
L 389.799249 297 
L 391.753086 297 
L 402.110665 297 
L 402.239952 297 
L 402.379688 297 
L 402.581854 297 
L 433.472938 297 
L 433.493619 297 
L 438.081367 297 
L 438.083053 297 
L 455.939188 297 
L 456.000614 297 
L 484.412041 297 
L 484.413019 297 
L 494.339433 297 
L 494.619498 297 
L 494.684141 297 
L 494.911608 297 
L 495.040895 297 
L 495.220977 297 
L 495.24808 297 
L 495.256316 297 
L 495.264141 123 
L 495.380184 123 
L 496.926666 123 
L 497.017215 123 
L 511.764301 123 
L 512.322023 123 
L 530.742934 123 
L 530.742985 123 
L 577.072012 123 
L 577.072952 123 
L 617.597001 123 
L 617.673484 123 
L 617.777482 123 
L 617.808407 123 
L 622.025438 123 
L 622.195083 123 
L 622.316146 123 
L 622.452266 123 
L 622.470733 297 
L 622.559275 297 
L 622.574525 297 
L 622.578348 297 
L 622.700208 123 
L 623.401001 123 
L 623.402918 123 
L 645.005037 123 
L 645.148184 123 
L 645.188336 297 
L 645.323453 297 
L 669.73228 297 
L 669.732884 297 
L 673.972411 297 
L 674.53976 297 
L 677.454545 297 
L 677.454545 297 
L 677.454545 297 
L 674.53976 297 
L 673.972411 297 
L 669.732884 297 
L 669.73228 297 
L 645.323453 297 
L 645.188336 297 
L 645.148184 297 
L 645.005037 297 
L 623.402918 297 
L 623.401001 297 
L 622.700208 297 
L 622.578348 297 
L 622.574525 297 
L 622.559275 297 
L 622.470733 297 
L 622.452266 297 
L 622.316146 297 
L 622.195083 297 
L 622.025438 297 
L 617.808407 297 
L 617.777482 297 
L 617.673484 297 
L 617.597001 297 
L 577.072952 297 
L 577.072012 297 
L 530.742985 297 
L 530.742934 297 
L 512.322023 297 
L 511.764301 297 
L 497.017215 297 
L 496.926666 297 
L 495.380184 297 
L 495.264141 297 
L 495.256316 297 
L 495.24808 297 
L 495.220977 297 
L 495.040895 297 
L 494.911608 297 
L 494.684141 297 
L 494.619498 297 
L 494.339433 297 
L 484.413019 297 
L 484.412041 297 
L 456.000614 297 
L 455.939188 297 
L 438.083053 297 
L 438.081367 297 
L 433.493619 297 
L 433.472938 297 
L 402.581854 297 
L 402.379688 297 
L 402.239952 297 
L 402.110665 297 
L 391.753086 297 
L 389.799249 297 
L 389.383463 297 
L 388.610924 297 
L 388.387472 297 
L 383.901007 297 
L 383.27182 297 
L 354.634109 297 
L 354.497385 297 
L 354.452419 297 
L 354.411455 297 
L 345.42312 297 
L 345.422798 297 
L 331.999012 297 
L 331.877152 297 
L 331.872943 297 
L 331.865106 297 
L 331.730595 297 
L 331.673377 297 
L 331.33549 297 
L 299.093154 297 
L 299.092703 297 
L 252.763187 297 
L 252.761527 297 
L 234.157716 297 
L 233.658408 297 
L 218.920164 297 
L 218.771393 297 
L 217.221102 297 
L 217.100233 297 
L 217.096024 297 
L 217.083773 297 
L 217.077557 297 
L 216.942633 297 
L 216.876189 297 
L 216.780221 297 
L 216.761355 297 
L 216.333317 297 
L 206.433221 297 
L 206.431239 297 
L 181.451666 297 
L 181.405683 297 
L 160.103255 297 
L 160.10126 297 
L 158.961929 297 
L 158.590118 297 
L 124.189076 297 
L 123.987515 297 
L 123.834729 297 
L 123.820482 297 
L 123.470549 297 
L 123.41754 297 
L 122.644602 297 
L 122.406903 297 
L 121.494949 297 
z
" clip-path="url(#pb6d7510315)" style="fill: url(#h3f2321f30d)"/>
   </g>
   <g id="matplotlib.axis_3">
    <g id="xtick_12">
     <g id="line2d_27">
      <path d="M 113.773288 297 
L 113.773288 123 
" clip-path="url(#pb6d7510315)" style="fill: none; stroke: #b0b0b0; stroke-linecap: square"/>
     </g>
     <g id="line2d_28">
      <g>
       <use xlink:href="#m93c8fb7a0a" x="113.773288" y="297" style="stroke: #000000"/>
      </g>
     </g>
     <g id="line2d_29">
      <defs>
       <path id="m7f7c5c3417" d="M 0 0 
L 0 -3.5 
" style="stroke: #000000"/>
      </defs>
      <g>
       <use xlink:href="#m7f7c5c3417" x="113.773288" y="123" style="stroke: #000000"/>
      </g>
     </g>
     <g id="text_10">
      <text style="font: 12px 'Source Code Pro'; text-anchor: middle" x="113.773288" y="312.544375" transform="rotate(-0, 113.773288, 312.544375)">04:00</text>
     </g>
    </g>
    <g id="xtick_13">
     <g id="line2d_30">
      <path d="M 206.433221 297 
L 206.433221 123 
" clip-path="url(#pb6d7510315)" style="fill: none; stroke: #b0b0b0; stroke-linecap: square"/>
     </g>
     <g id="line2d_31">
      <g>
       <use xlink:href="#m93c8fb7a0a" x="206.433221" y="297" style="stroke: #000000"/>
      </g>
     </g>
     <g id="line2d_32">
      <g>
       <use xlink:href="#m7f7c5c3417" x="206.433221" y="123" style="stroke: #000000"/>
      </g>
     </g>
     <g id="text_11">
      <text style="font: 12px 'Source Code Pro'; text-anchor: middle" x="206.433221" y="312.544375" transform="rotate(-0, 206.433221, 312.544375)">06:00</text>
     </g>
    </g>
    <g id="xtick_14">
     <g id="line2d_33">
      <path d="M 299.093154 297 
L 299.093154 123 
" clip-path="url(#pb6d7510315)" style="fill: none; stroke: #b0b0b0; stroke-linecap: square"/>
     </g>
     <g id="line2d_34">
      <g>
       <use xlink:href="#m93c8fb7a0a" x="299.093154" y="297" style="stroke: #000000"/>
      </g>
     </g>
     <g id="line2d_35">
      <g>
       <use xlink:href="#m7f7c5c3417" x="299.093154" y="123" style="stroke: #000000"/>
      </g>
     </g>
     <g id="text_12">
      <text style="font: 12px 'Source Code Pro'; text-anchor: middle" x="299.093154" y="312.544375" transform="rotate(-0, 299.093154, 312.544375)">08:00</text>
     </g>
    </g>
    <g id="xtick_15">
     <g id="line2d_36">
      <path d="M 391.753086 297 
L 391.753086 123 
" clip-path="url(#pb6d7510315)" style="fill: none; stroke: #b0b0b0; stroke-linecap: square"/>
     </g>
     <g id="line2d_37">
      <g>
       <use xlink:href="#m93c8fb7a0a" x="391.753086" y="297" style="stroke: #000000"/>
      </g>
     </g>
     <g id="line2d_38">
      <g>
       <use xlink:href="#m7f7c5c3417" x="391.753086" y="123" style="stroke: #000000"/>
      </g>
     </g>
     <g id="text_13">
      <text style="font: 12px 'Source Code Pro'; text-anchor: middle" x="391.753086" y="312.544375" transform="rotate(-0, 391.753086, 312.544375)">10:00</text>
     </g>
    </g>
    <g id="xtick_16">
     <g id="line2d_39">
      <path d="M 484.413019 297 
L 484.413019 123 
" clip-path="url(#pb6d7510315)" style="fill: none; stroke: #b0b0b0; stroke-linecap: square"/>
     </g>
     <g id="line2d_40">
      <g>
       <use xlink:href="#m93c8fb7a0a" x="484.413019" y="297" style="stroke: #000000"/>
      </g>
     </g>
     <g id="line2d_41">
      <g>
       <use xlink:href="#m7f7c5c3417" x="484.413019" y="123" style="stroke: #000000"/>
      </g>
     </g>
     <g id="text_14">
      <text style="font: 12px 'Source Code Pro'; text-anchor: middle" x="484.413019" y="312.544375" transform="rotate(-0, 484.413019, 312.544375)">12:00</text>
     </g>
    </g>
    <g id="xtick_17">
     <g id="line2d_42">
      <path d="M 577.072952 297 
L 577.072952 123 
" clip-path="url(#pb6d7510315)" style="fill: none; stroke: #b0b0b0; stroke-linecap: square"/>
     </g>
     <g id="line2d_43">
      <g>
       <use xlink:href="#m93c8fb7a0a" x="577.072952" y="297" style="stroke: #000000"/>
      </g>
     </g>
     <g id="line2d_44">
      <g>
       <use xlink:href="#m7f7c5c3417" x="577.072952" y="123" style="stroke: #000000"/>
      </g>
     </g>
     <g id="text_15">
      <text style="font: 12px 'Source Code Pro'; text-anchor: middle" x="577.072952" y="312.544375" transform="rotate(-0, 577.072952, 312.544375)">14:00</text>
     </g>
    </g>
    <g id="xtick_18">
     <g id="line2d_45">
      <path d="M 669.732884 297 
L 669.732884 123 
" clip-path="url(#pb6d7510315)" style="fill: none; stroke: #b0b0b0; stroke-linecap: square"/>
     </g>
     <g id="line2d_46">
      <g>
       <use xlink:href="#m93c8fb7a0a" x="669.732884" y="297" style="stroke: #000000"/>
      </g>
     </g>
     <g id="line2d_47">
      <g>
       <use xlink:href="#m7f7c5c3417" x="669.732884" y="123" style="stroke: #000000"/>
      </g>
     </g>
     <g id="text_16">
      <text style="font: 12px 'Source Code Pro'; text-anchor: middle" x="669.732884" y="312.544375" transform="rotate(-0, 669.732884, 312.544375)">16:00</text>
     </g>
    </g>
    <g id="xtick_19">
     <g id="line2d_48">
      <g>
       <use xlink:href="#m89369d47cd" x="150.837262" y="297" style="stroke: #000000; stroke-width: 0.6"/>
      </g>
     </g>
    </g>
    <g id="xtick_20">
     <g id="line2d_49">
      <g>
       <use xlink:href="#m89369d47cd" x="262.029181" y="297" style="stroke: #000000; stroke-width: 0.6"/>
      </g>
     </g>
    </g>
    <g id="xtick_21">
     <g id="line2d_50">
      <g>
       <use xlink:href="#m89369d47cd" x="373.2211" y="297" style="stroke: #000000; stroke-width: 0.6"/>
      </g>
     </g>
    </g>
    <g id="xtick_22">
     <g id="line2d_51">
      <g>
       <use xlink:href="#m89369d47cd" x="595.604938" y="297" style="stroke: #000000; stroke-width: 0.6"/>
      </g>
     </g>
    </g>
   </g>
   <g id="matplotlib.axis_4">
    <g id="ytick_4">
     <g id="line2d_52">
      <path d="M 86.4 297 
L 705.6 297 
" clip-path="url(#pb6d7510315)" style="fill: none; stroke: #b0b0b0; stroke-linecap: square"/>
     </g>
     <g id="line2d_53">
      <g>
       <use xlink:href="#m8ceb85a804" x="86.4" y="297" style="stroke: #000000"/>
      </g>
     </g>
     <g id="text_17">
      <text style="font: 12px 'Source Code Pro'; text-anchor: end" x="79.4" y="301.272188" transform="rotate(-0, 79.4, 301.272188)">0</text>
     </g>
    </g>
    <g id="ytick_5">
     <g id="line2d_54">
      <path d="M 86.4 260.75 
L 705.6 260.75 
" clip-path="url(#pb6d7510315)" style="fill: none; stroke: #b0b0b0; stroke-linecap: square"/>
     </g>
     <g id="line2d_55">
      <g>
       <use xlink:href="#m8ceb85a804" x="86.4" y="260.75" style="stroke: #000000"/>
      </g>
     </g>
     <g id="text_18">
      <text style="font: 12px 'Source Code Pro'; text-anchor: end" x="79.4" y="265.022188" transform="rotate(-0, 79.4, 265.022188)">5</text>
     </g>
    </g>
    <g id="ytick_6">
     <g id="line2d_56">
      <path d="M 86.4 224.5 
L 705.6 224.5 
" clip-path="url(#pb6d7510315)" style="fill: none; stroke: #b0b0b0; stroke-linecap: square"/>
     </g>
     <g id="line2d_57">
      <g>
       <use xlink:href="#m8ceb85a804" x="86.4" y="224.5" style="stroke: #000000"/>
      </g>
     </g>
     <g id="text_19">
      <text style="font: 12px 'Source Code Pro'; text-anchor: end" x="79.4" y="228.772188" transform="rotate(-0, 79.4, 228.772188)">10</text>
     </g>
    </g>
    <g id="ytick_7">
     <g id="line2d_58">
      <path d="M 86.4 188.25 
L 705.6 188.25 
" clip-path="url(#pb6d7510315)" style="fill: none; stroke: #b0b0b0; stroke-linecap: square"/>
     </g>
     <g id="line2d_59">
      <g>
       <use xlink:href="#m8ceb85a804" x="86.4" y="188.25" style="stroke: #000000"/>
      </g>
     </g>
     <g id="text_20">
      <text style="font: 12px 'Source Code Pro'; text-anchor: end" x="79.4" y="192.522188" transform="rotate(-0, 79.4, 192.522188)">15</text>
     </g>
    </g>
    <g id="ytick_8">
     <g id="line2d_60">
      <path d="M 86.4 152 
L 705.6 152 
" clip-path="url(#pb6d7510315)" style="fill: none; stroke: #b0b0b0; stroke-linecap: square"/>
     </g>
     <g id="line2d_61">
      <g>
       <use xlink:href="#m8ceb85a804" x="86.4" y="152" style="stroke: #000000"/>
      </g>
     </g>
     <g id="text_21">
      <text style="font: 12px 'Source Code Pro'; text-anchor: end" x="79.4" y="156.272188" transform="rotate(-0, 79.4, 156.272188)">20</text>
     </g>
    </g>
    <g id="text_22">
     <!-- conc. (mg $L^{-1}$) -->
     <g transform="translate(51.04 219.96)rotate(-90)">
      <text>
       <tspan style="font: 12px 'Source Code Pro'" x="0 7.199997 14.399994 21.599991 28.799988 35.999985 43.199982 50.399979 57.599976 64.799973 71.999969 89.673361" y="-0.5609375000000014">conc.(mgL)</tspan>
       <tspan style="font: 8.4px 'Source Code Pro'" x="79.301959 84.341956" y="-4.640625000000001">1</tspan>
      </text>
     </g>
    </g>
   </g>
   <g id="line2d_62">
    <path d="M 114.545455 296.266742 
L 234.823195 296.165605 
L 235.093453 295.043036 
L 235.260756 294.500044 
L 235.518144 294.26175 
L 237.577254 293.478918 
L 237.963337 293.531759 
L 238.143509 293.554499 
L 239.507669 293.942135 
L 239.636364 293.940749 
L 239.765058 293.84427 
L 240.254097 293.651312 
L 240.40853 293.328705 
L 240.923307 292.57315 
L 241.052001 292.254956 
L 241.939993 291.817859 
L 242.081556 291.677039 
L 242.338945 291.584976 
L 243.574411 291.2851 
L 243.844669 290.962686 
L 244.140666 291.036689 
L 244.912832 291.120765 
L 245.298915 290.923768 
L 245.543434 290.790701 
L 245.556304 290.650965 
L 245.942387 290.349125 
L 246.907594 290.125463 
L 247.22933 289.840831 
L 247.486719 289.684119 
L 247.744108 289.721672 
L 247.872802 289.8491 
L 248.130191 290.130973 
L 248.258885 290.301334 
L 248.953835 290.753472 
L 249.777478 289.628417 
L 249.803217 289.657985 
L 250.1893 289.666531 
L 250.459559 289.6874 
L 250.832772 289.65543 
L 251.617808 289.381961 
L 251.991021 288.829054 
L 252.003891 288.848441 
L 252.428582 288.925987 
L 253.664048 291.45804 
L 253.921437 291.294702 
L 254.178825 291.175267 
L 254.564908 291.008723 
L 254.693603 290.870785 
L 254.938122 290.732846 
L 254.950991 290.600055 
L 255.337074 290.068891 
L 255.594463 289.816129 
L 256.019155 289.516202 
L 256.636887 288.835529 
L 256.752712 288.852847 
L 257.26749 288.922485 
L 257.370445 288.782545 
L 257.524878 288.557215 
L 257.640703 288.44455 
L 257.653573 288.474687 
L 258.683128 288.60437 
L 258.940516 288.52791 
L 260.742237 288.929365 
L 261.12832 288.933703 
L 261.900486 288.89544 
L 262.338047 288.68762 
L 262.415264 288.593451 
L 262.801347 288.405027 
L 262.968649 288.241159 
L 263.303255 288.549161 
L 263.316124 288.537516 
L 263.959596 288.407032 
L 264.474373 288.260422 
L 265.079237 288.144594 
L 265.246539 288.054141 
L 265.491059 287.963687 
L 265.503928 287.830074 
L 266.018706 287.413052 
L 266.276094 287.353945 
L 266.443397 287.435459 
L 266.790872 287.835449 
L 267.820426 288.064861 
L 268.20651 287.768945 
L 268.232248 287.606385 
L 268.335204 287.625248 
L 268.849981 287.599259 
L 268.952937 287.442417 
L 269.10737 287.211311 
L 269.622147 286.633547 
L 269.660756 286.517994 
L 269.750842 286.571402 
L 270.265619 286.775568 
L 270.651702 286.627654 
L 271.037785 286.83931 
L 271.089263 286.928829 
L 271.16648 286.871307 
L 271.912907 286.526171 
L 271.938646 286.601827 
L 272.453423 286.777241 
L 272.466293 286.751465 
L 273.354284 286.959365 
L 273.482978 286.975683 
L 273.997755 287.005051 
L 274.448186 286.848006 
L 274.641227 286.595866 
L 275.670782 286.982527 
L 275.799476 287.063026 
L 276.558773 287.042023 
L 276.571642 286.950419 
L 276.829031 286.893275 
L 277.601197 286.904517 
L 277.858586 286.861259 
L 278.115975 286.383995 
L 278.244669 286.116665 
L 278.502058 285.948321 
L 278.888141 286.165375 
L 279.274224 285.975565 
L 280.04639 286.226755 
L 280.818556 286.234492 
L 281.075945 286.12539 
L 281.462028 286.19772 
L 281.719416 286.025822 
L 282.234194 286.042861 
L 282.929143 285.897111 
L 283.392443 285.237626 
L 283.405312 285.112022 
L 283.778526 285.080745 
L 284.293303 285.325256 
L 284.705125 285.022442 
L 284.911036 284.659122 
L 284.936775 284.686742 
L 285.116947 284.741983 
L 285.580247 285.414654 
L 286.609802 285.973519 
L 287.09884 285.868944 
L 287.227535 285.483462 
L 287.253273 285.514219 
L 288.282828 285.673883 
L 288.411523 285.479848 
L 288.797606 284.984133 
L 289.080733 285.075569 
L 289.569772 285.633717 
L 289.955855 286.000383 
L 289.968724 286.092049 
L 290.174635 285.978398 
L 290.341938 285.668629 
L 290.599327 285.433688 
L 291.500187 285.192792 
L 292.529742 285.40818 
L 292.658436 285.266807 
L 292.787131 284.930921 
L 293.01878 284.621553 
L 293.173214 284.688651 
L 293.765208 284.923494 
L 293.94538 285.347536 
L 294.460157 285.68689 
L 294.717546 285.711776 
L 294.871979 285.609707 
L 295.000673 285.22924 
L 295.142237 284.691646 
L 295.747101 285.04584 
L 296.030228 285.116409 
L 296.377703 284.704116 
L 296.390572 284.719503 
L 297.162738 284.878818 
L 298.063599 285.277131 
L 298.423943 285.171139 
L 298.578376 284.924417 
L 298.707071 284.78752 
L 300.869136 284.513782 
L 301.023569 284.120613 
L 301.280958 283.88889 
L 301.795735 283.997864 
L 301.924429 283.983287 
L 302.104602 284.033491 
L 302.310513 284.253962 
L 302.580771 284.38276 
L 302.696596 284.69086 
L 303.082679 284.879578 
L 303.340067 284.742403 
L 303.72615 284.97894 
L 303.73902 284.95365 
L 303.983539 284.823449 
L 304.240928 284.697437 
L 304.8844 284.968998 
L 305.527871 285.271218 
L 306.042649 285.131828 
L 307.072204 284.625153 
L 307.973064 284.665846 
L 308.616536 284.91926 
L 308.873924 285.09115 
L 309.388702 284.93621 
L 309.903479 284.730845 
L 310.418257 284.727865 
L 310.933034 284.551301 
L 311.576506 284.577615 
L 312.734755 284.621754 
L 313.249532 284.441539 
L 313.635615 284.22413 
L 313.76431 284.232996 
L 314.279087 284.01951 
L 314.549345 283.656233 
L 314.626562 283.535141 
L 314.66517 283.576671 
L 314.832473 283.659732 
L 315.179948 284.166427 
L 315.566031 284.253815 
L 315.694725 284.113398 
L 315.952114 283.782907 
L 316.209502 283.57018 
L 317.62514 284.042126 
L 317.753835 283.916933 
L 318.526001 283.468709 
L 318.912084 283.067324 
L 319.298167 283.066992 
L 319.46547 283.031346 
L 319.812944 282.699621 
L 320.340591 282.98446 
L 320.688066 283.415566 
L 320.713805 283.341703 
L 321.228582 283.117396 
L 321.614665 283.285791 
L 321.872054 283.10535 
L 322.000748 283.040343 
L 322.283876 283.008442 
L 323.158997 282.878287 
L 323.673775 282.762091 
L 324.059858 282.706097 
L 325.089413 283.054913 
L 325.115152 283.108805 
L 325.60419 282.915306 
L 326.505051 283.085622 
L 326.891134 283.131859 
L 327.43165 283.178498 
L 327.920688 283.705733 
L 328.049383 283.879265 
L 328.306771 283.971915 
L 328.654246 283.89448 
L 328.821549 283.642093 
L 329.078938 283.657556 
L 329.593715 283.668468 
L 329.979798 283.701247 
L 330.494575 283.962335 
L 330.880658 283.959702 
L 331.009353 284.203217 
L 331.112308 284.422512 
L 331.138047 284.402607 
L 332.038908 284.226145 
L 332.167602 284.057264 
L 332.296296 284.063155 
L 332.399252 284.12392 
L 332.553685 284.56501 
L 333.197157 286.017381 
L 333.35159 287.075272 
L 333.840629 288.964621 
L 333.969323 289.596302 
L 334.355406 290.320868 
L 334.4841 290.750362 
L 334.638533 291.464465 
L 335.513655 293.300296 
L 335.899738 293.136194 
L 336.285821 292.920897 
L 336.929293 293.113466 
L 336.942162 293.058841 
L 337.315376 292.92488 
L 337.701459 293.086115 
L 337.830153 293.229081 
L 337.958848 293.28482 
L 338.486495 293.122881 
L 338.58945 293.023919 
L 338.602319 293.033616 
L 339.50318 293.206572 
L 339.631874 293.31165 
L 340.893079 293.73067 
L 341.047512 293.696122 
L 341.948373 293.484631 
L 342.347325 293.457478 
L 342.591844 293.580132 
L 342.977927 293.759035 
L 343.479835 293.787148 
L 343.492705 293.840232 
L 345.294426 294.467975 
L 345.551814 294.421736 
L 347.610924 294.019804 
L 348.125701 294.126968 
L 348.897868 294.545848 
L 351.214366 294.435531 
L 351.986532 294.088059 
L 353.273475 294.422344 
L 353.324953 294.406574 
L 353.736775 293.779079 
L 354.045642 293.594242 
L 354.431725 293.533049 
L 355.075196 293.642481 
L 355.461279 294.289384 
L 356.36214 295.553312 
L 357.391695 296.007182 
L 359.965582 296.20169 
L 406.166854 296.168049 
L 409.422821 295.9352 
L 410.928545 295.022534 
L 411.185933 294.864259 
L 412.730266 294.823364 
L 412.987654 294.587243 
L 414.145903 293.699184 
L 414.91807 293.91534 
L 415.986233 294.552963 
L 416.591096 294.871774 
L 418.521511 295.733826 
L 420.065844 296.023065 
L 421.73887 296.074277 
L 423.669285 296.002542 
L 424.557276 295.856631 
L 424.69884 295.810958 
L 425.471006 295.580715 
L 426.114478 295.243434 
L 426.320389 295.111179 
L 426.500561 294.833829 
L 427.65881 293.720018 
L 428.559671 293.370137 
L 429.460531 293.418058 
L 431.519641 293.609978 
L 433.192667 293.578074 
L 434.402394 293.432638 
L 435.251777 293.629067 
L 436.410026 294.266772 
L 437.825664 294.988967 
L 438.778002 295.295351 
L 441.5578 295.529292 
L 446.062103 296.037418 
L 449.794239 296.177724 
L 462.148896 296.269833 
L 469.741863 296.180279 
L 474.760943 296.071189 
L 481.298616 296.065753 
L 481.581743 296.016607 
L 482.79147 295.525683 
L 483.126076 295.280194 
L 483.769547 294.742395 
L 485.31388 293.601463 
L 486.343434 293.406257 
L 486.986906 293.45367 
L 487.501684 293.649936 
L 488.402544 294.161516 
L 489.046016 294.642191 
L 489.17471 294.796932 
L 490.719042 295.601044 
L 492.778152 295.915175 
L 494.19379 296.023988 
L 494.965956 295.940924 
L 495.995511 295.66673 
L 497.282454 295.395195 
L 498.440703 295.435457 
L 503.446914 295.973183 
L 503.588477 295.901035 
L 504.103255 295.625173 
L 504.231949 295.445585 
L 504.746727 294.876569 
L 505.13281 294.447739 
L 505.982192 293.88503 
L 507.449308 293.961938 
L 509.45694 293.97907 
L 509.765806 293.870415 
L 511.438833 293.320904 
L 511.567527 293.220165 
L 512.082305 292.908749 
L 512.249607 292.647702 
L 512.854471 291.799092 
L 513.111859 291.755435 
L 513.266293 291.887409 
L 514.656192 294.409849 
L 516.457912 295.266966 
L 517.358773 295.247969 
L 517.487467 295.116488 
L 518.040853 294.564769 
L 518.401197 293.929717 
L 518.645716 293.71168 
L 519.160494 293.435129 
L 519.173363 293.462778 
L 519.868313 293.515601 
L 519.945529 293.457828 
L 520.087093 293.419312 
L 520.576132 292.835413 
L 520.962215 292.625597 
L 521.29682 292.381757 
L 521.476992 292.105064 
L 522.377853 291.269751 
L 522.635241 291.086668 
L 522.763936 290.985296 
L 524.308268 290.723312 
L 525.337823 290.352833 
L 525.492256 290.010514 
L 525.8526 289.790304 
L 526.367377 289.753781 
L 526.508941 289.798481 
L 526.99798 290.244189 
L 527.010849 290.144955 
L 528.169098 289.329256 
L 528.683876 289.478449 
L 528.941264 289.583517 
L 529.983689 289.23218 
L 530.356902 289.060053 
L 531.515152 289.32975 
L 531.643846 289.523216 
L 531.746801 289.619949 
L 531.77254 289.582109 
L 533.188178 288.770208 
L 533.316872 288.734024 
L 533.83165 288.746343 
L 533.960344 288.701064 
L 534.269211 288.633144 
L 534.539469 288.076708 
L 534.603816 288.10979 
L 534.73251 288.175956 
L 535.118593 288.350623 
L 535.556154 288.727713 
L 536.019454 288.960888 
L 536.405537 289.121743 
L 537.306397 288.660079 
L 538.078563 288.826007 
L 538.722035 288.751519 
L 539.223943 288.9178 
L 539.365507 289.044696 
L 539.494201 289.020693 
L 540.523756 288.589826 
L 540.909839 288.46518 
L 541.167228 288.097756 
L 541.295922 287.848429 
L 541.8107 287.443541 
L 542.196783 287.620561 
L 542.582866 287.814892 
L 543.123382 287.830766 
L 543.84407 288.515383 
L 543.998504 288.399148 
L 544.513281 288.261101 
L 544.783539 288.315558 
L 545.285447 288.769488 
L 545.928919 288.898572 
L 546.701085 288.79715 
L 546.894126 288.852389 
L 547.215862 289.095568 
L 547.859334 289.422084 
L 548.6315 289.539738 
L 549.004714 289.70426 
L 549.017583 289.639017 
L 549.789749 289.351816 
L 550.175832 289.411157 
L 550.767826 289.436766 
L 551.205387 289.530797 
L 551.720165 289.51469 
L 552.234942 289.346791 
L 552.363636 289.318671 
L 553.65058 289.601196 
L 554.294052 289.631321 
L 554.808829 289.65571 
L 555.786906 289.377488 
L 556.134381 288.935477 
L 556.867939 289.322866 
L 557.768799 290.223622 
L 558.502357 290.78791 
L 558.540965 290.713871 
L 559.055743 290.53841 
L 559.326001 290.608393 
L 560.47138 292.151409 
L 560.728769 292.512823 
L 560.857464 292.843871 
L 561.758324 294.094065 
L 562.787879 294.474255 
L 564.460905 294.584161 
L 565.233071 294.522657 
L 565.747849 294.658663 
L 566.262626 294.755758 
L 566.906098 294.679776 
L 567.54957 294.397929 
L 567.935653 294.197827 
L 568.965208 294.187059 
L 569.479985 294.327771 
L 569.608679 294.377511 
L 570.586756 294.253432 
L 570.766929 294.068315 
L 571.140142 293.698082 
L 571.204489 293.833296 
L 571.796483 294.058652 
L 572.311261 294.1576 
L 573.302207 294.012536 
L 573.508118 293.595154 
L 574.241676 293.116725 
L 574.885148 293.177974 
L 575.52862 293.096937 
L 575.786008 293.246025 
L 576.558174 293.713369 
L 578.745978 294.573422 
L 579.003367 294.498685 
L 579.260756 294.171105 
L 579.904227 293.673318 
L 580.032922 293.583629 
L 580.946652 293.645529 
L 581.44856 293.692823 
L 581.641601 293.496807 
L 581.705948 293.614336 
L 583.121586 294.168851 
L 583.893752 294.172945 
L 584.807482 293.933238 
L 585.566779 293.742768 
L 585.824168 293.780313 
L 586.853722 294.175186 
L 587.3685 294.093574 
L 588.398055 293.463392 
L 588.655443 293.591975 
L 589.054396 293.888837 
L 589.427609 294.31453 
L 592.130191 294.013472 
L 592.773663 293.80669 
L 593.803217 293.503893 
L 594.317995 293.67677 
L 594.446689 293.806507 
L 594.961467 294.00592 
L 595.167377 294.029146 
L 595.296072 294.168302 
L 595.978152 294.442381 
L 596.364235 294.321977 
L 596.377104 294.201573 
L 597.805612 294.10443 
L 598.07587 294.442301 
L 598.899514 294.679906 
L 600.456715 294.467938 
L 600.726973 294.104901 
L 601.074448 294.177872 
L 601.318967 294.398961 
L 601.743659 294.62005 
L 602.837561 294.710233 
L 603.442424 294.460274 
L 604.137374 294.719106 
L 604.471979 294.631439 
L 605.231276 294.894687 
L 606.003442 294.910057 
L 606.376655 294.585685 
L 608.744631 295.16277 
L 612.927198 295.239765 
L 613.519192 294.851289 
L 613.995361 294.68153 
L 614.265619 294.431238 
L 614.741788 294.335197 
L 615.964385 294.772452 
L 617.058287 294.862395 
L 617.521586 294.676139 
L 617.66315 294.489883 
L 618.203666 294.600729 
L 618.538272 294.843459 
L 618.950094 295.32446 
L 619.529218 295.907838 
L 621.060681 296.192444 
L 623.402918 296.199912 
L 623.415788 295.992105 
L 624.110737 295.651727 
L 624.200823 295.519156 
L 627.212271 294.902651 
L 627.276618 294.751853 
L 627.701309 294.601055 
L 628.048784 294.130649 
L 628.653648 293.998689 
L 629.129817 294.078613 
L 630.082155 293.729728 
L 630.558324 293.929799 
L 631.639357 293.574411 
L 632.231351 293.60377 
L 632.398653 293.543969 
L 632.527348 293.365162 
L 635.307146 293.127507 
L 635.860531 292.826088 
L 636.259484 292.909717 
L 636.529742 292.817301 
L 636.8 292.898073 
L 637.48208 292.381156 
L 638.022596 292.465429 
L 638.434418 292.361225 
L 639.206584 292.405407 
L 639.721362 292.087175 
L 640.004489 292.204893 
L 640.609353 291.864245 
L 640.750917 292.004639 
L 641.626038 292.074836 
L 641.973513 291.791984 
L 642.681332 291.892734 
L 642.861504 291.832802 
L 643.492106 291.33637 
L 644.019753 291.278017 
L 644.637486 291.48652 
L 645.113655 292.157682 
L 645.383913 292.079512 
L 645.589824 291.648666 
L 646.001646 291.889417 
L 646.60651 293.790048 
L 647.352937 295.204951 
L 647.713281 295.406638 
L 647.764759 295.608326 
L 648.433969 295.956776 
L 649.798129 296.183295 
L 658.883951 296.233809 
L 674.327273 296.201268 
L 674.327273 296.201268 
" clip-path="url(#pb6d7510315)" style="fill: none; stroke: #00a6d6; stroke-width: 3; stroke-linecap: square"/>
   </g>
   <g id="line2d_63">
    <path d="M 114.545455 218.795275 
L 146.513131 218.795275 
L 146.526001 219.524185 
L 153.797232 219.619881 
L 154.698092 219.747477 
L 161.261504 219.655362 
L 162.162364 219.102671 
L 169.678114 219.102671 
L 169.755331 220.360381 
L 176.666218 220.360381 
L 176.83352 219.786764 
L 177.476992 218.352722 
L 185.095698 218.352722 
L 185.198653 218.552223 
L 192.276843 218.469273 
L 193.177703 218.259895 
L 215.416087 218.107215 
L 215.57052 217.817229 
L 216.213992 217.237257 
L 223.729742 217.237257 
L 223.806958 218.479735 
L 230.730715 218.479735 
L 230.885148 217.942491 
L 231.52862 216.59938 
L 238.478114 216.682565 
L 239.121586 217.18168 
L 239.250281 217.264865 
L 246.894725 217.264865 
L 246.971942 211.684319 
L 253.869959 211.684319 
L 254.178825 209.979529 
L 254.461953 208.700936 
L 254.693603 207.848541 
L 262.338047 207.848541 
L 262.415264 209.287595 
L 269.313281 209.287595 
L 269.493453 210.289191 
L 269.660756 211.290787 
L 270.072578 213.293979 
L 277.034942 213.293979 
L 277.343808 216.328504 
L 277.858586 219.36303 
L 284.769473 219.36303 
L 284.936775 221.542263 
L 285.116947 222.995085 
L 285.528769 225.900728 
L 293.2633 225.900728 
L 293.301908 233.593904 
L 300.264272 233.593904 
L 300.894875 239.053101 
L 301.023569 239.962967 
L 307.908717 239.962967 
L 308.101758 241.931341 
L 308.359147 243.899716 
L 308.487841 245.868091 
L 308.616536 247.836465 
L 308.74523 248.820653 
L 315.643247 248.820653 
L 315.694725 250.123162 
L 315.926375 251.425671 
L 316.080808 252.72818 
L 316.338197 254.681943 
L 316.479761 255.333197 
L 324.149944 255.333197 
L 324.188552 263.770321 
L 331.138047 263.770321 
L 331.446914 266.096447 
L 331.923083 270.7487 
L 338.8211 270.7487 
L 338.988403 272.763618 
L 339.335877 275.785995 
L 339.528919 278.808372 
L 347.276319 278.808372 
L 347.353535 282.904724 
L 354.251553 282.904724 
L 354.431725 283.631879 
L 355.203891 285.547513 
L 357.005612 286.101425 
L 357.134306 286.199174 
L 359.32211 286.850835 
L 359.450804 286.916001 
L 361.625739 287.567662 
L 361.767303 287.632828 
L 363.182941 287.893492 
L 370.441302 287.893492 
L 370.518519 288.986561 
L 377.866966 289.096539 
L 378.754957 289.162526 
L 385.575758 289.064601 
L 386.476618 288.991157 
L 392.834119 288.991157 
L 393.168724 289.349454 
L 393.812196 289.827183 
L 400.632997 289.765739 
L 401.662551 289.39707 
L 408.483352 289.486036 
L 409.422821 289.70845 
L 416.076319 289.615435 
L 416.977179 289.057342 
L 424.492929 289.057342 
L 424.570146 288.701266 
L 431.905724 288.791709 
L 432.67789 288.882153 
L 439.369996 288.798192 
L 440.322334 288.588289 
L 447.683651 288.588289 
L 447.735129 288.341187 
L 455.199401 288.24048 
L 456.100262 288.200197 
L 463.126973 288.200197 
L 463.178451 287.344629 
L 478.106996 287.283843 
L 478.879162 287.096783 
L 486.240479 287.096783 
L 486.343434 285.787403 
L 494.000748 285.787403 
L 494.065095 286.263301 
L 501.156154 286.166717 
L 502.044145 286.005745 
L 509.44407 286.005745 
L 509.508418 284.540916 
L 524.179574 284.509432 
L 524.95174 258.318546 
L 531.849757 258.318546 
L 532.029929 253.704932 
L 532.364534 246.784512 
L 532.557576 239.864091 
L 535.350243 240.485809 
L 535.556154 240.550124 
L 537.049009 240.850264 
L 539.236813 241.321912 
L 539.365507 241.364789 
L 540.304976 241.579174 
L 548.039506 241.579174 
L 548.116723 247.518758 
L 555.027609 247.518758 
L 555.194912 249.02406 
L 555.709689 252.034662 
L 555.838384 253.539964 
L 562.76214 253.539964 
L 562.916573 255.27284 
L 563.598653 259.605029 
L 571.19162 259.605029 
L 571.281706 265.255201 
L 578.166854 265.255201 
L 578.617284 266.158847 
L 579.132061 266.678804 
L 580.676394 267.189816 
L 581.062477 267.360153 
L 582.478114 267.837097 
L 582.606809 267.9393 
L 585.438085 268.790986 
L 586.67355 269.233863 
L 593.674523 269.292656 
L 594.832772 269.704207 
L 601.318967 269.704207 
L 602.091134 271.953577 
L 609.825664 271.953577 
L 609.851403 273.089356 
L 616.813767 273.089356 
L 617.058287 274.597395 
L 617.521586 276.105435 
L 625.256117 276.105435 
L 625.268986 277.707402 
L 632.231351 277.707402 
L 632.527348 278.615131 
L 633.003517 279.068995 
L 640.738047 279.068995 
L 640.750917 280.041401 
L 647.713281 280.041401 
L 647.764759 280.589636 
L 648.433969 281.13787 
L 655.396334 281.13787 
L 656.1685 284.409534 
L 674.327273 284.397905 
L 674.327273 284.397905 
" clip-path="url(#pb6d7510315)" style="fill: none; stroke: #99d28c; stroke-width: 3; stroke-linecap: square"/>
   </g>
   <g id="line2d_64">
    <path d="M 114.545455 247.497442 
L 122.267116 247.497442 
L 122.279985 248.677502 
L 125.471605 248.677502 
L 125.484474 248.865938 
L 126.385335 249.996554 
L 130.014516 249.996554 
L 130.117471 251.705217 
L 133.141788 251.705217 
L 133.33483 252.241556 
L 133.978302 253.582403 
L 137.105574 253.582403 
L 137.684699 254.762065 
L 140.786233 254.762065 
L 141.558399 255.425194 
L 145.17471 255.491602 
L 145.560793 255.62756 
L 150.965956 255.868334 
L 154.440703 256.079883 
L 156.499813 256.167526 
L 157.400673 256.386632 
L 160.116124 256.480751 
L 160.88829 257.045467 
L 164.723382 257.045467 
L 164.736251 257.623952 
L 169.497942 258.15046 
L 171.814441 258.245588 
L 172.586607 258.721226 
L 175.803966 258.804119 
L 176.666218 258.972776 
L 187.257763 259.223607 
L 188.029929 259.533654 
L 191.247288 259.631413 
L 192.019454 259.826931 
L 195.622896 259.826931 
L 195.635765 260.035106 
L 198.968949 260.128816 
L 199.741115 260.320846 
L 206.947999 260.300265 
L 207.848859 260.260088 
L 210.937523 260.159749 
L 211.838384 260.125437 
L 218.273101 260.24707 
L 219.045267 260.605438 
L 225.866068 260.742416 
L 226.638234 261.074785 
L 229.855593 261.168444 
L 230.756453 261.293323 
L 233.587729 261.398877 
L 234.359895 261.926645 
L 238.079162 261.926645 
L 238.143509 265.361153 
L 241.245043 265.361153 
L 241.438085 266.539056 
L 241.811298 268.305911 
L 241.939993 269.483814 
L 245.041526 269.483814 
L 245.813692 272.983295 
L 249.301309 272.877754 
L 250.317995 272.824983 
L 252.763187 272.824983 
L 252.891882 272.434452 
L 253.033446 272.174098 
L 253.586831 271.393036 
L 256.611149 271.393036 
L 256.752712 270.888375 
L 257.26749 270.25755 
L 257.396184 270.00522 
L 261.244145 270.00522 
L 261.269884 268.172767 
L 264.358548 268.172767 
L 265.246539 265.973663 
L 268.952937 265.973663 
L 268.978676 263.194511 
L 272.852376 263.194511 
L 272.968201 260.589506 
L 275.966779 260.589506 
L 276.713206 258.025501 
L 279.801871 258.025501 
L 280.561167 254.50785 
L 284.396259 254.50785 
L 284.421998 250.17349 
L 287.523532 250.17349 
L 288.411523 246.139197 
L 292.130789 246.139197 
L 292.143659 241.6245 
L 296.017359 241.6245 
L 296.133184 238.493491 
L 299.131762 238.493491 
L 299.878189 234.050956 
L 303.72615 234.050956 
L 303.73902 231.011985 
L 306.840554 231.011985 
L 307.458287 227.53063 
L 307.586981 226.834358 
L 310.662776 226.834358 
L 310.675645 226.378842 
L 311.216162 224.10126 
L 311.447811 223.190227 
L 315.295773 223.190227 
L 315.308642 218.525244 
L 318.410176 218.525244 
L 318.847737 216.377581 
L 319.182342 214.229918 
L 322.283876 214.229918 
L 323.030303 210.191446 
L 326.106098 210.191446 
L 326.247662 209.119206 
L 326.891134 206.617313 
L 330.751964 206.617313 
L 330.764834 202.94957 
L 333.866367 202.94957 
L 334.612795 199.806918 
L 334.741489 199.362211 
L 334.998878 199.154706 
L 336.800599 198.324688 
L 338.602319 197.183413 
L 341.613767 197.183413 
L 342.334456 195.010527 
L 345.42312 195.010527 
L 345.551814 194.667754 
L 346.323981 193.719491 
L 347.739618 193.125847 
L 347.868313 193.034518 
L 348.84639 192.577869 
L 349.155256 192.440874 
L 350.570894 192.029891 
L 357.134306 191.98061 
L 357.906472 191.197601 
L 361.612869 191.197601 
L 361.638608 192.406414 
L 364.727273 192.470934 
L 364.855967 192.599974 
L 365.628133 192.922575 
L 368.588103 192.922575 
L 368.716798 193.310859 
L 369.488964 194.288517 
L 375.794987 194.517764 
L 376.438459 194.601474 
L 377.339319 195.103737 
L 380.196334 195.103737 
L 381.071455 196.025205 
L 384.070034 196.025205 
L 384.546203 196.705459 
L 384.932286 197.045587 
L 388.651553 197.045587 
L 388.7159 197.682137 
L 391.817434 197.682137 
L 392.010475 198.14393 
L 392.538122 199.067516 
L 395.613917 199.067516 
L 395.897045 199.739066 
L 396.398952 200.634467 
L 399.487617 200.634467 
L 400.375608 202.733994 
L 403.464272 202.841496 
L 404.365133 203.486508 
L 407.325103 203.591754 
L 408.097269 204.117983 
L 411.443322 204.226673 
L 412.344183 204.308191 
L 414.91807 204.400048 
L 415.81893 204.951192 
L 418.907594 205.042903 
L 419.551066 205.318036 
L 422.639731 205.388118 
L 423.540591 205.808614 
L 426.629256 205.893483 
L 427.530116 206.402691 
L 430.477217 206.494018 
L 430.490086 206.585345 
L 431.262252 207.041979 
L 434.968649 207.041979 
L 434.994388 207.809732 
L 438.095922 207.86579 
L 439.112608 208.258197 
L 442.072578 208.366323 
L 442.844744 208.906951 
L 446.062103 208.989003 
L 446.834269 209.153108 
L 450.399102 209.153108 
L 450.411972 209.405778 
L 450.43771 209.395251 
L 455.714179 209.068921 
L 458.159371 209.068921 
L 458.288066 208.569568 
L 462.045941 208.569568 
L 462.148896 208.271458 
L 465.623644 208.367727 
L 466.524504 208.439928 
L 469.098391 208.540402 
L 469.870557 209.042772 
L 473.602694 209.042772 
L 473.615563 209.677013 
L 480.577927 209.638218 
L 480.680883 209.372995 
L 481.453049 208.709939 
L 485.159446 208.709939 
L 485.198055 207.828843 
L 488.531238 207.735834 
L 489.17471 207.602189 
L 494.965956 208.28623 
L 499.341564 208.381767 
L 500.602768 208.381767 
L 500.628507 208.686701 
L 503.948822 208.587156 
L 504.103255 208.520792 
L 504.875421 208.388065 
L 508.350168 208.316611 
L 508.363038 208.245157 
L 511.95361 208.154397 
L 512.790123 208.109018 
L 515.261055 208.109018 
L 515.428358 211.547122 
L 515.660007 214.985225 
L 515.814441 218.423329 
L 516.084699 221.861433 
L 519.868313 221.861433 
L 519.945529 239.496739 
L 522.969847 239.496739 
L 523.150019 244.477742 
L 523.80636 256.930249 
L 526.830677 256.930249 
L 527.139544 258.405456 
L 527.66719 259.585621 
L 530.87168 259.474746 
L 531.849757 258.941743 
L 532.158623 258.813835 
L 533.059484 258.430112 
L 533.188178 258.344841 
L 533.445567 258.216933 
L 534.539469 257.747938 
L 535.247288 257.406851 
L 535.762065 257.307352 
L 541.192967 256.932054 
L 542.325477 256.932054 
L 542.454171 256.02213 
L 543.123382 253.747319 
L 546.894126 253.747319 
L 546.958474 251.591017 
L 550.060007 251.591017 
L 550.947999 248.07964 
L 553.856491 248.07964 
L 554.165357 246.80572 
L 554.808829 245.330528 
L 555.709689 244.793801 
L 555.838384 244.592529 
L 558.540965 242.713985 
L 561.603891 242.713985 
L 561.758324 241.972845 
L 561.899888 241.478751 
L 562.440404 240.490564 
L 566.236887 240.490564 
L 566.262626 239.494869 
L 569.351291 239.494869 
L 569.994762 238.48247 
L 570.123457 238.313737 
L 573.91994 238.313737 
L 573.997157 237.781238 
L 577.085821 237.672068 
L 577.857987 237.017046 
L 581.654471 237.017046 
L 581.705948 236.440379 
L 585.438085 236.547744 
L 585.695473 236.519292 
L 585.824168 236.469366 
L 588.011972 235.945151 
L 588.26936 235.845301 
L 590.212645 235.570712 
L 592.490535 235.570712 
L 592.644968 235.944202 
L 593.417134 236.566686 
L 596.364235 236.566686 
L 596.377104 236.436396 
L 597.406659 236.306106 
L 600.225065 236.306106 
L 600.932884 237.746799 
L 604.806584 237.746799 
L 604.883801 236.756825 
L 608.011074 236.651692 
L 608.693154 236.546559 
L 608.744631 236.220352 
L 609.825664 235.894145 
L 609.851403 235.567938 
L 610.932435 234.915524 
L 612.155032 234.589317 
L 612.566854 234.26311 
L 616.427684 234.26311 
L 616.440554 232.350078 
L 619.529218 232.350078 
L 620.17269 232.142339 
L 620.237037 231.934601 
L 623.402918 231.934601 
L 623.415788 232.183291 
L 623.904826 232.431981 
L 624.200823 232.680671 
L 627.212271 232.680671 
L 627.276618 233.135151 
L 628.048784 234.047254 
L 642.681332 234.01371 
L 642.861504 233.804085 
L 643.337673 233.594459 
L 643.492106 233.391537 
L 651.14942 233.512186 
L 654.302432 233.73003 
L 655.396334 233.947873 
L 658.111785 233.947873 
L 658.883951 234.189509 
L 661.985484 234.189509 
L 662.757651 234.756641 
L 666.618481 235.629433 
L 670.492181 235.629433 
L 670.530789 236.800287 
L 673.619454 236.800287 
L 674.327273 237.669976 
L 674.327273 237.669976 
" clip-path="url(#pb6d7510315)" style="fill: none; stroke: #f1be3e; stroke-width: 3; stroke-linecap: square"/>
   </g>
   <g id="patch_20">
    <path d="M 86.4 297 
L 86.4 123 
" style="fill: none; stroke: #000000; stroke-linejoin: miter; stroke-linecap: square"/>
   </g>
   <g id="patch_21">
    <path d="M 705.6 297 
L 705.6 123 
" style="fill: none; stroke: #000000; stroke-linejoin: miter; stroke-linecap: square"/>
   </g>
   <g id="patch_22">
    <path d="M 86.4 297 
L 705.6 297 
" style="fill: none; stroke: #000000; stroke-linejoin: miter; stroke-linecap: square"/>
   </g>
   <g id="patch_23">
    <path d="M 86.4 123 
L 705.6 123 
" style="fill: none; stroke: #000000; stroke-linejoin: miter; stroke-linecap: square"/>
   </g>
   <g id="patch_24">
    <path d="M 129.216611 162.086674 
Q 129.216611 228.175517 129.216611 293.146326 
" style="fill: none; stroke: #000000; stroke-linecap: round"/>
    <path d="M 131.216611 289.146326 
L 129.216611 293.146326 
L 127.216611 289.146326 
" style="fill: none; stroke: #000000; stroke-linecap: round"/>
   </g>
   <g id="text_23">
    <g id="patch_25">
     <path d="M 126.216611 159.585156 
L 132.216611 159.585156 
Q 135.216611 159.585156 135.216611 156.585156 
L 135.216611 147.414844 
Q 135.216611 144.414844 132.216611 144.414844 
L 126.216611 144.414844 
Q 123.216611 144.414844 123.216611 147.414844 
L 123.216611 156.585156 
Q 123.216611 159.585156 126.216611 159.585156 
z
" style="fill: #cccccc; stroke: #000000; stroke-linejoin: miter"/>
    </g>
    <text style="font: 10px 'Source Code Pro'; text-anchor: middle" x="129.216611" y="154.535156" transform="rotate(-0, 129.216611, 154.535156)">1</text>
   </g>
   <g id="patch_26">
    <path d="M 329.979798 162.085837 
Q 329.979798 221.893317 329.979798 280.582764 
" style="fill: none; stroke: #000000; stroke-linecap: round"/>
    <path d="M 331.979798 276.582764 
L 329.979798 280.582764 
L 327.979798 276.582764 
" style="fill: none; stroke: #000000; stroke-linecap: round"/>
   </g>
   <g id="text_24">
    <g id="patch_27">
     <path d="M 326.979798 159.585156 
L 332.979798 159.585156 
Q 335.979798 159.585156 335.979798 156.585156 
L 335.979798 147.414844 
Q 335.979798 144.414844 332.979798 144.414844 
L 326.979798 144.414844 
Q 323.979798 144.414844 323.979798 147.414844 
L 323.979798 156.585156 
Q 323.979798 159.585156 326.979798 159.585156 
z
" style="fill: #cccccc; stroke: #000000; stroke-linejoin: miter"/>
    </g>
    <text style="font: 10px 'Source Code Pro'; text-anchor: middle" x="329.979798" y="154.535156" transform="rotate(-0, 329.979798, 154.535156)">4</text>
   </g>
   <g id="patch_28">
    <path d="M 495.995511 162.087558 
Q 495.995511 227.87636 495.995511 292.547128 
" style="fill: none; stroke: #000000; stroke-linecap: round"/>
    <path d="M 497.995511 288.547128 
L 495.995511 292.547128 
L 493.995511 288.547128 
" style="fill: none; stroke: #000000; stroke-linecap: round"/>
   </g>
   <g id="text_25">
    <g id="patch_29">
     <path d="M 492.995511 159.585156 
L 498.995511 159.585156 
Q 501.995511 159.585156 501.995511 156.585156 
L 501.995511 147.414844 
Q 501.995511 144.414844 498.995511 144.414844 
L 492.995511 144.414844 
Q 489.995511 144.414844 489.995511 147.414844 
L 489.995511 156.585156 
Q 489.995511 159.585156 492.995511 159.585156 
z
" style="fill: #cccccc; stroke: #000000; stroke-linejoin: miter"/>
    </g>
    <text style="font: 10px 'Source Code Pro'; text-anchor: middle" x="495.995511" y="154.535156" transform="rotate(-0, 495.995511, 154.535156)">6</text>
   </g>
   <g id="patch_30">
    <path d="M 561.62963 162.087057 
Q 561.62963 227.029828 561.62963 290.854564 
" style="fill: none; stroke: #000000; stroke-linecap: round"/>
    <path d="M 563.62963 286.854564 
L 561.62963 290.854564 
L 559.62963 286.854564 
" style="fill: none; stroke: #000000; stroke-linecap: round"/>
   </g>
   <g id="text_26">
    <g id="patch_31">
     <path d="M 558.62963 159.585156 
L 564.62963 159.585156 
Q 567.62963 159.585156 567.62963 156.585156 
L 567.62963 147.414844 
Q 567.62963 144.414844 564.62963 144.414844 
L 558.62963 144.414844 
Q 555.62963 144.414844 555.62963 147.414844 
L 555.62963 156.585156 
Q 555.62963 159.585156 558.62963 159.585156 
z
" style="fill: #cccccc; stroke: #000000; stroke-linejoin: miter"/>
    </g>
    <text style="font: 10px 'Source Code Pro'; text-anchor: middle" x="561.62963" y="154.535156" transform="rotate(-0, 561.62963, 154.535156)">8</text>
   </g>
   <g id="legend_1">
    <g id="line2d_65">
     <path d="M 19.8 348.84 
L 31.8 348.84 
L 43.8 348.84 
" style="fill: none; stroke-dasharray: 11.1,4.8; stroke-dashoffset: 0; stroke: #c3312f; stroke-width: 3"/>
    </g>
    <g id="text_27">
     <!-- $Inline\ N_2ON$ -->
     <g transform="translate(53.4 353.04)">
      <text>
       <tspan style="font: 12px 'Source Code Pro'" x="0 7.199997 14.399994 21.599991 28.799988 35.999985 45.599957 58.23335 65.433347 72.633344" y="-0.40625">InlineNON</tspan>
       <tspan style="font: 8.4px 'Source Code Pro'" x="52.901946" y="1.3421874999999996">2</tspan>
      </text>
     </g>
    </g>
    <g id="line2d_66">
     <path d="M 157.32 348.84 
L 169.32 348.84 
L 181.32 348.84 
" style="fill: none; stroke: #c3312f; stroke-width: 3; stroke-linecap: square"/>
    </g>
    <g id="text_28">
     <!-- $Offgas\ N_2ON$ -->
     <g transform="translate(190.92 353.04)">
      <text>
       <tspan style="font: 12px 'Source Code Pro'" x="0 7.199997 14.399994 21.599991 28.799988 35.999985 45.599957 58.23335 65.433347 72.633344" y="-0.3125">OffgasNON</tspan>
       <tspan style="font: 8.4px 'Source Code Pro'" x="52.901946" y="1.4359374999999996">2</tspan>
      </text>
     </g>
    </g>
    <g id="line2d_67">
     <path d="M 294.84 348.84 
L 306.84 348.84 
L 318.84 348.84 
" style="fill: none; stroke: #00a6d6; stroke-width: 3; stroke-linecap: square"/>
    </g>
    <g id="text_29">
     <!-- $O_2$ -->
     <g transform="translate(328.44 353.04)">
      <text>
       <tspan style="font: 12px 'Source Code Pro'" x="0" y="-0.984375">O</tspan>
       <tspan style="font: 8.4px 'Source Code Pro'" x="7.301989" y="0.7640624999999996">2</tspan>
      </text>
     </g>
    </g>
    <g id="line2d_68">
     <path d="M 365.16 348.84 
L 377.16 348.84 
L 389.16 348.84 
" style="fill: none; stroke: #99d28c; stroke-width: 3; stroke-linecap: square"/>
    </g>
    <g id="text_30">
     <!-- $NH_4N$ -->
     <g transform="translate(398.76 353.04)">
      <text>
       <tspan style="font: 12px 'Source Code Pro'" x="0 7.199997 19.83339 27.033387" y="-0.125">NHN</tspan>
       <tspan style="font: 8.4px 'Source Code Pro'" x="14.501986" y="1.6234374999999996">4</tspan>
      </text>
     </g>
    </g>
    <g id="line2d_69">
     <path d="M 457.08 348.84 
L 469.08 348.84 
L 481.08 348.84 
" style="fill: none; stroke: #f1be3e; stroke-width: 3; stroke-linecap: square"/>
    </g>
    <g id="text_31">
     <!-- $NO_3N$ -->
     <g transform="translate(490.68 353.04)">
      <text>
       <tspan style="font: 12px 'Source Code Pro'" x="0 7.199997 19.83339 27.033387" y="-0.984375">NON</tspan>
       <tspan style="font: 8.4px 'Source Code Pro'" x="14.501986" y="0.7640624999999996">3</tspan>
      </text>
     </g>
    </g>
   </g>
  </g>
 </g>
 <defs>
  <clipPath id="pbf48758423">
   <rect x="86.4" y="36" width="619.2" height="87"/>
  </clipPath>
  <clipPath id="pb6d7510315">
   <rect x="86.4" y="123" width="619.2" height="174"/>
  </clipPath>
 </defs>
 <defs>
  <pattern id="hbd659344f5" patternUnits="userSpaceOnUse" x="0" y="0" width="72" height="72">
   <rect x="0" y="0" width="73" height="73" fill="#dddddd"/>
   <path d="M -36 36 
L 36 -36 
M -32 40 
L 40 -32 
M -28 44 
L 44 -28 
M -24 48 
L 48 -24 
M -20 52 
L 52 -20 
M -16 56 
L 56 -16 
M -12 60 
L 60 -12 
M -8 64 
L 64 -8 
M -4 68 
L 68 -4 
M 0 72 
L 72 0 
M 4 76 
L 76 4 
M 8 80 
L 80 8 
M 12 84 
L 84 12 
M 16 88 
L 88 16 
M 20 92 
L 92 20 
M 24 96 
L 96 24 
M 28 100 
L 100 28 
M 32 104 
L 104 32 
M 36 108 
L 108 36 
" style="fill: #ffffff; stroke: #ffffff; stroke-width: 1.0; stroke-linecap: butt; stroke-linejoin: miter"/>
  </pattern>
  <pattern id="h3f2321f30d" patternUnits="userSpaceOnUse" x="0" y="0" width="72" height="72">
   <rect x="0" y="0" width="73" height="73" fill="#ffffff"/>
   <path d="M -36 36 
L 36 -36 
M -32 40 
L 40 -32 
M -28 44 
L 44 -28 
M -24 48 
L 48 -24 
M -20 52 
L 52 -20 
M -16 56 
L 56 -16 
M -12 60 
L 60 -12 
M -8 64 
L 64 -8 
M -4 68 
L 68 -4 
M 0 72 
L 72 0 
M 4 76 
L 76 4 
M 8 80 
L 80 8 
M 12 84 
L 84 12 
M 16 88 
L 88 16 
M 20 92 
L 92 20 
M 24 96 
L 96 24 
M 28 100 
L 100 28 
M 32 104 
L 104 32 
M 36 108 
L 108 36 
M -36 36 
L 36 108 
M -32 32 
L 40 104 
M -28 28 
L 44 100 
M -24 24 
L 48 96 
M -20 20 
L 52 92 
M -16 16 
L 56 88 
M -12 12 
L 60 84 
M -8 8 
L 64 80 
M -4 4 
L 68 76 
M 0 0 
L 72 72 
M 4 -4 
L 76 68 
M 8 -8 
L 80 64 
M 12 -12 
L 84 60 
M 16 -16 
L 88 56 
M 20 -20 
L 92 52 
M 24 -24 
L 96 48 
M 28 -28 
L 100 44 
M 32 -32 
L 104 40 
M 36 -36 
L 108 36 
" style="fill: #dddddd; stroke: #dddddd; stroke-width: 1.0; stroke-linecap: butt; stroke-linejoin: miter"/>
  </pattern>
 </defs>
</svg>
