<?xml version="1.0" encoding="UTF-8" standalone="no"?>
<!-- Created with Inkscape (http://www.inkscape.org/) -->

<svg
   width="173.4781mm"
   height="85.378349mm"
   viewBox="0 0 173.4781 85.378349"
   version="1.1"
   id="svg5"
   xml:space="preserve"
   inkscape:version="1.2.1 (9c6d41e410, 2022-07-14, custom)"
   sodipodi:docname="drawing.svg"
   xmlns:inkscape="http://www.inkscape.org/namespaces/inkscape"
   xmlns:sodipodi="http://sodipodi.sourceforge.net/DTD/sodipodi-0.dtd"
   xmlns="http://www.w3.org/2000/svg"
   xmlns:svg="http://www.w3.org/2000/svg"><sodipodi:namedview
     id="namedview7"
     pagecolor="#ffffff"
     bordercolor="#000000"
     borderopacity="0.25"
     inkscape:showpageshadow="2"
     inkscape:pageopacity="0.0"
     inkscape:pagecheckerboard="0"
     inkscape:deskcolor="#d1d1d1"
     inkscape:document-units="mm"
     showgrid="false"
     inkscape:zoom="1.4377354"
     inkscape:cx="350.89906"
     inkscape:cy="231.96202"
     inkscape:window-width="1920"
     inkscape:window-height="1012"
     inkscape:window-x="0"
     inkscape:window-y="0"
     inkscape:window-maximized="1"
     inkscape:current-layer="svg5"><inkscape:page
       x="0"
       y="0"
       width="173.4781"
       height="85.378349"
       id="page557" /><inkscape:page
       x="-17.761999"
       y="-18.922316"
       width="210.06"
       height="296.93002"
       id="page559" /></sodipodi:namedview><defs
     id="defs2"><clipPath
       clipPathUnits="userSpaceOnUse"
       id="clipPath195"><path
         d="M 0,0.028 H 595.417 V 841.69 H 0 Z"
         clip-rule="evenodd"
         id="path193" /></clipPath></defs><g
     inkscape:label="Layer 1"
     inkscape:groupmode="layer"
     id="layer1"
     transform="translate(-237.76201,-18.922315)" /><g
     id="g189"
     transform="matrix(0.35277776,0,0,-0.35277778,-17.762007,278.00768)"><g
       id="g191"
       clip-path="url(#clipPath195)"><path
         d="M 210.007,745.534 H 360.23 v 10.587 H 210.007 Z"
         style="fill:#00a6d6;fill-opacity:1;fill-rule:evenodd;stroke:none"
         id="path197" /><path
         d="m 360.207,734.97 h 106.745 v 10.587 H 360.207 Z"
         style="fill:#00a6d6;fill-opacity:1;fill-rule:evenodd;stroke:none"
         id="path199" /><path
         d="m 466.928,724.406 h 75.123 v 10.587 h -75.123 z"
         style="fill:#00a6d6;fill-opacity:1;fill-rule:evenodd;stroke:none"
         id="path201" /><path
         d="m 50.373,692.714 h 491.679 v 21.151 H 50.373 Z"
         style="fill:#ffffff;fill-opacity:1;fill-rule:evenodd;stroke:none"
         id="path203" /><path
         d="m 50.373,671.587 h 159.658 v 21.151 H 50.373 Z"
         style="fill:#ffffff;fill-opacity:1;fill-rule:evenodd;stroke:none"
         id="path205" /><path
         d="M 210.007,671.587 H 360.23 v 21.151 H 210.007 Z"
         style="fill:#d9d9d9;fill-opacity:1;fill-rule:evenodd;stroke:none"
         id="path207" /><path
         d="m 360.207,671.587 h 181.845 v 21.151 H 360.207 Z"
         style="fill:#ffffff;fill-opacity:1;fill-rule:evenodd;stroke:none"
         id="path209" /><path
         d="M 50.373,661.023 H 210.031 V 671.61 H 50.373 Z"
         style="fill:#ffffff;fill-opacity:1;fill-rule:evenodd;stroke:none"
         id="path211" /><path
         d="M 210.007,661.023 H 360.23 V 671.61 H 210.007 Z"
         style="fill:#d9d9d9;fill-opacity:1;fill-rule:evenodd;stroke:none"
         id="path213" /><path
         d="M 360.207,661.023 H 466.952 V 671.61 H 360.207 Z"
         style="fill:#ffffff;fill-opacity:1;fill-rule:evenodd;stroke:none"
         id="path215" /><path
         d="m 466.928,661.023 h 75.123 v 10.587 h -75.123 z"
         style="fill:#d9d9d9;fill-opacity:1;fill-rule:evenodd;stroke:none"
         id="path217" /><path
         d="m 50.373,650.459 h 159.658 v 10.587 H 50.373 Z"
         style="fill:#ffffff;fill-opacity:1;fill-rule:evenodd;stroke:none"
         id="path219" /><path
         d="M 210.007,650.459 H 360.23 v 10.587 H 210.007 Z"
         style="fill:#d9d9d9;fill-opacity:1;fill-rule:evenodd;stroke:none"
         id="path221" /><path
         d="m 360.207,650.459 h 181.845 v 10.587 H 360.207 Z"
         style="fill:#ffffff;fill-opacity:1;fill-rule:evenodd;stroke:none"
         id="path223" /><path
         d="m 50.373,639.895 h 491.679 v 10.587 H 50.373 Z"
         style="fill:#ffffff;fill-opacity:1;fill-rule:evenodd;stroke:none"
         id="path225" /><path
         d="m 360.207,597.64 h 106.745 v 42.279 H 360.207 Z"
         style="fill:#ffffff;fill-opacity:1;fill-rule:evenodd;stroke:none"
         id="path227" /><path
         d="m 322.657,565.948 h 37.574 v 10.587 h -37.574 z"
         style="fill:#00a6d6;fill-opacity:1;fill-rule:evenodd;stroke:none"
         id="path229" /><path
         d="m 322.657,555.384 h 37.574 v 10.587 h -37.574 z"
         style="fill:#d9d9d9;fill-opacity:1;fill-rule:evenodd;stroke:none"
         id="path231" /></g></g><g
     id="g233"
     transform="matrix(0.35277776,0,0,-0.35277778,-17.762007,278.00768)"><path
       d="M 50.349,787.742 H 542.098"
       style="fill:none;stroke:#7f7f7f;stroke-width:0.62255;stroke-linecap:butt;stroke-linejoin:round;stroke-miterlimit:10;stroke-dasharray:none;stroke-opacity:1"
       id="path235" /></g><g
     id="g237"
     transform="matrix(0.35277776,0,0,-0.35277778,-17.762007,278.00768)"><path
       d="M 210.078,788.048 V 776.873"
       style="fill:none;stroke:#808080;stroke-width:0.62255;stroke-linecap:butt;stroke-linejoin:round;stroke-miterlimit:10;stroke-dasharray:none;stroke-opacity:1"
       id="path239" /></g><g
     id="g241"
     transform="matrix(0.35277776,0,0,-0.35277778,-17.762007,278.00768)"><path
       d="M 247.628,788.048 V 776.873"
       style="fill:none;stroke:#808080;stroke-width:0.62255;stroke-linecap:butt;stroke-linejoin:round;stroke-miterlimit:10;stroke-dasharray:none;stroke-opacity:1"
       id="path243" /></g><g
     id="g245"
     transform="matrix(0.35277776,0,0,-0.35277778,-17.762007,278.00768)"><path
       d="M 285.178,788.048 V 776.873"
       style="fill:none;stroke:#808080;stroke-width:0.62255;stroke-linecap:butt;stroke-linejoin:round;stroke-miterlimit:10;stroke-dasharray:none;stroke-opacity:1"
       id="path247" /></g><g
     id="g249"
     transform="matrix(0.35277776,0,0,-0.35277778,-17.762007,278.00768)"><path
       d="M 322.728,788.048 V 776.873"
       style="fill:none;stroke:#808080;stroke-width:0.62255;stroke-linecap:butt;stroke-linejoin:round;stroke-miterlimit:10;stroke-dasharray:none;stroke-opacity:1"
       id="path251" /></g><g
     id="g253"
     transform="matrix(0.35277776,0,0,-0.35277778,-17.762007,278.00768)"><path
       d="M 360.278,788.048 V 776.873"
       style="fill:none;stroke:#808080;stroke-width:0.62255;stroke-linecap:butt;stroke-linejoin:round;stroke-miterlimit:10;stroke-dasharray:none;stroke-opacity:1"
       id="path255" /></g><g
     id="g257"
     transform="matrix(0.35277776,0,0,-0.35277778,-17.762007,278.00768)"><path
       d="M 466.999,788.048 V 776.873"
       style="fill:none;stroke:#808080;stroke-width:0.62255;stroke-linecap:butt;stroke-linejoin:round;stroke-miterlimit:10;stroke-dasharray:none;stroke-opacity:1"
       id="path259" /></g><g
     id="g261"
     transform="matrix(0.35277776,0,0,-0.35277778,-17.762007,278.00768)"><path
       d="M 504.549,788.048 V 776.873"
       style="fill:none;stroke:#808080;stroke-width:0.62255;stroke-linecap:butt;stroke-linejoin:round;stroke-miterlimit:10;stroke-dasharray:none;stroke-opacity:1"
       id="path263" /></g><g
     id="g265"
     transform="matrix(0.35277776,0,0,-0.35277778,-17.762007,278.00768)"><path
       d="M 50.349,777.178 H 542.098"
       style="fill:none;stroke:#808080;stroke-width:0.62255;stroke-linecap:butt;stroke-linejoin:round;stroke-miterlimit:10;stroke-dasharray:none;stroke-opacity:1"
       id="path267" /></g><g
     id="g269"
     transform="matrix(0.35277776,0,0,-0.35277778,-17.762007,278.00768)"><path
       d="M 50.349,766.615 H 542.098"
       style="fill:none;stroke:#7f7f7f;stroke-width:0.62255;stroke-linecap:butt;stroke-linejoin:round;stroke-miterlimit:10;stroke-dasharray:none;stroke-opacity:1"
       id="path271" /></g><g
     id="g273"
     transform="matrix(0.35277776,0,0,-0.35277778,-17.762007,278.00768)"><path
       d="M 210.078,766.92 V 713.489"
       style="fill:none;stroke:#808080;stroke-width:0.62255;stroke-linecap:butt;stroke-linejoin:round;stroke-miterlimit:10;stroke-dasharray:none;stroke-opacity:1"
       id="path275" /></g><g
     id="g277"
     transform="matrix(0.35277776,0,0,-0.35277778,-17.762007,278.00768)"><path
       d="M 247.628,766.92 V 713.489"
       style="fill:none;stroke:#808080;stroke-width:0.62255;stroke-linecap:butt;stroke-linejoin:round;stroke-miterlimit:10;stroke-dasharray:none;stroke-opacity:1"
       id="path279" /></g><g
     id="g281"
     transform="matrix(0.35277776,0,0,-0.35277778,-17.762007,278.00768)"><path
       d="M 285.178,766.92 V 713.489"
       style="fill:none;stroke:#808080;stroke-width:0.62255;stroke-linecap:butt;stroke-linejoin:round;stroke-miterlimit:10;stroke-dasharray:none;stroke-opacity:1"
       id="path283" /></g><g
     id="g285"
     transform="matrix(0.35277776,0,0,-0.35277778,-17.762007,278.00768)"><path
       d="M 322.728,766.92 V 713.489"
       style="fill:none;stroke:#808080;stroke-width:0.62255;stroke-linecap:butt;stroke-linejoin:round;stroke-miterlimit:10;stroke-dasharray:none;stroke-opacity:1"
       id="path287" /></g><g
     id="g289"
     transform="matrix(0.35277776,0,0,-0.35277778,-17.762007,278.00768)"><path
       d="M 360.278,766.92 V 713.489"
       style="fill:none;stroke:#808080;stroke-width:0.62255;stroke-linecap:butt;stroke-linejoin:round;stroke-miterlimit:10;stroke-dasharray:none;stroke-opacity:1"
       id="path291" /></g><g
     id="g293"
     transform="matrix(0.35277776,0,0,-0.35277778,-17.762007,278.00768)"><path
       d="M 466.999,766.92 V 713.489"
       style="fill:none;stroke:#808080;stroke-width:0.62255;stroke-linecap:butt;stroke-linejoin:round;stroke-miterlimit:10;stroke-dasharray:none;stroke-opacity:1"
       id="path295" /></g><g
     id="g297"
     transform="matrix(0.35277776,0,0,-0.35277778,-17.762007,278.00768)"><path
       d="M 504.549,766.92 V 724.359"
       style="fill:none;stroke:#808080;stroke-width:0.62255;stroke-linecap:butt;stroke-linejoin:round;stroke-miterlimit:10;stroke-dasharray:none;stroke-opacity:1"
       id="path299" /></g><g
     id="g301"
     transform="matrix(0.35277776,0,0,-0.35277778,-17.762007,278.00768)"><path
       d="m 504.549,724.359 v -10.87"
       style="fill:none;stroke:#7f7f7f;stroke-width:0.62255;stroke-linecap:butt;stroke-linejoin:round;stroke-miterlimit:10;stroke-dasharray:none;stroke-opacity:1"
       id="path303" /></g><g
     id="g305"
     transform="matrix(0.35277776,0,0,-0.35277778,-17.762007,278.00768)"><path
       d="M 50.349,713.795 H 542.098"
       style="fill:none;stroke:#7f7f7f;stroke-width:0.62255;stroke-linecap:butt;stroke-linejoin:round;stroke-miterlimit:10;stroke-dasharray:none;stroke-opacity:1"
       id="path307" /></g><g
     id="g309"
     transform="matrix(0.35277776,0,0,-0.35277778,-17.762007,278.00768)"><path
       d="M 50.349,703.231 H 542.098"
       style="fill:none;stroke:#7f7f7f;stroke-width:0.62255;stroke-linecap:butt;stroke-linejoin:round;stroke-miterlimit:10;stroke-dasharray:none;stroke-opacity:1"
       id="path311" /></g><g
     id="g313"
     transform="matrix(0.35277776,0,0,-0.35277778,-17.762007,278.00768)"><path
       d="M 210.078,703.537 V 586.723"
       style="fill:none;stroke:#7f7f7f;stroke-width:0.62255;stroke-linecap:butt;stroke-linejoin:round;stroke-miterlimit:10;stroke-dasharray:none;stroke-opacity:1"
       id="path315" /></g><g
     id="g317"
     transform="matrix(0.35277776,0,0,-0.35277778,-17.762007,278.00768)"><path
       d="M 247.628,703.537 V 586.723"
       style="fill:none;stroke:#7f7f7f;stroke-width:0.62255;stroke-linecap:butt;stroke-linejoin:round;stroke-miterlimit:10;stroke-dasharray:none;stroke-opacity:1"
       id="path319" /></g><g
     id="g321"
     transform="matrix(0.35277776,0,0,-0.35277778,-17.762007,278.00768)"><path
       d="M 285.178,703.537 V 586.723"
       style="fill:none;stroke:#7f7f7f;stroke-width:0.62255;stroke-linecap:butt;stroke-linejoin:round;stroke-miterlimit:10;stroke-dasharray:none;stroke-opacity:1"
       id="path323" /></g><g
     id="g325"
     transform="matrix(0.35277776,0,0,-0.35277778,-17.762007,278.00768)"><path
       d="M 322.728,703.537 V 586.723"
       style="fill:none;stroke:#7f7f7f;stroke-width:0.62255;stroke-linecap:butt;stroke-linejoin:round;stroke-miterlimit:10;stroke-dasharray:none;stroke-opacity:1"
       id="path327" /></g><g
     id="g329"
     transform="matrix(0.35277776,0,0,-0.35277778,-17.762007,278.00768)"><path
       d="M 360.278,703.537 V 586.723"
       style="fill:none;stroke:#7f7f7f;stroke-width:0.62255;stroke-linecap:butt;stroke-linejoin:round;stroke-miterlimit:10;stroke-dasharray:none;stroke-opacity:1"
       id="path331" /></g><g
     id="g333"
     transform="matrix(0.35277776,0,0,-0.35277778,-17.762007,278.00768)"><path
       d="M 466.999,703.537 V 586.723"
       style="fill:none;stroke:#7f7f7f;stroke-width:0.62255;stroke-linecap:butt;stroke-linejoin:round;stroke-miterlimit:10;stroke-dasharray:none;stroke-opacity:1"
       id="path335" /></g><g
     id="g337"
     transform="matrix(0.35277776,0,0,-0.35277778,-17.762007,278.00768)"><path
       d="M 504.549,703.537 V 586.723"
       style="fill:none;stroke:#7f7f7f;stroke-width:0.62255;stroke-linecap:butt;stroke-linejoin:round;stroke-miterlimit:10;stroke-dasharray:none;stroke-opacity:1"
       id="path339" /></g><g
     id="g341"
     transform="matrix(0.35277776,0,0,-0.35277778,-17.762007,278.00768)"><path
       d="M 50.349,587.029 H 542.098"
       style="fill:none;stroke:#7f7f7f;stroke-width:0.62255;stroke-linecap:butt;stroke-linejoin:round;stroke-miterlimit:10;stroke-dasharray:none;stroke-opacity:1"
       id="path343" /></g><g
     id="g345"
     transform="matrix(0.35277776,0,0,-0.35277778,-17.762007,278.00768)"><text
       xml:space="preserve"
       transform="matrix(1,0,0,-1,51.196,780.002)"
       style="font-variant:normal;font-weight:normal;font-size:7.505px;font-family:'Source Code Pro';-inkscape-font-specification:'Source Code Pro';writing-mode:lr-tb;fill:#000000;fill-opacity:1;fill-rule:nonzero;stroke:none"
       id="text349"><tspan
         x="0 4.5029998 9.0059996 13.509 18.011999 22.514999 27.018 31.521 36.023998 40.527"
         y="0"
         sodipodi:role="line"
         id="tspan347"
         style="font-style:normal;font-variant:normal;font-weight:normal;font-stretch:normal;font-family:'Source Code Pro';-inkscape-font-specification:'Source Code Pro'">Time (min)</tspan></text></g><g
     id="g351"
     transform="matrix(0.35277776,0,0,-0.35277778,-17.762007,278.00768)"><text
       xml:space="preserve"
       transform="matrix(1,0,0,-1,224.406,779.79)"
       style="font-style:normal;font-variant:normal;font-weight:normal;font-stretch:normal;font-size:7.505px;font-family:'Source Code Pro';-inkscape-font-specification:'Source Code Pro';writing-mode:lr-tb;fill:#000000;fill-opacity:1;fill-rule:nonzero;stroke:none"
       id="text355"><tspan
         x="0 4.5029998"
         y="0"
         sodipodi:role="line"
         id="tspan353">15</tspan></text></g><g
     id="g357"
     transform="matrix(0.35277776,0,0,-0.35277778,-17.762007,278.00768)"><text
       xml:space="preserve"
       transform="matrix(1,0,0,-1,261.909,779.79)"
       style="font-variant:normal;font-weight:normal;font-size:7.505px;font-family:'Source Code Pro';-inkscape-font-specification:'Source Code Pro';writing-mode:lr-tb;fill:#000000;fill-opacity:1;fill-rule:nonzero;stroke:none"
       id="text361"><tspan
         x="0 4.5029998"
         y="0"
         sodipodi:role="line"
         id="tspan359">30</tspan></text></g><g
     id="g363"
     transform="matrix(0.35277776,0,0,-0.35277778,-17.762007,278.00768)"><text
       xml:space="preserve"
       transform="matrix(1,0,0,-1,299.506,779.79)"
       style="font-variant:normal;font-weight:normal;font-size:7.505px;font-family:'Source Code Pro';-inkscape-font-specification:'Source Code Pro';writing-mode:lr-tb;fill:#000000;fill-opacity:1;fill-rule:nonzero;stroke:none"
       id="text367"><tspan
         x="0 4.5029998"
         y="0"
         sodipodi:role="line"
         id="tspan365">45</tspan></text></g><g
     id="g369"
     transform="matrix(0.35277776,0,0,-0.35277778,-17.762007,278.00768)"><text
       xml:space="preserve"
       transform="matrix(1,0,0,-1,337.009,779.79)"
       style="font-variant:normal;font-weight:normal;font-size:7.505px;font-family:'Source Code Pro';-inkscape-font-specification:'Source Code Pro';writing-mode:lr-tb;fill:#000000;fill-opacity:1;fill-rule:nonzero;stroke:none"
       id="text373"><tspan
         x="0 4.5029998"
         y="0"
         sodipodi:role="line"
         id="tspan371">60</tspan></text></g><g
     id="g375"
     transform="matrix(0.35277776,0,0,-0.35277778,-17.762007,278.00768)"><text
       xml:space="preserve"
       transform="matrix(1,0,0,-1,393.404,779.79)"
       style="font-style:normal;font-variant:normal;font-weight:normal;font-stretch:normal;font-size:7.505px;font-family:'Source Code Pro';-inkscape-font-specification:'Source Code Pro';writing-mode:lr-tb;fill:#000000;fill-opacity:1;fill-rule:nonzero;stroke:none"
       id="text379"><tspan
         x="0 4.5029998 9.0059996 13.509 18.011999 22.514999 27.018 31.521 36.023998"
         y="0"
         sodipodi:role="line"
         id="tspan377">75 .. 330</tspan></text></g><g
     id="g381"
     transform="matrix(0.35277776,0,0,-0.35277778,-17.762007,278.00768)"><text
       xml:space="preserve"
       transform="matrix(1,0,0,-1,478.998,779.79)"
       style="font-style:normal;font-variant:normal;font-weight:normal;font-stretch:normal;font-size:7.505px;font-family:'Source Code Pro';-inkscape-font-specification:'Source Code Pro';writing-mode:lr-tb;fill:#000000;fill-opacity:1;fill-rule:nonzero;stroke:none"
       id="text385"><tspan
         x="0 4.5029998 9.0059996"
         y="0"
         sodipodi:role="line"
         id="tspan383">345</tspan></text></g><g
     id="g387"
     transform="matrix(0.35277776,0,0,-0.35277778,-17.762007,278.00768)"><text
       xml:space="preserve"
       transform="matrix(1,0,0,-1,516.595,779.79)"
       style="font-variant:normal;font-weight:normal;font-size:7.505px;font-family:'Source Code Pro';-inkscape-font-specification:'Source Code Pro';writing-mode:lr-tb;fill:#000000;fill-opacity:1;fill-rule:nonzero;stroke:none"
       id="text391"><tspan
         x="0 4.5029998 9.0059996"
         y="0"
         sodipodi:role="line"
         id="tspan389">360</tspan></text></g><g
     id="g393"
     transform="matrix(0.35277776,0,0,-0.35277778,-17.762007,278.00768)"><text
       xml:space="preserve"
       transform="matrix(1,0,0,-1,51.196,758.898)"
       style="font-variant:normal;font-weight:normal;font-size:7.505px;font-family:'Source Code Pro';-inkscape-font-specification:'Source Code Pro';writing-mode:lr-tb;fill:#000000;fill-opacity:1;fill-rule:nonzero;stroke:none"
       id="text397"><tspan
         x="0 4.5029998 9.0059996 13.509 18.011999 22.514999 27.018 31.521 36.023998"
         y="0"
         sodipodi:role="line"
         id="tspan395">Base case</tspan></text></g><g
     id="g399"
     transform="matrix(0.35277776,0,0,-0.35277778,-17.762007,278.00768)"><text
       xml:space="preserve"
       transform="matrix(1,0,0,-1,51.196,748.287)"
       style="font-variant:normal;font-weight:normal;font-size:7.505px;font-family:'Source Code Pro';-inkscape-font-specification:'Source Code Pro';writing-mode:lr-tb;fill:#000000;fill-opacity:1;fill-rule:nonzero;stroke:none"
       id="text403"><tspan
         x="0 4.5029998 9.0059996 13.509 18.011999 22.514999 27.018 31.521 36.023998"
         y="0"
         sodipodi:role="line"
         id="tspan401">Fill/draw</tspan></text></g><g
     id="g405"
     transform="matrix(0.35277776,0,0,-0.35277778,-17.762007,278.00768)"><text
       xml:space="preserve"
       transform="matrix(1,0,0,-1,51.196,737.699)"
       style="font-variant:normal;font-weight:normal;font-size:7.505px;font-family:'Source Code Pro';-inkscape-font-specification:'Source Code Pro';writing-mode:lr-tb;fill:#000000;fill-opacity:1;fill-rule:nonzero;stroke:none"
       id="text409"><tspan
         x="0 4.5029998 9.0059996 13.509 18.011999 22.514999 27.018 31.521 36.023998 40.527 45.029999 49.533001 54.035999 58.539001 63.042 67.544998 72.047997"
         y="0"
         sodipodi:role="line"
         id="tspan407">Reaction/aeration</tspan></text></g><g
     id="g411"
     transform="matrix(0.35277776,0,0,-0.35277778,-17.762007,278.00768)"><text
       xml:space="preserve"
       transform="matrix(1,0,0,-1,51.196,727.182)"
       style="font-variant:normal;font-weight:normal;font-size:7.505px;font-family:'Source Code Pro';-inkscape-font-specification:'Source Code Pro';writing-mode:lr-tb;fill:#000000;fill-opacity:1;fill-rule:nonzero;stroke:none"
       id="text415"><tspan
         x="0 4.5029998 9.0059996 13.509 18.011999 22.514999 27.018 31.521"
         y="0"
         sodipodi:role="line"
         id="tspan413">Settling</tspan></text></g><g
     id="g417"
     transform="matrix(0.35277776,0,0,-0.35277778,-17.762007,278.00768)"><text
       xml:space="preserve"
       transform="matrix(1,0,0,-1,51.196,716.595)"
       style="font-variant:normal;font-weight:normal;font-size:7.505px;font-family:'Source Code Pro';-inkscape-font-specification:'Source Code Pro';writing-mode:lr-tb;fill:#000000;fill-opacity:1;fill-rule:nonzero;stroke:none"
       id="text421"><tspan
         x="0 4.5029998 9.0059996 13.509 18.011999 22.514999 27.018 31.521 36.023998 40.527 45.029999 49.533001 54.035999 58.539001 63.042 67.544998"
         y="0"
         sodipodi:role="line"
         id="tspan419">Sludge selection</tspan></text></g><g
     id="g423"
     transform="matrix(0.35277776,0,0,-0.35277778,-17.762007,278.00768)"><text
       xml:space="preserve"
       transform="matrix(1,0,0,-1,536.805,716.595)"
       style="font-variant:normal;font-weight:normal;font-size:7.505px;font-family:'Source Code Pro';-inkscape-font-specification:'Source Code Pro';writing-mode:lr-tb;fill:#000000;fill-opacity:1;fill-rule:nonzero;stroke:none"
       id="text427"><tspan
         x="0"
         y="0"
         id="tspan425">•</tspan></text></g><g
     id="g429"
     transform="matrix(0.35277776,0,0,-0.35277778,-17.762007,278.00768)"><text
       xml:space="preserve"
       transform="matrix(1,0,0,-1,51.196,695.491)"
       style="font-variant:normal;font-weight:normal;font-size:7.505px;font-family:'Source Code Pro';-inkscape-font-specification:'Source Code Pro';writing-mode:lr-tb;fill:#000000;fill-opacity:1;fill-rule:nonzero;stroke:none"
       id="text433"><tspan
         x="0 4.5029998 9.0059996 13.509 18.011999 22.514999 27.018 31.521 36.023998 40.527 45.029999 49.533001 54.035999 58.539001 63.042 67.544998 72.047997 76.551003"
         y="0"
         sodipodi:role="line"
         id="tspan431">Processes modelled</tspan></text></g><g
     id="g435"
     transform="matrix(0.35277776,0,0,-0.35277778,-17.762007,278.00768)"><text
       xml:space="preserve"
       transform="matrix(1,0,0,-1,51.196,684.88)"
       style="font-variant:normal;font-weight:normal;font-size:7.505px;font-family:'Source Code Pro';-inkscape-font-specification:'Source Code Pro';writing-mode:lr-tb;fill:#000000;fill-opacity:1;fill-rule:nonzero;stroke:none"
       id="text439"><tspan
         x="0 4.5029998 9.0059996 13.509 18.011999 22.514999 27.018 31.521 36.023998 40.527 45.029999 49.533001 54.035999 58.539001 63.042 67.544998 72.047997 76.551003 81.054001 85.556999 90.059998 94.563004 99.066002 103.569 108.072 112.575 117.078 121.581 126.084 130.58701 135.09 139.593 144.09599 148.599"
         y="0"
         sodipodi:role="line"
         id="tspan437">Convective transport of substrates</tspan></text></g><g
     id="g441"
     transform="matrix(0.35277776,0,0,-0.35277778,-17.762007,278.00768)"><text
       xml:space="preserve"
       transform="matrix(1,0,0,-1,51.196,674.292)"
       style="font-variant:normal;font-weight:normal;font-size:7.505px;font-family:'Source Code Pro';-inkscape-font-specification:'Source Code Pro';writing-mode:lr-tb;fill:#000000;fill-opacity:1;fill-rule:nonzero;stroke:none"
       id="text445"><tspan
         x="0 4.5029998 9.0059996 13.509 18.011999 22.514999 27.018 31.521 36.023998 40.527 45.029999 49.533001 54.035999 58.539001 63.042 67.544998 72.047997 76.551003 81.054001 85.556999 90.059998 94.563004 99.066002 103.569"
         y="0"
         sodipodi:role="line"
         id="tspan443">Dispersion of substrates</tspan></text></g><g
     id="g447"
     transform="matrix(0.35277776,0,0,-0.35277778,-17.762007,278.00768)"><text
       xml:space="preserve"
       transform="matrix(1,0,0,-1,51.196,663.799)"
       style="font-variant:normal;font-weight:normal;font-size:7.505px;font-family:'Source Code Pro';-inkscape-font-specification:'Source Code Pro';writing-mode:lr-tb;fill:#000000;fill-opacity:1;fill-rule:nonzero;stroke:none"
       id="text451"><tspan
         x="0 4.5029998 9.0059996 13.509 18.011999 22.514999 27.018 31.521 36.023998 40.527 45.029999 49.533001 54.035999 58.539001 63.042 67.544998 72.047997 76.551003 81.054001 85.556999 90.059998 94.563004 99.066002 103.569 108.072 112.575 117.078 121.581"
         y="0"
         sodipodi:role="line"
         id="tspan449">Settling of granule clusters</tspan></text></g><g
     id="g453"
     transform="matrix(0.35277776,0,0,-0.35277778,-17.762007,278.00768)"><text
       xml:space="preserve"
       transform="matrix(1,0,0,-1,51.196,653.188)"
       style="font-variant:normal;font-weight:normal;font-size:7.505px;font-family:'Source Code Pro';-inkscape-font-specification:'Source Code Pro';writing-mode:lr-tb;fill:#000000;fill-opacity:1;fill-rule:nonzero;stroke:none"
       id="text457"><tspan
         x="0 4.5029998 9.0059996 13.509 18.011999 22.514999 27.018 31.521 36.023998 40.527 45.029999 49.533001 54.035999 58.539001 63.042 67.544998 72.047997"
         y="0"
         sodipodi:role="line"
         id="tspan455">GFS uptake to PHA</tspan></text></g><g
     id="g459"
     transform="matrix(0.35277776,0,0,-0.35277778,-17.762007,278.00768)"><text
       xml:space="preserve"
       transform="matrix(1,0,0,-1,51.196,642.695)"
       style="font-variant:normal;font-weight:normal;font-size:7.505px;font-family:'Source Code Pro';-inkscape-font-specification:'Source Code Pro';writing-mode:lr-tb;fill:#000000;fill-opacity:1;fill-rule:nonzero;stroke:none"
       id="text463"><tspan
         x="0 4.5029998 9.0059996 13.509 18.011999 22.514999 27.018 31.521 36.023998 40.527 45.029999 49.533001 54.035999 58.539001 63.042 67.544998 72.047997 76.551003 81.054001 85.556999 90.059998 94.563004 99.066002 103.569 108.072 112.575"
         y="0"
         sodipodi:role="line"
         id="tspan461">Growth of particles on PHA</tspan></text></g><g
     id="g465"
     transform="matrix(0.35277776,0,0,-0.35277778,-17.762007,278.00768)"><text
       xml:space="preserve"
       transform="matrix(1,0,0,-1,411.403,642.695)"
       style="font-variant:normal;font-weight:normal;font-size:7.505px;font-family:'Source Code Pro';-inkscape-font-specification:'Source Code Pro';writing-mode:lr-tb;fill:#000000;fill-opacity:1;fill-rule:nonzero;stroke:none"
       id="text469"><tspan
         x="0"
         y="0"
         id="tspan467">•</tspan></text></g><g
     id="g471"
     transform="matrix(0.35277776,0,0,-0.35277778,-17.762007,278.00768)"><text
       xml:space="preserve"
       transform="matrix(1,0,0,-1,51.196,632.084)"
       style="font-variant:normal;font-weight:normal;font-size:7.505px;font-family:'Source Code Pro';-inkscape-font-specification:'Source Code Pro';writing-mode:lr-tb;fill:#000000;fill-opacity:1;fill-rule:nonzero;stroke:none"
       id="text475"><tspan
         x="0 4.5029998 9.0059996 13.509 18.011999 22.514999 27.018 31.521 36.023998 40.527 45.029999 49.533001 54.035999 58.539001 63.042 67.544998 72.047997 76.551003 81.054001 85.556999 90.059998 94.563004 99.066002 103.569 108.072 112.575 117.078 121.581"
         y="0"
         sodipodi:role="line"
         id="tspan473">Formation of flocs from nGFS</tspan></text></g><g
     id="g477"
     transform="matrix(0.35277776,0,0,-0.35277778,-17.762007,278.00768)"><text
       xml:space="preserve"
       transform="matrix(1,0,0,-1,411.403,632.084)"
       style="font-variant:normal;font-weight:normal;font-size:7.505px;font-family:'Source Code Pro';-inkscape-font-specification:'Source Code Pro';writing-mode:lr-tb;fill:#000000;fill-opacity:1;fill-rule:nonzero;stroke:none"
       id="text481"><tspan
         x="0"
         y="0"
         id="tspan479">•</tspan></text></g><g
     id="g483"
     transform="matrix(0.35277776,0,0,-0.35277778,-17.762007,278.00768)"><text
       xml:space="preserve"
       transform="matrix(1,0,0,-1,51.196,621.497)"
       style="font-variant:normal;font-weight:normal;font-size:7.505px;font-family:'Source Code Pro';-inkscape-font-specification:'Source Code Pro';writing-mode:lr-tb;fill:#000000;fill-opacity:1;fill-rule:nonzero;stroke:none"
       id="text487"><tspan
         x="0 4.5029998 9.0059996 13.509 18.011999 22.514999 27.018 31.521 36.023998 40.527 45.029999 49.533001 54.035999 58.539001 63.042 67.544998 72.047997 76.551003 81.054001 85.556999 90.059998 94.563004 99.066002 103.569 108.072 112.575"
         y="0"
         sodipodi:role="line"
         id="tspan485">Breakage of large granules</tspan></text></g><g
     id="g489"
     transform="matrix(0.35277776,0,0,-0.35277778,-17.762007,278.00768)"><text
       xml:space="preserve"
       transform="matrix(1,0,0,-1,411.403,621.497)"
       style="font-variant:normal;font-weight:normal;font-size:7.505px;font-family:'Source Code Pro';-inkscape-font-specification:'Source Code Pro';writing-mode:lr-tb;fill:#000000;fill-opacity:1;fill-rule:nonzero;stroke:none"
       id="text493"><tspan
         x="0"
         y="0"
         id="tspan491">•</tspan></text></g><g
     id="g495"
     transform="matrix(0.35277776,0,0,-0.35277778,-17.762007,278.00768)"><text
       xml:space="preserve"
       transform="matrix(1,0,0,-1,51.196,610.98)"
       style="font-variant:normal;font-weight:normal;font-size:7.505px;font-family:'Source Code Pro';-inkscape-font-specification:'Source Code Pro';writing-mode:lr-tb;fill:#000000;fill-opacity:1;fill-rule:nonzero;stroke:none"
       id="text499"><tspan
         x="0 4.5029998 9.0059996 13.509 18.011999 22.514999 27.018 31.521 36.023998 40.527 45.029999 49.533001 54.035999 58.539001 63.042 67.544998 72.047997 76.551003 81.054001 85.556999 90.059998 94.563004 99.066002 103.569 108.072 112.575"
         y="0"
         sodipodi:role="line"
         id="tspan497">Redistribution of clusters</tspan></text></g><g
     id="g501"
     transform="matrix(0.35277776,0,0,-0.35277778,-17.762007,278.00768)"><text
       xml:space="preserve"
       transform="matrix(1,0,0,-1,411.403,610.98)"
       style="font-variant:normal;font-weight:normal;font-size:7.505px;font-family:'Source Code Pro';-inkscape-font-specification:'Source Code Pro';writing-mode:lr-tb;fill:#000000;fill-opacity:1;fill-rule:nonzero;stroke:none"
       id="text505"><tspan
         x="0"
         y="0"
         id="tspan503">•</tspan></text></g><g
     id="g507"
     transform="matrix(0.35277776,0,0,-0.35277778,-17.762007,278.00768)"><text
       xml:space="preserve"
       transform="matrix(1,0,0,-1,51.196,600.392)"
       style="font-variant:normal;font-weight:normal;font-size:7.505px;font-family:'Source Code Pro';-inkscape-font-specification:'Source Code Pro';writing-mode:lr-tb;fill:#000000;fill-opacity:1;fill-rule:nonzero;stroke:none"
       id="text511"><tspan
         x="0 4.5029998 9.0059996 13.509 18.011999 22.514999 27.018 31.521 36.023998 40.527 45.029999 49.533001 54.035999 58.539001 63.042 67.544998 72.047997 76.551003 81.054001 85.556999 90.059998 94.563004 99.066002 103.569 108.072"
         y="0"
         sodipodi:role="line"
         id="tspan509">Selective biomass wasting</tspan></text></g><g
     id="g513"
     transform="matrix(0.35277776,0,0,-0.35277778,-17.762007,278.00768)"><text
       xml:space="preserve"
       transform="matrix(1,0,0,-1,536.805,600.392)"
       style="font-variant:normal;font-weight:normal;font-size:7.505px;font-family:'Source Code Pro';-inkscape-font-specification:'Source Code Pro';writing-mode:lr-tb;fill:#000000;fill-opacity:1;fill-rule:nonzero;stroke:none"
       id="text517"><tspan
         x="0"
         y="0"
         id="tspan515">•</tspan></text></g><g
     id="g519"
     transform="matrix(0.35277776,0,0,-0.35277778,-17.762007,278.00768)"><text
       xml:space="preserve"
       transform="matrix(1,0,0,-1,51.196,589.781)"
       style="font-variant:normal;font-weight:normal;font-size:7.505px;font-family:'Source Code Pro';-inkscape-font-specification:'Source Code Pro';writing-mode:lr-tb;fill:#000000;fill-opacity:1;fill-rule:nonzero;stroke:none"
       id="text523"><tspan
         x="0 4.5029998 9.0059996 13.509 18.011999 22.514999 27.018 31.521 36.023998 40.527 45.029999 49.533001 54.035999 58.539001 63.042 67.544998 72.047997 76.551003 81.054001 85.556999 90.059998"
         y="0"
         sodipodi:role="line"
         id="tspan521">Mixed biomass wasting</tspan></text></g><g
     id="g525"
     transform="matrix(0.35277776,0,0,-0.35277778,-17.762007,278.00768)"><text
       xml:space="preserve"
       transform="matrix(1,0,0,-1,411.403,589.781)"
       style="font-variant:normal;font-weight:normal;font-size:7.505px;font-family:'Source Code Pro';-inkscape-font-specification:'Source Code Pro';writing-mode:lr-tb;fill:#000000;fill-opacity:1;fill-rule:nonzero;stroke:none"
       id="text529"><tspan
         x="0"
         y="0"
         id="tspan527">•</tspan></text></g><g
     id="g531"
     transform="matrix(0.35277776,0,0,-0.35277778,-17.762007,278.00768)"><text
       xml:space="preserve"
       transform="matrix(1,0,0,-1,361.101,568.701)"
       style="font-variant:normal;font-weight:normal;font-size:7.505px;font-family:'Source Code Pro';-inkscape-font-specification:'Source Code Pro';writing-mode:lr-tb;fill:#000000;fill-opacity:1;fill-rule:nonzero;stroke:none"
       id="text535"><tspan
         x="0 4.5029998 9.0059996 13.509 18.011999 22.514999 27.018 31.521 36.023998 40.527 45.029999"
         y="0"
         sodipodi:role="line"
         id="tspan533"
         style="font-style:normal;font-variant:normal;font-weight:normal;font-stretch:normal;font-family:'Source Code Pro';-inkscape-font-specification:'Source Code Pro'">Cycle phase</tspan></text></g><g
     id="g537"
     transform="matrix(0.35277776,0,0,-0.35277778,-17.762007,278.00768)"><text
       xml:space="preserve"
       transform="matrix(1,0,0,-1,361.101,558.09)"
       style="font-style:normal;font-variant:normal;font-weight:normal;font-stretch:normal;font-size:7.505px;font-family:'Source Code Variable';-inkscape-font-specification:'Source Code Variable';writing-mode:lr-tb;fill:#000000;fill-opacity:1;fill-rule:nonzero;stroke:none"
       id="text541"><tspan
         x="0 4.5029998 9.0059996 13.509 18.011999 22.514999 27.018 31.521 36.023998 40.527 45.029999 49.533001 54.035999 58.539001 63.042 67.544998 72.047997 76.551003 81.054001 85.556999 90.059998 94.563004"
         y="0"
         sodipodi:role="line"
         id="tspan539">Time dependent process</tspan></text></g><g
     id="g543"
     transform="matrix(0.35277776,0,0,-0.35277778,-17.762007,278.00768)"><text
       xml:space="preserve"
       transform="matrix(1,0,0,-1,339.291,547.597)"
       style="font-variant:normal;font-weight:normal;font-size:7.505px;font-family:'Source Code Pro';-inkscape-font-specification:'Source Code Pro';writing-mode:lr-tb;fill:#000000;fill-opacity:1;fill-rule:nonzero;stroke:none"
       id="text547"><tspan
         x="0"
         y="0"
         id="tspan545">•</tspan></text></g><g
     id="g549"
     transform="matrix(0.35277776,0,0,-0.35277778,-17.762007,278.00768)"><text
       xml:space="preserve"
       transform="matrix(1,0,0,-1,361.101,547.597)"
       style="font-variant:normal;font-weight:normal;font-size:7.505px;font-family:'Source Code Pro';-inkscape-font-specification:'Source Code Pro';writing-mode:lr-tb;fill:#000000;fill-opacity:1;fill-rule:nonzero;stroke:none;font-style:normal;font-stretch:normal"
       id="text553"><tspan
         x="0 4.5029998 9.0059996 13.509 18.011999 22.514999 27.018 31.521 36.023998 40.527 45.029999 49.533001 54.035999 58.539001 63.042 67.544998 72.047997 76.551003 81.054001 85.556999 90.059998"
         y="0"
         sodipodi:role="line"
         id="tspan551">Instantaneous process</tspan></text></g></svg>
