<?xml version="1.0" encoding="utf-8" standalone="no"?>
<!DOCTYPE svg PUBLIC "-//W3C//DTD SVG 1.1//EN"
  "http://www.w3.org/Graphics/SVG/1.1/DTD/svg11.dtd">
<svg xmlns:xlink="http://www.w3.org/1999/xlink" width="621.2pt" height="238.2575pt" viewBox="0 0 621.2 238.2575" xmlns="http://www.w3.org/2000/svg" version="1.1">
 <metadata>
  <rdf:RDF xmlns:dc="http://purl.org/dc/elements/1.1/" xmlns:cc="http://creativecommons.org/ns#" xmlns:rdf="http://www.w3.org/1999/02/22-rdf-syntax-ns#">
   <cc:Work>
    <dc:type rdf:resource="http://purl.org/dc/dcmitype/StillImage"/>
    <dc:date>2022-10-07T11:50:47.047364</dc:date>
    <dc:format>image/svg+xml</dc:format>
    <dc:creator>
     <cc:Agent>
      <dc:title>Matplotlib v3.5.2, https://matplotlib.org/</dc:title>
     </cc:Agent>
    </dc:creator>
   </cc:Work>
  </rdf:RDF>
 </metadata>
 <defs>
  <style type="text/css">*{stroke-linejoin: round; stroke-linecap: butt}</style>
 </defs>
 <g id="figure_1">
  <g id="patch_1">
   <path d="M 0 238.2575 
L 621.2 238.2575 
L 621.2 0 
L 0 0 
z
" style="fill: #ffffff"/>
  </g>
  <g id="axes_1">
   <g id="patch_2">
    <path d="M 47.36 203.34 
L 605.36 203.34 
L 605.36 37.02 
L 47.36 37.02 
z
" style="fill: #ffffff"/>
   </g>
   <g id="matplotlib.axis_1">
    <g id="xtick_1">
     <g id="line2d_1">
      <path d="M 47.36 203.34 
L 47.36 37.02 
" clip-path="url(#p96f0f3768c)" style="fill: none; stroke: #dddddd; stroke-linecap: square"/>
     </g>
     <g id="line2d_2">
      <defs>
       <path id="mbe84a615ee" d="M 0 0 
L 0 3.5 
" style="stroke: #000000"/>
      </defs>
      <g>
       <use xlink:href="#mbe84a615ee" x="47.36" y="203.34" style="stroke: #000000"/>
      </g>
     </g>
     <g id="text_1">
      <text style="font: 12px 'Source Code Pro'; text-anchor: middle" x="47.36" y="218.884375" transform="rotate(-0, 47.36, 218.884375)">0.25</text>
     </g>
    </g>
    <g id="xtick_2">
     <g id="line2d_3">
      <path d="M 117.11 203.34 
L 117.11 37.02 
" clip-path="url(#p96f0f3768c)" style="fill: none; stroke: #dddddd; stroke-linecap: square"/>
     </g>
     <g id="line2d_4">
      <g>
       <use xlink:href="#mbe84a615ee" x="117.11" y="203.34" style="stroke: #000000"/>
      </g>
     </g>
     <g id="text_2">
      <text style="font: 12px 'Source Code Pro'; text-anchor: middle" x="117.11" y="218.884375" transform="rotate(-0, 117.11, 218.884375)">0.50</text>
     </g>
    </g>
    <g id="xtick_3">
     <g id="line2d_5">
      <path d="M 186.86 203.34 
L 186.86 37.02 
" clip-path="url(#p96f0f3768c)" style="fill: none; stroke: #dddddd; stroke-linecap: square"/>
     </g>
     <g id="line2d_6">
      <g>
       <use xlink:href="#mbe84a615ee" x="186.86" y="203.34" style="stroke: #000000"/>
      </g>
     </g>
     <g id="text_3">
      <text style="font: 12px 'Source Code Pro'; text-anchor: middle" x="186.86" y="218.884375" transform="rotate(-0, 186.86, 218.884375)">0.75</text>
     </g>
    </g>
    <g id="xtick_4">
     <g id="line2d_7">
      <path d="M 256.61 203.34 
L 256.61 37.02 
" clip-path="url(#p96f0f3768c)" style="fill: none; stroke: #dddddd; stroke-linecap: square"/>
     </g>
     <g id="line2d_8">
      <g>
       <use xlink:href="#mbe84a615ee" x="256.61" y="203.34" style="stroke: #000000"/>
      </g>
     </g>
     <g id="text_4">
      <text style="font: 12px 'Source Code Pro'; text-anchor: middle" x="256.61" y="218.884375" transform="rotate(-0, 256.61, 218.884375)">1.00</text>
     </g>
    </g>
    <g id="xtick_5">
     <g id="line2d_9">
      <path d="M 326.36 203.34 
L 326.36 37.02 
" clip-path="url(#p96f0f3768c)" style="fill: none; stroke: #dddddd; stroke-linecap: square"/>
     </g>
     <g id="line2d_10">
      <g>
       <use xlink:href="#mbe84a615ee" x="326.36" y="203.34" style="stroke: #000000"/>
      </g>
     </g>
     <g id="text_5">
      <text style="font: 12px 'Source Code Pro'; text-anchor: middle" x="326.36" y="218.884375" transform="rotate(-0, 326.36, 218.884375)">1.25</text>
     </g>
    </g>
    <g id="xtick_6">
     <g id="line2d_11">
      <path d="M 396.11 203.34 
L 396.11 37.02 
" clip-path="url(#p96f0f3768c)" style="fill: none; stroke: #dddddd; stroke-linecap: square"/>
     </g>
     <g id="line2d_12">
      <g>
       <use xlink:href="#mbe84a615ee" x="396.11" y="203.34" style="stroke: #000000"/>
      </g>
     </g>
     <g id="text_6">
      <text style="font: 12px 'Source Code Pro'; text-anchor: middle" x="396.11" y="218.884375" transform="rotate(-0, 396.11, 218.884375)">1.50</text>
     </g>
    </g>
    <g id="xtick_7">
     <g id="line2d_13">
      <path d="M 465.86 203.34 
L 465.86 37.02 
" clip-path="url(#p96f0f3768c)" style="fill: none; stroke: #dddddd; stroke-linecap: square"/>
     </g>
     <g id="line2d_14">
      <g>
       <use xlink:href="#mbe84a615ee" x="465.86" y="203.34" style="stroke: #000000"/>
      </g>
     </g>
     <g id="text_7">
      <text style="font: 12px 'Source Code Pro'; text-anchor: middle" x="465.86" y="218.884375" transform="rotate(-0, 465.86, 218.884375)">1.75</text>
     </g>
    </g>
    <g id="xtick_8">
     <g id="line2d_15">
      <path d="M 535.61 203.34 
L 535.61 37.02 
" clip-path="url(#p96f0f3768c)" style="fill: none; stroke: #dddddd; stroke-linecap: square"/>
     </g>
     <g id="line2d_16">
      <g>
       <use xlink:href="#mbe84a615ee" x="535.61" y="203.34" style="stroke: #000000"/>
      </g>
     </g>
     <g id="text_8">
      <text style="font: 12px 'Source Code Pro'; text-anchor: middle" x="535.61" y="218.884375" transform="rotate(-0, 535.61, 218.884375)">2.00</text>
     </g>
    </g>
    <g id="xtick_9">
     <g id="line2d_17">
      <path d="M 605.36 203.34 
L 605.36 37.02 
" clip-path="url(#p96f0f3768c)" style="fill: none; stroke: #dddddd; stroke-linecap: square"/>
     </g>
     <g id="line2d_18">
      <g>
       <use xlink:href="#mbe84a615ee" x="605.36" y="203.34" style="stroke: #000000"/>
      </g>
     </g>
     <g id="text_9">
      <text style="font: 12px 'Source Code Pro'; text-anchor: middle" x="605.36" y="218.884375" transform="rotate(-0, 605.36, 218.884375)">2.25</text>
     </g>
    </g>
    <g id="text_10">
     <text style="font: 12px 'Source Code Pro'; text-anchor: middle" x="326.36" y="234.12875" transform="rotate(-0, 326.36, 234.12875)">granule size (mm)</text>
    </g>
   </g>
   <g id="matplotlib.axis_2">
    <g id="ytick_1">
     <g id="line2d_19">
      <path d="M 47.36 203.34 
L 605.36 203.34 
" clip-path="url(#p96f0f3768c)" style="fill: none; stroke: #dddddd; stroke-linecap: square"/>
     </g>
     <g id="line2d_20">
      <defs>
       <path id="mc53d9c21ee" d="M 0 0 
L -3.5 0 
" style="stroke: #000000"/>
      </defs>
      <g>
       <use xlink:href="#mc53d9c21ee" x="47.36" y="203.34" style="stroke: #000000"/>
      </g>
     </g>
     <g id="text_11">
      <text style="font: 12px 'Source Code Pro'; text-anchor: end" x="40.36" y="207.612188" transform="rotate(-0, 40.36, 207.612188)">0</text>
     </g>
    </g>
    <g id="ytick_2">
     <g id="line2d_21">
      <path d="M 47.36 170.076 
L 605.36 170.076 
" clip-path="url(#p96f0f3768c)" style="fill: none; stroke: #dddddd; stroke-linecap: square"/>
     </g>
     <g id="line2d_22">
      <g>
       <use xlink:href="#mc53d9c21ee" x="47.36" y="170.076" style="stroke: #000000"/>
      </g>
     </g>
     <g id="text_12">
      <text style="font: 12px 'Source Code Pro'; text-anchor: end" x="40.36" y="174.348188" transform="rotate(-0, 40.36, 174.348188)">20</text>
     </g>
    </g>
    <g id="ytick_3">
     <g id="line2d_23">
      <path d="M 47.36 136.812 
L 605.36 136.812 
" clip-path="url(#p96f0f3768c)" style="fill: none; stroke: #dddddd; stroke-linecap: square"/>
     </g>
     <g id="line2d_24">
      <g>
       <use xlink:href="#mc53d9c21ee" x="47.36" y="136.812" style="stroke: #000000"/>
      </g>
     </g>
     <g id="text_13">
      <text style="font: 12px 'Source Code Pro'; text-anchor: end" x="40.36" y="141.084188" transform="rotate(-0, 40.36, 141.084188)">40</text>
     </g>
    </g>
    <g id="ytick_4">
     <g id="line2d_25">
      <path d="M 47.36 103.548 
L 605.36 103.548 
" clip-path="url(#p96f0f3768c)" style="fill: none; stroke: #dddddd; stroke-linecap: square"/>
     </g>
     <g id="line2d_26">
      <g>
       <use xlink:href="#mc53d9c21ee" x="47.36" y="103.548" style="stroke: #000000"/>
      </g>
     </g>
     <g id="text_14">
      <text style="font: 12px 'Source Code Pro'; text-anchor: end" x="40.36" y="107.820188" transform="rotate(-0, 40.36, 107.820188)">60</text>
     </g>
    </g>
    <g id="ytick_5">
     <g id="line2d_27">
      <path d="M 47.36 70.284 
L 605.36 70.284 
" clip-path="url(#p96f0f3768c)" style="fill: none; stroke: #dddddd; stroke-linecap: square"/>
     </g>
     <g id="line2d_28">
      <g>
       <use xlink:href="#mc53d9c21ee" x="47.36" y="70.284" style="stroke: #000000"/>
      </g>
     </g>
     <g id="text_15">
      <text style="font: 12px 'Source Code Pro'; text-anchor: end" x="40.36" y="74.556188" transform="rotate(-0, 40.36, 74.556188)">80</text>
     </g>
    </g>
    <g id="ytick_6">
     <g id="line2d_29">
      <path d="M 47.36 37.02 
L 605.36 37.02 
" clip-path="url(#p96f0f3768c)" style="fill: none; stroke: #dddddd; stroke-linecap: square"/>
     </g>
     <g id="line2d_30">
      <g>
       <use xlink:href="#mc53d9c21ee" x="47.36" y="37.02" style="stroke: #000000"/>
      </g>
     </g>
     <g id="text_16">
      <text style="font: 12px 'Source Code Pro'; text-anchor: end" x="40.36" y="41.292188" transform="rotate(-0, 40.36, 41.292188)">100</text>
     </g>
    </g>
    <g id="text_17">
     <!-- terminal velocity $\mathrm{(m\ h^{-1})}}$ -->
     <g transform="translate(12.24 207.72)rotate(-90)">
      <text>
       <tspan style="font: 12px 'Source Code Pro'" x="0 7.199997 14.399994 21.599991 28.799988 35.999985 43.199982 50.399979 57.599976 64.799973 71.999969 79.199966 86.399963 93.59996 100.799957 107.999954 115.199951 122.399948" y="-0.28125">terminal velocity </tspan>
       <tspan style="font: 12px 'DejaVu Sans'" x="129.599945 134.281586 149.867484 170.298539" y="-0.28125">(mh)</tspan>
       <tspan style="font: 8.4px 'DejaVu Sans'" x="157.587797 164.626078" y="-4.875">−1</tspan>
      </text>
     </g>
    </g>
   </g>
   <g id="PathCollection_1">
    <defs>
     <path id="m79b3e70336" d="M 0 4 
C 1.060812 4 2.078319 3.578535 2.828427 2.828427 
C 3.578535 2.078319 4 1.060812 4 0 
C 4 -1.060812 3.578535 -2.078319 2.828427 -2.828427 
C 2.078319 -3.578535 1.060812 -4 0 -4 
C -1.060812 -4 -2.078319 -3.578535 -2.828427 -2.828427 
C -3.578535 -2.078319 -4 -1.060812 -4 0 
C -4 1.060812 -3.578535 2.078319 -2.828427 2.828427 
C -2.078319 3.578535 -1.060812 4 0 4 
z
" style="stroke: #00a6d6"/>
    </defs>
    <g clip-path="url(#p96f0f3768c)">
     <use xlink:href="#m79b3e70336" x="96.185" y="184.781386" style="fill: #00a6d6; stroke: #00a6d6"/>
     <use xlink:href="#m79b3e70336" x="120.5975" y="179.581905" style="fill: #00a6d6; stroke: #00a6d6"/>
     <use xlink:href="#m79b3e70336" x="145.01" y="169.066552" style="fill: #00a6d6; stroke: #00a6d6"/>
     <use xlink:href="#m79b3e70336" x="225.92" y="139.988448" style="fill: #00a6d6; stroke: #00a6d6"/>
     <use xlink:href="#m79b3e70336" x="306.83" y="121.682127" style="fill: #00a6d6; stroke: #00a6d6"/>
     <use xlink:href="#m79b3e70336" x="379.37" y="100.396942" style="fill: #00a6d6; stroke: #00a6d6"/>
     <use xlink:href="#m79b3e70336" x="451.91" y="85.067642" style="fill: #00a6d6; stroke: #00a6d6"/>
     <use xlink:href="#m79b3e70336" x="493.76" y="71.906216" style="fill: #00a6d6; stroke: #00a6d6"/>
     <use xlink:href="#m79b3e70336" x="535.61" y="62.742024" style="fill: #00a6d6; stroke: #00a6d6"/>
    </g>
   </g>
   <g id="line2d_31">
    <path d="M 96.185 184.57455 
L 120.5975 179.263737 
L 145.01 173.642699 
L 225.92 153.144637 
L 306.83 130.273153 
L 379.37 108.09549 
L 451.91 84.544851 
L 493.76 70.391717 
L 535.61 55.853051 
" clip-path="url(#p96f0f3768c)" style="fill: none; stroke-dasharray: 11.1,4.8; stroke-dashoffset: 0; stroke: #000000; stroke-width: 3"/>
   </g>
   <g id="patch_3">
    <path d="M 47.36 203.34 
L 47.36 37.02 
" style="fill: none; stroke: #000000; stroke-linejoin: miter; stroke-linecap: square"/>
   </g>
   <g id="patch_4">
    <path d="M 605.36 203.34 
L 605.36 37.02 
" style="fill: none; stroke: #000000; stroke-linejoin: miter; stroke-linecap: square"/>
   </g>
   <g id="patch_5">
    <path d="M 47.36 203.34 
L 605.36 203.34 
" style="fill: none; stroke: #000000; stroke-linejoin: miter; stroke-linecap: square"/>
   </g>
   <g id="patch_6">
    <path d="M 47.36 37.02 
L 605.36 37.02 
" style="fill: none; stroke: #000000; stroke-linejoin: miter; stroke-linecap: square"/>
   </g>
   <g id="legend_1">
    <g id="PathCollection_2">
     <g>
      <use xlink:href="#m79b3e70336" x="197.36" y="12.39" style="fill: #00a6d6; stroke: #00a6d6"/>
     </g>
    </g>
    <g id="text_18">
     <text style="font: 12px 'Source Code Pro'; text-anchor: start" x="218.96" y="15.54" transform="rotate(-0, 218.96, 15.54)">measurements</text>
    </g>
    <g id="line2d_32">
     <path d="M 329.36 11.34 
L 341.36 11.34 
L 353.36 11.34 
" style="fill: none; stroke-dasharray: 11.1,4.8; stroke-dashoffset: 0; stroke: #000000; stroke-width: 3"/>
    </g>
    <g id="text_19">
     <!-- $model\ (R^2=0.98)$ -->
     <g transform="translate(362.96 15.54)">
      <text>
       <tspan style="font: 12px 'Source Code Pro'" x="0 7.199997 14.399994 21.599991 28.799988 38.39996 45.599957 59.673349 68.313346 75.513343 82.71334 89.913336 97.113333" y="-0.46250000000000213">model(R=0.98)</tspan>
       <tspan style="font: 8.4px 'Source Code Pro'" x="52.901946" y="-4.542187500000002">2</tspan>
      </text>
     </g>
    </g>
   </g>
  </g>
 </g>
 <defs>
  <clipPath id="p96f0f3768c">
   <rect x="47.36" y="37.02" width="558" height="166.32"/>
  </clipPath>
 </defs>
</svg>
