<?xml version="1.0" encoding="utf-8" standalone="no"?>
<!DOCTYPE svg PUBLIC "-//W3C//DTD SVG 1.1//EN"
  "http://www.w3.org/Graphics/SVG/1.1/DTD/svg11.dtd">
<svg xmlns:xlink="http://www.w3.org/1999/xlink" width="591.44pt" height="229.18625pt" viewBox="0 0 591.44 229.18625" xmlns="http://www.w3.org/2000/svg" version="1.1">
 <metadata>
  <rdf:RDF xmlns:dc="http://purl.org/dc/elements/1.1/" xmlns:cc="http://creativecommons.org/ns#" xmlns:rdf="http://www.w3.org/1999/02/22-rdf-syntax-ns#">
   <cc:Work>
    <dc:type rdf:resource="http://purl.org/dc/dcmitype/StillImage"/>
    <dc:date>2022-10-05T22:18:02.990818</dc:date>
    <dc:format>image/svg+xml</dc:format>
    <dc:creator>
     <cc:Agent>
      <dc:title>Matplotlib v3.5.2, https://matplotlib.org/</dc:title>
     </cc:Agent>
    </dc:creator>
   </cc:Work>
  </rdf:RDF>
 </metadata>
 <defs>
  <style type="text/css">*{stroke-linejoin: round; stroke-linecap: butt}</style>
 </defs>
 <g id="figure_1">
  <g id="patch_1">
   <path d="M 0 229.18625 
L 591.44 229.18625 
L 591.44 0 
L 0 0 
z
" style="fill: #ffffff"/>
  </g>
  <g id="axes_1">
   <g id="patch_2">
    <path d="M 32 194.7375 
L 590 194.7375 
L 590 28.4175 
L 32 28.4175 
z
" style="fill: #ffffff"/>
   </g>
   <g id="PolyCollection_1">
    <defs>
     <path id="ma21ca1554a" d="M 57.363636 -39.612986 
L 57.363636 -34.44875 
L 65.611973 -34.44875 
L 75.235033 -34.44875 
L 106.853659 -34.44875 
L 113.727273 -34.44875 
L 126.099778 -34.44875 
L 131.59867 -34.44875 
L 135.722838 -34.44875 
L 141.221729 -34.44875 
L 170.090909 -34.44875 
L 172.840355 -34.44875 
L 181.088692 -34.44875 
L 187.962306 -34.44875 
L 190.711752 -34.44875 
L 197.585366 -34.44875 
L 200.334812 -34.44875 
L 207.208426 -34.44875 
L 211.332594 -34.44875 
L 212.707317 -34.44875 
L 218.206208 -34.44875 
L 220.955654 -34.44875 
L 226.454545 -34.44875 
L 230.578714 -34.44875 
L 237.452328 -34.44875 
L 241.576497 -34.44875 
L 247.075388 -34.44875 
L 258.073171 -34.44875 
L 267.696231 -34.44875 
L 275.944568 -34.44875 
L 278.694013 -34.44875 
L 288.317073 -34.44875 
L 315.81153 -34.44875 
L 317.186253 -34.44875 
L 324.059867 -34.44875 
L 333.682927 -34.44875 
L 343.305987 -34.44875 
L 352.929047 -34.44875 
L 363.926829 -34.44875 
L 374.924612 -34.44875 
L 381.798226 -34.44875 
L 410.667406 -34.44875 
L 468.405765 -34.44875 
L 478.028825 -34.44875 
L 487.651885 -34.44875 
L 509.64745 -34.44875 
L 516.521064 -34.44875 
L 527.518847 -34.44875 
L 534.392461 -34.44875 
L 544.015521 -34.44875 
L 564.636364 -34.44875 
L 564.636364 -72.093203 
L 564.636364 -72.093203 
L 544.015521 -68.527718 
L 534.392461 -76.646213 
L 527.518847 -61.141031 
L 516.521064 -68.078654 
L 509.64745 -73.760561 
L 487.651885 -67.390505 
L 478.028825 -93.65867 
L 468.405765 -100.656584 
L 410.667406 -102.39047 
L 381.798226 -92.694014 
L 374.924612 -97.708562 
L 363.926829 -94.138919 
L 352.929047 -98.413343 
L 343.305987 -95.209604 
L 333.682927 -84.103586 
L 324.059867 -74.714822 
L 317.186253 -51.980957 
L 315.81153 -67.985099 
L 288.317073 -66.296951 
L 278.694013 -61.825022 
L 275.944568 -71.583848 
L 267.696231 -54.184697 
L 258.073171 -58.217957 
L 247.075388 -52.552682 
L 241.576497 -42.831278 
L 237.452328 -44.515268 
L 230.578714 -40.465376 
L 226.454545 -38.619224 
L 220.955654 -40.637933 
L 218.206208 -40.301135 
L 212.707317 -39.556853 
L 211.332594 -40.168079 
L 207.208426 -41.47577 
L 200.334812 -40.571405 
L 197.585366 -42.633773 
L 190.711752 -40.874939 
L 187.962306 -42.111944 
L 181.088692 -42.513191 
L 172.840355 -41.827121 
L 170.090909 -42.84791 
L 141.221729 -40.319846 
L 135.722838 -40.473692 
L 131.59867 -40.06205 
L 126.099778 -40.037102 
L 113.727273 -39.423797 
L 106.853659 -39.825044 
L 75.235033 -41.423795 
L 65.611973 -40.509035 
L 57.363636 -39.612986 
z
" style="stroke: #99d28c"/>
    </defs>
    <g clip-path="url(#pda4b1463d6)">
     <use xlink:href="#ma21ca1554a" x="0" y="229.18625" style="fill: #99d28c; stroke: #99d28c"/>
    </g>
   </g>
   <g id="PolyCollection_2">
    <defs>
     <path id="m5769e720d3" d="M 57.363636 -42.053732 
L 57.363636 -39.612986 
L 65.611973 -40.509035 
L 75.235033 -41.423795 
L 106.853659 -39.825044 
L 113.727273 -39.423797 
L 126.099778 -40.037102 
L 131.59867 -40.06205 
L 135.722838 -40.473692 
L 141.221729 -40.319846 
L 170.090909 -42.84791 
L 172.840355 -41.827121 
L 181.088692 -42.513191 
L 187.962306 -42.111944 
L 190.711752 -40.874939 
L 197.585366 -42.633773 
L 200.334812 -40.571405 
L 207.208426 -41.47577 
L 211.332594 -40.168079 
L 212.707317 -39.556853 
L 218.206208 -40.301135 
L 220.955654 -40.637933 
L 226.454545 -38.619224 
L 230.578714 -40.465376 
L 237.452328 -44.515268 
L 241.576497 -42.831278 
L 247.075388 -52.552682 
L 258.073171 -58.217957 
L 267.696231 -54.184697 
L 275.944568 -71.583848 
L 278.694013 -61.825022 
L 288.317073 -66.296951 
L 315.81153 -67.985099 
L 317.186253 -51.980957 
L 324.059867 -74.714822 
L 333.682927 -84.103586 
L 343.305987 -95.209604 
L 352.929047 -98.413343 
L 363.926829 -94.138919 
L 374.924612 -97.708562 
L 381.798226 -92.694014 
L 410.667406 -102.39047 
L 468.405765 -100.656584 
L 478.028825 -93.65867 
L 487.651885 -67.390505 
L 509.64745 -73.760561 
L 516.521064 -68.078654 
L 527.518847 -61.141031 
L 534.392461 -76.646213 
L 544.015521 -68.527718 
L 564.636364 -72.093203 
L 564.636364 -148.238657 
L 564.636364 -148.238657 
L 544.015521 -145.839491 
L 534.392461 -144.19916 
L 527.518847 -110.783393 
L 516.521064 -124.213733 
L 509.64745 -132.228278 
L 487.651885 -90.500669 
L 478.028825 -130.606658 
L 468.405765 -139.267772 
L 410.667406 -138.238667 
L 381.798226 -114.473618 
L 374.924612 -115.843679 
L 363.926829 -109.47986 
L 352.929047 -110.818736 
L 343.305987 -112.03703 
L 333.682927 -92.392559 
L 324.059867 -82.964294 
L 317.186253 -54.65663 
L 315.81153 -69.906095 
L 288.317073 -70.704431 
L 278.694013 -69.901937 
L 275.944568 -75.725216 
L 267.696231 -59.904026 
L 258.073171 -72.841643 
L 247.075388 -59.845814 
L 241.576497 -50.565158 
L 237.452328 -55.481993 
L 230.578714 -46.98512 
L 226.454545 -41.093234 
L 220.955654 -46.269944 
L 218.206208 -43.787618 
L 212.707317 -43.186787 
L 211.332594 -43.623377 
L 207.208426 -45.359342 
L 200.334812 -46.188863 
L 197.585366 -51.575552 
L 190.711752 -44.163917 
L 187.962306 -45.436265 
L 181.088692 -45.82088 
L 172.840355 -46.053728 
L 170.090909 -46.446659 
L 141.221729 -43.232525 
L 135.722838 -42.976808 
L 131.59867 -41.625458 
L 126.099778 -43.619219 
L 113.727273 -43.92899 
L 106.853659 -42.739802 
L 75.235033 -44.265788 
L 65.611973 -42.899885 
L 57.363636 -42.053732 
z
" style="stroke: #eb7245"/>
    </defs>
    <g clip-path="url(#pda4b1463d6)">
     <use xlink:href="#m5769e720d3" x="0" y="229.18625" style="fill: #eb7245; stroke: #eb7245"/>
    </g>
   </g>
   <g id="PolyCollection_3">
    <defs>
     <path id="m0a6600a14a" d="M 57.363636 -96.731432 
L 57.363636 -42.053732 
L 65.611973 -42.899885 
L 75.235033 -44.265788 
L 106.853659 -42.739802 
L 113.727273 -43.92899 
L 126.099778 -43.619219 
L 131.59867 -41.625458 
L 135.722838 -42.976808 
L 141.221729 -43.232525 
L 170.090909 -46.446659 
L 172.840355 -46.053728 
L 181.088692 -45.82088 
L 187.962306 -45.436265 
L 190.711752 -44.163917 
L 197.585366 -51.575552 
L 200.334812 -46.188863 
L 207.208426 -45.359342 
L 211.332594 -43.623377 
L 212.707317 -43.186787 
L 218.206208 -43.787618 
L 220.955654 -46.269944 
L 226.454545 -41.093234 
L 230.578714 -46.98512 
L 237.452328 -55.481993 
L 241.576497 -50.565158 
L 247.075388 -59.845814 
L 258.073171 -72.841643 
L 267.696231 -59.904026 
L 275.944568 -75.725216 
L 278.694013 -69.901937 
L 288.317073 -70.704431 
L 315.81153 -69.906095 
L 317.186253 -54.65663 
L 324.059867 -82.964294 
L 333.682927 -92.392559 
L 343.305987 -112.03703 
L 352.929047 -110.818736 
L 363.926829 -109.47986 
L 374.924612 -115.843679 
L 381.798226 -114.473618 
L 410.667406 -138.238667 
L 468.405765 -139.267772 
L 478.028825 -130.606658 
L 487.651885 -90.500669 
L 509.64745 -132.228278 
L 516.521064 -124.213733 
L 527.518847 -110.783393 
L 534.392461 -144.19916 
L 544.015521 -145.839491 
L 564.636364 -148.238657 
L 564.636364 -187.115957 
L 564.636364 -187.115957 
L 544.015521 -191.161691 
L 534.392461 -179.75006 
L 527.518847 -172.321793 
L 516.521064 -174.317633 
L 509.64745 -185.866478 
L 487.651885 -159.107669 
L 478.028825 -171.355058 
L 468.405765 -173.155472 
L 410.667406 -165.265667 
L 381.798226 -154.182518 
L 374.924612 -149.731379 
L 363.926829 -159.37586 
L 352.929047 -158.219936 
L 343.305987 -157.15133 
L 333.682927 -166.820759 
L 324.059867 -128.702294 
L 317.186253 -125.34263 
L 315.81153 -123.752195 
L 288.317073 -134.737631 
L 278.694013 -122.708537 
L 275.944568 -133.313516 
L 267.696231 -115.829126 
L 258.073171 -130.637843 
L 247.075388 -113.484014 
L 241.576497 -121.251158 
L 237.452328 -119.307293 
L 230.578714 -113.92892 
L 226.454545 -99.097334 
L 220.955654 -109.679444 
L 218.206208 -114.057818 
L 212.707317 -110.546387 
L 211.332594 -106.617077 
L 207.208426 -103.155542 
L 200.334812 -105.024563 
L 197.585366 -111.242852 
L 190.711752 -111.315617 
L 187.962306 -108.845765 
L 181.088692 -114.84368 
L 172.840355 -114.244928 
L 170.090909 -115.053659 
L 141.221729 -113.502725 
L 135.722838 -106.594208 
L 131.59867 -104.827058 
L 126.099778 -110.147219 
L 113.727273 -107.96219 
L 106.853659 -115.504802 
L 75.235033 -93.745988 
L 65.611973 -96.122285 
L 57.363636 -96.731432 
z
" style="stroke: #00b7d3"/>
    </defs>
    <g clip-path="url(#pda4b1463d6)">
     <use xlink:href="#m0a6600a14a" x="0" y="229.18625" style="fill: #00b7d3; stroke: #00b7d3"/>
    </g>
   </g>
   <g id="matplotlib.axis_1">
    <g id="xtick_1">
     <g id="line2d_1">
      <defs>
       <path id="m43b921e2bb" d="M 0 0 
L 0 3.5 
" style="stroke: #000000"/>
      </defs>
      <g>
       <use xlink:href="#m43b921e2bb" x="57.363636" y="194.7375" style="stroke: #000000"/>
      </g>
     </g>
     <g id="text_1">
      <!-- 0 -->
      <g transform="translate(53.763636 210.281875)scale(0.12 -0.12)">
       <defs>
        <path id="SourceCodePro-Regular-30" d="M 1920 -77 
C 2829 -77 3386 698 3386 2054 
C 3386 3424 2829 4160 1920 4160 
C 1011 4160 454 3424 454 2054 
C 454 698 1011 -77 1920 -77 
z
M 1920 346 
C 1350 346 947 883 947 2054 
C 947 3232 1350 3738 1920 3738 
C 2490 3738 2893 3232 2893 2054 
C 2893 883 2490 346 1920 346 
z
M 1920 1670 
C 2131 1670 2317 1830 2317 2099 
C 2317 2362 2131 2522 1920 2522 
C 1709 2522 1523 2362 1523 2099 
C 1523 1830 1709 1670 1920 1670 
z
" transform="scale(0.015625)"/>
       </defs>
       <use xlink:href="#SourceCodePro-Regular-30"/>
      </g>
     </g>
    </g>
    <g id="xtick_2">
     <g id="line2d_2">
      <g>
       <use xlink:href="#m43b921e2bb" x="126.099778" y="194.7375" style="stroke: #000000"/>
      </g>
     </g>
     <g id="text_2">
      <!-- 50 -->
      <g transform="translate(118.899778 210.281875)scale(0.12 -0.12)">
       <defs>
        <path id="SourceCodePro-Regular-35" d="M 1830 -77 
C 2611 -77 3341 422 3341 1306 
C 3341 2189 2720 2586 1939 2586 
C 1626 2586 1421 2522 1184 2419 
L 1293 3629 
L 3136 3629 
L 3136 4083 
L 826 4083 
L 691 2118 
L 973 1939 
C 1261 2099 1466 2189 1805 2189 
C 2413 2189 2810 1856 2810 1293 
C 2810 723 2349 358 1773 358 
C 1222 358 890 582 621 826 
L 358 480 
C 672 198 1101 -77 1830 -77 
z
" transform="scale(0.015625)"/>
       </defs>
       <use xlink:href="#SourceCodePro-Regular-35"/>
       <use xlink:href="#SourceCodePro-Regular-30" x="59.999985"/>
      </g>
     </g>
    </g>
    <g id="xtick_3">
     <g id="line2d_3">
      <g>
       <use xlink:href="#m43b921e2bb" x="194.83592" y="194.7375" style="stroke: #000000"/>
      </g>
     </g>
     <g id="text_3">
      <!-- 100 -->
      <g transform="translate(184.03592 210.281875)scale(0.12 -0.12)">
       <defs>
        <path id="SourceCodePro-Regular-31" d="M 621 0 
L 3392 0 
L 3392 435 
L 2323 435 
L 2323 4083 
L 1933 4083 
C 1670 3942 1363 3846 883 3782 
L 883 3443 
L 1798 3443 
L 1798 435 
L 621 435 
L 621 0 
z
" transform="scale(0.015625)"/>
       </defs>
       <use xlink:href="#SourceCodePro-Regular-31"/>
       <use xlink:href="#SourceCodePro-Regular-30" x="59.999985"/>
       <use xlink:href="#SourceCodePro-Regular-30" x="119.999969"/>
      </g>
     </g>
    </g>
    <g id="xtick_4">
     <g id="line2d_4">
      <g>
       <use xlink:href="#m43b921e2bb" x="263.572062" y="194.7375" style="stroke: #000000"/>
      </g>
     </g>
     <g id="text_4">
      <!-- 150 -->
      <g transform="translate(252.772062 210.281875)scale(0.12 -0.12)">
       <use xlink:href="#SourceCodePro-Regular-31"/>
       <use xlink:href="#SourceCodePro-Regular-35" x="59.999985"/>
       <use xlink:href="#SourceCodePro-Regular-30" x="119.999969"/>
      </g>
     </g>
    </g>
    <g id="xtick_5">
     <g id="line2d_5">
      <g>
       <use xlink:href="#m43b921e2bb" x="332.308204" y="194.7375" style="stroke: #000000"/>
      </g>
     </g>
     <g id="text_5">
      <!-- 200 -->
      <g transform="translate(321.508204 210.281875)scale(0.12 -0.12)">
       <defs>
        <path id="SourceCodePro-Regular-32" d="M 467 0 
L 3341 0 
L 3341 454 
L 1997 454 
C 1754 454 1491 435 1235 416 
C 2349 1427 3117 2189 3117 2957 
C 3117 3680 2605 4160 1786 4160 
C 1210 4160 806 3910 442 3539 
L 742 3238 
C 1005 3514 1338 3731 1722 3731 
C 2323 3731 2611 3398 2611 2931 
C 2611 2253 1850 1536 467 314 
L 467 0 
z
" transform="scale(0.015625)"/>
       </defs>
       <use xlink:href="#SourceCodePro-Regular-32"/>
       <use xlink:href="#SourceCodePro-Regular-30" x="59.999985"/>
       <use xlink:href="#SourceCodePro-Regular-30" x="119.999969"/>
      </g>
     </g>
    </g>
    <g id="xtick_6">
     <g id="line2d_6">
      <g>
       <use xlink:href="#m43b921e2bb" x="401.044346" y="194.7375" style="stroke: #000000"/>
      </g>
     </g>
     <g id="text_6">
      <!-- 250 -->
      <g transform="translate(390.244346 210.281875)scale(0.12 -0.12)">
       <use xlink:href="#SourceCodePro-Regular-32"/>
       <use xlink:href="#SourceCodePro-Regular-35" x="59.999985"/>
       <use xlink:href="#SourceCodePro-Regular-30" x="119.999969"/>
      </g>
     </g>
    </g>
    <g id="xtick_7">
     <g id="line2d_7">
      <g>
       <use xlink:href="#m43b921e2bb" x="469.780488" y="194.7375" style="stroke: #000000"/>
      </g>
     </g>
     <g id="text_7">
      <!-- 300 -->
      <g transform="translate(458.980488 210.281875)scale(0.12 -0.12)">
       <defs>
        <path id="SourceCodePro-Regular-33" d="M 1837 -77 
C 2650 -77 3315 365 3315 1088 
C 3315 1651 2848 2010 2304 2125 
L 2304 2150 
C 2810 2317 3174 2630 3174 3123 
C 3174 3782 2592 4160 1824 4160 
C 1299 4160 858 3942 518 3648 
L 800 3315 
C 1069 3558 1421 3731 1805 3731 
C 2304 3731 2637 3482 2637 3085 
C 2637 2656 2266 2323 1299 2323 
L 1299 1920 
C 2374 1920 2784 1594 2784 1107 
C 2784 653 2362 358 1805 358 
C 1280 358 902 589 634 845 
L 365 499 
C 666 198 1133 -77 1837 -77 
z
" transform="scale(0.015625)"/>
       </defs>
       <use xlink:href="#SourceCodePro-Regular-33"/>
       <use xlink:href="#SourceCodePro-Regular-30" x="59.999985"/>
       <use xlink:href="#SourceCodePro-Regular-30" x="119.999969"/>
      </g>
     </g>
    </g>
    <g id="xtick_8">
     <g id="line2d_8">
      <g>
       <use xlink:href="#m43b921e2bb" x="538.51663" y="194.7375" style="stroke: #000000"/>
      </g>
     </g>
     <g id="text_8">
      <!-- 350 -->
      <g transform="translate(527.71663 210.281875)scale(0.12 -0.12)">
       <use xlink:href="#SourceCodePro-Regular-33"/>
       <use xlink:href="#SourceCodePro-Regular-35" x="59.999985"/>
       <use xlink:href="#SourceCodePro-Regular-30" x="119.999969"/>
      </g>
     </g>
    </g>
    <g id="text_9">
     <!-- time (d) -->
     <g transform="translate(282.2 225.28625)scale(0.12 -0.12)">
      <defs>
       <path id="SourceCodePro-Regular-74" d="M 2522 -77 
C 2912 -77 3213 6 3494 109 
L 3379 493 
C 3155 410 2925 352 2630 352 
C 2029 352 1843 646 1843 1203 
L 1843 2682 
L 3373 2682 
L 3373 3110 
L 1843 3110 
L 1843 4109 
L 1408 4109 
L 1338 3110 
L 442 3078 
L 442 2682 
L 1318 2682 
L 1318 1210 
C 1318 442 1613 -77 2522 -77 
z
" transform="scale(0.015625)"/>
       <path id="SourceCodePro-Regular-69" d="M 2022 0 
L 2547 0 
L 2547 3110 
L 576 3110 
L 576 2682 
L 2022 2682 
L 2022 0 
z
M 2227 3763 
C 2464 3763 2650 3923 2650 4173 
C 2650 4416 2464 4582 2227 4582 
C 1990 4582 1805 4416 1805 4173 
C 1805 3923 1990 3763 2227 3763 
z
" transform="scale(0.015625)"/>
       <path id="SourceCodePro-Regular-6d" d="M 371 0 
L 896 0 
L 896 2253 
C 1050 2573 1190 2733 1408 2733 
C 1638 2733 1728 2547 1728 2189 
L 1728 0 
L 2214 0 
L 2214 2253 
C 2381 2573 2496 2733 2714 2733 
C 2944 2733 3046 2547 3046 2189 
L 3046 0 
L 3571 0 
L 3571 2227 
C 3571 2848 3315 3187 2880 3187 
C 2522 3187 2330 2982 2150 2650 
C 2061 3008 1869 3187 1562 3187 
C 1203 3187 1011 2989 851 2701 
L 838 2701 
L 794 3110 
L 371 3110 
L 371 0 
z
" transform="scale(0.015625)"/>
       <path id="SourceCodePro-Regular-65" d="M 2035 2771 
C 2566 2771 2918 2458 2963 1818 
L 979 1818 
C 1075 2432 1523 2771 2035 2771 
z
M 2112 -77 
C 2611 -77 3008 90 3315 294 
L 3123 640 
C 2842 461 2547 346 2176 346 
C 1530 346 1030 704 966 1408 
L 3418 1408 
C 3430 1491 3443 1606 3443 1728 
C 3443 2605 2918 3187 2022 3187 
C 1190 3187 435 2573 435 1562 
C 435 525 1178 -77 2112 -77 
z
" transform="scale(0.015625)"/>
       <path id="SourceCodePro-Regular-20" transform="scale(0.015625)"/>
       <path id="SourceCodePro-Regular-28" d="M 2771 -1126 
L 3059 -858 
C 2202 -134 1805 704 1805 1779 
C 1805 2854 2202 3693 3059 4416 
L 2771 4685 
C 1882 3994 1331 3014 1331 1779 
C 1331 544 1882 -435 2771 -1126 
z
" transform="scale(0.015625)"/>
       <path id="SourceCodePro-Regular-64" d="M 1734 -77 
C 2118 -77 2490 147 2746 410 
L 2765 410 
L 2810 0 
L 3245 0 
L 3245 4557 
L 2720 4557 
L 2720 3360 
L 2746 2784 
L 2726 2784 
C 2458 3040 2170 3187 1798 3187 
C 1062 3187 384 2560 384 1549 
C 384 512 922 -77 1734 -77 
z
M 1843 365 
C 1267 365 928 813 928 1555 
C 928 2266 1363 2746 1901 2746 
C 2170 2746 2438 2643 2720 2381 
L 2720 832 
C 2445 525 2150 365 1843 365 
z
" transform="scale(0.015625)"/>
       <path id="SourceCodePro-Regular-29" d="M 1069 -1126 
C 1958 -435 2509 544 2509 1779 
C 2509 3014 1958 3994 1069 4685 
L 781 4416 
C 1638 3693 2035 2854 2035 1779 
C 2035 704 1638 -134 781 -858 
L 1069 -1126 
z
" transform="scale(0.015625)"/>
      </defs>
      <use xlink:href="#SourceCodePro-Regular-74"/>
      <use xlink:href="#SourceCodePro-Regular-69" x="59.999985"/>
      <use xlink:href="#SourceCodePro-Regular-6d" x="119.999969"/>
      <use xlink:href="#SourceCodePro-Regular-65" x="179.999954"/>
      <use xlink:href="#SourceCodePro-Regular-20" x="239.999939"/>
      <use xlink:href="#SourceCodePro-Regular-28" x="299.999924"/>
      <use xlink:href="#SourceCodePro-Regular-64" x="359.999908"/>
      <use xlink:href="#SourceCodePro-Regular-29" x="419.999893"/>
     </g>
    </g>
   </g>
   <g id="matplotlib.axis_2">
    <g id="ytick_1">
     <g id="line2d_9">
      <defs>
       <path id="m62509e5480" d="M 0 0 
L -3.5 0 
" style="stroke: #000000"/>
      </defs>
      <g>
       <use xlink:href="#m62509e5480" x="32" y="194.7375" style="stroke: #000000"/>
      </g>
     </g>
     <g id="text_10">
      <!-- 0 -->
      <g transform="translate(17.8 199.009687)scale(0.12 -0.12)">
       <use xlink:href="#SourceCodePro-Regular-30"/>
      </g>
     </g>
    </g>
    <g id="ytick_2">
     <g id="line2d_10">
      <g>
       <use xlink:href="#m62509e5480" x="32" y="153.1575" style="stroke: #000000"/>
      </g>
     </g>
     <g id="text_11">
      <!-- 2 -->
      <g transform="translate(17.8 157.429687)scale(0.12 -0.12)">
       <use xlink:href="#SourceCodePro-Regular-32"/>
      </g>
     </g>
    </g>
    <g id="ytick_3">
     <g id="line2d_11">
      <g>
       <use xlink:href="#m62509e5480" x="32" y="111.5775" style="stroke: #000000"/>
      </g>
     </g>
     <g id="text_12">
      <!-- 4 -->
      <g transform="translate(17.8 115.849687)scale(0.12 -0.12)">
       <defs>
        <path id="SourceCodePro-Regular-34" d="M 832 1549 
L 1939 2944 
C 2074 3142 2227 3341 2355 3539 
L 2387 3539 
C 2374 3315 2362 3040 2355 2816 
L 2355 1549 
L 832 1549 
z
M 2355 0 
L 2854 0 
L 2854 1126 
L 3488 1126 
L 3488 1549 
L 2854 1549 
L 2854 4083 
L 2291 4083 
L 250 1478 
L 250 1126 
L 2355 1126 
L 2355 0 
z
" transform="scale(0.015625)"/>
       </defs>
       <use xlink:href="#SourceCodePro-Regular-34"/>
      </g>
     </g>
    </g>
    <g id="ytick_4">
     <g id="line2d_12">
      <g>
       <use xlink:href="#m62509e5480" x="32" y="69.9975" style="stroke: #000000"/>
      </g>
     </g>
     <g id="text_13">
      <!-- 6 -->
      <g transform="translate(17.8 74.269687)scale(0.12 -0.12)">
       <defs>
        <path id="SourceCodePro-Regular-36" d="M 2048 2099 
C 2611 2099 2918 1792 2918 1235 
C 2918 698 2541 339 2054 339 
C 1459 339 1082 762 1005 1549 
C 1331 1939 1722 2099 2048 2099 
z
M 2054 -77 
C 2784 -77 3418 454 3418 1235 
C 3418 2074 2899 2496 2144 2496 
C 1734 2496 1318 2291 986 1965 
C 1011 3277 1581 3718 2234 3718 
C 2541 3718 2835 3597 3046 3398 
L 3341 3725 
C 3072 3974 2701 4160 2202 4160 
C 1312 4160 493 3526 493 1888 
C 493 576 1165 -77 2054 -77 
z
" transform="scale(0.015625)"/>
       </defs>
       <use xlink:href="#SourceCodePro-Regular-36"/>
      </g>
     </g>
    </g>
    <g id="ytick_5">
     <g id="line2d_13">
      <g>
       <use xlink:href="#m62509e5480" x="32" y="28.4175" style="stroke: #000000"/>
      </g>
     </g>
     <g id="text_14">
      <!-- 8 -->
      <g transform="translate(17.8 32.689687)scale(0.12 -0.12)">
       <defs>
        <path id="SourceCodePro-Regular-38" d="M 1933 -77 
C 2867 -77 3398 403 3398 1011 
C 3398 1594 3046 1850 2598 2074 
L 2598 2099 
C 2938 2336 3219 2688 3219 3072 
C 3219 3706 2752 4160 1952 4160 
C 1222 4160 691 3738 691 3110 
C 691 2682 973 2368 1312 2157 
L 1312 2131 
C 877 1926 435 1606 435 1043 
C 435 397 1011 -77 1933 -77 
z
M 2253 2227 
C 1645 2419 1171 2624 1171 3110 
C 1171 3507 1485 3770 1939 3770 
C 2477 3770 2765 3450 2765 3046 
C 2765 2746 2586 2470 2253 2227 
z
M 1946 314 
C 1318 314 915 640 915 1094 
C 915 1504 1216 1766 1613 1984 
C 2330 1741 2893 1600 2893 1030 
C 2893 608 2554 314 1946 314 
z
" transform="scale(0.015625)"/>
       </defs>
       <use xlink:href="#SourceCodePro-Regular-38"/>
      </g>
     </g>
    </g>
    <g id="text_15">
     <!-- MLSS ($kg\ m^{-3}$) -->
     <g transform="translate(11.04 154.0575)rotate(-90)scale(0.12 -0.12)">
      <defs>
       <path id="SourceCodePro-Regular-4d" d="M 461 0 
L 960 0 
L 960 2099 
C 960 2509 909 3226 870 3584 
L 883 3584 
L 1126 2765 
L 1715 1114 
L 2099 1114 
L 2701 2765 
L 2938 3584 
L 2957 3584 
C 2931 3226 2867 2509 2867 2099 
L 2867 0 
L 3379 0 
L 3379 4198 
L 2726 4198 
L 2131 2406 
L 1933 1728 
L 1907 1728 
L 1702 2406 
L 1114 4198 
L 461 4198 
L 461 0 
z
" transform="scale(0.015625)"/>
       <path id="SourceCodePro-Regular-4c" d="M 858 0 
L 3462 0 
L 3462 454 
L 1382 454 
L 1382 4198 
L 858 4198 
L 858 0 
z
" transform="scale(0.015625)"/>
       <path id="SourceCodePro-Regular-53" d="M 1952 -77 
C 2874 -77 3437 454 3437 1120 
C 3437 1741 3027 2029 2509 2240 
L 1920 2496 
C 1562 2643 1171 2790 1171 3194 
C 1171 3571 1498 3808 1984 3808 
C 2419 3808 2739 3654 3014 3411 
L 3296 3757 
C 2989 4064 2528 4275 2003 4275 
C 1203 4275 627 3802 627 3162 
C 627 2547 1114 2246 1536 2080 
L 2138 1818 
C 2566 1632 2893 1504 2893 1056 
C 2893 666 2554 390 1978 390 
C 1498 390 1062 602 749 915 
L 429 544 
C 806 166 1338 -77 1952 -77 
z
" transform="scale(0.015625)"/>
       <path id="SourceCodePro-Regular-6b" d="M 678 0 
L 1203 0 
L 1203 845 
L 1939 1568 
L 3085 0 
L 3674 0 
L 2266 1888 
L 3507 3110 
L 2906 3110 
L 1229 1472 
L 1203 1472 
L 1203 4557 
L 678 4557 
L 678 0 
z
" transform="scale(0.015625)"/>
       <path id="SourceCodePro-Regular-67" d="M 1894 -1434 
C 2950 -1434 3622 -928 3622 -346 
C 3622 179 3238 384 2438 384 
L 1741 384 
C 1331 384 1094 499 1094 742 
C 1094 890 1184 1005 1338 1101 
C 1510 1024 1702 986 1862 986 
C 2534 986 3066 1389 3066 2054 
C 3066 2304 2944 2534 2803 2682 
L 3610 2682 
L 3610 3110 
L 2323 3110 
C 2189 3162 2042 3187 1862 3187 
C 1203 3187 640 2752 640 2074 
C 640 1702 813 1427 1024 1267 
L 1024 1242 
C 787 1082 653 858 653 659 
C 653 397 806 237 973 147 
L 973 122 
C 640 -70 461 -320 461 -570 
C 461 -1120 986 -1434 1894 -1434 
z
M 1862 1338 
C 1472 1338 1146 1626 1146 2074 
C 1146 2509 1472 2803 1862 2803 
C 2259 2803 2579 2509 2579 2074 
C 2579 1626 2259 1338 1862 1338 
z
M 1933 -1050 
C 1267 -1050 915 -845 915 -518 
C 915 -339 1018 -160 1312 0 
C 1446 -38 1606 -51 1786 -51 
L 2394 -51 
C 2867 -51 3104 -134 3104 -429 
C 3104 -749 2656 -1050 1933 -1050 
z
" transform="scale(0.015625)"/>
       <path id="SourceCodePro-Regular-2212" d="M 544 1914 
L 3296 1914 
L 3296 2310 
L 544 2310 
L 544 1914 
z
" transform="scale(0.015625)"/>
      </defs>
      <use xlink:href="#SourceCodePro-Regular-4d" transform="translate(0 0.484375)"/>
      <use xlink:href="#SourceCodePro-Regular-4c" transform="translate(59.999985 0.484375)"/>
      <use xlink:href="#SourceCodePro-Regular-53" transform="translate(119.999969 0.484375)"/>
      <use xlink:href="#SourceCodePro-Regular-53" transform="translate(179.999954 0.484375)"/>
      <use xlink:href="#SourceCodePro-Regular-20" transform="translate(239.999939 0.484375)"/>
      <use xlink:href="#SourceCodePro-Regular-28" transform="translate(299.999924 0.484375)"/>
      <use xlink:href="#SourceCodePro-Regular-6b" transform="translate(359.999908 0.484375)"/>
      <use xlink:href="#SourceCodePro-Regular-67" transform="translate(419.999893 0.484375)"/>
      <use xlink:href="#SourceCodePro-Regular-6d" transform="translate(499.999673 0.484375)"/>
      <use xlink:href="#SourceCodePro-Regular-2212" transform="translate(560.850048 34.5)scale(0.7)"/>
      <use xlink:href="#SourceCodePro-Regular-33" transform="translate(602.850038 34.5)scale(0.7)"/>
      <use xlink:href="#SourceCodePro-Regular-29" transform="translate(647.279714 0.484375)"/>
     </g>
    </g>
   </g>
   <g id="line2d_14">
    <path d="M 57.363636 189.573264 
L 65.611973 188.677215 
L 75.235033 187.762455 
L 106.853659 189.361206 
L 113.727273 189.762453 
L 126.099778 189.149148 
L 131.59867 189.1242 
L 135.722838 188.712558 
L 141.221729 188.866404 
L 170.090909 186.33834 
L 172.840355 187.359129 
L 181.088692 186.673059 
L 187.962306 187.074306 
L 190.711752 188.311311 
L 197.585366 186.552477 
L 200.334812 188.614845 
L 207.208426 187.71048 
L 211.332594 189.018171 
L 212.707317 189.629397 
L 218.206208 188.885115 
L 220.955654 188.548317 
L 226.454545 190.567026 
L 230.578714 188.720874 
L 237.452328 184.670982 
L 241.576497 186.354972 
L 247.075388 176.633568 
L 258.073171 170.968293 
L 267.696231 175.001553 
L 275.944568 157.602402 
L 278.694013 167.361228 
L 288.317073 162.889299 
L 315.81153 161.201151 
L 317.186253 177.205293 
L 324.059867 154.471428 
L 333.682927 145.082664 
L 343.305987 133.976646 
L 352.929047 130.772907 
L 363.926829 135.047331 
L 374.924612 131.477688 
L 381.798226 136.492236 
L 410.667406 126.79578 
L 468.405765 128.529666 
L 478.028825 135.52758 
L 487.651885 161.795745 
L 509.64745 155.425689 
L 516.521064 161.107596 
L 527.518847 168.045219 
L 534.392461 152.540037 
L 544.015521 160.658532 
L 564.636364 157.093047 
" clip-path="url(#pda4b1463d6)" style="fill: none; stroke: #99d28c; stroke-width: 3; stroke-linecap: square"/>
   </g>
   <g id="line2d_15">
    <path d="M 57.363636 187.132518 
L 65.611973 186.286365 
L 75.235033 184.920462 
L 106.853659 186.446448 
L 113.727273 185.25726 
L 126.099778 185.567031 
L 131.59867 187.560792 
L 135.722838 186.209442 
L 141.221729 185.953725 
L 170.090909 182.739591 
L 172.840355 183.132522 
L 181.088692 183.36537 
L 187.962306 183.749985 
L 190.711752 185.022333 
L 197.585366 177.610698 
L 200.334812 182.997387 
L 207.208426 183.826908 
L 211.332594 185.562873 
L 212.707317 185.999463 
L 218.206208 185.398632 
L 220.955654 182.916306 
L 226.454545 188.093016 
L 230.578714 182.20113 
L 237.452328 173.704257 
L 241.576497 178.621092 
L 247.075388 169.340436 
L 258.073171 156.344607 
L 267.696231 169.282224 
L 275.944568 153.461034 
L 278.694013 159.284313 
L 288.317073 158.481819 
L 315.81153 159.280155 
L 317.186253 174.52962 
L 324.059867 146.221956 
L 333.682927 136.793691 
L 343.305987 117.14922 
L 352.929047 118.367514 
L 363.926829 119.70639 
L 374.924612 113.342571 
L 381.798226 114.712632 
L 410.667406 90.947583 
L 468.405765 89.918478 
L 478.028825 98.579592 
L 487.651885 138.685581 
L 509.64745 96.957972 
L 516.521064 104.972517 
L 527.518847 118.402857 
L 534.392461 84.98709 
L 544.015521 83.346759 
L 564.636364 80.947593 
" clip-path="url(#pda4b1463d6)" style="fill: none; stroke: #eb7245; stroke-width: 3; stroke-linecap: square"/>
   </g>
   <g id="line2d_16">
    <path d="M 57.363636 132.454818 
L 65.611973 133.063965 
L 75.235033 135.440262 
L 106.853659 113.681448 
L 113.727273 121.22406 
L 126.099778 119.039031 
L 131.59867 124.359192 
L 135.722838 122.592042 
L 141.221729 115.683525 
L 170.090909 114.132591 
L 172.840355 114.941322 
L 181.088692 114.34257 
L 187.962306 120.340485 
L 190.711752 117.870633 
L 197.585366 117.943398 
L 200.334812 124.161687 
L 207.208426 126.030708 
L 211.332594 122.569173 
L 212.707317 118.639863 
L 218.206208 115.128432 
L 220.955654 119.506806 
L 226.454545 130.088916 
L 230.578714 115.25733 
L 237.452328 109.878957 
L 241.576497 107.935092 
L 247.075388 115.702236 
L 258.073171 98.548407 
L 267.696231 113.357124 
L 275.944568 95.872734 
L 278.694013 106.477713 
L 288.317073 94.448619 
L 315.81153 105.434055 
L 317.186253 103.84362 
L 324.059867 100.483956 
L 333.682927 62.365491 
L 343.305987 72.03492 
L 352.929047 70.966314 
L 363.926829 69.81039 
L 374.924612 79.454871 
L 381.798226 75.003732 
L 410.667406 63.920583 
L 468.405765 56.030778 
L 478.028825 57.831192 
L 487.651885 70.078581 
L 509.64745 43.319772 
L 516.521064 54.868617 
L 527.518847 56.864457 
L 534.392461 49.43619 
L 544.015521 38.024559 
L 564.636364 42.070293 
" clip-path="url(#pda4b1463d6)" style="fill: none; stroke: #00b7d3; stroke-width: 3; stroke-linecap: square"/>
   </g>
   <g id="patch_3">
    <path d="M 32 194.7375 
L 32 28.4175 
" style="fill: none; stroke: #000000; stroke-linejoin: miter; stroke-linecap: square"/>
   </g>
   <g id="patch_4">
    <path d="M 590 194.7375 
L 590 28.4175 
" style="fill: none; stroke: #000000; stroke-linejoin: miter; stroke-linecap: square"/>
   </g>
   <g id="patch_5">
    <path d="M 32 194.7375 
L 590 194.7375 
" style="fill: none; stroke: #000000; stroke-linejoin: miter; stroke-linecap: square"/>
   </g>
   <g id="patch_6">
    <path d="M 32 28.4175 
L 590 28.4175 
" style="fill: none; stroke: #000000; stroke-linejoin: miter; stroke-linecap: square"/>
   </g>
   <g id="text_16">
    <!-- lag phase -->
    <g transform="translate(114.320621 161.4735)scale(0.12 -0.12)">
     <defs>
      <path id="SourceCodePro-Regular-6c" d="M 2605 -77 
C 2944 -77 3149 -13 3437 109 
L 3302 499 
C 3091 403 2899 358 2720 358 
C 2349 358 2106 550 2106 1005 
L 2106 4557 
L 474 4557 
L 474 4128 
L 1581 4128 
L 1581 1043 
C 1581 307 1946 -77 2605 -77 
z
" transform="scale(0.015625)"/>
      <path id="SourceCodePro-Regular-61" d="M 1574 -77 
C 2016 -77 2458 154 2803 422 
L 2822 422 
L 2867 0 
L 3296 0 
L 3296 1907 
C 3296 2682 2886 3187 2035 3187 
C 1491 3187 966 2944 653 2739 
L 858 2381 
C 1146 2560 1542 2752 1946 2752 
C 2547 2752 2758 2394 2771 1971 
C 1165 1843 518 1504 518 806 
C 518 250 992 -77 1574 -77 
z
M 1715 346 
C 1357 346 1030 493 1030 845 
C 1030 1254 1440 1517 2771 1626 
L 2771 806 
C 2419 512 2067 346 1715 346 
z
" transform="scale(0.015625)"/>
      <path id="SourceCodePro-Regular-70" d="M 595 -1312 
L 1120 -1312 
L 1120 -262 
L 1094 326 
L 1114 326 
C 1389 70 1754 -77 2042 -77 
C 2790 -77 3456 544 3456 1600 
C 3456 2566 3008 3187 2170 3187 
C 1786 3187 1382 2989 1094 2714 
L 1075 2714 
L 1030 3110 
L 595 3110 
L 595 -1312 
z
M 1952 365 
C 1741 365 1414 467 1120 730 
L 1120 2278 
C 1440 2598 1760 2746 2035 2746 
C 2656 2746 2912 2285 2912 1600 
C 2912 832 2509 365 1952 365 
z
" transform="scale(0.015625)"/>
      <path id="SourceCodePro-Regular-68" d="M 595 0 
L 1120 0 
L 1120 2170 
C 1485 2547 1734 2733 2106 2733 
C 2618 2733 2822 2451 2822 1862 
L 2822 0 
L 3347 0 
L 3347 1933 
C 3347 2752 3008 3187 2272 3187 
C 1786 3187 1427 2925 1107 2579 
L 1088 2579 
L 1120 3315 
L 1120 4557 
L 595 4557 
L 595 0 
z
" transform="scale(0.015625)"/>
      <path id="SourceCodePro-Regular-73" d="M 1984 -77 
C 2874 -77 3366 346 3366 851 
C 3366 1325 3117 1587 2080 1811 
C 1446 1946 1178 2061 1178 2330 
C 1178 2566 1363 2778 1894 2778 
C 2291 2778 2650 2650 2938 2451 
L 3194 2790 
C 2886 3002 2413 3187 1939 3187 
C 1088 3187 646 2803 646 2304 
C 646 1837 1056 1562 1862 1395 
C 2707 1222 2835 1056 2835 819 
C 2835 557 2573 333 2048 333 
C 1472 333 1056 499 698 755 
L 454 410 
C 832 147 1376 -77 1984 -77 
z
" transform="scale(0.015625)"/>
     </defs>
     <use xlink:href="#SourceCodePro-Regular-6c"/>
     <use xlink:href="#SourceCodePro-Regular-61" x="59.999985"/>
     <use xlink:href="#SourceCodePro-Regular-67" x="119.999969"/>
     <use xlink:href="#SourceCodePro-Regular-20" x="179.999954"/>
     <use xlink:href="#SourceCodePro-Regular-70" x="239.999939"/>
     <use xlink:href="#SourceCodePro-Regular-68" x="299.999924"/>
     <use xlink:href="#SourceCodePro-Regular-61" x="359.999908"/>
     <use xlink:href="#SourceCodePro-Regular-73" x="419.999893"/>
     <use xlink:href="#SourceCodePro-Regular-65" x="479.999878"/>
    </g>
   </g>
   <g id="text_17">
    <!-- granulation phase -->
    <g transform="translate(243.721349 156.527915)rotate(-25)scale(0.12 -0.12)">
     <defs>
      <path id="SourceCodePro-Regular-72" d="M 934 0 
L 1459 0 
L 1459 1824 
C 1830 2470 2272 2714 2739 2714 
C 2982 2714 3098 2682 3315 2605 
L 3437 3059 
C 3245 3155 3053 3187 2822 3187 
C 2246 3187 1760 2874 1434 2374 
L 1414 2374 
L 1370 3110 
L 934 3110 
L 934 0 
z
" transform="scale(0.015625)"/>
      <path id="SourceCodePro-Regular-6e" d="M 595 0 
L 1120 0 
L 1120 2170 
C 1485 2547 1734 2733 2106 2733 
C 2618 2733 2822 2451 2822 1862 
L 2822 0 
L 3347 0 
L 3347 1933 
C 3347 2752 3008 3187 2272 3187 
C 1786 3187 1427 2925 1101 2579 
L 1075 2579 
L 1030 3110 
L 595 3110 
L 595 0 
z
" transform="scale(0.015625)"/>
      <path id="SourceCodePro-Regular-75" d="M 1574 -77 
C 2054 -77 2419 179 2733 544 
L 2758 544 
L 2803 0 
L 3232 0 
L 3232 3110 
L 2707 3110 
L 2707 954 
C 2362 550 2099 378 1741 378 
C 1222 378 1024 659 1024 1248 
L 1024 3110 
L 493 3110 
L 493 1178 
C 493 358 832 -77 1574 -77 
z
" transform="scale(0.015625)"/>
      <path id="SourceCodePro-Regular-6f" d="M 1920 -77 
C 2739 -77 3456 518 3456 1549 
C 3456 2592 2739 3187 1920 3187 
C 1101 3187 384 2592 384 1549 
C 384 518 1101 -77 1920 -77 
z
M 1920 358 
C 1325 358 928 838 928 1549 
C 928 2266 1325 2752 1920 2752 
C 2515 2752 2912 2266 2912 1549 
C 2912 838 2515 358 1920 358 
z
" transform="scale(0.015625)"/>
     </defs>
     <use xlink:href="#SourceCodePro-Regular-67"/>
     <use xlink:href="#SourceCodePro-Regular-72" x="59.999985"/>
     <use xlink:href="#SourceCodePro-Regular-61" x="119.999969"/>
     <use xlink:href="#SourceCodePro-Regular-6e" x="179.999954"/>
     <use xlink:href="#SourceCodePro-Regular-75" x="239.999939"/>
     <use xlink:href="#SourceCodePro-Regular-6c" x="299.999924"/>
     <use xlink:href="#SourceCodePro-Regular-61" x="359.999908"/>
     <use xlink:href="#SourceCodePro-Regular-74" x="419.999893"/>
     <use xlink:href="#SourceCodePro-Regular-69" x="479.999878"/>
     <use xlink:href="#SourceCodePro-Regular-6f" x="539.999863"/>
     <use xlink:href="#SourceCodePro-Regular-6e" x="599.999847"/>
     <use xlink:href="#SourceCodePro-Regular-20" x="659.999832"/>
     <use xlink:href="#SourceCodePro-Regular-70" x="719.999817"/>
     <use xlink:href="#SourceCodePro-Regular-68" x="779.999802"/>
     <use xlink:href="#SourceCodePro-Regular-61" x="839.999786"/>
     <use xlink:href="#SourceCodePro-Regular-73" x="899.999771"/>
     <use xlink:href="#SourceCodePro-Regular-65" x="959.999756"/>
    </g>
   </g>
   <g id="legend_1">
    <g id="patch_7">
     <path d="M 164.6 14.92875 
L 188.6 14.92875 
L 188.6 6.52875 
L 164.6 6.52875 
z
" style="fill: #99d28c; stroke: #99d28c; stroke-linejoin: miter"/>
    </g>
    <g id="text_18">
     <!-- small -->
     <g transform="translate(198.2 14.92875)scale(0.12 -0.12)">
      <use xlink:href="#SourceCodePro-Regular-73"/>
      <use xlink:href="#SourceCodePro-Regular-6d" x="59.999985"/>
      <use xlink:href="#SourceCodePro-Regular-61" x="119.999969"/>
      <use xlink:href="#SourceCodePro-Regular-6c" x="179.999954"/>
      <use xlink:href="#SourceCodePro-Regular-6c" x="239.999939"/>
     </g>
    </g>
    <g id="patch_8">
     <path d="M 258.2 14.92875 
L 282.2 14.92875 
L 282.2 6.52875 
L 258.2 6.52875 
z
" style="fill: #eb7245; stroke: #eb7245; stroke-linejoin: miter"/>
    </g>
    <g id="text_19">
     <!-- large -->
     <g transform="translate(291.8 14.92875)scale(0.12 -0.12)">
      <use xlink:href="#SourceCodePro-Regular-6c"/>
      <use xlink:href="#SourceCodePro-Regular-61" x="59.999985"/>
      <use xlink:href="#SourceCodePro-Regular-72" x="119.999969"/>
      <use xlink:href="#SourceCodePro-Regular-67" x="179.999954"/>
      <use xlink:href="#SourceCodePro-Regular-65" x="239.999939"/>
     </g>
    </g>
    <g id="patch_9">
     <path d="M 351.8 14.92875 
L 375.8 14.92875 
L 375.8 6.52875 
L 351.8 6.52875 
z
" style="fill: #00b7d3; stroke: #00b7d3; stroke-linejoin: miter"/>
    </g>
    <g id="text_20">
     <!-- proto+floc -->
     <g transform="translate(385.4 14.92875)scale(0.12 -0.12)">
      <defs>
       <path id="SourceCodePro-Regular-2b" d="M 1709 666 
L 2131 666 
L 2131 1914 
L 3296 1914 
L 3296 2310 
L 2131 2310 
L 2131 3558 
L 1709 3558 
L 1709 2310 
L 544 2310 
L 544 1914 
L 1709 1914 
L 1709 666 
z
" transform="scale(0.015625)"/>
       <path id="SourceCodePro-Regular-66" d="M 1549 0 
L 2067 0 
L 2067 2682 
L 3373 2682 
L 3373 3110 
L 2067 3110 
L 2067 3392 
C 2067 3898 2298 4205 2854 4205 
C 3123 4205 3322 4173 3578 4058 
L 3699 4454 
C 3405 4576 3110 4634 2803 4634 
C 1946 4634 1549 4134 1549 3373 
L 1549 3110 
L 659 3078 
L 659 2682 
L 1549 2682 
L 1549 0 
z
" transform="scale(0.015625)"/>
       <path id="SourceCodePro-Regular-63" d="M 2214 -77 
C 2675 -77 3104 102 3450 410 
L 3213 749 
C 2957 531 2637 358 2253 358 
C 1536 358 1056 838 1056 1549 
C 1056 2266 1549 2752 2266 2752 
C 2592 2752 2861 2618 3117 2394 
L 3379 2733 
C 3123 2982 2752 3187 2246 3187 
C 1306 3187 512 2592 512 1549 
C 512 518 1242 -77 2214 -77 
z
" transform="scale(0.015625)"/>
      </defs>
      <use xlink:href="#SourceCodePro-Regular-70"/>
      <use xlink:href="#SourceCodePro-Regular-72" x="59.999985"/>
      <use xlink:href="#SourceCodePro-Regular-6f" x="119.999969"/>
      <use xlink:href="#SourceCodePro-Regular-74" x="179.999954"/>
      <use xlink:href="#SourceCodePro-Regular-6f" x="239.999939"/>
      <use xlink:href="#SourceCodePro-Regular-2b" x="299.999924"/>
      <use xlink:href="#SourceCodePro-Regular-66" x="359.999908"/>
      <use xlink:href="#SourceCodePro-Regular-6c" x="419.999893"/>
      <use xlink:href="#SourceCodePro-Regular-6f" x="479.999878"/>
      <use xlink:href="#SourceCodePro-Regular-63" x="539.999863"/>
     </g>
    </g>
   </g>
   <g id="patch_10">
    <path d="M 59.362497 168.2895 
Q 142.971326 168.2895 226.580155 168.2895 
L 226.580155 166.0395 
Q 230.329842 167.9145 234.07953 169.7895 
Q 230.329842 171.6645 226.580155 173.5395 
L 226.580155 171.2895 
Q 142.971326 171.2895 59.362497 171.2895 
L 59.362497 168.2895 
z
" clip-path="url(#pda4b1463d6)" style="stroke: #000000; stroke-linecap: round"/>
   </g>
   <g id="patch_11">
    <path d="M 237.258273 167.587474 
Q 320.025399 129.156641 402.792526 90.725808 
L 401.84496 88.685069 
Q 406.036059 88.806302 410.227158 88.927536 
Q 407.615336 92.207535 405.003513 95.487534 
L 404.055947 93.446795 
Q 321.288821 131.877628 238.521695 170.308461 
L 237.258273 167.587474 
z
" clip-path="url(#pda4b1463d6)" style="stroke: #000000; stroke-linecap: round"/>
   </g>
  </g>
 </g>
 <defs>
  <clipPath id="pda4b1463d6">
   <rect x="32" y="28.4175" width="558" height="166.32"/>
  </clipPath>
 </defs>
</svg>
