<?xml version="1.0" encoding="utf-8" standalone="no"?>
<!DOCTYPE svg PUBLIC "-//W3C//DTD SVG 1.1//EN"
  "http://www.w3.org/Graphics/SVG/1.1/DTD/svg11.dtd">
<svg xmlns:xlink="http://www.w3.org/1999/xlink" width="643.36pt" height="191.140375pt" viewBox="0 0 643.36 191.140375" xmlns="http://www.w3.org/2000/svg" version="1.1">
 <metadata>
  <rdf:RDF xmlns:dc="http://purl.org/dc/elements/1.1/" xmlns:cc="http://creativecommons.org/ns#" xmlns:rdf="http://www.w3.org/1999/02/22-rdf-syntax-ns#">
   <cc:Work>
    <dc:type rdf:resource="http://purl.org/dc/dcmitype/StillImage"/>
    <dc:date>2022-10-30T17:20:41.911211</dc:date>
    <dc:format>image/svg+xml</dc:format>
    <dc:creator>
     <cc:Agent>
      <dc:title>Matplotlib v3.5.2, https://matplotlib.org/</dc:title>
     </cc:Agent>
    </dc:creator>
   </cc:Work>
  </rdf:RDF>
 </metadata>
 <defs>
  <style type="text/css">*{stroke-linejoin: round; stroke-linecap: butt}</style>
 </defs>
 <g id="figure_1">
  <g id="patch_1">
   <path d="M 0 191.140375 
L 643.36 191.140375 
L 643.36 0 
L 0 0 
z
" style="fill: #ffffff"/>
  </g>
  <g id="axes_1">
   <g id="patch_2">
    <path d="M 39.08 171.696 
L 597.08 171.696 
L 597.08 24.816 
L 39.08 24.816 
z
" style="fill: #ffffff"/>
   </g>
   <g id="PolyCollection_1">
    <path d="M 69.882535 171.696 
L 69.882535 -180.816 
L 69.8864 -180.816 
L 70.075707 -180.816 
L 71.922658 -180.816 
L 71.950444 -180.816 
L 81.426181 -180.816 
L 81.426785 -180.816 
L 81.491055 -180.816 
L 90.425084 -180.816 
L 90.790169 -180.816 
L 90.871228 -180.816 
L 97.450549 -180.816 
L 97.547561 -180.816 
L 97.776612 171.696 
L 97.900202 171.696 
L 97.90769 171.696 
L 97.910354 171.696 
L 97.916751 171.696 
L 97.9803 171.696 
L 98.912108 171.696 
L 99.00332 171.696 
L 103.520888 171.696 
L 103.585042 171.696 
L 107.996546 171.696 
L 108.161087 171.696 
L 109.304421 171.696 
L 109.305985 171.696 
L 137.183814 171.696 
L 137.185185 171.696 
L 165.06399 171.696 
L 165.064385 171.696 
L 192.942539 171.696 
L 192.943584 171.696 
L 201.908257 171.696 
L 202.064102 171.696 
L 202.181528 171.696 
L 202.247005 171.696 
L 202.30137 171.696 
L 202.30693 171.696 
L 202.30947 171.696 
L 202.382196 171.696 
L 215.729169 171.696 
L 215.933222 171.696 
L 215.936846 171.696 
L 216.018153 171.696 
L 219.864383 171.696 
L 220.276344 171.696 
L 220.81504 171.696 
L 220.822784 171.696 
L 229.638884 171.696 
L 229.641176 171.696 
L 233.512412 171.696 
L 233.649656 171.696 
L 236.384195 171.696 
L 236.486031 171.696 
L 236.952969 171.696 
L 236.971571 171.696 
L 237.161606 171.696 
L 237.170303 171.696 
L 237.253662 171.696 
L 237.376648 -180.816 
L 238.963849 -180.816 
L 239.183119 -180.816 
L 248.550128 -180.816 
L 248.551576 -180.816 
L 248.700776 -180.816 
L 248.701984 -180.816 
L 264.716695 -180.816 
L 264.839069 -180.816 
L 264.87954 -180.816 
L 264.997338 -180.816 
L 265.087217 171.696 
L 265.210567 171.696 
L 265.218056 171.696 
L 265.220588 171.696 
L 265.290658 171.696 
L 266.272726 171.696 
L 266.273934 171.696 
L 270.696915 171.696 
L 270.944327 171.696 
L 271.432763 171.696 
L 271.640076 171.696 
L 275.086665 171.696 
L 275.415872 171.696 
L 276.57344 171.696 
L 276.581184 171.696 
L 304.460159 171.696 
L 304.460384 171.696 
L 332.337802 171.696 
L 332.339583 171.696 
L 360.218288 171.696 
L 360.218783 171.696 
L 369.309222 171.696 
L 369.352838 171.696 
L 369.382196 171.696 
L 369.52366 171.696 
L 369.597114 171.696 
L 369.605694 171.696 
L 369.60811 171.696 
L 369.67818 171.696 
L 383.012352 171.696 
L 383.217241 171.696 
L 383.218449 171.696 
L 383.29964 171.696 
L 387.042089 171.696 
L 387.430253 171.696 
L 388.097317 171.696 
L 388.097983 171.696 
L 396.748573 171.696 
L 396.794125 171.696 
L 400.646752 171.696 
L 400.893328 171.696 
L 403.675951 171.696 
L 403.728859 171.696 
L 404.205818 171.696 
L 404.306578 171.696 
L 404.461091 171.696 
L 404.468943 171.696 
L 404.537201 171.696 
L 404.658499 -180.816 
L 406.177319 -180.816 
L 406.343672 -180.816 
L 415.262964 -180.816 
L 415.702828 -180.816 
L 415.976223 -180.816 
L 415.977183 -180.816 
L 432.023064 -180.816 
L 432.309383 -180.816 
L 432.341522 -180.816 
L 432.353239 171.696 
L 432.476465 171.696 
L 432.482629 171.696 
L 432.484798 171.696 
L 432.558136 171.696 
L 433.542008 171.696 
L 433.5431 171.696 
L 437.923185 171.696 
L 438.210837 171.696 
L 438.697941 171.696 
L 438.985112 171.696 
L 442.410196 171.696 
L 442.697359 171.696 
L 443.848638 171.696 
L 443.856383 171.696 
L 471.727838 171.696 
L 471.735582 171.696 
L 499.613675 171.696 
L 499.614782 171.696 
L 527.492882 171.696 
L 527.493982 171.696 
L 536.541541 171.696 
L 536.629012 171.696 
L 536.797658 171.696 
L 536.859875 171.696 
L 536.868216 171.696 
L 536.870872 171.696 
L 536.941058 171.696 
L 550.124822 171.696 
L 550.289007 171.696 
L 550.4945 171.696 
L 550.576411 171.696 
L 553.92732 171.696 
L 554.1745 171.696 
L 555.365438 171.696 
L 555.373182 171.696 
L 563.101637 171.696 
L 563.543925 171.696 
L 568.076835 171.696 
L 568.212506 171.696 
L 570.872143 171.696 
L 571.046473 171.696 
L 571.513519 171.696 
L 571.538285 171.696 
L 571.716364 171.696 
L 571.716364 171.696 
L 571.716364 171.696 
L 571.538285 171.696 
L 571.513519 171.696 
L 571.046473 171.696 
L 570.872143 171.696 
L 568.212506 171.696 
L 568.076835 171.696 
L 563.543925 171.696 
L 563.101637 171.696 
L 555.373182 171.696 
L 555.365438 171.696 
L 554.1745 171.696 
L 553.92732 171.696 
L 550.576411 171.696 
L 550.4945 171.696 
L 550.289007 171.696 
L 550.124822 171.696 
L 536.941058 171.696 
L 536.870872 171.696 
L 536.868216 171.696 
L 536.859875 171.696 
L 536.797658 171.696 
L 536.629012 171.696 
L 536.541541 171.696 
L 527.493982 171.696 
L 527.492882 171.696 
L 499.614782 171.696 
L 499.613675 171.696 
L 471.735582 171.696 
L 471.727838 171.696 
L 443.856383 171.696 
L 443.848638 171.696 
L 442.697359 171.696 
L 442.410196 171.696 
L 438.985112 171.696 
L 438.697941 171.696 
L 438.210837 171.696 
L 437.923185 171.696 
L 433.5431 171.696 
L 433.542008 171.696 
L 432.558136 171.696 
L 432.484798 171.696 
L 432.482629 171.696 
L 432.476465 171.696 
L 432.353239 171.696 
L 432.341522 171.696 
L 432.309383 171.696 
L 432.023064 171.696 
L 415.977183 171.696 
L 415.976223 171.696 
L 415.702828 171.696 
L 415.262964 171.696 
L 406.343672 171.696 
L 406.177319 171.696 
L 404.658499 171.696 
L 404.537201 171.696 
L 404.468943 171.696 
L 404.461091 171.696 
L 404.306578 171.696 
L 404.205818 171.696 
L 403.728859 171.696 
L 403.675951 171.696 
L 400.893328 171.696 
L 400.646752 171.696 
L 396.794125 171.696 
L 396.748573 171.696 
L 388.097983 171.696 
L 388.097317 171.696 
L 387.430253 171.696 
L 387.042089 171.696 
L 383.29964 171.696 
L 383.218449 171.696 
L 383.217241 171.696 
L 383.012352 171.696 
L 369.67818 171.696 
L 369.60811 171.696 
L 369.605694 171.696 
L 369.597114 171.696 
L 369.52366 171.696 
L 369.382196 171.696 
L 369.352838 171.696 
L 369.309222 171.696 
L 360.218783 171.696 
L 360.218288 171.696 
L 332.339583 171.696 
L 332.337802 171.696 
L 304.460384 171.696 
L 304.460159 171.696 
L 276.581184 171.696 
L 276.57344 171.696 
L 275.415872 171.696 
L 275.086665 171.696 
L 271.640076 171.696 
L 271.432763 171.696 
L 270.944327 171.696 
L 270.696915 171.696 
L 266.273934 171.696 
L 266.272726 171.696 
L 265.290658 171.696 
L 265.220588 171.696 
L 265.218056 171.696 
L 265.210567 171.696 
L 265.087217 171.696 
L 264.997338 171.696 
L 264.87954 171.696 
L 264.839069 171.696 
L 264.716695 171.696 
L 248.701984 171.696 
L 248.700776 171.696 
L 248.551576 171.696 
L 248.550128 171.696 
L 239.183119 171.696 
L 238.963849 171.696 
L 237.376648 171.696 
L 237.253662 171.696 
L 237.170303 171.696 
L 237.161606 171.696 
L 236.971571 171.696 
L 236.952969 171.696 
L 236.486031 171.696 
L 236.384195 171.696 
L 233.649656 171.696 
L 233.512412 171.696 
L 229.641176 171.696 
L 229.638884 171.696 
L 220.822784 171.696 
L 220.81504 171.696 
L 220.276344 171.696 
L 219.864383 171.696 
L 216.018153 171.696 
L 215.936846 171.696 
L 215.933222 171.696 
L 215.729169 171.696 
L 202.382196 171.696 
L 202.30947 171.696 
L 202.30693 171.696 
L 202.30137 171.696 
L 202.247005 171.696 
L 202.181528 171.696 
L 202.064102 171.696 
L 201.908257 171.696 
L 192.943584 171.696 
L 192.942539 171.696 
L 165.064385 171.696 
L 165.06399 171.696 
L 137.185185 171.696 
L 137.183814 171.696 
L 109.305985 171.696 
L 109.304421 171.696 
L 108.161087 171.696 
L 107.996546 171.696 
L 103.585042 171.696 
L 103.520888 171.696 
L 99.00332 171.696 
L 98.912108 171.696 
L 97.9803 171.696 
L 97.916751 171.696 
L 97.910354 171.696 
L 97.90769 171.696 
L 97.900202 171.696 
L 97.776612 171.696 
L 97.547561 171.696 
L 97.450549 171.696 
L 90.871228 171.696 
L 90.790169 171.696 
L 90.425084 171.696 
L 81.491055 171.696 
L 81.426785 171.696 
L 81.426181 171.696 
L 71.950444 171.696 
L 71.922658 171.696 
L 70.075707 171.696 
L 69.8864 171.696 
L 69.882535 171.696 
z
" clip-path="url(#pafc088df4d)" style="fill: url(#h060d0b14ea)"/>
   </g>
   <g id="PolyCollection_2">
    <path d="M 69.882535 171.696 
L 69.882535 171.696 
L 69.8864 171.696 
L 70.075707 171.696 
L 71.922658 171.696 
L 71.950444 171.696 
L 81.426181 171.696 
L 81.426785 171.696 
L 81.491055 171.696 
L 90.425084 171.696 
L 90.790169 171.696 
L 90.871228 171.696 
L 97.450549 171.696 
L 97.547561 171.696 
L 97.776612 171.696 
L 97.900202 171.696 
L 97.90769 171.696 
L 97.910354 171.696 
L 97.916751 171.696 
L 97.9803 171.696 
L 98.912108 171.696 
L 99.00332 171.696 
L 103.520888 171.696 
L 103.585042 171.696 
L 107.996546 171.696 
L 108.161087 171.696 
L 109.304421 171.696 
L 109.305985 171.696 
L 137.183814 171.696 
L 137.185185 171.696 
L 165.06399 171.696 
L 165.064385 171.696 
L 192.942539 171.696 
L 192.943584 171.696 
L 201.908257 171.696 
L 202.064102 171.696 
L 202.181528 171.696 
L 202.247005 171.696 
L 202.30137 171.696 
L 202.30693 171.696 
L 202.30947 171.696 
L 202.382196 171.696 
L 215.729169 171.696 
L 215.933222 171.696 
L 215.936846 171.696 
L 216.018153 -180.816 
L 219.864383 -180.816 
L 220.276344 -180.816 
L 220.81504 -180.816 
L 220.822784 -180.816 
L 229.638884 -180.816 
L 229.641176 -180.816 
L 233.512412 -180.816 
L 233.649656 171.696 
L 236.384195 171.696 
L 236.486031 171.696 
L 236.952969 171.696 
L 236.971571 171.696 
L 237.161606 171.696 
L 237.170303 171.696 
L 237.253662 171.696 
L 237.376648 171.696 
L 238.963849 171.696 
L 239.183119 171.696 
L 248.550128 171.696 
L 248.551576 171.696 
L 248.700776 171.696 
L 248.701984 171.696 
L 264.716695 171.696 
L 264.839069 171.696 
L 264.87954 171.696 
L 264.997338 171.696 
L 265.087217 171.696 
L 265.210567 171.696 
L 265.218056 171.696 
L 265.220588 171.696 
L 265.290658 171.696 
L 266.272726 171.696 
L 266.273934 171.696 
L 270.696915 171.696 
L 270.944327 171.696 
L 271.432763 171.696 
L 271.640076 171.696 
L 275.086665 171.696 
L 275.415872 171.696 
L 276.57344 171.696 
L 276.581184 171.696 
L 304.460159 171.696 
L 304.460384 171.696 
L 332.337802 171.696 
L 332.339583 171.696 
L 360.218288 171.696 
L 360.218783 171.696 
L 369.309222 171.696 
L 369.352838 171.696 
L 369.382196 171.696 
L 369.52366 171.696 
L 369.597114 171.696 
L 369.605694 171.696 
L 369.60811 171.696 
L 369.67818 171.696 
L 383.012352 171.696 
L 383.217241 171.696 
L 383.218449 171.696 
L 383.29964 -180.816 
L 387.042089 -180.816 
L 387.430253 -180.816 
L 388.097317 -180.816 
L 388.097983 -180.816 
L 396.748573 -180.816 
L 396.794125 -180.816 
L 400.646752 -180.816 
L 400.893328 171.696 
L 403.675951 171.696 
L 403.728859 171.696 
L 404.205818 171.696 
L 404.306578 171.696 
L 404.461091 171.696 
L 404.468943 171.696 
L 404.537201 171.696 
L 404.658499 171.696 
L 406.177319 171.696 
L 406.343672 171.696 
L 415.262964 171.696 
L 415.702828 171.696 
L 415.976223 171.696 
L 415.977183 171.696 
L 432.023064 171.696 
L 432.309383 171.696 
L 432.341522 171.696 
L 432.353239 171.696 
L 432.476465 171.696 
L 432.482629 171.696 
L 432.484798 171.696 
L 432.558136 171.696 
L 433.542008 171.696 
L 433.5431 171.696 
L 437.923185 171.696 
L 438.210837 171.696 
L 438.697941 171.696 
L 438.985112 171.696 
L 442.410196 171.696 
L 442.697359 171.696 
L 443.848638 171.696 
L 443.856383 171.696 
L 471.727838 171.696 
L 471.735582 171.696 
L 499.613675 171.696 
L 499.614782 171.696 
L 527.492882 171.696 
L 527.493982 171.696 
L 536.541541 171.696 
L 536.629012 171.696 
L 536.797658 171.696 
L 536.859875 171.696 
L 536.868216 171.696 
L 536.870872 171.696 
L 536.941058 171.696 
L 550.124822 171.696 
L 550.289007 171.696 
L 550.4945 171.696 
L 550.576411 -180.816 
L 553.92732 -180.816 
L 554.1745 -180.816 
L 555.365438 -180.816 
L 555.373182 -180.816 
L 563.101637 -180.816 
L 563.543925 -180.816 
L 568.076835 -180.816 
L 568.212506 171.696 
L 570.872143 171.696 
L 571.046473 171.696 
L 571.513519 171.696 
L 571.538285 171.696 
L 571.716364 171.696 
L 571.716364 171.696 
L 571.716364 171.696 
L 571.538285 171.696 
L 571.513519 171.696 
L 571.046473 171.696 
L 570.872143 171.696 
L 568.212506 171.696 
L 568.076835 171.696 
L 563.543925 171.696 
L 563.101637 171.696 
L 555.373182 171.696 
L 555.365438 171.696 
L 554.1745 171.696 
L 553.92732 171.696 
L 550.576411 171.696 
L 550.4945 171.696 
L 550.289007 171.696 
L 550.124822 171.696 
L 536.941058 171.696 
L 536.870872 171.696 
L 536.868216 171.696 
L 536.859875 171.696 
L 536.797658 171.696 
L 536.629012 171.696 
L 536.541541 171.696 
L 527.493982 171.696 
L 527.492882 171.696 
L 499.614782 171.696 
L 499.613675 171.696 
L 471.735582 171.696 
L 471.727838 171.696 
L 443.856383 171.696 
L 443.848638 171.696 
L 442.697359 171.696 
L 442.410196 171.696 
L 438.985112 171.696 
L 438.697941 171.696 
L 438.210837 171.696 
L 437.923185 171.696 
L 433.5431 171.696 
L 433.542008 171.696 
L 432.558136 171.696 
L 432.484798 171.696 
L 432.482629 171.696 
L 432.476465 171.696 
L 432.353239 171.696 
L 432.341522 171.696 
L 432.309383 171.696 
L 432.023064 171.696 
L 415.977183 171.696 
L 415.976223 171.696 
L 415.702828 171.696 
L 415.262964 171.696 
L 406.343672 171.696 
L 406.177319 171.696 
L 404.658499 171.696 
L 404.537201 171.696 
L 404.468943 171.696 
L 404.461091 171.696 
L 404.306578 171.696 
L 404.205818 171.696 
L 403.728859 171.696 
L 403.675951 171.696 
L 400.893328 171.696 
L 400.646752 171.696 
L 396.794125 171.696 
L 396.748573 171.696 
L 388.097983 171.696 
L 388.097317 171.696 
L 387.430253 171.696 
L 387.042089 171.696 
L 383.29964 171.696 
L 383.218449 171.696 
L 383.217241 171.696 
L 383.012352 171.696 
L 369.67818 171.696 
L 369.60811 171.696 
L 369.605694 171.696 
L 369.597114 171.696 
L 369.52366 171.696 
L 369.382196 171.696 
L 369.352838 171.696 
L 369.309222 171.696 
L 360.218783 171.696 
L 360.218288 171.696 
L 332.339583 171.696 
L 332.337802 171.696 
L 304.460384 171.696 
L 304.460159 171.696 
L 276.581184 171.696 
L 276.57344 171.696 
L 275.415872 171.696 
L 275.086665 171.696 
L 271.640076 171.696 
L 271.432763 171.696 
L 270.944327 171.696 
L 270.696915 171.696 
L 266.273934 171.696 
L 266.272726 171.696 
L 265.290658 171.696 
L 265.220588 171.696 
L 265.218056 171.696 
L 265.210567 171.696 
L 265.087217 171.696 
L 264.997338 171.696 
L 264.87954 171.696 
L 264.839069 171.696 
L 264.716695 171.696 
L 248.701984 171.696 
L 248.700776 171.696 
L 248.551576 171.696 
L 248.550128 171.696 
L 239.183119 171.696 
L 238.963849 171.696 
L 237.376648 171.696 
L 237.253662 171.696 
L 237.170303 171.696 
L 237.161606 171.696 
L 236.971571 171.696 
L 236.952969 171.696 
L 236.486031 171.696 
L 236.384195 171.696 
L 233.649656 171.696 
L 233.512412 171.696 
L 229.641176 171.696 
L 229.638884 171.696 
L 220.822784 171.696 
L 220.81504 171.696 
L 220.276344 171.696 
L 219.864383 171.696 
L 216.018153 171.696 
L 215.936846 171.696 
L 215.933222 171.696 
L 215.729169 171.696 
L 202.382196 171.696 
L 202.30947 171.696 
L 202.30693 171.696 
L 202.30137 171.696 
L 202.247005 171.696 
L 202.181528 171.696 
L 202.064102 171.696 
L 201.908257 171.696 
L 192.943584 171.696 
L 192.942539 171.696 
L 165.064385 171.696 
L 165.06399 171.696 
L 137.185185 171.696 
L 137.183814 171.696 
L 109.305985 171.696 
L 109.304421 171.696 
L 108.161087 171.696 
L 107.996546 171.696 
L 103.585042 171.696 
L 103.520888 171.696 
L 99.00332 171.696 
L 98.912108 171.696 
L 97.9803 171.696 
L 97.916751 171.696 
L 97.910354 171.696 
L 97.90769 171.696 
L 97.900202 171.696 
L 97.776612 171.696 
L 97.547561 171.696 
L 97.450549 171.696 
L 90.871228 171.696 
L 90.790169 171.696 
L 90.425084 171.696 
L 81.491055 171.696 
L 81.426785 171.696 
L 81.426181 171.696 
L 71.950444 171.696 
L 71.922658 171.696 
L 70.075707 171.696 
L 69.8864 171.696 
L 69.882535 171.696 
z
" clip-path="url(#pafc088df4d)" style="fill: #dddddd"/>
   </g>
   <g id="PolyCollection_3">
    <path d="M 69.882535 171.696 
L 69.882535 171.696 
L 69.8864 171.696 
L 70.075707 171.696 
L 71.922658 171.696 
L 71.950444 171.696 
L 81.426181 171.696 
L 81.426785 171.696 
L 81.491055 171.696 
L 90.425084 171.696 
L 90.790169 171.696 
L 90.871228 171.696 
L 97.450549 171.696 
L 97.547561 171.696 
L 97.776612 171.696 
L 97.900202 171.696 
L 97.90769 171.696 
L 97.910354 -180.816 
L 97.916751 -180.816 
L 97.9803 -180.816 
L 98.912108 -180.816 
L 99.00332 -180.816 
L 103.520888 -180.816 
L 103.585042 -180.816 
L 107.996546 -180.816 
L 108.161087 -180.816 
L 109.304421 -180.816 
L 109.305985 -180.816 
L 137.183814 -180.816 
L 137.185185 -180.816 
L 165.06399 -180.816 
L 165.064385 -180.816 
L 192.942539 -180.816 
L 192.943584 -180.816 
L 201.908257 -180.816 
L 202.064102 -180.816 
L 202.181528 -180.816 
L 202.247005 171.696 
L 202.30137 171.696 
L 202.30693 171.696 
L 202.30947 171.696 
L 202.382196 -180.816 
L 215.729169 -180.816 
L 215.933222 -180.816 
L 215.936846 171.696 
L 216.018153 171.696 
L 219.864383 171.696 
L 220.276344 171.696 
L 220.81504 171.696 
L 220.822784 171.696 
L 229.638884 171.696 
L 229.641176 171.696 
L 233.512412 171.696 
L 233.649656 171.696 
L 236.384195 171.696 
L 236.486031 171.696 
L 236.952969 171.696 
L 236.971571 171.696 
L 237.161606 171.696 
L 237.170303 171.696 
L 237.253662 171.696 
L 237.376648 171.696 
L 238.963849 171.696 
L 239.183119 171.696 
L 248.550128 171.696 
L 248.551576 171.696 
L 248.700776 171.696 
L 248.701984 171.696 
L 264.716695 171.696 
L 264.839069 171.696 
L 264.87954 171.696 
L 264.997338 171.696 
L 265.087217 171.696 
L 265.210567 171.696 
L 265.218056 171.696 
L 265.220588 -180.816 
L 265.290658 -180.816 
L 266.272726 -180.816 
L 266.273934 -180.816 
L 270.696915 -180.816 
L 270.944327 -180.816 
L 271.432763 -180.816 
L 271.640076 -180.816 
L 275.086665 -180.816 
L 275.415872 -180.816 
L 276.57344 -180.816 
L 276.581184 -180.816 
L 304.460159 -180.816 
L 304.460384 -180.816 
L 332.337802 -180.816 
L 332.339583 -180.816 
L 360.218288 -180.816 
L 360.218783 -180.816 
L 369.309222 -180.816 
L 369.352838 -180.816 
L 369.382196 -180.816 
L 369.52366 171.696 
L 369.597114 171.696 
L 369.605694 171.696 
L 369.60811 171.696 
L 369.67818 -180.816 
L 383.012352 -180.816 
L 383.217241 -180.816 
L 383.218449 171.696 
L 383.29964 171.696 
L 387.042089 171.696 
L 387.430253 171.696 
L 388.097317 171.696 
L 388.097983 171.696 
L 396.748573 171.696 
L 396.794125 171.696 
L 400.646752 171.696 
L 400.893328 171.696 
L 403.675951 171.696 
L 403.728859 171.696 
L 404.205818 171.696 
L 404.306578 171.696 
L 404.461091 171.696 
L 404.468943 171.696 
L 404.537201 171.696 
L 404.658499 171.696 
L 406.177319 171.696 
L 406.343672 171.696 
L 415.262964 171.696 
L 415.702828 171.696 
L 415.976223 171.696 
L 415.977183 171.696 
L 432.023064 171.696 
L 432.309383 171.696 
L 432.341522 171.696 
L 432.353239 171.696 
L 432.476465 171.696 
L 432.482629 171.696 
L 432.484798 -180.816 
L 432.558136 -180.816 
L 433.542008 -180.816 
L 433.5431 -180.816 
L 437.923185 -180.816 
L 438.210837 -180.816 
L 438.697941 -180.816 
L 438.985112 -180.816 
L 442.410196 -180.816 
L 442.697359 -180.816 
L 443.848638 -180.816 
L 443.856383 -180.816 
L 471.727838 -180.816 
L 471.735582 -180.816 
L 499.613675 -180.816 
L 499.614782 -180.816 
L 527.492882 -180.816 
L 527.493982 -180.816 
L 536.541541 -180.816 
L 536.629012 -180.816 
L 536.797658 171.696 
L 536.859875 171.696 
L 536.868216 171.696 
L 536.870872 171.696 
L 536.941058 -180.816 
L 550.124822 -180.816 
L 550.289007 -180.816 
L 550.4945 171.696 
L 550.576411 171.696 
L 553.92732 171.696 
L 554.1745 171.696 
L 555.365438 171.696 
L 555.373182 171.696 
L 563.101637 171.696 
L 563.543925 171.696 
L 568.076835 171.696 
L 568.212506 171.696 
L 570.872143 171.696 
L 571.046473 171.696 
L 571.513519 171.696 
L 571.538285 171.696 
L 571.716364 171.696 
L 571.716364 171.696 
L 571.716364 171.696 
L 571.538285 171.696 
L 571.513519 171.696 
L 571.046473 171.696 
L 570.872143 171.696 
L 568.212506 171.696 
L 568.076835 171.696 
L 563.543925 171.696 
L 563.101637 171.696 
L 555.373182 171.696 
L 555.365438 171.696 
L 554.1745 171.696 
L 553.92732 171.696 
L 550.576411 171.696 
L 550.4945 171.696 
L 550.289007 171.696 
L 550.124822 171.696 
L 536.941058 171.696 
L 536.870872 171.696 
L 536.868216 171.696 
L 536.859875 171.696 
L 536.797658 171.696 
L 536.629012 171.696 
L 536.541541 171.696 
L 527.493982 171.696 
L 527.492882 171.696 
L 499.614782 171.696 
L 499.613675 171.696 
L 471.735582 171.696 
L 471.727838 171.696 
L 443.856383 171.696 
L 443.848638 171.696 
L 442.697359 171.696 
L 442.410196 171.696 
L 438.985112 171.696 
L 438.697941 171.696 
L 438.210837 171.696 
L 437.923185 171.696 
L 433.5431 171.696 
L 433.542008 171.696 
L 432.558136 171.696 
L 432.484798 171.696 
L 432.482629 171.696 
L 432.476465 171.696 
L 432.353239 171.696 
L 432.341522 171.696 
L 432.309383 171.696 
L 432.023064 171.696 
L 415.977183 171.696 
L 415.976223 171.696 
L 415.702828 171.696 
L 415.262964 171.696 
L 406.343672 171.696 
L 406.177319 171.696 
L 404.658499 171.696 
L 404.537201 171.696 
L 404.468943 171.696 
L 404.461091 171.696 
L 404.306578 171.696 
L 404.205818 171.696 
L 403.728859 171.696 
L 403.675951 171.696 
L 400.893328 171.696 
L 400.646752 171.696 
L 396.794125 171.696 
L 396.748573 171.696 
L 388.097983 171.696 
L 388.097317 171.696 
L 387.430253 171.696 
L 387.042089 171.696 
L 383.29964 171.696 
L 383.218449 171.696 
L 383.217241 171.696 
L 383.012352 171.696 
L 369.67818 171.696 
L 369.60811 171.696 
L 369.605694 171.696 
L 369.597114 171.696 
L 369.52366 171.696 
L 369.382196 171.696 
L 369.352838 171.696 
L 369.309222 171.696 
L 360.218783 171.696 
L 360.218288 171.696 
L 332.339583 171.696 
L 332.337802 171.696 
L 304.460384 171.696 
L 304.460159 171.696 
L 276.581184 171.696 
L 276.57344 171.696 
L 275.415872 171.696 
L 275.086665 171.696 
L 271.640076 171.696 
L 271.432763 171.696 
L 270.944327 171.696 
L 270.696915 171.696 
L 266.273934 171.696 
L 266.272726 171.696 
L 265.290658 171.696 
L 265.220588 171.696 
L 265.218056 171.696 
L 265.210567 171.696 
L 265.087217 171.696 
L 264.997338 171.696 
L 264.87954 171.696 
L 264.839069 171.696 
L 264.716695 171.696 
L 248.701984 171.696 
L 248.700776 171.696 
L 248.551576 171.696 
L 248.550128 171.696 
L 239.183119 171.696 
L 238.963849 171.696 
L 237.376648 171.696 
L 237.253662 171.696 
L 237.170303 171.696 
L 237.161606 171.696 
L 236.971571 171.696 
L 236.952969 171.696 
L 236.486031 171.696 
L 236.384195 171.696 
L 233.649656 171.696 
L 233.512412 171.696 
L 229.641176 171.696 
L 229.638884 171.696 
L 220.822784 171.696 
L 220.81504 171.696 
L 220.276344 171.696 
L 219.864383 171.696 
L 216.018153 171.696 
L 215.936846 171.696 
L 215.933222 171.696 
L 215.729169 171.696 
L 202.382196 171.696 
L 202.30947 171.696 
L 202.30693 171.696 
L 202.30137 171.696 
L 202.247005 171.696 
L 202.181528 171.696 
L 202.064102 171.696 
L 201.908257 171.696 
L 192.943584 171.696 
L 192.942539 171.696 
L 165.064385 171.696 
L 165.06399 171.696 
L 137.185185 171.696 
L 137.183814 171.696 
L 109.305985 171.696 
L 109.304421 171.696 
L 108.161087 171.696 
L 107.996546 171.696 
L 103.585042 171.696 
L 103.520888 171.696 
L 99.00332 171.696 
L 98.912108 171.696 
L 97.9803 171.696 
L 97.916751 171.696 
L 97.910354 171.696 
L 97.90769 171.696 
L 97.900202 171.696 
L 97.776612 171.696 
L 97.547561 171.696 
L 97.450549 171.696 
L 90.871228 171.696 
L 90.790169 171.696 
L 90.425084 171.696 
L 81.491055 171.696 
L 81.426785 171.696 
L 81.426181 171.696 
L 71.950444 171.696 
L 71.922658 171.696 
L 70.075707 171.696 
L 69.8864 171.696 
L 69.882535 171.696 
z
" clip-path="url(#pafc088df4d)" style="fill: url(#h85ae56e1ea)"/>
   </g>
   <g id="matplotlib.axis_1">
    <g id="xtick_1">
     <g id="line2d_1">
      <path d="M 81.426785 171.696 
L 81.426785 24.816 
" clip-path="url(#pafc088df4d)" style="fill: none; stroke: #b0b0b0; stroke-linecap: square"/>
     </g>
     <g id="line2d_2">
      <defs>
       <path id="m15368abec6" d="M 0 0 
L 0 3.5 
" style="stroke: #000000"/>
      </defs>
      <g>
       <use xlink:href="#m15368abec6" x="81.426785" y="171.696" style="stroke: #000000"/>
      </g>
     </g>
     <g id="line2d_3">
      <defs>
       <path id="m4094ce1a9a" d="M 0 0 
L 0 -3.5 
" style="stroke: #000000"/>
      </defs>
      <g>
       <use xlink:href="#m4094ce1a9a" x="81.426785" y="24.816" style="stroke: #000000"/>
      </g>
     </g>
     <g id="text_1">
      <text style="font: 12px 'Source Code Pro'; text-anchor: middle" x="81.426785" y="187.240375" transform="rotate(-0, 81.426785, 187.240375)">12:00</text>
     </g>
    </g>
    <g id="xtick_2">
     <g id="line2d_4">
      <path d="M 137.185185 171.696 
L 137.185185 24.816 
" clip-path="url(#pafc088df4d)" style="fill: none; stroke: #b0b0b0; stroke-linecap: square"/>
     </g>
     <g id="line2d_5">
      <g>
       <use xlink:href="#m15368abec6" x="137.185185" y="171.696" style="stroke: #000000"/>
      </g>
     </g>
     <g id="line2d_6">
      <g>
       <use xlink:href="#m4094ce1a9a" x="137.185185" y="24.816" style="stroke: #000000"/>
      </g>
     </g>
     <g id="text_2">
      <text style="font: 12px 'Source Code Pro'; text-anchor: middle" x="137.185185" y="187.240375" transform="rotate(-0, 137.185185, 187.240375)">14:00</text>
     </g>
    </g>
    <g id="xtick_3">
     <g id="line2d_7">
      <path d="M 192.943584 171.696 
L 192.943584 24.816 
" clip-path="url(#pafc088df4d)" style="fill: none; stroke: #b0b0b0; stroke-linecap: square"/>
     </g>
     <g id="line2d_8">
      <g>
       <use xlink:href="#m15368abec6" x="192.943584" y="171.696" style="stroke: #000000"/>
      </g>
     </g>
     <g id="line2d_9">
      <g>
       <use xlink:href="#m4094ce1a9a" x="192.943584" y="24.816" style="stroke: #000000"/>
      </g>
     </g>
     <g id="text_3">
      <text style="font: 12px 'Source Code Pro'; text-anchor: middle" x="192.943584" y="187.240375" transform="rotate(-0, 192.943584, 187.240375)">16:00</text>
     </g>
    </g>
    <g id="xtick_4">
     <g id="line2d_10">
      <path d="M 248.701984 171.696 
L 248.701984 24.816 
" clip-path="url(#pafc088df4d)" style="fill: none; stroke: #b0b0b0; stroke-linecap: square"/>
     </g>
     <g id="line2d_11">
      <g>
       <use xlink:href="#m15368abec6" x="248.701984" y="171.696" style="stroke: #000000"/>
      </g>
     </g>
     <g id="line2d_12">
      <g>
       <use xlink:href="#m4094ce1a9a" x="248.701984" y="24.816" style="stroke: #000000"/>
      </g>
     </g>
     <g id="text_4">
      <text style="font: 12px 'Source Code Pro'; text-anchor: middle" x="248.701984" y="187.240375" transform="rotate(-0, 248.701984, 187.240375)">18:00</text>
     </g>
    </g>
    <g id="xtick_5">
     <g id="line2d_13">
      <path d="M 304.460384 171.696 
L 304.460384 24.816 
" clip-path="url(#pafc088df4d)" style="fill: none; stroke: #b0b0b0; stroke-linecap: square"/>
     </g>
     <g id="line2d_14">
      <g>
       <use xlink:href="#m15368abec6" x="304.460384" y="171.696" style="stroke: #000000"/>
      </g>
     </g>
     <g id="line2d_15">
      <g>
       <use xlink:href="#m4094ce1a9a" x="304.460384" y="24.816" style="stroke: #000000"/>
      </g>
     </g>
     <g id="text_5">
      <text style="font: 12px 'Source Code Pro'; text-anchor: middle" x="304.460384" y="187.240375" transform="rotate(-0, 304.460384, 187.240375)">20:00</text>
     </g>
    </g>
    <g id="xtick_6">
     <g id="line2d_16">
      <path d="M 360.218783 171.696 
L 360.218783 24.816 
" clip-path="url(#pafc088df4d)" style="fill: none; stroke: #b0b0b0; stroke-linecap: square"/>
     </g>
     <g id="line2d_17">
      <g>
       <use xlink:href="#m15368abec6" x="360.218783" y="171.696" style="stroke: #000000"/>
      </g>
     </g>
     <g id="line2d_18">
      <g>
       <use xlink:href="#m4094ce1a9a" x="360.218783" y="24.816" style="stroke: #000000"/>
      </g>
     </g>
     <g id="text_6">
      <text style="font: 12px 'Source Code Pro'; text-anchor: middle" x="360.218783" y="187.240375" transform="rotate(-0, 360.218783, 187.240375)">22:00</text>
     </g>
    </g>
    <g id="xtick_7">
     <g id="line2d_19">
      <path d="M 415.977183 171.696 
L 415.977183 24.816 
" clip-path="url(#pafc088df4d)" style="fill: none; stroke: #b0b0b0; stroke-linecap: square"/>
     </g>
     <g id="line2d_20">
      <g>
       <use xlink:href="#m15368abec6" x="415.977183" y="171.696" style="stroke: #000000"/>
      </g>
     </g>
     <g id="line2d_21">
      <g>
       <use xlink:href="#m4094ce1a9a" x="415.977183" y="24.816" style="stroke: #000000"/>
      </g>
     </g>
     <g id="text_7">
      <text style="font: 12px 'Source Code Pro'; text-anchor: middle" x="415.977183" y="187.240375" transform="rotate(-0, 415.977183, 187.240375)">00:00</text>
     </g>
    </g>
    <g id="xtick_8">
     <g id="line2d_22">
      <path d="M 471.735582 171.696 
L 471.735582 24.816 
" clip-path="url(#pafc088df4d)" style="fill: none; stroke: #b0b0b0; stroke-linecap: square"/>
     </g>
     <g id="line2d_23">
      <g>
       <use xlink:href="#m15368abec6" x="471.735582" y="171.696" style="stroke: #000000"/>
      </g>
     </g>
     <g id="line2d_24">
      <g>
       <use xlink:href="#m4094ce1a9a" x="471.735582" y="24.816" style="stroke: #000000"/>
      </g>
     </g>
     <g id="text_8">
      <text style="font: 12px 'Source Code Pro'; text-anchor: middle" x="471.735582" y="187.240375" transform="rotate(-0, 471.735582, 187.240375)">02:00</text>
     </g>
    </g>
    <g id="xtick_9">
     <g id="line2d_25">
      <path d="M 527.493982 171.696 
L 527.493982 24.816 
" clip-path="url(#pafc088df4d)" style="fill: none; stroke: #b0b0b0; stroke-linecap: square"/>
     </g>
     <g id="line2d_26">
      <g>
       <use xlink:href="#m15368abec6" x="527.493982" y="171.696" style="stroke: #000000"/>
      </g>
     </g>
     <g id="line2d_27">
      <g>
       <use xlink:href="#m4094ce1a9a" x="527.493982" y="24.816" style="stroke: #000000"/>
      </g>
     </g>
     <g id="text_9">
      <text style="font: 12px 'Source Code Pro'; text-anchor: middle" x="527.493982" y="187.240375" transform="rotate(-0, 527.493982, 187.240375)">04:00</text>
     </g>
    </g>
    <g id="xtick_10">
     <g id="line2d_28">
      <path d="M 583.252382 171.696 
L 583.252382 24.816 
" clip-path="url(#pafc088df4d)" style="fill: none; stroke: #b0b0b0; stroke-linecap: square"/>
     </g>
     <g id="line2d_29">
      <g>
       <use xlink:href="#m15368abec6" x="583.252382" y="171.696" style="stroke: #000000"/>
      </g>
     </g>
     <g id="line2d_30">
      <g>
       <use xlink:href="#m4094ce1a9a" x="583.252382" y="24.816" style="stroke: #000000"/>
      </g>
     </g>
     <g id="text_10">
      <text style="font: 12px 'Source Code Pro'; text-anchor: middle" x="583.252382" y="187.240375" transform="rotate(-0, 583.252382, 187.240375)">06:00</text>
     </g>
    </g>
   </g>
   <g id="matplotlib.axis_2">
    <g id="ytick_1">
     <g id="line2d_31">
      <path d="M 39.08 171.696 
L 597.08 171.696 
" clip-path="url(#pafc088df4d)" style="fill: none; stroke: #b0b0b0; stroke-linecap: square"/>
     </g>
     <g id="line2d_32">
      <defs>
       <path id="mabd1eccd63" d="M 0 0 
L -3.5 0 
" style="stroke: #000000"/>
      </defs>
      <g>
       <use xlink:href="#mabd1eccd63" x="39.08" y="171.696" style="stroke: #000000"/>
      </g>
     </g>
     <g id="line2d_33">
      <defs>
       <path id="md1da4487cd" d="M 0 0 
L 3.5 0 
" style="stroke: #000000"/>
      </defs>
      <g>
       <use xlink:href="#md1da4487cd" x="597.08" y="171.696" style="stroke: #000000"/>
      </g>
     </g>
     <g id="text_11">
      <text style="font: 12px 'Source Code Pro'; text-anchor: end" x="32.08" y="175.968187" transform="rotate(-0, 32.08, 175.968187)">0</text>
     </g>
    </g>
    <g id="ytick_2">
     <g id="line2d_34">
      <path d="M 39.08 142.32 
L 597.08 142.32 
" clip-path="url(#pafc088df4d)" style="fill: none; stroke: #b0b0b0; stroke-linecap: square"/>
     </g>
     <g id="line2d_35">
      <g>
       <use xlink:href="#mabd1eccd63" x="39.08" y="142.32" style="stroke: #000000"/>
      </g>
     </g>
     <g id="line2d_36">
      <g>
       <use xlink:href="#md1da4487cd" x="597.08" y="142.32" style="stroke: #000000"/>
      </g>
     </g>
     <g id="text_12">
      <text style="font: 12px 'Source Code Pro'; text-anchor: end" x="32.08" y="146.592187" transform="rotate(-0, 32.08, 146.592187)">2</text>
     </g>
    </g>
    <g id="ytick_3">
     <g id="line2d_37">
      <path d="M 39.08 112.944 
L 597.08 112.944 
" clip-path="url(#pafc088df4d)" style="fill: none; stroke: #b0b0b0; stroke-linecap: square"/>
     </g>
     <g id="line2d_38">
      <g>
       <use xlink:href="#mabd1eccd63" x="39.08" y="112.944" style="stroke: #000000"/>
      </g>
     </g>
     <g id="line2d_39">
      <g>
       <use xlink:href="#md1da4487cd" x="597.08" y="112.944" style="stroke: #000000"/>
      </g>
     </g>
     <g id="text_13">
      <text style="font: 12px 'Source Code Pro'; text-anchor: end" x="32.08" y="117.216187" transform="rotate(-0, 32.08, 117.216187)">4</text>
     </g>
    </g>
    <g id="ytick_4">
     <g id="line2d_40">
      <path d="M 39.08 83.568 
L 597.08 83.568 
" clip-path="url(#pafc088df4d)" style="fill: none; stroke: #b0b0b0; stroke-linecap: square"/>
     </g>
     <g id="line2d_41">
      <g>
       <use xlink:href="#mabd1eccd63" x="39.08" y="83.568" style="stroke: #000000"/>
      </g>
     </g>
     <g id="line2d_42">
      <g>
       <use xlink:href="#md1da4487cd" x="597.08" y="83.568" style="stroke: #000000"/>
      </g>
     </g>
     <g id="text_14">
      <text style="font: 12px 'Source Code Pro'; text-anchor: end" x="32.08" y="87.840187" transform="rotate(-0, 32.08, 87.840187)">6</text>
     </g>
    </g>
    <g id="ytick_5">
     <g id="line2d_43">
      <path d="M 39.08 54.192 
L 597.08 54.192 
" clip-path="url(#pafc088df4d)" style="fill: none; stroke: #b0b0b0; stroke-linecap: square"/>
     </g>
     <g id="line2d_44">
      <g>
       <use xlink:href="#mabd1eccd63" x="39.08" y="54.192" style="stroke: #000000"/>
      </g>
     </g>
     <g id="line2d_45">
      <g>
       <use xlink:href="#md1da4487cd" x="597.08" y="54.192" style="stroke: #000000"/>
      </g>
     </g>
     <g id="text_15">
      <text style="font: 12px 'Source Code Pro'; text-anchor: end" x="32.08" y="58.464187" transform="rotate(-0, 32.08, 58.464187)">8</text>
     </g>
    </g>
    <g id="ytick_6">
     <g id="line2d_46">
      <path d="M 39.08 24.816 
L 597.08 24.816 
" clip-path="url(#pafc088df4d)" style="fill: none; stroke: #b0b0b0; stroke-linecap: square"/>
     </g>
     <g id="line2d_47">
      <g>
       <use xlink:href="#mabd1eccd63" x="39.08" y="24.816" style="stroke: #000000"/>
      </g>
     </g>
     <g id="line2d_48">
      <g>
       <use xlink:href="#md1da4487cd" x="597.08" y="24.816" style="stroke: #000000"/>
      </g>
     </g>
     <g id="text_16">
      <text style="font: 12px 'Source Code Pro'; text-anchor: end" x="32.08" y="29.088187" transform="rotate(-0, 32.08, 29.088187)">10</text>
     </g>
    </g>
    <g id="text_17">
     <!-- $conc.\ (mg\ L^{-1})$ -->
     <g transform="translate(10.92 142.656)rotate(-90)">
      <text>
       <tspan style="font: 12px 'Source Code Pro'" x="0 7.199997 14.399994 21.599991 28.799988 39.839959 47.039956 54.239953 63.839925 81.513316" y="-0.5609375000000014">conc.(mgL)</tspan>
       <tspan style="font: 8.4px 'Source Code Pro'" x="71.141914 76.181912" y="-4.640625000000001">−1</tspan>
      </text>
     </g>
    </g>
   </g>
   <g id="line2d_49">
    <path d="M 74.456985 171.337157 
L 108.795316 171.322469 
L 109.305985 155.12751 
L 110.040044 138.932551 
L 111.629252 122.737592 
L 112.060814 106.542633 
L 112.371319 90.347674 
L 113.536143 74.152715 
L 113.952518 71.651926 
L 114.704521 69.151137 
L 116.275785 66.650349 
L 116.725895 64.14956 
L 116.987595 61.648771 
L 118.153627 59.147983 
L 118.599052 59.660731 
L 119.358125 60.173479 
L 120.922318 60.686227 
L 121.133163 61.198976 
L 121.689763 61.711724 
L 122.649938 62.224472 
L 123.245585 64.302016 
L 123.980806 66.37956 
L 125.568852 68.457105 
L 126.212985 70.534649 
L 126.222921 72.612193 
L 127.261615 74.689737 
L 128.505507 76.277915 
L 130.215385 77.072004 
L 130.451491 77.866093 
L 130.83617 78.660182 
L 131.916914 79.454271 
L 132.538652 80.270175 
L 134.861918 81.901982 
L 135.07706 82.717885 
L 135.963836 83.533789 
L 136.54744 84.349692 
L 137.185185 84.438032 
L 139.730184 84.614713 
L 140.128036 84.703053 
L 141.201896 84.791393 
L 142.454114 85.73803 
L 144.154985 86.211349 
L 144.777775 86.684668 
L 144.851926 87.157987 
L 145.240841 87.631305 
L 146.330043 88.104624 
L 146.478251 88.334714 
L 148.801518 88.564804 
L 149.04766 88.794893 
L 150.530849 89.255073 
L 151.124785 89.792299 
L 152.230063 90.329526 
L 152.234896 90.866752 
L 153.448051 91.403978 
L 153.679518 91.941205 
L 156.425922 93.00273 
L 156.859025 93.264879 
L 158.094585 93.527029 
L 158.340255 93.789178 
L 159.811959 94.051327 
L 161.051499 95.275323 
L 162.741118 95.88732 
L 162.96752 96.499318 
L 163.808504 97.111316 
L 164.439225 97.723313 
L 165.064385 98.048165 
L 167.387651 98.697869 
L 167.59189 99.022721 
L 168.049178 99.347572 
L 169.062146 99.672424 
L 169.710918 100.261203 
L 172.034185 101.438762 
L 172.25141 102.027541 
L 173.101819 103.205099 
L 174.357451 104.4405 
L 176.680718 105.087121 
L 176.909002 105.733743 
L 177.761703 106.380364 
L 179.003985 107.585167 
L 179.667726 108.143347 
L 181.327251 108.701528 
L 181.572031 109.259708 
L 184.288107 111.091906 
L 185.973784 111.449824 
L 186.182747 111.807742 
L 186.61829 112.165661 
L 188.297051 112.523579 
L 190.620318 113.239415 
L 190.837195 113.597333 
L 191.270809 113.955252 
L 192.352274 114.31317 
L 192.943584 115.707854 
L 195.266851 118.497223 
L 195.493215 119.891908 
L 195.929485 121.286593 
L 196.833724 122.681277 
L 198.259916 126.136712 
L 199.913384 127.864429 
L 200.136193 129.592147 
L 201.020545 131.319864 
L 201.483944 133.047582 
L 202.913279 135.836103 
L 204.559918 137.230364 
L 204.831833 138.624625 
L 205.22534 140.018886 
L 206.883184 142.359049 
L 209.206451 144.250854 
L 209.617971 145.196756 
L 209.848981 146.142659 
L 211.008973 147.088561 
L 211.529718 147.95866 
L 212.251533 148.828758 
L 213.852984 149.698857 
L 214.282324 150.568955 
L 214.530348 151.439053 
L 214.579539 152.309152 
L 215.557356 153.17925 
L 216.176251 154.727897 
L 216.915406 156.276544 
L 218.499518 157.825191 
L 219.251389 159.373837 
L 220.499331 160.922484 
L 221.554032 161.088359 
L 224.697242 161.33717 
L 225.123701 161.566215 
L 233.101543 161.499564 
L 234.446854 161.492158 
L 234.762384 161.658338 
L 238.684151 162.323058 
L 240.523752 161.904573 
L 242.394733 161.486089 
L 244.055451 161.234337 
L 251.025251 160.845828 
L 252.705244 160.801837 
L 253.031918 160.500028 
L 256.775723 160.560536 
L 261.884517 160.633146 
L 263.362896 160.345427 
L 265.367109 160.057709 
L 265.657804 159.91385 
L 271.445789 159.195058 
L 275.003794 159.386932 
L 276.068586 159.425307 
L 276.581184 144.236115 
L 277.348954 129.046923 
L 278.90445 113.85773 
L 279.641809 98.668538 
L 280.690655 83.479346 
L 281.748594 79.742587 
L 281.971635 77.874208 
L 283.550984 76.005828 
L 283.781467 74.137449 
L 284.266658 72.269069 
L 285.134654 70.40069 
L 286.596244 72.785086 
L 288.197517 73.977284 
L 288.852616 75.169482 
L 288.860322 76.36168 
L 289.748274 77.553879 
L 290.520784 78.95625 
L 291.156824 80.358621 
L 292.84405 81.760992 
L 293.053392 83.163363 
L 293.488099 84.565735 
L 294.401878 85.968106 
L 295.817073 86.233664 
L 298.145683 86.499222 
L 299.056086 86.632001 
L 304.460384 89.276672 
L 306.78365 89.915488 
L 307.880565 90.554303 
L 309.106917 91.442602 
L 310.730687 92.011495 
L 312.076656 93.149279 
L 313.436471 93.718171 
L 313.75345 94.049202 
L 314.832577 94.380232 
L 314.93367 94.711262 
L 317.173275 95.373323 
L 318.399984 96.095858 
L 319.505634 96.487362 
L 319.594406 96.878867 
L 320.72325 97.270371 
L 321.835336 98.053381 
L 323.046517 99.076269 
L 325.369783 100.339037 
L 326.030582 100.970422 
L 328.790492 102.923912 
L 328.834928 103.584966 
L 330.016317 104.246019 
L 330.665345 104.907072 
L 331.58432 105.568126 
L 332.339583 106.312282 
L 333.946401 107.056438 
L 336.227531 109.288907 
L 336.986117 109.797496 
L 338.08695 110.306085 
L 338.60967 110.814675 
L 342.299474 113.61915 
L 342.807332 114.258503 
L 343.955917 114.897857 
L 344.625072 115.537211 
L 346.279183 116.748237 
L 347.461424 117.89158 
L 348.60245 118.463252 
L 349.247017 119.034923 
L 350.16068 119.606595 
L 353.248983 122.898626 
L 354.367915 123.721633 
L 354.790122 124.544641 
L 356.237331 125.333377 
L 356.746886 125.727745 
L 359.908728 126.910848 
L 360.218783 127.795741 
L 360.856264 128.680635 
L 361.846278 129.565528 
L 362.54205 130.450421 
L 363.652169 131.335314 
L 364.129832 132.220207 
L 365.526418 133.466293 
L 366.075235 134.089337 
L 367.188583 134.71238 
L 367.825197 135.335423 
L 368.785612 135.958466 
L 369.51185 136.703471 
L 370.633422 137.448476 
L 370.658769 138.193481 
L 371.835116 138.938485 
L 372.524344 139.68349 
L 373.543352 140.428495 
L 374.158383 141.193453 
L 375.275309 141.958412 
L 375.549888 142.72337 
L 376.48165 143.488328 
L 377.602115 144.253286 
L 378.208673 145.018245 
L 378.804916 145.979873 
L 379.569263 146.941501 
L 380.072289 147.90313 
L 381.128183 148.864758 
L 382.690611 150.788015 
L 383.152105 155.014912 
L 392.744516 155.148789 
L 396.706151 155.858106 
L 398.038583 155.592489 
L 400.360192 155.326871 
L 401.317711 155.194062 
L 405.963462 155.515406 
L 409.007383 155.319305 
L 411.984781 155.407381 
L 415.221502 155.466098 
L 416.682844 155.219522 
L 418.957578 154.972946 
L 420.066101 154.849658 
L 420.310865 154.260449 
L 429.153319 154.295772 
L 429.916783 154.532429 
L 432.240049 154.769086 
L 434.012175 155.2424 
L 435.928831 154.726837 
L 439.209849 154.248789 
L 443.327243 154.436366 
L 443.856383 144.303482 
L 444.615223 134.170599 
L 445.246184 124.037715 
L 446.179649 113.904831 
L 446.899134 103.771947 
L 447.952813 93.639063 
L 448.502916 91.581875 
L 449.27462 89.524686 
L 449.881062 87.467497 
L 450.826183 85.410308 
L 451.603478 83.353119 
L 452.57815 81.29593 
L 453.149449 82.432279 
L 453.898029 83.568628 
L 454.449015 84.704977 
L 455.472716 85.841326 
L 457.795982 89.506858 
L 458.533867 90.899692 
L 458.992442 92.292526 
L 460.119249 93.685361 
L 460.829627 95.078195 
L 461.668264 96.47103 
L 462.442516 97.191125 
L 463.573583 97.91122 
L 463.661147 98.631315 
L 464.765782 99.351411 
L 465.454956 100.071506 
L 467.739115 101.553949 
L 468.451746 101.935123 
L 470.122941 102.697471 
L 471.004466 103.078645 
L 472.453247 103.975426 
L 472.879923 104.423816 
L 474.058849 104.872206 
L 476.382116 106.203366 
L 477.491266 106.637744 
L 477.538475 107.5065 
L 478.705382 107.940878 
L 480.712762 108.375256 
L 481.028649 108.826626 
L 482.150547 109.277995 
L 482.639687 109.729365 
L 484.920701 111.083473 
L 485.675182 111.441201 
L 486.788693 111.798929 
L 486.837474 112.156657 
L 487.998449 112.514386 
L 488.65907 112.872114 
L 489.567297 113.229842 
L 490.982491 114.530411 
L 491.451691 115.180695 
L 492.644982 115.83098 
L 493.314726 116.481264 
L 497.97039 119.72873 
L 499.315948 120.248166 
L 499.614782 120.778814 
L 500.295259 121.309462 
L 500.768083 121.84011 
L 503.053953 122.901407 
L 503.516515 123.432055 
L 508.907849 127.55611 
L 510.057773 129.08916 
L 511.231115 129.855685 
L 511.877317 130.62221 
L 513.23556 131.388735 
L 513.554382 132.035859 
L 514.669844 132.682983 
L 514.681925 133.330107 
L 515.163446 133.977231 
L 515.877649 134.624355 
L 517.445428 135.271479 
L 518.874035 135.54206 
L 522.847449 135.947932 
L 523.515682 136.083222 
L 525.170715 136.218513 
L 525.849001 136.489094 
L 529.62973 136.894966 
L 529.817249 137.030256 
L 530.505873 137.165547 
L 534.456696 137.571419 
L 534.463782 137.706709 
L 535.124318 137.842 
L 539.109092 138.247871 
L 539.110315 138.383162 
L 539.872517 138.518453 
L 541.278845 138.653743 
L 541.433582 142.366292 
L 542.200043 146.078841 
L 543.756849 149.791389 
L 543.767892 153.503938 
L 544.527933 157.216487 
L 545.895237 160.929035 
L 546.080115 161.869523 
L 546.858719 162.81001 
L 548.403382 163.750497 
L 548.638349 164.690984 
L 549.185649 165.631472 
L 550.419698 166.571959 
L 550.726648 167.089079 
L 551.474152 167.6062 
L 553.806146 168.12332 
L 555.373182 168.640441 
L 555.423651 169.692895 
L 570.41995 169.692895 
L 570.41995 169.692895 
" clip-path="url(#pafc088df4d)" style="fill: none; stroke: #99d28c; stroke-width: 3; stroke-linecap: square"/>
   </g>
   <g id="line2d_50">
    <path d="M 64.443636 163.430504 
L 64.85669 163.627558 
L 79.751145 163.552683 
L 84.002552 163.353569 
L 84.432659 163.161215 
L 93.33187 163.18025 
L 93.721141 163.096993 
L 97.689652 162.84722 
L 97.965656 162.763963 
L 101.129821 162.42141 
L 102.994405 162.310195 
L 107.161842 162.322074 
L 107.71107 152.540955 
L 108.795316 142.759836 
L 109.305985 132.978718 
L 110.040044 123.197599 
L 111.629252 113.41648 
L 112.371319 94.223463 
L 113.536143 84.811564 
L 113.952518 75.399665 
L 114.704521 65.987766 
L 116.275785 56.575868 
L 116.725895 47.163969 
L 116.987595 48.68448 
L 118.153627 50.204991 
L 118.599052 51.725502 
L 119.358125 53.246013 
L 120.922318 54.766524 
L 121.133163 56.287035 
L 121.689763 58.795224 
L 122.649938 61.303414 
L 123.245585 63.811603 
L 123.980806 66.319792 
L 125.568852 68.827982 
L 126.212985 71.336171 
L 126.222921 73.81434 
L 127.261615 76.292509 
L 128.505507 81.248846 
L 130.215385 83.727015 
L 130.451491 86.205184 
L 130.83617 87.876294 
L 131.916914 89.547404 
L 132.538652 91.218514 
L 133.63075 92.889624 
L 134.861918 94.560733 
L 135.07706 96.231843 
L 135.963836 97.733675 
L 137.185185 100.737337 
L 139.508452 102.239168 
L 139.730184 103.741 
L 140.128036 104.700711 
L 141.201896 105.660423 
L 142.454114 107.579846 
L 144.154985 108.539557 
L 144.777775 109.499269 
L 144.851926 110.45898 
L 145.240841 111.645854 
L 146.330043 112.832727 
L 146.478251 114.0196 
L 148.801518 115.206473 
L 149.04766 116.393346 
L 149.899881 117.193687 
L 151.124785 118.794367 
L 152.230063 119.594708 
L 152.234896 120.395048 
L 153.448051 121.195389 
L 153.679518 121.995729 
L 155.150502 122.772137 
L 156.425922 124.324953 
L 156.859025 125.101361 
L 158.094585 125.877769 
L 158.340255 126.654177 
L 159.811959 127.630491 
L 161.051499 129.58312 
L 162.741118 130.559434 
L 162.96752 131.535748 
L 163.808504 132.185665 
L 165.064385 133.485498 
L 167.387651 134.785332 
L 167.59189 135.435249 
L 168.049178 136.048659 
L 169.062146 136.662069 
L 169.710918 137.275479 
L 172.034185 138.502299 
L 172.25141 139.115709 
L 173.101819 140.300346 
L 174.357451 141.484982 
L 176.680718 142.0773 
L 176.909002 142.669618 
L 177.761703 143.175089 
L 179.667726 144.6915 
L 181.327251 145.19697 
L 181.572031 145.702441 
L 183.461381 146.683296 
L 183.650518 147.173723 
L 184.288107 147.664151 
L 185.973784 148.154578 
L 186.182747 148.645005 
L 186.61829 149.155827 
L 188.297051 149.66665 
L 190.620318 150.688294 
L 190.837195 151.199116 
L 191.270809 151.598869 
L 192.352274 151.998623 
L 192.943584 152.398376 
L 195.266851 153.197883 
L 195.493215 153.597637 
L 195.929485 153.921715 
L 197.590118 154.569872 
L 198.259916 154.893951 
L 199.913384 155.218029 
L 200.136193 155.542108 
L 201.020545 155.861271 
L 201.483944 156.180434 
L 202.913279 156.81876 
L 204.559918 157.137922 
L 204.831833 157.457085 
L 205.22534 158.114459 
L 206.261261 158.771833 
L 206.883184 159.429206 
L 209.206451 160.743954 
L 209.848981 161.874102 
L 211.008973 162.346877 
L 211.529718 162.819652 
L 212.251533 163.292427 
L 213.852984 163.765202 
L 214.282324 164.237977 
L 214.579539 164.831991 
L 235.852747 164.645819 
L 244.055451 164.561657 
L 246.77722 164.605104 
L 247.010406 164.414174 
L 247.066799 164.223245 
L 257.995051 164.25656 
L 265.367109 163.809925 
L 265.657804 163.751008 
L 274.470148 163.378729 
L 275.003794 159.00305 
L 276.068586 154.627371 
L 276.581184 150.251692 
L 277.348954 145.876013 
L 278.90445 141.500334 
L 279.641809 137.124654 
L 280.690655 132.748975 
L 281.748594 123.997617 
L 281.971635 107.275823 
L 283.550984 90.55403 
L 283.781467 73.832236 
L 284.266658 74.872027 
L 285.87425 76.951608 
L 286.596244 77.991399 
L 288.197517 79.03119 
L 288.852616 80.070981 
L 288.860322 81.110771 
L 290.520784 86.690484 
L 291.156824 89.480341 
L 292.84405 92.270198 
L 293.053392 95.060054 
L 293.488099 95.953961 
L 295.167317 97.741775 
L 295.817073 98.635682 
L 297.490584 99.529589 
L 298.145683 100.423496 
L 299.81385 102.21131 
L 300.469949 103.105217 
L 301.43834 103.999124 
L 302.800859 108.963633 
L 303.718627 111.445888 
L 304.460384 113.928142 
L 305.638667 116.410397 
L 306.78365 117.421514 
L 307.417135 118.432631 
L 308.339495 120.454865 
L 309.106917 121.465982 
L 310.730687 122.477099 
L 312.076656 124.343239 
L 313.436471 125.276309 
L 313.75345 126.209379 
L 314.832577 127.142448 
L 314.93367 128.075518 
L 317.173275 129.79704 
L 317.666637 130.657801 
L 318.399984 131.518562 
L 319.505634 132.379323 
L 319.594406 133.240084 
L 320.72325 133.946242 
L 321.372874 134.652399 
L 322.298975 136.064715 
L 323.046517 136.770873 
L 325.369783 138.203234 
L 326.030582 138.929438 
L 328.790492 141.108049 
L 328.834928 141.834253 
L 330.016317 142.5181 
L 330.665345 143.201947 
L 332.339583 144.569641 
L 333.946401 145.253488 
L 336.986117 147.364554 
L 338.08695 147.892321 
L 338.60967 148.420088 
L 340.884643 149.940443 
L 342.299474 150.954013 
L 342.807332 151.460798 
L 343.955917 151.875773 
L 344.625072 152.290748 
L 346.279183 153.120698 
L 347.461424 153.950649 
L 348.60245 154.318657 
L 349.247017 154.686665 
L 350.925717 155.422681 
L 351.571887 155.790689 
L 354.367915 156.816738 
L 354.790122 157.145759 
L 356.237331 157.803801 
L 356.746886 158.132822 
L 359.908728 158.903031 
L 360.218783 159.159767 
L 360.856264 159.416504 
L 363.652169 160.192583 
L 364.129832 160.452255 
L 367.825197 161.657849 
L 370.633422 162.297717 
L 370.658769 162.511006 
L 373.543352 163.04313 
L 374.158383 163.220505 
L 375.275309 163.397879 
L 375.549888 163.575254 
L 379.569263 164.359177 
L 380.072289 164.515962 
L 383.152105 164.765045 
L 384.196893 164.889587 
L 384.611124 164.951858 
L 385.069241 165.153994 
L 393.963999 165.195429 
L 394.331385 164.975961 
L 409.632853 164.667983 
L 421.74041 164.721829 
L 422.22921 164.236684 
L 436.886583 164.27386 
L 445.246184 163.674516 
L 446.179649 151.197398 
L 446.899134 138.720281 
L 447.952813 126.243163 
L 448.502916 113.766046 
L 449.27462 101.288928 
L 449.881062 88.81181 
L 453.149449 89.588128 
L 454.449015 89.976287 
L 455.472716 92.052116 
L 456.233648 94.127944 
L 457.122421 96.203772 
L 458.533867 100.355429 
L 458.992442 102.431257 
L 460.119249 104.494835 
L 460.829627 106.558413 
L 462.442516 110.685569 
L 463.573583 112.749147 
L 463.661147 114.812725 
L 464.765782 116.104618 
L 465.454956 117.396511 
L 466.506707 118.688404 
L 467.739115 121.27219 
L 468.451746 122.564083 
L 469.412316 123.553454 
L 470.122941 124.542826 
L 471.004466 125.532197 
L 472.453247 127.51094 
L 472.879923 128.500312 
L 474.058849 129.21992 
L 476.382116 131.378747 
L 477.491266 132.098356 
L 477.538475 133.537573 
L 478.705382 134.453511 
L 480.712762 135.369449 
L 481.028649 136.285388 
L 482.150547 137.201326 
L 482.639687 138.117264 
L 484.920701 140.138796 
L 485.675182 140.81264 
L 486.788693 141.486484 
L 486.837474 142.160328 
L 487.998449 142.738712 
L 488.65907 143.317095 
L 490.321716 144.473863 
L 490.982491 145.052247 
L 491.451691 145.630631 
L 492.644982 146.272384 
L 493.314726 146.914137 
L 494.968249 148.197643 
L 495.638031 148.839396 
L 497.291516 149.858728 
L 497.97039 150.236308 
L 499.315948 150.613887 
L 499.614782 150.991467 
L 501.938049 152.155721 
L 503.053953 152.564816 
L 503.516515 152.973911 
L 507.253311 154.96841 
L 508.907849 155.735623 
L 510.057773 156.502836 
L 511.231115 156.787645 
L 511.877317 157.072454 
L 513.23556 157.357262 
L 513.554382 157.642071 
L 514.669844 157.926879 
L 514.681925 158.211688 
L 515.163446 158.496497 
L 515.877649 158.633968 
L 518.200915 158.908909 
L 518.874035 159.04638 
L 522.847449 159.458793 
L 523.515682 159.596264 
L 525.170715 159.733735 
L 525.423611 159.871206 
L 525.849001 160.558215 
L 527.493982 161.245224 
L 529.817249 162.768096 
L 530.505873 162.91695 
L 534.456696 163.363512 
L 534.463782 163.558049 
L 535.124318 163.752586 
L 537.509716 164.141659 
L 545.895237 165.205893 
L 546.080115 165.333578 
L 546.858719 165.461264 
L 548.403382 165.58895 
L 548.638349 165.973731 
L 570.41995 165.973731 
L 570.41995 165.973731 
" clip-path="url(#pafc088df4d)" style="fill: none; stroke: #000000; stroke-width: 3; stroke-linecap: square"/>
   </g>
   <g id="line2d_51">
    <path d="M 72.866547 151.438796 
L 73.215927 151.703752 
L 79.449941 151.961659 
L 79.751145 152.042912 
L 81.426785 152.233622 
L 84.432659 152.339493 
L 84.857429 152.572474 
L 89.056904 152.741827 
L 90.719852 153.228183 
L 91.360392 153.714539 
L 93.043119 154.193005 
L 93.721141 155.149938 
L 95.366385 156.061858 
L 96.464376 156.973778 
L 97.689652 157.478761 
L 97.965656 157.983744 
L 98.795403 158.488727 
L 101.129821 159.150891 
L 102.994405 158.740905 
L 104.659452 158.146893 
L 105.384752 157.55288 
L 107.161842 157.377829 
L 107.71107 157.290303 
L 110.040044 157.605713 
L 111.629252 158.134369 
L 112.371319 159.191679 
L 113.952518 159.513611 
L 116.275785 160.093748 
L 116.725895 160.512919 
L 116.987595 160.93209 
L 119.358125 160.680544 
L 120.922318 160.463494 
L 121.133163 160.246444 
L 121.689763 160.029395 
L 122.649938 159.075855 
L 123.245585 158.122315 
L 123.980806 157.168774 
L 125.568852 156.018435 
L 126.212985 154.868095 
L 126.222921 153.717755 
L 127.261615 152.311032 
L 128.505507 149.497585 
L 130.215385 148.197447 
L 130.451491 146.89731 
L 130.83617 145.597172 
L 131.916914 144.981868 
L 132.538652 144.366563 
L 133.63075 143.751258 
L 134.861918 143.532593 
L 135.07706 143.313928 
L 135.963836 143.095263 
L 137.185185 145.053789 
L 139.730184 144.903923 
L 140.128036 144.82899 
L 141.201896 145.232748 
L 142.454114 146.040265 
L 144.154985 145.618646 
L 144.777775 145.197027 
L 144.851926 145.65115 
L 145.240841 146.105274 
L 150.530849 146.005189 
L 152.230063 145.847029 
L 152.234896 146.30716 
L 156.425922 146.285775 
L 156.859025 145.932235 
L 162.741118 145.963593 
L 162.96752 145.856709 
L 163.808504 145.749825 
L 166.18327 146.083051 
L 167.387651 145.498552 
L 167.59189 144.914053 
L 168.049178 144.329554 
L 169.062146 143.570634 
L 169.710918 142.811715 
L 170.804735 142.052795 
L 172.034185 141.480027 
L 172.25141 140.907259 
L 172.679588 140.33449 
L 173.101819 138.246357 
L 177.761703 138.280904 
L 179.667726 138.722881 
L 181.572031 138.910132 
L 182.420503 139.003757 
L 183.461381 138.278395 
L 183.650518 137.553033 
L 184.288107 136.827671 
L 185.973784 136.006098 
L 186.182747 135.184525 
L 186.61829 134.362952 
L 188.297051 133.446494 
L 189.407069 132.530037 
L 190.620318 132.126831 
L 190.837195 131.723626 
L 191.270809 131.32042 
L 192.352274 130.924823 
L 192.943584 130.529226 
L 195.266851 129.682596 
L 195.493215 129.231563 
L 195.929485 128.78053 
L 197.590118 127.99947 
L 198.259916 127.60894 
L 199.913384 126.413078 
L 200.136193 125.217215 
L 201.020545 124.021353 
L 201.483944 122.505551 
L 202.913279 119.473947 
L 204.559918 117.710276 
L 204.831833 115.946605 
L 205.22534 114.182934 
L 206.261261 112.844995 
L 206.883184 111.507055 
L 207.979689 110.169115 
L 209.206451 108.847895 
L 209.617971 107.526676 
L 209.848981 106.205456 
L 211.008973 105.691635 
L 211.529718 105.177814 
L 212.251533 104.663993 
L 213.852984 104.08764 
L 214.282324 103.511286 
L 214.530348 102.934932 
L 214.579539 102.358579 
L 215.557356 101.248523 
L 218.499518 95.812401 
L 219.251389 92.596389 
L 220.499331 91.491264 
L 220.822784 90.38614 
L 221.554032 89.281015 
L 224.236739 88.618296 
L 225.123701 89.856509 
L 225.469318 90.475615 
L 227.792584 91.743416 
L 228.44093 92.39211 
L 230.115851 93.074632 
L 231.232242 93.757154 
L 232.439117 94.008882 
L 233.101543 94.512337 
L 234.446854 94.931033 
L 234.762384 95.349728 
L 235.852747 95.768424 
L 238.19405 97.216779 
L 238.684151 97.664969 
L 239.408917 98.11316 
L 241.732184 99.163571 
L 242.394733 99.765792 
L 243.360585 100.204376 
L 244.679976 101.081544 
L 246.77722 101.874519 
L 247.066799 102.769426 
L 249.359197 103.07522 
L 249.822983 103.357865 
L 254.050856 103.335256 
L 255.671784 103.681596 
L 258.735507 105.479087 
L 260.318317 105.824686 
L 261.067625 106.515885 
L 263.362896 106.921257 
L 265.367109 107.13109 
L 265.657804 107.236007 
L 268.03861 107.595567 
L 269.611384 107.904567 
L 270.328561 108.213567 
L 271.934651 108.557747 
L 272.705743 108.729837 
L 274.257917 108.886916 
L 274.470148 109.043994 
L 275.003794 109.201073 
L 276.581184 109.544888 
L 277.348954 109.716796 
L 278.90445 114.252781 
L 279.641809 118.788766 
L 280.690655 121.548826 
L 281.748594 127.068944 
L 281.971635 129.829003 
L 283.550984 133.894954 
L 283.781467 137.960905 
L 284.266658 142.026857 
L 286.596244 143.116707 
L 288.197517 142.169169 
L 288.852616 141.221632 
L 288.860322 139.716732 
L 290.520784 136.706933 
L 291.156824 135.202033 
L 292.84405 134.786897 
L 293.053392 134.37176 
L 293.488099 133.956624 
L 295.167317 132.616373 
L 295.817073 131.946247 
L 297.490584 132.830685 
L 298.145683 133.715123 
L 300.469949 134.226238 
L 301.43834 135.025793 
L 302.800859 136.624904 
L 304.460384 137.988772 
L 307.417135 137.773963 
L 307.880565 136.50903 
L 313.75345 136.266424 
L 314.832577 136.172646 
L 314.93367 136.306282 
L 317.173275 136.573556 
L 317.666637 136.11573 
L 318.399984 135.657905 
L 319.505634 135.200079 
L 319.594406 135.46226 
L 321.372874 135.986622 
L 321.835336 135.281421 
L 326.030582 135.411968 
L 328.834928 132.848703 
L 330.665345 132.42083 
L 332.339583 130.930236 
L 335.319428 130.853047 
L 338.08695 129.410128 
L 342.299474 128.134007 
L 343.955917 128.280946 
L 344.625072 128.354416 
L 346.279183 127.411387 
L 346.916711 126.939872 
L 347.461424 126.18205 
L 348.60245 125.424227 
L 350.925717 122.612522 
L 351.571887 121.585581 
L 352.551632 120.975182 
L 353.248983 120.364784 
L 354.367915 119.754385 
L 354.790122 119.275684 
L 356.237331 118.31828 
L 356.746886 117.792381 
L 358.992888 116.740583 
L 359.908728 116.188623 
L 360.218783 115.636663 
L 360.856264 115.084703 
L 361.846278 114.639055 
L 362.54205 114.193406 
L 363.652169 113.747758 
L 364.129832 113.371749 
L 365.526418 112.619732 
L 366.075235 112.079105 
L 367.188583 111.538478 
L 367.825197 110.997851 
L 368.785612 109.906358 
L 369.51185 108.814865 
L 370.633422 107.723372 
L 370.658769 107.296891 
L 371.835116 106.870409 
L 375.549888 104.5291 
L 377.602115 103.941315 
L 378.804916 102.047412 
L 379.569263 101.100461 
L 380.072289 99.529855 
L 381.128183 97.95925 
L 381.867067 96.388644 
L 382.690611 95.83087 
L 383.152105 95.273095 
L 383.45145 94.715321 
L 384.196893 94.157547 
L 385.069241 92.641129 
L 386.455193 91.882921 
L 388.097983 92.573014 
L 388.760857 93.263107 
L 390.42125 93.634339 
L 392.744516 95.058973 
L 393.37399 95.585674 
L 395.067783 96.519303 
L 396.167966 96.830513 
L 397.39105 97.445081 
L 399.714316 98.650726 
L 400.360192 99.549088 
L 401.317711 100.116628 
L 402.68277 101.251708 
L 404.36085 102.27565 
L 405.024909 103.299593 
L 405.963462 103.972965 
L 407.355819 105.319709 
L 409.007383 106.378478 
L 409.632853 107.437247 
L 411.330649 108.122626 
L 411.984781 108.808006 
L 414.314847 109.716635 
L 420.066101 110.978915 
L 420.623716 111.532077 
L 422.22921 112.138334 
L 423.61263 112.468009 
L 424.08186 113.116009 
L 428.505801 113.104817 
L 428.71021 113.484093 
L 432.240049 113.551049 
L 433.130774 113.573367 
L 435.345219 112.936961 
L 435.928831 112.579553 
L 437.63675 111.864738 
L 440.583643 111.541079 
L 442.287333 111.697516 
L 443.856383 112.129747 
L 444.615223 112.345863 
L 445.246184 115.078477 
L 446.179649 117.811091 
L 446.899134 120.543705 
L 447.952813 123.717444 
L 448.502916 126.891183 
L 449.27462 130.064922 
L 449.881062 133.054728 
L 450.826183 136.044534 
L 451.603478 139.034339 
L 452.57815 139.900985 
L 453.149449 140.767631 
L 453.898029 141.634277 
L 454.449015 141.163585 
L 456.233648 140.222202 
L 457.122421 139.272392 
L 458.533867 137.372772 
L 458.992442 135.337667 
L 460.119249 133.302562 
L 460.829627 131.267458 
L 462.442516 128.863824 
L 463.573583 127.662008 
L 463.661147 126.296151 
L 464.765782 124.930294 
L 465.454956 123.564437 
L 467.739115 123.893142 
L 470.122941 124.407689 
L 471.735582 126.05351 
L 472.453247 126.876421 
L 472.879923 126.785144 
L 474.832234 126.602591 
L 476.382116 125.467933 
L 477.491266 124.900605 
L 477.538475 124.033365 
L 482.150547 123.945341 
L 483.351916 124.4515 
L 485.675182 125.297543 
L 486.788693 125.594025 
L 486.837474 125.289053 
L 487.998449 124.984082 
L 490.982491 123.566023 
L 491.451691 123.163181 
L 492.644982 122.760338 
L 495.638031 121.04728 
L 497.97039 121.544615 
L 499.315948 120.914069 
L 499.614782 120.283523 
L 500.768083 119.238644 
L 503.053953 118.409977 
L 503.516515 117.745982 
L 504.924701 116.417993 
L 506.584582 115.667738 
L 507.253311 115.29261 
L 509.550759 114.770293 
L 510.057773 113.833056 
L 511.231115 112.895819 
L 511.877317 111.958582 
L 513.23556 111.440194 
L 513.554382 110.921807 
L 514.669844 110.403419 
L 514.681925 106.506017 
L 518.874035 106.627952 
L 520.524182 105.999433 
L 521.185616 105.370913 
L 522.847449 105.131044 
L 523.515682 104.891175 
L 525.170715 104.079647 
L 525.423611 103.268118 
L 525.849001 102.45659 
L 527.493982 101.510581 
L 528.606974 100.564573 
L 529.62973 100.057768 
L 529.817249 99.550962 
L 530.505873 99.044157 
L 532.140515 98.629764 
L 532.798968 98.215371 
L 534.456696 97.522872 
L 534.463782 96.830373 
L 535.124318 96.137874 
L 536.787049 94.863447 
L 537.509716 93.589021 
L 539.109092 92.559411 
L 539.110315 91.529801 
L 539.872517 90.500191 
L 541.278845 89.953098 
L 541.433582 89.406004 
L 542.200043 88.858911 
L 543.756849 88.67416 
L 543.767892 88.48941 
L 544.527933 88.304659 
L 545.895237 87.524902 
L 546.080115 86.745145 
L 546.858719 85.965388 
L 548.403382 84.775954 
L 548.638349 83.58652 
L 549.185649 82.397086 
L 550.419698 80.910251 
L 550.726648 79.423415 
L 551.474152 77.936579 
L 553.806146 75.357674 
L 555.373182 75.006238 
L 555.423651 74.303366 
L 556.114947 73.95193 
L 558.332055 74.633216 
L 560.659217 75.055923 
L 563.451985 76.394045 
L 565.792924 77.003416 
L 567.658352 78.464434 
L 569.954948 80.062795 
L 570.41995 82.264617 
L 570.41995 82.264617 
" clip-path="url(#pafc088df4d)" style="fill: none; stroke: #f1be3e; stroke-width: 3; stroke-linecap: square"/>
   </g>
   <g id="patch_3">
    <path d="M 39.08 171.696 
L 39.08 24.816 
" style="fill: none; stroke: #000000; stroke-linejoin: miter; stroke-linecap: square"/>
   </g>
   <g id="patch_4">
    <path d="M 597.08 171.696 
L 597.08 24.816 
" style="fill: none; stroke: #000000; stroke-linejoin: miter; stroke-linecap: square"/>
   </g>
   <g id="patch_5">
    <path d="M 39.08 171.696 
L 597.08 171.696 
" style="fill: none; stroke: #000000; stroke-linejoin: miter; stroke-linecap: square"/>
   </g>
   <g id="patch_6">
    <path d="M 39.08 24.816 
L 597.08 24.816 
" style="fill: none; stroke: #000000; stroke-linejoin: miter; stroke-linecap: square"/>
   </g>
   <g id="legend_1">
    <g id="line2d_52">
     <path d="M 128.24 10.92 
L 140.24 10.92 
L 152.24 10.92 
" style="fill: none; stroke: #99d28c; stroke-width: 3; stroke-linecap: square"/>
    </g>
    <g id="text_18">
     <!-- $NH_4−N$ -->
     <g transform="translate(161.84 15.12)">
      <text>
       <tspan style="font: 12px 'Source Code Pro'" x="0 7.199997 19.83339 27.033387" y="-0.125">NH−N</tspan>
       <tspan style="font: 8.4px 'Source Code Pro'" x="14.501986" y="1.6234374999999996">4</tspan>
      </text>
     </g>
    </g>
    <g id="line2d_53">
     <path d="M 220.16 10.92 
L 232.16 10.92 
L 244.16 10.92 
" style="fill: none; stroke: #000000; stroke-width: 3; stroke-linecap: square"/>
    </g>
    <g id="text_19">
     <!-- $PO_4−P$ -->
     <g transform="translate(253.76 15.12)">
      <text>
       <tspan style="font: 12px 'Source Code Pro'" x="0 7.199997 19.83339 27.033387" y="-0.984375">PO−P</tspan>
       <tspan style="font: 8.4px 'Source Code Pro'" x="14.501986" y="0.7640624999999996">4</tspan>
      </text>
     </g>
    </g>
    <g id="line2d_54">
     <path d="M 312.08 10.92 
L 324.08 10.92 
L 336.08 10.92 
" style="fill: none; stroke: #f1be3e; stroke-width: 3; stroke-linecap: square"/>
    </g>
    <g id="text_20">
     <!-- $NO_3−N$ -->
     <g transform="translate(345.68 15.12)">
      <text>
       <tspan style="font: 12px 'Source Code Pro'" x="0 7.199997 19.83339 27.033387" y="-0.984375">NO−N</tspan>
       <tspan style="font: 8.4px 'Source Code Pro'" x="14.501986" y="0.7640624999999996">3</tspan>
      </text>
     </g>
    </g>
    <g id="line2d_55">
     <path d="M 404 10.92 
L 416 10.92 
L 428 10.92 
" style="fill: none; stroke: #00a6d6; stroke-width: 3; stroke-linecap: square"/>
    </g>
    <g id="text_21">
     <!-- $O_2$ (right) -->
     <g transform="translate(437.6 15.12)">
      <text>
       <tspan style="font: 12px 'Source Code Pro'" x="0 12.633393 19.83339 27.033387 34.233384 41.433381 48.633378 55.833375 63.033372" y="-0.21875">O (right)</tspan>
       <tspan style="font: 8.4px 'Source Code Pro'" x="7.301989" y="1.5296874999999996">2</tspan>
      </text>
     </g>
    </g>
   </g>
  </g>
  <g id="axes_2">
   <g id="matplotlib.axis_3">
    <g id="ytick_7">
     <g id="line2d_56">
      <path d="M 39.08 171.696 
L 597.08 171.696 
" clip-path="url(#pafc088df4d)" style="fill: none; stroke: #b0b0b0; stroke-linecap: square"/>
     </g>
     <g id="line2d_57">
      <g>
       <use xlink:href="#md1da4487cd" x="597.08" y="171.696" style="stroke: #000000"/>
      </g>
     </g>
     <g id="text_22">
      <text style="font: 12px 'Source Code Pro'; text-anchor: start" x="604.08" y="175.968187" transform="rotate(-0, 604.08, 175.968187)">0.0</text>
     </g>
    </g>
    <g id="ytick_8">
     <g id="line2d_58">
      <path d="M 39.08 142.32 
L 597.08 142.32 
" clip-path="url(#pafc088df4d)" style="fill: none; stroke: #b0b0b0; stroke-linecap: square"/>
     </g>
     <g id="line2d_59">
      <g>
       <use xlink:href="#md1da4487cd" x="597.08" y="142.32" style="stroke: #000000"/>
      </g>
     </g>
     <g id="text_23">
      <text style="font: 12px 'Source Code Pro'; text-anchor: start" x="604.08" y="146.592187" transform="rotate(-0, 604.08, 146.592187)">0.5</text>
     </g>
    </g>
    <g id="ytick_9">
     <g id="line2d_60">
      <path d="M 39.08 112.944 
L 597.08 112.944 
" clip-path="url(#pafc088df4d)" style="fill: none; stroke: #b0b0b0; stroke-linecap: square"/>
     </g>
     <g id="line2d_61">
      <g>
       <use xlink:href="#md1da4487cd" x="597.08" y="112.944" style="stroke: #000000"/>
      </g>
     </g>
     <g id="text_24">
      <text style="font: 12px 'Source Code Pro'; text-anchor: start" x="604.08" y="117.216187" transform="rotate(-0, 604.08, 117.216187)">1.0</text>
     </g>
    </g>
    <g id="ytick_10">
     <g id="line2d_62">
      <path d="M 39.08 83.568 
L 597.08 83.568 
" clip-path="url(#pafc088df4d)" style="fill: none; stroke: #b0b0b0; stroke-linecap: square"/>
     </g>
     <g id="line2d_63">
      <g>
       <use xlink:href="#md1da4487cd" x="597.08" y="83.568" style="stroke: #000000"/>
      </g>
     </g>
     <g id="text_25">
      <text style="font: 12px 'Source Code Pro'; text-anchor: start" x="604.08" y="87.840187" transform="rotate(-0, 604.08, 87.840187)">1.5</text>
     </g>
    </g>
    <g id="ytick_11">
     <g id="line2d_64">
      <path d="M 39.08 54.192 
L 597.08 54.192 
" clip-path="url(#pafc088df4d)" style="fill: none; stroke: #b0b0b0; stroke-linecap: square"/>
     </g>
     <g id="line2d_65">
      <g>
       <use xlink:href="#md1da4487cd" x="597.08" y="54.192" style="stroke: #000000"/>
      </g>
     </g>
     <g id="text_26">
      <text style="font: 12px 'Source Code Pro'; text-anchor: start" x="604.08" y="58.464187" transform="rotate(-0, 604.08, 58.464187)">2.0</text>
     </g>
    </g>
    <g id="ytick_12">
     <g id="line2d_66">
      <path d="M 39.08 24.816 
L 597.08 24.816 
" clip-path="url(#pafc088df4d)" style="fill: none; stroke: #b0b0b0; stroke-linecap: square"/>
     </g>
     <g id="line2d_67">
      <g>
       <use xlink:href="#md1da4487cd" x="597.08" y="24.816" style="stroke: #000000"/>
      </g>
     </g>
     <g id="text_27">
      <text style="font: 12px 'Source Code Pro'; text-anchor: start" x="604.08" y="29.088187" transform="rotate(-0, 604.08, 29.088187)">2.5</text>
     </g>
    </g>
    <g id="text_28">
     <!-- $conc.\ (mg\ L^{-1})$ -->
     <g transform="translate(639.16 142.656)rotate(-90)">
      <text>
       <tspan style="font: 12px 'Source Code Pro'" x="0 7.199997 14.399994 21.599991 28.799988 39.839959 47.039956 54.239953 63.839925 81.513316" y="-0.5609375000000014">conc.(mgL)</tspan>
       <tspan style="font: 8.4px 'Source Code Pro'" x="71.141914 76.181912" y="-4.640625000000001">−1</tspan>
      </text>
     </g>
    </g>
   </g>
   <g id="line2d_68">
    <path d="M 69.810452 159.456266 
L 72.133719 157.368458 
L 72.866547 159.111403 
L 73.215927 160.854348 
L 74.456985 162.597293 
L 76.780252 163.600196 
L 77.439208 164.603099 
L 79.103519 165.606003 
L 81.426785 165.685758 
L 83.750052 162.34274 
L 84.002552 160.003714 
L 84.431063 157.664687 
L 84.432659 155.32566 
L 84.857429 152.986633 
L 86.073319 150.647607 
L 88.396585 129.433436 
L 89.056904 128.83629 
L 90.719852 128.239143 
L 91.360392 138.618859 
L 93.043119 148.998575 
L 93.721141 154.219317 
L 95.366385 156.829687 
L 96.464376 159.054802 
L 97.689652 161.279917 
L 97.965656 162.118621 
L 98.795403 162.957326 
L 101.129821 164.68765 
L 102.336185 165.57927 
L 102.994405 163.253594 
L 104.659452 160.927917 
L 105.384752 158.60224 
L 106.982718 156.276564 
L 107.161842 155.075605 
L 107.71107 153.874647 
L 108.795316 152.673689 
L 109.305985 151.472731 
L 110.040044 148.096316 
L 111.629252 144.719902 
L 112.060814 142.757912 
L 112.371319 140.795922 
L 113.536143 138.833932 
L 113.952518 136.871942 
L 114.704521 134.719341 
L 116.725895 131.946957 
L 116.987595 131.327174 
L 118.153627 130.707391 
L 118.599052 130.087608 
L 119.358125 127.477937 
L 120.922318 124.868266 
L 121.133163 124.297459 
L 121.689763 123.726652 
L 122.649938 123.155844 
L 123.245585 122.585037 
L 123.980806 123.689891 
L 125.568852 124.794744 
L 126.212985 131.451496 
L 126.222921 138.108248 
L 127.261615 144.765 
L 127.892118 151.421752 
L 128.505507 150.603126 
L 130.215385 149.7845 
L 130.451491 150.383245 
L 130.83617 150.98199 
L 131.916914 151.580735 
L 132.538652 152.17948 
L 134.861918 153.770917 
L 135.07706 154.311151 
L 135.963836 154.851384 
L 137.185185 155.931851 
L 139.730184 154.502828 
L 141.831718 154.360706 
L 142.454114 152.809951 
L 144.154985 151.259195 
L 144.777775 151.563647 
L 144.851926 151.868098 
L 145.240841 152.172549 
L 146.330043 152.477 
L 146.478251 152.781452 
L 148.801518 154.161495 
L 149.04766 153.987773 
L 151.124785 153.466605 
L 152.230063 152.913873 
L 152.234896 152.36114 
L 153.448051 151.808407 
L 153.679518 152.966233 
L 155.150502 154.12406 
L 155.771318 155.281886 
L 158.094585 155.162423 
L 158.340255 154.12923 
L 159.811959 153.096037 
L 160.417851 152.062844 
L 161.051499 152.411971 
L 162.96752 152.746344 
L 165.064385 152.702079 
L 167.59189 151.616115 
L 169.062146 151.474565 
L 169.710918 151.40379 
L 173.101819 150.551285 
L 174.357451 150.380912 
L 176.680718 149.032103 
L 176.909002 148.227061 
L 177.761703 147.42202 
L 179.003985 145.811937 
L 179.667726 146.306822 
L 181.327251 146.801708 
L 181.572031 146.066779 
L 182.420503 145.331849 
L 183.461381 144.59692 
L 183.650518 143.86199 
L 184.288107 143.100706 
L 186.182747 142.274666 
L 186.61829 142.20991 
L 188.297051 142.145154 
L 190.620318 142.491549 
L 190.837195 141.407257 
L 191.270809 140.322965 
L 192.352274 139.238672 
L 192.943584 138.15438 
L 195.266851 138.190072 
L 195.493215 133.261175 
L 195.929485 128.332278 
L 196.833724 123.403381 
L 197.590118 118.474485 
L 198.259916 111.995479 
L 199.913384 105.516473 
L 200.136193 110.983342 
L 201.020545 116.450211 
L 201.483944 121.91708 
L 202.236651 127.383949 
L 202.913279 136.78237 
L 204.559918 146.180792 
L 204.831833 145.148661 
L 205.22534 144.11653 
L 206.261261 143.084399 
L 206.883184 142.052267 
L 207.979689 145.540733 
L 209.206451 149.0292 
L 209.617971 143.833882 
L 209.848981 138.638565 
L 211.008973 133.443248 
L 211.529718 128.247931 
L 212.251533 119.76106 
L 213.852984 111.274189 
L 214.282324 117.248692 
L 214.530348 123.223195 
L 214.579539 129.197698 
L 215.557356 135.1722 
L 216.176251 141.146703 
L 216.915406 153.718216 
L 218.499518 166.289729 
L 220.822784 166.547327 
L 228.44093 166.011421 
L 232.719032 165.77324 
L 233.101543 165.713695 
L 235.852747 165.668585 
L 241.732184 166.112463 
L 244.679976 166.408383 
L 247.010406 166.556342 
L 247.066799 166.630322 
L 248.701984 166.778282 
L 251.025251 166.226246 
L 252.705244 166.042234 
L 253.348517 165.674211 
L 254.050856 165.490199 
L 255.671784 165.306187 
L 256.775723 164.938163 
L 260.318317 164.386128 
L 261.884517 163.834092 
L 263.362896 163.466069 
L 264.964851 163.282057 
L 265.657804 162.914033 
L 267.288117 162.54601 
L 268.03861 162.361998 
L 270.328561 161.993974 
L 271.934651 161.62595 
L 272.705743 161.441939 
L 274.257917 161.257927 
L 274.470148 159.847251 
L 275.003794 158.436576 
L 276.068586 157.025901 
L 276.581184 155.615225 
L 277.348954 150.732941 
L 279.641809 143.372487 
L 280.690655 140.894316 
L 281.748594 136.190019 
L 281.971635 133.963893 
L 283.550984 131.737766 
L 283.781467 129.343888 
L 284.266658 126.95001 
L 285.134654 124.556133 
L 285.87425 122.162255 
L 288.197517 122.271452 
L 288.852616 129.67123 
L 288.860322 137.071008 
L 289.748274 144.470786 
L 290.520784 151.870564 
L 291.156824 154.167297 
L 292.84405 156.46403 
L 293.053392 155.891167 
L 293.488099 155.318305 
L 295.167317 154.17258 
L 295.817073 153.135147 
L 298.145683 151.787768 
L 299.81385 151.167875 
L 300.469949 150.398507 
L 301.43834 149.629138 
L 304.460384 146.43191 
L 306.78365 144.879575 
L 307.417135 145.546943 
L 308.339495 146.881678 
L 309.106917 147.549045 
L 310.730687 146.213359 
L 311.430184 144.877673 
L 312.076656 146.239953 
L 313.436471 147.602233 
L 313.75345 148.964513 
L 314.832577 147.295619 
L 314.93367 145.626724 
L 316.076717 143.957829 
L 317.173275 145.306245 
L 317.666637 146.65466 
L 318.399984 148.003076 
L 320.72325 147.821699 
L 321.835336 147.053965 
L 322.298975 146.670098 
L 323.046517 146.28623 
L 325.369783 146.365983 
L 326.030582 145.526455 
L 327.69305 143.847398 
L 328.790492 144.013572 
L 328.834928 144.179746 
L 330.016317 144.34592 
L 330.665345 144.737554 
L 332.339583 145.520823 
L 334.66285 145.391976 
L 336.986117 145.999885 
L 338.08695 144.802565 
L 338.60967 143.605246 
L 339.309383 142.407927 
L 341.63265 142.83027 
L 342.299474 143.890299 
L 342.807332 144.950328 
L 343.955917 146.010357 
L 344.625072 145.502372 
L 346.279183 144.486402 
L 347.461424 142.941376 
L 348.60245 142.168863 
L 350.16068 142.735961 
L 350.925717 143.01951 
L 351.571887 143.438034 
L 353.248983 144.275083 
L 355.57225 144.436394 
L 356.746886 145.334966 
L 357.895517 145.784253 
L 359.908728 144.207705 
L 360.218783 143.419432 
L 362.54205 142.977964 
L 364.865317 143.11844 
L 366.075235 141.634454 
L 367.188583 140.892461 
L 367.825197 141.799221 
L 368.785612 142.70598 
L 369.51185 143.61274 
L 370.633422 144.526786 
L 370.658769 145.440833 
L 371.835116 146.354879 
L 372.524344 144.708659 
L 373.543352 143.062438 
L 374.158383 141.416218 
L 375.275309 141.931953 
L 375.549888 142.447688 
L 376.48165 142.963422 
L 377.602115 144.2406 
L 378.804916 146.794954 
L 379.569263 147.726013 
L 380.072289 148.657072 
L 381.128183 149.588132 
L 382.690611 153.480602 
L 383.152105 155.426837 
L 383.45145 157.373072 
L 384.196893 159.243738 
L 385.069241 162.985071 
L 386.455193 164.855737 
L 388.097983 166.726403 
L 391.04658 166.533462 
L 394.331385 166.211892 
L 402.68277 165.568754 
L 406.684116 165.311498 
L 409.007383 165.182871 
L 409.632853 165.298397 
L 415.221502 165.760501 
L 415.977183 165.876027 
L 416.682844 166.339492 
L 418.300449 166.802957 
L 418.957578 166.613902 
L 420.066101 166.424847 
L 420.623716 166.046737 
L 423.61263 165.101462 
L 424.08186 164.912407 
L 425.270249 164.723352 
L 427.593516 164.534297 
L 428.505801 164.345242 
L 428.71021 164.156187 
L 429.153319 163.967132 
L 429.916783 163.778077 
L 432.240049 163.589022 
L 435.345219 162.832802 
L 435.928831 162.643747 
L 439.209849 161.887527 
L 441.533116 161.320362 
L 442.287333 159.070751 
L 443.327243 156.82114 
L 443.856383 154.57153 
L 444.615223 152.069087 
L 445.246184 149.566644 
L 446.179649 147.064201 
L 446.899134 144.327662 
L 447.952813 141.591124 
L 448.502916 138.854585 
L 449.27462 136.061459 
L 449.881062 133.268333 
L 450.826183 130.475207 
L 451.603478 126.759168 
L 452.57815 123.043128 
L 453.149449 119.327089 
L 453.898029 117.477675 
L 454.449015 115.628261 
L 455.472716 113.778847 
L 456.233648 116.164216 
L 457.122421 118.549585 
L 457.795982 120.934954 
L 458.533867 130.043445 
L 458.992442 139.151935 
L 460.119249 148.260426 
L 460.829627 150.062413 
L 462.442516 153.666386 
L 464.765782 153.821832 
L 467.089049 154.41968 
L 469.412316 154.378334 
L 470.122941 153.717812 
L 471.735582 152.396767 
L 474.058849 152.382102 
L 476.382116 153.182275 
L 477.491266 153.064418 
L 477.538475 152.828703 
L 478.705382 152.710845 
L 480.712762 153.013557 
L 481.028649 153.316269 
L 482.150547 152.788223 
L 482.639687 152.260176 
L 483.351916 151.732129 
L 485.675182 151.902993 
L 486.788693 150.723248 
L 486.837474 149.543504 
L 487.998449 148.36376 
L 488.65907 149.32106 
L 489.567297 150.278361 
L 490.321716 151.235662 
L 492.644982 150.812182 
L 495.638031 151.216638 
L 497.291516 151.554744 
L 497.97039 152.08085 
L 499.315948 152.606956 
L 499.614782 153.133062 
L 500.295259 151.958413 
L 500.768083 150.783763 
L 503.053953 148.557905 
L 503.516515 147.506696 
L 504.261315 146.455487 
L 504.924701 147.5475 
L 505.859382 148.639513 
L 506.584582 149.731526 
L 507.253311 149.30558 
L 510.057773 147.906403 
L 511.877317 147.474722 
L 513.23556 147.316683 
L 513.554382 147.158644 
L 517.445428 147.001264 
L 518.200915 147.063402 
L 518.874035 147.653248 
L 520.524182 148.243095 
L 521.185616 147.247893 
L 522.847449 146.252691 
L 523.515682 145.257 
L 525.170715 144.261309 
L 525.423611 145.068472 
L 525.849001 145.875636 
L 527.493982 146.682799 
L 529.62973 151.526764 
L 529.817249 153.948747 
L 530.505873 154.268129 
L 532.140515 154.587511 
L 532.798968 155.642105 
L 534.456696 156.696698 
L 534.463782 157.751291 
L 535.124318 155.572742 
L 536.787049 153.394194 
L 537.509716 153.095658 
L 539.109092 152.797123 
L 539.110315 152.498588 
L 539.872517 152.093591 
L 541.278845 151.688594 
L 542.200043 149.578513 
L 543.756849 147.87343 
L 543.767892 146.476562 
L 544.527933 145.079694 
L 545.895237 143.682827 
L 546.080115 142.285959 
L 546.858719 139.220673 
L 548.403382 136.155388 
L 548.638349 141.139707 
L 549.185649 146.124027 
L 550.419698 151.108346 
L 550.726648 156.092666 
L 551.474152 159.625553 
L 553.806146 163.158441 
L 555.423651 166.691328 
L 570.41995 166.691328 
L 570.41995 166.691328 
" clip-path="url(#pafc088df4d)" style="fill: none; stroke: #00a6d6; stroke-width: 3; stroke-linecap: square"/>
   </g>
   <g id="patch_7">
    <path d="M 39.08 171.696 
L 39.08 24.816 
" style="fill: none; stroke: #000000; stroke-linejoin: miter; stroke-linecap: square"/>
   </g>
   <g id="patch_8">
    <path d="M 597.08 171.696 
L 597.08 24.816 
" style="fill: none; stroke: #000000; stroke-linejoin: miter; stroke-linecap: square"/>
   </g>
   <g id="patch_9">
    <path d="M 39.08 171.696 
L 597.08 171.696 
" style="fill: none; stroke: #000000; stroke-linejoin: miter; stroke-linecap: square"/>
   </g>
   <g id="patch_10">
    <path d="M 39.08 24.816 
L 597.08 24.816 
" style="fill: none; stroke: #000000; stroke-linejoin: miter; stroke-linecap: square"/>
   </g>
  </g>
 </g>
 <defs>
  <clipPath id="pafc088df4d">
   <rect x="39.08" y="24.816" width="558" height="146.88"/>
  </clipPath>
 </defs>
 <defs>
  <pattern id="h060d0b14ea" patternUnits="userSpaceOnUse" x="0" y="0" width="72" height="72">
   <rect x="0" y="0" width="73" height="73" fill="#dddddd"/>
   <path d="M -36 36 
L 36 -36 
M -32 40 
L 40 -32 
M -28 44 
L 44 -28 
M -24 48 
L 48 -24 
M -20 52 
L 52 -20 
M -16 56 
L 56 -16 
M -12 60 
L 60 -12 
M -8 64 
L 64 -8 
M -4 68 
L 68 -4 
M 0 72 
L 72 0 
M 4 76 
L 76 4 
M 8 80 
L 80 8 
M 12 84 
L 84 12 
M 16 88 
L 88 16 
M 20 92 
L 92 20 
M 24 96 
L 96 24 
M 28 100 
L 100 28 
M 32 104 
L 104 32 
M 36 108 
L 108 36 
" style="fill: #ffffff; stroke: #ffffff; stroke-width: 1.0; stroke-linecap: butt; stroke-linejoin: miter"/>
  </pattern>
  <pattern id="h85ae56e1ea" patternUnits="userSpaceOnUse" x="0" y="0" width="72" height="72">
   <rect x="0" y="0" width="73" height="73" fill="#ffffff"/>
   <path d="M -36 36 
L 36 -36 
M -32 40 
L 40 -32 
M -28 44 
L 44 -28 
M -24 48 
L 48 -24 
M -20 52 
L 52 -20 
M -16 56 
L 56 -16 
M -12 60 
L 60 -12 
M -8 64 
L 64 -8 
M -4 68 
L 68 -4 
M 0 72 
L 72 0 
M 4 76 
L 76 4 
M 8 80 
L 80 8 
M 12 84 
L 84 12 
M 16 88 
L 88 16 
M 20 92 
L 92 20 
M 24 96 
L 96 24 
M 28 100 
L 100 28 
M 32 104 
L 104 32 
M 36 108 
L 108 36 
M -36 36 
L 36 108 
M -32 32 
L 40 104 
M -28 28 
L 44 100 
M -24 24 
L 48 96 
M -20 20 
L 52 92 
M -16 16 
L 56 88 
M -12 12 
L 60 84 
M -8 8 
L 64 80 
M -4 4 
L 68 76 
M 0 0 
L 72 72 
M 4 -4 
L 76 68 
M 8 -8 
L 80 64 
M 12 -12 
L 84 60 
M 16 -16 
L 88 56 
M 20 -20 
L 92 52 
M 24 -24 
L 96 48 
M 28 -28 
L 100 44 
M 32 -32 
L 104 40 
M 36 -36 
L 108 36 
" style="fill: #dddddd; stroke: #dddddd; stroke-width: 1.0; stroke-linecap: butt; stroke-linejoin: miter"/>
  </pattern>
 </defs>
</svg>
