<?xml version="1.0" encoding="utf-8" standalone="no"?>
<!DOCTYPE svg PUBLIC "-//W3C//DTD SVG 1.1//EN"
  "http://www.w3.org/Graphics/SVG/1.1/DTD/svg11.dtd">
<svg xmlns:xlink="http://www.w3.org/1999/xlink" width="591.44pt" height="229.18625pt" viewBox="0 0 591.44 229.18625" xmlns="http://www.w3.org/2000/svg" version="1.1">
 <metadata>
  <rdf:RDF xmlns:dc="http://purl.org/dc/elements/1.1/" xmlns:cc="http://creativecommons.org/ns#" xmlns:rdf="http://www.w3.org/1999/02/22-rdf-syntax-ns#">
   <cc:Work>
    <dc:type rdf:resource="http://purl.org/dc/dcmitype/StillImage"/>
    <dc:date>2022-10-30T19:44:17.320218</dc:date>
    <dc:format>image/svg+xml</dc:format>
    <dc:creator>
     <cc:Agent>
      <dc:title>Matplotlib v3.5.2, https://matplotlib.org/</dc:title>
     </cc:Agent>
    </dc:creator>
   </cc:Work>
  </rdf:RDF>
 </metadata>
 <defs>
  <style type="text/css">*{stroke-linejoin: round; stroke-linecap: butt}</style>
 </defs>
 <g id="figure_1">
  <g id="patch_1">
   <path d="M 0 229.18625 
L 591.44 229.18625 
L 591.44 0 
L 0 0 
z
" style="fill: #ffffff"/>
  </g>
  <g id="axes_1">
   <g id="patch_2">
    <path d="M 32 194.7375 
L 590 194.7375 
L 590 28.4175 
L 32 28.4175 
z
" style="fill: #ffffff"/>
   </g>
   <g id="PolyCollection_1">
    <defs>
     <path id="m965100869b" d="M 57.363636 -39.612986 
L 57.363636 -34.44875 
L 65.611973 -34.44875 
L 75.235033 -34.44875 
L 106.853659 -34.44875 
L 113.727273 -34.44875 
L 126.099778 -34.44875 
L 131.59867 -34.44875 
L 135.722838 -34.44875 
L 141.221729 -34.44875 
L 170.090909 -34.44875 
L 172.840355 -34.44875 
L 181.088692 -34.44875 
L 187.962306 -34.44875 
L 190.711752 -34.44875 
L 197.585366 -34.44875 
L 200.334812 -34.44875 
L 207.208426 -34.44875 
L 211.332594 -34.44875 
L 212.707317 -34.44875 
L 218.206208 -34.44875 
L 220.955654 -34.44875 
L 226.454545 -34.44875 
L 230.578714 -34.44875 
L 237.452328 -34.44875 
L 241.576497 -34.44875 
L 247.075388 -34.44875 
L 258.073171 -34.44875 
L 267.696231 -34.44875 
L 275.944568 -34.44875 
L 278.694013 -34.44875 
L 288.317073 -34.44875 
L 315.81153 -34.44875 
L 317.186253 -34.44875 
L 324.059867 -34.44875 
L 333.682927 -34.44875 
L 343.305987 -34.44875 
L 352.929047 -34.44875 
L 363.926829 -34.44875 
L 374.924612 -34.44875 
L 381.798226 -34.44875 
L 410.667406 -34.44875 
L 468.405765 -34.44875 
L 478.028825 -34.44875 
L 487.651885 -34.44875 
L 509.64745 -34.44875 
L 516.521064 -34.44875 
L 527.518847 -34.44875 
L 534.392461 -34.44875 
L 544.015521 -34.44875 
L 564.636364 -34.44875 
L 564.636364 -72.093203 
L 564.636364 -72.093203 
L 544.015521 -68.527718 
L 534.392461 -76.646213 
L 527.518847 -61.141031 
L 516.521064 -68.078654 
L 509.64745 -73.760561 
L 487.651885 -67.390505 
L 478.028825 -93.65867 
L 468.405765 -100.656584 
L 410.667406 -102.39047 
L 381.798226 -92.694014 
L 374.924612 -97.708562 
L 363.926829 -94.138919 
L 352.929047 -98.413343 
L 343.305987 -95.209604 
L 333.682927 -84.103586 
L 324.059867 -74.714822 
L 317.186253 -51.980957 
L 315.81153 -67.985099 
L 288.317073 -66.296951 
L 278.694013 -61.825022 
L 275.944568 -71.583848 
L 267.696231 -54.184697 
L 258.073171 -58.217957 
L 247.075388 -52.552682 
L 241.576497 -42.831278 
L 237.452328 -44.515268 
L 230.578714 -40.465376 
L 226.454545 -38.619224 
L 220.955654 -40.637933 
L 218.206208 -40.301135 
L 212.707317 -39.556853 
L 211.332594 -40.168079 
L 207.208426 -41.47577 
L 200.334812 -40.571405 
L 197.585366 -42.633773 
L 190.711752 -40.874939 
L 187.962306 -42.111944 
L 181.088692 -42.513191 
L 172.840355 -41.827121 
L 170.090909 -42.84791 
L 141.221729 -40.319846 
L 135.722838 -40.473692 
L 131.59867 -40.06205 
L 126.099778 -40.037102 
L 113.727273 -39.423797 
L 106.853659 -39.825044 
L 75.235033 -41.423795 
L 65.611973 -40.509035 
L 57.363636 -39.612986 
z
" style="stroke: #99d28c"/>
    </defs>
    <g clip-path="url(#p2f1c6f270d)">
     <use xlink:href="#m965100869b" x="0" y="229.18625" style="fill: #99d28c; stroke: #99d28c"/>
    </g>
   </g>
   <g id="PolyCollection_2">
    <defs>
     <path id="m1407dec3a4" d="M 57.363636 -42.053732 
L 57.363636 -39.612986 
L 65.611973 -40.509035 
L 75.235033 -41.423795 
L 106.853659 -39.825044 
L 113.727273 -39.423797 
L 126.099778 -40.037102 
L 131.59867 -40.06205 
L 135.722838 -40.473692 
L 141.221729 -40.319846 
L 170.090909 -42.84791 
L 172.840355 -41.827121 
L 181.088692 -42.513191 
L 187.962306 -42.111944 
L 190.711752 -40.874939 
L 197.585366 -42.633773 
L 200.334812 -40.571405 
L 207.208426 -41.47577 
L 211.332594 -40.168079 
L 212.707317 -39.556853 
L 218.206208 -40.301135 
L 220.955654 -40.637933 
L 226.454545 -38.619224 
L 230.578714 -40.465376 
L 237.452328 -44.515268 
L 241.576497 -42.831278 
L 247.075388 -52.552682 
L 258.073171 -58.217957 
L 267.696231 -54.184697 
L 275.944568 -71.583848 
L 278.694013 -61.825022 
L 288.317073 -66.296951 
L 315.81153 -67.985099 
L 317.186253 -51.980957 
L 324.059867 -74.714822 
L 333.682927 -84.103586 
L 343.305987 -95.209604 
L 352.929047 -98.413343 
L 363.926829 -94.138919 
L 374.924612 -97.708562 
L 381.798226 -92.694014 
L 410.667406 -102.39047 
L 468.405765 -100.656584 
L 478.028825 -93.65867 
L 487.651885 -67.390505 
L 509.64745 -73.760561 
L 516.521064 -68.078654 
L 527.518847 -61.141031 
L 534.392461 -76.646213 
L 544.015521 -68.527718 
L 564.636364 -72.093203 
L 564.636364 -148.238657 
L 564.636364 -148.238657 
L 544.015521 -145.839491 
L 534.392461 -144.19916 
L 527.518847 -110.783393 
L 516.521064 -124.213733 
L 509.64745 -132.228278 
L 487.651885 -90.500669 
L 478.028825 -130.606658 
L 468.405765 -139.267772 
L 410.667406 -138.238667 
L 381.798226 -114.473618 
L 374.924612 -115.843679 
L 363.926829 -109.47986 
L 352.929047 -110.818736 
L 343.305987 -112.03703 
L 333.682927 -92.392559 
L 324.059867 -82.964294 
L 317.186253 -54.65663 
L 315.81153 -69.906095 
L 288.317073 -70.704431 
L 278.694013 -69.901937 
L 275.944568 -75.725216 
L 267.696231 -59.904026 
L 258.073171 -72.841643 
L 247.075388 -59.845814 
L 241.576497 -50.565158 
L 237.452328 -55.481993 
L 230.578714 -46.98512 
L 226.454545 -41.093234 
L 220.955654 -46.269944 
L 218.206208 -43.787618 
L 212.707317 -43.186787 
L 211.332594 -43.623377 
L 207.208426 -45.359342 
L 200.334812 -46.188863 
L 197.585366 -51.575552 
L 190.711752 -44.163917 
L 187.962306 -45.436265 
L 181.088692 -45.82088 
L 172.840355 -46.053728 
L 170.090909 -46.446659 
L 141.221729 -43.232525 
L 135.722838 -42.976808 
L 131.59867 -41.625458 
L 126.099778 -43.619219 
L 113.727273 -43.92899 
L 106.853659 -42.739802 
L 75.235033 -44.265788 
L 65.611973 -42.899885 
L 57.363636 -42.053732 
z
" style="stroke: #eb7245"/>
    </defs>
    <g clip-path="url(#p2f1c6f270d)">
     <use xlink:href="#m1407dec3a4" x="0" y="229.18625" style="fill: #eb7245; stroke: #eb7245"/>
    </g>
   </g>
   <g id="PolyCollection_3">
    <defs>
     <path id="m4b61a788c1" d="M 57.363636 -96.731432 
L 57.363636 -42.053732 
L 65.611973 -42.899885 
L 75.235033 -44.265788 
L 106.853659 -42.739802 
L 113.727273 -43.92899 
L 126.099778 -43.619219 
L 131.59867 -41.625458 
L 135.722838 -42.976808 
L 141.221729 -43.232525 
L 170.090909 -46.446659 
L 172.840355 -46.053728 
L 181.088692 -45.82088 
L 187.962306 -45.436265 
L 190.711752 -44.163917 
L 197.585366 -51.575552 
L 200.334812 -46.188863 
L 207.208426 -45.359342 
L 211.332594 -43.623377 
L 212.707317 -43.186787 
L 218.206208 -43.787618 
L 220.955654 -46.269944 
L 226.454545 -41.093234 
L 230.578714 -46.98512 
L 237.452328 -55.481993 
L 241.576497 -50.565158 
L 247.075388 -59.845814 
L 258.073171 -72.841643 
L 267.696231 -59.904026 
L 275.944568 -75.725216 
L 278.694013 -69.901937 
L 288.317073 -70.704431 
L 315.81153 -69.906095 
L 317.186253 -54.65663 
L 324.059867 -82.964294 
L 333.682927 -92.392559 
L 343.305987 -112.03703 
L 352.929047 -110.818736 
L 363.926829 -109.47986 
L 374.924612 -115.843679 
L 381.798226 -114.473618 
L 410.667406 -138.238667 
L 468.405765 -139.267772 
L 478.028825 -130.606658 
L 487.651885 -90.500669 
L 509.64745 -132.228278 
L 516.521064 -124.213733 
L 527.518847 -110.783393 
L 534.392461 -144.19916 
L 544.015521 -145.839491 
L 564.636364 -148.238657 
L 564.636364 -187.115957 
L 564.636364 -187.115957 
L 544.015521 -191.161691 
L 534.392461 -179.75006 
L 527.518847 -172.321793 
L 516.521064 -174.317633 
L 509.64745 -185.866478 
L 487.651885 -159.107669 
L 478.028825 -171.355058 
L 468.405765 -173.155472 
L 410.667406 -165.265667 
L 381.798226 -154.182518 
L 374.924612 -149.731379 
L 363.926829 -159.37586 
L 352.929047 -158.219936 
L 343.305987 -157.15133 
L 333.682927 -166.820759 
L 324.059867 -128.702294 
L 317.186253 -125.34263 
L 315.81153 -123.752195 
L 288.317073 -134.737631 
L 278.694013 -122.708537 
L 275.944568 -133.313516 
L 267.696231 -115.829126 
L 258.073171 -130.637843 
L 247.075388 -113.484014 
L 241.576497 -121.251158 
L 237.452328 -119.307293 
L 230.578714 -113.92892 
L 226.454545 -99.097334 
L 220.955654 -109.679444 
L 218.206208 -114.057818 
L 212.707317 -110.546387 
L 211.332594 -106.617077 
L 207.208426 -103.155542 
L 200.334812 -105.024563 
L 197.585366 -111.242852 
L 190.711752 -111.315617 
L 187.962306 -108.845765 
L 181.088692 -114.84368 
L 172.840355 -114.244928 
L 170.090909 -115.053659 
L 141.221729 -113.502725 
L 135.722838 -106.594208 
L 131.59867 -104.827058 
L 126.099778 -110.147219 
L 113.727273 -107.96219 
L 106.853659 -115.504802 
L 75.235033 -93.745988 
L 65.611973 -96.122285 
L 57.363636 -96.731432 
z
" style="stroke: #00b7d3"/>
    </defs>
    <g clip-path="url(#p2f1c6f270d)">
     <use xlink:href="#m4b61a788c1" x="0" y="229.18625" style="fill: #00b7d3; stroke: #00b7d3"/>
    </g>
   </g>
   <g id="matplotlib.axis_1">
    <g id="xtick_1">
     <g id="line2d_1">
      <defs>
       <path id="m4a0d453090" d="M 0 0 
L 0 3.5 
" style="stroke: #000000"/>
      </defs>
      <g>
       <use xlink:href="#m4a0d453090" x="57.363636" y="194.7375" style="stroke: #000000"/>
      </g>
     </g>
     <g id="text_1">
      <text style="font: 12px 'Source Code Pro'; text-anchor: middle" x="57.363636" y="210.281875" transform="rotate(-0, 57.363636, 210.281875)">0</text>
     </g>
    </g>
    <g id="xtick_2">
     <g id="line2d_2">
      <g>
       <use xlink:href="#m4a0d453090" x="126.099778" y="194.7375" style="stroke: #000000"/>
      </g>
     </g>
     <g id="text_2">
      <text style="font: 12px 'Source Code Pro'; text-anchor: middle" x="126.099778" y="210.281875" transform="rotate(-0, 126.099778, 210.281875)">50</text>
     </g>
    </g>
    <g id="xtick_3">
     <g id="line2d_3">
      <g>
       <use xlink:href="#m4a0d453090" x="194.83592" y="194.7375" style="stroke: #000000"/>
      </g>
     </g>
     <g id="text_3">
      <text style="font: 12px 'Source Code Pro'; text-anchor: middle" x="194.83592" y="210.281875" transform="rotate(-0, 194.83592, 210.281875)">100</text>
     </g>
    </g>
    <g id="xtick_4">
     <g id="line2d_4">
      <g>
       <use xlink:href="#m4a0d453090" x="263.572062" y="194.7375" style="stroke: #000000"/>
      </g>
     </g>
     <g id="text_4">
      <text style="font: 12px 'Source Code Pro'; text-anchor: middle" x="263.572062" y="210.281875" transform="rotate(-0, 263.572062, 210.281875)">150</text>
     </g>
    </g>
    <g id="xtick_5">
     <g id="line2d_5">
      <g>
       <use xlink:href="#m4a0d453090" x="332.308204" y="194.7375" style="stroke: #000000"/>
      </g>
     </g>
     <g id="text_5">
      <text style="font: 12px 'Source Code Pro'; text-anchor: middle" x="332.308204" y="210.281875" transform="rotate(-0, 332.308204, 210.281875)">200</text>
     </g>
    </g>
    <g id="xtick_6">
     <g id="line2d_6">
      <g>
       <use xlink:href="#m4a0d453090" x="401.044346" y="194.7375" style="stroke: #000000"/>
      </g>
     </g>
     <g id="text_6">
      <text style="font: 12px 'Source Code Pro'; text-anchor: middle" x="401.044346" y="210.281875" transform="rotate(-0, 401.044346, 210.281875)">250</text>
     </g>
    </g>
    <g id="xtick_7">
     <g id="line2d_7">
      <g>
       <use xlink:href="#m4a0d453090" x="469.780488" y="194.7375" style="stroke: #000000"/>
      </g>
     </g>
     <g id="text_7">
      <text style="font: 12px 'Source Code Pro'; text-anchor: middle" x="469.780488" y="210.281875" transform="rotate(-0, 469.780488, 210.281875)">300</text>
     </g>
    </g>
    <g id="xtick_8">
     <g id="line2d_8">
      <g>
       <use xlink:href="#m4a0d453090" x="538.51663" y="194.7375" style="stroke: #000000"/>
      </g>
     </g>
     <g id="text_8">
      <text style="font: 12px 'Source Code Pro'; text-anchor: middle" x="538.51663" y="210.281875" transform="rotate(-0, 538.51663, 210.281875)">350</text>
     </g>
    </g>
    <g id="text_9">
     <text style="font: 12px 'Source Code Pro'; text-anchor: middle" x="311" y="225.28625" transform="rotate(-0, 311, 225.28625)">time (d)</text>
    </g>
   </g>
   <g id="matplotlib.axis_2">
    <g id="ytick_1">
     <g id="line2d_9">
      <defs>
       <path id="ma4a00d41fd" d="M 0 0 
L -3.5 0 
" style="stroke: #000000"/>
      </defs>
      <g>
       <use xlink:href="#ma4a00d41fd" x="32" y="194.7375" style="stroke: #000000"/>
      </g>
     </g>
     <g id="text_10">
      <text style="font: 12px 'Source Code Pro'; text-anchor: end" x="25" y="199.009687" transform="rotate(-0, 25, 199.009687)">0</text>
     </g>
    </g>
    <g id="ytick_2">
     <g id="line2d_10">
      <g>
       <use xlink:href="#ma4a00d41fd" x="32" y="153.1575" style="stroke: #000000"/>
      </g>
     </g>
     <g id="text_11">
      <text style="font: 12px 'Source Code Pro'; text-anchor: end" x="25" y="157.429687" transform="rotate(-0, 25, 157.429687)">2</text>
     </g>
    </g>
    <g id="ytick_3">
     <g id="line2d_11">
      <g>
       <use xlink:href="#ma4a00d41fd" x="32" y="111.5775" style="stroke: #000000"/>
      </g>
     </g>
     <g id="text_12">
      <text style="font: 12px 'Source Code Pro'; text-anchor: end" x="25" y="115.849687" transform="rotate(-0, 25, 115.849687)">4</text>
     </g>
    </g>
    <g id="ytick_4">
     <g id="line2d_12">
      <g>
       <use xlink:href="#ma4a00d41fd" x="32" y="69.9975" style="stroke: #000000"/>
      </g>
     </g>
     <g id="text_13">
      <text style="font: 12px 'Source Code Pro'; text-anchor: end" x="25" y="74.269687" transform="rotate(-0, 25, 74.269687)">6</text>
     </g>
    </g>
    <g id="ytick_5">
     <g id="line2d_13">
      <g>
       <use xlink:href="#ma4a00d41fd" x="32" y="28.4175" style="stroke: #000000"/>
      </g>
     </g>
     <g id="text_14">
      <text style="font: 12px 'Source Code Pro'; text-anchor: end" x="25" y="32.689687" transform="rotate(-0, 25, 32.689687)">8</text>
     </g>
    </g>
    <g id="text_15">
     <!-- MLSS ($kg\ m^{-3}$) -->
     <g transform="translate(11.04 154.0575)rotate(-90)">
      <text>
       <tspan style="font: 12px 'Source Code Pro'" x="0 7.199997 14.399994 21.599991 28.799988 35.999985 43.199982 50.399979 59.999951 77.673342" y="-0.46250000000000213">MLSS (kgm)</tspan>
       <tspan style="font: 8.4px 'Source Code Pro'" x="67.30194 72.341938" y="-4.542187500000002">−3</tspan>
      </text>
     </g>
    </g>
   </g>
   <g id="line2d_14">
    <path d="M 57.363636 189.573264 
L 65.611973 188.677215 
L 75.235033 187.762455 
L 106.853659 189.361206 
L 113.727273 189.762453 
L 126.099778 189.149148 
L 131.59867 189.1242 
L 135.722838 188.712558 
L 141.221729 188.866404 
L 170.090909 186.33834 
L 172.840355 187.359129 
L 181.088692 186.673059 
L 187.962306 187.074306 
L 190.711752 188.311311 
L 197.585366 186.552477 
L 200.334812 188.614845 
L 207.208426 187.71048 
L 211.332594 189.018171 
L 212.707317 189.629397 
L 218.206208 188.885115 
L 220.955654 188.548317 
L 226.454545 190.567026 
L 230.578714 188.720874 
L 237.452328 184.670982 
L 241.576497 186.354972 
L 247.075388 176.633568 
L 258.073171 170.968293 
L 267.696231 175.001553 
L 275.944568 157.602402 
L 278.694013 167.361228 
L 288.317073 162.889299 
L 315.81153 161.201151 
L 317.186253 177.205293 
L 324.059867 154.471428 
L 333.682927 145.082664 
L 343.305987 133.976646 
L 352.929047 130.772907 
L 363.926829 135.047331 
L 374.924612 131.477688 
L 381.798226 136.492236 
L 410.667406 126.79578 
L 468.405765 128.529666 
L 478.028825 135.52758 
L 487.651885 161.795745 
L 509.64745 155.425689 
L 516.521064 161.107596 
L 527.518847 168.045219 
L 534.392461 152.540037 
L 544.015521 160.658532 
L 564.636364 157.093047 
" clip-path="url(#p2f1c6f270d)" style="fill: none; stroke: #99d28c; stroke-width: 3; stroke-linecap: square"/>
   </g>
   <g id="line2d_15">
    <path d="M 57.363636 187.132518 
L 65.611973 186.286365 
L 75.235033 184.920462 
L 106.853659 186.446448 
L 113.727273 185.25726 
L 126.099778 185.567031 
L 131.59867 187.560792 
L 135.722838 186.209442 
L 141.221729 185.953725 
L 170.090909 182.739591 
L 172.840355 183.132522 
L 181.088692 183.36537 
L 187.962306 183.749985 
L 190.711752 185.022333 
L 197.585366 177.610698 
L 200.334812 182.997387 
L 207.208426 183.826908 
L 211.332594 185.562873 
L 212.707317 185.999463 
L 218.206208 185.398632 
L 220.955654 182.916306 
L 226.454545 188.093016 
L 230.578714 182.20113 
L 237.452328 173.704257 
L 241.576497 178.621092 
L 247.075388 169.340436 
L 258.073171 156.344607 
L 267.696231 169.282224 
L 275.944568 153.461034 
L 278.694013 159.284313 
L 288.317073 158.481819 
L 315.81153 159.280155 
L 317.186253 174.52962 
L 324.059867 146.221956 
L 333.682927 136.793691 
L 343.305987 117.14922 
L 352.929047 118.367514 
L 363.926829 119.70639 
L 374.924612 113.342571 
L 381.798226 114.712632 
L 410.667406 90.947583 
L 468.405765 89.918478 
L 478.028825 98.579592 
L 487.651885 138.685581 
L 509.64745 96.957972 
L 516.521064 104.972517 
L 527.518847 118.402857 
L 534.392461 84.98709 
L 544.015521 83.346759 
L 564.636364 80.947593 
" clip-path="url(#p2f1c6f270d)" style="fill: none; stroke: #eb7245; stroke-width: 3; stroke-linecap: square"/>
   </g>
   <g id="line2d_16">
    <path d="M 57.363636 132.454818 
L 65.611973 133.063965 
L 75.235033 135.440262 
L 106.853659 113.681448 
L 113.727273 121.22406 
L 126.099778 119.039031 
L 131.59867 124.359192 
L 135.722838 122.592042 
L 141.221729 115.683525 
L 170.090909 114.132591 
L 172.840355 114.941322 
L 181.088692 114.34257 
L 187.962306 120.340485 
L 190.711752 117.870633 
L 197.585366 117.943398 
L 200.334812 124.161687 
L 207.208426 126.030708 
L 211.332594 122.569173 
L 212.707317 118.639863 
L 218.206208 115.128432 
L 220.955654 119.506806 
L 226.454545 130.088916 
L 230.578714 115.25733 
L 237.452328 109.878957 
L 241.576497 107.935092 
L 247.075388 115.702236 
L 258.073171 98.548407 
L 267.696231 113.357124 
L 275.944568 95.872734 
L 278.694013 106.477713 
L 288.317073 94.448619 
L 315.81153 105.434055 
L 317.186253 103.84362 
L 324.059867 100.483956 
L 333.682927 62.365491 
L 343.305987 72.03492 
L 352.929047 70.966314 
L 363.926829 69.81039 
L 374.924612 79.454871 
L 381.798226 75.003732 
L 410.667406 63.920583 
L 468.405765 56.030778 
L 478.028825 57.831192 
L 487.651885 70.078581 
L 509.64745 43.319772 
L 516.521064 54.868617 
L 527.518847 56.864457 
L 534.392461 49.43619 
L 544.015521 38.024559 
L 564.636364 42.070293 
" clip-path="url(#p2f1c6f270d)" style="fill: none; stroke: #00b7d3; stroke-width: 3; stroke-linecap: square"/>
   </g>
   <g id="patch_3">
    <path d="M 32 194.7375 
L 32 28.4175 
" style="fill: none; stroke: #000000; stroke-linejoin: miter; stroke-linecap: square"/>
   </g>
   <g id="patch_4">
    <path d="M 590 194.7375 
L 590 28.4175 
" style="fill: none; stroke: #000000; stroke-linejoin: miter; stroke-linecap: square"/>
   </g>
   <g id="patch_5">
    <path d="M 32 194.7375 
L 590 194.7375 
" style="fill: none; stroke: #000000; stroke-linejoin: miter; stroke-linecap: square"/>
   </g>
   <g id="patch_6">
    <path d="M 32 28.4175 
L 590 28.4175 
" style="fill: none; stroke: #000000; stroke-linejoin: miter; stroke-linecap: square"/>
   </g>
   <g id="text_16">
    <text style="font: 12px 'Source Code Pro'; text-anchor: middle" x="146.720621" y="161.4735" transform="rotate(-0, 146.720621, 161.4735)">lag phase</text>
   </g>
   <g id="text_17">
    <text style="font: 12px 'Source Code Pro'" transform="translate(243.721349 156.527915)rotate(-25)">granulation phase</text>
   </g>
   <g id="legend_1">
    <g id="patch_7">
     <path d="M 164.6 14.92875 
L 188.6 14.92875 
L 188.6 6.52875 
L 164.6 6.52875 
z
" style="fill: #99d28c; stroke: #99d28c; stroke-linejoin: miter"/>
    </g>
    <g id="text_18">
     <text style="font: 12px 'Source Code Pro'; text-anchor: start" x="198.2" y="14.92875" transform="rotate(-0, 198.2, 14.92875)">small</text>
    </g>
    <g id="patch_8">
     <path d="M 258.2 14.92875 
L 282.2 14.92875 
L 282.2 6.52875 
L 258.2 6.52875 
z
" style="fill: #eb7245; stroke: #eb7245; stroke-linejoin: miter"/>
    </g>
    <g id="text_19">
     <text style="font: 12px 'Source Code Pro'; text-anchor: start" x="291.8" y="14.92875" transform="rotate(-0, 291.8, 14.92875)">large</text>
    </g>
    <g id="patch_9">
     <path d="M 351.8 14.92875 
L 375.8 14.92875 
L 375.8 6.52875 
L 351.8 6.52875 
z
" style="fill: #00b7d3; stroke: #00b7d3; stroke-linejoin: miter"/>
    </g>
    <g id="text_20">
     <text style="font: 12px 'Source Code Pro'; text-anchor: start" x="385.4" y="14.92875" transform="rotate(-0, 385.4, 14.92875)">proto+floc</text>
    </g>
   </g>
   <g id="patch_10">
    <path d="M 59.362497 168.2895 
Q 142.971326 168.2895 226.580155 168.2895 
L 226.580155 166.0395 
Q 230.329842 167.9145 234.07953 169.7895 
Q 230.329842 171.6645 226.580155 173.5395 
L 226.580155 171.2895 
Q 142.971326 171.2895 59.362497 171.2895 
L 59.362497 168.2895 
z
" clip-path="url(#p2f1c6f270d)" style="stroke: #000000; stroke-linecap: round"/>
   </g>
   <g id="patch_11">
    <path d="M 237.258273 167.587474 
Q 320.025399 129.156641 402.792526 90.725808 
L 401.84496 88.685069 
Q 406.036059 88.806302 410.227158 88.927536 
Q 407.615336 92.207535 405.003513 95.487534 
L 404.055947 93.446795 
Q 321.288821 131.877628 238.521695 170.308461 
L 237.258273 167.587474 
z
" clip-path="url(#p2f1c6f270d)" style="stroke: #000000; stroke-linecap: round"/>
   </g>
  </g>
 </g>
 <defs>
  <clipPath id="p2f1c6f270d">
   <rect x="32" y="28.4175" width="558" height="166.32"/>
  </clipPath>
 </defs>
</svg>
