<?xml version="1.0" encoding="utf-8" standalone="no"?>
<!DOCTYPE svg PUBLIC "-//W3C//DTD SVG 1.1//EN"
  "http://www.w3.org/Graphics/SVG/1.1/DTD/svg11.dtd">
<svg xmlns:xlink="http://www.w3.org/1999/xlink" width="720pt" height="360pt" viewBox="0 0 720 360" xmlns="http://www.w3.org/2000/svg" version="1.1">
 <metadata>
  <rdf:RDF xmlns:dc="http://purl.org/dc/elements/1.1/" xmlns:cc="http://creativecommons.org/ns#" xmlns:rdf="http://www.w3.org/1999/02/22-rdf-syntax-ns#">
   <cc:Work>
    <dc:type rdf:resource="http://purl.org/dc/dcmitype/StillImage"/>
    <dc:date>2022-10-07T11:54:09.551477</dc:date>
    <dc:format>image/svg+xml</dc:format>
    <dc:creator>
     <cc:Agent>
      <dc:title>Matplotlib v3.5.2, https://matplotlib.org/</dc:title>
     </cc:Agent>
    </dc:creator>
   </cc:Work>
  </rdf:RDF>
 </metadata>
 <defs>
  <style type="text/css">*{stroke-linejoin: round; stroke-linecap: butt}</style>
 </defs>
 <g id="figure_1">
  <g id="patch_1">
   <path d="M 0 360 
L 720 360 
L 720 0 
L 0 0 
z
" style="fill: #ffffff"/>
  </g>
  <g id="axes_1">
   <g id="patch_2">
    <path d="M 86.4 123 
L 705.6 123 
L 705.6 36 
L 86.4 36 
z
" style="fill: #ffffff"/>
   </g>
   <g id="PolyCollection_1">
    <path d="M 128.274945 123 
L 128.274945 123 
L 135.455697 123 
L 135.622663 123 
L 136.253304 123 
L 136.269576 123 
L 136.525809 123 
L 136.923633 36 
L 158.782024 36 
L 158.784922 36 
L 186.000687 36 
L 187.277835 36 
L 202.570326 36 
L 202.846771 36 
L 226.211084 36 
L 226.883371 36 
L 227.152672 36 
L 227.526699 36 
L 227.694072 123 
L 228.097439 123 
L 228.122051 123 
L 228.129983 123 
L 228.368342 123 
L 231.571127 123 
L 231.7056 123 
L 250.289431 123 
L 250.314856 123 
L 260.844434 123 
L 261.253369 123 
L 341.844154 123 
L 341.844789 123 
L 401.123108 123 
L 401.685916 123 
L 402.035357 123 
L 402.30626 123 
L 433.349298 123 
L 433.374723 123 
L 447.424161 123 
L 448.370911 123 
L 494.138496 123 
L 495.277993 123 
L 510.566924 123 
L 510.578035 123 
L 510.82631 123 
L 511.09762 123 
L 524.902495 123 
L 524.904656 123 
L 557.021849 123 
L 557.152355 123 
L 569.322557 123 
L 570.528718 123 
L 570.712362 123 
L 571.049091 123 
L 571.05743 123 
L 571.294213 123 
L 615.318204 123 
L 615.679137 123 
L 615.766396 123 
L 616.041265 123 
L 616.433064 123 
L 616.43459 123 
L 623.415018 123 
L 623.543923 123 
L 672.661428 123 
L 673.739473 123 
L 677.127504 123 
L 677.454545 123 
L 677.454545 123 
L 677.454545 123 
L 677.127504 123 
L 673.739473 123 
L 672.661428 123 
L 623.543923 123 
L 623.415018 123 
L 616.43459 123 
L 616.433064 123 
L 616.041265 123 
L 615.766396 123 
L 615.679137 123 
L 615.318204 123 
L 571.294213 123 
L 571.05743 123 
L 571.049091 123 
L 570.712362 123 
L 570.528718 123 
L 569.322557 123 
L 557.152355 123 
L 557.021849 123 
L 524.904656 123 
L 524.902495 123 
L 511.09762 123 
L 510.82631 123 
L 510.578035 123 
L 510.566924 123 
L 495.277993 123 
L 494.138496 123 
L 448.370911 123 
L 447.424161 123 
L 433.374723 123 
L 433.349298 123 
L 402.30626 123 
L 402.035357 123 
L 401.685916 123 
L 401.123108 123 
L 341.844789 123 
L 341.844154 123 
L 261.253369 123 
L 260.844434 123 
L 250.314856 123 
L 250.289431 123 
L 231.7056 123 
L 231.571127 123 
L 228.368342 123 
L 228.129983 123 
L 228.122051 123 
L 228.097439 123 
L 227.694072 123 
L 227.526699 123 
L 227.152672 123 
L 226.883371 123 
L 226.211084 123 
L 202.846771 123 
L 202.570326 123 
L 187.277835 123 
L 186.000687 123 
L 158.784922 123 
L 158.782024 123 
L 136.923633 123 
L 136.525809 123 
L 136.269576 123 
L 136.253304 123 
L 135.622663 123 
L 135.455697 123 
L 128.274945 123 
z
" clip-path="url(#p2e1632267a)" style="fill: url(#hd7a8bc91e5)"/>
   </g>
   <g id="PolyCollection_2">
    <defs>
     <path id="mb164c511e1" d="M 128.274945 -237 
L 128.274945 -237 
L 135.455697 -237 
L 135.622663 -237 
L 136.253304 -237 
L 136.269576 -237 
L 136.525809 -237 
L 136.923633 -237 
L 158.782024 -237 
L 158.784922 -237 
L 186.000687 -237 
L 187.277835 -237 
L 202.570326 -237 
L 202.846771 -237 
L 226.211084 -237 
L 226.883371 -237 
L 227.152672 -237 
L 227.526699 -237 
L 227.694072 -237 
L 228.097439 -237 
L 228.122051 -237 
L 228.129983 -237 
L 228.368342 -237 
L 231.571127 -237 
L 231.7056 -237 
L 250.289431 -237 
L 250.314856 -237 
L 260.844434 -237 
L 261.253369 -237 
L 341.844154 -237 
L 341.844789 -237 
L 401.123108 -237 
L 401.685916 -237 
L 402.035357 -237 
L 402.30626 -237 
L 433.349298 -237 
L 433.374723 -237 
L 447.424161 -237 
L 448.370911 -237 
L 494.138496 -237 
L 495.277993 -237 
L 510.566924 -237 
L 510.578035 -237 
L 510.82631 -237 
L 511.09762 -237 
L 524.902495 -237 
L 524.904656 -237 
L 557.021849 -237 
L 557.152355 -237 
L 569.322557 -237 
L 570.528718 -237 
L 570.712362 -237 
L 571.049091 -237 
L 571.05743 -237 
L 571.294213 -237 
L 615.318204 -237 
L 615.679137 -237 
L 615.766396 -237 
L 616.041265 -324 
L 616.433064 -324 
L 616.43459 -324 
L 623.415018 -324 
L 623.543923 -324 
L 672.661428 -324 
L 673.739473 -237 
L 677.127504 -237 
L 677.454545 -237 
L 677.454545 -237 
L 677.454545 -237 
L 677.127504 -237 
L 673.739473 -237 
L 672.661428 -237 
L 623.543923 -237 
L 623.415018 -237 
L 616.43459 -237 
L 616.433064 -237 
L 616.041265 -237 
L 615.766396 -237 
L 615.679137 -237 
L 615.318204 -237 
L 571.294213 -237 
L 571.05743 -237 
L 571.049091 -237 
L 570.712362 -237 
L 570.528718 -237 
L 569.322557 -237 
L 557.152355 -237 
L 557.021849 -237 
L 524.904656 -237 
L 524.902495 -237 
L 511.09762 -237 
L 510.82631 -237 
L 510.578035 -237 
L 510.566924 -237 
L 495.277993 -237 
L 494.138496 -237 
L 448.370911 -237 
L 447.424161 -237 
L 433.374723 -237 
L 433.349298 -237 
L 402.30626 -237 
L 402.035357 -237 
L 401.685916 -237 
L 401.123108 -237 
L 341.844789 -237 
L 341.844154 -237 
L 261.253369 -237 
L 260.844434 -237 
L 250.314856 -237 
L 250.289431 -237 
L 231.7056 -237 
L 231.571127 -237 
L 228.368342 -237 
L 228.129983 -237 
L 228.122051 -237 
L 228.097439 -237 
L 227.694072 -237 
L 227.526699 -237 
L 227.152672 -237 
L 226.883371 -237 
L 226.211084 -237 
L 202.846771 -237 
L 202.570326 -237 
L 187.277835 -237 
L 186.000687 -237 
L 158.784922 -237 
L 158.782024 -237 
L 136.923633 -237 
L 136.525809 -237 
L 136.269576 -237 
L 136.253304 -237 
L 135.622663 -237 
L 135.455697 -237 
L 128.274945 -237 
z
"/>
    </defs>
    <g clip-path="url(#p2e1632267a)">
     <use xlink:href="#mb164c511e1" x="0" y="360" style="fill: #dddddd"/>
    </g>
   </g>
   <g id="PolyCollection_3">
    <path d="M 128.274945 123 
L 128.274945 123 
L 135.455697 123 
L 135.622663 123 
L 136.253304 123 
L 136.269576 123 
L 136.525809 123 
L 136.923633 123 
L 158.782024 123 
L 158.784922 123 
L 186.000687 123 
L 187.277835 123 
L 202.570326 123 
L 202.846771 123 
L 226.211084 123 
L 226.883371 123 
L 227.152672 123 
L 227.526699 123 
L 227.694072 123 
L 228.097439 123 
L 228.122051 123 
L 228.129983 36 
L 228.368342 36 
L 231.571127 36 
L 231.7056 36 
L 250.289431 36 
L 250.314856 36 
L 260.844434 36 
L 261.253369 36 
L 341.844154 36 
L 341.844789 36 
L 401.123108 36 
L 401.685916 36 
L 402.035357 36 
L 402.30626 36 
L 433.349298 36 
L 433.374723 36 
L 447.424161 36 
L 448.370911 36 
L 494.138496 36 
L 495.277993 36 
L 510.566924 36 
L 510.578035 36 
L 510.82631 36 
L 511.09762 36 
L 524.902495 36 
L 524.904656 36 
L 557.021849 36 
L 557.152355 36 
L 569.322557 36 
L 570.528718 36 
L 570.712362 123 
L 571.049091 123 
L 571.05743 123 
L 571.294213 36 
L 615.318204 36 
L 615.679137 36 
L 615.766396 123 
L 616.041265 123 
L 616.433064 123 
L 616.43459 123 
L 623.415018 123 
L 623.543923 123 
L 672.661428 123 
L 673.739473 123 
L 677.127504 123 
L 677.454545 123 
L 677.454545 123 
L 677.454545 123 
L 677.127504 123 
L 673.739473 123 
L 672.661428 123 
L 623.543923 123 
L 623.415018 123 
L 616.43459 123 
L 616.433064 123 
L 616.041265 123 
L 615.766396 123 
L 615.679137 123 
L 615.318204 123 
L 571.294213 123 
L 571.05743 123 
L 571.049091 123 
L 570.712362 123 
L 570.528718 123 
L 569.322557 123 
L 557.152355 123 
L 557.021849 123 
L 524.904656 123 
L 524.902495 123 
L 511.09762 123 
L 510.82631 123 
L 510.578035 123 
L 510.566924 123 
L 495.277993 123 
L 494.138496 123 
L 448.370911 123 
L 447.424161 123 
L 433.374723 123 
L 433.349298 123 
L 402.30626 123 
L 402.035357 123 
L 401.685916 123 
L 401.123108 123 
L 341.844789 123 
L 341.844154 123 
L 261.253369 123 
L 260.844434 123 
L 250.314856 123 
L 250.289431 123 
L 231.7056 123 
L 231.571127 123 
L 228.368342 123 
L 228.129983 123 
L 228.122051 123 
L 228.097439 123 
L 227.694072 123 
L 227.526699 123 
L 227.152672 123 
L 226.883371 123 
L 226.211084 123 
L 202.846771 123 
L 202.570326 123 
L 187.277835 123 
L 186.000687 123 
L 158.784922 123 
L 158.782024 123 
L 136.923633 123 
L 136.525809 123 
L 136.269576 123 
L 136.253304 123 
L 135.622663 123 
L 135.455697 123 
L 128.274945 123 
z
" clip-path="url(#p2e1632267a)" style="fill: url(#h65a698bc15)"/>
   </g>
   <g id="matplotlib.axis_1">
    <g id="xtick_1">
     <g id="line2d_1">
      <path d="M 158.784922 123 
L 158.784922 36 
" clip-path="url(#p2e1632267a)" style="fill: none; stroke: #b0b0b0; stroke-linecap: square"/>
     </g>
     <g id="line2d_2">
      <defs>
       <path id="m163d18b028" d="M 0 0 
L 0 3.5 
" style="stroke: #000000"/>
      </defs>
      <g>
       <use xlink:href="#m163d18b028" x="158.784922" y="123" style="stroke: #000000"/>
      </g>
     </g>
    </g>
    <g id="xtick_2">
     <g id="line2d_3">
      <path d="M 250.314856 123 
L 250.314856 36 
" clip-path="url(#p2e1632267a)" style="fill: none; stroke: #b0b0b0; stroke-linecap: square"/>
     </g>
     <g id="line2d_4">
      <g>
       <use xlink:href="#m163d18b028" x="250.314856" y="123" style="stroke: #000000"/>
      </g>
     </g>
    </g>
    <g id="xtick_3">
     <g id="line2d_5">
      <path d="M 341.844789 123 
L 341.844789 36 
" clip-path="url(#p2e1632267a)" style="fill: none; stroke: #b0b0b0; stroke-linecap: square"/>
     </g>
     <g id="line2d_6">
      <g>
       <use xlink:href="#m163d18b028" x="341.844789" y="123" style="stroke: #000000"/>
      </g>
     </g>
    </g>
    <g id="xtick_4">
     <g id="line2d_7">
      <path d="M 433.374723 123 
L 433.374723 36 
" clip-path="url(#p2e1632267a)" style="fill: none; stroke: #b0b0b0; stroke-linecap: square"/>
     </g>
     <g id="line2d_8">
      <g>
       <use xlink:href="#m163d18b028" x="433.374723" y="123" style="stroke: #000000"/>
      </g>
     </g>
    </g>
    <g id="xtick_5">
     <g id="line2d_9">
      <path d="M 524.904656 123 
L 524.904656 36 
" clip-path="url(#p2e1632267a)" style="fill: none; stroke: #b0b0b0; stroke-linecap: square"/>
     </g>
     <g id="line2d_10">
      <g>
       <use xlink:href="#m163d18b028" x="524.904656" y="123" style="stroke: #000000"/>
      </g>
     </g>
    </g>
    <g id="xtick_6">
     <g id="line2d_11">
      <path d="M 616.43459 123 
L 616.43459 36 
" clip-path="url(#p2e1632267a)" style="fill: none; stroke: #b0b0b0; stroke-linecap: square"/>
     </g>
     <g id="line2d_12">
      <g>
       <use xlink:href="#m163d18b028" x="616.43459" y="123" style="stroke: #000000"/>
      </g>
     </g>
    </g>
    <g id="xtick_7">
     <g id="line2d_13">
      <defs>
       <path id="m42661a0dee" d="M 0 0 
L 0 2 
" style="stroke: #000000; stroke-width: 0.6"/>
      </defs>
      <g>
       <use xlink:href="#m42661a0dee" x="195.396896" y="123" style="stroke: #000000; stroke-width: 0.6"/>
      </g>
     </g>
    </g>
    <g id="xtick_8">
     <g id="line2d_14">
      <g>
       <use xlink:href="#m42661a0dee" x="305.232816" y="123" style="stroke: #000000; stroke-width: 0.6"/>
      </g>
     </g>
    </g>
    <g id="xtick_9">
     <g id="line2d_15">
      <g>
       <use xlink:href="#m42661a0dee" x="415.068736" y="123" style="stroke: #000000; stroke-width: 0.6"/>
      </g>
     </g>
    </g>
    <g id="xtick_10">
     <g id="line2d_16">
      <g>
       <use xlink:href="#m42661a0dee" x="634.740576" y="123" style="stroke: #000000; stroke-width: 0.6"/>
      </g>
     </g>
    </g>
   </g>
   <g id="matplotlib.axis_2">
    <g id="ytick_1">
     <g id="line2d_17">
      <path d="M 86.4 123 
L 705.6 123 
" clip-path="url(#p2e1632267a)" style="fill: none; stroke: #b0b0b0; stroke-linecap: square"/>
     </g>
     <g id="line2d_18">
      <defs>
       <path id="ma9a200f025" d="M 0 0 
L -3.5 0 
" style="stroke: #000000"/>
      </defs>
      <g>
       <use xlink:href="#ma9a200f025" x="86.4" y="123" style="stroke: #000000"/>
      </g>
     </g>
     <g id="text_1">
      <text style="font: 12px 'Source Code Pro'; text-anchor: end" x="79.4" y="127.272188" transform="rotate(-0, 79.4, 127.272188)">0.0</text>
     </g>
    </g>
    <g id="ytick_2">
     <g id="line2d_19">
      <path d="M 86.4 88.2 
L 705.6 88.2 
" clip-path="url(#p2e1632267a)" style="fill: none; stroke: #b0b0b0; stroke-linecap: square"/>
     </g>
     <g id="line2d_20">
      <g>
       <use xlink:href="#ma9a200f025" x="86.4" y="88.2" style="stroke: #000000"/>
      </g>
     </g>
     <g id="text_2">
      <text style="font: 12px 'Source Code Pro'; text-anchor: end" x="79.4" y="92.472187" transform="rotate(-0, 79.4, 92.472187)">0.2</text>
     </g>
    </g>
    <g id="ytick_3">
     <g id="line2d_21">
      <path d="M 86.4 53.4 
L 705.6 53.4 
" clip-path="url(#p2e1632267a)" style="fill: none; stroke: #b0b0b0; stroke-linecap: square"/>
     </g>
     <g id="line2d_22">
      <g>
       <use xlink:href="#ma9a200f025" x="86.4" y="53.4" style="stroke: #000000"/>
      </g>
     </g>
     <g id="text_3">
      <text style="font: 12px 'Source Code Pro'; text-anchor: end" x="79.4" y="57.672187" transform="rotate(-0, 79.4, 57.672187)">0.4</text>
     </g>
    </g>
   </g>
   <g id="line2d_23">
    <path d="M 114.545455 117.78 
L 118.359202 117.78 
L 118.613452 119.52 
L 128.783444 119.52 
L 129.037694 121.26 
L 129.291944 121.26 
L 129.546194 119.52 
L 131.580192 119.52 
L 131.834442 121.26 
L 133.868441 121.26 
L 134.12269 123 
L 135.13969 123 
L 135.393939 121.26 
L 136.156689 121.26 
L 136.360089 122.13 
L 136.410939 123 
L 140.224686 123 
L 140.478936 121.26 
L 141.241685 121.26 
L 141.495935 123 
L 145.055432 123 
L 145.309682 121.26 
L 145.563932 121.26 
L 145.818182 123 
L 147.089431 123 
L 147.343681 121.26 
L 147.597931 121.26 
L 147.85218 123 
L 149.886179 123 
L 150.140429 121.26 
L 150.394678 121.26 
L 150.648928 123 
L 281.841833 123 
L 282.096083 121.26 
L 284.638581 121.26 
L 284.689431 120.39 
L 284.892831 119.52 
L 289.469327 119.52 
L 289.723577 117.78 
L 293.283075 117.78 
L 293.537324 119.52 
L 308.792313 119.52 
L 309.046563 121.26 
L 330.912047 121.26 
L 331.166297 123 
L 375.914265 123 
L 376.168514 121.26 
L 408.712491 121.26 
L 408.966741 119.52 
L 419.645233 119.52 
L 419.899483 117.78 
L 425.747228 117.78 
L 426.001478 116.04 
L 427.781227 116.04 
L 428.035477 114.3 
L 429.052476 114.3 
L 429.306726 112.56 
L 430.832225 112.56 
L 431.086475 114.3 
L 431.594974 114.3 
L 431.849224 116.04 
L 432.205174 114.3 
L 432.357724 114.3 
L 432.611973 112.56 
L 432.866223 112.56 
L 433.120473 110.82 
L 433.628973 110.82 
L 433.934072 109.08 
L 434.391722 109.08 
L 434.645972 110.82 
L 435.408721 110.82 
L 435.662971 112.56 
L 436.171471 112.56 
L 436.451146 114.3 
L 438.713969 114.3 
L 438.968219 112.56 
L 439.222469 112.56 
L 439.476718 110.82 
L 440.747967 110.82 
L 441.027642 112.56 
L 444.815965 112.56 
L 445.070214 110.82 
L 448.883962 110.82 
L 449.163636 112.56 
L 449.900961 112.56 
L 450.155211 110.82 
L 452.443459 110.82 
L 452.697709 112.56 
L 452.951959 112.56 
L 453.206208 110.82 
L 453.714708 110.82 
L 453.968958 112.56 
L 457.019956 112.56 
L 457.274205 110.82 
L 458.036955 110.82 
L 458.291205 112.56 
L 458.799704 112.56 
L 459.053954 110.82 
L 462.867701 110.82 
L 463.198226 112.56 
L 463.630451 112.56 
L 463.884701 110.82 
L 464.13895 110.82 
L 464.3932 112.56 
L 464.64745 112.56 
L 464.9017 110.82 
L 466.935698 110.82 
L 467.189948 112.56 
L 469.223947 112.56 
L 469.478197 110.82 
L 469.986696 110.82 
L 470.240946 112.56 
L 474.563193 112.56 
L 474.817443 110.82 
L 476.597191 110.82 
L 476.851441 112.56 
L 480.665188 112.56 
L 480.919438 110.82 
L 483.716186 110.82 
L 483.970436 112.56 
L 484.224686 112.56 
L 484.478936 110.82 
L 484.733186 110.82 
L 484.987435 112.56 
L 485.495935 112.56 
L 485.750185 110.82 
L 487.529933 110.82 
L 487.784183 112.56 
L 508.124169 112.56 
L 509.141168 119.52 
L 510.920916 119.52 
L 511.200591 121.26 
L 512.700665 121.26 
L 512.954915 123 
L 625.333333 123 
L 625.613008 121.26 
L 632.706578 121.26 
L 632.960828 119.52 
L 634.994826 119.52 
L 635.249076 117.78 
L 637.537324 117.78 
L 637.791574 119.52 
L 644.656319 119.52 
L 644.910569 121.26 
L 645.927568 121.26 
L 646.181818 119.52 
L 658.385809 119.52 
L 658.640059 121.26 
L 659.148559 121.26 
L 659.402809 119.52 
L 676.488396 119.52 
L 676.488396 119.52 
" clip-path="url(#p2e1632267a)" style="fill: none; stroke-dasharray: 11.1,4.8; stroke-dashoffset: 0; stroke: #c3312f; stroke-width: 3"/>
   </g>
   <g id="line2d_24">
    <path d="M 114.545455 123.2088 
L 272.510865 123.14268 
L 275.587288 122.89908 
L 277.595861 122.60676 
L 278.129786 122.50932 
L 278.384035 122.4606 
L 280.265484 122.26572 
L 281.587583 122.07084 
L 285.65558 121.19388 
L 286.16408 121.04772 
L 286.926829 120.80412 
L 286.952254 120.7554 
L 296.257797 120.532631 
L 317.436807 120.983476 
L 318.453806 121.032435 
L 333.963045 121.353525 
L 344.921212 121.3992 
L 344.972062 121.600267 
L 346.167036 122.806667 
L 346.421286 123.007733 
L 346.446711 123.2088 
L 346.472136 123.111565 
L 350.107908 121.47605 
L 351.760532 121.362917 
L 389.389505 121.173614 
L 405.534368 120.810364 
L 414.814486 120.629506 
L 417.382409 120.8424 
L 420.153732 121.3644 
L 428.289727 122.368629 
L 430.069475 122.447155 
L 436.67997 122.569971 
L 438.205469 123.20416 
L 442.527716 122.925068 
L 463.884701 123.169713 
L 505.098596 123.1218 
L 512.446415 122.152145 
L 527.981079 122.1648 
L 529.532003 123.2262 
L 531.032077 123.1392 
L 532.557576 122.5998 
L 533.066075 122.7912 
L 540.59187 123.0957 
L 582.03459 123.0928 
L 586.458537 122.867325 
L 598.154028 122.913 
L 602.0949 122.76916 
L 613.078492 122.53542 
L 619.511013 122.3736 
L 619.765262 122.652 
L 621.112786 123.116 
L 622.56201 122.9304 
L 624.062084 121.956 
L 624.087509 121.8168 
L 626.350333 121.434 
L 629.147081 121.53608 
L 640.842572 122.59893 
L 647.707317 122.8898 
L 661.945307 123.087 
L 676.488396 123.087 
L 676.488396 123.087 
" clip-path="url(#p2e1632267a)" style="fill: none; stroke: #c3312f; stroke-width: 3; stroke-linecap: square"/>
   </g>
   <g id="patch_3">
    <path d="M 86.4 123 
L 86.4 36 
" style="fill: none; stroke: #000000; stroke-linejoin: miter; stroke-linecap: square"/>
   </g>
   <g id="patch_4">
    <path d="M 705.6 123 
L 705.6 36 
" style="fill: none; stroke: #000000; stroke-linejoin: miter; stroke-linecap: square"/>
   </g>
   <g id="patch_5">
    <path d="M 86.4 123 
L 705.6 123 
" style="fill: none; stroke: #000000; stroke-linejoin: miter; stroke-linecap: square"/>
   </g>
   <g id="patch_6">
    <path d="M 86.4 36 
L 705.6 36 
" style="fill: none; stroke: #000000; stroke-linejoin: miter; stroke-linecap: square"/>
   </g>
   <g id="patch_7">
    <path d="M 448.629712 28.685717 
Q 448.629712 68.754003 448.629712 107.704254 
" style="fill: none; stroke: #000000; stroke-linecap: round"/>
    <path d="M 450.629712 103.704254 
L 448.629712 107.704254 
L 446.629712 103.704254 
" style="fill: none; stroke: #000000; stroke-linecap: round"/>
   </g>
   <g id="text_4">
    <g id="patch_8">
     <path d="M 445.629712 26.185156 
L 451.629712 26.185156 
Q 454.629712 26.185156 454.629712 23.185156 
L 454.629712 14.014844 
Q 454.629712 11.014844 451.629712 11.014844 
L 445.629712 11.014844 
Q 442.629712 11.014844 442.629712 14.014844 
L 442.629712 23.185156 
Q 442.629712 26.185156 445.629712 26.185156 
z
" style="fill: #cccccc; stroke: #000000; stroke-linejoin: miter"/>
    </g>
    <text style="font: 10px 'Source Code Pro'; text-anchor: middle" x="448.629712" y="21.135156" transform="rotate(-0, 448.629712, 21.135156)">1</text>
   </g>
  </g>
  <g id="axes_2">
   <g id="patch_9">
    <path d="M 86.4 297 
L 705.6 297 
L 705.6 123 
L 86.4 123 
z
" style="fill: #ffffff"/>
   </g>
   <g id="PolyCollection_4">
    <path d="M 128.274945 297 
L 128.274945 297 
L 135.455697 297 
L 135.622663 297 
L 136.253304 297 
L 136.269576 297 
L 136.525809 297 
L 136.923633 123 
L 158.782024 123 
L 158.784922 123 
L 186.000687 123 
L 187.277835 123 
L 202.570326 123 
L 202.846771 123 
L 226.211084 123 
L 226.883371 123 
L 227.152672 123 
L 227.526699 123 
L 227.694072 297 
L 228.097439 297 
L 228.122051 297 
L 228.129983 297 
L 228.368342 297 
L 231.571127 297 
L 231.7056 297 
L 250.289431 297 
L 250.314856 297 
L 260.844434 297 
L 261.253369 297 
L 341.844154 297 
L 341.844789 297 
L 401.123108 297 
L 401.685916 297 
L 402.035357 297 
L 402.30626 297 
L 433.349298 297 
L 433.374723 297 
L 447.424161 297 
L 448.370911 297 
L 494.138496 297 
L 495.277993 297 
L 510.566924 297 
L 510.578035 297 
L 510.82631 297 
L 511.09762 297 
L 524.902495 297 
L 524.904656 297 
L 557.021849 297 
L 557.152355 297 
L 569.322557 297 
L 570.528718 297 
L 570.712362 297 
L 571.049091 297 
L 571.05743 297 
L 571.294213 297 
L 615.318204 297 
L 615.679137 297 
L 615.766396 297 
L 616.041265 297 
L 616.433064 297 
L 616.43459 297 
L 623.415018 297 
L 623.543923 297 
L 672.661428 297 
L 673.739473 297 
L 677.127504 297 
L 677.454545 297 
L 677.454545 297 
L 677.454545 297 
L 677.127504 297 
L 673.739473 297 
L 672.661428 297 
L 623.543923 297 
L 623.415018 297 
L 616.43459 297 
L 616.433064 297 
L 616.041265 297 
L 615.766396 297 
L 615.679137 297 
L 615.318204 297 
L 571.294213 297 
L 571.05743 297 
L 571.049091 297 
L 570.712362 297 
L 570.528718 297 
L 569.322557 297 
L 557.152355 297 
L 557.021849 297 
L 524.904656 297 
L 524.902495 297 
L 511.09762 297 
L 510.82631 297 
L 510.578035 297 
L 510.566924 297 
L 495.277993 297 
L 494.138496 297 
L 448.370911 297 
L 447.424161 297 
L 433.374723 297 
L 433.349298 297 
L 402.30626 297 
L 402.035357 297 
L 401.685916 297 
L 401.123108 297 
L 341.844789 297 
L 341.844154 297 
L 261.253369 297 
L 260.844434 297 
L 250.314856 297 
L 250.289431 297 
L 231.7056 297 
L 231.571127 297 
L 228.368342 297 
L 228.129983 297 
L 228.122051 297 
L 228.097439 297 
L 227.694072 297 
L 227.526699 297 
L 227.152672 297 
L 226.883371 297 
L 226.211084 297 
L 202.846771 297 
L 202.570326 297 
L 187.277835 297 
L 186.000687 297 
L 158.784922 297 
L 158.782024 297 
L 136.923633 297 
L 136.525809 297 
L 136.269576 297 
L 136.253304 297 
L 135.622663 297 
L 135.455697 297 
L 128.274945 297 
z
" clip-path="url(#p6b58ef3b58)" style="fill: url(#hd7a8bc91e5)"/>
   </g>
   <g id="PolyCollection_5">
    <defs>
     <path id="ma6a2b5eb91" d="M 128.274945 -63 
L 128.274945 -63 
L 135.455697 -63 
L 135.622663 -63 
L 136.253304 -63 
L 136.269576 -63 
L 136.525809 -63 
L 136.923633 -63 
L 158.782024 -63 
L 158.784922 -63 
L 186.000687 -63 
L 187.277835 -63 
L 202.570326 -63 
L 202.846771 -63 
L 226.211084 -63 
L 226.883371 -63 
L 227.152672 -63 
L 227.526699 -63 
L 227.694072 -63 
L 228.097439 -63 
L 228.122051 -63 
L 228.129983 -63 
L 228.368342 -63 
L 231.571127 -63 
L 231.7056 -63 
L 250.289431 -63 
L 250.314856 -63 
L 260.844434 -63 
L 261.253369 -63 
L 341.844154 -63 
L 341.844789 -63 
L 401.123108 -63 
L 401.685916 -63 
L 402.035357 -63 
L 402.30626 -63 
L 433.349298 -63 
L 433.374723 -63 
L 447.424161 -63 
L 448.370911 -63 
L 494.138496 -63 
L 495.277993 -63 
L 510.566924 -63 
L 510.578035 -63 
L 510.82631 -63 
L 511.09762 -63 
L 524.902495 -63 
L 524.904656 -63 
L 557.021849 -63 
L 557.152355 -63 
L 569.322557 -63 
L 570.528718 -63 
L 570.712362 -63 
L 571.049091 -63 
L 571.05743 -63 
L 571.294213 -63 
L 615.318204 -63 
L 615.679137 -63 
L 615.766396 -63 
L 616.041265 -237 
L 616.433064 -237 
L 616.43459 -237 
L 623.415018 -237 
L 623.543923 -237 
L 672.661428 -237 
L 673.739473 -63 
L 677.127504 -63 
L 677.454545 -63 
L 677.454545 -63 
L 677.454545 -63 
L 677.127504 -63 
L 673.739473 -63 
L 672.661428 -63 
L 623.543923 -63 
L 623.415018 -63 
L 616.43459 -63 
L 616.433064 -63 
L 616.041265 -63 
L 615.766396 -63 
L 615.679137 -63 
L 615.318204 -63 
L 571.294213 -63 
L 571.05743 -63 
L 571.049091 -63 
L 570.712362 -63 
L 570.528718 -63 
L 569.322557 -63 
L 557.152355 -63 
L 557.021849 -63 
L 524.904656 -63 
L 524.902495 -63 
L 511.09762 -63 
L 510.82631 -63 
L 510.578035 -63 
L 510.566924 -63 
L 495.277993 -63 
L 494.138496 -63 
L 448.370911 -63 
L 447.424161 -63 
L 433.374723 -63 
L 433.349298 -63 
L 402.30626 -63 
L 402.035357 -63 
L 401.685916 -63 
L 401.123108 -63 
L 341.844789 -63 
L 341.844154 -63 
L 261.253369 -63 
L 260.844434 -63 
L 250.314856 -63 
L 250.289431 -63 
L 231.7056 -63 
L 231.571127 -63 
L 228.368342 -63 
L 228.129983 -63 
L 228.122051 -63 
L 228.097439 -63 
L 227.694072 -63 
L 227.526699 -63 
L 227.152672 -63 
L 226.883371 -63 
L 226.211084 -63 
L 202.846771 -63 
L 202.570326 -63 
L 187.277835 -63 
L 186.000687 -63 
L 158.784922 -63 
L 158.782024 -63 
L 136.923633 -63 
L 136.525809 -63 
L 136.269576 -63 
L 136.253304 -63 
L 135.622663 -63 
L 135.455697 -63 
L 128.274945 -63 
z
"/>
    </defs>
    <g clip-path="url(#p6b58ef3b58)">
     <use xlink:href="#ma6a2b5eb91" x="0" y="360" style="fill: #dddddd"/>
    </g>
   </g>
   <g id="PolyCollection_6">
    <path d="M 128.274945 297 
L 128.274945 297 
L 135.455697 297 
L 135.622663 297 
L 136.253304 297 
L 136.269576 297 
L 136.525809 297 
L 136.923633 297 
L 158.782024 297 
L 158.784922 297 
L 186.000687 297 
L 187.277835 297 
L 202.570326 297 
L 202.846771 297 
L 226.211084 297 
L 226.883371 297 
L 227.152672 297 
L 227.526699 297 
L 227.694072 297 
L 228.097439 297 
L 228.122051 297 
L 228.129983 123 
L 228.368342 123 
L 231.571127 123 
L 231.7056 123 
L 250.289431 123 
L 250.314856 123 
L 260.844434 123 
L 261.253369 123 
L 341.844154 123 
L 341.844789 123 
L 401.123108 123 
L 401.685916 123 
L 402.035357 123 
L 402.30626 123 
L 433.349298 123 
L 433.374723 123 
L 447.424161 123 
L 448.370911 123 
L 494.138496 123 
L 495.277993 123 
L 510.566924 123 
L 510.578035 123 
L 510.82631 123 
L 511.09762 123 
L 524.902495 123 
L 524.904656 123 
L 557.021849 123 
L 557.152355 123 
L 569.322557 123 
L 570.528718 123 
L 570.712362 297 
L 571.049091 297 
L 571.05743 297 
L 571.294213 123 
L 615.318204 123 
L 615.679137 123 
L 615.766396 297 
L 616.041265 297 
L 616.433064 297 
L 616.43459 297 
L 623.415018 297 
L 623.543923 297 
L 672.661428 297 
L 673.739473 297 
L 677.127504 297 
L 677.454545 297 
L 677.454545 297 
L 677.454545 297 
L 677.127504 297 
L 673.739473 297 
L 672.661428 297 
L 623.543923 297 
L 623.415018 297 
L 616.43459 297 
L 616.433064 297 
L 616.041265 297 
L 615.766396 297 
L 615.679137 297 
L 615.318204 297 
L 571.294213 297 
L 571.05743 297 
L 571.049091 297 
L 570.712362 297 
L 570.528718 297 
L 569.322557 297 
L 557.152355 297 
L 557.021849 297 
L 524.904656 297 
L 524.902495 297 
L 511.09762 297 
L 510.82631 297 
L 510.578035 297 
L 510.566924 297 
L 495.277993 297 
L 494.138496 297 
L 448.370911 297 
L 447.424161 297 
L 433.374723 297 
L 433.349298 297 
L 402.30626 297 
L 402.035357 297 
L 401.685916 297 
L 401.123108 297 
L 341.844789 297 
L 341.844154 297 
L 261.253369 297 
L 260.844434 297 
L 250.314856 297 
L 250.289431 297 
L 231.7056 297 
L 231.571127 297 
L 228.368342 297 
L 228.129983 297 
L 228.122051 297 
L 228.097439 297 
L 227.694072 297 
L 227.526699 297 
L 227.152672 297 
L 226.883371 297 
L 226.211084 297 
L 202.846771 297 
L 202.570326 297 
L 187.277835 297 
L 186.000687 297 
L 158.784922 297 
L 158.782024 297 
L 136.923633 297 
L 136.525809 297 
L 136.269576 297 
L 136.253304 297 
L 135.622663 297 
L 135.455697 297 
L 128.274945 297 
z
" clip-path="url(#p6b58ef3b58)" style="fill: url(#h65a698bc15)"/>
   </g>
   <g id="matplotlib.axis_3">
    <g id="xtick_11">
     <g id="line2d_25">
      <path d="M 158.784922 297 
L 158.784922 123 
" clip-path="url(#p6b58ef3b58)" style="fill: none; stroke: #b0b0b0; stroke-linecap: square"/>
     </g>
     <g id="line2d_26">
      <g>
       <use xlink:href="#m163d18b028" x="158.784922" y="297" style="stroke: #000000"/>
      </g>
     </g>
     <g id="line2d_27">
      <defs>
       <path id="m05ae6cd803" d="M 0 0 
L 0 -3.5 
" style="stroke: #000000"/>
      </defs>
      <g>
       <use xlink:href="#m05ae6cd803" x="158.784922" y="123" style="stroke: #000000"/>
      </g>
     </g>
     <g id="text_5">
      <text style="font: 12px 'Source Code Pro'; text-anchor: middle" x="158.784922" y="312.544375" transform="rotate(-0, 158.784922, 312.544375)">08:00</text>
     </g>
    </g>
    <g id="xtick_12">
     <g id="line2d_28">
      <path d="M 250.314856 297 
L 250.314856 123 
" clip-path="url(#p6b58ef3b58)" style="fill: none; stroke: #b0b0b0; stroke-linecap: square"/>
     </g>
     <g id="line2d_29">
      <g>
       <use xlink:href="#m163d18b028" x="250.314856" y="297" style="stroke: #000000"/>
      </g>
     </g>
     <g id="line2d_30">
      <g>
       <use xlink:href="#m05ae6cd803" x="250.314856" y="123" style="stroke: #000000"/>
      </g>
     </g>
     <g id="text_6">
      <text style="font: 12px 'Source Code Pro'; text-anchor: middle" x="250.314856" y="312.544375" transform="rotate(-0, 250.314856, 312.544375)">09:00</text>
     </g>
    </g>
    <g id="xtick_13">
     <g id="line2d_31">
      <path d="M 341.844789 297 
L 341.844789 123 
" clip-path="url(#p6b58ef3b58)" style="fill: none; stroke: #b0b0b0; stroke-linecap: square"/>
     </g>
     <g id="line2d_32">
      <g>
       <use xlink:href="#m163d18b028" x="341.844789" y="297" style="stroke: #000000"/>
      </g>
     </g>
     <g id="line2d_33">
      <g>
       <use xlink:href="#m05ae6cd803" x="341.844789" y="123" style="stroke: #000000"/>
      </g>
     </g>
     <g id="text_7">
      <text style="font: 12px 'Source Code Pro'; text-anchor: middle" x="341.844789" y="312.544375" transform="rotate(-0, 341.844789, 312.544375)">10:00</text>
     </g>
    </g>
    <g id="xtick_14">
     <g id="line2d_34">
      <path d="M 433.374723 297 
L 433.374723 123 
" clip-path="url(#p6b58ef3b58)" style="fill: none; stroke: #b0b0b0; stroke-linecap: square"/>
     </g>
     <g id="line2d_35">
      <g>
       <use xlink:href="#m163d18b028" x="433.374723" y="297" style="stroke: #000000"/>
      </g>
     </g>
     <g id="line2d_36">
      <g>
       <use xlink:href="#m05ae6cd803" x="433.374723" y="123" style="stroke: #000000"/>
      </g>
     </g>
     <g id="text_8">
      <text style="font: 12px 'Source Code Pro'; text-anchor: middle" x="433.374723" y="312.544375" transform="rotate(-0, 433.374723, 312.544375)">11:00</text>
     </g>
    </g>
    <g id="xtick_15">
     <g id="line2d_37">
      <path d="M 524.904656 297 
L 524.904656 123 
" clip-path="url(#p6b58ef3b58)" style="fill: none; stroke: #b0b0b0; stroke-linecap: square"/>
     </g>
     <g id="line2d_38">
      <g>
       <use xlink:href="#m163d18b028" x="524.904656" y="297" style="stroke: #000000"/>
      </g>
     </g>
     <g id="line2d_39">
      <g>
       <use xlink:href="#m05ae6cd803" x="524.904656" y="123" style="stroke: #000000"/>
      </g>
     </g>
     <g id="text_9">
      <text style="font: 12px 'Source Code Pro'; text-anchor: middle" x="524.904656" y="312.544375" transform="rotate(-0, 524.904656, 312.544375)">12:00</text>
     </g>
    </g>
    <g id="xtick_16">
     <g id="line2d_40">
      <path d="M 616.43459 297 
L 616.43459 123 
" clip-path="url(#p6b58ef3b58)" style="fill: none; stroke: #b0b0b0; stroke-linecap: square"/>
     </g>
     <g id="line2d_41">
      <g>
       <use xlink:href="#m163d18b028" x="616.43459" y="297" style="stroke: #000000"/>
      </g>
     </g>
     <g id="line2d_42">
      <g>
       <use xlink:href="#m05ae6cd803" x="616.43459" y="123" style="stroke: #000000"/>
      </g>
     </g>
     <g id="text_10">
      <text style="font: 12px 'Source Code Pro'; text-anchor: middle" x="616.43459" y="312.544375" transform="rotate(-0, 616.43459, 312.544375)">13:00</text>
     </g>
    </g>
    <g id="xtick_17">
     <g id="line2d_43">
      <g>
       <use xlink:href="#m42661a0dee" x="195.396896" y="297" style="stroke: #000000; stroke-width: 0.6"/>
      </g>
     </g>
    </g>
    <g id="xtick_18">
     <g id="line2d_44">
      <g>
       <use xlink:href="#m42661a0dee" x="305.232816" y="297" style="stroke: #000000; stroke-width: 0.6"/>
      </g>
     </g>
    </g>
    <g id="xtick_19">
     <g id="line2d_45">
      <g>
       <use xlink:href="#m42661a0dee" x="415.068736" y="297" style="stroke: #000000; stroke-width: 0.6"/>
      </g>
     </g>
    </g>
    <g id="xtick_20">
     <g id="line2d_46">
      <g>
       <use xlink:href="#m42661a0dee" x="634.740576" y="297" style="stroke: #000000; stroke-width: 0.6"/>
      </g>
     </g>
    </g>
   </g>
   <g id="matplotlib.axis_4">
    <g id="ytick_4">
     <g id="line2d_47">
      <path d="M 86.4 297 
L 705.6 297 
" clip-path="url(#p6b58ef3b58)" style="fill: none; stroke: #b0b0b0; stroke-linecap: square"/>
     </g>
     <g id="line2d_48">
      <g>
       <use xlink:href="#ma9a200f025" x="86.4" y="297" style="stroke: #000000"/>
      </g>
     </g>
     <g id="text_11">
      <text style="font: 12px 'Source Code Pro'; text-anchor: end" x="79.4" y="301.272188" transform="rotate(-0, 79.4, 301.272188)">0</text>
     </g>
    </g>
    <g id="ytick_5">
     <g id="line2d_49">
      <path d="M 86.4 260.75 
L 705.6 260.75 
" clip-path="url(#p6b58ef3b58)" style="fill: none; stroke: #b0b0b0; stroke-linecap: square"/>
     </g>
     <g id="line2d_50">
      <g>
       <use xlink:href="#ma9a200f025" x="86.4" y="260.75" style="stroke: #000000"/>
      </g>
     </g>
     <g id="text_12">
      <text style="font: 12px 'Source Code Pro'; text-anchor: end" x="79.4" y="265.022188" transform="rotate(-0, 79.4, 265.022188)">5</text>
     </g>
    </g>
    <g id="ytick_6">
     <g id="line2d_51">
      <path d="M 86.4 224.5 
L 705.6 224.5 
" clip-path="url(#p6b58ef3b58)" style="fill: none; stroke: #b0b0b0; stroke-linecap: square"/>
     </g>
     <g id="line2d_52">
      <g>
       <use xlink:href="#ma9a200f025" x="86.4" y="224.5" style="stroke: #000000"/>
      </g>
     </g>
     <g id="text_13">
      <text style="font: 12px 'Source Code Pro'; text-anchor: end" x="79.4" y="228.772188" transform="rotate(-0, 79.4, 228.772188)">10</text>
     </g>
    </g>
    <g id="ytick_7">
     <g id="line2d_53">
      <path d="M 86.4 188.25 
L 705.6 188.25 
" clip-path="url(#p6b58ef3b58)" style="fill: none; stroke: #b0b0b0; stroke-linecap: square"/>
     </g>
     <g id="line2d_54">
      <g>
       <use xlink:href="#ma9a200f025" x="86.4" y="188.25" style="stroke: #000000"/>
      </g>
     </g>
     <g id="text_14">
      <text style="font: 12px 'Source Code Pro'; text-anchor: end" x="79.4" y="192.522188" transform="rotate(-0, 79.4, 192.522188)">15</text>
     </g>
    </g>
    <g id="ytick_8">
     <g id="line2d_55">
      <path d="M 86.4 152 
L 705.6 152 
" clip-path="url(#p6b58ef3b58)" style="fill: none; stroke: #b0b0b0; stroke-linecap: square"/>
     </g>
     <g id="line2d_56">
      <g>
       <use xlink:href="#ma9a200f025" x="86.4" y="152" style="stroke: #000000"/>
      </g>
     </g>
     <g id="text_15">
      <text style="font: 12px 'Source Code Pro'; text-anchor: end" x="79.4" y="156.272188" transform="rotate(-0, 79.4, 156.272188)">20</text>
     </g>
    </g>
    <g id="text_16">
     <!-- conc. (mg $L^{-1}$) -->
     <g transform="translate(51.04 219.96)rotate(-90)">
      <text>
       <tspan style="font: 12px 'Source Code Pro'" x="0 7.199997 14.399994 21.599991 28.799988 35.999985 43.199982 50.399979 57.599976 64.799973 71.999969 89.673361" y="-0.5609375000000014">conc. (mg L)</tspan>
       <tspan style="font: 8.4px 'Source Code Pro'" x="79.301959 84.341956" y="-4.640625000000001">−1</tspan>
      </text>
     </g>
    </g>
   </g>
   <g id="line2d_57">
    <path d="M 114.545455 295.929037 
L 212.762158 295.935055 
L 219.474353 295.761105 
L 220.415078 295.463551 
L 228.220547 295.339946 
L 249.145307 295.508169 
L 251.86578 295.611491 
L 262.035772 295.672757 
L 262.569697 295.539582 
L 263.383296 294.413113 
L 263.790096 294.177394 
L 266.078344 293.37906 
L 266.332594 293.030147 
L 267.425868 292.697748 
L 268.086918 292.825827 
L 270.502291 292.464864 
L 271.697265 291.74222 
L 272.510865 291.257583 
L 273.578714 290.772946 
L 273.705839 290.477418 
L 274.366888 290.18189 
L 276.121212 288.329762 
L 276.248337 288.075366 
L 276.655137 287.512969 
L 277.061936 287.049846 
L 277.722986 286.396629 
L 278.129786 286.007289 
L 278.384035 285.588797 
L 279.604435 284.306828 
L 280.138359 284.154946 
L 281.079084 283.146669 
L 284.130081 281.404086 
L 284.689431 281.031157 
L 285.90983 280.125395 
L 286.443755 279.931869 
L 287.435329 279.062229 
L 288.452328 278.606526 
L 289.215078 278.310444 
L 290.232077 277.990792 
L 290.994826 277.76265 
L 294.808574 277.209549 
L 295.825573 276.904083 
L 297.605322 276.61871 
L 298.622321 276.709782 
L 298.876571 276.695038 
L 300.402069 276.820386 
L 301.419069 276.965385 
L 302.436068 276.921631 
L 303.961567 276.592114 
L 306.249815 276.584958 
L 307.266814 276.48379 
L 308.283814 276.461465 
L 308.716038 276.193191 
L 308.792313 276.077522 
L 309.300813 275.949396 
L 310.317812 276.304079 
L 310.343237 276.375016 
L 312.606061 276.992798 
L 313.87731 277.030334 
L 314.894309 276.663298 
L 316.165558 276.35903 
L 316.674058 276.223595 
L 317.182557 276.072297 
L 317.691057 276.13439 
L 318.708056 276.04562 
L 319.216556 276.170636 
L 319.725055 276.37119 
L 320.996305 276.137881 
L 323.894752 276.194687 
L 325.547376 276.049435 
L 325.572801 276.107118 
L 326.615225 276.257453 
L 327.6068 276.125406 
L 328.369549 276.036286 
L 330.403548 276.277547 
L 330.657797 276.274033 
L 331.166297 276.246951 
L 332.437546 276.402798 
L 332.946046 276.489263 
L 334.980044 276.246602 
L 335.488544 276.377611 
L 337.014043 276.875387 
L 339.175166 276.788672 
L 339.810791 276.603533 
L 341.33629 276.48409 
L 343.116038 276.119076 
L 344.133038 275.979173 
L 344.183888 275.915804 
L 344.972062 275.821829 
L 345.378862 275.586103 
L 345.404287 275.625305 
L 346.472136 275.860515 
L 347.946785 276.575556 
L 348.455285 276.857259 
L 348.709534 277.079557 
L 349.497709 277.524151 
L 349.955358 277.84708 
L 350.107908 278.05886 
L 350.489283 278.346322 
L 350.921508 278.847145 
L 351.252033 279.248864 
L 352.116482 279.827578 
L 352.523282 280.068647 
L 353.286031 280.200376 
L 353.540281 280.043093 
L 354.30303 279.595541 
L 354.81153 279.280689 
L 355.574279 279.13017 
L 356.845528 278.701645 
L 357.862528 278.210899 
L 359.133777 278.033688 
L 359.896526 278.034083 
L 361.015225 277.850067 
L 361.930525 277.214525 
L 362.947524 277.220558 
L 364.218773 276.958719 
L 365.337472 276.583435 
L 366.557871 276.811019 
L 368.79527 276.575035 
L 369.558019 276.721896 
L 369.812269 276.889402 
L 371.083518 277.377637 
L 371.337768 277.530861 
L 372.100517 277.760697 
L 373.371766 278.71854 
L 373.981966 278.935697 
L 375.660015 280.315841 
L 376.677014 280.499691 
L 377.948263 280.405453 
L 379.219512 279.977014 
L 379.982262 279.594794 
L 380.414486 279.384261 
L 380.490761 279.262684 
L 382.01626 278.493353 
L 382.041685 278.35184 
L 382.27051 278.05633 
L 383.796009 277.712888 
L 384.304508 277.711958 
L 386.847007 277.152636 
L 387.457206 277.104884 
L 388.118256 276.627718 
L 388.881005 276.600048 
L 389.186105 276.708605 
L 390.660754 277.768735 
L 390.813304 278.230569 
L 390.915004 278.450945 
L 392.186253 279.669477 
L 392.440503 280.082897 
L 393.966001 281.204993 
L 395.237251 281.483149 
L 396.25425 281.343876 
L 396.6102 281.197001 
L 397.525499 280.346102 
L 398.288248 280.101866 
L 399.305248 279.728917 
L 400.398522 279.433417 
L 401.593496 278.947529 
L 402.864745 278.750482 
L 403.881744 278.982282 
L 404.034294 279.388437 
L 404.135994 279.56592 
L 404.390244 279.743402 
L 404.644494 280.611208 
L 405.152993 281.209478 
L 405.661493 282.407012 
L 405.915743 282.868173 
L 406.169993 283.212994 
L 406.195418 283.423338 
L 406.424242 283.639174 
L 406.475092 283.777878 
L 407.695492 284.926186 
L 408.356541 285.467258 
L 408.712491 286.12447 
L 409.22099 286.696996 
L 409.47524 286.975248 
L 411.509239 289.604989 
L 412.780488 290.387608 
L 413.212712 290.599229 
L 413.288987 290.74551 
L 413.594087 291.038071 
L 414.560237 291.623195 
L 414.967036 291.915756 
L 415.322986 292.347043 
L 416.187435 292.874286 
L 416.848485 293.572289 
L 417.382409 293.991091 
L 418.373984 294.550805 
L 421.196157 295.396767 
L 422.95048 295.470761 
L 424.475979 295.372 
L 425.238729 295.380118 
L 429.560976 295.608308 
L 444.053215 295.458337 
L 465.4102 295.66458 
L 472.274945 295.583502 
L 475.580192 295.431762 
L 476.597191 295.416812 
L 481.682188 295.507346 
L 495.157428 295.826169 
L 496.428677 295.732765 
L 496.479527 295.708108 
L 496.937177 294.73446 
L 498.208426 294.241038 
L 499.225425 294.026147 
L 500.750924 293.656811 
L 501.767923 293.622099 
L 502.912047 293.674998 
L 503.293422 293.489148 
L 503.801922 293.328887 
L 505.073171 293.557088 
L 505.098596 293.620009 
L 506.852919 293.994612 
L 512.141316 294.078823 
L 512.192166 294.214723 
L 513.971914 295.166026 
L 516.260163 295.495719 
L 516.565262 295.689512 
L 519.36201 295.918612 
L 540.59187 295.904194 
L 568.330525 295.817409 
L 572.474797 295.542054 
L 572.754472 295.332217 
L 572.881596 295.081759 
L 573.415521 294.63692 
L 573.822321 294.529998 
L 576.517369 294.40305 
L 576.797044 294.223757 
L 577.737768 293.938746 
L 579.848041 293.165333 
L 580.432816 293.04179 
L 582.03459 292.211643 
L 582.822764 292.289117 
L 583.916038 292.103575 
L 584.729638 292.252483 
L 586.255137 292.226404 
L 586.738211 292.017952 
L 587.806061 291.739973 
L 588.36541 291.848694 
L 589.153585 291.76998 
L 589.433259 291.621696 
L 591.060458 291.773939 
L 592.662232 291.589499 
L 593.348707 291.383635 
L 594.009756 290.872155 
L 594.823356 290.537292 
L 596.196305 290.417131 
L 596.450554 290.246067 
L 598.154028 290.395493 
L 598.611678 290.705619 
L 600.086327 290.918392 
L 600.620251 290.970465 
L 602.0949 290.773171 
L 603.569549 291.065831 
L 605.044198 290.976997 
L 605.450998 290.787642 
L 605.832373 290.914908 
L 607.815521 290.821383 
L 607.866371 290.734173 
L 609.315595 290.775498 
L 610.256319 290.732455 
L 611.603843 290.024789 
L 613.078492 289.936311 
L 613.866667 289.684985 
L 614.807391 289.5156 
L 615.214191 289.187798 
L 615.87524 288.877694 
L 616.68884 288.980311 
L 617.502439 290.010471 
L 617.629564 290.317197 
L 618.290613 291.111876 
L 619.765262 293.025905 
L 620.426312 293.637044 
L 621.036511 293.868025 
L 621.112786 294.099007 
L 622.790835 294.791402 
L 625.079084 295.57477 
L 629.147081 295.919206 
L 646.436068 295.910314 
L 659.911308 295.923358 
L 668.733777 295.94374 
L 670.335551 295.809216 
L 670.360976 295.674693 
L 674.835772 295.467183 
L 676.488396 295.467183 
L 676.488396 295.467183 
" clip-path="url(#p6b58ef3b58)" style="fill: none; stroke: #00a6d6; stroke-width: 3; stroke-linecap: square"/>
   </g>
   <g id="line2d_58">
    <path d="M 114.545455 280.183466 
L 201.981966 280.204345 
L 203.63459 280.399286 
L 228.220547 280.443356 
L 248.331707 280.462243 
L 249.145307 280.314016 
L 278.129786 280.25171 
L 278.384035 279.579227 
L 279.47731 278.906743 
L 279.604435 278.23426 
L 293.664449 278.23426 
L 293.791574 273.900409 
L 294.783149 256.565003 
L 294.935698 247.8973 
L 308.716038 247.8973 
L 308.792313 247.750684 
L 309.199113 247.457451 
L 309.300813 247.310835 
L 310.343237 246.724369 
L 323.894752 246.724369 
L 324.301552 247.715541 
L 325.318551 249.697886 
L 325.420251 250.193472 
L 339.175166 250.193472 
L 339.302291 250.72787 
L 339.734516 251.796666 
L 339.810791 252.331065 
L 340.57354 253.934259 
L 340.67524 254.468657 
L 354.45558 254.468657 
L 354.55728 255.049339 
L 355.498004 257.372066 
L 355.574279 257.952748 
L 355.828529 258.53343 
L 355.904804 259.114111 
L 369.659719 259.114111 
L 370.066519 260.123799 
L 370.575018 261.133486 
L 370.600443 261.638329 
L 371.083518 262.648017 
L 371.159793 263.15286 
L 386.440207 263.15286 
L 386.592757 267.262196 
L 400.271397 267.262196 
L 400.398522 268.229394 
L 400.830746 269.196593 
L 401.491796 270.647391 
L 401.796896 271.614589 
L 416.31456 271.614589 
L 416.339985 272.5072 
L 416.594235 273.399811 
L 416.61966 274.292422 
L 416.848485 275.185033 
L 431.391574 275.185033 
L 432.205174 277.926541 
L 446.849963 278.028836 
L 447.866962 278.335701 
L 513.463415 278.437205 
L 523.430007 278.445024 
L 523.658832 278.939213 
L 527.981079 279.039684 
L 540.59187 279.184493 
L 593.348707 279.063594 
L 598.611678 279.042953 
L 600.086327 279.664685 
L 613.866667 279.664685 
L 615.214191 280.588783 
L 628.994531 280.588783 
L 629.40133 281.001638 
L 630.41833 281.827347 
L 630.494605 282.033774 
L 645.800443 282.033774 
L 645.927568 282.853967 
L 659.911308 282.94246 
L 661.691057 283.163694 
L 676.488396 283.080623 
L 676.488396 283.080623 
" clip-path="url(#p6b58ef3b58)" style="fill: none; stroke: #99d28c; stroke-width: 3; stroke-linecap: square"/>
   </g>
   <g id="line2d_59">
    <path d="M 114.545455 261.545745 
L 128.834294 261.545745 
L 128.859719 262.10029 
L 134.961715 262.10029 
L 135.648189 262.452315 
L 136.665188 262.804339 
L 142.487509 262.804339 
L 142.512934 262.940554 
L 144.038433 263.757844 
L 151.640503 263.757844 
L 151.665928 264.665501 
L 159.318847 264.665501 
L 159.344272 265.459586 
L 165.471693 265.459586 
L 166.895492 266.118763 
L 174.548411 266.118763 
L 174.599261 266.677809 
L 180.701256 266.677809 
L 182.125055 267.075777 
L 188.252476 267.075777 
L 189.676275 267.560983 
L 197.329194 267.560983 
L 197.456319 267.864365 
L 203.63459 267.864365 
L 204.982114 268.184013 
L 220.135403 268.310655 
L 220.415078 268.431752 
L 242.967036 268.475745 
L 243.246711 268.183961 
L 250.314856 268.183961 
L 250.340281 268.049028 
L 250.874205 267.914095 
L 257.332151 267.914095 
L 258.4 267.721326 
L 264.857945 267.721326 
L 265.39187 268.705339 
L 266.078344 269.689352 
L 272.510865 269.689352 
L 273.578714 271.690689 
L 273.705839 273.692025 
L 280.138359 273.692025 
L 280.265484 274.478319 
L 280.951959 275.264612 
L 281.079084 276.050906 
L 281.333333 276.837199 
L 287.613304 276.837199 
L 287.689579 276.976928 
L 288.325203 277.396112 
L 288.706578 277.675569 
L 289.215078 277.955025 
L 295.113673 277.955025 
L 295.825573 277.287291 
L 296.257797 276.842136 
L 296.334072 276.619558 
L 296.588322 276.39698 
L 304.190392 276.39698 
L 304.215817 275.040569 
L 310.343237 275.040569 
L 311.207687 273.950543 
L 311.334812 273.678036 
L 311.843311 273.133023 
L 311.868736 272.860517 
L 317.996157 272.860517 
L 318.428381 272.425689 
L 318.453806 272.208275 
L 319.470806 271.338618 
L 327.022025 271.338618 
L 327.14915 269.044037 
L 333.276571 269.044037 
L 333.708795 268.585226 
L 334.39527 267.89701 
L 334.471545 267.667605 
L 334.725795 267.4382 
L 334.776644 267.208794 
L 341.844789 267.208794 
L 341.870214 266.733596 
L 342.302439 265.783199 
L 342.429564 264.832802 
L 348.531559 264.832802 
L 349.218034 264.295286 
L 349.472284 264.116114 
L 349.497709 263.936942 
L 349.701109 263.75777 
L 349.726534 263.578598 
L 350.107908 263.399425 
L 356.082779 263.399425 
L 357.252328 262.124367 
L 357.506578 261.614343 
L 365.159497 261.614343 
L 365.235772 259.736463 
L 372.888692 259.736463 
L 372.914117 258.028018 
L 379.016112 258.028018 
L 379.219512 257.307425 
L 380.490761 255.505944 
L 388.067406 255.505944 
L 388.118256 253.057381 
L 394.245676 253.057381 
L 395.74575 250.649719 
L 401.796896 250.649719 
L 401.847746 250.436863 
L 402.83932 249.585438 
L 402.864745 249.372582 
L 403.373245 248.94687 
L 409.98374 248.876081 
L 411.204139 248.309767 
L 417.611234 248.245 
L 419.289283 247.921168 
L 425.238729 247.983159 
L 426.509978 248.231122 
L 433.400148 248.152557 
L 434.391722 247.916861 
L 455.647007 248.009994 
L 456.002956 248.156604 
L 457.019956 248.376519 
L 463.884701 248.477606 
L 465.15595 248.541829 
L 494.140429 248.514246 
L 495.920177 248.643582 
L 501.106874 248.643582 
L 501.767923 250.0881 
L 502.022173 250.44923 
L 502.047598 250.81036 
L 502.378123 251.532619 
L 502.530673 251.893749 
L 508.632668 251.893749 
L 510.158167 256.190302 
L 516.260163 256.190302 
L 516.565262 258.636607 
L 517.760237 261.082912 
L 524.904656 261.082912 
L 524.930081 261.97653 
L 525.387731 262.870148 
L 527.981079 263.303489 
L 532.557576 263.953501 
L 533.066075 264.170172 
L 539.193496 264.170172 
L 540.59187 263.880145 
L 555.872284 263.87462 
L 555.923134 263.296208 
L 563.576053 263.296208 
L 563.601478 263.619658 
L 571.254398 263.619658 
L 571.279823 263.85925 
L 577.381818 263.85925 
L 577.737768 264.484162 
L 578.271693 265.109074 
L 578.805617 266.358898 
L 579.085292 266.592112 
L 580.432816 267.058539 
L 582.03459 267.291752 
L 584.729638 267.991393 
L 585.950037 268.224606 
L 586.738211 268.691034 
L 592.585957 268.691034 
L 592.662232 269.346129 
L 594.009756 270.656321 
L 601.662676 270.656321 
L 601.688101 270.031704 
L 607.815521 270.031704 
L 607.866371 269.812967 
L 609.18847 269.594229 
L 609.315595 269.375492 
L 616.68884 269.294916 
L 617.629564 269.258985 
L 630.926829 269.411438 
L 632.452328 269.781558 
L 639.749298 269.781558 
L 639.774723 269.656088 
L 639.825573 269.670582 
L 649.995565 270.148885 
L 654.063562 270.230972 
L 655.589061 270.395146 
L 662.657206 270.395146 
L 662.708056 271.073891 
L 670.335551 271.073891 
L 670.360976 271.325016 
L 676.488396 271.325016 
L 676.488396 271.325016 
" clip-path="url(#p6b58ef3b58)" style="fill: none; stroke: #f1be3e; stroke-width: 3; stroke-linecap: square"/>
   </g>
   <g id="patch_10">
    <path d="M 86.4 297 
L 86.4 123 
" style="fill: none; stroke: #000000; stroke-linejoin: miter; stroke-linecap: square"/>
   </g>
   <g id="patch_11">
    <path d="M 705.6 297 
L 705.6 123 
" style="fill: none; stroke: #000000; stroke-linejoin: miter; stroke-linecap: square"/>
   </g>
   <g id="patch_12">
    <path d="M 86.4 297 
L 705.6 297 
" style="fill: none; stroke: #000000; stroke-linejoin: miter; stroke-linecap: square"/>
   </g>
   <g id="patch_13">
    <path d="M 86.4 123 
L 705.6 123 
" style="fill: none; stroke: #000000; stroke-linejoin: miter; stroke-linecap: square"/>
   </g>
   <g id="legend_1">
    <g id="line2d_60">
     <path d="M 19.8 348.84 
L 31.8 348.84 
L 43.8 348.84 
" style="fill: none; stroke-dasharray: 11.1,4.8; stroke-dashoffset: 0; stroke: #c3312f; stroke-width: 3"/>
    </g>
    <g id="text_17">
     <!-- $Inline\ N_2O−N$ -->
     <g transform="translate(53.4 353.04)">
      <text>
       <tspan style="font: 12px 'Source Code Pro'" x="0 7.199997 14.399994 21.599991 28.799988 35.999985 45.599957 58.23335 65.433347 72.633344" y="-0.40625">InlineNO−N</tspan>
       <tspan style="font: 8.4px 'Source Code Pro'" x="52.901946" y="1.3421874999999996">2</tspan>
      </text>
     </g>
    </g>
    <g id="line2d_61">
     <path d="M 157.32 348.84 
L 169.32 348.84 
L 181.32 348.84 
" style="fill: none; stroke: #c3312f; stroke-width: 3; stroke-linecap: square"/>
    </g>
    <g id="text_18">
     <!-- $Offgas\ N_2O−N$ -->
     <g transform="translate(190.92 353.04)">
      <text>
       <tspan style="font: 12px 'Source Code Pro'" x="0 7.199997 14.399994 21.599991 28.799988 35.999985 45.599957 58.23335 65.433347 72.633344" y="-0.3125">OffgasNO−N</tspan>
       <tspan style="font: 8.4px 'Source Code Pro'" x="52.901946" y="1.4359374999999996">2</tspan>
      </text>
     </g>
    </g>
    <g id="line2d_62">
     <path d="M 294.84 348.84 
L 306.84 348.84 
L 318.84 348.84 
" style="fill: none; stroke: #00a6d6; stroke-width: 3; stroke-linecap: square"/>
    </g>
    <g id="text_19">
     <!-- $O_2$ -->
     <g transform="translate(328.44 353.04)">
      <text>
       <tspan style="font: 12px 'Source Code Pro'" x="0" y="-0.984375">O</tspan>
       <tspan style="font: 8.4px 'Source Code Pro'" x="7.301989" y="0.7640624999999996">2</tspan>
      </text>
     </g>
    </g>
    <g id="line2d_63">
     <path d="M 365.16 348.84 
L 377.16 348.84 
L 389.16 348.84 
" style="fill: none; stroke: #99d28c; stroke-width: 3; stroke-linecap: square"/>
    </g>
    <g id="text_20">
     <!-- $NH_4−N$ -->
     <g transform="translate(398.76 353.04)">
      <text>
       <tspan style="font: 12px 'Source Code Pro'" x="0 7.199997 19.83339 27.033387" y="-0.125">NH−N</tspan>
       <tspan style="font: 8.4px 'Source Code Pro'" x="14.501986" y="1.6234374999999996">4</tspan>
      </text>
     </g>
    </g>
    <g id="line2d_64">
     <path d="M 457.08 348.84 
L 469.08 348.84 
L 481.08 348.84 
" style="fill: none; stroke: #f1be3e; stroke-width: 3; stroke-linecap: square"/>
    </g>
    <g id="text_21">
     <!-- $NO_3−N$ -->
     <g transform="translate(490.68 353.04)">
      <text>
       <tspan style="font: 12px 'Source Code Pro'" x="0 7.199997 19.83339 27.033387" y="-0.984375">NO−N</tspan>
       <tspan style="font: 8.4px 'Source Code Pro'" x="14.501986" y="0.7640624999999996">3</tspan>
      </text>
     </g>
    </g>
   </g>
  </g>
 </g>
 <defs>
  <clipPath id="p2e1632267a">
   <rect x="86.4" y="36" width="619.2" height="87"/>
  </clipPath>
  <clipPath id="p6b58ef3b58">
   <rect x="86.4" y="123" width="619.2" height="174"/>
  </clipPath>
 </defs>
 <defs>
  <pattern id="hd7a8bc91e5" patternUnits="userSpaceOnUse" x="0" y="0" width="72" height="72">
   <rect x="0" y="0" width="73" height="73" fill="#dddddd"/>
   <path d="M -36 36 
L 36 -36 
M -32 40 
L 40 -32 
M -28 44 
L 44 -28 
M -24 48 
L 48 -24 
M -20 52 
L 52 -20 
M -16 56 
L 56 -16 
M -12 60 
L 60 -12 
M -8 64 
L 64 -8 
M -4 68 
L 68 -4 
M 0 72 
L 72 0 
M 4 76 
L 76 4 
M 8 80 
L 80 8 
M 12 84 
L 84 12 
M 16 88 
L 88 16 
M 20 92 
L 92 20 
M 24 96 
L 96 24 
M 28 100 
L 100 28 
M 32 104 
L 104 32 
M 36 108 
L 108 36 
" style="fill: #ffffff; stroke: #ffffff; stroke-width: 1.0; stroke-linecap: butt; stroke-linejoin: miter"/>
  </pattern>
  <pattern id="h65a698bc15" patternUnits="userSpaceOnUse" x="0" y="0" width="72" height="72">
   <rect x="0" y="0" width="73" height="73" fill="#ffffff"/>
   <path d="M -36 36 
L 36 -36 
M -32 40 
L 40 -32 
M -28 44 
L 44 -28 
M -24 48 
L 48 -24 
M -20 52 
L 52 -20 
M -16 56 
L 56 -16 
M -12 60 
L 60 -12 
M -8 64 
L 64 -8 
M -4 68 
L 68 -4 
M 0 72 
L 72 0 
M 4 76 
L 76 4 
M 8 80 
L 80 8 
M 12 84 
L 84 12 
M 16 88 
L 88 16 
M 20 92 
L 92 20 
M 24 96 
L 96 24 
M 28 100 
L 100 28 
M 32 104 
L 104 32 
M 36 108 
L 108 36 
M -36 36 
L 36 108 
M -32 32 
L 40 104 
M -28 28 
L 44 100 
M -24 24 
L 48 96 
M -20 20 
L 52 92 
M -16 16 
L 56 88 
M -12 12 
L 60 84 
M -8 8 
L 64 80 
M -4 4 
L 68 76 
M 0 0 
L 72 72 
M 4 -4 
L 76 68 
M 8 -8 
L 80 64 
M 12 -12 
L 84 60 
M 16 -16 
L 88 56 
M 20 -20 
L 92 52 
M 24 -24 
L 96 48 
M 28 -28 
L 100 44 
M 32 -32 
L 104 40 
M 36 -36 
L 108 36 
" style="fill: #dddddd; stroke: #dddddd; stroke-width: 1.0; stroke-linecap: butt; stroke-linejoin: miter"/>
  </pattern>
 </defs>
</svg>
