<?xml version="1.0" encoding="utf-8" standalone="no"?>
<!DOCTYPE svg PUBLIC "-//W3C//DTD SVG 1.1//EN"
  "http://www.w3.org/Graphics/SVG/1.1/DTD/svg11.dtd">
<svg xmlns:xlink="http://www.w3.org/1999/xlink" width="620.12pt" height="552.38pt" viewBox="0 0 620.12 552.38" xmlns="http://www.w3.org/2000/svg" version="1.1">
 <metadata>
  <rdf:RDF xmlns:dc="http://purl.org/dc/elements/1.1/" xmlns:cc="http://creativecommons.org/ns#" xmlns:rdf="http://www.w3.org/1999/02/22-rdf-syntax-ns#">
   <cc:Work>
    <dc:type rdf:resource="http://purl.org/dc/dcmitype/StillImage"/>
    <dc:date>2022-10-30T20:06:31.088950</dc:date>
    <dc:format>image/svg+xml</dc:format>
    <dc:creator>
     <cc:Agent>
      <dc:title>Matplotlib v3.5.2, https://matplotlib.org/</dc:title>
     </cc:Agent>
    </dc:creator>
   </cc:Work>
  </rdf:RDF>
 </metadata>
 <defs>
  <style type="text/css">*{stroke-linejoin: round; stroke-linecap: butt}</style>
 </defs>
 <g id="figure_1">
  <g id="patch_1">
   <path d="M 0 552.38 
L 620.12 552.38 
L 620.12 0 
L 0 0 
z
" style="fill: #ffffff"/>
  </g>
  <g id="axes_1">
   <g id="patch_2">
    <path d="M 39.08 272.89125 
L 327.08 272.89125 
L 327.08 28.09125 
L 39.08 28.09125 
z
" style="fill: #ffffff"/>
   </g>
   <g id="PolyCollection_1">
    <defs>
     <path id="me4c594125c" d="M 39.08 -338.794815 
L 39.08 -524.28875 
L 43.194286 -524.28875 
L 47.308571 -524.28875 
L 51.422857 -524.28875 
L 55.537143 -524.28875 
L 59.651429 -524.28875 
L 63.765714 -524.28875 
L 67.88 -524.28875 
L 71.994286 -524.28875 
L 76.108571 -524.28875 
L 80.222857 -524.28875 
L 84.337143 -524.28875 
L 88.451429 -524.28875 
L 92.565714 -524.28875 
L 96.68 -524.28875 
L 100.794286 -524.28875 
L 104.908571 -524.28875 
L 109.022857 -524.28875 
L 113.137143 -524.28875 
L 117.251429 -524.28875 
L 121.365714 -524.28875 
L 125.48 -524.28875 
L 129.594286 -524.28875 
L 133.708571 -524.28875 
L 137.822857 -524.28875 
L 141.937143 -524.28875 
L 146.051429 -524.28875 
L 150.165714 -524.28875 
L 154.28 -524.28875 
L 158.394286 -524.28875 
L 162.508571 -524.28875 
L 166.622857 -524.28875 
L 170.737143 -524.28875 
L 174.851429 -524.28875 
L 178.965714 -524.28875 
L 183.08 -524.28875 
L 187.194286 -524.28875 
L 191.308571 -524.28875 
L 195.422857 -524.28875 
L 199.537143 -524.28875 
L 203.651429 -524.28875 
L 207.765714 -524.28875 
L 211.88 -524.28875 
L 215.994286 -524.28875 
L 220.108571 -524.28875 
L 224.222857 -524.28875 
L 228.337143 -524.28875 
L 232.451429 -524.28875 
L 236.565714 -524.28875 
L 240.68 -524.28875 
L 244.794286 -524.28875 
L 248.908571 -524.28875 
L 253.022857 -524.28875 
L 257.137143 -524.28875 
L 261.251429 -524.28875 
L 265.365714 -524.28875 
L 269.48 -524.28875 
L 273.594286 -524.28875 
L 277.708571 -524.28875 
L 281.822857 -524.28875 
L 285.937143 -524.28875 
L 290.051429 -524.28875 
L 294.165714 -524.28875 
L 298.28 -524.28875 
L 302.394286 -524.28875 
L 306.508571 -524.28875 
L 310.622857 -524.28875 
L 314.737143 -524.28875 
L 318.851429 -524.28875 
L 322.965714 -524.28875 
L 327.08 -524.28875 
L 327.08 -514.003618 
L 327.08 -514.003618 
L 322.965714 -511.500635 
L 318.851429 -508.997652 
L 314.737143 -506.494669 
L 310.622857 -503.991686 
L 306.508571 -501.488703 
L 302.394286 -498.985721 
L 298.28 -496.482738 
L 294.165714 -493.979755 
L 290.051429 -491.476772 
L 285.937143 -488.973789 
L 281.822857 -486.470806 
L 277.708571 -483.967823 
L 273.594286 -481.46484 
L 269.48 -478.961857 
L 265.365714 -476.458874 
L 261.251429 -473.955892 
L 257.137143 -471.452909 
L 253.022857 -468.949926 
L 248.908571 -466.446943 
L 244.794286 -463.94396 
L 240.68 -461.440977 
L 236.565714 -458.937994 
L 232.451429 -456.435011 
L 228.337143 -453.932028 
L 224.222857 -451.429045 
L 220.108571 -448.926063 
L 215.994286 -446.42308 
L 211.88 -443.920097 
L 207.765714 -441.417114 
L 203.651429 -438.914131 
L 199.537143 -436.411148 
L 195.422857 -433.908165 
L 191.308571 -431.405182 
L 187.194286 -428.902199 
L 183.08 -426.399216 
L 178.965714 -423.896234 
L 174.851429 -421.393251 
L 170.737143 -418.890268 
L 166.622857 -416.387285 
L 162.508571 -413.884302 
L 158.394286 -411.381319 
L 154.28 -408.878336 
L 150.165714 -406.375353 
L 146.051429 -403.87237 
L 141.937143 -401.369387 
L 137.822857 -398.866405 
L 133.708571 -396.363422 
L 129.594286 -393.860439 
L 125.48 -391.357456 
L 121.365714 -388.854473 
L 117.251429 -386.35149 
L 113.137143 -383.848507 
L 109.022857 -381.345524 
L 104.908571 -378.842541 
L 100.794286 -376.339559 
L 96.68 -373.836576 
L 92.565714 -371.333593 
L 88.451429 -368.83061 
L 84.337143 -366.327627 
L 80.222857 -363.824644 
L 76.108571 -361.321661 
L 71.994286 -358.818678 
L 67.88 -356.315695 
L 63.765714 -353.812712 
L 59.651429 -351.30973 
L 55.537143 -348.806747 
L 51.422857 -346.303764 
L 47.308571 -343.800781 
L 43.194286 -341.297798 
L 39.08 -338.794815 
z
" style="stroke: #000000"/>
    </defs>
    <g clip-path="url(#p79dfd09417)">
     <use xlink:href="#me4c594125c" x="0" y="552.38" style="fill: #a0a0a0; stroke: #000000"/>
    </g>
   </g>
   <g id="PolyCollection_2">
    <defs>
     <path id="mc4da8f5354" d="M 39.08 -285.214141 
L 39.08 -279.48875 
L 43.194286 -279.48875 
L 47.308571 -279.48875 
L 51.422857 -279.48875 
L 55.537143 -279.48875 
L 59.651429 -279.48875 
L 63.765714 -279.48875 
L 67.88 -279.48875 
L 71.994286 -279.48875 
L 76.108571 -279.48875 
L 80.222857 -279.48875 
L 84.337143 -279.48875 
L 88.451429 -279.48875 
L 92.565714 -279.48875 
L 96.68 -279.48875 
L 100.794286 -279.48875 
L 104.908571 -279.48875 
L 109.022857 -279.48875 
L 113.137143 -279.48875 
L 117.251429 -279.48875 
L 121.365714 -279.48875 
L 125.48 -279.48875 
L 129.594286 -279.48875 
L 133.708571 -279.48875 
L 137.822857 -279.48875 
L 141.937143 -279.48875 
L 146.051429 -279.48875 
L 150.165714 -279.48875 
L 154.28 -279.48875 
L 158.394286 -279.48875 
L 162.508571 -279.48875 
L 166.622857 -279.48875 
L 170.737143 -279.48875 
L 174.851429 -279.48875 
L 178.965714 -279.48875 
L 183.08 -279.48875 
L 187.194286 -279.48875 
L 191.308571 -279.48875 
L 195.422857 -279.48875 
L 199.537143 -279.48875 
L 203.651429 -279.48875 
L 207.765714 -279.48875 
L 211.88 -279.48875 
L 215.994286 -279.48875 
L 220.108571 -279.48875 
L 224.222857 -279.48875 
L 228.337143 -279.48875 
L 232.451429 -279.48875 
L 236.565714 -279.48875 
L 240.68 -279.48875 
L 244.794286 -279.48875 
L 248.908571 -279.48875 
L 253.022857 -279.48875 
L 257.137143 -279.48875 
L 261.251429 -279.48875 
L 265.365714 -279.48875 
L 269.48 -279.48875 
L 273.594286 -279.48875 
L 277.708571 -279.48875 
L 281.822857 -279.48875 
L 285.937143 -279.48875 
L 290.051429 -279.48875 
L 294.165714 -279.48875 
L 298.28 -279.48875 
L 302.394286 -279.48875 
L 306.508571 -279.48875 
L 310.622857 -279.48875 
L 314.737143 -279.48875 
L 318.851429 -279.48875 
L 322.965714 -279.48875 
L 327.08 -279.48875 
L 327.08 -423.629096 
L 327.08 -423.629096 
L 322.965714 -421.651739 
L 318.851429 -419.674383 
L 314.737143 -417.697026 
L 310.622857 -415.71967 
L 306.508571 -413.742313 
L 302.394286 -411.764957 
L 298.28 -409.7876 
L 294.165714 -407.810244 
L 290.051429 -405.832887 
L 285.937143 -403.855531 
L 281.822857 -401.878174 
L 277.708571 -399.900818 
L 273.594286 -397.923461 
L 269.48 -395.946105 
L 265.365714 -393.968748 
L 261.251429 -391.991392 
L 257.137143 -390.014035 
L 253.022857 -388.036679 
L 248.908571 -386.059322 
L 244.794286 -384.081966 
L 240.68 -382.104609 
L 236.565714 -380.127253 
L 232.451429 -378.149896 
L 228.337143 -376.17254 
L 224.222857 -374.195183 
L 220.108571 -372.217827 
L 215.994286 -370.24047 
L 211.88 -368.263114 
L 207.765714 -366.285757 
L 203.651429 -364.308401 
L 199.537143 -362.331044 
L 195.422857 -360.353688 
L 191.308571 -358.376331 
L 187.194286 -356.398975 
L 183.08 -354.421619 
L 178.965714 -352.444262 
L 174.851429 -350.466906 
L 170.737143 -348.489549 
L 166.622857 -346.512193 
L 162.508571 -344.534836 
L 158.394286 -342.55748 
L 154.28 -340.580123 
L 150.165714 -338.602767 
L 146.051429 -336.62541 
L 141.937143 -334.648054 
L 137.822857 -332.670697 
L 133.708571 -330.693341 
L 129.594286 -328.715984 
L 125.48 -326.738628 
L 121.365714 -324.761271 
L 117.251429 -322.783915 
L 113.137143 -320.806558 
L 109.022857 -318.829202 
L 104.908571 -316.851845 
L 100.794286 -314.874489 
L 96.68 -312.897132 
L 92.565714 -310.919776 
L 88.451429 -308.942419 
L 84.337143 -306.965063 
L 80.222857 -304.987706 
L 76.108571 -303.01035 
L 71.994286 -301.032993 
L 67.88 -299.055637 
L 63.765714 -297.07828 
L 59.651429 -295.100924 
L 55.537143 -293.123567 
L 51.422857 -291.146211 
L 47.308571 -289.168854 
L 43.194286 -287.191498 
L 39.08 -285.214141 
z
" style="stroke: #000000"/>
    </defs>
    <g clip-path="url(#p79dfd09417)">
     <use xlink:href="#mc4da8f5354" x="0" y="552.38" style="fill: #00a6d6; stroke: #000000"/>
    </g>
   </g>
   <g id="matplotlib.axis_1">
    <g id="xtick_1"/>
    <g id="xtick_2"/>
    <g id="xtick_3"/>
    <g id="xtick_4"/>
    <g id="xtick_5"/>
    <g id="xtick_6"/>
    <g id="xtick_7"/>
   </g>
   <g id="matplotlib.axis_2">
    <g id="ytick_1">
     <g id="line2d_1">
      <defs>
       <path id="m9c7655b33f" d="M 0 0 
L -3.5 0 
" style="stroke: #000000"/>
      </defs>
      <g>
       <use xlink:href="#m9c7655b33f" x="39.08" y="272.89125" style="stroke: #000000"/>
      </g>
     </g>
     <g id="text_1">
      <text style="font: 12px 'Source Code Pro'; text-anchor: end" x="32.08" y="277.163437" transform="rotate(-0, 32.08, 277.163437)">16</text>
     </g>
    </g>
    <g id="ytick_2">
     <g id="line2d_2">
      <g>
       <use xlink:href="#m9c7655b33f" x="39.08" y="223.93125" style="stroke: #000000"/>
      </g>
     </g>
     <g id="text_2">
      <text style="font: 12px 'Source Code Pro'; text-anchor: end" x="32.08" y="228.203437" transform="rotate(-0, 32.08, 228.203437)">20</text>
     </g>
    </g>
    <g id="ytick_3">
     <g id="line2d_3">
      <g>
       <use xlink:href="#m9c7655b33f" x="39.08" y="174.97125" style="stroke: #000000"/>
      </g>
     </g>
     <g id="text_3">
      <text style="font: 12px 'Source Code Pro'; text-anchor: end" x="32.08" y="179.243437" transform="rotate(-0, 32.08, 179.243437)">24</text>
     </g>
    </g>
    <g id="ytick_4">
     <g id="line2d_4">
      <g>
       <use xlink:href="#m9c7655b33f" x="39.08" y="126.01125" style="stroke: #000000"/>
      </g>
     </g>
     <g id="text_4">
      <text style="font: 12px 'Source Code Pro'; text-anchor: end" x="32.08" y="130.283437" transform="rotate(-0, 32.08, 130.283437)">28</text>
     </g>
    </g>
    <g id="ytick_5">
     <g id="line2d_5">
      <g>
       <use xlink:href="#m9c7655b33f" x="39.08" y="77.05125" style="stroke: #000000"/>
      </g>
     </g>
     <g id="text_5">
      <text style="font: 12px 'Source Code Pro'; text-anchor: end" x="32.08" y="81.323437" transform="rotate(-0, 32.08, 81.323437)">32</text>
     </g>
    </g>
    <g id="ytick_6">
     <g id="line2d_6">
      <g>
       <use xlink:href="#m9c7655b33f" x="39.08" y="28.09125" style="stroke: #000000"/>
      </g>
     </g>
     <g id="text_6">
      <text style="font: 12px 'Source Code Pro'; text-anchor: end" x="32.08" y="32.363437" transform="rotate(-0, 32.08, 32.363437)">36</text>
     </g>
    </g>
    <g id="text_7">
     <!-- $conc.\ (mg\ L^{-1})$ -->
     <g transform="translate(10.92 194.89125)rotate(-90)">
      <text>
       <tspan style="font: 12px 'Source Code Pro'" x="0 7.199997 14.399994 21.599991 28.799988 39.839959 47.039956 54.239953 63.839925 81.513316" y="-0.5609375000000014">conc.(mgL)</tspan>
       <tspan style="font: 8.4px 'Source Code Pro'" x="71.141914 76.181912" y="-4.640625000000001">−1</tspan>
      </text>
     </g>
    </g>
   </g>
   <g id="line2d_7">
    <path d="M 39.08 213.585185 
L 43.194286 211.082202 
L 47.308571 208.579219 
L 51.422857 206.076236 
L 55.537143 203.573253 
L 59.651429 201.07027 
L 63.765714 198.567288 
L 67.88 196.064305 
L 71.994286 193.561322 
L 76.108571 191.058339 
L 80.222857 188.555356 
L 84.337143 186.052373 
L 88.451429 183.54939 
L 92.565714 181.046407 
L 96.68 178.543424 
L 100.794286 176.040441 
L 104.908571 173.537459 
L 109.022857 171.034476 
L 113.137143 168.531493 
L 117.251429 166.02851 
L 121.365714 163.525527 
L 125.48 161.022544 
L 129.594286 158.519561 
L 133.708571 156.016578 
L 137.822857 153.513595 
L 141.937143 151.010613 
L 146.051429 148.50763 
L 150.165714 146.004647 
L 154.28 143.501664 
L 158.394286 140.998681 
L 162.508571 138.495698 
L 166.622857 135.992715 
L 170.737143 133.489732 
L 174.851429 130.986749 
L 178.965714 128.483766 
L 183.08 125.980784 
L 187.194286 123.477801 
L 191.308571 120.974818 
L 195.422857 118.471835 
L 199.537143 115.968852 
L 203.651429 113.465869 
L 207.765714 110.962886 
L 211.88 108.459903 
L 215.994286 105.95692 
L 220.108571 103.453937 
L 224.222857 100.950955 
L 228.337143 98.447972 
L 232.451429 95.944989 
L 236.565714 93.442006 
L 240.68 90.939023 
L 244.794286 88.43604 
L 248.908571 85.933057 
L 253.022857 83.430074 
L 257.137143 80.927091 
L 261.251429 78.424108 
L 265.365714 75.921126 
L 269.48 73.418143 
L 273.594286 70.91516 
L 277.708571 68.412177 
L 281.822857 65.909194 
L 285.937143 63.406211 
L 290.051429 60.903228 
L 294.165714 58.400245 
L 298.28 55.897262 
L 302.394286 53.394279 
L 306.508571 50.891297 
L 310.622857 48.388314 
L 314.737143 45.885331 
L 318.851429 43.382348 
L 322.965714 40.879365 
L 327.08 38.376382 
" clip-path="url(#p79dfd09417)" style="fill: none; stroke: #000000; stroke-width: 3; stroke-linecap: square"/>
   </g>
   <g id="patch_3">
    <path d="M 39.08 272.89125 
L 39.08 28.09125 
" style="fill: none; stroke: #000000; stroke-linejoin: miter; stroke-linecap: square"/>
   </g>
   <g id="patch_4">
    <path d="M 327.08 272.89125 
L 327.08 28.09125 
" style="fill: none; stroke: #000000; stroke-linejoin: miter; stroke-linecap: square"/>
   </g>
   <g id="patch_5">
    <path d="M 39.08 272.89125 
L 327.08 272.89125 
" style="fill: none; stroke: #000000; stroke-linejoin: miter; stroke-linecap: square"/>
   </g>
   <g id="patch_6">
    <path d="M 39.08 28.09125 
L 327.08 28.09125 
" style="fill: none; stroke: #000000; stroke-linejoin: miter; stroke-linecap: square"/>
   </g>
   <g id="text_8">
    <g id="patch_7">
     <path d="M 55.651429 67.276406 
L 117.651429 67.276406 
L 117.651429 50.106094 
L 55.651429 50.106094 
z
" style="fill: #ffffff; opacity: 0.85; stroke: #000000; stroke-linejoin: miter"/>
    </g>
    <text style="font: 10px 'Source Code Pro'; text-anchor: start" x="59.651429" y="61.226406" transform="rotate(-0, 59.651429, 61.226406)">A (0 min)</text>
   </g>
  </g>
  <g id="axes_2">
   <g id="patch_8">
    <path d="M 327.08 272.89125 
L 615.08 272.89125 
L 615.08 28.09125 
L 327.08 28.09125 
z
" style="fill: #ffffff"/>
   </g>
   <g id="PolyCollection_3">
    <defs>
     <path id="mcc972f969b" d="M 327.08 -338.794815 
L 327.08 -524.28875 
L 331.194286 -524.28875 
L 335.308571 -524.28875 
L 339.422857 -524.28875 
L 343.537143 -524.28875 
L 347.651429 -524.28875 
L 351.765714 -524.28875 
L 355.88 -524.28875 
L 359.994286 -524.28875 
L 364.108571 -524.28875 
L 368.222857 -524.28875 
L 372.337143 -524.28875 
L 376.451429 -524.28875 
L 380.565714 -524.28875 
L 384.68 -524.28875 
L 388.794286 -524.28875 
L 392.908571 -524.28875 
L 397.022857 -524.28875 
L 401.137143 -524.28875 
L 405.251429 -524.28875 
L 409.365714 -524.28875 
L 413.48 -524.28875 
L 417.594286 -524.28875 
L 421.708571 -524.28875 
L 425.822857 -524.28875 
L 429.937143 -524.28875 
L 434.051429 -524.28875 
L 438.165714 -524.28875 
L 442.28 -524.28875 
L 446.394286 -524.28875 
L 450.508571 -524.28875 
L 454.622857 -524.28875 
L 458.737143 -524.28875 
L 462.851429 -524.28875 
L 466.965714 -524.28875 
L 471.08 -524.28875 
L 475.194286 -524.28875 
L 479.308571 -524.28875 
L 483.422857 -524.28875 
L 487.537143 -524.28875 
L 491.651429 -524.28875 
L 495.765714 -524.28875 
L 499.88 -524.28875 
L 503.994286 -524.28875 
L 508.108571 -524.28875 
L 512.222857 -524.28875 
L 516.337143 -524.28875 
L 520.451429 -524.28875 
L 524.565714 -524.28875 
L 528.68 -524.28875 
L 532.794286 -524.28875 
L 536.908571 -524.28875 
L 541.022857 -524.28875 
L 545.137143 -524.28875 
L 549.251429 -524.28875 
L 553.365714 -524.28875 
L 557.48 -524.28875 
L 561.594286 -524.28875 
L 565.708571 -524.28875 
L 569.822857 -524.28875 
L 573.937143 -524.28875 
L 578.051429 -524.28875 
L 582.165714 -524.28875 
L 586.28 -524.28875 
L 590.394286 -524.28875 
L 594.508571 -524.28875 
L 598.622857 -524.28875 
L 602.737143 -524.28875 
L 606.851429 -524.28875 
L 610.965714 -524.28875 
L 615.08 -524.28875 
L 615.08 -514.003618 
L 615.08 -514.003618 
L 610.965714 -511.500635 
L 606.851429 -508.997652 
L 602.737143 -506.494669 
L 598.622857 -503.991686 
L 594.508571 -501.488703 
L 590.394286 -498.985721 
L 586.28 -496.482738 
L 582.165714 -493.979755 
L 578.051429 -491.476772 
L 573.937143 -488.973789 
L 569.822857 -486.470806 
L 565.708571 -483.967823 
L 561.594286 -481.46484 
L 557.48 -478.961857 
L 553.365714 -476.458874 
L 549.251429 -473.955892 
L 545.137143 -471.452909 
L 541.022857 -468.949926 
L 536.908571 -466.446943 
L 532.794286 -463.94396 
L 528.68 -461.440977 
L 524.565714 -458.937994 
L 520.451429 -456.435011 
L 516.337143 -453.932028 
L 512.222857 -451.429045 
L 508.108571 -448.926063 
L 503.994286 -446.42308 
L 499.88 -443.920097 
L 495.765714 -441.417114 
L 491.651429 -438.914131 
L 487.537143 -436.411148 
L 483.422857 -433.908165 
L 479.308571 -431.405182 
L 475.194286 -428.902199 
L 471.08 -426.399216 
L 466.965714 -423.896234 
L 462.851429 -421.393251 
L 458.737143 -418.890268 
L 454.622857 -416.387285 
L 450.508571 -413.884302 
L 446.394286 -411.381319 
L 442.28 -408.878336 
L 438.165714 -406.375353 
L 434.051429 -403.87237 
L 429.937143 -401.369387 
L 425.822857 -398.866405 
L 421.708571 -396.363422 
L 417.594286 -393.860439 
L 413.48 -391.357456 
L 409.365714 -388.854473 
L 405.251429 -386.35149 
L 401.137143 -383.848507 
L 397.022857 -381.345524 
L 392.908571 -378.842541 
L 388.794286 -376.339559 
L 384.68 -373.836576 
L 380.565714 -371.333593 
L 376.451429 -368.83061 
L 372.337143 -366.327627 
L 368.222857 -363.824644 
L 364.108571 -361.321661 
L 359.994286 -358.818678 
L 355.88 -356.315695 
L 351.765714 -353.812712 
L 347.651429 -351.30973 
L 343.537143 -348.806747 
L 339.422857 -346.303764 
L 335.308571 -343.800781 
L 331.194286 -341.297798 
L 327.08 -338.794815 
z
" style="stroke: #000000"/>
    </defs>
    <g clip-path="url(#p2998bc5ae1)">
     <use xlink:href="#mcc972f969b" x="0" y="552.38" style="fill: #a0a0a0; stroke: #000000"/>
    </g>
   </g>
   <g id="PolyCollection_4">
    <defs>
     <path id="m043d9c09b5" d="M 327.08 -285.214141 
L 327.08 -279.48875 
L 331.194286 -279.48875 
L 335.308571 -279.48875 
L 339.422857 -279.48875 
L 343.537143 -279.48875 
L 347.651429 -279.48875 
L 351.765714 -279.48875 
L 355.88 -279.48875 
L 359.994286 -279.48875 
L 364.108571 -279.48875 
L 368.222857 -279.48875 
L 372.337143 -279.48875 
L 376.451429 -279.48875 
L 380.565714 -279.48875 
L 384.68 -279.48875 
L 388.794286 -279.48875 
L 392.908571 -279.48875 
L 397.022857 -279.48875 
L 401.137143 -279.48875 
L 405.251429 -279.48875 
L 409.365714 -279.48875 
L 413.48 -279.48875 
L 417.594286 -279.48875 
L 421.708571 -279.48875 
L 425.822857 -279.48875 
L 429.937143 -279.48875 
L 434.051429 -279.48875 
L 438.165714 -279.48875 
L 442.28 -279.48875 
L 446.394286 -279.48875 
L 450.508571 -279.48875 
L 454.622857 -279.48875 
L 458.737143 -279.48875 
L 462.851429 -279.48875 
L 466.965714 -279.48875 
L 471.08 -279.48875 
L 475.194286 -279.48875 
L 479.308571 -279.48875 
L 483.422857 -279.48875 
L 487.537143 -279.48875 
L 491.651429 -279.48875 
L 495.765714 -279.48875 
L 499.88 -279.48875 
L 503.994286 -279.48875 
L 508.108571 -279.48875 
L 512.222857 -279.48875 
L 516.337143 -279.48875 
L 520.451429 -279.48875 
L 524.565714 -279.48875 
L 528.68 -279.48875 
L 532.794286 -279.48875 
L 536.908571 -279.48875 
L 541.022857 -279.48875 
L 545.137143 -279.48875 
L 549.251429 -279.48875 
L 553.365714 -279.48875 
L 557.48 -279.48875 
L 561.594286 -279.48875 
L 565.708571 -279.48875 
L 569.822857 -279.48875 
L 573.937143 -279.48875 
L 578.051429 -279.48875 
L 582.165714 -279.48875 
L 586.28 -279.48875 
L 590.394286 -279.48875 
L 594.508571 -279.48875 
L 598.622857 -279.48875 
L 602.737143 -279.48875 
L 606.851429 -279.48875 
L 610.965714 -279.48875 
L 615.08 -279.48875 
L 615.08 -423.629096 
L 615.08 -423.629096 
L 610.965714 -421.651739 
L 606.851429 -419.674383 
L 602.737143 -417.697026 
L 598.622857 -415.71967 
L 594.508571 -413.742313 
L 590.394286 -411.764957 
L 586.28 -409.7876 
L 582.165714 -407.810244 
L 578.051429 -405.832887 
L 573.937143 -403.855531 
L 569.822857 -401.878174 
L 565.708571 -399.900818 
L 561.594286 -397.923461 
L 557.48 -395.946105 
L 553.365714 -393.968748 
L 549.251429 -391.991392 
L 545.137143 -390.014035 
L 541.022857 -388.036679 
L 536.908571 -386.059322 
L 532.794286 -384.081966 
L 528.68 -382.104609 
L 524.565714 -380.127253 
L 520.451429 -378.149896 
L 516.337143 -376.17254 
L 512.222857 -374.195183 
L 508.108571 -372.217827 
L 503.994286 -370.24047 
L 499.88 -368.263114 
L 495.765714 -366.285757 
L 491.651429 -364.308401 
L 487.537143 -362.331044 
L 483.422857 -360.353688 
L 479.308571 -358.376331 
L 475.194286 -356.398975 
L 471.08 -354.421619 
L 466.965714 -352.444262 
L 462.851429 -350.466906 
L 458.737143 -348.489549 
L 454.622857 -346.512193 
L 450.508571 -344.534836 
L 446.394286 -342.55748 
L 442.28 -340.580123 
L 438.165714 -338.602767 
L 434.051429 -336.62541 
L 429.937143 -334.648054 
L 425.822857 -332.670697 
L 421.708571 -330.693341 
L 417.594286 -328.715984 
L 413.48 -326.738628 
L 409.365714 -324.761271 
L 405.251429 -322.783915 
L 401.137143 -320.806558 
L 397.022857 -318.829202 
L 392.908571 -316.851845 
L 388.794286 -314.874489 
L 384.68 -312.897132 
L 380.565714 -310.919776 
L 376.451429 -308.942419 
L 372.337143 -306.965063 
L 368.222857 -304.987706 
L 364.108571 -303.01035 
L 359.994286 -301.032993 
L 355.88 -299.055637 
L 351.765714 -297.07828 
L 347.651429 -295.100924 
L 343.537143 -293.123567 
L 339.422857 -291.146211 
L 335.308571 -289.168854 
L 331.194286 -287.191498 
L 327.08 -285.214141 
z
" style="stroke: #000000"/>
    </defs>
    <g clip-path="url(#p2998bc5ae1)">
     <use xlink:href="#m043d9c09b5" x="0" y="552.38" style="fill: #00a6d6; stroke: #000000"/>
    </g>
   </g>
   <g id="matplotlib.axis_3">
    <g id="xtick_8"/>
    <g id="xtick_9"/>
    <g id="xtick_10"/>
    <g id="xtick_11"/>
    <g id="xtick_12"/>
    <g id="xtick_13"/>
    <g id="xtick_14"/>
    <g id="xtick_15"/>
   </g>
   <g id="matplotlib.axis_4">
    <g id="ytick_7"/>
    <g id="ytick_8"/>
    <g id="ytick_9"/>
    <g id="ytick_10"/>
    <g id="ytick_11"/>
   </g>
   <g id="line2d_8">
    <path d="M 327.08 210.036933 
L 331.194286 209.941846 
L 335.308571 209.754052 
L 339.422857 209.475952 
L 343.537143 209.109964 
L 347.651429 208.658529 
L 351.765714 208.124112 
L 355.88 207.509201 
L 359.994286 206.81631 
L 364.108571 206.047977 
L 368.222857 205.206767 
L 372.337143 204.29527 
L 376.451429 203.316102 
L 380.565714 202.271902 
L 384.68 201.165333 
L 388.794286 199.999084 
L 392.908571 198.775862 
L 397.022857 197.4984 
L 401.137143 196.169445 
L 405.251429 194.791767 
L 409.365714 193.368152 
L 413.48 191.901402 
L 417.594286 190.394332 
L 421.708571 188.849774 
L 425.822857 187.270568 
L 429.937143 185.659568 
L 434.051429 184.019636 
L 438.165714 182.353643 
L 442.28 180.664467 
L 446.394286 178.954993 
L 450.508571 177.22811 
L 454.622857 175.486714 
L 458.737143 173.733704 
L 462.851429 171.971979 
L 466.965714 170.204445 
L 471.08 168.434004 
L 475.194286 166.663564 
L 479.308571 164.89603 
L 483.422857 163.134305 
L 487.537143 161.381294 
L 491.651429 159.639899 
L 495.765714 157.913016 
L 499.88 156.203542 
L 503.994286 154.514366 
L 508.108571 152.848373 
L 512.222857 151.208441 
L 516.337143 149.597441 
L 520.451429 148.018235 
L 524.565714 146.473677 
L 528.68 144.966607 
L 532.794286 143.499857 
L 536.908571 142.076242 
L 541.022857 140.698564 
L 545.137143 139.369609 
L 549.251429 138.092146 
L 553.365714 136.868925 
L 557.48 135.702676 
L 561.594286 134.596107 
L 565.708571 133.551907 
L 569.822857 132.572738 
L 573.937143 131.661242 
L 578.051429 130.820032 
L 582.165714 130.051699 
L 586.28 129.358808 
L 590.394286 128.743897 
L 594.508571 128.20948 
L 598.622857 127.758045 
L 602.737143 127.392057 
L 606.851429 127.113956 
L 610.965714 126.926163 
L 615.08 126.831075 
" clip-path="url(#p2998bc5ae1)" style="fill: none; stroke: #000000; stroke-width: 3; stroke-linecap: square"/>
   </g>
   <g id="patch_9">
    <path d="M 327.08 272.89125 
L 327.08 28.09125 
" style="fill: none; stroke: #000000; stroke-linejoin: miter; stroke-linecap: square"/>
   </g>
   <g id="patch_10">
    <path d="M 615.08 272.89125 
L 615.08 28.09125 
" style="fill: none; stroke: #000000; stroke-linejoin: miter; stroke-linecap: square"/>
   </g>
   <g id="patch_11">
    <path d="M 327.08 272.89125 
L 615.08 272.89125 
" style="fill: none; stroke: #000000; stroke-linejoin: miter; stroke-linecap: square"/>
   </g>
   <g id="patch_12">
    <path d="M 327.08 28.09125 
L 615.08 28.09125 
" style="fill: none; stroke: #000000; stroke-linejoin: miter; stroke-linecap: square"/>
   </g>
   <g id="text_9">
    <g id="patch_13">
     <path d="M 343.651429 67.276406 
L 405.651429 67.276406 
L 405.651429 50.106094 
L 343.651429 50.106094 
z
" style="fill: #ffffff; opacity: 0.85; stroke: #000000; stroke-linejoin: miter"/>
    </g>
    <text style="font: 10px 'Source Code Pro'; text-anchor: start" x="347.651429" y="61.226406" transform="rotate(-0, 347.651429, 61.226406)">B (5 min)</text>
   </g>
   <g id="legend_1">
    <g id="patch_14">
     <path d="M 153.56 14.83125 
L 177.56 14.83125 
L 177.56 6.43125 
L 153.56 6.43125 
z
" style="fill: #a0a0a0; stroke: #000000; stroke-linejoin: miter"/>
    </g>
    <g id="text_10">
     <!-- above $N_2$ sat. -->
     <g transform="translate(187.16 14.83125)">
      <text>
       <tspan style="font: 12px 'Source Code Pro'" x="0 7.199997 14.399994 21.599991 28.799988 35.999985 43.199982 55.833375 63.033372 70.233369 77.433366 84.633363" y="-0.453125">above N sat.</tspan>
       <tspan style="font: 8.4px 'Source Code Pro'" x="50.501971" y="1.2953124999999996">2</tspan>
      </text>
     </g>
    </g>
    <g id="patch_15">
     <path d="M 303.08 14.83125 
L 327.08 14.83125 
L 327.08 6.43125 
L 303.08 6.43125 
z
" style="fill: #00a6d6; stroke: #000000; stroke-linejoin: miter"/>
    </g>
    <g id="text_11">
     <text style="font: 12px 'Source Code Pro'; text-anchor: start" x="336.68" y="14.83125" transform="rotate(-0, 336.68, 14.83125)">below air eq.</text>
    </g>
    <g id="line2d_9">
     <path d="M 454.28 10.63125 
L 466.28 10.63125 
L 478.28 10.63125 
" style="fill: none; stroke: #000000; stroke-width: 3; stroke-linecap: square"/>
    </g>
    <g id="text_12">
     <!-- $N_2$ -->
     <g transform="translate(487.88 14.83125)">
      <text>
       <tspan style="font: 12px 'Source Code Pro'" x="0" y="-0.125">N</tspan>
       <tspan style="font: 8.4px 'Source Code Pro'" x="7.301989" y="1.6234374999999996">2</tspan>
      </text>
     </g>
    </g>
   </g>
  </g>
  <g id="axes_3">
   <g id="patch_16">
    <path d="M 39.08 517.69125 
L 327.08 517.69125 
L 327.08 272.89125 
L 39.08 272.89125 
z
" style="fill: #ffffff"/>
   </g>
   <g id="PolyCollection_5">
    <defs>
     <path id="m24c677826f" d="M 39.08 -93.994815 
L 39.08 -279.48875 
L 43.194286 -279.48875 
L 47.308571 -279.48875 
L 51.422857 -279.48875 
L 55.537143 -279.48875 
L 59.651429 -279.48875 
L 63.765714 -279.48875 
L 67.88 -279.48875 
L 71.994286 -279.48875 
L 76.108571 -279.48875 
L 80.222857 -279.48875 
L 84.337143 -279.48875 
L 88.451429 -279.48875 
L 92.565714 -279.48875 
L 96.68 -279.48875 
L 100.794286 -279.48875 
L 104.908571 -279.48875 
L 109.022857 -279.48875 
L 113.137143 -279.48875 
L 117.251429 -279.48875 
L 121.365714 -279.48875 
L 125.48 -279.48875 
L 129.594286 -279.48875 
L 133.708571 -279.48875 
L 137.822857 -279.48875 
L 141.937143 -279.48875 
L 146.051429 -279.48875 
L 150.165714 -279.48875 
L 154.28 -279.48875 
L 158.394286 -279.48875 
L 162.508571 -279.48875 
L 166.622857 -279.48875 
L 170.737143 -279.48875 
L 174.851429 -279.48875 
L 178.965714 -279.48875 
L 183.08 -279.48875 
L 187.194286 -279.48875 
L 191.308571 -279.48875 
L 195.422857 -279.48875 
L 199.537143 -279.48875 
L 203.651429 -279.48875 
L 207.765714 -279.48875 
L 211.88 -279.48875 
L 215.994286 -279.48875 
L 220.108571 -279.48875 
L 224.222857 -279.48875 
L 228.337143 -279.48875 
L 232.451429 -279.48875 
L 236.565714 -279.48875 
L 240.68 -279.48875 
L 244.794286 -279.48875 
L 248.908571 -279.48875 
L 253.022857 -279.48875 
L 257.137143 -279.48875 
L 261.251429 -279.48875 
L 265.365714 -279.48875 
L 269.48 -279.48875 
L 273.594286 -279.48875 
L 277.708571 -279.48875 
L 281.822857 -279.48875 
L 285.937143 -279.48875 
L 290.051429 -279.48875 
L 294.165714 -279.48875 
L 298.28 -279.48875 
L 302.394286 -279.48875 
L 306.508571 -279.48875 
L 310.622857 -279.48875 
L 314.737143 -279.48875 
L 318.851429 -279.48875 
L 322.965714 -279.48875 
L 327.08 -279.48875 
L 327.08 -269.203618 
L 327.08 -269.203618 
L 322.965714 -266.700635 
L 318.851429 -264.197652 
L 314.737143 -261.694669 
L 310.622857 -259.191686 
L 306.508571 -256.688703 
L 302.394286 -254.185721 
L 298.28 -251.682738 
L 294.165714 -249.179755 
L 290.051429 -246.676772 
L 285.937143 -244.173789 
L 281.822857 -241.670806 
L 277.708571 -239.167823 
L 273.594286 -236.66484 
L 269.48 -234.161857 
L 265.365714 -231.658874 
L 261.251429 -229.155892 
L 257.137143 -226.652909 
L 253.022857 -224.149926 
L 248.908571 -221.646943 
L 244.794286 -219.14396 
L 240.68 -216.640977 
L 236.565714 -214.137994 
L 232.451429 -211.635011 
L 228.337143 -209.132028 
L 224.222857 -206.629045 
L 220.108571 -204.126063 
L 215.994286 -201.62308 
L 211.88 -199.120097 
L 207.765714 -196.617114 
L 203.651429 -194.114131 
L 199.537143 -191.611148 
L 195.422857 -189.108165 
L 191.308571 -186.605182 
L 187.194286 -184.102199 
L 183.08 -181.599216 
L 178.965714 -179.096234 
L 174.851429 -176.593251 
L 170.737143 -174.090268 
L 166.622857 -171.587285 
L 162.508571 -169.084302 
L 158.394286 -166.581319 
L 154.28 -164.078336 
L 150.165714 -161.575353 
L 146.051429 -159.07237 
L 141.937143 -156.569387 
L 137.822857 -154.066405 
L 133.708571 -151.563422 
L 129.594286 -149.060439 
L 125.48 -146.557456 
L 121.365714 -144.054473 
L 117.251429 -141.55149 
L 113.137143 -139.048507 
L 109.022857 -136.545524 
L 104.908571 -134.042541 
L 100.794286 -131.539559 
L 96.68 -129.036576 
L 92.565714 -126.533593 
L 88.451429 -124.03061 
L 84.337143 -121.527627 
L 80.222857 -119.024644 
L 76.108571 -116.521661 
L 71.994286 -114.018678 
L 67.88 -111.515695 
L 63.765714 -109.012712 
L 59.651429 -106.50973 
L 55.537143 -104.006747 
L 51.422857 -101.503764 
L 47.308571 -99.000781 
L 43.194286 -96.497798 
L 39.08 -93.994815 
z
" style="stroke: #000000"/>
    </defs>
    <g clip-path="url(#pcd4edee18a)">
     <use xlink:href="#m24c677826f" x="0" y="552.38" style="fill: #a0a0a0; stroke: #000000"/>
    </g>
   </g>
   <g id="PolyCollection_6">
    <defs>
     <path id="m9d9334d67f" d="M 39.08 -40.414141 
L 39.08 -34.68875 
L 43.194286 -34.68875 
L 47.308571 -34.68875 
L 51.422857 -34.68875 
L 55.537143 -34.68875 
L 59.651429 -34.68875 
L 63.765714 -34.68875 
L 67.88 -34.68875 
L 71.994286 -34.68875 
L 76.108571 -34.68875 
L 80.222857 -34.68875 
L 84.337143 -34.68875 
L 88.451429 -34.68875 
L 92.565714 -34.68875 
L 96.68 -34.68875 
L 100.794286 -34.68875 
L 104.908571 -34.68875 
L 109.022857 -34.68875 
L 113.137143 -34.68875 
L 117.251429 -34.68875 
L 121.365714 -34.68875 
L 125.48 -34.68875 
L 129.594286 -34.68875 
L 133.708571 -34.68875 
L 137.822857 -34.68875 
L 141.937143 -34.68875 
L 146.051429 -34.68875 
L 150.165714 -34.68875 
L 154.28 -34.68875 
L 158.394286 -34.68875 
L 162.508571 -34.68875 
L 166.622857 -34.68875 
L 170.737143 -34.68875 
L 174.851429 -34.68875 
L 178.965714 -34.68875 
L 183.08 -34.68875 
L 187.194286 -34.68875 
L 191.308571 -34.68875 
L 195.422857 -34.68875 
L 199.537143 -34.68875 
L 203.651429 -34.68875 
L 207.765714 -34.68875 
L 211.88 -34.68875 
L 215.994286 -34.68875 
L 220.108571 -34.68875 
L 224.222857 -34.68875 
L 228.337143 -34.68875 
L 232.451429 -34.68875 
L 236.565714 -34.68875 
L 240.68 -34.68875 
L 244.794286 -34.68875 
L 248.908571 -34.68875 
L 253.022857 -34.68875 
L 257.137143 -34.68875 
L 261.251429 -34.68875 
L 265.365714 -34.68875 
L 269.48 -34.68875 
L 273.594286 -34.68875 
L 277.708571 -34.68875 
L 281.822857 -34.68875 
L 285.937143 -34.68875 
L 290.051429 -34.68875 
L 294.165714 -34.68875 
L 298.28 -34.68875 
L 302.394286 -34.68875 
L 306.508571 -34.68875 
L 310.622857 -34.68875 
L 314.737143 -34.68875 
L 318.851429 -34.68875 
L 322.965714 -34.68875 
L 327.08 -34.68875 
L 327.08 -178.829096 
L 327.08 -178.829096 
L 322.965714 -176.851739 
L 318.851429 -174.874383 
L 314.737143 -172.897026 
L 310.622857 -170.91967 
L 306.508571 -168.942313 
L 302.394286 -166.964957 
L 298.28 -164.9876 
L 294.165714 -163.010244 
L 290.051429 -161.032887 
L 285.937143 -159.055531 
L 281.822857 -157.078174 
L 277.708571 -155.100818 
L 273.594286 -153.123461 
L 269.48 -151.146105 
L 265.365714 -149.168748 
L 261.251429 -147.191392 
L 257.137143 -145.214035 
L 253.022857 -143.236679 
L 248.908571 -141.259322 
L 244.794286 -139.281966 
L 240.68 -137.304609 
L 236.565714 -135.327253 
L 232.451429 -133.349896 
L 228.337143 -131.37254 
L 224.222857 -129.395183 
L 220.108571 -127.417827 
L 215.994286 -125.44047 
L 211.88 -123.463114 
L 207.765714 -121.485757 
L 203.651429 -119.508401 
L 199.537143 -117.531044 
L 195.422857 -115.553688 
L 191.308571 -113.576331 
L 187.194286 -111.598975 
L 183.08 -109.621619 
L 178.965714 -107.644262 
L 174.851429 -105.666906 
L 170.737143 -103.689549 
L 166.622857 -101.712193 
L 162.508571 -99.734836 
L 158.394286 -97.75748 
L 154.28 -95.780123 
L 150.165714 -93.802767 
L 146.051429 -91.82541 
L 141.937143 -89.848054 
L 137.822857 -87.870697 
L 133.708571 -85.893341 
L 129.594286 -83.915984 
L 125.48 -81.938628 
L 121.365714 -79.961271 
L 117.251429 -77.983915 
L 113.137143 -76.006558 
L 109.022857 -74.029202 
L 104.908571 -72.051845 
L 100.794286 -70.074489 
L 96.68 -68.097132 
L 92.565714 -66.119776 
L 88.451429 -64.142419 
L 84.337143 -62.165063 
L 80.222857 -60.187706 
L 76.108571 -58.21035 
L 71.994286 -56.232993 
L 67.88 -54.255637 
L 63.765714 -52.27828 
L 59.651429 -50.300924 
L 55.537143 -48.323567 
L 51.422857 -46.346211 
L 47.308571 -44.368854 
L 43.194286 -42.391498 
L 39.08 -40.414141 
z
" style="stroke: #000000"/>
    </defs>
    <g clip-path="url(#pcd4edee18a)">
     <use xlink:href="#m9d9334d67f" x="0" y="552.38" style="fill: #00a6d6; stroke: #000000"/>
    </g>
   </g>
   <g id="matplotlib.axis_5">
    <g id="xtick_16">
     <g id="line2d_10">
      <defs>
       <path id="m639b232244" d="M 0 0 
L 0 3.5 
" style="stroke: #000000"/>
      </defs>
      <g>
       <use xlink:href="#m639b232244" x="39.08" y="517.69125" style="stroke: #000000"/>
      </g>
     </g>
     <g id="text_13">
      <text style="font: 12px 'Source Code Pro'; text-anchor: middle" x="39.08" y="533.235625" transform="rotate(-0, 39.08, 533.235625)">0</text>
     </g>
    </g>
    <g id="xtick_17">
     <g id="line2d_11">
      <g>
       <use xlink:href="#m639b232244" x="80.222857" y="517.69125" style="stroke: #000000"/>
      </g>
     </g>
     <g id="text_14">
      <text style="font: 12px 'Source Code Pro'; text-anchor: middle" x="80.222857" y="533.235625" transform="rotate(-0, 80.222857, 533.235625)">1</text>
     </g>
    </g>
    <g id="xtick_18">
     <g id="line2d_12">
      <g>
       <use xlink:href="#m639b232244" x="121.365714" y="517.69125" style="stroke: #000000"/>
      </g>
     </g>
     <g id="text_15">
      <text style="font: 12px 'Source Code Pro'; text-anchor: middle" x="121.365714" y="533.235625" transform="rotate(-0, 121.365714, 533.235625)">2</text>
     </g>
    </g>
    <g id="xtick_19">
     <g id="line2d_13">
      <g>
       <use xlink:href="#m639b232244" x="162.508571" y="517.69125" style="stroke: #000000"/>
      </g>
     </g>
     <g id="text_16">
      <text style="font: 12px 'Source Code Pro'; text-anchor: middle" x="162.508571" y="533.235625" transform="rotate(-0, 162.508571, 533.235625)">3</text>
     </g>
    </g>
    <g id="xtick_20">
     <g id="line2d_14">
      <g>
       <use xlink:href="#m639b232244" x="203.651429" y="517.69125" style="stroke: #000000"/>
      </g>
     </g>
     <g id="text_17">
      <text style="font: 12px 'Source Code Pro'; text-anchor: middle" x="203.651429" y="533.235625" transform="rotate(-0, 203.651429, 533.235625)">4</text>
     </g>
    </g>
    <g id="xtick_21">
     <g id="line2d_15">
      <g>
       <use xlink:href="#m639b232244" x="244.794286" y="517.69125" style="stroke: #000000"/>
      </g>
     </g>
     <g id="text_18">
      <text style="font: 12px 'Source Code Pro'; text-anchor: middle" x="244.794286" y="533.235625" transform="rotate(-0, 244.794286, 533.235625)">5</text>
     </g>
    </g>
    <g id="xtick_22">
     <g id="line2d_16">
      <g>
       <use xlink:href="#m639b232244" x="285.937143" y="517.69125" style="stroke: #000000"/>
      </g>
     </g>
     <g id="text_19">
      <text style="font: 12px 'Source Code Pro'; text-anchor: middle" x="285.937143" y="533.235625" transform="rotate(-0, 285.937143, 533.235625)">6</text>
     </g>
    </g>
    <g id="text_20">
     <text style="font: 12px 'Source Code Pro'; text-anchor: middle" x="183.08" y="548.48" transform="rotate(-0, 183.08, 548.48)">reactor depth (m)</text>
    </g>
   </g>
   <g id="matplotlib.axis_6">
    <g id="ytick_12">
     <g id="line2d_17">
      <g>
       <use xlink:href="#m9c7655b33f" x="39.08" y="517.69125" style="stroke: #000000"/>
      </g>
     </g>
     <g id="text_21">
      <text style="font: 12px 'Source Code Pro'; text-anchor: end" x="32.08" y="521.963437" transform="rotate(-0, 32.08, 521.963437)">16</text>
     </g>
    </g>
    <g id="ytick_13">
     <g id="line2d_18">
      <g>
       <use xlink:href="#m9c7655b33f" x="39.08" y="468.73125" style="stroke: #000000"/>
      </g>
     </g>
     <g id="text_22">
      <text style="font: 12px 'Source Code Pro'; text-anchor: end" x="32.08" y="473.003437" transform="rotate(-0, 32.08, 473.003437)">20</text>
     </g>
    </g>
    <g id="ytick_14">
     <g id="line2d_19">
      <g>
       <use xlink:href="#m9c7655b33f" x="39.08" y="419.77125" style="stroke: #000000"/>
      </g>
     </g>
     <g id="text_23">
      <text style="font: 12px 'Source Code Pro'; text-anchor: end" x="32.08" y="424.043437" transform="rotate(-0, 32.08, 424.043437)">24</text>
     </g>
    </g>
    <g id="ytick_15">
     <g id="line2d_20">
      <g>
       <use xlink:href="#m9c7655b33f" x="39.08" y="370.81125" style="stroke: #000000"/>
      </g>
     </g>
     <g id="text_24">
      <text style="font: 12px 'Source Code Pro'; text-anchor: end" x="32.08" y="375.083437" transform="rotate(-0, 32.08, 375.083437)">28</text>
     </g>
    </g>
    <g id="ytick_16">
     <g id="line2d_21">
      <g>
       <use xlink:href="#m9c7655b33f" x="39.08" y="321.85125" style="stroke: #000000"/>
      </g>
     </g>
     <g id="text_25">
      <text style="font: 12px 'Source Code Pro'; text-anchor: end" x="32.08" y="326.123437" transform="rotate(-0, 32.08, 326.123437)">32</text>
     </g>
    </g>
    <g id="text_26">
     <!-- $conc.\ (mg\ L^{-1})$ -->
     <g transform="translate(10.92 439.69125)rotate(-90)">
      <text>
       <tspan style="font: 12px 'Source Code Pro'" x="0 7.199997 14.399994 21.599991 28.799988 39.839959 47.039956 54.239953 63.839925 81.513316" y="-0.5609375000000014">conc.(mgL)</tspan>
       <tspan style="font: 8.4px 'Source Code Pro'" x="71.141914 76.181912" y="-4.640625000000001">−1</tspan>
      </text>
     </g>
    </g>
   </g>
   <g id="line2d_22">
    <path d="M 39.08 458.402872 
L 43.194286 458.340733 
L 47.308571 458.218765 
L 51.422857 458.039224 
L 55.537143 457.804314 
L 59.651429 457.516193 
L 63.765714 457.176971 
L 67.88 456.788716 
L 71.994286 456.353452 
L 76.108571 455.873167 
L 80.222857 455.349809 
L 84.337143 454.785295 
L 88.451429 454.181504 
L 92.565714 453.540287 
L 96.68 452.863465 
L 100.794286 452.152831 
L 104.908571 451.410152 
L 109.022857 450.63717 
L 113.137143 449.835606 
L 117.251429 449.007159 
L 121.365714 448.153506 
L 125.48 447.276309 
L 129.594286 446.377211 
L 133.708571 445.45784 
L 137.822857 444.519808 
L 141.937143 443.564716 
L 146.051429 442.594152 
L 150.165714 441.609693 
L 154.28 440.612908 
L 158.394286 439.605354 
L 162.508571 438.588584 
L 166.622857 437.564144 
L 170.737143 436.533574 
L 174.851429 435.498409 
L 178.965714 434.460184 
L 183.08 433.420428 
L 187.194286 432.380673 
L 191.308571 431.342447 
L 195.422857 430.307283 
L 199.537143 429.276713 
L 203.651429 428.252272 
L 207.765714 427.235503 
L 211.88 426.227949 
L 215.994286 425.231163 
L 220.108571 424.246704 
L 224.222857 423.27614 
L 228.337143 422.321049 
L 232.451429 421.383017 
L 236.565714 420.463645 
L 240.68 419.564547 
L 244.794286 418.68735 
L 248.908571 417.833698 
L 253.022857 417.00525 
L 257.137143 416.203686 
L 261.251429 415.430705 
L 265.365714 414.688026 
L 269.48 413.977392 
L 273.594286 413.30057 
L 277.708571 412.659353 
L 281.822857 412.055562 
L 285.937143 411.491047 
L 290.051429 410.96769 
L 294.165714 410.487405 
L 298.28 410.052141 
L 302.394286 409.663885 
L 306.508571 409.324663 
L 310.622857 409.036542 
L 314.737143 408.801633 
L 318.851429 408.622091 
L 322.965714 408.500123 
L 327.08 408.437984 
" clip-path="url(#pcd4edee18a)" style="fill: none; stroke: #000000; stroke-width: 3; stroke-linecap: square"/>
   </g>
   <g id="patch_17">
    <path d="M 39.08 517.69125 
L 39.08 272.89125 
" style="fill: none; stroke: #000000; stroke-linejoin: miter; stroke-linecap: square"/>
   </g>
   <g id="patch_18">
    <path d="M 327.08 517.69125 
L 327.08 272.89125 
" style="fill: none; stroke: #000000; stroke-linejoin: miter; stroke-linecap: square"/>
   </g>
   <g id="patch_19">
    <path d="M 39.08 517.69125 
L 327.08 517.69125 
" style="fill: none; stroke: #000000; stroke-linejoin: miter; stroke-linecap: square"/>
   </g>
   <g id="patch_20">
    <path d="M 39.08 272.89125 
L 327.08 272.89125 
" style="fill: none; stroke: #000000; stroke-linejoin: miter; stroke-linecap: square"/>
   </g>
   <g id="text_27">
    <g id="patch_21">
     <path d="M 55.651429 312.076406 
L 123.651429 312.076406 
L 123.651429 294.906094 
L 55.651429 294.906094 
z
" style="fill: #ffffff; opacity: 0.85; stroke: #000000; stroke-linejoin: miter"/>
    </g>
    <text style="font: 10px 'Source Code Pro'; text-anchor: start" x="59.651429" y="306.026406" transform="rotate(-0, 59.651429, 306.026406)">C (15 min)</text>
   </g>
  </g>
  <g id="axes_4">
   <g id="patch_22">
    <path d="M 327.08 517.69125 
L 615.08 517.69125 
L 615.08 272.89125 
L 327.08 272.89125 
z
" style="fill: #ffffff"/>
   </g>
   <g id="PolyCollection_7">
    <defs>
     <path id="m3a0e5cf9b4" d="M 327.08 -93.994815 
L 327.08 -279.48875 
L 331.194286 -279.48875 
L 335.308571 -279.48875 
L 339.422857 -279.48875 
L 343.537143 -279.48875 
L 347.651429 -279.48875 
L 351.765714 -279.48875 
L 355.88 -279.48875 
L 359.994286 -279.48875 
L 364.108571 -279.48875 
L 368.222857 -279.48875 
L 372.337143 -279.48875 
L 376.451429 -279.48875 
L 380.565714 -279.48875 
L 384.68 -279.48875 
L 388.794286 -279.48875 
L 392.908571 -279.48875 
L 397.022857 -279.48875 
L 401.137143 -279.48875 
L 405.251429 -279.48875 
L 409.365714 -279.48875 
L 413.48 -279.48875 
L 417.594286 -279.48875 
L 421.708571 -279.48875 
L 425.822857 -279.48875 
L 429.937143 -279.48875 
L 434.051429 -279.48875 
L 438.165714 -279.48875 
L 442.28 -279.48875 
L 446.394286 -279.48875 
L 450.508571 -279.48875 
L 454.622857 -279.48875 
L 458.737143 -279.48875 
L 462.851429 -279.48875 
L 466.965714 -279.48875 
L 471.08 -279.48875 
L 475.194286 -279.48875 
L 479.308571 -279.48875 
L 483.422857 -279.48875 
L 487.537143 -279.48875 
L 491.651429 -279.48875 
L 495.765714 -279.48875 
L 499.88 -279.48875 
L 503.994286 -279.48875 
L 508.108571 -279.48875 
L 512.222857 -279.48875 
L 516.337143 -279.48875 
L 520.451429 -279.48875 
L 524.565714 -279.48875 
L 528.68 -279.48875 
L 532.794286 -279.48875 
L 536.908571 -279.48875 
L 541.022857 -279.48875 
L 545.137143 -279.48875 
L 549.251429 -279.48875 
L 553.365714 -279.48875 
L 557.48 -279.48875 
L 561.594286 -279.48875 
L 565.708571 -279.48875 
L 569.822857 -279.48875 
L 573.937143 -279.48875 
L 578.051429 -279.48875 
L 582.165714 -279.48875 
L 586.28 -279.48875 
L 590.394286 -279.48875 
L 594.508571 -279.48875 
L 598.622857 -279.48875 
L 602.737143 -279.48875 
L 606.851429 -279.48875 
L 610.965714 -279.48875 
L 615.08 -279.48875 
L 615.08 -269.203618 
L 615.08 -269.203618 
L 610.965714 -266.700635 
L 606.851429 -264.197652 
L 602.737143 -261.694669 
L 598.622857 -259.191686 
L 594.508571 -256.688703 
L 590.394286 -254.185721 
L 586.28 -251.682738 
L 582.165714 -249.179755 
L 578.051429 -246.676772 
L 573.937143 -244.173789 
L 569.822857 -241.670806 
L 565.708571 -239.167823 
L 561.594286 -236.66484 
L 557.48 -234.161857 
L 553.365714 -231.658874 
L 549.251429 -229.155892 
L 545.137143 -226.652909 
L 541.022857 -224.149926 
L 536.908571 -221.646943 
L 532.794286 -219.14396 
L 528.68 -216.640977 
L 524.565714 -214.137994 
L 520.451429 -211.635011 
L 516.337143 -209.132028 
L 512.222857 -206.629045 
L 508.108571 -204.126063 
L 503.994286 -201.62308 
L 499.88 -199.120097 
L 495.765714 -196.617114 
L 491.651429 -194.114131 
L 487.537143 -191.611148 
L 483.422857 -189.108165 
L 479.308571 -186.605182 
L 475.194286 -184.102199 
L 471.08 -181.599216 
L 466.965714 -179.096234 
L 462.851429 -176.593251 
L 458.737143 -174.090268 
L 454.622857 -171.587285 
L 450.508571 -169.084302 
L 446.394286 -166.581319 
L 442.28 -164.078336 
L 438.165714 -161.575353 
L 434.051429 -159.07237 
L 429.937143 -156.569387 
L 425.822857 -154.066405 
L 421.708571 -151.563422 
L 417.594286 -149.060439 
L 413.48 -146.557456 
L 409.365714 -144.054473 
L 405.251429 -141.55149 
L 401.137143 -139.048507 
L 397.022857 -136.545524 
L 392.908571 -134.042541 
L 388.794286 -131.539559 
L 384.68 -129.036576 
L 380.565714 -126.533593 
L 376.451429 -124.03061 
L 372.337143 -121.527627 
L 368.222857 -119.024644 
L 364.108571 -116.521661 
L 359.994286 -114.018678 
L 355.88 -111.515695 
L 351.765714 -109.012712 
L 347.651429 -106.50973 
L 343.537143 -104.006747 
L 339.422857 -101.503764 
L 335.308571 -99.000781 
L 331.194286 -96.497798 
L 327.08 -93.994815 
z
" style="stroke: #000000"/>
    </defs>
    <g clip-path="url(#pc0c2e6caf0)">
     <use xlink:href="#m3a0e5cf9b4" x="0" y="552.38" style="fill: #a0a0a0; stroke: #000000"/>
    </g>
   </g>
   <g id="PolyCollection_8">
    <defs>
     <path id="m9930fe3b67" d="M 327.08 -40.414141 
L 327.08 -34.68875 
L 331.194286 -34.68875 
L 335.308571 -34.68875 
L 339.422857 -34.68875 
L 343.537143 -34.68875 
L 347.651429 -34.68875 
L 351.765714 -34.68875 
L 355.88 -34.68875 
L 359.994286 -34.68875 
L 364.108571 -34.68875 
L 368.222857 -34.68875 
L 372.337143 -34.68875 
L 376.451429 -34.68875 
L 380.565714 -34.68875 
L 384.68 -34.68875 
L 388.794286 -34.68875 
L 392.908571 -34.68875 
L 397.022857 -34.68875 
L 401.137143 -34.68875 
L 405.251429 -34.68875 
L 409.365714 -34.68875 
L 413.48 -34.68875 
L 417.594286 -34.68875 
L 421.708571 -34.68875 
L 425.822857 -34.68875 
L 429.937143 -34.68875 
L 434.051429 -34.68875 
L 438.165714 -34.68875 
L 442.28 -34.68875 
L 446.394286 -34.68875 
L 450.508571 -34.68875 
L 454.622857 -34.68875 
L 458.737143 -34.68875 
L 462.851429 -34.68875 
L 466.965714 -34.68875 
L 471.08 -34.68875 
L 475.194286 -34.68875 
L 479.308571 -34.68875 
L 483.422857 -34.68875 
L 487.537143 -34.68875 
L 491.651429 -34.68875 
L 495.765714 -34.68875 
L 499.88 -34.68875 
L 503.994286 -34.68875 
L 508.108571 -34.68875 
L 512.222857 -34.68875 
L 516.337143 -34.68875 
L 520.451429 -34.68875 
L 524.565714 -34.68875 
L 528.68 -34.68875 
L 532.794286 -34.68875 
L 536.908571 -34.68875 
L 541.022857 -34.68875 
L 545.137143 -34.68875 
L 549.251429 -34.68875 
L 553.365714 -34.68875 
L 557.48 -34.68875 
L 561.594286 -34.68875 
L 565.708571 -34.68875 
L 569.822857 -34.68875 
L 573.937143 -34.68875 
L 578.051429 -34.68875 
L 582.165714 -34.68875 
L 586.28 -34.68875 
L 590.394286 -34.68875 
L 594.508571 -34.68875 
L 598.622857 -34.68875 
L 602.737143 -34.68875 
L 606.851429 -34.68875 
L 610.965714 -34.68875 
L 615.08 -34.68875 
L 615.08 -178.829096 
L 615.08 -178.829096 
L 610.965714 -176.851739 
L 606.851429 -174.874383 
L 602.737143 -172.897026 
L 598.622857 -170.91967 
L 594.508571 -168.942313 
L 590.394286 -166.964957 
L 586.28 -164.9876 
L 582.165714 -163.010244 
L 578.051429 -161.032887 
L 573.937143 -159.055531 
L 569.822857 -157.078174 
L 565.708571 -155.100818 
L 561.594286 -153.123461 
L 557.48 -151.146105 
L 553.365714 -149.168748 
L 549.251429 -147.191392 
L 545.137143 -145.214035 
L 541.022857 -143.236679 
L 536.908571 -141.259322 
L 532.794286 -139.281966 
L 528.68 -137.304609 
L 524.565714 -135.327253 
L 520.451429 -133.349896 
L 516.337143 -131.37254 
L 512.222857 -129.395183 
L 508.108571 -127.417827 
L 503.994286 -125.44047 
L 499.88 -123.463114 
L 495.765714 -121.485757 
L 491.651429 -119.508401 
L 487.537143 -117.531044 
L 483.422857 -115.553688 
L 479.308571 -113.576331 
L 475.194286 -111.598975 
L 471.08 -109.621619 
L 466.965714 -107.644262 
L 462.851429 -105.666906 
L 458.737143 -103.689549 
L 454.622857 -101.712193 
L 450.508571 -99.734836 
L 446.394286 -97.75748 
L 442.28 -95.780123 
L 438.165714 -93.802767 
L 434.051429 -91.82541 
L 429.937143 -89.848054 
L 425.822857 -87.870697 
L 421.708571 -85.893341 
L 417.594286 -83.915984 
L 413.48 -81.938628 
L 409.365714 -79.961271 
L 405.251429 -77.983915 
L 401.137143 -76.006558 
L 397.022857 -74.029202 
L 392.908571 -72.051845 
L 388.794286 -70.074489 
L 384.68 -68.097132 
L 380.565714 -66.119776 
L 376.451429 -64.142419 
L 372.337143 -62.165063 
L 368.222857 -60.187706 
L 364.108571 -58.21035 
L 359.994286 -56.232993 
L 355.88 -54.255637 
L 351.765714 -52.27828 
L 347.651429 -50.300924 
L 343.537143 -48.323567 
L 339.422857 -46.346211 
L 335.308571 -44.368854 
L 331.194286 -42.391498 
L 327.08 -40.414141 
z
" style="stroke: #000000"/>
    </defs>
    <g clip-path="url(#pc0c2e6caf0)">
     <use xlink:href="#m9930fe3b67" x="0" y="552.38" style="fill: #00a6d6; stroke: #000000"/>
    </g>
   </g>
   <g id="matplotlib.axis_7">
    <g id="xtick_23">
     <g id="line2d_23">
      <g>
       <use xlink:href="#m639b232244" x="327.08" y="517.69125" style="stroke: #000000"/>
      </g>
     </g>
     <g id="text_28">
      <text style="font: 12px 'Source Code Pro'; text-anchor: middle" x="327.08" y="533.235625" transform="rotate(-0, 327.08, 533.235625)">0</text>
     </g>
    </g>
    <g id="xtick_24">
     <g id="line2d_24">
      <g>
       <use xlink:href="#m639b232244" x="368.222857" y="517.69125" style="stroke: #000000"/>
      </g>
     </g>
     <g id="text_29">
      <text style="font: 12px 'Source Code Pro'; text-anchor: middle" x="368.222857" y="533.235625" transform="rotate(-0, 368.222857, 533.235625)">1</text>
     </g>
    </g>
    <g id="xtick_25">
     <g id="line2d_25">
      <g>
       <use xlink:href="#m639b232244" x="409.365714" y="517.69125" style="stroke: #000000"/>
      </g>
     </g>
     <g id="text_30">
      <text style="font: 12px 'Source Code Pro'; text-anchor: middle" x="409.365714" y="533.235625" transform="rotate(-0, 409.365714, 533.235625)">2</text>
     </g>
    </g>
    <g id="xtick_26">
     <g id="line2d_26">
      <g>
       <use xlink:href="#m639b232244" x="450.508571" y="517.69125" style="stroke: #000000"/>
      </g>
     </g>
     <g id="text_31">
      <text style="font: 12px 'Source Code Pro'; text-anchor: middle" x="450.508571" y="533.235625" transform="rotate(-0, 450.508571, 533.235625)">3</text>
     </g>
    </g>
    <g id="xtick_27">
     <g id="line2d_27">
      <g>
       <use xlink:href="#m639b232244" x="491.651429" y="517.69125" style="stroke: #000000"/>
      </g>
     </g>
     <g id="text_32">
      <text style="font: 12px 'Source Code Pro'; text-anchor: middle" x="491.651429" y="533.235625" transform="rotate(-0, 491.651429, 533.235625)">4</text>
     </g>
    </g>
    <g id="xtick_28">
     <g id="line2d_28">
      <g>
       <use xlink:href="#m639b232244" x="532.794286" y="517.69125" style="stroke: #000000"/>
      </g>
     </g>
     <g id="text_33">
      <text style="font: 12px 'Source Code Pro'; text-anchor: middle" x="532.794286" y="533.235625" transform="rotate(-0, 532.794286, 533.235625)">5</text>
     </g>
    </g>
    <g id="xtick_29">
     <g id="line2d_29">
      <g>
       <use xlink:href="#m639b232244" x="573.937143" y="517.69125" style="stroke: #000000"/>
      </g>
     </g>
     <g id="text_34">
      <text style="font: 12px 'Source Code Pro'; text-anchor: middle" x="573.937143" y="533.235625" transform="rotate(-0, 573.937143, 533.235625)">6</text>
     </g>
    </g>
    <g id="xtick_30">
     <g id="line2d_30">
      <g>
       <use xlink:href="#m639b232244" x="615.08" y="517.69125" style="stroke: #000000"/>
      </g>
     </g>
     <g id="text_35">
      <text style="font: 12px 'Source Code Pro'; text-anchor: middle" x="615.08" y="533.235625" transform="rotate(-0, 615.08, 533.235625)">7</text>
     </g>
    </g>
    <g id="text_36">
     <text style="font: 12px 'Source Code Pro'; text-anchor: middle" x="471.08" y="548.48" transform="rotate(-0, 471.08, 548.48)">reactor depth (m)</text>
    </g>
   </g>
   <g id="matplotlib.axis_8">
    <g id="ytick_17"/>
    <g id="ytick_18"/>
    <g id="ytick_19"/>
    <g id="ytick_20"/>
    <g id="ytick_21"/>
   </g>
   <g id="line2d_31">
    <path d="M 327.08 458.969686 
L 331.194286 458.913272 
L 335.308571 458.802742 
L 339.422857 458.640329 
L 343.537143 458.428206 
L 347.651429 458.168484 
L 351.765714 457.863218 
L 355.88 457.514409 
L 359.994286 457.124006 
L 364.108571 456.693907 
L 368.222857 456.225963 
L 372.337143 455.721981 
L 376.451429 455.183724 
L 380.565714 454.612912 
L 384.68 454.01123 
L 388.794286 453.380323 
L 392.908571 452.721802 
L 397.022857 452.037245 
L 401.137143 451.328199 
L 405.251429 450.596182 
L 409.365714 449.842683 
L 413.48 449.069168 
L 417.594286 448.277076 
L 421.708571 447.467825 
L 425.822857 446.642813 
L 429.937143 445.80342 
L 434.051429 444.951006 
L 438.165714 444.086918 
L 442.28 443.212488 
L 446.394286 442.329035 
L 450.508571 441.437868 
L 454.622857 440.540288 
L 458.737143 439.637585 
L 462.851429 438.731046 
L 466.965714 437.821952 
L 471.08 436.911582 
L 475.194286 436.001212 
L 479.308571 435.092118 
L 483.422857 434.185579 
L 487.537143 433.282876 
L 491.651429 432.385296 
L 495.765714 431.494129 
L 499.88 430.610676 
L 503.994286 429.736246 
L 508.108571 428.872158 
L 512.222857 428.019744 
L 516.337143 427.180351 
L 520.451429 426.355339 
L 524.565714 425.546088 
L 528.68 424.753996 
L 532.794286 423.980481 
L 536.908571 423.226982 
L 541.022857 422.494965 
L 545.137143 421.785919 
L 549.251429 421.101362 
L 553.365714 420.442841 
L 557.48 419.811934 
L 561.594286 419.210252 
L 565.708571 418.63944 
L 569.822857 418.101183 
L 573.937143 417.597201 
L 578.051429 417.129257 
L 582.165714 416.699158 
L 586.28 416.308755 
L 590.394286 415.959946 
L 594.508571 415.65468 
L 598.622857 415.394958 
L 602.737143 415.182835 
L 606.851429 415.020422 
L 610.965714 414.909892 
L 615.08 414.853478 
" clip-path="url(#pc0c2e6caf0)" style="fill: none; stroke: #000000; stroke-width: 3; stroke-linecap: square"/>
   </g>
   <g id="patch_23">
    <path d="M 327.08 517.69125 
L 327.08 272.89125 
" style="fill: none; stroke: #000000; stroke-linejoin: miter; stroke-linecap: square"/>
   </g>
   <g id="patch_24">
    <path d="M 615.08 517.69125 
L 615.08 272.89125 
" style="fill: none; stroke: #000000; stroke-linejoin: miter; stroke-linecap: square"/>
   </g>
   <g id="patch_25">
    <path d="M 327.08 517.69125 
L 615.08 517.69125 
" style="fill: none; stroke: #000000; stroke-linejoin: miter; stroke-linecap: square"/>
   </g>
   <g id="patch_26">
    <path d="M 327.08 272.89125 
L 615.08 272.89125 
" style="fill: none; stroke: #000000; stroke-linejoin: miter; stroke-linecap: square"/>
   </g>
   <g id="text_37">
    <g id="patch_27">
     <path d="M 343.651429 312.076406 
L 411.651429 312.076406 
L 411.651429 294.906094 
L 343.651429 294.906094 
z
" style="fill: #ffffff; opacity: 0.85; stroke: #000000; stroke-linejoin: miter"/>
    </g>
    <text style="font: 10px 'Source Code Pro'; text-anchor: start" x="347.651429" y="306.026406" transform="rotate(-0, 347.651429, 306.026406)">D (60 min)</text>
   </g>
  </g>
 </g>
 <defs>
  <clipPath id="p79dfd09417">
   <rect x="39.08" y="28.09125" width="288" height="244.8"/>
  </clipPath>
  <clipPath id="p2998bc5ae1">
   <rect x="327.08" y="28.09125" width="288" height="244.8"/>
  </clipPath>
  <clipPath id="pcd4edee18a">
   <rect x="39.08" y="272.89125" width="288" height="244.8"/>
  </clipPath>
  <clipPath id="pc0c2e6caf0">
   <rect x="327.08" y="272.89125" width="288" height="244.8"/>
  </clipPath>
 </defs>
</svg>
