<?xml version="1.0" encoding="utf-8" standalone="no"?>
<!DOCTYPE svg PUBLIC "-//W3C//DTD SVG 1.1//EN"
  "http://www.w3.org/Graphics/SVG/1.1/DTD/svg11.dtd">
<svg xmlns:xlink="http://www.w3.org/1999/xlink" width="691.379493pt" height="238.755364pt" viewBox="0 0 691.379493 238.755364" xmlns="http://www.w3.org/2000/svg" version="1.1">
 <metadata>
  <rdf:RDF xmlns:dc="http://purl.org/dc/elements/1.1/" xmlns:cc="http://creativecommons.org/ns#" xmlns:rdf="http://www.w3.org/1999/02/22-rdf-syntax-ns#">
   <cc:Work>
    <dc:type rdf:resource="http://purl.org/dc/dcmitype/StillImage"/>
    <dc:date>2022-10-07T11:50:48.949593</dc:date>
    <dc:format>image/svg+xml</dc:format>
    <dc:creator>
     <cc:Agent>
      <dc:title>Matplotlib v3.5.2, https://matplotlib.org/</dc:title>
     </cc:Agent>
    </dc:creator>
   </cc:Work>
  </rdf:RDF>
 </metadata>
 <defs>
  <style type="text/css">*{stroke-linejoin: round; stroke-linecap: butt}</style>
 </defs>
 <g id="figure_1">
  <g id="patch_1">
   <path d="M 0 238.755364 
L 691.379493 238.755364 
L 691.379493 0 
L 0 0 
z
" style="fill: #ffffff"/>
  </g>
  <g id="axes_1">
   <g id="patch_2">
    <path d="M 30.884375 203.070989 
L 140.726895 203.070989 
L 140.726895 15.984375 
L 30.884375 15.984375 
z
" style="fill: #ffffff"/>
   </g>
   <g id="matplotlib.axis_1">
    <g id="xtick_1">
     <g id="line2d_1">
      <path d="M 30.884375 203.070989 
L 30.884375 15.984375 
" clip-path="url(#pc615bc998d)" style="fill: none; stroke: #dddddd; stroke-linecap: square"/>
     </g>
     <g id="line2d_2">
      <defs>
       <path id="mbbb049766c" d="M 0 0 
L 0 3.5 
" style="stroke: #000000"/>
      </defs>
      <g>
       <use xlink:href="#mbbb049766c" x="30.884375" y="203.070989" style="stroke: #000000"/>
      </g>
     </g>
     <g id="text_1">
      <text style="font: 12px 'Source Code Pro'; text-anchor: middle" x="30.884375" y="218.615364" transform="rotate(-0, 30.884375, 218.615364)">0</text>
     </g>
    </g>
    <g id="xtick_2">
     <g id="line2d_3">
      <path d="M 52.852879 203.070989 
L 52.852879 15.984375 
" clip-path="url(#pc615bc998d)" style="fill: none; stroke: #dddddd; stroke-linecap: square"/>
     </g>
     <g id="line2d_4">
      <g>
       <use xlink:href="#mbbb049766c" x="52.852879" y="203.070989" style="stroke: #000000"/>
      </g>
     </g>
     <g id="text_2">
      <text style="font: 12px 'Source Code Pro'; text-anchor: middle" x="52.852879" y="218.615364" transform="rotate(-0, 52.852879, 218.615364)">2</text>
     </g>
    </g>
    <g id="xtick_3">
     <g id="line2d_5">
      <path d="M 74.821383 203.070989 
L 74.821383 15.984375 
" clip-path="url(#pc615bc998d)" style="fill: none; stroke: #dddddd; stroke-linecap: square"/>
     </g>
     <g id="line2d_6">
      <g>
       <use xlink:href="#mbbb049766c" x="74.821383" y="203.070989" style="stroke: #000000"/>
      </g>
     </g>
     <g id="text_3">
      <text style="font: 12px 'Source Code Pro'; text-anchor: middle" x="74.821383" y="218.615364" transform="rotate(-0, 74.821383, 218.615364)">4</text>
     </g>
    </g>
    <g id="xtick_4">
     <g id="line2d_7">
      <path d="M 96.789887 203.070989 
L 96.789887 15.984375 
" clip-path="url(#pc615bc998d)" style="fill: none; stroke: #dddddd; stroke-linecap: square"/>
     </g>
     <g id="line2d_8">
      <g>
       <use xlink:href="#mbbb049766c" x="96.789887" y="203.070989" style="stroke: #000000"/>
      </g>
     </g>
     <g id="text_4">
      <text style="font: 12px 'Source Code Pro'; text-anchor: middle" x="96.789887" y="218.615364" transform="rotate(-0, 96.789887, 218.615364)">6</text>
     </g>
    </g>
    <g id="xtick_5">
     <g id="line2d_9">
      <path d="M 118.758391 203.070989 
L 118.758391 15.984375 
" clip-path="url(#pc615bc998d)" style="fill: none; stroke: #dddddd; stroke-linecap: square"/>
     </g>
     <g id="line2d_10">
      <g>
       <use xlink:href="#mbbb049766c" x="118.758391" y="203.070989" style="stroke: #000000"/>
      </g>
     </g>
     <g id="text_5">
      <text style="font: 12px 'Source Code Pro'; text-anchor: middle" x="118.758391" y="218.615364" transform="rotate(-0, 118.758391, 218.615364)">8</text>
     </g>
    </g>
   </g>
   <g id="matplotlib.axis_2">
    <g id="ytick_1">
     <g id="line2d_11">
      <path d="M 30.884375 15.984375 
L 140.726895 15.984375 
" clip-path="url(#pc615bc998d)" style="fill: none; stroke: #dddddd; stroke-linecap: square"/>
     </g>
     <g id="line2d_12">
      <defs>
       <path id="mce75613e01" d="M 0 0 
L -3.5 0 
" style="stroke: #000000"/>
      </defs>
      <g>
       <use xlink:href="#mce75613e01" x="30.884375" y="15.984375" style="stroke: #000000"/>
      </g>
     </g>
     <g id="text_6">
      <text style="font: 12px 'Source Code Pro'; text-anchor: end" x="23.884375" y="20.256562" transform="rotate(-0, 23.884375, 20.256562)">0</text>
     </g>
    </g>
    <g id="ytick_2">
     <g id="line2d_13">
      <path d="M 30.884375 62.756029 
L 140.726895 62.756029 
" clip-path="url(#pc615bc998d)" style="fill: none; stroke: #dddddd; stroke-linecap: square"/>
     </g>
     <g id="line2d_14">
      <g>
       <use xlink:href="#mce75613e01" x="30.884375" y="62.756029" style="stroke: #000000"/>
      </g>
     </g>
     <g id="text_7">
      <text style="font: 12px 'Source Code Pro'; text-anchor: end" x="23.884375" y="67.028216" transform="rotate(-0, 23.884375, 67.028216)">2</text>
     </g>
    </g>
    <g id="ytick_3">
     <g id="line2d_15">
      <path d="M 30.884375 109.527682 
L 140.726895 109.527682 
" clip-path="url(#pc615bc998d)" style="fill: none; stroke: #dddddd; stroke-linecap: square"/>
     </g>
     <g id="line2d_16">
      <g>
       <use xlink:href="#mce75613e01" x="30.884375" y="109.527682" style="stroke: #000000"/>
      </g>
     </g>
     <g id="text_8">
      <text style="font: 12px 'Source Code Pro'; text-anchor: end" x="23.884375" y="113.79987" transform="rotate(-0, 23.884375, 113.79987)">4</text>
     </g>
    </g>
    <g id="ytick_4">
     <g id="line2d_17">
      <path d="M 30.884375 156.299336 
L 140.726895 156.299336 
" clip-path="url(#pc615bc998d)" style="fill: none; stroke: #dddddd; stroke-linecap: square"/>
     </g>
     <g id="line2d_18">
      <g>
       <use xlink:href="#mce75613e01" x="30.884375" y="156.299336" style="stroke: #000000"/>
      </g>
     </g>
     <g id="text_9">
      <text style="font: 12px 'Source Code Pro'; text-anchor: end" x="23.884375" y="160.571523" transform="rotate(-0, 23.884375, 160.571523)">6</text>
     </g>
    </g>
    <g id="ytick_5">
     <g id="line2d_19">
      <path d="M 30.884375 203.070989 
L 140.726895 203.070989 
" clip-path="url(#pc615bc998d)" style="fill: none; stroke: #dddddd; stroke-linecap: square"/>
     </g>
     <g id="line2d_20">
      <g>
       <use xlink:href="#mce75613e01" x="30.884375" y="203.070989" style="stroke: #000000"/>
      </g>
     </g>
     <g id="text_10">
      <text style="font: 12px 'Source Code Pro'; text-anchor: end" x="23.884375" y="207.343177" transform="rotate(-0, 23.884375, 207.343177)">8</text>
     </g>
    </g>
    <g id="text_11">
     <text style="font: 12px 'Source Code Pro'; text-anchor: middle" x="10.224375" y="109.527682" transform="rotate(-90, 10.224375, 109.527682)">depth (m)</text>
    </g>
   </g>
   <g id="PathCollection_1">
    <defs>
     <path id="ma76b28bb8c" d="M 0 4 
C 1.060812 4 2.078319 3.578535 2.828427 2.828427 
C 3.578535 2.078319 4 1.060812 4 0 
C 4 -1.060812 3.578535 -2.078319 2.828427 -2.828427 
C 2.078319 -3.578535 1.060812 -4 0 -4 
C -1.060812 -4 -2.078319 -3.578535 -2.828427 -2.828427 
C -3.578535 -2.078319 -4 -1.060812 -4 0 
C -4 1.060812 -3.578535 2.078319 -2.828427 2.828427 
C -2.078319 3.578535 -1.060812 4 0 4 
z
" style="stroke: #000000"/>
    </defs>
    <g clip-path="url(#pc615bc998d)">
     <use xlink:href="#ma76b28bb8c" x="40.0738" y="62.756029" style="stroke: #000000"/>
     <use xlink:href="#ma76b28bb8c" x="43.852383" y="156.299336" style="stroke: #000000"/>
     <use xlink:href="#ma76b28bb8c" x="40.619718" y="109.527682" style="stroke: #000000"/>
    </g>
   </g>
   <g id="line2d_21">
    <path d="M 30.8952 15.984375 
L 31.066661 18.35685 
L 31.613346 20.729325 
L 32.421655 23.101801 
L 33.312769 25.474276 
L 34.215437 27.846751 
L 35.10001 30.219226 
L 35.931082 32.591701 
L 36.670573 34.964176 
L 37.293781 37.336652 
L 37.796436 39.709127 
L 38.190726 42.081602 
L 38.496817 44.454077 
L 38.735624 46.826552 
L 38.924872 49.199028 
L 39.077952 51.571503 
L 39.20431 53.943978 
L 39.310384 56.316453 
L 39.400529 58.688928 
L 39.477743 61.061403 
L 39.544157 63.433879 
L 39.601358 65.806354 
L 39.650575 68.178829 
L 39.69281 70.551304 
L 39.728902 72.923779 
L 39.759582 75.296254 
L 39.785501 77.66873 
L 39.807253 80.041205 
L 39.825387 82.41368 
L 39.840412 84.786155 
L 39.852805 87.15863 
L 39.863003 89.531106 
L 39.871408 91.903581 
L 39.878375 94.276056 
L 39.884215 96.648531 
L 39.889191 99.021006 
L 39.89352 101.393481 
L 39.897374 103.765957 
L 39.900883 106.138432 
L 39.904143 108.510907 
L 39.907219 110.883382 
L 39.910154 113.255857 
L 39.912971 115.628333 
L 39.915681 118.000808 
L 39.918285 120.373283 
L 39.920778 122.745758 
L 39.923153 125.118233 
L 39.925401 127.490708 
L 39.927513 129.863184 
L 39.92948 132.235659 
L 39.931297 134.608134 
L 39.932957 136.980609 
L 39.934457 139.353084 
L 39.935796 141.72556 
L 39.936972 144.098035 
L 39.93799 146.47051 
L 39.93885 148.842985 
L 39.939561 151.21546 
L 39.940128 153.587935 
L 39.94056 155.960411 
L 41.758063 158.332886 
L 49.023386 160.705361 
L 48.062029 163.077836 
L 47.8733 165.450311 
L 47.86202 167.822787 
L 47.866058 170.195262 
L 47.869396 172.567737 
L 47.874204 174.940212 
L 47.880481 177.312687 
L 47.873672 179.685162 
" clip-path="url(#pc615bc998d)" style="fill: none; stroke: #00a6d6; stroke-width: 3; stroke-linecap: square"/>
   </g>
   <g id="line2d_22">
    <path d="M 39.938694 15.984375 
L 39.938694 18.35685 
L 39.938694 20.729325 
L 39.938694 23.101801 
L 39.938694 25.474276 
L 39.938694 27.846751 
L 39.938694 30.219226 
L 39.938694 32.591701 
L 39.938694 34.964176 
L 39.938694 37.336652 
L 39.938694 39.709127 
L 39.938694 42.081602 
L 39.938694 44.454077 
L 39.938694 46.826552 
L 39.938694 49.199028 
L 39.938694 51.571503 
L 39.938694 53.943978 
L 39.938694 56.316453 
L 39.938694 58.688928 
L 39.938694 61.061403 
L 39.938694 63.433879 
L 39.938694 65.806354 
L 39.938694 68.178829 
L 39.938694 70.551304 
L 39.938694 72.923779 
L 39.938694 75.296254 
L 39.938694 77.66873 
L 39.938694 80.041205 
L 39.938694 82.41368 
L 39.938694 84.786155 
L 39.938694 87.15863 
L 39.938694 89.531106 
L 39.938694 91.903581 
L 39.938694 94.276056 
L 39.938694 96.648531 
L 39.938694 99.021006 
L 39.938694 101.393481 
L 39.938694 103.765957 
L 39.938694 106.138432 
L 39.938694 108.510907 
L 39.938694 110.883382 
L 39.938694 113.255857 
L 39.938694 115.628333 
L 39.938694 118.000808 
L 39.938694 120.373283 
L 39.938694 122.745758 
L 39.938694 125.118233 
L 39.938694 127.490708 
L 39.938694 129.863184 
L 39.938694 132.235659 
L 39.938694 134.608134 
L 39.938694 136.980609 
L 39.938694 139.353084 
L 39.938694 141.72556 
L 39.938694 144.098035 
L 39.938694 146.47051 
L 39.938694 148.842985 
L 39.938694 151.21546 
L 39.938694 153.587935 
L 39.938694 155.960411 
L 39.938694 158.332886 
L 39.938694 160.705361 
L 39.938694 163.077836 
L 39.938694 165.450311 
L 39.938694 167.822787 
L 39.938694 170.195262 
L 39.938694 172.567737 
L 39.938694 174.940212 
L 39.938694 177.312687 
L 39.938694 179.685162 
" clip-path="url(#pc615bc998d)" style="fill: none; stroke-dasharray: 11.1,4.8; stroke-dashoffset: 0; stroke: #00a6d6; stroke-width: 3"/>
   </g>
   <g id="patch_3">
    <path d="M 30.884375 203.070989 
L 30.884375 15.984375 
" style="fill: none; stroke: #000000; stroke-linejoin: miter; stroke-linecap: square"/>
   </g>
   <g id="patch_4">
    <path d="M 140.726895 203.070989 
L 140.726895 15.984375 
" style="fill: none; stroke: #000000; stroke-linejoin: miter; stroke-linecap: square"/>
   </g>
   <g id="patch_5">
    <path d="M 30.884375 203.070989 
L 140.726895 203.070989 
" style="fill: none; stroke: #000000; stroke-linejoin: miter; stroke-linecap: square"/>
   </g>
   <g id="patch_6">
    <path d="M 30.884375 15.984375 
L 140.726895 15.984375 
" style="fill: none; stroke: #000000; stroke-linejoin: miter; stroke-linecap: square"/>
   </g>
   <g id="text_12">
    <!-- $212 -425\ \mu m$ -->
    <g transform="translate(50.765635 9.984375)">
     <text>
      <tspan style="font: 12px 'Source Code Pro'" x="0 7.199997 14.399994 23.03999 31.679987 38.879984 46.07998 55.679952 62.879949" y="-0.203125">212−425μm</tspan>
     </text>
    </g>
   </g>
  </g>
  <g id="axes_2">
   <g id="patch_7">
    <path d="M 140.726895 203.070989 
L 250.569414 203.070989 
L 250.569414 15.984375 
L 140.726895 15.984375 
z
" style="fill: #ffffff"/>
   </g>
   <g id="matplotlib.axis_3">
    <g id="xtick_6">
     <g id="line2d_23">
      <path d="M 140.726895 203.070989 
L 140.726895 15.984375 
" clip-path="url(#p9abb3ede41)" style="fill: none; stroke: #dddddd; stroke-linecap: square"/>
     </g>
     <g id="line2d_24">
      <g>
       <use xlink:href="#mbbb049766c" x="140.726895" y="203.070989" style="stroke: #000000"/>
      </g>
     </g>
     <g id="text_13">
      <text style="font: 12px 'Source Code Pro'; text-anchor: middle" x="140.726895" y="218.615364" transform="rotate(-0, 140.726895, 218.615364)">0</text>
     </g>
    </g>
    <g id="xtick_7">
     <g id="line2d_25">
      <path d="M 162.695399 203.070989 
L 162.695399 15.984375 
" clip-path="url(#p9abb3ede41)" style="fill: none; stroke: #dddddd; stroke-linecap: square"/>
     </g>
     <g id="line2d_26">
      <g>
       <use xlink:href="#mbbb049766c" x="162.695399" y="203.070989" style="stroke: #000000"/>
      </g>
     </g>
     <g id="text_14">
      <text style="font: 12px 'Source Code Pro'; text-anchor: middle" x="162.695399" y="218.615364" transform="rotate(-0, 162.695399, 218.615364)">2</text>
     </g>
    </g>
    <g id="xtick_8">
     <g id="line2d_27">
      <path d="M 184.663903 203.070989 
L 184.663903 15.984375 
" clip-path="url(#p9abb3ede41)" style="fill: none; stroke: #dddddd; stroke-linecap: square"/>
     </g>
     <g id="line2d_28">
      <g>
       <use xlink:href="#mbbb049766c" x="184.663903" y="203.070989" style="stroke: #000000"/>
      </g>
     </g>
     <g id="text_15">
      <text style="font: 12px 'Source Code Pro'; text-anchor: middle" x="184.663903" y="218.615364" transform="rotate(-0, 184.663903, 218.615364)">4</text>
     </g>
    </g>
    <g id="xtick_9">
     <g id="line2d_29">
      <path d="M 206.632406 203.070989 
L 206.632406 15.984375 
" clip-path="url(#p9abb3ede41)" style="fill: none; stroke: #dddddd; stroke-linecap: square"/>
     </g>
     <g id="line2d_30">
      <g>
       <use xlink:href="#mbbb049766c" x="206.632406" y="203.070989" style="stroke: #000000"/>
      </g>
     </g>
     <g id="text_16">
      <text style="font: 12px 'Source Code Pro'; text-anchor: middle" x="206.632406" y="218.615364" transform="rotate(-0, 206.632406, 218.615364)">6</text>
     </g>
    </g>
    <g id="xtick_10">
     <g id="line2d_31">
      <path d="M 228.60091 203.070989 
L 228.60091 15.984375 
" clip-path="url(#p9abb3ede41)" style="fill: none; stroke: #dddddd; stroke-linecap: square"/>
     </g>
     <g id="line2d_32">
      <g>
       <use xlink:href="#mbbb049766c" x="228.60091" y="203.070989" style="stroke: #000000"/>
      </g>
     </g>
     <g id="text_17">
      <text style="font: 12px 'Source Code Pro'; text-anchor: middle" x="228.60091" y="218.615364" transform="rotate(-0, 228.60091, 218.615364)">8</text>
     </g>
    </g>
   </g>
   <g id="matplotlib.axis_4">
    <g id="ytick_6">
     <g id="line2d_33">
      <path d="M 140.726895 15.984375 
L 250.569414 15.984375 
" clip-path="url(#p9abb3ede41)" style="fill: none; stroke: #dddddd; stroke-linecap: square"/>
     </g>
     <g id="line2d_34">
      <g>
       <use xlink:href="#mce75613e01" x="140.726895" y="15.984375" style="stroke: #000000"/>
      </g>
     </g>
    </g>
    <g id="ytick_7">
     <g id="line2d_35">
      <path d="M 140.726895 62.756029 
L 250.569414 62.756029 
" clip-path="url(#p9abb3ede41)" style="fill: none; stroke: #dddddd; stroke-linecap: square"/>
     </g>
     <g id="line2d_36">
      <g>
       <use xlink:href="#mce75613e01" x="140.726895" y="62.756029" style="stroke: #000000"/>
      </g>
     </g>
    </g>
    <g id="ytick_8">
     <g id="line2d_37">
      <path d="M 140.726895 109.527682 
L 250.569414 109.527682 
" clip-path="url(#p9abb3ede41)" style="fill: none; stroke: #dddddd; stroke-linecap: square"/>
     </g>
     <g id="line2d_38">
      <g>
       <use xlink:href="#mce75613e01" x="140.726895" y="109.527682" style="stroke: #000000"/>
      </g>
     </g>
    </g>
    <g id="ytick_9">
     <g id="line2d_39">
      <path d="M 140.726895 156.299336 
L 250.569414 156.299336 
" clip-path="url(#p9abb3ede41)" style="fill: none; stroke: #dddddd; stroke-linecap: square"/>
     </g>
     <g id="line2d_40">
      <g>
       <use xlink:href="#mce75613e01" x="140.726895" y="156.299336" style="stroke: #000000"/>
      </g>
     </g>
    </g>
    <g id="ytick_10">
     <g id="line2d_41">
      <path d="M 140.726895 203.070989 
L 250.569414 203.070989 
" clip-path="url(#p9abb3ede41)" style="fill: none; stroke: #dddddd; stroke-linecap: square"/>
     </g>
     <g id="line2d_42">
      <g>
       <use xlink:href="#mce75613e01" x="140.726895" y="203.070989" style="stroke: #000000"/>
      </g>
     </g>
    </g>
   </g>
   <g id="PathCollection_2">
    <g clip-path="url(#p9abb3ede41)">
     <use xlink:href="#ma76b28bb8c" x="144.296777" y="62.756029" style="stroke: #000000"/>
     <use xlink:href="#ma76b28bb8c" x="146.527678" y="156.299336" style="stroke: #000000"/>
     <use xlink:href="#ma76b28bb8c" x="146.004828" y="109.527682" style="stroke: #000000"/>
    </g>
   </g>
   <g id="line2d_43">
    <path d="M 140.727282 15.984375 
L 140.743504 18.35685 
L 140.811322 20.729325 
L 140.919644 23.101801 
L 141.043884 25.474276 
L 141.179143 27.846751 
L 141.328613 30.219226 
L 141.493064 32.591701 
L 141.668901 34.964176 
L 141.850018 37.336652 
L 142.030133 39.709127 
L 142.20421 42.081602 
L 142.368845 44.454077 
L 142.522046 46.826552 
L 142.662862 49.199028 
L 142.791055 51.571503 
L 142.906876 53.943978 
L 143.010906 56.316453 
L 143.103941 58.688928 
L 143.186883 61.061403 
L 143.260661 63.433879 
L 143.326173 65.806354 
L 143.384239 68.178829 
L 143.435592 70.551304 
L 143.480876 72.923779 
L 143.520658 75.296254 
L 143.555446 77.66873 
L 143.585712 80.041205 
L 143.611899 82.41368 
L 143.634443 84.786155 
L 143.653767 87.15863 
L 143.670289 89.531106 
L 143.68441 91.903581 
L 143.696511 94.276056 
L 143.706947 96.648531 
L 143.716033 99.021006 
L 143.724049 101.393481 
L 143.731228 103.765957 
L 143.737764 106.138432 
L 143.743811 108.510907 
L 143.749485 110.883382 
L 143.754872 113.255857 
L 143.760032 115.628333 
L 143.765002 118.000808 
L 143.769807 120.373283 
L 143.774456 122.745758 
L 143.778953 125.118233 
L 143.783295 127.490708 
L 143.787476 129.863184 
L 143.791489 132.235659 
L 143.795326 134.608134 
L 143.79898 136.980609 
L 143.802442 139.353084 
L 143.805709 141.72556 
L 143.808773 144.098035 
L 143.811633 146.47051 
L 143.814286 148.842985 
L 143.816731 151.21546 
L 143.818971 153.587935 
L 143.821008 155.960411 
L 144.874897 158.332886 
L 149.137665 160.705361 
L 148.613938 163.077836 
L 148.509041 165.450311 
L 148.502777 167.822787 
L 148.504902 170.195262 
L 148.506712 172.567737 
L 148.509286 174.940212 
L 148.512625 177.312687 
L 148.509561 179.685162 
" clip-path="url(#p9abb3ede41)" style="fill: none; stroke: #00a6d6; stroke-width: 3; stroke-linecap: square"/>
   </g>
   <g id="line2d_44">
    <path d="M 143.83434 15.984375 
L 143.83434 18.35685 
L 143.83434 20.729325 
L 143.83434 23.101801 
L 143.83434 25.474276 
L 143.83434 27.846751 
L 143.83434 30.219226 
L 143.83434 32.591701 
L 143.83434 34.964176 
L 143.83434 37.336652 
L 143.83434 39.709127 
L 143.83434 42.081602 
L 143.83434 44.454077 
L 143.83434 46.826552 
L 143.83434 49.199028 
L 143.83434 51.571503 
L 143.83434 53.943978 
L 143.83434 56.316453 
L 143.83434 58.688928 
L 143.83434 61.061403 
L 143.83434 63.433879 
L 143.83434 65.806354 
L 143.83434 68.178829 
L 143.83434 70.551304 
L 143.83434 72.923779 
L 143.83434 75.296254 
L 143.83434 77.66873 
L 143.83434 80.041205 
L 143.83434 82.41368 
L 143.83434 84.786155 
L 143.83434 87.15863 
L 143.83434 89.531106 
L 143.83434 91.903581 
L 143.83434 94.276056 
L 143.83434 96.648531 
L 143.83434 99.021006 
L 143.83434 101.393481 
L 143.83434 103.765957 
L 143.83434 106.138432 
L 143.83434 108.510907 
L 143.83434 110.883382 
L 143.83434 113.255857 
L 143.83434 115.628333 
L 143.83434 118.000808 
L 143.83434 120.373283 
L 143.83434 122.745758 
L 143.83434 125.118233 
L 143.83434 127.490708 
L 143.83434 129.863184 
L 143.83434 132.235659 
L 143.83434 134.608134 
L 143.83434 136.980609 
L 143.83434 139.353084 
L 143.83434 141.72556 
L 143.83434 144.098035 
L 143.83434 146.47051 
L 143.83434 148.842985 
L 143.83434 151.21546 
L 143.83434 153.587935 
L 143.83434 155.960411 
L 143.83434 158.332886 
L 143.83434 160.705361 
L 143.83434 163.077836 
L 143.83434 165.450311 
L 143.83434 167.822787 
L 143.83434 170.195262 
L 143.83434 172.567737 
L 143.83434 174.940212 
L 143.83434 177.312687 
L 143.83434 179.685162 
" clip-path="url(#p9abb3ede41)" style="fill: none; stroke-dasharray: 11.1,4.8; stroke-dashoffset: 0; stroke: #00a6d6; stroke-width: 3"/>
   </g>
   <g id="patch_8">
    <path d="M 140.726895 203.070989 
L 140.726895 15.984375 
" style="fill: none; stroke: #000000; stroke-linejoin: miter; stroke-linecap: square"/>
   </g>
   <g id="patch_9">
    <path d="M 250.569414 203.070989 
L 250.569414 15.984375 
" style="fill: none; stroke: #000000; stroke-linejoin: miter; stroke-linecap: square"/>
   </g>
   <g id="patch_10">
    <path d="M 140.726895 203.070989 
L 250.569414 203.070989 
" style="fill: none; stroke: #000000; stroke-linejoin: miter; stroke-linecap: square"/>
   </g>
   <g id="patch_11">
    <path d="M 140.726895 15.984375 
L 250.569414 15.984375 
" style="fill: none; stroke: #000000; stroke-linejoin: miter; stroke-linecap: square"/>
   </g>
   <g id="text_18">
    <!-- $425 - 630\ \mu m$ -->
    <g transform="translate(160.608155 9.984375)">
     <text>
      <tspan style="font: 12px 'Source Code Pro'" x="0 7.199997 14.399994 23.03999 31.679987 38.879984 46.07998 55.679952 62.879949" y="-0.203125">425−630μm</tspan>
     </text>
    </g>
   </g>
  </g>
  <g id="axes_3">
   <g id="patch_12">
    <path d="M 250.569414 203.070989 
L 360.411934 203.070989 
L 360.411934 15.984375 
L 250.569414 15.984375 
z
" style="fill: #ffffff"/>
   </g>
   <g id="matplotlib.axis_5">
    <g id="xtick_11">
     <g id="line2d_45">
      <path d="M 250.569414 203.070989 
L 250.569414 15.984375 
" clip-path="url(#p31ecc56d24)" style="fill: none; stroke: #dddddd; stroke-linecap: square"/>
     </g>
     <g id="line2d_46">
      <g>
       <use xlink:href="#mbbb049766c" x="250.569414" y="203.070989" style="stroke: #000000"/>
      </g>
     </g>
     <g id="text_19">
      <text style="font: 12px 'Source Code Pro'; text-anchor: middle" x="250.569414" y="218.615364" transform="rotate(-0, 250.569414, 218.615364)">0</text>
     </g>
    </g>
    <g id="xtick_12">
     <g id="line2d_47">
      <path d="M 272.537918 203.070989 
L 272.537918 15.984375 
" clip-path="url(#p31ecc56d24)" style="fill: none; stroke: #dddddd; stroke-linecap: square"/>
     </g>
     <g id="line2d_48">
      <g>
       <use xlink:href="#mbbb049766c" x="272.537918" y="203.070989" style="stroke: #000000"/>
      </g>
     </g>
     <g id="text_20">
      <text style="font: 12px 'Source Code Pro'; text-anchor: middle" x="272.537918" y="218.615364" transform="rotate(-0, 272.537918, 218.615364)">2</text>
     </g>
    </g>
    <g id="xtick_13">
     <g id="line2d_49">
      <path d="M 294.506422 203.070989 
L 294.506422 15.984375 
" clip-path="url(#p31ecc56d24)" style="fill: none; stroke: #dddddd; stroke-linecap: square"/>
     </g>
     <g id="line2d_50">
      <g>
       <use xlink:href="#mbbb049766c" x="294.506422" y="203.070989" style="stroke: #000000"/>
      </g>
     </g>
     <g id="text_21">
      <text style="font: 12px 'Source Code Pro'; text-anchor: middle" x="294.506422" y="218.615364" transform="rotate(-0, 294.506422, 218.615364)">4</text>
     </g>
    </g>
    <g id="xtick_14">
     <g id="line2d_51">
      <path d="M 316.474926 203.070989 
L 316.474926 15.984375 
" clip-path="url(#p31ecc56d24)" style="fill: none; stroke: #dddddd; stroke-linecap: square"/>
     </g>
     <g id="line2d_52">
      <g>
       <use xlink:href="#mbbb049766c" x="316.474926" y="203.070989" style="stroke: #000000"/>
      </g>
     </g>
     <g id="text_22">
      <text style="font: 12px 'Source Code Pro'; text-anchor: middle" x="316.474926" y="218.615364" transform="rotate(-0, 316.474926, 218.615364)">6</text>
     </g>
    </g>
    <g id="xtick_15">
     <g id="line2d_53">
      <path d="M 338.44343 203.070989 
L 338.44343 15.984375 
" clip-path="url(#p31ecc56d24)" style="fill: none; stroke: #dddddd; stroke-linecap: square"/>
     </g>
     <g id="line2d_54">
      <g>
       <use xlink:href="#mbbb049766c" x="338.44343" y="203.070989" style="stroke: #000000"/>
      </g>
     </g>
     <g id="text_23">
      <text style="font: 12px 'Source Code Pro'; text-anchor: middle" x="338.44343" y="218.615364" transform="rotate(-0, 338.44343, 218.615364)">8</text>
     </g>
    </g>
    <g id="text_24">
     <!--                                $conc.\ (g\ L^{-1})$ -->
     <g transform="translate(153.090674 234.555364)">
      <text>
       <tspan style="font: 12px 'Source Code Pro'" x="0 7.199997 14.399994 21.599991 28.799988 35.999985 43.199982 50.399979 57.599976 64.799973 71.999969 79.199966 86.399963 93.59996 100.799957 107.999954 115.199951 122.399948 129.599945 136.799942 143.999939 151.199936 158.399933 165.59993 172.799927 179.999924 187.199921 194.399918 201.599915 208.799911 215.999908 223.199905 230.399902 237.599899 244.799896 251.999893 263.039865 270.239861 279.839833 297.513225" y="-0.5609375000000014">                               conc.(gL)</tspan>
       <tspan style="font: 8.4px 'Source Code Pro'" x="287.141823 292.18182" y="-4.640625000000001">−1</tspan>
      </text>
     </g>
    </g>
   </g>
   <g id="matplotlib.axis_6">
    <g id="ytick_11">
     <g id="line2d_55">
      <path d="M 250.569414 15.984375 
L 360.411934 15.984375 
" clip-path="url(#p31ecc56d24)" style="fill: none; stroke: #dddddd; stroke-linecap: square"/>
     </g>
     <g id="line2d_56">
      <g>
       <use xlink:href="#mce75613e01" x="250.569414" y="15.984375" style="stroke: #000000"/>
      </g>
     </g>
    </g>
    <g id="ytick_12">
     <g id="line2d_57">
      <path d="M 250.569414 62.756029 
L 360.411934 62.756029 
" clip-path="url(#p31ecc56d24)" style="fill: none; stroke: #dddddd; stroke-linecap: square"/>
     </g>
     <g id="line2d_58">
      <g>
       <use xlink:href="#mce75613e01" x="250.569414" y="62.756029" style="stroke: #000000"/>
      </g>
     </g>
    </g>
    <g id="ytick_13">
     <g id="line2d_59">
      <path d="M 250.569414 109.527682 
L 360.411934 109.527682 
" clip-path="url(#p31ecc56d24)" style="fill: none; stroke: #dddddd; stroke-linecap: square"/>
     </g>
     <g id="line2d_60">
      <g>
       <use xlink:href="#mce75613e01" x="250.569414" y="109.527682" style="stroke: #000000"/>
      </g>
     </g>
    </g>
    <g id="ytick_14">
     <g id="line2d_61">
      <path d="M 250.569414 156.299336 
L 360.411934 156.299336 
" clip-path="url(#p31ecc56d24)" style="fill: none; stroke: #dddddd; stroke-linecap: square"/>
     </g>
     <g id="line2d_62">
      <g>
       <use xlink:href="#mce75613e01" x="250.569414" y="156.299336" style="stroke: #000000"/>
      </g>
     </g>
    </g>
    <g id="ytick_15">
     <g id="line2d_63">
      <path d="M 250.569414 203.070989 
L 360.411934 203.070989 
" clip-path="url(#p31ecc56d24)" style="fill: none; stroke: #dddddd; stroke-linecap: square"/>
     </g>
     <g id="line2d_64">
      <g>
       <use xlink:href="#mce75613e01" x="250.569414" y="203.070989" style="stroke: #000000"/>
      </g>
     </g>
    </g>
   </g>
   <g id="PathCollection_3">
    <g clip-path="url(#p31ecc56d24)">
     <use xlink:href="#ma76b28bb8c" x="252.659718" y="62.756029" style="stroke: #000000"/>
     <use xlink:href="#ma76b28bb8c" x="266.614111" y="156.299336" style="stroke: #000000"/>
     <use xlink:href="#ma76b28bb8c" x="256.41743" y="109.527682" style="stroke: #000000"/>
    </g>
   </g>
   <g id="line2d_65">
    <path d="M 250.569581 15.984375 
L 250.583444 18.35685 
L 250.648841 20.729325 
L 250.753813 23.101801 
L 250.871029 25.474276 
L 250.996573 27.846751 
L 251.136943 30.219226 
L 251.297286 32.591701 
L 251.47874 34.964176 
L 251.679564 37.336652 
L 251.896911 39.709127 
L 252.128017 42.081602 
L 252.370599 44.454077 
L 252.622737 46.826552 
L 252.882601 49.199028 
L 253.148226 51.571503 
L 253.417411 53.943978 
L 253.687727 56.316453 
L 253.956579 58.688928 
L 254.221311 61.061403 
L 254.479308 63.433879 
L 254.728096 65.806354 
L 254.965434 68.178829 
L 255.189388 70.551304 
L 255.398396 72.923779 
L 255.591308 75.296254 
L 255.767419 77.66873 
L 255.926478 80.041205 
L 256.068675 82.41368 
L 256.19461 84.786155 
L 256.305243 87.15863 
L 256.401823 89.531106 
L 256.485801 91.903581 
L 256.558745 94.276056 
L 256.622253 96.648531 
L 256.677873 99.021006 
L 256.727044 101.393481 
L 256.771052 103.765957 
L 256.811004 106.138432 
L 256.847822 108.510907 
L 256.882241 110.883382 
L 256.914832 113.255857 
L 256.946015 115.628333 
L 256.976085 118.000808 
L 257.005239 120.373283 
L 257.033593 122.745758 
L 257.061204 125.118233 
L 257.08809 127.490708 
L 257.114236 129.863184 
L 257.139611 132.235659 
L 257.164172 134.608134 
L 257.187868 136.980609 
L 257.21065 139.353084 
L 257.232464 141.72556 
L 257.253263 144.098035 
L 257.273003 146.47051 
L 257.291645 148.842985 
L 257.309157 151.21546 
L 257.325517 153.587935 
L 257.34071 155.960411 
L 260.724776 158.332886 
L 274.654875 160.705361 
L 273.14497 163.077836 
L 272.83387 165.450311 
L 272.81548 167.822787 
L 272.821752 170.195262 
L 272.82735 172.567737 
L 272.835168 174.940212 
L 272.84526 177.312687 
L 272.839023 179.685162 
" clip-path="url(#p31ecc56d24)" style="fill: none; stroke: #00a6d6; stroke-width: 3; stroke-linecap: square"/>
   </g>
   <g id="line2d_66">
    <path d="M 257.45654 15.984375 
L 257.45654 18.35685 
L 257.45654 20.729325 
L 257.45654 23.101801 
L 257.45654 25.474276 
L 257.45654 27.846751 
L 257.45654 30.219226 
L 257.45654 32.591701 
L 257.45654 34.964176 
L 257.45654 37.336652 
L 257.45654 39.709127 
L 257.45654 42.081602 
L 257.45654 44.454077 
L 257.45654 46.826552 
L 257.45654 49.199028 
L 257.45654 51.571503 
L 257.45654 53.943978 
L 257.45654 56.316453 
L 257.45654 58.688928 
L 257.45654 61.061403 
L 257.45654 63.433879 
L 257.45654 65.806354 
L 257.45654 68.178829 
L 257.45654 70.551304 
L 257.45654 72.923779 
L 257.45654 75.296254 
L 257.45654 77.66873 
L 257.45654 80.041205 
L 257.45654 82.41368 
L 257.45654 84.786155 
L 257.45654 87.15863 
L 257.45654 89.531106 
L 257.45654 91.903581 
L 257.45654 94.276056 
L 257.45654 96.648531 
L 257.45654 99.021006 
L 257.45654 101.393481 
L 257.45654 103.765957 
L 257.45654 106.138432 
L 257.45654 108.510907 
L 257.45654 110.883382 
L 257.45654 113.255857 
L 257.45654 115.628333 
L 257.45654 118.000808 
L 257.45654 120.373283 
L 257.45654 122.745758 
L 257.45654 125.118233 
L 257.45654 127.490708 
L 257.45654 129.863184 
L 257.45654 132.235659 
L 257.45654 134.608134 
L 257.45654 136.980609 
L 257.45654 139.353084 
L 257.45654 141.72556 
L 257.45654 144.098035 
L 257.45654 146.47051 
L 257.45654 148.842985 
L 257.45654 151.21546 
L 257.45654 153.587935 
L 257.45654 155.960411 
L 257.45654 158.332886 
L 257.45654 160.705361 
L 257.45654 163.077836 
L 257.45654 165.450311 
L 257.45654 167.822787 
L 257.45654 170.195262 
L 257.45654 172.567737 
L 257.45654 174.940212 
L 257.45654 177.312687 
L 257.45654 179.685162 
" clip-path="url(#p31ecc56d24)" style="fill: none; stroke-dasharray: 11.1,4.8; stroke-dashoffset: 0; stroke: #00a6d6; stroke-width: 3"/>
   </g>
   <g id="patch_13">
    <path d="M 250.569414 203.070989 
L 250.569414 15.984375 
" style="fill: none; stroke: #000000; stroke-linejoin: miter; stroke-linecap: square"/>
   </g>
   <g id="patch_14">
    <path d="M 360.411934 203.070989 
L 360.411934 15.984375 
" style="fill: none; stroke: #000000; stroke-linejoin: miter; stroke-linecap: square"/>
   </g>
   <g id="patch_15">
    <path d="M 250.569414 203.070989 
L 360.411934 203.070989 
" style="fill: none; stroke: #000000; stroke-linejoin: miter; stroke-linecap: square"/>
   </g>
   <g id="patch_16">
    <path d="M 250.569414 15.984375 
L 360.411934 15.984375 
" style="fill: none; stroke: #000000; stroke-linejoin: miter; stroke-linecap: square"/>
   </g>
   <g id="text_25">
    <!-- $630 - 1000\ \mu m$ -->
    <g transform="translate(266.850674 9.984375)">
     <text>
      <tspan style="font: 12px 'Source Code Pro'" x="0 7.199997 14.399994 23.03999 31.679987 38.879984 46.07998 53.279977 62.879949 70.079946" y="-0.203125">630−1000μm</tspan>
     </text>
    </g>
   </g>
  </g>
  <g id="axes_4">
   <g id="patch_17">
    <path d="M 360.411934 203.070989 
L 470.254454 203.070989 
L 470.254454 15.984375 
L 360.411934 15.984375 
z
" style="fill: #ffffff"/>
   </g>
   <g id="matplotlib.axis_7">
    <g id="xtick_16">
     <g id="line2d_67">
      <path d="M 360.411934 203.070989 
L 360.411934 15.984375 
" clip-path="url(#p5e6497823e)" style="fill: none; stroke: #dddddd; stroke-linecap: square"/>
     </g>
     <g id="line2d_68">
      <g>
       <use xlink:href="#mbbb049766c" x="360.411934" y="203.070989" style="stroke: #000000"/>
      </g>
     </g>
     <g id="text_26">
      <text style="font: 12px 'Source Code Pro'; text-anchor: middle" x="360.411934" y="218.615364" transform="rotate(-0, 360.411934, 218.615364)">0</text>
     </g>
    </g>
    <g id="xtick_17">
     <g id="line2d_69">
      <path d="M 382.380438 203.070989 
L 382.380438 15.984375 
" clip-path="url(#p5e6497823e)" style="fill: none; stroke: #dddddd; stroke-linecap: square"/>
     </g>
     <g id="line2d_70">
      <g>
       <use xlink:href="#mbbb049766c" x="382.380438" y="203.070989" style="stroke: #000000"/>
      </g>
     </g>
     <g id="text_27">
      <text style="font: 12px 'Source Code Pro'; text-anchor: middle" x="382.380438" y="218.615364" transform="rotate(-0, 382.380438, 218.615364)">2</text>
     </g>
    </g>
    <g id="xtick_18">
     <g id="line2d_71">
      <path d="M 404.348942 203.070989 
L 404.348942 15.984375 
" clip-path="url(#p5e6497823e)" style="fill: none; stroke: #dddddd; stroke-linecap: square"/>
     </g>
     <g id="line2d_72">
      <g>
       <use xlink:href="#mbbb049766c" x="404.348942" y="203.070989" style="stroke: #000000"/>
      </g>
     </g>
     <g id="text_28">
      <text style="font: 12px 'Source Code Pro'; text-anchor: middle" x="404.348942" y="218.615364" transform="rotate(-0, 404.348942, 218.615364)">4</text>
     </g>
    </g>
    <g id="xtick_19">
     <g id="line2d_73">
      <path d="M 426.317446 203.070989 
L 426.317446 15.984375 
" clip-path="url(#p5e6497823e)" style="fill: none; stroke: #dddddd; stroke-linecap: square"/>
     </g>
     <g id="line2d_74">
      <g>
       <use xlink:href="#mbbb049766c" x="426.317446" y="203.070989" style="stroke: #000000"/>
      </g>
     </g>
     <g id="text_29">
      <text style="font: 12px 'Source Code Pro'; text-anchor: middle" x="426.317446" y="218.615364" transform="rotate(-0, 426.317446, 218.615364)">6</text>
     </g>
    </g>
    <g id="xtick_20">
     <g id="line2d_75">
      <path d="M 448.28595 203.070989 
L 448.28595 15.984375 
" clip-path="url(#p5e6497823e)" style="fill: none; stroke: #dddddd; stroke-linecap: square"/>
     </g>
     <g id="line2d_76">
      <g>
       <use xlink:href="#mbbb049766c" x="448.28595" y="203.070989" style="stroke: #000000"/>
      </g>
     </g>
     <g id="text_30">
      <text style="font: 12px 'Source Code Pro'; text-anchor: middle" x="448.28595" y="218.615364" transform="rotate(-0, 448.28595, 218.615364)">8</text>
     </g>
    </g>
   </g>
   <g id="matplotlib.axis_8">
    <g id="ytick_16">
     <g id="line2d_77">
      <path d="M 360.411934 15.984375 
L 470.254454 15.984375 
" clip-path="url(#p5e6497823e)" style="fill: none; stroke: #dddddd; stroke-linecap: square"/>
     </g>
     <g id="line2d_78">
      <g>
       <use xlink:href="#mce75613e01" x="360.411934" y="15.984375" style="stroke: #000000"/>
      </g>
     </g>
    </g>
    <g id="ytick_17">
     <g id="line2d_79">
      <path d="M 360.411934 62.756029 
L 470.254454 62.756029 
" clip-path="url(#p5e6497823e)" style="fill: none; stroke: #dddddd; stroke-linecap: square"/>
     </g>
     <g id="line2d_80">
      <g>
       <use xlink:href="#mce75613e01" x="360.411934" y="62.756029" style="stroke: #000000"/>
      </g>
     </g>
    </g>
    <g id="ytick_18">
     <g id="line2d_81">
      <path d="M 360.411934 109.527682 
L 470.254454 109.527682 
" clip-path="url(#p5e6497823e)" style="fill: none; stroke: #dddddd; stroke-linecap: square"/>
     </g>
     <g id="line2d_82">
      <g>
       <use xlink:href="#mce75613e01" x="360.411934" y="109.527682" style="stroke: #000000"/>
      </g>
     </g>
    </g>
    <g id="ytick_19">
     <g id="line2d_83">
      <path d="M 360.411934 156.299336 
L 470.254454 156.299336 
" clip-path="url(#p5e6497823e)" style="fill: none; stroke: #dddddd; stroke-linecap: square"/>
     </g>
     <g id="line2d_84">
      <g>
       <use xlink:href="#mce75613e01" x="360.411934" y="156.299336" style="stroke: #000000"/>
      </g>
     </g>
    </g>
    <g id="ytick_20">
     <g id="line2d_85">
      <path d="M 360.411934 203.070989 
L 470.254454 203.070989 
" clip-path="url(#p5e6497823e)" style="fill: none; stroke: #dddddd; stroke-linecap: square"/>
     </g>
     <g id="line2d_86">
      <g>
       <use xlink:href="#mce75613e01" x="360.411934" y="203.070989" style="stroke: #000000"/>
      </g>
     </g>
    </g>
   </g>
   <g id="PathCollection_4">
    <g clip-path="url(#p5e6497823e)">
     <use xlink:href="#ma76b28bb8c" x="361.437863" y="62.756029" style="stroke: #000000"/>
     <use xlink:href="#ma76b28bb8c" x="397.019151" y="156.299336" style="stroke: #000000"/>
     <use xlink:href="#ma76b28bb8c" x="367.461627" y="109.527682" style="stroke: #000000"/>
    </g>
   </g>
   <g id="line2d_87">
    <path d="M 360.411987 15.984375 
L 360.41949 18.35685 
L 360.459651 20.729325 
L 360.528284 23.101801 
L 360.606805 25.474276 
L 360.69092 27.846751 
L 360.784674 30.219226 
L 360.892368 32.591701 
L 361.016193 34.964176 
L 361.15666 37.336652 
L 361.313667 39.709127 
L 361.487291 42.081602 
L 361.678105 44.454077 
L 361.887125 46.826552 
L 362.115595 49.199028 
L 362.364752 51.571503 
L 362.635617 53.943978 
L 362.928836 56.316453 
L 363.244533 58.688928 
L 363.582193 61.061403 
L 363.940535 63.433879 
L 364.317424 65.806354 
L 364.709802 68.178829 
L 365.113687 70.551304 
L 365.524234 72.923779 
L 365.935903 75.296254 
L 366.342715 77.66873 
L 366.738605 80.041205 
L 367.117822 82.41368 
L 367.475348 84.786155 
L 367.807263 87.15863 
L 368.111001 89.531106 
L 368.38546 91.903581 
L 368.630952 94.276056 
L 368.849012 96.648531 
L 369.042103 99.021006 
L 369.213277 101.393481 
L 369.365844 103.765957 
L 369.50309 106.138432 
L 369.628059 108.510907 
L 369.743421 110.883382 
L 369.851404 113.255857 
L 369.953781 115.628333 
L 370.051902 118.000808 
L 370.146745 120.373283 
L 370.238976 122.745758 
L 370.329014 125.118233 
L 370.417084 127.490708 
L 370.50327 129.863184 
L 370.58755 132.235659 
L 370.66983 134.608134 
L 370.749967 136.980609 
L 370.827784 139.353084 
L 370.903086 141.72556 
L 370.975669 144.098035 
L 371.045328 146.47051 
L 371.111867 148.842985 
L 371.1751 151.21546 
L 371.234863 153.587935 
L 371.291017 155.960411 
L 378.553511 158.332886 
L 409.125976 160.705361 
L 406.391826 163.077836 
L 405.805027 165.450311 
L 405.771839 167.822787 
L 405.785099 170.195262 
L 405.798111 172.567737 
L 405.815825 174.940212 
L 405.83902 177.312687 
L 405.840753 179.685162 
" clip-path="url(#p5e6497823e)" style="fill: none; stroke: #00a6d6; stroke-width: 3; stroke-linecap: square"/>
   </g>
   <g id="line2d_88">
    <path d="M 371.749879 15.984375 
L 371.749879 18.35685 
L 371.749879 20.729325 
L 371.749879 23.101801 
L 371.749879 25.474276 
L 371.749879 27.846751 
L 371.749879 30.219226 
L 371.749879 32.591701 
L 371.749879 34.964176 
L 371.749879 37.336652 
L 371.749879 39.709127 
L 371.749879 42.081602 
L 371.749879 44.454077 
L 371.749879 46.826552 
L 371.749879 49.199028 
L 371.749879 51.571503 
L 371.749879 53.943978 
L 371.749879 56.316453 
L 371.749879 58.688928 
L 371.749879 61.061403 
L 371.749879 63.433879 
L 371.749879 65.806354 
L 371.749879 68.178829 
L 371.749879 70.551304 
L 371.749879 72.923779 
L 371.749879 75.296254 
L 371.749879 77.66873 
L 371.749879 80.041205 
L 371.749879 82.41368 
L 371.749879 84.786155 
L 371.749879 87.15863 
L 371.749879 89.531106 
L 371.749879 91.903581 
L 371.749879 94.276056 
L 371.749879 96.648531 
L 371.749879 99.021006 
L 371.749879 101.393481 
L 371.749879 103.765957 
L 371.749879 106.138432 
L 371.749879 108.510907 
L 371.749879 110.883382 
L 371.749879 113.255857 
L 371.749879 115.628333 
L 371.749879 118.000808 
L 371.749879 120.373283 
L 371.749879 122.745758 
L 371.749879 125.118233 
L 371.749879 127.490708 
L 371.749879 129.863184 
L 371.749879 132.235659 
L 371.749879 134.608134 
L 371.749879 136.980609 
L 371.749879 139.353084 
L 371.749879 141.72556 
L 371.749879 144.098035 
L 371.749879 146.47051 
L 371.749879 148.842985 
L 371.749879 151.21546 
L 371.749879 153.587935 
L 371.749879 155.960411 
L 371.749879 158.332886 
L 371.749879 160.705361 
L 371.749879 163.077836 
L 371.749879 165.450311 
L 371.749879 167.822787 
L 371.749879 170.195262 
L 371.749879 172.567737 
L 371.749879 174.940212 
L 371.749879 177.312687 
L 371.749879 179.685162 
" clip-path="url(#p5e6497823e)" style="fill: none; stroke-dasharray: 11.1,4.8; stroke-dashoffset: 0; stroke: #00a6d6; stroke-width: 3"/>
   </g>
   <g id="patch_18">
    <path d="M 360.411934 203.070989 
L 360.411934 15.984375 
" style="fill: none; stroke: #000000; stroke-linejoin: miter; stroke-linecap: square"/>
   </g>
   <g id="patch_19">
    <path d="M 470.254454 203.070989 
L 470.254454 15.984375 
" style="fill: none; stroke: #000000; stroke-linejoin: miter; stroke-linecap: square"/>
   </g>
   <g id="patch_20">
    <path d="M 360.411934 203.070989 
L 470.254454 203.070989 
" style="fill: none; stroke: #000000; stroke-linejoin: miter; stroke-linecap: square"/>
   </g>
   <g id="patch_21">
    <path d="M 360.411934 15.984375 
L 470.254454 15.984375 
" style="fill: none; stroke: #000000; stroke-linejoin: miter; stroke-linecap: square"/>
   </g>
   <g id="text_31">
    <!-- $1000 - 1400\ \mu m$ -->
    <g transform="translate(373.093194 9.984375)">
     <text>
      <tspan style="font: 12px 'Source Code Pro'" x="0 7.199997 14.399994 21.599991 30.239987 38.879984 46.07998 53.279977 60.479974 70.079946 77.279943" y="-0.203125">1000−1400μm</tspan>
     </text>
    </g>
   </g>
  </g>
  <g id="axes_5">
   <g id="patch_22">
    <path d="M 470.254454 203.070989 
L 580.096973 203.070989 
L 580.096973 15.984375 
L 470.254454 15.984375 
z
" style="fill: #ffffff"/>
   </g>
   <g id="matplotlib.axis_9">
    <g id="xtick_21">
     <g id="line2d_89">
      <path d="M 470.254454 203.070989 
L 470.254454 15.984375 
" clip-path="url(#p91f60239bb)" style="fill: none; stroke: #dddddd; stroke-linecap: square"/>
     </g>
     <g id="line2d_90">
      <g>
       <use xlink:href="#mbbb049766c" x="470.254454" y="203.070989" style="stroke: #000000"/>
      </g>
     </g>
     <g id="text_32">
      <text style="font: 12px 'Source Code Pro'; text-anchor: middle" x="470.254454" y="218.615364" transform="rotate(-0, 470.254454, 218.615364)">0</text>
     </g>
    </g>
    <g id="xtick_22">
     <g id="line2d_91">
      <path d="M 492.222958 203.070989 
L 492.222958 15.984375 
" clip-path="url(#p91f60239bb)" style="fill: none; stroke: #dddddd; stroke-linecap: square"/>
     </g>
     <g id="line2d_92">
      <g>
       <use xlink:href="#mbbb049766c" x="492.222958" y="203.070989" style="stroke: #000000"/>
      </g>
     </g>
     <g id="text_33">
      <text style="font: 12px 'Source Code Pro'; text-anchor: middle" x="492.222958" y="218.615364" transform="rotate(-0, 492.222958, 218.615364)">2</text>
     </g>
    </g>
    <g id="xtick_23">
     <g id="line2d_93">
      <path d="M 514.191462 203.070989 
L 514.191462 15.984375 
" clip-path="url(#p91f60239bb)" style="fill: none; stroke: #dddddd; stroke-linecap: square"/>
     </g>
     <g id="line2d_94">
      <g>
       <use xlink:href="#mbbb049766c" x="514.191462" y="203.070989" style="stroke: #000000"/>
      </g>
     </g>
     <g id="text_34">
      <text style="font: 12px 'Source Code Pro'; text-anchor: middle" x="514.191462" y="218.615364" transform="rotate(-0, 514.191462, 218.615364)">4</text>
     </g>
    </g>
    <g id="xtick_24">
     <g id="line2d_95">
      <path d="M 536.159966 203.070989 
L 536.159966 15.984375 
" clip-path="url(#p91f60239bb)" style="fill: none; stroke: #dddddd; stroke-linecap: square"/>
     </g>
     <g id="line2d_96">
      <g>
       <use xlink:href="#mbbb049766c" x="536.159966" y="203.070989" style="stroke: #000000"/>
      </g>
     </g>
     <g id="text_35">
      <text style="font: 12px 'Source Code Pro'; text-anchor: middle" x="536.159966" y="218.615364" transform="rotate(-0, 536.159966, 218.615364)">6</text>
     </g>
    </g>
    <g id="xtick_25">
     <g id="line2d_97">
      <path d="M 558.128469 203.070989 
L 558.128469 15.984375 
" clip-path="url(#p91f60239bb)" style="fill: none; stroke: #dddddd; stroke-linecap: square"/>
     </g>
     <g id="line2d_98">
      <g>
       <use xlink:href="#mbbb049766c" x="558.128469" y="203.070989" style="stroke: #000000"/>
      </g>
     </g>
     <g id="text_36">
      <text style="font: 12px 'Source Code Pro'; text-anchor: middle" x="558.128469" y="218.615364" transform="rotate(-0, 558.128469, 218.615364)">8</text>
     </g>
    </g>
   </g>
   <g id="matplotlib.axis_10">
    <g id="ytick_21">
     <g id="line2d_99">
      <path d="M 470.254454 15.984375 
L 580.096973 15.984375 
" clip-path="url(#p91f60239bb)" style="fill: none; stroke: #dddddd; stroke-linecap: square"/>
     </g>
     <g id="line2d_100">
      <g>
       <use xlink:href="#mce75613e01" x="470.254454" y="15.984375" style="stroke: #000000"/>
      </g>
     </g>
    </g>
    <g id="ytick_22">
     <g id="line2d_101">
      <path d="M 470.254454 62.756029 
L 580.096973 62.756029 
" clip-path="url(#p91f60239bb)" style="fill: none; stroke: #dddddd; stroke-linecap: square"/>
     </g>
     <g id="line2d_102">
      <g>
       <use xlink:href="#mce75613e01" x="470.254454" y="62.756029" style="stroke: #000000"/>
      </g>
     </g>
    </g>
    <g id="ytick_23">
     <g id="line2d_103">
      <path d="M 470.254454 109.527682 
L 580.096973 109.527682 
" clip-path="url(#p91f60239bb)" style="fill: none; stroke: #dddddd; stroke-linecap: square"/>
     </g>
     <g id="line2d_104">
      <g>
       <use xlink:href="#mce75613e01" x="470.254454" y="109.527682" style="stroke: #000000"/>
      </g>
     </g>
    </g>
    <g id="ytick_24">
     <g id="line2d_105">
      <path d="M 470.254454 156.299336 
L 580.096973 156.299336 
" clip-path="url(#p91f60239bb)" style="fill: none; stroke: #dddddd; stroke-linecap: square"/>
     </g>
     <g id="line2d_106">
      <g>
       <use xlink:href="#mce75613e01" x="470.254454" y="156.299336" style="stroke: #000000"/>
      </g>
     </g>
    </g>
    <g id="ytick_25">
     <g id="line2d_107">
      <path d="M 470.254454 203.070989 
L 580.096973 203.070989 
" clip-path="url(#p91f60239bb)" style="fill: none; stroke: #dddddd; stroke-linecap: square"/>
     </g>
     <g id="line2d_108">
      <g>
       <use xlink:href="#mce75613e01" x="470.254454" y="203.070989" style="stroke: #000000"/>
      </g>
     </g>
    </g>
   </g>
   <g id="PathCollection_5">
    <g clip-path="url(#p91f60239bb)">
     <use xlink:href="#ma76b28bb8c" x="470.551029" y="62.756029" style="stroke: #000000"/>
     <use xlink:href="#ma76b28bb8c" x="534.521115" y="156.299336" style="stroke: #000000"/>
     <use xlink:href="#ma76b28bb8c" x="473.7793" y="109.527682" style="stroke: #000000"/>
    </g>
   </g>
   <g id="line2d_109">
    <path d="M 470.25446 15.984375 
L 470.256113 18.35685 
L 470.267241 20.729325 
L 470.289921 23.101801 
L 470.319246 25.474276 
L 470.352786 27.846751 
L 470.39125 30.219226 
L 470.436164 32.591701 
L 470.488678 34.964176 
L 470.549438 37.336652 
L 470.618888 39.709127 
L 470.697593 42.081602 
L 470.786443 44.454077 
L 470.886721 46.826552 
L 471.000086 49.199028 
L 471.128538 51.571503 
L 471.274368 53.943978 
L 471.440114 56.316453 
L 471.628506 58.688928 
L 471.842387 61.061403 
L 472.084596 63.433879 
L 472.357805 65.806354 
L 472.664302 68.178829 
L 473.005731 70.551304 
L 473.382782 72.923779 
L 473.79489 75.296254 
L 474.239967 77.66873 
L 474.71423 80.041205 
L 475.212184 82.41368 
L 475.726802 84.786155 
L 476.249924 87.15863 
L 476.772829 89.531106 
L 477.286925 91.903581 
L 477.78444 94.276056 
L 478.259011 96.648531 
L 478.706079 99.021006 
L 479.123048 101.393481 
L 479.509202 103.765957 
L 479.865437 106.138432 
L 480.193873 108.510907 
L 480.49742 110.883382 
L 480.779375 113.255857 
L 481.04308 115.628333 
L 481.291674 118.000808 
L 481.527928 120.373283 
L 481.754171 122.745758 
L 481.972259 125.118233 
L 482.1836 127.490708 
L 482.389194 129.863184 
L 482.58969 132.235659 
L 482.785439 134.608134 
L 482.97655 136.980609 
L 483.162938 139.353084 
L 483.344365 141.72556 
L 483.520481 144.098035 
L 483.69085 146.47051 
L 483.854987 148.842985 
L 484.012379 151.21546 
L 484.162517 153.587935 
L 484.304914 155.960411 
L 496.319447 158.332886 
L 548.367456 160.705361 
L 545.001213 163.077836 
L 544.222877 165.450311 
L 544.184984 167.822787 
L 544.208914 170.195262 
L 544.236154 172.567737 
L 544.272131 174.940212 
L 544.321052 177.312687 
L 544.373558 179.685162 
" clip-path="url(#p91f60239bb)" style="fill: none; stroke: #00a6d6; stroke-width: 3; stroke-linecap: square"/>
   </g>
   <g id="line2d_110">
    <path d="M 485.531351 15.984375 
L 485.531351 18.35685 
L 485.531351 20.729325 
L 485.531351 23.101801 
L 485.531351 25.474276 
L 485.531351 27.846751 
L 485.531351 30.219226 
L 485.531351 32.591701 
L 485.531351 34.964176 
L 485.531351 37.336652 
L 485.531351 39.709127 
L 485.531351 42.081602 
L 485.531351 44.454077 
L 485.531351 46.826552 
L 485.531351 49.199028 
L 485.531351 51.571503 
L 485.531351 53.943978 
L 485.531351 56.316453 
L 485.531351 58.688928 
L 485.531351 61.061403 
L 485.531351 63.433879 
L 485.531351 65.806354 
L 485.531351 68.178829 
L 485.531351 70.551304 
L 485.531351 72.923779 
L 485.531351 75.296254 
L 485.531351 77.66873 
L 485.531351 80.041205 
L 485.531351 82.41368 
L 485.531351 84.786155 
L 485.531351 87.15863 
L 485.531351 89.531106 
L 485.531351 91.903581 
L 485.531351 94.276056 
L 485.531351 96.648531 
L 485.531351 99.021006 
L 485.531351 101.393481 
L 485.531351 103.765957 
L 485.531351 106.138432 
L 485.531351 108.510907 
L 485.531351 110.883382 
L 485.531351 113.255857 
L 485.531351 115.628333 
L 485.531351 118.000808 
L 485.531351 120.373283 
L 485.531351 122.745758 
L 485.531351 125.118233 
L 485.531351 127.490708 
L 485.531351 129.863184 
L 485.531351 132.235659 
L 485.531351 134.608134 
L 485.531351 136.980609 
L 485.531351 139.353084 
L 485.531351 141.72556 
L 485.531351 144.098035 
L 485.531351 146.47051 
L 485.531351 148.842985 
L 485.531351 151.21546 
L 485.531351 153.587935 
L 485.531351 155.960411 
L 485.531351 158.332886 
L 485.531351 160.705361 
L 485.531351 163.077836 
L 485.531351 165.450311 
L 485.531351 167.822787 
L 485.531351 170.195262 
L 485.531351 172.567737 
L 485.531351 174.940212 
L 485.531351 177.312687 
L 485.531351 179.685162 
" clip-path="url(#p91f60239bb)" style="fill: none; stroke-dasharray: 11.1,4.8; stroke-dashoffset: 0; stroke: #00a6d6; stroke-width: 3"/>
   </g>
   <g id="patch_23">
    <path d="M 470.254454 203.070989 
L 470.254454 15.984375 
" style="fill: none; stroke: #000000; stroke-linejoin: miter; stroke-linecap: square"/>
   </g>
   <g id="patch_24">
    <path d="M 580.096973 203.070989 
L 580.096973 15.984375 
" style="fill: none; stroke: #000000; stroke-linejoin: miter; stroke-linecap: square"/>
   </g>
   <g id="patch_25">
    <path d="M 470.254454 203.070989 
L 580.096973 203.070989 
" style="fill: none; stroke: #000000; stroke-linejoin: miter; stroke-linecap: square"/>
   </g>
   <g id="patch_26">
    <path d="M 470.254454 15.984375 
L 580.096973 15.984375 
" style="fill: none; stroke: #000000; stroke-linejoin: miter; stroke-linecap: square"/>
   </g>
   <g id="text_37">
    <!-- $1400 - 2000\ \mu m$ -->
    <g transform="translate(482.935714 9.984375)">
     <text>
      <tspan style="font: 12px 'Source Code Pro'" x="0 7.199997 14.399994 21.599991 30.239987 38.879984 46.07998 53.279977 60.479974 70.079946 77.279943" y="-0.203125">1400−2000μm</tspan>
     </text>
    </g>
   </g>
  </g>
  <g id="axes_6">
   <g id="patch_27">
    <path d="M 580.096973 203.070989 
L 689.939493 203.070989 
L 689.939493 15.984375 
L 580.096973 15.984375 
z
" style="fill: #ffffff"/>
   </g>
   <g id="matplotlib.axis_11">
    <g id="xtick_26">
     <g id="line2d_111">
      <path d="M 580.096973 203.070989 
L 580.096973 15.984375 
" clip-path="url(#pc99f1d473a)" style="fill: none; stroke: #dddddd; stroke-linecap: square"/>
     </g>
     <g id="line2d_112">
      <g>
       <use xlink:href="#mbbb049766c" x="580.096973" y="203.070989" style="stroke: #000000"/>
      </g>
     </g>
     <g id="text_38">
      <text style="font: 12px 'Source Code Pro'; text-anchor: middle" x="580.096973" y="218.615364" transform="rotate(-0, 580.096973, 218.615364)">0</text>
     </g>
    </g>
    <g id="xtick_27">
     <g id="line2d_113">
      <path d="M 602.065477 203.070989 
L 602.065477 15.984375 
" clip-path="url(#pc99f1d473a)" style="fill: none; stroke: #dddddd; stroke-linecap: square"/>
     </g>
     <g id="line2d_114">
      <g>
       <use xlink:href="#mbbb049766c" x="602.065477" y="203.070989" style="stroke: #000000"/>
      </g>
     </g>
     <g id="text_39">
      <text style="font: 12px 'Source Code Pro'; text-anchor: middle" x="602.065477" y="218.615364" transform="rotate(-0, 602.065477, 218.615364)">2</text>
     </g>
    </g>
    <g id="xtick_28">
     <g id="line2d_115">
      <path d="M 624.033981 203.070989 
L 624.033981 15.984375 
" clip-path="url(#pc99f1d473a)" style="fill: none; stroke: #dddddd; stroke-linecap: square"/>
     </g>
     <g id="line2d_116">
      <g>
       <use xlink:href="#mbbb049766c" x="624.033981" y="203.070989" style="stroke: #000000"/>
      </g>
     </g>
     <g id="text_40">
      <text style="font: 12px 'Source Code Pro'; text-anchor: middle" x="624.033981" y="218.615364" transform="rotate(-0, 624.033981, 218.615364)">4</text>
     </g>
    </g>
    <g id="xtick_29">
     <g id="line2d_117">
      <path d="M 646.002485 203.070989 
L 646.002485 15.984375 
" clip-path="url(#pc99f1d473a)" style="fill: none; stroke: #dddddd; stroke-linecap: square"/>
     </g>
     <g id="line2d_118">
      <g>
       <use xlink:href="#mbbb049766c" x="646.002485" y="203.070989" style="stroke: #000000"/>
      </g>
     </g>
     <g id="text_41">
      <text style="font: 12px 'Source Code Pro'; text-anchor: middle" x="646.002485" y="218.615364" transform="rotate(-0, 646.002485, 218.615364)">6</text>
     </g>
    </g>
    <g id="xtick_30">
     <g id="line2d_119">
      <path d="M 667.970989 203.070989 
L 667.970989 15.984375 
" clip-path="url(#pc99f1d473a)" style="fill: none; stroke: #dddddd; stroke-linecap: square"/>
     </g>
     <g id="line2d_120">
      <g>
       <use xlink:href="#mbbb049766c" x="667.970989" y="203.070989" style="stroke: #000000"/>
      </g>
     </g>
     <g id="text_42">
      <text style="font: 12px 'Source Code Pro'; text-anchor: middle" x="667.970989" y="218.615364" transform="rotate(-0, 667.970989, 218.615364)">8</text>
     </g>
    </g>
   </g>
   <g id="matplotlib.axis_12">
    <g id="ytick_26">
     <g id="line2d_121">
      <path d="M 580.096973 15.984375 
L 689.939493 15.984375 
" clip-path="url(#pc99f1d473a)" style="fill: none; stroke: #dddddd; stroke-linecap: square"/>
     </g>
     <g id="line2d_122">
      <g>
       <use xlink:href="#mce75613e01" x="580.096973" y="15.984375" style="stroke: #000000"/>
      </g>
     </g>
    </g>
    <g id="ytick_27">
     <g id="line2d_123">
      <path d="M 580.096973 62.756029 
L 689.939493 62.756029 
" clip-path="url(#pc99f1d473a)" style="fill: none; stroke: #dddddd; stroke-linecap: square"/>
     </g>
     <g id="line2d_124">
      <g>
       <use xlink:href="#mce75613e01" x="580.096973" y="62.756029" style="stroke: #000000"/>
      </g>
     </g>
    </g>
    <g id="ytick_28">
     <g id="line2d_125">
      <path d="M 580.096973 109.527682 
L 689.939493 109.527682 
" clip-path="url(#pc99f1d473a)" style="fill: none; stroke: #dddddd; stroke-linecap: square"/>
     </g>
     <g id="line2d_126">
      <g>
       <use xlink:href="#mce75613e01" x="580.096973" y="109.527682" style="stroke: #000000"/>
      </g>
     </g>
    </g>
    <g id="ytick_29">
     <g id="line2d_127">
      <path d="M 580.096973 156.299336 
L 689.939493 156.299336 
" clip-path="url(#pc99f1d473a)" style="fill: none; stroke: #dddddd; stroke-linecap: square"/>
     </g>
     <g id="line2d_128">
      <g>
       <use xlink:href="#mce75613e01" x="580.096973" y="156.299336" style="stroke: #000000"/>
      </g>
     </g>
    </g>
    <g id="ytick_30">
     <g id="line2d_129">
      <path d="M 580.096973 203.070989 
L 689.939493 203.070989 
" clip-path="url(#pc99f1d473a)" style="fill: none; stroke: #dddddd; stroke-linecap: square"/>
     </g>
     <g id="line2d_130">
      <g>
       <use xlink:href="#mce75613e01" x="580.096973" y="203.070989" style="stroke: #000000"/>
      </g>
     </g>
    </g>
   </g>
   <g id="PathCollection_6">
    <g clip-path="url(#pc99f1d473a)">
     <use xlink:href="#ma76b28bb8c" x="580.343021" y="62.756029" style="stroke: #000000"/>
     <use xlink:href="#ma76b28bb8c" x="658.070883" y="156.299336" style="stroke: #000000"/>
     <use xlink:href="#ma76b28bb8c" x="580.61543" y="109.527682" style="stroke: #000000"/>
    </g>
   </g>
   <g id="line2d_131">
    <path d="M 580.096973 15.984375 
L 580.096974 18.35685 
L 580.096982 20.729325 
L 580.097015 23.101801 
L 580.097084 25.474276 
L 580.097199 27.846751 
L 580.097369 30.219226 
L 580.097605 32.591701 
L 580.097924 34.964176 
L 580.098341 37.336652 
L 580.09887 39.709127 
L 580.099526 42.081602 
L 580.100326 44.454077 
L 580.101289 46.826552 
L 580.102442 49.199028 
L 580.103817 51.571503 
L 580.105455 53.943978 
L 580.107413 56.316453 
L 580.109763 58.688928 
L 580.112601 61.061403 
L 580.116053 63.433879 
L 580.120281 65.806354 
L 580.125499 68.178829 
L 580.131982 70.551304 
L 580.140083 72.923779 
L 580.15025 75.296254 
L 580.163041 77.66873 
L 580.179143 80.041205 
L 580.199381 82.41368 
L 580.224725 84.786155 
L 580.256279 87.15863 
L 580.295267 89.531106 
L 580.343002 91.903581 
L 580.400838 94.276056 
L 580.470127 96.648531 
L 580.552168 99.021006 
L 580.64816 101.393481 
L 580.759174 103.765957 
L 580.886133 106.138432 
L 581.02981 108.510907 
L 581.190841 110.883382 
L 581.369742 113.255857 
L 581.566931 115.628333 
L 581.782752 118.000808 
L 582.01749 120.373283 
L 582.271376 122.745758 
L 582.54459 125.118233 
L 582.837247 127.490708 
L 583.149382 129.863184 
L 583.480915 132.235659 
L 583.831627 134.608134 
L 584.20111 136.980609 
L 584.588731 139.353084 
L 584.993581 141.72556 
L 585.414432 144.098035 
L 585.849696 146.47051 
L 586.297392 148.842985 
L 586.755128 151.21546 
L 587.220095 153.587935 
L 587.689087 155.960411 
L 599.097901 158.332886 
L 662.028196 160.705361 
L 672.314279 163.077836 
L 674.441501 165.450311 
L 674.642909 167.822787 
L 674.693541 170.195262 
L 674.766921 172.567737 
L 674.859712 174.940212 
L 674.996553 177.312687 
L 675.358354 179.685162 
" clip-path="url(#pc99f1d473a)" style="fill: none; stroke: #00a6d6; stroke-width: 3; stroke-linecap: square"/>
   </g>
   <g id="line2d_132">
    <path d="M 593.506548 15.984375 
L 593.506548 18.35685 
L 593.506548 20.729325 
L 593.506548 23.101801 
L 593.506548 25.474276 
L 593.506548 27.846751 
L 593.506548 30.219226 
L 593.506548 32.591701 
L 593.506548 34.964176 
L 593.506548 37.336652 
L 593.506548 39.709127 
L 593.506548 42.081602 
L 593.506548 44.454077 
L 593.506548 46.826552 
L 593.506548 49.199028 
L 593.506548 51.571503 
L 593.506548 53.943978 
L 593.506548 56.316453 
L 593.506548 58.688928 
L 593.506548 61.061403 
L 593.506548 63.433879 
L 593.506548 65.806354 
L 593.506548 68.178829 
L 593.506548 70.551304 
L 593.506548 72.923779 
L 593.506548 75.296254 
L 593.506548 77.66873 
L 593.506548 80.041205 
L 593.506548 82.41368 
L 593.506548 84.786155 
L 593.506548 87.15863 
L 593.506548 89.531106 
L 593.506548 91.903581 
L 593.506548 94.276056 
L 593.506548 96.648531 
L 593.506548 99.021006 
L 593.506548 101.393481 
L 593.506548 103.765957 
L 593.506548 106.138432 
L 593.506548 108.510907 
L 593.506548 110.883382 
L 593.506548 113.255857 
L 593.506548 115.628333 
L 593.506548 118.000808 
L 593.506548 120.373283 
L 593.506548 122.745758 
L 593.506548 125.118233 
L 593.506548 127.490708 
L 593.506548 129.863184 
L 593.506548 132.235659 
L 593.506548 134.608134 
L 593.506548 136.980609 
L 593.506548 139.353084 
L 593.506548 141.72556 
L 593.506548 144.098035 
L 593.506548 146.47051 
L 593.506548 148.842985 
L 593.506548 151.21546 
L 593.506548 153.587935 
L 593.506548 155.960411 
L 593.506548 158.332886 
L 593.506548 160.705361 
L 593.506548 163.077836 
L 593.506548 165.450311 
L 593.506548 167.822787 
L 593.506548 170.195262 
L 593.506548 172.567737 
L 593.506548 174.940212 
L 593.506548 177.312687 
L 593.506548 179.685162 
" clip-path="url(#pc99f1d473a)" style="fill: none; stroke-dasharray: 11.1,4.8; stroke-dashoffset: 0; stroke: #00a6d6; stroke-width: 3"/>
   </g>
   <g id="patch_28">
    <path d="M 580.096973 203.070989 
L 580.096973 15.984375 
" style="fill: none; stroke: #000000; stroke-linejoin: miter; stroke-linecap: square"/>
   </g>
   <g id="patch_29">
    <path d="M 689.939493 203.070989 
L 689.939493 15.984375 
" style="fill: none; stroke: #000000; stroke-linejoin: miter; stroke-linecap: square"/>
   </g>
   <g id="patch_30">
    <path d="M 580.096973 203.070989 
L 689.939493 203.070989 
" style="fill: none; stroke: #000000; stroke-linejoin: miter; stroke-linecap: square"/>
   </g>
   <g id="patch_31">
    <path d="M 580.096973 15.984375 
L 689.939493 15.984375 
" style="fill: none; stroke: #000000; stroke-linejoin: miter; stroke-linecap: square"/>
   </g>
   <g id="text_43">
    <!-- $&gt;2000\ \mu m$ -->
    <g transform="translate(607.178233 9.984375)">
     <text>
      <tspan style="font: 12px 'Source Code Pro'" x="1.439999 10.079996 17.279993 24.47999 31.679987 41.279959 48.479955" y="-0.203125">&gt;2000μm</tspan>
     </text>
    </g>
   </g>
  </g>
 </g>
 <defs>
  <clipPath id="pc615bc998d">
   <rect x="30.884375" y="15.984375" width="109.84252" height="187.086614"/>
  </clipPath>
  <clipPath id="p9abb3ede41">
   <rect x="140.726895" y="15.984375" width="109.84252" height="187.086614"/>
  </clipPath>
  <clipPath id="p31ecc56d24">
   <rect x="250.569414" y="15.984375" width="109.84252" height="187.086614"/>
  </clipPath>
  <clipPath id="p5e6497823e">
   <rect x="360.411934" y="15.984375" width="109.84252" height="187.086614"/>
  </clipPath>
  <clipPath id="p91f60239bb">
   <rect x="470.254454" y="15.984375" width="109.84252" height="187.086614"/>
  </clipPath>
  <clipPath id="pc99f1d473a">
   <rect x="580.096973" y="15.984375" width="109.84252" height="187.086614"/>
  </clipPath>
 </defs>
</svg>
