<?xml version="1.0" encoding="utf-8" standalone="no"?>
<!DOCTYPE svg PUBLIC "-//W3C//DTD SVG 1.1//EN"
  "http://www.w3.org/Graphics/SVG/1.1/DTD/svg11.dtd">
<svg xmlns:xlink="http://www.w3.org/1999/xlink" width="617.197625pt" height="202.581875pt" viewBox="0 0 617.197625 202.581875" xmlns="http://www.w3.org/2000/svg" version="1.1">
 <metadata>
  <rdf:RDF xmlns:dc="http://purl.org/dc/elements/1.1/" xmlns:cc="http://creativecommons.org/ns#" xmlns:rdf="http://www.w3.org/1999/02/22-rdf-syntax-ns#">
   <cc:Work>
    <dc:type rdf:resource="http://purl.org/dc/dcmitype/StillImage"/>
    <dc:date>2022-10-06T19:52:02.998393</dc:date>
    <dc:format>image/svg+xml</dc:format>
    <dc:creator>
     <cc:Agent>
      <dc:title>Matplotlib v3.5.2, https://matplotlib.org/</dc:title>
     </cc:Agent>
    </dc:creator>
   </cc:Work>
  </rdf:RDF>
 </metadata>
 <defs>
  <style type="text/css">*{stroke-linejoin: round; stroke-linecap: butt}</style>
 </defs>
 <g id="figure_1">
  <g id="patch_1">
   <path d="M 0 202.581875 
L 617.197625 202.581875 
L 617.197625 0 
L 0 0 
z
" style="fill: #ffffff"/>
  </g>
  <g id="axes_1">
   <g id="patch_2">
    <path d="M 57.757625 167.76 
L 615.757625 167.76 
L 615.757625 1.44 
L 57.757625 1.44 
z
" style="fill: #ffffff"/>
   </g>
   <g id="matplotlib.axis_1">
    <g id="xtick_1">
     <g id="line2d_1">
      <path d="M 83.121261 167.76 
L 83.121261 1.44 
" clip-path="url(#p4e394a8be6)" style="fill: none; stroke: #b0b0b0; stroke-linecap: square"/>
     </g>
     <g id="line2d_2">
      <defs>
       <path id="mde7803626b" d="M 0 0 
L 0 3.5 
" style="stroke: #000000"/>
      </defs>
      <g>
       <use xlink:href="#mde7803626b" x="83.121261" y="167.76" style="stroke: #000000"/>
      </g>
     </g>
     <g id="text_1">
      <!-- 0.0 -->
      <g transform="translate(72.321261 183.304375)scale(0.12 -0.12)">
       <defs>
        <path id="SourceCodePro-Regular-30" d="M 1920 -77 
C 2829 -77 3386 698 3386 2054 
C 3386 3424 2829 4160 1920 4160 
C 1011 4160 454 3424 454 2054 
C 454 698 1011 -77 1920 -77 
z
M 1920 346 
C 1350 346 947 883 947 2054 
C 947 3232 1350 3738 1920 3738 
C 2490 3738 2893 3232 2893 2054 
C 2893 883 2490 346 1920 346 
z
M 1920 1670 
C 2131 1670 2317 1830 2317 2099 
C 2317 2362 2131 2522 1920 2522 
C 1709 2522 1523 2362 1523 2099 
C 1523 1830 1709 1670 1920 1670 
z
" transform="scale(0.015625)"/>
        <path id="SourceCodePro-Regular-2e" d="M 1920 -77 
C 2208 -77 2438 141 2438 461 
C 2438 787 2208 1005 1920 1005 
C 1632 1005 1402 787 1402 461 
C 1402 141 1632 -77 1920 -77 
z
" transform="scale(0.015625)"/>
       </defs>
       <use xlink:href="#SourceCodePro-Regular-30"/>
       <use xlink:href="#SourceCodePro-Regular-2e" x="59.999985"/>
       <use xlink:href="#SourceCodePro-Regular-30" x="119.999969"/>
      </g>
     </g>
    </g>
    <g id="xtick_2">
     <g id="line2d_3">
      <path d="M 184.575807 167.76 
L 184.575807 1.44 
" clip-path="url(#p4e394a8be6)" style="fill: none; stroke: #b0b0b0; stroke-linecap: square"/>
     </g>
     <g id="line2d_4">
      <g>
       <use xlink:href="#mde7803626b" x="184.575807" y="167.76" style="stroke: #000000"/>
      </g>
     </g>
     <g id="text_2">
      <!-- 0.2 -->
      <g transform="translate(173.775807 183.304375)scale(0.12 -0.12)">
       <defs>
        <path id="SourceCodePro-Regular-32" d="M 467 0 
L 3341 0 
L 3341 454 
L 1997 454 
C 1754 454 1491 435 1235 416 
C 2349 1427 3117 2189 3117 2957 
C 3117 3680 2605 4160 1786 4160 
C 1210 4160 806 3910 442 3539 
L 742 3238 
C 1005 3514 1338 3731 1722 3731 
C 2323 3731 2611 3398 2611 2931 
C 2611 2253 1850 1536 467 314 
L 467 0 
z
" transform="scale(0.015625)"/>
       </defs>
       <use xlink:href="#SourceCodePro-Regular-30"/>
       <use xlink:href="#SourceCodePro-Regular-2e" x="59.999985"/>
       <use xlink:href="#SourceCodePro-Regular-32" x="119.999969"/>
      </g>
     </g>
    </g>
    <g id="xtick_3">
     <g id="line2d_5">
      <path d="M 286.030352 167.76 
L 286.030352 1.44 
" clip-path="url(#p4e394a8be6)" style="fill: none; stroke: #b0b0b0; stroke-linecap: square"/>
     </g>
     <g id="line2d_6">
      <g>
       <use xlink:href="#mde7803626b" x="286.030352" y="167.76" style="stroke: #000000"/>
      </g>
     </g>
     <g id="text_3">
      <!-- 0.4 -->
      <g transform="translate(275.230352 183.304375)scale(0.12 -0.12)">
       <defs>
        <path id="SourceCodePro-Regular-34" d="M 832 1549 
L 1939 2944 
C 2074 3142 2227 3341 2355 3539 
L 2387 3539 
C 2374 3315 2362 3040 2355 2816 
L 2355 1549 
L 832 1549 
z
M 2355 0 
L 2854 0 
L 2854 1126 
L 3488 1126 
L 3488 1549 
L 2854 1549 
L 2854 4083 
L 2291 4083 
L 250 1478 
L 250 1126 
L 2355 1126 
L 2355 0 
z
" transform="scale(0.015625)"/>
       </defs>
       <use xlink:href="#SourceCodePro-Regular-30"/>
       <use xlink:href="#SourceCodePro-Regular-2e" x="59.999985"/>
       <use xlink:href="#SourceCodePro-Regular-34" x="119.999969"/>
      </g>
     </g>
    </g>
    <g id="xtick_4">
     <g id="line2d_7">
      <path d="M 387.484898 167.76 
L 387.484898 1.44 
" clip-path="url(#p4e394a8be6)" style="fill: none; stroke: #b0b0b0; stroke-linecap: square"/>
     </g>
     <g id="line2d_8">
      <g>
       <use xlink:href="#mde7803626b" x="387.484898" y="167.76" style="stroke: #000000"/>
      </g>
     </g>
     <g id="text_4">
      <!-- 0.6 -->
      <g transform="translate(376.684898 183.304375)scale(0.12 -0.12)">
       <defs>
        <path id="SourceCodePro-Regular-36" d="M 2048 2099 
C 2611 2099 2918 1792 2918 1235 
C 2918 698 2541 339 2054 339 
C 1459 339 1082 762 1005 1549 
C 1331 1939 1722 2099 2048 2099 
z
M 2054 -77 
C 2784 -77 3418 454 3418 1235 
C 3418 2074 2899 2496 2144 2496 
C 1734 2496 1318 2291 986 1965 
C 1011 3277 1581 3718 2234 3718 
C 2541 3718 2835 3597 3046 3398 
L 3341 3725 
C 3072 3974 2701 4160 2202 4160 
C 1312 4160 493 3526 493 1888 
C 493 576 1165 -77 2054 -77 
z
" transform="scale(0.015625)"/>
       </defs>
       <use xlink:href="#SourceCodePro-Regular-30"/>
       <use xlink:href="#SourceCodePro-Regular-2e" x="59.999985"/>
       <use xlink:href="#SourceCodePro-Regular-36" x="119.999969"/>
      </g>
     </g>
    </g>
    <g id="xtick_5">
     <g id="line2d_9">
      <path d="M 488.939443 167.76 
L 488.939443 1.44 
" clip-path="url(#p4e394a8be6)" style="fill: none; stroke: #b0b0b0; stroke-linecap: square"/>
     </g>
     <g id="line2d_10">
      <g>
       <use xlink:href="#mde7803626b" x="488.939443" y="167.76" style="stroke: #000000"/>
      </g>
     </g>
     <g id="text_5">
      <!-- 0.8 -->
      <g transform="translate(478.139443 183.304375)scale(0.12 -0.12)">
       <defs>
        <path id="SourceCodePro-Regular-38" d="M 1933 -77 
C 2867 -77 3398 403 3398 1011 
C 3398 1594 3046 1850 2598 2074 
L 2598 2099 
C 2938 2336 3219 2688 3219 3072 
C 3219 3706 2752 4160 1952 4160 
C 1222 4160 691 3738 691 3110 
C 691 2682 973 2368 1312 2157 
L 1312 2131 
C 877 1926 435 1606 435 1043 
C 435 397 1011 -77 1933 -77 
z
M 2253 2227 
C 1645 2419 1171 2624 1171 3110 
C 1171 3507 1485 3770 1939 3770 
C 2477 3770 2765 3450 2765 3046 
C 2765 2746 2586 2470 2253 2227 
z
M 1946 314 
C 1318 314 915 640 915 1094 
C 915 1504 1216 1766 1613 1984 
C 2330 1741 2893 1600 2893 1030 
C 2893 608 2554 314 1946 314 
z
" transform="scale(0.015625)"/>
       </defs>
       <use xlink:href="#SourceCodePro-Regular-30"/>
       <use xlink:href="#SourceCodePro-Regular-2e" x="59.999985"/>
       <use xlink:href="#SourceCodePro-Regular-38" x="119.999969"/>
      </g>
     </g>
    </g>
    <g id="xtick_6">
     <g id="line2d_11">
      <path d="M 590.393989 167.76 
L 590.393989 1.44 
" clip-path="url(#p4e394a8be6)" style="fill: none; stroke: #b0b0b0; stroke-linecap: square"/>
     </g>
     <g id="line2d_12">
      <g>
       <use xlink:href="#mde7803626b" x="590.393989" y="167.76" style="stroke: #000000"/>
      </g>
     </g>
     <g id="text_6">
      <!-- 1.0 -->
      <g transform="translate(579.593989 183.304375)scale(0.12 -0.12)">
       <defs>
        <path id="SourceCodePro-Regular-31" d="M 621 0 
L 3392 0 
L 3392 435 
L 2323 435 
L 2323 4083 
L 1933 4083 
C 1670 3942 1363 3846 883 3782 
L 883 3443 
L 1798 3443 
L 1798 435 
L 621 435 
L 621 0 
z
" transform="scale(0.015625)"/>
       </defs>
       <use xlink:href="#SourceCodePro-Regular-31"/>
       <use xlink:href="#SourceCodePro-Regular-2e" x="59.999985"/>
       <use xlink:href="#SourceCodePro-Regular-30" x="119.999969"/>
      </g>
     </g>
    </g>
    <g id="text_7">
     <!-- cumulative fraction of granules from lowest to highest COD uptake -->
     <g transform="translate(102.757625 198.453125)scale(0.12 -0.12)">
      <defs>
       <path id="SourceCodePro-Regular-63" d="M 2214 -77 
C 2675 -77 3104 102 3450 410 
L 3213 749 
C 2957 531 2637 358 2253 358 
C 1536 358 1056 838 1056 1549 
C 1056 2266 1549 2752 2266 2752 
C 2592 2752 2861 2618 3117 2394 
L 3379 2733 
C 3123 2982 2752 3187 2246 3187 
C 1306 3187 512 2592 512 1549 
C 512 518 1242 -77 2214 -77 
z
" transform="scale(0.015625)"/>
       <path id="SourceCodePro-Regular-75" d="M 1574 -77 
C 2054 -77 2419 179 2733 544 
L 2758 544 
L 2803 0 
L 3232 0 
L 3232 3110 
L 2707 3110 
L 2707 954 
C 2362 550 2099 378 1741 378 
C 1222 378 1024 659 1024 1248 
L 1024 3110 
L 493 3110 
L 493 1178 
C 493 358 832 -77 1574 -77 
z
" transform="scale(0.015625)"/>
       <path id="SourceCodePro-Regular-6d" d="M 371 0 
L 896 0 
L 896 2253 
C 1050 2573 1190 2733 1408 2733 
C 1638 2733 1728 2547 1728 2189 
L 1728 0 
L 2214 0 
L 2214 2253 
C 2381 2573 2496 2733 2714 2733 
C 2944 2733 3046 2547 3046 2189 
L 3046 0 
L 3571 0 
L 3571 2227 
C 3571 2848 3315 3187 2880 3187 
C 2522 3187 2330 2982 2150 2650 
C 2061 3008 1869 3187 1562 3187 
C 1203 3187 1011 2989 851 2701 
L 838 2701 
L 794 3110 
L 371 3110 
L 371 0 
z
" transform="scale(0.015625)"/>
       <path id="SourceCodePro-Regular-6c" d="M 2605 -77 
C 2944 -77 3149 -13 3437 109 
L 3302 499 
C 3091 403 2899 358 2720 358 
C 2349 358 2106 550 2106 1005 
L 2106 4557 
L 474 4557 
L 474 4128 
L 1581 4128 
L 1581 1043 
C 1581 307 1946 -77 2605 -77 
z
" transform="scale(0.015625)"/>
       <path id="SourceCodePro-Regular-61" d="M 1574 -77 
C 2016 -77 2458 154 2803 422 
L 2822 422 
L 2867 0 
L 3296 0 
L 3296 1907 
C 3296 2682 2886 3187 2035 3187 
C 1491 3187 966 2944 653 2739 
L 858 2381 
C 1146 2560 1542 2752 1946 2752 
C 2547 2752 2758 2394 2771 1971 
C 1165 1843 518 1504 518 806 
C 518 250 992 -77 1574 -77 
z
M 1715 346 
C 1357 346 1030 493 1030 845 
C 1030 1254 1440 1517 2771 1626 
L 2771 806 
C 2419 512 2067 346 1715 346 
z
" transform="scale(0.015625)"/>
       <path id="SourceCodePro-Regular-74" d="M 2522 -77 
C 2912 -77 3213 6 3494 109 
L 3379 493 
C 3155 410 2925 352 2630 352 
C 2029 352 1843 646 1843 1203 
L 1843 2682 
L 3373 2682 
L 3373 3110 
L 1843 3110 
L 1843 4109 
L 1408 4109 
L 1338 3110 
L 442 3078 
L 442 2682 
L 1318 2682 
L 1318 1210 
C 1318 442 1613 -77 2522 -77 
z
" transform="scale(0.015625)"/>
       <path id="SourceCodePro-Regular-69" d="M 2022 0 
L 2547 0 
L 2547 3110 
L 576 3110 
L 576 2682 
L 2022 2682 
L 2022 0 
z
M 2227 3763 
C 2464 3763 2650 3923 2650 4173 
C 2650 4416 2464 4582 2227 4582 
C 1990 4582 1805 4416 1805 4173 
C 1805 3923 1990 3763 2227 3763 
z
" transform="scale(0.015625)"/>
       <path id="SourceCodePro-Regular-76" d="M 1638 0 
L 2227 0 
L 3514 3110 
L 3008 3110 
L 2291 1344 
C 2163 1030 2061 723 1952 429 
L 1926 429 
C 1818 723 1702 1030 1574 1344 
L 858 3110 
L 326 3110 
L 1638 0 
z
" transform="scale(0.015625)"/>
       <path id="SourceCodePro-Regular-65" d="M 2035 2771 
C 2566 2771 2918 2458 2963 1818 
L 979 1818 
C 1075 2432 1523 2771 2035 2771 
z
M 2112 -77 
C 2611 -77 3008 90 3315 294 
L 3123 640 
C 2842 461 2547 346 2176 346 
C 1530 346 1030 704 966 1408 
L 3418 1408 
C 3430 1491 3443 1606 3443 1728 
C 3443 2605 2918 3187 2022 3187 
C 1190 3187 435 2573 435 1562 
C 435 525 1178 -77 2112 -77 
z
" transform="scale(0.015625)"/>
       <path id="SourceCodePro-Regular-20" transform="scale(0.015625)"/>
       <path id="SourceCodePro-Regular-66" d="M 1549 0 
L 2067 0 
L 2067 2682 
L 3373 2682 
L 3373 3110 
L 2067 3110 
L 2067 3392 
C 2067 3898 2298 4205 2854 4205 
C 3123 4205 3322 4173 3578 4058 
L 3699 4454 
C 3405 4576 3110 4634 2803 4634 
C 1946 4634 1549 4134 1549 3373 
L 1549 3110 
L 659 3078 
L 659 2682 
L 1549 2682 
L 1549 0 
z
" transform="scale(0.015625)"/>
       <path id="SourceCodePro-Regular-72" d="M 934 0 
L 1459 0 
L 1459 1824 
C 1830 2470 2272 2714 2739 2714 
C 2982 2714 3098 2682 3315 2605 
L 3437 3059 
C 3245 3155 3053 3187 2822 3187 
C 2246 3187 1760 2874 1434 2374 
L 1414 2374 
L 1370 3110 
L 934 3110 
L 934 0 
z
" transform="scale(0.015625)"/>
       <path id="SourceCodePro-Regular-6f" d="M 1920 -77 
C 2739 -77 3456 518 3456 1549 
C 3456 2592 2739 3187 1920 3187 
C 1101 3187 384 2592 384 1549 
C 384 518 1101 -77 1920 -77 
z
M 1920 358 
C 1325 358 928 838 928 1549 
C 928 2266 1325 2752 1920 2752 
C 2515 2752 2912 2266 2912 1549 
C 2912 838 2515 358 1920 358 
z
" transform="scale(0.015625)"/>
       <path id="SourceCodePro-Regular-6e" d="M 595 0 
L 1120 0 
L 1120 2170 
C 1485 2547 1734 2733 2106 2733 
C 2618 2733 2822 2451 2822 1862 
L 2822 0 
L 3347 0 
L 3347 1933 
C 3347 2752 3008 3187 2272 3187 
C 1786 3187 1427 2925 1101 2579 
L 1075 2579 
L 1030 3110 
L 595 3110 
L 595 0 
z
" transform="scale(0.015625)"/>
       <path id="SourceCodePro-Regular-67" d="M 1894 -1434 
C 2950 -1434 3622 -928 3622 -346 
C 3622 179 3238 384 2438 384 
L 1741 384 
C 1331 384 1094 499 1094 742 
C 1094 890 1184 1005 1338 1101 
C 1510 1024 1702 986 1862 986 
C 2534 986 3066 1389 3066 2054 
C 3066 2304 2944 2534 2803 2682 
L 3610 2682 
L 3610 3110 
L 2323 3110 
C 2189 3162 2042 3187 1862 3187 
C 1203 3187 640 2752 640 2074 
C 640 1702 813 1427 1024 1267 
L 1024 1242 
C 787 1082 653 858 653 659 
C 653 397 806 237 973 147 
L 973 122 
C 640 -70 461 -320 461 -570 
C 461 -1120 986 -1434 1894 -1434 
z
M 1862 1338 
C 1472 1338 1146 1626 1146 2074 
C 1146 2509 1472 2803 1862 2803 
C 2259 2803 2579 2509 2579 2074 
C 2579 1626 2259 1338 1862 1338 
z
M 1933 -1050 
C 1267 -1050 915 -845 915 -518 
C 915 -339 1018 -160 1312 0 
C 1446 -38 1606 -51 1786 -51 
L 2394 -51 
C 2867 -51 3104 -134 3104 -429 
C 3104 -749 2656 -1050 1933 -1050 
z
" transform="scale(0.015625)"/>
       <path id="SourceCodePro-Regular-73" d="M 1984 -77 
C 2874 -77 3366 346 3366 851 
C 3366 1325 3117 1587 2080 1811 
C 1446 1946 1178 2061 1178 2330 
C 1178 2566 1363 2778 1894 2778 
C 2291 2778 2650 2650 2938 2451 
L 3194 2790 
C 2886 3002 2413 3187 1939 3187 
C 1088 3187 646 2803 646 2304 
C 646 1837 1056 1562 1862 1395 
C 2707 1222 2835 1056 2835 819 
C 2835 557 2573 333 2048 333 
C 1472 333 1056 499 698 755 
L 454 410 
C 832 147 1376 -77 1984 -77 
z
" transform="scale(0.015625)"/>
       <path id="SourceCodePro-Regular-77" d="M 730 0 
L 1408 0 
L 1754 1485 
C 1805 1702 1856 2010 1907 2406 
L 1933 2406 
C 1984 2010 2035 1702 2086 1485 
L 2445 0 
L 3123 0 
L 3789 3110 
L 3302 3110 
L 2931 1306 
C 2874 1011 2842 742 2790 448 
L 2765 448 
C 2726 742 2643 1011 2573 1306 
L 2202 2918 
L 1677 2918 
L 1293 1306 
C 1222 1018 1152 742 1114 448 
L 1088 448 
C 1050 742 1005 1011 947 1306 
L 576 3110 
L 51 3110 
L 730 0 
z
" transform="scale(0.015625)"/>
       <path id="SourceCodePro-Regular-68" d="M 595 0 
L 1120 0 
L 1120 2170 
C 1485 2547 1734 2733 2106 2733 
C 2618 2733 2822 2451 2822 1862 
L 2822 0 
L 3347 0 
L 3347 1933 
C 3347 2752 3008 3187 2272 3187 
C 1786 3187 1427 2925 1107 2579 
L 1088 2579 
L 1120 3315 
L 1120 4557 
L 595 4557 
L 595 0 
z
" transform="scale(0.015625)"/>
       <path id="SourceCodePro-Regular-43" d="M 2246 -77 
C 2803 -77 3213 147 3546 531 
L 3245 858 
C 2976 557 2682 390 2298 390 
C 1491 390 966 1056 966 2112 
C 966 3155 1491 3808 2298 3808 
C 2650 3808 2925 3654 3142 3424 
L 3443 3763 
C 3200 4032 2797 4275 2298 4275 
C 1203 4275 416 3450 416 2099 
C 416 730 1210 -77 2246 -77 
z
" transform="scale(0.015625)"/>
       <path id="SourceCodePro-Regular-4f" d="M 1920 -77 
C 2867 -77 3533 742 3533 2118 
C 3533 3475 2867 4275 1920 4275 
C 973 4275 307 3475 307 2118 
C 307 742 973 -77 1920 -77 
z
M 1920 390 
C 1280 390 858 1043 858 2118 
C 858 3174 1280 3808 1920 3808 
C 2560 3808 2982 3174 2982 2118 
C 2982 1043 2560 390 1920 390 
z
" transform="scale(0.015625)"/>
       <path id="SourceCodePro-Regular-44" d="M 557 0 
L 1619 0 
C 2854 0 3539 781 3539 2118 
C 3539 3450 2854 4198 1594 4198 
L 557 4198 
L 557 0 
z
M 1088 435 
L 1088 3763 
L 1555 3763 
C 2515 3763 2989 3174 2989 2118 
C 2989 1056 2515 435 1555 435 
L 1088 435 
z
" transform="scale(0.015625)"/>
       <path id="SourceCodePro-Regular-70" d="M 595 -1312 
L 1120 -1312 
L 1120 -262 
L 1094 326 
L 1114 326 
C 1389 70 1754 -77 2042 -77 
C 2790 -77 3456 544 3456 1600 
C 3456 2566 3008 3187 2170 3187 
C 1786 3187 1382 2989 1094 2714 
L 1075 2714 
L 1030 3110 
L 595 3110 
L 595 -1312 
z
M 1952 365 
C 1741 365 1414 467 1120 730 
L 1120 2278 
C 1440 2598 1760 2746 2035 2746 
C 2656 2746 2912 2285 2912 1600 
C 2912 832 2509 365 1952 365 
z
" transform="scale(0.015625)"/>
       <path id="SourceCodePro-Regular-6b" d="M 678 0 
L 1203 0 
L 1203 845 
L 1939 1568 
L 3085 0 
L 3674 0 
L 2266 1888 
L 3507 3110 
L 2906 3110 
L 1229 1472 
L 1203 1472 
L 1203 4557 
L 678 4557 
L 678 0 
z
" transform="scale(0.015625)"/>
      </defs>
      <use xlink:href="#SourceCodePro-Regular-63"/>
      <use xlink:href="#SourceCodePro-Regular-75" x="59.999985"/>
      <use xlink:href="#SourceCodePro-Regular-6d" x="119.999969"/>
      <use xlink:href="#SourceCodePro-Regular-75" x="179.999954"/>
      <use xlink:href="#SourceCodePro-Regular-6c" x="239.999939"/>
      <use xlink:href="#SourceCodePro-Regular-61" x="299.999924"/>
      <use xlink:href="#SourceCodePro-Regular-74" x="359.999908"/>
      <use xlink:href="#SourceCodePro-Regular-69" x="419.999893"/>
      <use xlink:href="#SourceCodePro-Regular-76" x="479.999878"/>
      <use xlink:href="#SourceCodePro-Regular-65" x="539.999863"/>
      <use xlink:href="#SourceCodePro-Regular-20" x="599.999847"/>
      <use xlink:href="#SourceCodePro-Regular-66" x="659.999832"/>
      <use xlink:href="#SourceCodePro-Regular-72" x="719.999817"/>
      <use xlink:href="#SourceCodePro-Regular-61" x="779.999802"/>
      <use xlink:href="#SourceCodePro-Regular-63" x="839.999786"/>
      <use xlink:href="#SourceCodePro-Regular-74" x="899.999771"/>
      <use xlink:href="#SourceCodePro-Regular-69" x="959.999756"/>
      <use xlink:href="#SourceCodePro-Regular-6f" x="1019.999741"/>
      <use xlink:href="#SourceCodePro-Regular-6e" x="1079.999725"/>
      <use xlink:href="#SourceCodePro-Regular-20" x="1139.99971"/>
      <use xlink:href="#SourceCodePro-Regular-6f" x="1199.999695"/>
      <use xlink:href="#SourceCodePro-Regular-66" x="1259.99968"/>
      <use xlink:href="#SourceCodePro-Regular-20" x="1319.999664"/>
      <use xlink:href="#SourceCodePro-Regular-67" x="1379.999649"/>
      <use xlink:href="#SourceCodePro-Regular-72" x="1439.999634"/>
      <use xlink:href="#SourceCodePro-Regular-61" x="1499.999619"/>
      <use xlink:href="#SourceCodePro-Regular-6e" x="1559.999603"/>
      <use xlink:href="#SourceCodePro-Regular-75" x="1619.999588"/>
      <use xlink:href="#SourceCodePro-Regular-6c" x="1679.999573"/>
      <use xlink:href="#SourceCodePro-Regular-65" x="1739.999557"/>
      <use xlink:href="#SourceCodePro-Regular-73" x="1799.999542"/>
      <use xlink:href="#SourceCodePro-Regular-20" x="1859.999527"/>
      <use xlink:href="#SourceCodePro-Regular-66" x="1919.999512"/>
      <use xlink:href="#SourceCodePro-Regular-72" x="1979.999496"/>
      <use xlink:href="#SourceCodePro-Regular-6f" x="2039.999481"/>
      <use xlink:href="#SourceCodePro-Regular-6d" x="2099.999466"/>
      <use xlink:href="#SourceCodePro-Regular-20" x="2159.999451"/>
      <use xlink:href="#SourceCodePro-Regular-6c" x="2219.999435"/>
      <use xlink:href="#SourceCodePro-Regular-6f" x="2279.99942"/>
      <use xlink:href="#SourceCodePro-Regular-77" x="2339.999405"/>
      <use xlink:href="#SourceCodePro-Regular-65" x="2399.99939"/>
      <use xlink:href="#SourceCodePro-Regular-73" x="2459.999374"/>
      <use xlink:href="#SourceCodePro-Regular-74" x="2519.999359"/>
      <use xlink:href="#SourceCodePro-Regular-20" x="2579.999344"/>
      <use xlink:href="#SourceCodePro-Regular-74" x="2639.999329"/>
      <use xlink:href="#SourceCodePro-Regular-6f" x="2699.999313"/>
      <use xlink:href="#SourceCodePro-Regular-20" x="2759.999298"/>
      <use xlink:href="#SourceCodePro-Regular-68" x="2819.999283"/>
      <use xlink:href="#SourceCodePro-Regular-69" x="2879.999268"/>
      <use xlink:href="#SourceCodePro-Regular-67" x="2939.999252"/>
      <use xlink:href="#SourceCodePro-Regular-68" x="2999.999237"/>
      <use xlink:href="#SourceCodePro-Regular-65" x="3059.999222"/>
      <use xlink:href="#SourceCodePro-Regular-73" x="3119.999207"/>
      <use xlink:href="#SourceCodePro-Regular-74" x="3179.999191"/>
      <use xlink:href="#SourceCodePro-Regular-20" x="3239.999176"/>
      <use xlink:href="#SourceCodePro-Regular-43" x="3299.999161"/>
      <use xlink:href="#SourceCodePro-Regular-4f" x="3359.999146"/>
      <use xlink:href="#SourceCodePro-Regular-44" x="3419.99913"/>
      <use xlink:href="#SourceCodePro-Regular-20" x="3479.999115"/>
      <use xlink:href="#SourceCodePro-Regular-75" x="3539.9991"/>
      <use xlink:href="#SourceCodePro-Regular-70" x="3599.999084"/>
      <use xlink:href="#SourceCodePro-Regular-74" x="3659.999069"/>
      <use xlink:href="#SourceCodePro-Regular-61" x="3719.999054"/>
      <use xlink:href="#SourceCodePro-Regular-6b" x="3779.999039"/>
      <use xlink:href="#SourceCodePro-Regular-65" x="3839.999023"/>
     </g>
    </g>
   </g>
   <g id="matplotlib.axis_2">
    <g id="ytick_1">
     <g id="line2d_13">
      <path d="M 57.757625 160.2 
L 615.757625 160.2 
" clip-path="url(#p4e394a8be6)" style="fill: none; stroke: #b0b0b0; stroke-linecap: square"/>
     </g>
     <g id="line2d_14">
      <defs>
       <path id="m3259dac191" d="M 0 0 
L -3.5 0 
" style="stroke: #000000"/>
      </defs>
      <g>
       <use xlink:href="#m3259dac191" x="57.757625" y="160.2" style="stroke: #000000"/>
      </g>
     </g>
     <g id="text_8">
      <!-- 0.0 -->
      <g transform="translate(29.157625 164.472188)scale(0.12 -0.12)">
       <use xlink:href="#SourceCodePro-Regular-30"/>
       <use xlink:href="#SourceCodePro-Regular-2e" x="59.999985"/>
       <use xlink:href="#SourceCodePro-Regular-30" x="119.999969"/>
      </g>
     </g>
    </g>
    <g id="ytick_2">
     <g id="line2d_15">
      <path d="M 57.757625 129.96 
L 615.757625 129.96 
" clip-path="url(#p4e394a8be6)" style="fill: none; stroke: #b0b0b0; stroke-linecap: square"/>
     </g>
     <g id="line2d_16">
      <g>
       <use xlink:href="#m3259dac191" x="57.757625" y="129.96" style="stroke: #000000"/>
      </g>
     </g>
     <g id="text_9">
      <!-- 0.2 -->
      <g transform="translate(29.157625 134.232188)scale(0.12 -0.12)">
       <use xlink:href="#SourceCodePro-Regular-30"/>
       <use xlink:href="#SourceCodePro-Regular-2e" x="59.999985"/>
       <use xlink:href="#SourceCodePro-Regular-32" x="119.999969"/>
      </g>
     </g>
    </g>
    <g id="ytick_3">
     <g id="line2d_17">
      <path d="M 57.757625 99.72 
L 615.757625 99.72 
" clip-path="url(#p4e394a8be6)" style="fill: none; stroke: #b0b0b0; stroke-linecap: square"/>
     </g>
     <g id="line2d_18">
      <g>
       <use xlink:href="#m3259dac191" x="57.757625" y="99.72" style="stroke: #000000"/>
      </g>
     </g>
     <g id="text_10">
      <!-- 0.4 -->
      <g transform="translate(29.157625 103.992188)scale(0.12 -0.12)">
       <use xlink:href="#SourceCodePro-Regular-30"/>
       <use xlink:href="#SourceCodePro-Regular-2e" x="59.999985"/>
       <use xlink:href="#SourceCodePro-Regular-34" x="119.999969"/>
      </g>
     </g>
    </g>
    <g id="ytick_4">
     <g id="line2d_19">
      <path d="M 57.757625 69.48 
L 615.757625 69.48 
" clip-path="url(#p4e394a8be6)" style="fill: none; stroke: #b0b0b0; stroke-linecap: square"/>
     </g>
     <g id="line2d_20">
      <g>
       <use xlink:href="#m3259dac191" x="57.757625" y="69.48" style="stroke: #000000"/>
      </g>
     </g>
     <g id="text_11">
      <!-- 0.6 -->
      <g transform="translate(29.157625 73.752188)scale(0.12 -0.12)">
       <use xlink:href="#SourceCodePro-Regular-30"/>
       <use xlink:href="#SourceCodePro-Regular-2e" x="59.999985"/>
       <use xlink:href="#SourceCodePro-Regular-36" x="119.999969"/>
      </g>
     </g>
    </g>
    <g id="ytick_5">
     <g id="line2d_21">
      <path d="M 57.757625 39.24 
L 615.757625 39.24 
" clip-path="url(#p4e394a8be6)" style="fill: none; stroke: #b0b0b0; stroke-linecap: square"/>
     </g>
     <g id="line2d_22">
      <g>
       <use xlink:href="#m3259dac191" x="57.757625" y="39.24" style="stroke: #000000"/>
      </g>
     </g>
     <g id="text_12">
      <!-- 0.8 -->
      <g transform="translate(29.157625 43.512188)scale(0.12 -0.12)">
       <use xlink:href="#SourceCodePro-Regular-30"/>
       <use xlink:href="#SourceCodePro-Regular-2e" x="59.999985"/>
       <use xlink:href="#SourceCodePro-Regular-38" x="119.999969"/>
      </g>
     </g>
    </g>
    <g id="ytick_6">
     <g id="line2d_23">
      <path d="M 57.757625 9 
L 615.757625 9 
" clip-path="url(#p4e394a8be6)" style="fill: none; stroke: #b0b0b0; stroke-linecap: square"/>
     </g>
     <g id="line2d_24">
      <g>
       <use xlink:href="#m3259dac191" x="57.757625" y="9" style="stroke: #000000"/>
      </g>
     </g>
     <g id="text_13">
      <!-- 1.0 -->
      <g transform="translate(29.157625 13.272188)scale(0.12 -0.12)">
       <use xlink:href="#SourceCodePro-Regular-31"/>
       <use xlink:href="#SourceCodePro-Regular-2e" x="59.999985"/>
       <use xlink:href="#SourceCodePro-Regular-30" x="119.999969"/>
      </g>
     </g>
    </g>
    <g id="text_14">
     <!-- cumulative fraction  -->
     <g transform="translate(9.984375 156.6)rotate(-90)scale(0.12 -0.12)">
      <use xlink:href="#SourceCodePro-Regular-63"/>
      <use xlink:href="#SourceCodePro-Regular-75" x="59.999985"/>
      <use xlink:href="#SourceCodePro-Regular-6d" x="119.999969"/>
      <use xlink:href="#SourceCodePro-Regular-75" x="179.999954"/>
      <use xlink:href="#SourceCodePro-Regular-6c" x="239.999939"/>
      <use xlink:href="#SourceCodePro-Regular-61" x="299.999924"/>
      <use xlink:href="#SourceCodePro-Regular-74" x="359.999908"/>
      <use xlink:href="#SourceCodePro-Regular-69" x="419.999893"/>
      <use xlink:href="#SourceCodePro-Regular-76" x="479.999878"/>
      <use xlink:href="#SourceCodePro-Regular-65" x="539.999863"/>
      <use xlink:href="#SourceCodePro-Regular-20" x="599.999847"/>
      <use xlink:href="#SourceCodePro-Regular-66" x="659.999832"/>
      <use xlink:href="#SourceCodePro-Regular-72" x="719.999817"/>
      <use xlink:href="#SourceCodePro-Regular-61" x="779.999802"/>
      <use xlink:href="#SourceCodePro-Regular-63" x="839.999786"/>
      <use xlink:href="#SourceCodePro-Regular-74" x="899.999771"/>
      <use xlink:href="#SourceCodePro-Regular-69" x="959.999756"/>
      <use xlink:href="#SourceCodePro-Regular-6f" x="1019.999741"/>
      <use xlink:href="#SourceCodePro-Regular-6e" x="1079.999725"/>
      <use xlink:href="#SourceCodePro-Regular-20" x="1139.99971"/>
     </g>
     <!-- COD sequestered -->
     <g transform="translate(22.697625 138.6)rotate(-90)scale(0.12 -0.12)">
      <defs>
       <path id="SourceCodePro-Regular-71" d="M 2720 -1312 
L 3245 -1312 
L 3245 3110 
L 2822 3110 
L 2778 2765 
L 2758 2765 
C 2464 3040 2176 3187 1798 3187 
C 1062 3187 384 2560 384 1549 
C 384 512 922 -77 1728 -77 
C 2112 -77 2470 134 2726 397 
L 2746 397 
L 2720 -179 
L 2720 -1312 
z
M 1843 365 
C 1267 365 928 813 928 1555 
C 928 2266 1363 2746 1901 2746 
C 2170 2746 2438 2643 2720 2381 
L 2720 832 
C 2445 525 2150 365 1843 365 
z
" transform="scale(0.015625)"/>
       <path id="SourceCodePro-Regular-64" d="M 1734 -77 
C 2118 -77 2490 147 2746 410 
L 2765 410 
L 2810 0 
L 3245 0 
L 3245 4557 
L 2720 4557 
L 2720 3360 
L 2746 2784 
L 2726 2784 
C 2458 3040 2170 3187 1798 3187 
C 1062 3187 384 2560 384 1549 
C 384 512 922 -77 1734 -77 
z
M 1843 365 
C 1267 365 928 813 928 1555 
C 928 2266 1363 2746 1901 2746 
C 2170 2746 2438 2643 2720 2381 
L 2720 832 
C 2445 525 2150 365 1843 365 
z
" transform="scale(0.015625)"/>
      </defs>
      <use xlink:href="#SourceCodePro-Regular-43"/>
      <use xlink:href="#SourceCodePro-Regular-4f" x="59.999985"/>
      <use xlink:href="#SourceCodePro-Regular-44" x="119.999969"/>
      <use xlink:href="#SourceCodePro-Regular-20" x="179.999954"/>
      <use xlink:href="#SourceCodePro-Regular-73" x="239.999939"/>
      <use xlink:href="#SourceCodePro-Regular-65" x="299.999924"/>
      <use xlink:href="#SourceCodePro-Regular-71" x="359.999908"/>
      <use xlink:href="#SourceCodePro-Regular-75" x="419.999893"/>
      <use xlink:href="#SourceCodePro-Regular-65" x="479.999878"/>
      <use xlink:href="#SourceCodePro-Regular-73" x="539.999863"/>
      <use xlink:href="#SourceCodePro-Regular-74" x="599.999847"/>
      <use xlink:href="#SourceCodePro-Regular-65" x="659.999832"/>
      <use xlink:href="#SourceCodePro-Regular-72" x="719.999817"/>
      <use xlink:href="#SourceCodePro-Regular-65" x="779.999802"/>
      <use xlink:href="#SourceCodePro-Regular-64" x="839.999786"/>
     </g>
    </g>
   </g>
   <g id="line2d_25">
    <path d="M 83.121261 160.2 
L 590.393989 9 
" clip-path="url(#p4e394a8be6)" style="fill: none; stroke-dasharray: 11.1,4.8; stroke-dashoffset: 0; stroke: #000000; stroke-width: 3"/>
   </g>
   <g id="line2d_26">
    <path d="M 83.176871 160.2 
L 115.651248 160.089679 
L 126.682068 159.79321 
L 137.747812 159.266085 
L 149.216593 158.503168 
L 161.040973 157.467022 
L 173.038632 156.200478 
L 185.611444 154.659134 
L 199.13343 152.771547 
L 212.866973 150.640153 
L 227.295916 148.164946 
L 242.458632 145.333365 
L 257.962961 142.205284 
L 273.673739 138.810819 
L 290.630122 134.917428 
L 306.462857 131.038285 
L 320.707637 127.321121 
L 334.887503 123.400251 
L 350.760288 118.766689 
L 366.060628 114.063603 
L 381.997609 108.926057 
L 397.326314 103.740921 
L 413.128156 98.148333 
L 427.865887 92.699808 
L 441.428038 87.462716 
L 456.515282 81.388371 
L 469.784938 75.812596 
L 484.187986 69.503843 
L 496.796036 63.754345 
L 508.641303 58.127509 
L 520.601512 52.182501 
L 532.023835 46.257379 
L 542.404968 40.629726 
L 551.663636 35.354987 
L 560.21436 30.246455 
L 568.943083 24.773989 
L 575.972038 20.113317 
L 581.794905 15.982359 
L 586.564605 12.338229 
L 589.591514 9.772223 
L 590.393989 9 
L 590.393989 9 
" clip-path="url(#p4e394a8be6)" style="fill: none; stroke: #00a6d6; stroke-width: 3; stroke-linecap: square"/>
   </g>
   <g id="line2d_27">
    <path d="M 83.185177 160.2 
L 386.192687 160.088993 
L 419.376321 159.855406 
L 439.8382 159.500344 
L 454.573595 159.039028 
L 466.419602 158.454793 
L 476.572361 157.742872 
L 485.695264 156.877249 
L 495.298438 155.723637 
L 503.336569 154.544767 
L 511.310705 153.157838 
L 519.752374 151.455883 
L 527.670608 149.604329 
L 536.082437 147.379739 
L 542.686559 145.402104 
L 549.620524 143.080765 
L 555.888916 140.762114 
L 562.317736 138.156653 
L 567.747379 135.7452 
L 573.231859 133.038876 
L 577.832577 130.526826 
L 581.885906 128.063815 
L 584.110175 126.468599 
L 585.624038 125.081542 
L 586.37437 124.100004 
L 586.827741 123.138947 
L 587.243245 121.689037 
L 587.640115 119.438854 
L 588.085731 115.480276 
L 588.535571 109.363445 
L 589.012088 99.670931 
L 589.508984 84.850106 
L 589.986253 63.295804 
L 590.30878 38.915811 
L 590.390414 14.752204 
L 590.393989 9 
L 590.393989 9 
" clip-path="url(#p4e394a8be6)" style="fill: none; stroke-dasharray: 11.1,4.8; stroke-dashoffset: 0; stroke: #00a6d6; stroke-width: 3"/>
   </g>
   <g id="line2d_28">
    <path d="M 83.281547 160.2 
L 580.000932 160.091297 
L 583.438829 159.896256 
L 585.818607 159.56106 
L 587.396852 159.056867 
L 587.772506 158.670302 
L 588.076593 158.031354 
L 588.373784 156.837269 
L 588.675427 154.627504 
L 588.94983 150.870682 
L 589.252225 143.415826 
L 589.583909 129.188751 
L 589.952763 102.725915 
L 590.285172 61.661103 
L 590.389976 23.00516 
L 590.393989 9 
L 590.393989 9 
" clip-path="url(#p4e394a8be6)" style="fill: none; stroke-dasharray: 3,4.95; stroke-dashoffset: 0; stroke: #00a6d6; stroke-width: 3"/>
   </g>
   <g id="patch_3">
    <path d="M 57.757625 167.76 
L 57.757625 1.44 
" style="fill: none; stroke: #000000; stroke-linejoin: miter; stroke-linecap: square"/>
   </g>
   <g id="patch_4">
    <path d="M 615.757625 167.76 
L 615.757625 1.44 
" style="fill: none; stroke: #000000; stroke-linejoin: miter; stroke-linecap: square"/>
   </g>
   <g id="patch_5">
    <path d="M 57.757625 167.76 
L 615.757625 167.76 
" style="fill: none; stroke: #000000; stroke-linejoin: miter; stroke-linecap: square"/>
   </g>
   <g id="patch_6">
    <path d="M 57.757625 1.44 
L 615.757625 1.44 
" style="fill: none; stroke: #000000; stroke-linejoin: miter; stroke-linecap: square"/>
   </g>
   <g id="legend_1">
    <g id="patch_7">
     <path d="M 63.757625 80.559375 
L 236.557625 80.559375 
L 236.557625 7.44 
L 63.757625 7.44 
z
" style="fill: #ffffff; opacity: 0.8; stroke: #cccccc; stroke-linejoin: miter"/>
    </g>
    <g id="line2d_29">
     <path d="M 68.557625 16.63125 
L 80.557625 16.63125 
L 92.557625 16.63125 
" style="fill: none; stroke-dasharray: 11.1,4.8; stroke-dashoffset: 0; stroke: #000000; stroke-width: 3"/>
    </g>
    <g id="text_15">
     <!-- equality -->
     <g transform="translate(102.157625 20.83125)scale(0.12 -0.12)">
      <defs>
       <path id="SourceCodePro-Regular-79" d="M 838 -1338 
C 1542 -1338 1926 -870 2157 -256 
L 3526 3110 
L 3027 3110 
L 2349 1389 
C 2246 1107 2125 781 2016 486 
L 1990 486 
C 1862 787 1728 1114 1606 1389 
L 845 3110 
L 314 3110 
L 1766 -6 
L 1670 -237 
C 1517 -621 1254 -902 819 -902 
C 723 -902 621 -883 538 -858 
L 429 -1274 
C 538 -1312 691 -1338 838 -1338 
z
" transform="scale(0.015625)"/>
      </defs>
      <use xlink:href="#SourceCodePro-Regular-65"/>
      <use xlink:href="#SourceCodePro-Regular-71" x="59.999985"/>
      <use xlink:href="#SourceCodePro-Regular-75" x="119.999969"/>
      <use xlink:href="#SourceCodePro-Regular-61" x="179.999954"/>
      <use xlink:href="#SourceCodePro-Regular-6c" x="239.999939"/>
      <use xlink:href="#SourceCodePro-Regular-69" x="299.999924"/>
      <use xlink:href="#SourceCodePro-Regular-74" x="359.999908"/>
      <use xlink:href="#SourceCodePro-Regular-79" x="419.999893"/>
     </g>
    </g>
    <g id="line2d_30">
     <path d="M 68.557625 33.924375 
L 80.557625 33.924375 
L 92.557625 33.924375 
" style="fill: none; stroke: #00a6d6; stroke-width: 3; stroke-linecap: square"/>
    </g>
    <g id="text_16">
     <!-- gini 0.354 (start) -->
     <g transform="translate(102.157625 38.124375)scale(0.12 -0.12)">
      <defs>
       <path id="SourceCodePro-Regular-33" d="M 1837 -77 
C 2650 -77 3315 365 3315 1088 
C 3315 1651 2848 2010 2304 2125 
L 2304 2150 
C 2810 2317 3174 2630 3174 3123 
C 3174 3782 2592 4160 1824 4160 
C 1299 4160 858 3942 518 3648 
L 800 3315 
C 1069 3558 1421 3731 1805 3731 
C 2304 3731 2637 3482 2637 3085 
C 2637 2656 2266 2323 1299 2323 
L 1299 1920 
C 2374 1920 2784 1594 2784 1107 
C 2784 653 2362 358 1805 358 
C 1280 358 902 589 634 845 
L 365 499 
C 666 198 1133 -77 1837 -77 
z
" transform="scale(0.015625)"/>
       <path id="SourceCodePro-Regular-35" d="M 1830 -77 
C 2611 -77 3341 422 3341 1306 
C 3341 2189 2720 2586 1939 2586 
C 1626 2586 1421 2522 1184 2419 
L 1293 3629 
L 3136 3629 
L 3136 4083 
L 826 4083 
L 691 2118 
L 973 1939 
C 1261 2099 1466 2189 1805 2189 
C 2413 2189 2810 1856 2810 1293 
C 2810 723 2349 358 1773 358 
C 1222 358 890 582 621 826 
L 358 480 
C 672 198 1101 -77 1830 -77 
z
" transform="scale(0.015625)"/>
       <path id="SourceCodePro-Regular-28" d="M 2771 -1126 
L 3059 -858 
C 2202 -134 1805 704 1805 1779 
C 1805 2854 2202 3693 3059 4416 
L 2771 4685 
C 1882 3994 1331 3014 1331 1779 
C 1331 544 1882 -435 2771 -1126 
z
" transform="scale(0.015625)"/>
       <path id="SourceCodePro-Regular-29" d="M 1069 -1126 
C 1958 -435 2509 544 2509 1779 
C 2509 3014 1958 3994 1069 4685 
L 781 4416 
C 1638 3693 2035 2854 2035 1779 
C 2035 704 1638 -134 781 -858 
L 1069 -1126 
z
" transform="scale(0.015625)"/>
      </defs>
      <use xlink:href="#SourceCodePro-Regular-67"/>
      <use xlink:href="#SourceCodePro-Regular-69" x="59.999985"/>
      <use xlink:href="#SourceCodePro-Regular-6e" x="119.999969"/>
      <use xlink:href="#SourceCodePro-Regular-69" x="179.999954"/>
      <use xlink:href="#SourceCodePro-Regular-20" x="239.999939"/>
      <use xlink:href="#SourceCodePro-Regular-30" x="299.999924"/>
      <use xlink:href="#SourceCodePro-Regular-2e" x="359.999908"/>
      <use xlink:href="#SourceCodePro-Regular-33" x="419.999893"/>
      <use xlink:href="#SourceCodePro-Regular-35" x="479.999878"/>
      <use xlink:href="#SourceCodePro-Regular-34" x="539.999863"/>
      <use xlink:href="#SourceCodePro-Regular-20" x="599.999847"/>
      <use xlink:href="#SourceCodePro-Regular-28" x="659.999832"/>
      <use xlink:href="#SourceCodePro-Regular-73" x="719.999817"/>
      <use xlink:href="#SourceCodePro-Regular-74" x="779.999802"/>
      <use xlink:href="#SourceCodePro-Regular-61" x="839.999786"/>
      <use xlink:href="#SourceCodePro-Regular-72" x="899.999771"/>
      <use xlink:href="#SourceCodePro-Regular-74" x="959.999756"/>
      <use xlink:href="#SourceCodePro-Regular-29" x="1019.999741"/>
     </g>
    </g>
    <g id="line2d_31">
     <path d="M 68.557625 51.3975 
L 80.557625 51.3975 
L 92.557625 51.3975 
" style="fill: none; stroke-dasharray: 11.1,4.8; stroke-dashoffset: 0; stroke: #00a6d6; stroke-width: 3"/>
    </g>
    <g id="text_17">
     <!-- gini 0.952 (lag) -->
     <g transform="translate(102.157625 55.5975)scale(0.12 -0.12)">
      <defs>
       <path id="SourceCodePro-Regular-39" d="M 928 2848 
C 928 3386 1306 3744 1792 3744 
C 2394 3744 2758 3322 2842 2528 
C 2509 2144 2118 1984 1798 1984 
C 1229 1984 928 2291 928 2848 
z
M 1645 -77 
C 2528 -77 3354 557 3354 2195 
C 3354 3507 2675 4160 1786 4160 
C 1062 4160 429 3629 429 2848 
C 429 2010 941 1587 1696 1587 
C 2112 1587 2522 1786 2854 2112 
C 2829 806 2259 358 1613 358 
C 1299 358 1005 486 800 685 
L 506 352 
C 774 109 1146 -77 1645 -77 
z
" transform="scale(0.015625)"/>
      </defs>
      <use xlink:href="#SourceCodePro-Regular-67"/>
      <use xlink:href="#SourceCodePro-Regular-69" x="59.999985"/>
      <use xlink:href="#SourceCodePro-Regular-6e" x="119.999969"/>
      <use xlink:href="#SourceCodePro-Regular-69" x="179.999954"/>
      <use xlink:href="#SourceCodePro-Regular-20" x="239.999939"/>
      <use xlink:href="#SourceCodePro-Regular-30" x="299.999924"/>
      <use xlink:href="#SourceCodePro-Regular-2e" x="359.999908"/>
      <use xlink:href="#SourceCodePro-Regular-39" x="419.999893"/>
      <use xlink:href="#SourceCodePro-Regular-35" x="479.999878"/>
      <use xlink:href="#SourceCodePro-Regular-32" x="539.999863"/>
      <use xlink:href="#SourceCodePro-Regular-20" x="599.999847"/>
      <use xlink:href="#SourceCodePro-Regular-28" x="659.999832"/>
      <use xlink:href="#SourceCodePro-Regular-6c" x="719.999817"/>
      <use xlink:href="#SourceCodePro-Regular-61" x="779.999802"/>
      <use xlink:href="#SourceCodePro-Regular-67" x="839.999786"/>
      <use xlink:href="#SourceCodePro-Regular-29" x="899.999771"/>
     </g>
    </g>
    <g id="line2d_32">
     <path d="M 68.557625 68.870625 
L 80.557625 68.870625 
L 92.557625 68.870625 
" style="fill: none; stroke-dasharray: 3,4.95; stroke-dashoffset: 0; stroke: #00a6d6; stroke-width: 3"/>
    </g>
    <g id="text_18">
     <!-- gini 0.998 (gran.) -->
     <g transform="translate(102.157625 73.070625)scale(0.12 -0.12)">
      <use xlink:href="#SourceCodePro-Regular-67"/>
      <use xlink:href="#SourceCodePro-Regular-69" x="59.999985"/>
      <use xlink:href="#SourceCodePro-Regular-6e" x="119.999969"/>
      <use xlink:href="#SourceCodePro-Regular-69" x="179.999954"/>
      <use xlink:href="#SourceCodePro-Regular-20" x="239.999939"/>
      <use xlink:href="#SourceCodePro-Regular-30" x="299.999924"/>
      <use xlink:href="#SourceCodePro-Regular-2e" x="359.999908"/>
      <use xlink:href="#SourceCodePro-Regular-39" x="419.999893"/>
      <use xlink:href="#SourceCodePro-Regular-39" x="479.999878"/>
      <use xlink:href="#SourceCodePro-Regular-38" x="539.999863"/>
      <use xlink:href="#SourceCodePro-Regular-20" x="599.999847"/>
      <use xlink:href="#SourceCodePro-Regular-28" x="659.999832"/>
      <use xlink:href="#SourceCodePro-Regular-67" x="719.999817"/>
      <use xlink:href="#SourceCodePro-Regular-72" x="779.999802"/>
      <use xlink:href="#SourceCodePro-Regular-61" x="839.999786"/>
      <use xlink:href="#SourceCodePro-Regular-6e" x="899.999771"/>
      <use xlink:href="#SourceCodePro-Regular-2e" x="959.999756"/>
      <use xlink:href="#SourceCodePro-Regular-29" x="1019.999741"/>
     </g>
    </g>
   </g>
  </g>
 </g>
 <defs>
  <clipPath id="p4e394a8be6">
   <rect x="57.757625" y="1.44" width="558" height="166.32"/>
  </clipPath>
 </defs>
</svg>
