<?xml version="1.0" encoding="utf-8" standalone="no"?>
<!DOCTYPE svg PUBLIC "-//W3C//DTD SVG 1.1//EN"
  "http://www.w3.org/Graphics/SVG/1.1/DTD/svg11.dtd">
<svg xmlns:xlink="http://www.w3.org/1999/xlink" width="605.72pt" height="228.84875pt" viewBox="0 0 605.72 228.84875" xmlns="http://www.w3.org/2000/svg" version="1.1">
 <metadata>
  <rdf:RDF xmlns:dc="http://purl.org/dc/elements/1.1/" xmlns:cc="http://creativecommons.org/ns#" xmlns:rdf="http://www.w3.org/1999/02/22-rdf-syntax-ns#">
   <cc:Work>
    <dc:type rdf:resource="http://purl.org/dc/dcmitype/StillImage"/>
    <dc:date>2022-10-07T11:42:54.927171</dc:date>
    <dc:format>image/svg+xml</dc:format>
    <dc:creator>
     <cc:Agent>
      <dc:title>Matplotlib v3.5.2, https://matplotlib.org/</dc:title>
     </cc:Agent>
    </dc:creator>
   </cc:Work>
  </rdf:RDF>
 </metadata>
 <defs>
  <style type="text/css">*{stroke-linejoin: round; stroke-linecap: butt}</style>
 </defs>
 <g id="figure_1">
  <g id="patch_1">
   <path d="M 0 228.84875 
L 605.72 228.84875 
L 605.72 0 
L 0 0 
z
" style="fill: #ffffff"/>
  </g>
  <g id="axes_1">
   <g id="patch_2">
    <path d="M 39.08 194.364375 
L 597.08 194.364375 
L 597.08 28.044375 
L 39.08 28.044375 
z
" style="fill: #ffffff"/>
   </g>
   <g id="matplotlib.axis_1">
    <g id="xtick_1">
     <g id="line2d_1">
      <path d="M 39.08 194.364375 
L 39.08 28.044375 
" clip-path="url(#p3e99476758)" style="fill: none; stroke: #b0b0b0; stroke-linecap: square"/>
     </g>
     <g id="line2d_2">
      <defs>
       <path id="m8df0ea5328" d="M 0 0 
L 0 3.5 
" style="stroke: #000000"/>
      </defs>
      <g>
       <use xlink:href="#m8df0ea5328" x="39.08" y="194.364375" style="stroke: #000000"/>
      </g>
     </g>
     <g id="text_1">
      <text style="font: 12px 'Source Code Pro'; text-anchor: middle" x="39.08" y="209.90875" transform="rotate(-0, 39.08, 209.90875)">0</text>
     </g>
    </g>
    <g id="xtick_2">
     <g id="line2d_3">
      <path d="M 132.08 194.364375 
L 132.08 28.044375 
" clip-path="url(#p3e99476758)" style="fill: none; stroke: #b0b0b0; stroke-linecap: square"/>
     </g>
     <g id="line2d_4">
      <g>
       <use xlink:href="#m8df0ea5328" x="132.08" y="194.364375" style="stroke: #000000"/>
      </g>
     </g>
     <g id="text_2">
      <text style="font: 12px 'Source Code Pro'; text-anchor: middle" x="132.08" y="209.90875" transform="rotate(-0, 132.08, 209.90875)">5</text>
     </g>
    </g>
    <g id="xtick_3">
     <g id="line2d_5">
      <path d="M 225.08 194.364375 
L 225.08 28.044375 
" clip-path="url(#p3e99476758)" style="fill: none; stroke: #b0b0b0; stroke-linecap: square"/>
     </g>
     <g id="line2d_6">
      <g>
       <use xlink:href="#m8df0ea5328" x="225.08" y="194.364375" style="stroke: #000000"/>
      </g>
     </g>
     <g id="text_3">
      <text style="font: 12px 'Source Code Pro'; text-anchor: middle" x="225.08" y="209.90875" transform="rotate(-0, 225.08, 209.90875)">10</text>
     </g>
    </g>
    <g id="xtick_4">
     <g id="line2d_7">
      <path d="M 318.08 194.364375 
L 318.08 28.044375 
" clip-path="url(#p3e99476758)" style="fill: none; stroke: #b0b0b0; stroke-linecap: square"/>
     </g>
     <g id="line2d_8">
      <g>
       <use xlink:href="#m8df0ea5328" x="318.08" y="194.364375" style="stroke: #000000"/>
      </g>
     </g>
     <g id="text_4">
      <text style="font: 12px 'Source Code Pro'; text-anchor: middle" x="318.08" y="209.90875" transform="rotate(-0, 318.08, 209.90875)">15</text>
     </g>
    </g>
    <g id="xtick_5">
     <g id="line2d_9">
      <path d="M 411.08 194.364375 
L 411.08 28.044375 
" clip-path="url(#p3e99476758)" style="fill: none; stroke: #b0b0b0; stroke-linecap: square"/>
     </g>
     <g id="line2d_10">
      <g>
       <use xlink:href="#m8df0ea5328" x="411.08" y="194.364375" style="stroke: #000000"/>
      </g>
     </g>
     <g id="text_5">
      <text style="font: 12px 'Source Code Pro'; text-anchor: middle" x="411.08" y="209.90875" transform="rotate(-0, 411.08, 209.90875)">20</text>
     </g>
    </g>
    <g id="xtick_6">
     <g id="line2d_11">
      <path d="M 504.08 194.364375 
L 504.08 28.044375 
" clip-path="url(#p3e99476758)" style="fill: none; stroke: #b0b0b0; stroke-linecap: square"/>
     </g>
     <g id="line2d_12">
      <g>
       <use xlink:href="#m8df0ea5328" x="504.08" y="194.364375" style="stroke: #000000"/>
      </g>
     </g>
     <g id="text_6">
      <text style="font: 12px 'Source Code Pro'; text-anchor: middle" x="504.08" y="209.90875" transform="rotate(-0, 504.08, 209.90875)">25</text>
     </g>
    </g>
    <g id="xtick_7">
     <g id="line2d_13">
      <path d="M 597.08 194.364375 
L 597.08 28.044375 
" clip-path="url(#p3e99476758)" style="fill: none; stroke: #b0b0b0; stroke-linecap: square"/>
     </g>
     <g id="line2d_14">
      <g>
       <use xlink:href="#m8df0ea5328" x="597.08" y="194.364375" style="stroke: #000000"/>
      </g>
     </g>
     <g id="text_7">
      <text style="font: 12px 'Source Code Pro'; text-anchor: middle" x="597.08" y="209.90875" transform="rotate(-0, 597.08, 209.90875)">30</text>
     </g>
    </g>
    <g id="text_8">
     <!-- $time\ (d)$ -->
     <g transform="translate(291.68 224.94875)">
      <text>
       <tspan style="font: 12px 'Source Code Pro'" x="0 7.199997 14.399994 21.599991 31.199963 38.39996 45.599957" y="-0.21875">time(d)</tspan>
      </text>
     </g>
    </g>
   </g>
   <g id="matplotlib.axis_2">
    <g id="ytick_1">
     <g id="line2d_15">
      <path d="M 39.08 194.364375 
L 597.08 194.364375 
" clip-path="url(#p3e99476758)" style="fill: none; stroke: #b0b0b0; stroke-linecap: square"/>
     </g>
     <g id="line2d_16">
      <defs>
       <path id="mbf4cfc6086" d="M 0 0 
L -3.5 0 
" style="stroke: #000000"/>
      </defs>
      <g>
       <use xlink:href="#mbf4cfc6086" x="39.08" y="194.364375" style="stroke: #000000"/>
      </g>
     </g>
     <g id="text_9">
      <text style="font: 12px 'Source Code Pro'; text-anchor: end" x="32.08" y="198.636562" transform="rotate(-0, 32.08, 198.636562)">0</text>
     </g>
    </g>
    <g id="ytick_2">
     <g id="line2d_17">
      <path d="M 39.08 152.784375 
L 597.08 152.784375 
" clip-path="url(#p3e99476758)" style="fill: none; stroke: #b0b0b0; stroke-linecap: square"/>
     </g>
     <g id="line2d_18">
      <g>
       <use xlink:href="#mbf4cfc6086" x="39.08" y="152.784375" style="stroke: #000000"/>
      </g>
     </g>
     <g id="text_10">
      <text style="font: 12px 'Source Code Pro'; text-anchor: end" x="32.08" y="157.056562" transform="rotate(-0, 32.08, 157.056562)">10</text>
     </g>
    </g>
    <g id="ytick_3">
     <g id="line2d_19">
      <path d="M 39.08 111.204375 
L 597.08 111.204375 
" clip-path="url(#p3e99476758)" style="fill: none; stroke: #b0b0b0; stroke-linecap: square"/>
     </g>
     <g id="line2d_20">
      <g>
       <use xlink:href="#mbf4cfc6086" x="39.08" y="111.204375" style="stroke: #000000"/>
      </g>
     </g>
     <g id="text_11">
      <text style="font: 12px 'Source Code Pro'; text-anchor: end" x="32.08" y="115.476562" transform="rotate(-0, 32.08, 115.476562)">20</text>
     </g>
    </g>
    <g id="ytick_4">
     <g id="line2d_21">
      <path d="M 39.08 69.624375 
L 597.08 69.624375 
" clip-path="url(#p3e99476758)" style="fill: none; stroke: #b0b0b0; stroke-linecap: square"/>
     </g>
     <g id="line2d_22">
      <g>
       <use xlink:href="#mbf4cfc6086" x="39.08" y="69.624375" style="stroke: #000000"/>
      </g>
     </g>
     <g id="text_12">
      <text style="font: 12px 'Source Code Pro'; text-anchor: end" x="32.08" y="73.896562" transform="rotate(-0, 32.08, 73.896562)">30</text>
     </g>
    </g>
    <g id="ytick_5">
     <g id="line2d_23">
      <path d="M 39.08 28.044375 
L 597.08 28.044375 
" clip-path="url(#p3e99476758)" style="fill: none; stroke: #b0b0b0; stroke-linecap: square"/>
     </g>
     <g id="line2d_24">
      <g>
       <use xlink:href="#mbf4cfc6086" x="39.08" y="28.044375" style="stroke: #000000"/>
      </g>
     </g>
     <g id="text_13">
      <text style="font: 12px 'Source Code Pro'; text-anchor: end" x="32.08" y="32.316562" transform="rotate(-0, 32.08, 32.316562)">40</text>
     </g>
    </g>
    <g id="text_14">
     <!-- $concentration\ (mg\ L^{-1})$ -->
     <g transform="translate(10.92 183.684375)rotate(-90)">
      <text>
       <tspan style="font: 12px 'Source Code Pro'" x="0 7.199997 14.399994 21.599991 28.799988 35.999985 43.199982 50.399979 57.599976 64.799973 71.999969 79.199966 86.399963 95.999935 103.199932 110.399929 119.999901 137.673292" y="-0.5609375000000014">concentration(mgL)</tspan>
       <tspan style="font: 8.4px 'Source Code Pro'" x="127.30189 132.341888" y="-4.640625000000001">−1</tspan>
      </text>
     </g>
    </g>
   </g>
   <g id="line2d_25">
    <defs>
     <path id="m06d0a59901" d="M 0 4 
C 1.060812 4 2.078319 3.578535 2.828427 2.828427 
C 3.578535 2.078319 4 1.060812 4 0 
C 4 -1.060812 3.578535 -2.078319 2.828427 -2.828427 
C 2.078319 -3.578535 1.060812 -4 0 -4 
C -1.060812 -4 -2.078319 -3.578535 -2.828427 -2.828427 
C -3.578535 -2.078319 -4 -1.060812 -4 0 
C -4 1.060812 -3.578535 2.078319 -2.828427 2.828427 
C -2.078319 3.578535 -1.060812 4 0 4 
z
" style="stroke: #00a6d6"/>
    </defs>
    <g clip-path="url(#p3e99476758)">
     <use xlink:href="#m06d0a59901" x="57.68" y="67.129575" style="fill: #00a6d6; stroke: #00a6d6"/>
     <use xlink:href="#m06d0a59901" x="76.28" y="103.719975" style="fill: #00a6d6; stroke: #00a6d6"/>
     <use xlink:href="#m06d0a59901" x="94.88" y="107.046375" style="fill: #00a6d6; stroke: #00a6d6"/>
     <use xlink:href="#m06d0a59901" x="113.48" y="98.730375" style="fill: #00a6d6; stroke: #00a6d6"/>
     <use xlink:href="#m06d0a59901" x="150.68" y="117.857175" style="fill: #00a6d6; stroke: #00a6d6"/>
    </g>
   </g>
   <g id="line2d_26">
    <defs>
     <path id="m7a7afa0d72" d="M -4 4 
L 4 -4 
M -4 -4 
L 4 4 
" style="stroke: #000000"/>
    </defs>
    <g clip-path="url(#p3e99476758)">
     <use xlink:href="#m7a7afa0d72" x="169.28" y="166.505775" style="stroke: #000000"/>
     <use xlink:href="#m7a7afa0d72" x="187.88" y="156.942375" style="stroke: #000000"/>
     <use xlink:href="#m7a7afa0d72" x="206.48" y="185.216775" style="stroke: #000000"/>
     <use xlink:href="#m7a7afa0d72" x="225.08" y="179.395575" style="stroke: #000000"/>
     <use xlink:href="#m7a7afa0d72" x="243.68" y="166.505775" style="stroke: #000000"/>
     <use xlink:href="#m7a7afa0d72" x="262.28" y="183.553575" style="stroke: #000000"/>
     <use xlink:href="#m7a7afa0d72" x="280.88" y="184.385175" style="stroke: #000000"/>
     <use xlink:href="#m7a7afa0d72" x="299.48" y="156.526575" style="stroke: #000000"/>
     <use xlink:href="#m7a7afa0d72" x="318.08" y="141.141975" style="stroke: #000000"/>
     <use xlink:href="#m7a7afa0d72" x="336.68" y="151.952775" style="stroke: #000000"/>
     <use xlink:href="#m7a7afa0d72" x="355.28" y="159.021375" style="stroke: #000000"/>
     <use xlink:href="#m7a7afa0d72" x="373.88" y="163.595175" style="stroke: #000000"/>
     <use xlink:href="#m7a7afa0d72" x="429.68" y="156.942375" style="stroke: #000000"/>
     <use xlink:href="#m7a7afa0d72" x="448.28" y="162.763575" style="stroke: #000000"/>
     <use xlink:href="#m7a7afa0d72" x="466.88" y="163.595175" style="stroke: #000000"/>
     <use xlink:href="#m7a7afa0d72" x="485.48" y="154.031775" style="stroke: #000000"/>
     <use xlink:href="#m7a7afa0d72" x="504.08" y="161.931975" style="stroke: #000000"/>
     <use xlink:href="#m7a7afa0d72" x="522.68" y="162.347775" style="stroke: #000000"/>
     <use xlink:href="#m7a7afa0d72" x="541.28" y="161.100375" style="stroke: #000000"/>
     <use xlink:href="#m7a7afa0d72" x="559.88" y="172.742775" style="stroke: #000000"/>
    </g>
   </g>
   <g id="patch_3">
    <path d="M 39.08 194.364375 
L 39.08 28.044375 
" style="fill: none; stroke: #000000; stroke-linejoin: miter; stroke-linecap: square"/>
   </g>
   <g id="patch_4">
    <path d="M 597.08 194.364375 
L 597.08 28.044375 
" style="fill: none; stroke: #000000; stroke-linejoin: miter; stroke-linecap: square"/>
   </g>
   <g id="patch_5">
    <path d="M 39.08 194.364375 
L 597.08 194.364375 
" style="fill: none; stroke: #000000; stroke-linejoin: miter; stroke-linecap: square"/>
   </g>
   <g id="patch_6">
    <path d="M 39.08 28.044375 
L 597.08 28.044375 
" style="fill: none; stroke: #000000; stroke-linejoin: miter; stroke-linecap: square"/>
   </g>
   <g id="legend_1">
    <g id="line2d_27">
     <g>
      <use xlink:href="#m06d0a59901" x="194.48" y="10.584375" style="fill: #00a6d6; stroke: #00a6d6"/>
     </g>
    </g>
    <g id="text_15">
     <text style="font: 12px 'Source Code Pro'; text-anchor: start" x="216.08" y="14.784375" transform="rotate(-0, 216.08, 14.784375)">before baffle</text>
    </g>
    <g id="line2d_28">
     <g>
      <use xlink:href="#m7a7afa0d72" x="345.68" y="10.584375" style="stroke: #000000"/>
     </g>
    </g>
    <g id="text_16">
     <text style="font: 12px 'Source Code Pro'; text-anchor: start" x="367.28" y="14.784375" transform="rotate(-0, 367.28, 14.784375)">after baffle</text>
    </g>
   </g>
  </g>
 </g>
 <defs>
  <clipPath id="p3e99476758">
   <rect x="39.08" y="28.044375" width="558" height="166.32"/>
  </clipPath>
 </defs>
</svg>
