<?xml version="1.0" encoding="utf-8" standalone="no"?>
<!DOCTYPE svg PUBLIC "-//W3C//DTD SVG 1.1//EN"
  "http://www.w3.org/Graphics/SVG/1.1/DTD/svg11.dtd">
<svg xmlns:xlink="http://www.w3.org/1999/xlink" width="604.52pt" height="237.824375pt" viewBox="0 0 604.52 237.824375" xmlns="http://www.w3.org/2000/svg" version="1.1">
 <metadata>
  <rdf:RDF xmlns:dc="http://purl.org/dc/elements/1.1/" xmlns:cc="http://creativecommons.org/ns#" xmlns:rdf="http://www.w3.org/1999/02/22-rdf-syntax-ns#">
   <cc:Work>
    <dc:type rdf:resource="http://purl.org/dc/dcmitype/StillImage"/>
    <dc:date>2022-10-07T11:50:46.839717</dc:date>
    <dc:format>image/svg+xml</dc:format>
    <dc:creator>
     <cc:Agent>
      <dc:title>Matplotlib v3.5.2, https://matplotlib.org/</dc:title>
     </cc:Agent>
    </dc:creator>
   </cc:Work>
  </rdf:RDF>
 </metadata>
 <defs>
  <style type="text/css">*{stroke-linejoin: round; stroke-linecap: butt}</style>
 </defs>
 <g id="figure_1">
  <g id="patch_1">
   <path d="M 0 237.824375 
L 604.52 237.824375 
L 604.52 0 
L 0 0 
z
" style="fill: #ffffff"/>
  </g>
  <g id="axes_1">
   <g id="patch_2">
    <path d="M 37.88 203.34 
L 595.88 203.34 
L 595.88 37.02 
L 37.88 37.02 
z
" style="fill: #ffffff"/>
   </g>
   <g id="matplotlib.axis_1">
    <g id="xtick_1">
     <g id="line2d_1">
      <path d="M 37.88 203.34 
L 37.88 37.02 
" clip-path="url(#p6f3163e379)" style="fill: none; stroke: #dddddd; stroke-linecap: square"/>
     </g>
     <g id="line2d_2">
      <defs>
       <path id="m7758bdb307" d="M 0 0 
L 0 3.5 
" style="stroke: #000000"/>
      </defs>
      <g>
       <use xlink:href="#m7758bdb307" x="37.88" y="203.34" style="stroke: #000000"/>
      </g>
     </g>
     <g id="text_1">
      <text style="font: 12px 'Source Code Pro'; text-anchor: middle" x="37.88" y="218.884375" transform="rotate(-0, 37.88, 218.884375)">0</text>
     </g>
    </g>
    <g id="xtick_2">
     <g id="line2d_3">
      <path d="M 149.48 203.34 
L 149.48 37.02 
" clip-path="url(#p6f3163e379)" style="fill: none; stroke: #dddddd; stroke-linecap: square"/>
     </g>
     <g id="line2d_4">
      <g>
       <use xlink:href="#m7758bdb307" x="149.48" y="203.34" style="stroke: #000000"/>
      </g>
     </g>
     <g id="text_2">
      <text style="font: 12px 'Source Code Pro'; text-anchor: middle" x="149.48" y="218.884375" transform="rotate(-0, 149.48, 218.884375)">10</text>
     </g>
    </g>
    <g id="xtick_3">
     <g id="line2d_5">
      <path d="M 261.08 203.34 
L 261.08 37.02 
" clip-path="url(#p6f3163e379)" style="fill: none; stroke: #dddddd; stroke-linecap: square"/>
     </g>
     <g id="line2d_6">
      <g>
       <use xlink:href="#m7758bdb307" x="261.08" y="203.34" style="stroke: #000000"/>
      </g>
     </g>
     <g id="text_3">
      <text style="font: 12px 'Source Code Pro'; text-anchor: middle" x="261.08" y="218.884375" transform="rotate(-0, 261.08, 218.884375)">20</text>
     </g>
    </g>
    <g id="xtick_4">
     <g id="line2d_7">
      <path d="M 372.68 203.34 
L 372.68 37.02 
" clip-path="url(#p6f3163e379)" style="fill: none; stroke: #dddddd; stroke-linecap: square"/>
     </g>
     <g id="line2d_8">
      <g>
       <use xlink:href="#m7758bdb307" x="372.68" y="203.34" style="stroke: #000000"/>
      </g>
     </g>
     <g id="text_4">
      <text style="font: 12px 'Source Code Pro'; text-anchor: middle" x="372.68" y="218.884375" transform="rotate(-0, 372.68, 218.884375)">30</text>
     </g>
    </g>
    <g id="xtick_5">
     <g id="line2d_9">
      <path d="M 484.28 203.34 
L 484.28 37.02 
" clip-path="url(#p6f3163e379)" style="fill: none; stroke: #dddddd; stroke-linecap: square"/>
     </g>
     <g id="line2d_10">
      <g>
       <use xlink:href="#m7758bdb307" x="484.28" y="203.34" style="stroke: #000000"/>
      </g>
     </g>
     <g id="text_5">
      <text style="font: 12px 'Source Code Pro'; text-anchor: middle" x="484.28" y="218.884375" transform="rotate(-0, 484.28, 218.884375)">40</text>
     </g>
    </g>
    <g id="xtick_6">
     <g id="line2d_11">
      <path d="M 595.88 203.34 
L 595.88 37.02 
" clip-path="url(#p6f3163e379)" style="fill: none; stroke: #dddddd; stroke-linecap: square"/>
     </g>
     <g id="line2d_12">
      <g>
       <use xlink:href="#m7758bdb307" x="595.88" y="203.34" style="stroke: #000000"/>
      </g>
     </g>
     <g id="text_6">
      <text style="font: 12px 'Source Code Pro'; text-anchor: middle" x="595.88" y="218.884375" transform="rotate(-0, 595.88, 218.884375)">50</text>
     </g>
    </g>
    <g id="text_7">
     <!-- $Re$ (-) -->
     <g transform="translate(295.28 233.924375)">
      <text>
       <tspan style="font: 12px 'Source Code Pro'" x="0 7.199997 14.399994 21.599991 28.799988 35.999985" y="-0.21875">Re (-)</tspan>
      </text>
     </g>
    </g>
   </g>
   <g id="matplotlib.axis_2">
    <g id="ytick_1">
     <g id="line2d_13">
      <path d="M 37.88 203.34 
L 595.88 203.34 
" clip-path="url(#p6f3163e379)" style="fill: none; stroke: #dddddd; stroke-linecap: square"/>
     </g>
     <g id="line2d_14">
      <defs>
       <path id="m8f6361256a" d="M 0 0 
L -3.5 0 
" style="stroke: #000000"/>
      </defs>
      <g>
       <use xlink:href="#m8f6361256a" x="37.88" y="203.34" style="stroke: #000000"/>
      </g>
     </g>
     <g id="text_8">
      <text style="font: 12px 'Source Code Pro'; text-anchor: end" x="30.88" y="207.612188" transform="rotate(-0, 30.88, 207.612188)">0</text>
     </g>
    </g>
    <g id="ytick_2">
     <g id="line2d_15">
      <path d="M 37.88 175.62 
L 595.88 175.62 
" clip-path="url(#p6f3163e379)" style="fill: none; stroke: #dddddd; stroke-linecap: square"/>
     </g>
     <g id="line2d_16">
      <g>
       <use xlink:href="#m8f6361256a" x="37.88" y="175.62" style="stroke: #000000"/>
      </g>
     </g>
     <g id="text_9">
      <text style="font: 12px 'Source Code Pro'; text-anchor: end" x="30.88" y="179.892188" transform="rotate(-0, 30.88, 179.892188)">5</text>
     </g>
    </g>
    <g id="ytick_3">
     <g id="line2d_17">
      <path d="M 37.88 147.9 
L 595.88 147.9 
" clip-path="url(#p6f3163e379)" style="fill: none; stroke: #dddddd; stroke-linecap: square"/>
     </g>
     <g id="line2d_18">
      <g>
       <use xlink:href="#m8f6361256a" x="37.88" y="147.9" style="stroke: #000000"/>
      </g>
     </g>
     <g id="text_10">
      <text style="font: 12px 'Source Code Pro'; text-anchor: end" x="30.88" y="152.172188" transform="rotate(-0, 30.88, 152.172188)">10</text>
     </g>
    </g>
    <g id="ytick_4">
     <g id="line2d_19">
      <path d="M 37.88 120.18 
L 595.88 120.18 
" clip-path="url(#p6f3163e379)" style="fill: none; stroke: #dddddd; stroke-linecap: square"/>
     </g>
     <g id="line2d_20">
      <g>
       <use xlink:href="#m8f6361256a" x="37.88" y="120.18" style="stroke: #000000"/>
      </g>
     </g>
     <g id="text_11">
      <text style="font: 12px 'Source Code Pro'; text-anchor: end" x="30.88" y="124.452187" transform="rotate(-0, 30.88, 124.452187)">15</text>
     </g>
    </g>
    <g id="ytick_5">
     <g id="line2d_21">
      <path d="M 37.88 92.46 
L 595.88 92.46 
" clip-path="url(#p6f3163e379)" style="fill: none; stroke: #dddddd; stroke-linecap: square"/>
     </g>
     <g id="line2d_22">
      <g>
       <use xlink:href="#m8f6361256a" x="37.88" y="92.46" style="stroke: #000000"/>
      </g>
     </g>
     <g id="text_12">
      <text style="font: 12px 'Source Code Pro'; text-anchor: end" x="30.88" y="96.732188" transform="rotate(-0, 30.88, 96.732188)">20</text>
     </g>
    </g>
    <g id="ytick_6">
     <g id="line2d_23">
      <path d="M 37.88 64.74 
L 595.88 64.74 
" clip-path="url(#p6f3163e379)" style="fill: none; stroke: #dddddd; stroke-linecap: square"/>
     </g>
     <g id="line2d_24">
      <g>
       <use xlink:href="#m8f6361256a" x="37.88" y="64.74" style="stroke: #000000"/>
      </g>
     </g>
     <g id="text_13">
      <text style="font: 12px 'Source Code Pro'; text-anchor: end" x="30.88" y="69.012187" transform="rotate(-0, 30.88, 69.012187)">25</text>
     </g>
    </g>
    <g id="ytick_7">
     <g id="line2d_25">
      <path d="M 37.88 37.02 
L 595.88 37.02 
" clip-path="url(#p6f3163e379)" style="fill: none; stroke: #dddddd; stroke-linecap: square"/>
     </g>
     <g id="line2d_26">
      <g>
       <use xlink:href="#m8f6361256a" x="37.88" y="37.02" style="stroke: #000000"/>
      </g>
     </g>
     <g id="text_14">
      <text style="font: 12px 'Source Code Pro'; text-anchor: end" x="30.88" y="41.292187" transform="rotate(-0, 30.88, 41.292187)">30</text>
     </g>
    </g>
    <g id="text_15">
     <!-- $C_D$ (-) -->
     <g transform="translate(10.02 140.94)rotate(-90)">
      <text>
       <tspan style="font: 12px 'Source Code Pro'" x="0 12.633393 19.83339 27.033387 34.233384" y="-0.21875">C (-)</tspan>
       <tspan style="font: 8.4px 'Source Code Pro'" x="7.301989" y="1.5296874999999996">D</tspan>
      </text>
     </g>
    </g>
   </g>
   <g id="PathCollection_1">
    <defs>
     <path id="mf05c299789" d="M 0 4 
C 1.060812 4 2.078319 3.578535 2.828427 2.828427 
C 3.578535 2.078319 4 1.060812 4 0 
C 4 -1.060812 3.578535 -2.078319 2.828427 -2.828427 
C 2.078319 -3.578535 1.060812 -4 0 -4 
C -1.060812 -4 -2.078319 -3.578535 -2.828427 -2.828427 
C -3.578535 -2.078319 -4 -1.060812 -4 0 
C -4 1.060812 -3.578535 2.078319 -2.828427 2.828427 
C -2.078319 3.578535 -1.060812 4 0 4 
z
" style="stroke: #00a6d6"/>
    </defs>
    <g clip-path="url(#p6f3163e379)">
     <use xlink:href="#mf05c299789" x="52.581163" y="91.062993" style="fill: #00a6d6; stroke: #00a6d6"/>
     <use xlink:href="#mf05c299789" x="60.574608" y="120.724104" style="fill: #00a6d6; stroke: #00a6d6"/>
     <use xlink:href="#mf05c299789" x="76.208892" y="156.864013" style="fill: #00a6d6; stroke: #00a6d6"/>
     <use xlink:href="#mf05c299789" x="142.970747" y="183.162449" style="fill: #00a6d6; stroke: #00a6d6"/>
     <use xlink:href="#mf05c299789" x="217.47626" y="187.238036" style="fill: #00a6d6; stroke: #00a6d6"/>
     <use xlink:href="#mf05c299789" x="314.177384" y="190.975934" style="fill: #00a6d6; stroke: #00a6d6"/>
     <use xlink:href="#mf05c299789" x="412.636691" y="192.282031" style="fill: #00a6d6; stroke: #00a6d6"/>
     <use xlink:href="#mf05c299789" x="491.086321" y="193.5957" style="fill: #00a6d6; stroke: #00a6d6"/>
     <use xlink:href="#mf05c299789" x="561.994629" y="194.13413" style="fill: #00a6d6; stroke: #00a6d6"/>
    </g>
   </g>
   <g id="line2d_27">
    <path d="M 44.365237 -1 
L 45.692 29.598765 
L 48.482 63.597296 
L 51.272 85.041055 
L 54.062 99.974778 
L 56.852 111.058714 
L 59.642 119.659596 
L 62.432 126.556759 
L 65.222 132.229414 
L 68.012 136.989595 
L 70.802 141.04984 
L 73.592 144.560284 
L 76.382 147.630211 
L 79.172 150.341203 
L 81.962 152.755484 
L 84.752 154.9214 
L 87.542 156.877127 
L 90.332 158.653239 
L 93.122 160.274534 
L 98.702 163.130539 
L 104.282 165.570173 
L 109.862 167.682047 
L 115.442 169.530834 
L 121.022 171.164928 
L 126.602 172.62131 
L 134.972 174.533946 
L 143.342 176.183429 
L 151.712 177.622843 
L 162.872 179.282038 
L 174.032 180.705368 
L 187.982 182.226255 
L 201.932 183.522741 
L 218.672 184.849319 
L 238.202 186.153588 
L 260.522 187.400679 
L 285.632 188.570176 
L 313.532 189.652379 
L 347.012 190.726709 
L 386.072 191.752768 
L 433.502 192.76134 
L 489.302 193.711269 
L 556.262 194.615595 
L 595.322 195.056039 
L 595.322 195.056039 
" clip-path="url(#p6f3163e379)" style="fill: none; stroke-dasharray: 11.1,4.8; stroke-dashoffset: 0; stroke: #000000; stroke-width: 3"/>
   </g>
   <g id="patch_3">
    <path d="M 37.88 203.34 
L 37.88 37.02 
" style="fill: none; stroke: #000000; stroke-linejoin: miter; stroke-linecap: square"/>
   </g>
   <g id="patch_4">
    <path d="M 595.88 203.34 
L 595.88 37.02 
" style="fill: none; stroke: #000000; stroke-linejoin: miter; stroke-linecap: square"/>
   </g>
   <g id="patch_5">
    <path d="M 37.88 203.34 
L 595.88 203.34 
" style="fill: none; stroke: #000000; stroke-linejoin: miter; stroke-linecap: square"/>
   </g>
   <g id="patch_6">
    <path d="M 37.88 37.02 
L 595.88 37.02 
" style="fill: none; stroke: #000000; stroke-linejoin: miter; stroke-linecap: square"/>
   </g>
   <g id="legend_1">
    <g id="PathCollection_2">
     <g>
      <use xlink:href="#mf05c299789" x="191.48" y="12.39" style="fill: #00a6d6; stroke: #00a6d6"/>
     </g>
    </g>
    <g id="text_16">
     <text style="font: 12px 'Source Code Pro'; text-anchor: start" x="213.08" y="15.54" transform="rotate(-0, 213.08, 15.54)">measurement</text>
    </g>
    <g id="line2d_28">
     <path d="M 316.28 11.34 
L 328.28 11.34 
L 340.28 11.34 
" style="fill: none; stroke-dasharray: 11.1,4.8; stroke-dashoffset: 0; stroke: #000000; stroke-width: 3"/>
    </g>
    <g id="text_17">
     <!-- $model\ (R^2=0.98)$ -->
     <g transform="translate(349.88 15.54)">
      <text>
       <tspan style="font: 12px 'Source Code Pro'" x="0 7.199997 14.399994 21.599991 28.799988 38.39996 45.599957 59.673349 68.313346 75.513343 82.71334 89.913336 97.113333" y="-0.46250000000000213">model(R=0.98)</tspan>
       <tspan style="font: 8.4px 'Source Code Pro'" x="52.901946" y="-4.542187500000002">2</tspan>
      </text>
     </g>
    </g>
   </g>
  </g>
 </g>
 <defs>
  <clipPath id="p6f3163e379">
   <rect x="37.88" y="37.02" width="558" height="166.32"/>
  </clipPath>
 </defs>
</svg>
