<?xml version="1.0" encoding="utf-8" standalone="no"?>
<!DOCTYPE svg PUBLIC "-//W3C//DTD SVG 1.1//EN"
  "http://www.w3.org/Graphics/SVG/1.1/DTD/svg11.dtd">
<svg xmlns:xlink="http://www.w3.org/1999/xlink" width="720pt" height="360pt" viewBox="0 0 720 360" xmlns="http://www.w3.org/2000/svg" version="1.1">
 <metadata>
  <rdf:RDF xmlns:dc="http://purl.org/dc/elements/1.1/" xmlns:cc="http://creativecommons.org/ns#" xmlns:rdf="http://www.w3.org/1999/02/22-rdf-syntax-ns#">
   <cc:Work>
    <dc:type rdf:resource="http://purl.org/dc/dcmitype/StillImage"/>
    <dc:date>2022-10-07T11:54:07.853430</dc:date>
    <dc:format>image/svg+xml</dc:format>
    <dc:creator>
     <cc:Agent>
      <dc:title>Matplotlib v3.5.2, https://matplotlib.org/</dc:title>
     </cc:Agent>
    </dc:creator>
   </cc:Work>
  </rdf:RDF>
 </metadata>
 <defs>
  <style type="text/css">*{stroke-linejoin: round; stroke-linecap: butt}</style>
 </defs>
 <g id="figure_1">
  <g id="patch_1">
   <path d="M 0 360 
L 720 360 
L 720 0 
L 0 0 
z
" style="fill: #ffffff"/>
  </g>
  <g id="axes_1">
   <g id="patch_2">
    <path d="M 86.4 123 
L 705.6 123 
L 705.6 36 
L 86.4 36 
z
" style="fill: #ffffff"/>
   </g>
   <g id="PolyCollection_1">
    <path d="M 114.545455 123 
L 114.545455 123 
L 194.938701 123 
L 194.961039 123 
L 275.373853 123 
L 275.376623 123 
L 355.791716 123 
L 355.792208 123 
L 378.672698 123 
L 379.417368 123 
L 379.533412 123 
L 379.765836 123 
L 381.608537 123 
L 381.825636 123 
L 382.222532 123 
L 382.45357 123 
L 382.6205 123 
L 382.82958 123 
L 382.853973 123 
L 382.861635 123 
L 383.064796 123 
L 421.792495 123 
L 422.050718 123 
L 422.199509 123 
L 422.437517 123 
L 428.923548 123 
L 429.499569 123 
L 436.206809 123 
L 436.207792 123 
L 472.199105 123 
L 473.242073 123 
L 481.026502 123 
L 481.523426 123 
L 482.446508 123 
L 482.638165 123 
L 482.864669 123 
L 483.392597 123 
L 483.41317 123 
L 483.615281 123 
L 483.966518 36 
L 489.997821 36 
L 491.147072 36 
L 516.621031 36 
L 516.623377 36 
L 543.538897 36 
L 544.18077 36 
L 562.760054 36 
L 563.095632 36 
L 563.329105 36 
L 563.644804 36 
L 563.838918 123 
L 564.18877 123 
L 564.210371 123 
L 564.218055 123 
L 564.426421 123 
L 567.111721 123 
L 567.378298 123 
L 583.16495 123 
L 583.29319 123 
L 592.705321 123 
L 593.666734 123 
L 597.037174 123 
L 597.038961 123 
L 677.432208 123 
L 677.454545 123 
L 677.454545 123 
L 677.454545 123 
L 677.454545 123 
L 677.454545 123 
L 677.432208 123 
L 597.038961 123 
L 597.037174 123 
L 593.666734 123 
L 592.705321 123 
L 583.29319 123 
L 583.16495 123 
L 567.378298 123 
L 567.111721 123 
L 564.426421 123 
L 564.218055 123 
L 564.210371 123 
L 564.18877 123 
L 563.838918 123 
L 563.644804 123 
L 563.329105 123 
L 563.095632 123 
L 562.760054 123 
L 544.18077 123 
L 543.538897 123 
L 516.623377 123 
L 516.621031 123 
L 491.147072 123 
L 489.997821 123 
L 483.966518 123 
L 483.615281 123 
L 483.41317 123 
L 483.392597 123 
L 482.864669 123 
L 482.638165 123 
L 482.446508 123 
L 481.523426 123 
L 481.026502 123 
L 473.242073 123 
L 472.199105 123 
L 436.207792 123 
L 436.206809 123 
L 429.499569 123 
L 428.923548 123 
L 422.437517 123 
L 422.199509 123 
L 422.050718 123 
L 421.792495 123 
L 383.064796 123 
L 382.861635 123 
L 382.853973 123 
L 382.82958 123 
L 382.6205 123 
L 382.45357 123 
L 382.222532 123 
L 381.825636 123 
L 381.608537 123 
L 379.765836 123 
L 379.533412 123 
L 379.417368 123 
L 378.672698 123 
L 355.792208 123 
L 355.791716 123 
L 275.376623 123 
L 275.373853 123 
L 194.961039 123 
L 194.938701 123 
L 114.545455 123 
z
" clip-path="url(#p382b44decd)" style="fill: url(#haf1a6f2371)"/>
   </g>
   <g id="PolyCollection_2">
    <defs>
     <path id="m39ef0c695a" d="M 114.545455 -237 
L 114.545455 -237 
L 194.938701 -237 
L 194.961039 -237 
L 275.373853 -237 
L 275.376623 -237 
L 355.791716 -237 
L 355.792208 -237 
L 378.672698 -237 
L 379.417368 -237 
L 379.533412 -237 
L 379.765836 -237 
L 381.608537 -237 
L 381.825636 -237 
L 382.222532 -237 
L 382.45357 -237 
L 382.6205 -237 
L 382.82958 -237 
L 382.853973 -237 
L 382.861635 -237 
L 383.064796 -237 
L 421.792495 -237 
L 422.050718 -237 
L 422.199509 -237 
L 422.437517 -324 
L 428.923548 -324 
L 429.499569 -324 
L 436.206809 -324 
L 436.207792 -324 
L 472.199105 -324 
L 473.242073 -237 
L 481.026502 -237 
L 481.523426 -237 
L 482.446508 -237 
L 482.638165 -237 
L 482.864669 -237 
L 483.392597 -237 
L 483.41317 -237 
L 483.615281 -237 
L 483.966518 -237 
L 489.997821 -237 
L 491.147072 -237 
L 516.621031 -237 
L 516.623377 -237 
L 543.538897 -237 
L 544.18077 -237 
L 562.760054 -237 
L 563.095632 -237 
L 563.329105 -237 
L 563.644804 -237 
L 563.838918 -237 
L 564.18877 -237 
L 564.210371 -237 
L 564.218055 -237 
L 564.426421 -237 
L 567.111721 -237 
L 567.378298 -237 
L 583.16495 -237 
L 583.29319 -237 
L 592.705321 -237 
L 593.666734 -237 
L 597.037174 -237 
L 597.038961 -237 
L 677.432208 -237 
L 677.454545 -237 
L 677.454545 -237 
L 677.454545 -237 
L 677.454545 -237 
L 677.454545 -237 
L 677.432208 -237 
L 597.038961 -237 
L 597.037174 -237 
L 593.666734 -237 
L 592.705321 -237 
L 583.29319 -237 
L 583.16495 -237 
L 567.378298 -237 
L 567.111721 -237 
L 564.426421 -237 
L 564.218055 -237 
L 564.210371 -237 
L 564.18877 -237 
L 563.838918 -237 
L 563.644804 -237 
L 563.329105 -237 
L 563.095632 -237 
L 562.760054 -237 
L 544.18077 -237 
L 543.538897 -237 
L 516.623377 -237 
L 516.621031 -237 
L 491.147072 -237 
L 489.997821 -237 
L 483.966518 -237 
L 483.615281 -237 
L 483.41317 -237 
L 483.392597 -237 
L 482.864669 -237 
L 482.638165 -237 
L 482.446508 -237 
L 481.523426 -237 
L 481.026502 -237 
L 473.242073 -237 
L 472.199105 -237 
L 436.207792 -237 
L 436.206809 -237 
L 429.499569 -237 
L 428.923548 -237 
L 422.437517 -237 
L 422.199509 -237 
L 422.050718 -237 
L 421.792495 -237 
L 383.064796 -237 
L 382.861635 -237 
L 382.853973 -237 
L 382.82958 -237 
L 382.6205 -237 
L 382.45357 -237 
L 382.222532 -237 
L 381.825636 -237 
L 381.608537 -237 
L 379.765836 -237 
L 379.533412 -237 
L 379.417368 -237 
L 378.672698 -237 
L 355.792208 -237 
L 355.791716 -237 
L 275.376623 -237 
L 275.373853 -237 
L 194.961039 -237 
L 194.938701 -237 
L 114.545455 -237 
z
"/>
    </defs>
    <g clip-path="url(#p382b44decd)">
     <use xlink:href="#m39ef0c695a" x="0" y="360" style="fill: #dddddd"/>
    </g>
   </g>
   <g id="PolyCollection_3">
    <path d="M 114.545455 123 
L 114.545455 36 
L 194.938701 36 
L 194.961039 36 
L 275.373853 36 
L 275.376623 36 
L 355.791716 36 
L 355.792208 36 
L 378.672698 36 
L 379.417368 36 
L 379.533412 36 
L 379.765836 36 
L 381.608537 36 
L 381.825636 36 
L 382.222532 36 
L 382.45357 36 
L 382.6205 123 
L 382.82958 123 
L 382.853973 123 
L 382.861635 123 
L 383.064796 36 
L 421.792495 36 
L 422.050718 36 
L 422.199509 123 
L 422.437517 123 
L 428.923548 123 
L 429.499569 123 
L 436.206809 123 
L 436.207792 123 
L 472.199105 123 
L 473.242073 123 
L 481.026502 123 
L 481.523426 123 
L 482.446508 123 
L 482.638165 123 
L 482.864669 123 
L 483.392597 123 
L 483.41317 123 
L 483.615281 123 
L 483.966518 123 
L 489.997821 123 
L 491.147072 123 
L 516.621031 123 
L 516.623377 123 
L 543.538897 123 
L 544.18077 123 
L 562.760054 123 
L 563.095632 123 
L 563.329105 123 
L 563.644804 123 
L 563.838918 123 
L 564.18877 123 
L 564.210371 123 
L 564.218055 36 
L 564.426421 36 
L 567.111721 36 
L 567.378298 36 
L 583.16495 36 
L 583.29319 36 
L 592.705321 36 
L 593.666734 36 
L 597.037174 36 
L 597.038961 36 
L 677.432208 36 
L 677.454545 36 
L 677.454545 36 
L 677.454545 123 
L 677.454545 123 
L 677.454545 123 
L 677.432208 123 
L 597.038961 123 
L 597.037174 123 
L 593.666734 123 
L 592.705321 123 
L 583.29319 123 
L 583.16495 123 
L 567.378298 123 
L 567.111721 123 
L 564.426421 123 
L 564.218055 123 
L 564.210371 123 
L 564.18877 123 
L 563.838918 123 
L 563.644804 123 
L 563.329105 123 
L 563.095632 123 
L 562.760054 123 
L 544.18077 123 
L 543.538897 123 
L 516.623377 123 
L 516.621031 123 
L 491.147072 123 
L 489.997821 123 
L 483.966518 123 
L 483.615281 123 
L 483.41317 123 
L 483.392597 123 
L 482.864669 123 
L 482.638165 123 
L 482.446508 123 
L 481.523426 123 
L 481.026502 123 
L 473.242073 123 
L 472.199105 123 
L 436.207792 123 
L 436.206809 123 
L 429.499569 123 
L 428.923548 123 
L 422.437517 123 
L 422.199509 123 
L 422.050718 123 
L 421.792495 123 
L 383.064796 123 
L 382.861635 123 
L 382.853973 123 
L 382.82958 123 
L 382.6205 123 
L 382.45357 123 
L 382.222532 123 
L 381.825636 123 
L 381.608537 123 
L 379.765836 123 
L 379.533412 123 
L 379.417368 123 
L 378.672698 123 
L 355.792208 123 
L 355.791716 123 
L 275.376623 123 
L 275.373853 123 
L 194.961039 123 
L 194.938701 123 
L 114.545455 123 
z
" clip-path="url(#p382b44decd)" style="fill: url(#hd8260f6867)"/>
   </g>
   <g id="matplotlib.axis_1">
    <g id="xtick_1">
     <g id="line2d_1">
      <path d="M 114.545455 123 
L 114.545455 36 
" clip-path="url(#p382b44decd)" style="fill: none; stroke: #b0b0b0; stroke-linecap: square"/>
     </g>
     <g id="line2d_2">
      <defs>
       <path id="m73e63a32a1" d="M 0 0 
L 0 3.5 
" style="stroke: #000000"/>
      </defs>
      <g>
       <use xlink:href="#m73e63a32a1" x="114.545455" y="123" style="stroke: #000000"/>
      </g>
     </g>
    </g>
    <g id="xtick_2">
     <g id="line2d_3">
      <path d="M 194.961039 123 
L 194.961039 36 
" clip-path="url(#p382b44decd)" style="fill: none; stroke: #b0b0b0; stroke-linecap: square"/>
     </g>
     <g id="line2d_4">
      <g>
       <use xlink:href="#m73e63a32a1" x="194.961039" y="123" style="stroke: #000000"/>
      </g>
     </g>
    </g>
    <g id="xtick_3">
     <g id="line2d_5">
      <path d="M 275.376623 123 
L 275.376623 36 
" clip-path="url(#p382b44decd)" style="fill: none; stroke: #b0b0b0; stroke-linecap: square"/>
     </g>
     <g id="line2d_6">
      <g>
       <use xlink:href="#m73e63a32a1" x="275.376623" y="123" style="stroke: #000000"/>
      </g>
     </g>
    </g>
    <g id="xtick_4">
     <g id="line2d_7">
      <path d="M 355.792208 123 
L 355.792208 36 
" clip-path="url(#p382b44decd)" style="fill: none; stroke: #b0b0b0; stroke-linecap: square"/>
     </g>
     <g id="line2d_8">
      <g>
       <use xlink:href="#m73e63a32a1" x="355.792208" y="123" style="stroke: #000000"/>
      </g>
     </g>
    </g>
    <g id="xtick_5">
     <g id="line2d_9">
      <path d="M 436.207792 123 
L 436.207792 36 
" clip-path="url(#p382b44decd)" style="fill: none; stroke: #b0b0b0; stroke-linecap: square"/>
     </g>
     <g id="line2d_10">
      <g>
       <use xlink:href="#m73e63a32a1" x="436.207792" y="123" style="stroke: #000000"/>
      </g>
     </g>
    </g>
    <g id="xtick_6">
     <g id="line2d_11">
      <path d="M 516.623377 123 
L 516.623377 36 
" clip-path="url(#p382b44decd)" style="fill: none; stroke: #b0b0b0; stroke-linecap: square"/>
     </g>
     <g id="line2d_12">
      <g>
       <use xlink:href="#m73e63a32a1" x="516.623377" y="123" style="stroke: #000000"/>
      </g>
     </g>
    </g>
    <g id="xtick_7">
     <g id="line2d_13">
      <path d="M 597.038961 123 
L 597.038961 36 
" clip-path="url(#p382b44decd)" style="fill: none; stroke: #b0b0b0; stroke-linecap: square"/>
     </g>
     <g id="line2d_14">
      <g>
       <use xlink:href="#m73e63a32a1" x="597.038961" y="123" style="stroke: #000000"/>
      </g>
     </g>
    </g>
    <g id="xtick_8">
     <g id="line2d_15">
      <path d="M 677.454545 123 
L 677.454545 36 
" clip-path="url(#p382b44decd)" style="fill: none; stroke: #b0b0b0; stroke-linecap: square"/>
     </g>
     <g id="line2d_16">
      <g>
       <use xlink:href="#m73e63a32a1" x="677.454545" y="123" style="stroke: #000000"/>
      </g>
     </g>
    </g>
    <g id="xtick_9">
     <g id="line2d_17">
      <defs>
       <path id="m9a5266978d" d="M 0 0 
L 0 2 
" style="stroke: #000000; stroke-width: 0.6"/>
      </defs>
      <g>
       <use xlink:href="#m9a5266978d" x="162.794805" y="123" style="stroke: #000000; stroke-width: 0.6"/>
      </g>
     </g>
    </g>
    <g id="xtick_10">
     <g id="line2d_18">
      <g>
       <use xlink:href="#m9a5266978d" x="259.293506" y="123" style="stroke: #000000; stroke-width: 0.6"/>
      </g>
     </g>
    </g>
    <g id="xtick_11">
     <g id="line2d_19">
      <g>
       <use xlink:href="#m9a5266978d" x="452.290909" y="123" style="stroke: #000000; stroke-width: 0.6"/>
      </g>
     </g>
    </g>
    <g id="xtick_12">
     <g id="line2d_20">
      <g>
       <use xlink:href="#m9a5266978d" x="548.78961" y="123" style="stroke: #000000; stroke-width: 0.6"/>
      </g>
     </g>
    </g>
    <g id="xtick_13">
     <g id="line2d_21">
      <g>
       <use xlink:href="#m9a5266978d" x="645.288312" y="123" style="stroke: #000000; stroke-width: 0.6"/>
      </g>
     </g>
    </g>
   </g>
   <g id="matplotlib.axis_2">
    <g id="ytick_1">
     <g id="line2d_22">
      <path d="M 86.4 123 
L 705.6 123 
" clip-path="url(#p382b44decd)" style="fill: none; stroke: #b0b0b0; stroke-linecap: square"/>
     </g>
     <g id="line2d_23">
      <defs>
       <path id="m8175664693" d="M 0 0 
L -3.5 0 
" style="stroke: #000000"/>
      </defs>
      <g>
       <use xlink:href="#m8175664693" x="86.4" y="123" style="stroke: #000000"/>
      </g>
     </g>
     <g id="text_1">
      <text style="font: 12px 'Source Code Pro'; text-anchor: end" x="79.4" y="127.272188" transform="rotate(-0, 79.4, 127.272188)">0.0</text>
     </g>
    </g>
    <g id="ytick_2">
     <g id="line2d_24">
      <path d="M 86.4 88.2 
L 705.6 88.2 
" clip-path="url(#p382b44decd)" style="fill: none; stroke: #b0b0b0; stroke-linecap: square"/>
     </g>
     <g id="line2d_25">
      <g>
       <use xlink:href="#m8175664693" x="86.4" y="88.2" style="stroke: #000000"/>
      </g>
     </g>
     <g id="text_2">
      <text style="font: 12px 'Source Code Pro'; text-anchor: end" x="79.4" y="92.472187" transform="rotate(-0, 79.4, 92.472187)">0.2</text>
     </g>
    </g>
    <g id="ytick_3">
     <g id="line2d_26">
      <path d="M 86.4 53.4 
L 705.6 53.4 
" clip-path="url(#p382b44decd)" style="fill: none; stroke: #b0b0b0; stroke-linecap: square"/>
     </g>
     <g id="line2d_27">
      <g>
       <use xlink:href="#m8175664693" x="86.4" y="53.4" style="stroke: #000000"/>
      </g>
     </g>
     <g id="text_3">
      <text style="font: 12px 'Source Code Pro'; text-anchor: end" x="79.4" y="57.672187" transform="rotate(-0, 79.4, 57.672187)">0.4</text>
     </g>
    </g>
   </g>
   <g id="line2d_28">
    <path d="M 114.545455 123 
L 255.496104 123 
L 255.831169 121.26 
L 272.025974 121.26 
L 272.249351 119.52 
L 284.981818 119.52 
L 285.205195 117.78 
L 301.958442 117.78 
L 302.248831 116.04 
L 316.924675 116.04 
L 317.148052 114.3 
L 330.327273 114.3 
L 330.34961 113.43 
L 330.550649 112.56 
L 348.197403 112.56 
L 348.420779 110.82 
L 390.638961 110.82 
L 390.862338 109.08 
L 393.98961 109.08 
L 394.011948 108.21 
L 394.212987 107.34 
L 395.32987 107.34 
L 395.553247 105.6 
L 396.67013 105.6 
L 396.893506 103.86 
L 398.01039 103.86 
L 398.233766 102.12 
L 399.127273 102.12 
L 399.328312 101.25 
L 399.350649 100.38 
L 400.467532 100.38 
L 400.690909 98.64 
L 402.031169 98.64 
L 402.254545 96.9 
L 403.371429 96.9 
L 403.684156 95.16 
L 405.158442 95.16 
L 405.404156 93.42 
L 406.945455 93.42 
L 407.258182 91.68 
L 408.955844 91.68 
L 409.179221 89.94 
L 410.742857 89.94 
L 410.876883 88.78 
L 410.966234 88.2 
L 412.976623 88.2 
L 413.2 86.46 
L 415.433766 86.46 
L 415.657143 84.72 
L 418.561039 84.72 
L 418.762078 83.85 
L 418.806753 82.98 
L 421.911688 82.98 
L 421.956364 82.11 
L 422.135065 81.24 
L 426.379221 81.24 
L 426.423896 80.37 
L 426.602597 79.5 
L 430.846753 79.5 
L 430.869091 78.63 
L 431.07013 77.76 
L 433.527273 77.76 
L 433.54961 76.89 
L 433.750649 76.02 
L 434.420779 76.02 
L 434.644156 74.28 
L 434.867532 74.28 
L 435.090909 72.54 
L 435.537662 72.54 
L 435.761039 70.8 
L 436.207792 70.8 
L 436.23013 69.93 
L 436.431169 69.06 
L 438.441558 69.06 
L 438.664935 67.32 
L 439.781818 67.32 
L 440.005195 65.58 
L 442.015584 65.58 
L 442.238961 63.84 
L 443.802597 63.84 
L 444.025974 65.58 
L 444.249351 65.58 
L 444.472727 67.32 
L 444.696104 67.32 
L 444.919481 69.06 
L 445.142857 67.32 
L 447.823377 67.32 
L 448.046753 65.58 
L 448.27013 65.58 
L 448.292468 64.71 
L 448.493506 63.84 
L 449.163636 63.84 
L 449.387013 62.1 
L 449.61039 62.1 
L 449.833766 63.84 
L 452.067532 63.84 
L 452.313247 65.58 
L 452.737662 65.58 
L 452.961039 63.84 
L 453.631169 63.84 
L 453.854545 65.58 
L 455.641558 65.58 
L 455.864935 63.84 
L 457.651948 63.84 
L 457.674286 64.71 
L 457.875325 65.58 
L 460.555844 65.58 
L 460.779221 63.84 
L 462.119481 63.84 
L 462.342857 65.58 
L 474.628571 65.58 
L 474.851948 67.32 
L 477.755844 67.32 
L 477.778182 66.45 
L 477.979221 65.58 
L 478.202597 65.58 
L 478.425974 63.84 
L 479.096104 63.84 
L 479.319481 65.58 
L 479.542857 65.58 
L 479.766234 63.84 
L 480.436364 63.84 
L 480.65974 65.58 
L 484.903896 65.58 
L 485.127273 63.84 
L 486.690909 63.84 
L 486.914286 62.1 
L 492.275325 62.1 
L 492.498701 63.84 
L 494.062338 63.84 
L 494.285714 62.1 
L 505.007792 62.1 
L 505.231169 63.84 
L 507.241558 63.84 
L 507.464935 62.1 
L 508.805195 62.1 
L 509.028571 63.84 
L 509.475325 63.84 
L 509.698701 62.1 
L 509.922078 62.1 
L 509.966753 62.97 
L 510.145455 63.84 
L 510.368831 63.84 
L 510.592208 62.1 
L 512.825974 62.1 
L 513.049351 63.84 
L 517.74026 63.84 
L 517.985974 62.1 
L 519.080519 62.1 
L 519.303896 63.84 
L 530.696104 63.84 
L 530.919481 62.1 
L 531.366234 62.1 
L 531.58961 63.84 
L 540.077922 63.84 
L 540.301299 65.58 
L 541.418182 65.58 
L 541.641558 63.84 
L 541.864935 63.84 
L 542.088312 65.58 
L 551.246753 65.58 
L 551.47013 67.32 
L 552.363636 67.32 
L 552.587013 65.58 
L 554.597403 65.58 
L 554.820779 67.32 
L 555.937662 67.32 
L 556.161039 69.06 
L 560.405195 69.06 
L 560.628571 70.8 
L 564.872727 70.8 
L 565.096104 72.54 
L 565.319481 70.8 
L 573.807792 70.8 
L 574.031169 72.54 
L 576.041558 72.54 
L 576.264935 70.8 
L 601.72987 70.8 
L 601.908571 71.67 
L 602.4 82.98 
L 602.422338 84.72 
L 602.623377 86.46 
L 602.846753 86.46 
L 603.07013 88.2 
L 603.293506 88.2 
L 603.516883 86.46 
L 603.963636 86.46 
L 604.41039 89.94 
L 604.633766 89.94 
L 605.102857 93.42 
L 605.303896 93.42 
L 605.527273 95.16 
L 605.750649 95.16 
L 606.197403 98.64 
L 606.420779 98.64 
L 607.202597 103.86 
L 607.314286 103.86 
L 607.358961 104.73 
L 607.537662 105.6 
L 607.984416 109.08 
L 608.207792 109.08 
L 608.877922 114.3 
L 609.101299 114.3 
L 609.324675 116.04 
L 609.548052 116.04 
L 609.771429 117.78 
L 610.441558 117.78 
L 610.463896 118.65 
L 610.664935 119.52 
L 611.111688 119.52 
L 611.335065 121.26 
L 612.228571 121.26 
L 612.451948 123 
L 623.620779 123 
L 623.888831 121.26 
L 644.841558 121.26 
L 645.064935 123 
L 664.498701 123 
L 664.722078 121.26 
L 664.945455 123 
L 677.432208 123 
L 677.432208 123 
" clip-path="url(#p382b44decd)" style="fill: none; stroke-dasharray: 11.1,4.8; stroke-dashoffset: 0; stroke: #c3312f; stroke-width: 3"/>
   </g>
   <g id="line2d_29">
    <path d="M 114.545455 123.7656 
L 122.52 123.863475 
L 123.770909 123.8961 
L 139.072208 124.005438 
L 196.323636 123.8526 
L 215.757403 122.971892 
L 228.556883 122.168815 
L 231.17039 122.0082 
L 246.583377 120.589717 
L 249.464935 120.457302 
L 257.283117 119.887917 
L 257.72987 119.834951 
L 266.664935 119.199358 
L 266.888312 119.172875 
L 272.919481 118.709423 
L 273.142857 118.682939 
L 277.900779 118.5108 
L 279.620779 118.613025 
L 280.737662 119.226375 
L 280.76 119.3286 
L 282.301299 117.68152 
L 288.779221 117.245264 
L 289.896104 117.164901 
L 297.044156 116.659763 
L 304.058182 116.189066 
L 308.65974 115.902056 
L 314.244156 115.477281 
L 314.467532 115.43709 
L 321.727273 114.86289 
L 323.849351 114.69063 
L 330.327273 114.17385 
L 330.550649 114.14514 
L 339.038961 113.499165 
L 339.485714 113.42739 
L 347.750649 113.00381 
L 359.835325 112.734 
L 360.304416 113.5692 
L 361.153247 114.9612 
L 361.175584 115.2396 
L 362.493506 112.788375 
L 362.515844 112.4382 
L 380.698701 112.141779 
L 390.728312 112.2932 
L 392.001558 112.6644 
L 393.98961 112.1888 
L 394.011948 112.149166 
L 394.682078 111.951 
L 395.977662 111.162882 
L 396 111.050294 
L 397.317922 110.262176 
L 397.362597 110.037 
L 398.680519 108.925575 
L 398.702857 108.7668 
L 400.378182 107.768475 
L 400.690909 107.546625 
L 401.361039 107.102925 
L 401.383377 106.992 
L 402.701299 105.880575 
L 402.723636 105.721801 
L 404.063896 105.0258 
L 404.264935 104.78916 
L 404.935065 104.31588 
L 404.97974 104.19756 
L 407.325195 102.5347 
L 407.392208 102.4158 
L 408.285714 101.8213 
L 408.732468 101.464601 
L 409.424935 100.989001 
L 409.849351 100.628508 
L 410.742857 100.177893 
L 410.876883 99.997647 
L 411.18961 99.817401 
L 412.976623 99.006293 
L 414.093506 98.375432 
L 416.997403 97.318624 
L 418.248312 97.007471 
L 419.007792 96.786619 
L 423.922078 96.100722 
L 424.078442 96.047961 
L 424.19013 95.897126 
L 424.547532 95.602908 
L 424.592208 95.504836 
L 425.485714 95.014472 
L 425.508052 94.916399 
L 428.076883 93.835424 
L 428.38961 93.661113 
L 429.72987 93.619133 
L 430.869091 93.8898 
L 431.561558 95.84788 
L 432.187013 97.31644 
L 432.857143 98.785 
L 432.901818 99.27452 
L 433.54961 101.2326 
L 437.994805 101.4066 
L 440.250909 101.4066 
L 441.792208 113.002457 
L 442.909091 115.040743 
L 442.931429 115.4484 
L 448.94026 119.10501 
L 452.290909 120.51093 
L 452.313247 120.5988 
L 458.322078 121.959663 
L 464.576623 122.7042 
L 469.937662 123.016756 
L 482.67013 123.329934 
L 521.314286 123.571714 
L 522.431169 123.666171 
L 524.218182 123.5046 
L 601.082078 123.5046 
L 602.4 121.571025 
L 602.422338 121.2948 
L 603.762597 114.8046 
L 605.102857 114.822 
L 605.750649 115.3788 
L 606.420779 116.0748 
L 607.202597 116.6316 
L 607.761039 117.1884 
L 608.721558 117.8844 
L 609.324675 118.302 
L 610.061818 118.8588 
L 610.888312 119.465314 
L 613.122078 120.504343 
L 613.144416 120.5988 
L 614.484675 121.1382 
L 614.507013 121.3006 
L 617.165195 121.6254 
L 621.833766 121.510926 
L 625.608831 120.953211 
L 625.631169 120.926653 
L 629.875325 120.522508 
L 642.384416 120.2624 
L 645.064935 120.4074 
L 652.034286 120.865154 
L 657.596364 120.842944 
L 660.656623 120.708637 
L 661.371429 120.656981 
L 662.935065 120.479269 
L 665.727273 119.886156 
L 676.717403 119.5896 
L 677.432208 119.5896 
L 677.432208 119.5896 
" clip-path="url(#p382b44decd)" style="fill: none; stroke: #c3312f; stroke-width: 3; stroke-linecap: square"/>
   </g>
   <g id="patch_3">
    <path d="M 86.4 123 
L 86.4 36 
" style="fill: none; stroke: #000000; stroke-linejoin: miter; stroke-linecap: square"/>
   </g>
   <g id="patch_4">
    <path d="M 705.6 123 
L 705.6 36 
" style="fill: none; stroke: #000000; stroke-linejoin: miter; stroke-linecap: square"/>
   </g>
   <g id="patch_5">
    <path d="M 86.4 123 
L 705.6 123 
" style="fill: none; stroke: #000000; stroke-linejoin: miter; stroke-linecap: square"/>
   </g>
   <g id="patch_6">
    <path d="M 86.4 36 
L 705.6 36 
" style="fill: none; stroke: #000000; stroke-linejoin: miter; stroke-linecap: square"/>
   </g>
   <g id="patch_7">
    <path d="M 409.402597 28.689556 
Q 409.402597 58.314748 409.402597 86.821906 
" style="fill: none; stroke: #000000; stroke-linecap: round"/>
    <path d="M 411.402597 82.821906 
L 409.402597 86.821906 
L 407.402597 82.821906 
" style="fill: none; stroke: #000000; stroke-linecap: round"/>
   </g>
   <g id="text_4">
    <g id="patch_8">
     <path d="M 406.402597 26.185156 
L 412.402597 26.185156 
Q 415.402597 26.185156 415.402597 23.185156 
L 415.402597 14.014844 
Q 415.402597 11.014844 412.402597 11.014844 
L 406.402597 11.014844 
Q 403.402597 11.014844 403.402597 14.014844 
L 403.402597 23.185156 
Q 403.402597 26.185156 406.402597 26.185156 
z
" style="fill: #cccccc; stroke: #000000; stroke-linejoin: miter"/>
    </g>
    <text style="font: 10px 'Source Code Pro'; text-anchor: middle" x="409.402597" y="21.135156" transform="rotate(-0, 409.402597, 21.135156)">2</text>
   </g>
  </g>
  <g id="axes_2">
   <g id="patch_9">
    <path d="M 86.4 297 
L 705.6 297 
L 705.6 123 
L 86.4 123 
z
" style="fill: #ffffff"/>
   </g>
   <g id="PolyCollection_4">
    <path d="M 114.545455 297 
L 114.545455 297 
L 194.938701 297 
L 194.961039 297 
L 275.373853 297 
L 275.376623 297 
L 355.791716 297 
L 355.792208 297 
L 378.672698 297 
L 379.417368 297 
L 379.533412 297 
L 379.765836 297 
L 381.608537 297 
L 381.825636 297 
L 382.222532 297 
L 382.45357 297 
L 382.6205 297 
L 382.82958 297 
L 382.853973 297 
L 382.861635 297 
L 383.064796 297 
L 421.792495 297 
L 422.050718 297 
L 422.199509 297 
L 422.437517 297 
L 428.923548 297 
L 429.499569 297 
L 436.206809 297 
L 436.207792 297 
L 472.199105 297 
L 473.242073 297 
L 481.026502 297 
L 481.523426 297 
L 482.446508 297 
L 482.638165 297 
L 482.864669 297 
L 483.392597 297 
L 483.41317 297 
L 483.615281 297 
L 483.966518 123 
L 489.997821 123 
L 491.147072 123 
L 516.621031 123 
L 516.623377 123 
L 543.538897 123 
L 544.18077 123 
L 562.760054 123 
L 563.095632 123 
L 563.329105 123 
L 563.644804 123 
L 563.838918 297 
L 564.18877 297 
L 564.210371 297 
L 564.218055 297 
L 564.426421 297 
L 567.111721 297 
L 567.378298 297 
L 583.16495 297 
L 583.29319 297 
L 592.705321 297 
L 593.666734 297 
L 597.037174 297 
L 597.038961 297 
L 677.432208 297 
L 677.454545 297 
L 677.454545 297 
L 677.454545 297 
L 677.454545 297 
L 677.454545 297 
L 677.432208 297 
L 597.038961 297 
L 597.037174 297 
L 593.666734 297 
L 592.705321 297 
L 583.29319 297 
L 583.16495 297 
L 567.378298 297 
L 567.111721 297 
L 564.426421 297 
L 564.218055 297 
L 564.210371 297 
L 564.18877 297 
L 563.838918 297 
L 563.644804 297 
L 563.329105 297 
L 563.095632 297 
L 562.760054 297 
L 544.18077 297 
L 543.538897 297 
L 516.623377 297 
L 516.621031 297 
L 491.147072 297 
L 489.997821 297 
L 483.966518 297 
L 483.615281 297 
L 483.41317 297 
L 483.392597 297 
L 482.864669 297 
L 482.638165 297 
L 482.446508 297 
L 481.523426 297 
L 481.026502 297 
L 473.242073 297 
L 472.199105 297 
L 436.207792 297 
L 436.206809 297 
L 429.499569 297 
L 428.923548 297 
L 422.437517 297 
L 422.199509 297 
L 422.050718 297 
L 421.792495 297 
L 383.064796 297 
L 382.861635 297 
L 382.853973 297 
L 382.82958 297 
L 382.6205 297 
L 382.45357 297 
L 382.222532 297 
L 381.825636 297 
L 381.608537 297 
L 379.765836 297 
L 379.533412 297 
L 379.417368 297 
L 378.672698 297 
L 355.792208 297 
L 355.791716 297 
L 275.376623 297 
L 275.373853 297 
L 194.961039 297 
L 194.938701 297 
L 114.545455 297 
z
" clip-path="url(#pb1f5032ecc)" style="fill: url(#haf1a6f2371)"/>
   </g>
   <g id="PolyCollection_5">
    <defs>
     <path id="m7fcff715ae" d="M 114.545455 -63 
L 114.545455 -63 
L 194.938701 -63 
L 194.961039 -63 
L 275.373853 -63 
L 275.376623 -63 
L 355.791716 -63 
L 355.792208 -63 
L 378.672698 -63 
L 379.417368 -63 
L 379.533412 -63 
L 379.765836 -63 
L 381.608537 -63 
L 381.825636 -63 
L 382.222532 -63 
L 382.45357 -63 
L 382.6205 -63 
L 382.82958 -63 
L 382.853973 -63 
L 382.861635 -63 
L 383.064796 -63 
L 421.792495 -63 
L 422.050718 -63 
L 422.199509 -63 
L 422.437517 -237 
L 428.923548 -237 
L 429.499569 -237 
L 436.206809 -237 
L 436.207792 -237 
L 472.199105 -237 
L 473.242073 -63 
L 481.026502 -63 
L 481.523426 -63 
L 482.446508 -63 
L 482.638165 -63 
L 482.864669 -63 
L 483.392597 -63 
L 483.41317 -63 
L 483.615281 -63 
L 483.966518 -63 
L 489.997821 -63 
L 491.147072 -63 
L 516.621031 -63 
L 516.623377 -63 
L 543.538897 -63 
L 544.18077 -63 
L 562.760054 -63 
L 563.095632 -63 
L 563.329105 -63 
L 563.644804 -63 
L 563.838918 -63 
L 564.18877 -63 
L 564.210371 -63 
L 564.218055 -63 
L 564.426421 -63 
L 567.111721 -63 
L 567.378298 -63 
L 583.16495 -63 
L 583.29319 -63 
L 592.705321 -63 
L 593.666734 -63 
L 597.037174 -63 
L 597.038961 -63 
L 677.432208 -63 
L 677.454545 -63 
L 677.454545 -63 
L 677.454545 -63 
L 677.454545 -63 
L 677.454545 -63 
L 677.432208 -63 
L 597.038961 -63 
L 597.037174 -63 
L 593.666734 -63 
L 592.705321 -63 
L 583.29319 -63 
L 583.16495 -63 
L 567.378298 -63 
L 567.111721 -63 
L 564.426421 -63 
L 564.218055 -63 
L 564.210371 -63 
L 564.18877 -63 
L 563.838918 -63 
L 563.644804 -63 
L 563.329105 -63 
L 563.095632 -63 
L 562.760054 -63 
L 544.18077 -63 
L 543.538897 -63 
L 516.623377 -63 
L 516.621031 -63 
L 491.147072 -63 
L 489.997821 -63 
L 483.966518 -63 
L 483.615281 -63 
L 483.41317 -63 
L 483.392597 -63 
L 482.864669 -63 
L 482.638165 -63 
L 482.446508 -63 
L 481.523426 -63 
L 481.026502 -63 
L 473.242073 -63 
L 472.199105 -63 
L 436.207792 -63 
L 436.206809 -63 
L 429.499569 -63 
L 428.923548 -63 
L 422.437517 -63 
L 422.199509 -63 
L 422.050718 -63 
L 421.792495 -63 
L 383.064796 -63 
L 382.861635 -63 
L 382.853973 -63 
L 382.82958 -63 
L 382.6205 -63 
L 382.45357 -63 
L 382.222532 -63 
L 381.825636 -63 
L 381.608537 -63 
L 379.765836 -63 
L 379.533412 -63 
L 379.417368 -63 
L 378.672698 -63 
L 355.792208 -63 
L 355.791716 -63 
L 275.376623 -63 
L 275.373853 -63 
L 194.961039 -63 
L 194.938701 -63 
L 114.545455 -63 
z
"/>
    </defs>
    <g clip-path="url(#pb1f5032ecc)">
     <use xlink:href="#m7fcff715ae" x="0" y="360" style="fill: #dddddd"/>
    </g>
   </g>
   <g id="PolyCollection_6">
    <path d="M 114.545455 297 
L 114.545455 123 
L 194.938701 123 
L 194.961039 123 
L 275.373853 123 
L 275.376623 123 
L 355.791716 123 
L 355.792208 123 
L 378.672698 123 
L 379.417368 123 
L 379.533412 123 
L 379.765836 123 
L 381.608537 123 
L 381.825636 123 
L 382.222532 123 
L 382.45357 123 
L 382.6205 297 
L 382.82958 297 
L 382.853973 297 
L 382.861635 297 
L 383.064796 123 
L 421.792495 123 
L 422.050718 123 
L 422.199509 297 
L 422.437517 297 
L 428.923548 297 
L 429.499569 297 
L 436.206809 297 
L 436.207792 297 
L 472.199105 297 
L 473.242073 297 
L 481.026502 297 
L 481.523426 297 
L 482.446508 297 
L 482.638165 297 
L 482.864669 297 
L 483.392597 297 
L 483.41317 297 
L 483.615281 297 
L 483.966518 297 
L 489.997821 297 
L 491.147072 297 
L 516.621031 297 
L 516.623377 297 
L 543.538897 297 
L 544.18077 297 
L 562.760054 297 
L 563.095632 297 
L 563.329105 297 
L 563.644804 297 
L 563.838918 297 
L 564.18877 297 
L 564.210371 297 
L 564.218055 123 
L 564.426421 123 
L 567.111721 123 
L 567.378298 123 
L 583.16495 123 
L 583.29319 123 
L 592.705321 123 
L 593.666734 123 
L 597.037174 123 
L 597.038961 123 
L 677.432208 123 
L 677.454545 123 
L 677.454545 123 
L 677.454545 297 
L 677.454545 297 
L 677.454545 297 
L 677.432208 297 
L 597.038961 297 
L 597.037174 297 
L 593.666734 297 
L 592.705321 297 
L 583.29319 297 
L 583.16495 297 
L 567.378298 297 
L 567.111721 297 
L 564.426421 297 
L 564.218055 297 
L 564.210371 297 
L 564.18877 297 
L 563.838918 297 
L 563.644804 297 
L 563.329105 297 
L 563.095632 297 
L 562.760054 297 
L 544.18077 297 
L 543.538897 297 
L 516.623377 297 
L 516.621031 297 
L 491.147072 297 
L 489.997821 297 
L 483.966518 297 
L 483.615281 297 
L 483.41317 297 
L 483.392597 297 
L 482.864669 297 
L 482.638165 297 
L 482.446508 297 
L 481.523426 297 
L 481.026502 297 
L 473.242073 297 
L 472.199105 297 
L 436.207792 297 
L 436.206809 297 
L 429.499569 297 
L 428.923548 297 
L 422.437517 297 
L 422.199509 297 
L 422.050718 297 
L 421.792495 297 
L 383.064796 297 
L 382.861635 297 
L 382.853973 297 
L 382.82958 297 
L 382.6205 297 
L 382.45357 297 
L 382.222532 297 
L 381.825636 297 
L 381.608537 297 
L 379.765836 297 
L 379.533412 297 
L 379.417368 297 
L 378.672698 297 
L 355.792208 297 
L 355.791716 297 
L 275.376623 297 
L 275.373853 297 
L 194.961039 297 
L 194.938701 297 
L 114.545455 297 
z
" clip-path="url(#pb1f5032ecc)" style="fill: url(#hd8260f6867)"/>
   </g>
   <g id="matplotlib.axis_3">
    <g id="xtick_14">
     <g id="line2d_30">
      <path d="M 114.545455 297 
L 114.545455 123 
" clip-path="url(#pb1f5032ecc)" style="fill: none; stroke: #b0b0b0; stroke-linecap: square"/>
     </g>
     <g id="line2d_31">
      <g>
       <use xlink:href="#m73e63a32a1" x="114.545455" y="297" style="stroke: #000000"/>
      </g>
     </g>
     <g id="line2d_32">
      <defs>
       <path id="m9af94b5f31" d="M 0 0 
L 0 -3.5 
" style="stroke: #000000"/>
      </defs>
      <g>
       <use xlink:href="#m9af94b5f31" x="114.545455" y="123" style="stroke: #000000"/>
      </g>
     </g>
     <g id="text_5">
      <text style="font: 12px 'Source Code Pro'; text-anchor: middle" x="114.545455" y="312.544375" transform="rotate(-0, 114.545455, 312.544375)">15:00</text>
     </g>
    </g>
    <g id="xtick_15">
     <g id="line2d_33">
      <path d="M 194.961039 297 
L 194.961039 123 
" clip-path="url(#pb1f5032ecc)" style="fill: none; stroke: #b0b0b0; stroke-linecap: square"/>
     </g>
     <g id="line2d_34">
      <g>
       <use xlink:href="#m73e63a32a1" x="194.961039" y="297" style="stroke: #000000"/>
      </g>
     </g>
     <g id="line2d_35">
      <g>
       <use xlink:href="#m9af94b5f31" x="194.961039" y="123" style="stroke: #000000"/>
      </g>
     </g>
     <g id="text_6">
      <text style="font: 12px 'Source Code Pro'; text-anchor: middle" x="194.961039" y="312.544375" transform="rotate(-0, 194.961039, 312.544375)">16:00</text>
     </g>
    </g>
    <g id="xtick_16">
     <g id="line2d_36">
      <path d="M 275.376623 297 
L 275.376623 123 
" clip-path="url(#pb1f5032ecc)" style="fill: none; stroke: #b0b0b0; stroke-linecap: square"/>
     </g>
     <g id="line2d_37">
      <g>
       <use xlink:href="#m73e63a32a1" x="275.376623" y="297" style="stroke: #000000"/>
      </g>
     </g>
     <g id="line2d_38">
      <g>
       <use xlink:href="#m9af94b5f31" x="275.376623" y="123" style="stroke: #000000"/>
      </g>
     </g>
     <g id="text_7">
      <text style="font: 12px 'Source Code Pro'; text-anchor: middle" x="275.376623" y="312.544375" transform="rotate(-0, 275.376623, 312.544375)">17:00</text>
     </g>
    </g>
    <g id="xtick_17">
     <g id="line2d_39">
      <path d="M 355.792208 297 
L 355.792208 123 
" clip-path="url(#pb1f5032ecc)" style="fill: none; stroke: #b0b0b0; stroke-linecap: square"/>
     </g>
     <g id="line2d_40">
      <g>
       <use xlink:href="#m73e63a32a1" x="355.792208" y="297" style="stroke: #000000"/>
      </g>
     </g>
     <g id="line2d_41">
      <g>
       <use xlink:href="#m9af94b5f31" x="355.792208" y="123" style="stroke: #000000"/>
      </g>
     </g>
     <g id="text_8">
      <text style="font: 12px 'Source Code Pro'; text-anchor: middle" x="355.792208" y="312.544375" transform="rotate(-0, 355.792208, 312.544375)">18:00</text>
     </g>
    </g>
    <g id="xtick_18">
     <g id="line2d_42">
      <path d="M 436.207792 297 
L 436.207792 123 
" clip-path="url(#pb1f5032ecc)" style="fill: none; stroke: #b0b0b0; stroke-linecap: square"/>
     </g>
     <g id="line2d_43">
      <g>
       <use xlink:href="#m73e63a32a1" x="436.207792" y="297" style="stroke: #000000"/>
      </g>
     </g>
     <g id="line2d_44">
      <g>
       <use xlink:href="#m9af94b5f31" x="436.207792" y="123" style="stroke: #000000"/>
      </g>
     </g>
     <g id="text_9">
      <text style="font: 12px 'Source Code Pro'; text-anchor: middle" x="436.207792" y="312.544375" transform="rotate(-0, 436.207792, 312.544375)">19:00</text>
     </g>
    </g>
    <g id="xtick_19">
     <g id="line2d_45">
      <path d="M 516.623377 297 
L 516.623377 123 
" clip-path="url(#pb1f5032ecc)" style="fill: none; stroke: #b0b0b0; stroke-linecap: square"/>
     </g>
     <g id="line2d_46">
      <g>
       <use xlink:href="#m73e63a32a1" x="516.623377" y="297" style="stroke: #000000"/>
      </g>
     </g>
     <g id="line2d_47">
      <g>
       <use xlink:href="#m9af94b5f31" x="516.623377" y="123" style="stroke: #000000"/>
      </g>
     </g>
     <g id="text_10">
      <text style="font: 12px 'Source Code Pro'; text-anchor: middle" x="516.623377" y="312.544375" transform="rotate(-0, 516.623377, 312.544375)">20:00</text>
     </g>
    </g>
    <g id="xtick_20">
     <g id="line2d_48">
      <path d="M 597.038961 297 
L 597.038961 123 
" clip-path="url(#pb1f5032ecc)" style="fill: none; stroke: #b0b0b0; stroke-linecap: square"/>
     </g>
     <g id="line2d_49">
      <g>
       <use xlink:href="#m73e63a32a1" x="597.038961" y="297" style="stroke: #000000"/>
      </g>
     </g>
     <g id="line2d_50">
      <g>
       <use xlink:href="#m9af94b5f31" x="597.038961" y="123" style="stroke: #000000"/>
      </g>
     </g>
     <g id="text_11">
      <text style="font: 12px 'Source Code Pro'; text-anchor: middle" x="597.038961" y="312.544375" transform="rotate(-0, 597.038961, 312.544375)">21:00</text>
     </g>
    </g>
    <g id="xtick_21">
     <g id="line2d_51">
      <path d="M 677.454545 297 
L 677.454545 123 
" clip-path="url(#pb1f5032ecc)" style="fill: none; stroke: #b0b0b0; stroke-linecap: square"/>
     </g>
     <g id="line2d_52">
      <g>
       <use xlink:href="#m73e63a32a1" x="677.454545" y="297" style="stroke: #000000"/>
      </g>
     </g>
     <g id="line2d_53">
      <g>
       <use xlink:href="#m9af94b5f31" x="677.454545" y="123" style="stroke: #000000"/>
      </g>
     </g>
     <g id="text_12">
      <text style="font: 12px 'Source Code Pro'; text-anchor: middle" x="677.454545" y="312.544375" transform="rotate(-0, 677.454545, 312.544375)">22:00</text>
     </g>
    </g>
    <g id="xtick_22">
     <g id="line2d_54">
      <g>
       <use xlink:href="#m9a5266978d" x="162.794805" y="297" style="stroke: #000000; stroke-width: 0.6"/>
      </g>
     </g>
    </g>
    <g id="xtick_23">
     <g id="line2d_55">
      <g>
       <use xlink:href="#m9a5266978d" x="259.293506" y="297" style="stroke: #000000; stroke-width: 0.6"/>
      </g>
     </g>
    </g>
    <g id="xtick_24">
     <g id="line2d_56">
      <g>
       <use xlink:href="#m9a5266978d" x="452.290909" y="297" style="stroke: #000000; stroke-width: 0.6"/>
      </g>
     </g>
    </g>
    <g id="xtick_25">
     <g id="line2d_57">
      <g>
       <use xlink:href="#m9a5266978d" x="548.78961" y="297" style="stroke: #000000; stroke-width: 0.6"/>
      </g>
     </g>
    </g>
    <g id="xtick_26">
     <g id="line2d_58">
      <g>
       <use xlink:href="#m9a5266978d" x="645.288312" y="297" style="stroke: #000000; stroke-width: 0.6"/>
      </g>
     </g>
    </g>
   </g>
   <g id="matplotlib.axis_4">
    <g id="ytick_4">
     <g id="line2d_59">
      <path d="M 86.4 297 
L 705.6 297 
" clip-path="url(#pb1f5032ecc)" style="fill: none; stroke: #b0b0b0; stroke-linecap: square"/>
     </g>
     <g id="line2d_60">
      <g>
       <use xlink:href="#m8175664693" x="86.4" y="297" style="stroke: #000000"/>
      </g>
     </g>
     <g id="text_13">
      <text style="font: 12px 'Source Code Pro'; text-anchor: end" x="79.4" y="301.272188" transform="rotate(-0, 79.4, 301.272188)">0</text>
     </g>
    </g>
    <g id="ytick_5">
     <g id="line2d_61">
      <path d="M 86.4 260.75 
L 705.6 260.75 
" clip-path="url(#pb1f5032ecc)" style="fill: none; stroke: #b0b0b0; stroke-linecap: square"/>
     </g>
     <g id="line2d_62">
      <g>
       <use xlink:href="#m8175664693" x="86.4" y="260.75" style="stroke: #000000"/>
      </g>
     </g>
     <g id="text_14">
      <text style="font: 12px 'Source Code Pro'; text-anchor: end" x="79.4" y="265.022188" transform="rotate(-0, 79.4, 265.022188)">5</text>
     </g>
    </g>
    <g id="ytick_6">
     <g id="line2d_63">
      <path d="M 86.4 224.5 
L 705.6 224.5 
" clip-path="url(#pb1f5032ecc)" style="fill: none; stroke: #b0b0b0; stroke-linecap: square"/>
     </g>
     <g id="line2d_64">
      <g>
       <use xlink:href="#m8175664693" x="86.4" y="224.5" style="stroke: #000000"/>
      </g>
     </g>
     <g id="text_15">
      <text style="font: 12px 'Source Code Pro'; text-anchor: end" x="79.4" y="228.772188" transform="rotate(-0, 79.4, 228.772188)">10</text>
     </g>
    </g>
    <g id="ytick_7">
     <g id="line2d_65">
      <path d="M 86.4 188.25 
L 705.6 188.25 
" clip-path="url(#pb1f5032ecc)" style="fill: none; stroke: #b0b0b0; stroke-linecap: square"/>
     </g>
     <g id="line2d_66">
      <g>
       <use xlink:href="#m8175664693" x="86.4" y="188.25" style="stroke: #000000"/>
      </g>
     </g>
     <g id="text_16">
      <text style="font: 12px 'Source Code Pro'; text-anchor: end" x="79.4" y="192.522188" transform="rotate(-0, 79.4, 192.522188)">15</text>
     </g>
    </g>
    <g id="ytick_8">
     <g id="line2d_67">
      <path d="M 86.4 152 
L 705.6 152 
" clip-path="url(#pb1f5032ecc)" style="fill: none; stroke: #b0b0b0; stroke-linecap: square"/>
     </g>
     <g id="line2d_68">
      <g>
       <use xlink:href="#m8175664693" x="86.4" y="152" style="stroke: #000000"/>
      </g>
     </g>
     <g id="text_17">
      <text style="font: 12px 'Source Code Pro'; text-anchor: end" x="79.4" y="156.272188" transform="rotate(-0, 79.4, 156.272188)">20</text>
     </g>
    </g>
    <g id="text_18">
     <!-- conc. (mg $L^{-1}$) -->
     <g transform="translate(51.04 219.96)rotate(-90)">
      <text>
       <tspan style="font: 12px 'Source Code Pro'" x="0 7.199997 14.399994 21.599991 28.799988 35.999985 43.199982 50.399979 57.599976 64.799973 71.999969 89.673361" y="-0.5609375000000014">conc. (mg L)</tspan>
       <tspan style="font: 8.4px 'Source Code Pro'" x="79.301959 84.341956" y="-4.640625000000001">−1</tspan>
      </text>
     </g>
    </g>
   </g>
   <g id="line2d_69">
    <path d="M 114.545455 294.96834 
L 114.567792 295.080843 
L 114.724156 295.193347 
L 118.78961 295.521138 
L 119.593766 295.337821 
L 120.643636 295.494059 
L 123.770909 295.313399 
L 124.999481 295.186207 
L 125.133506 295.059015 
L 127.814026 295.1691 
L 127.903377 295.042518 
L 128.305455 294.915937 
L 129.243636 295.024527 
L 129.958442 295.233088 
L 130.650909 295.042449 
L 132.326234 294.851811 
L 135.833247 294.984696 
L 135.967273 295.071841 
L 136.548052 295.158986 
L 138.446753 295.079406 
L 139.072208 295.086986 
L 141.350649 295.299186 
L 142.690909 295.49308 
L 143.673766 295.474774 
L 144.567273 295.283193 
L 145.036364 295.355722 
L 148.074286 295.195254 
L 148.230649 295.25665 
L 149.570909 295.194315 
L 151.067532 295.444266 
L 153.077922 294.968354 
L 154.797922 295.123439 
L 155.2 295.278524 
L 157.121039 295.16836 
L 159.779221 295.580349 
L 163.822338 295.619774 
L 165.318961 295.379031 
L 165.81039 295.128362 
L 173.628571 295.486874 
L 174.834805 295.249056 
L 176.175065 295.25225 
L 178.453506 295.284084 
L 180.173506 295.048793 
L 181.111688 294.597495 
L 181.826494 294.468706 
L 183.233766 293.869203 
L 183.457143 293.581661 
L 184.283636 293.055094 
L 184.886753 292.438314 
L 185.11013 292.049533 
L 185.579221 291.393901 
L 186.405714 290.951521 
L 187.947013 290.689027 
L 188.282078 290.401521 
L 189.465974 290.48979 
L 190.180779 290.395641 
L 192.771948 289.462393 
L 194.290909 289.289314 
L 194.961039 288.919556 
L 194.983377 288.716864 
L 196.18961 288.307518 
L 196.323636 288.501378 
L 198.423377 288.672592 
L 199.361558 288.456796 
L 201.126234 288.180361 
L 202.064416 287.765392 
L 203.002597 287.945431 
L 203.248312 288.12547 
L 204.40987 287.923215 
L 205.303377 287.886061 
L 206.330909 287.472391 
L 207.671169 287.492814 
L 209.145455 287.758208 
L 210.329351 287.425868 
L 210.91013 287.545 
L 212.920519 287.034252 
L 213.032208 286.856539 
L 215.087273 287.028055 
L 215.131948 287.199571 
L 216.338182 287.417106 
L 216.583896 287.463125 
L 217.41039 287.375871 
L 218.348571 286.945736 
L 219.286753 286.987155 
L 220.358961 286.901221 
L 221.051429 286.653815 
L 221.877922 286.729969 
L 222.592727 286.995051 
L 223.173506 286.787107 
L 223.419221 286.683134 
L 224.603117 287.426875 
L 225.876364 287.861158 
L 226.591169 287.713555 
L 226.948571 287.511671 
L 228.556883 287.6462 
L 230.477922 287.873802 
L 231.17039 287.792565 
L 231.795844 287.76023 
L 231.907532 287.69145 
L 236.620779 287.241159 
L 236.978182 286.880624 
L 238.318442 286.910393 
L 238.988571 286.766951 
L 239.569351 286.313152 
L 239.681039 286.060975 
L 240.976623 285.347641 
L 241.57974 285.586354 
L 241.892468 285.745999 
L 242.875325 285.905644 
L 243.59013 286.266643 
L 244.059221 286.357812 
L 245.243117 286.834608 
L 247.923636 286.882335 
L 248.571429 286.702543 
L 248.616104 286.616 
L 250.581818 285.547794 
L 250.805195 285.417868 
L 253.485714 285.502299 
L 255.719481 285.387353 
L 256.523636 285.72487 
L 256.612987 285.823338 
L 258.958442 285.957032 
L 259.74026 285.800997 
L 260.857143 285.902416 
L 262.21974 285.505814 
L 263.314286 285.931442 
L 263.984416 285.832126 
L 265.324675 285.575158 
L 268.228571 285.003886 
L 268.921039 284.847427 
L 269.524156 284.343805 
L 269.568831 284.398871 
L 275.153247 285.700051 
L 275.823377 285.742589 
L 277.61039 285.81331 
L 278.057143 285.720844 
L 280.067532 285.2081 
L 281.407792 285.229112 
L 283.641558 285.260734 
L 284.311688 285.103868 
L 285.205195 284.842958 
L 286.322078 284.723321 
L 286.768831 284.603636 
L 287.438961 284.619264 
L 288.332468 284.42882 
L 290.78961 283.514814 
L 291.012987 283.389289 
L 292.50961 282.830136 
L 292.576623 282.932457 
L 293.246753 283.358325 
L 293.916883 283.626536 
L 294.81039 283.787466 
L 295.257143 283.977887 
L 296.374026 284.107887 
L 298.384416 284.091542 
L 299.948052 283.820363 
L 302.807273 283.948818 
L 303.008312 283.850059 
L 303.298701 283.916309 
L 304.638961 284.066828 
L 305.956883 283.930033 
L 305.979221 283.814519 
L 307.766234 282.965421 
L 308.436364 283.009416 
L 309.32987 283.16242 
L 310.201039 283.049972 
L 310.223377 283.081094 
L 310.893506 283.096505 
L 311.139221 283.049673 
L 311.787013 282.737356 
L 312.546494 282.902643 
L 312.903896 283.20172 
L 313.73039 283.725148 
L 314.020779 283.595785 
L 314.311169 283.40174 
L 315.495065 283.02358 
L 315.807792 283.160915 
L 317.818182 283.502595 
L 318.488312 283.298706 
L 318.555325 283.231924 
L 321.168831 283.323301 
L 322.062338 283.079522 
L 323.268571 282.769599 
L 324.742857 282.816103 
L 326.753247 282.660616 
L 326.797922 282.600673 
L 327.87013 282.992638 
L 328.987013 283.093287 
L 329.009351 283.059802 
L 331.890909 282.508813 
L 332.561039 282.329335 
L 333.454545 282.189318 
L 334.571429 281.890798 
L 338.368831 281.367902 
L 340.155844 281.43382 
L 340.602597 281.454503 
L 341.496104 281.459564 
L 341.942857 281.313904 
L 342.166234 281.185978 
L 343.774545 280.996704 
L 345.963636 281.20245 
L 346.187013 281.093629 
L 347.750649 280.479942 
L 349.090909 280.565943 
L 349.537662 280.483744 
L 350.207792 280.304997 
L 350.431169 280.227822 
L 352.441558 280.305137 
L 352.664935 280.304063 
L 354.228571 280.398013 
L 355.457143 280.174549 
L 356.283636 279.215772 
L 357.11013 279.250197 
L 357.154805 279.144265 
L 359.366234 278.668645 
L 360.483117 278.484752 
L 361.376623 278.249161 
L 362.515844 278.167969 
L 363.163636 278.127053 
L 365.397403 278.286752 
L 366.290909 278.123951 
L 366.335584 278.056193 
L 367.184416 278.124712 
L 368.256623 278.079907 
L 368.301299 277.966556 
L 370.088312 277.078542 
L 371.205195 277.098538 
L 372.322078 276.82013 
L 372.545455 276.791602 
L 372.992208 276.858927 
L 373.662338 276.632995 
L 374.578182 276.340432 
L 375.896104 276.110665 
L 377.236364 275.730202 
L 377.951169 275.773831 
L 379.269091 275.739501 
L 380.363636 275.565931 
L 380.698701 275.652216 
L 381.033766 276.036491 
L 381.257143 276.228629 
L 381.391169 276.730711 
L 381.480519 276.958608 
L 381.703896 277.186504 
L 381.86026 277.507817 
L 382.374026 278.901591 
L 382.664416 279.295887 
L 382.686753 279.493034 
L 382.820779 279.683702 
L 383.044156 280.214554 
L 383.267532 280.557315 
L 383.28987 280.753207 
L 383.490909 280.941479 
L 383.513247 281.129751 
L 383.714286 281.424764 
L 383.870649 281.8774 
L 383.937662 282.035022 
L 384.228052 282.350266 
L 384.607792 283.182614 
L 384.831169 283.620321 
L 386.618182 286.753752 
L 388.405195 290.258138 
L 388.82961 290.451684 
L 388.851948 290.616796 
L 390.192208 291.555802 
L 390.638961 291.766789 
L 390.728312 291.907448 
L 391.755844 291.860992 
L 392.649351 292.008708 
L 392.872727 292.117847 
L 394.212987 292.280132 
L 394.682078 292.374678 
L 395.32987 292.31199 
L 395.553247 292.105817 
L 397.116883 291.978079 
L 398.01039 291.907515 
L 399.350649 291.622996 
L 400.020779 291.705905 
L 400.467532 291.681638 
L 401.361039 291.812651 
L 401.383377 291.754735 
L 402.723636 291.455247 
L 403.818182 291.537849 
L 404.935065 291.238564 
L 405.158442 291.195786 
L 408.151688 291.11888 
L 408.509091 290.8173 
L 410.162078 290.727336 
L 410.876883 291.174937 
L 411.18961 291.064927 
L 412.753247 290.71881 
L 413.423377 290.944615 
L 414.54026 291.200527 
L 415.880519 291.267428 
L 416.774026 291.362377 
L 418.114286 291.530941 
L 419.007792 291.5245 
L 423.028571 291.951066 
L 423.251948 292.135437 
L 423.922078 292.723624 
L 423.944416 292.855697 
L 424.167792 293.108012 
L 424.19013 293.192116 
L 424.413506 293.360326 
L 424.815584 293.874873 
L 425.485714 294.416013 
L 425.508052 294.53566 
L 427.272727 295.50773 
L 429.283117 295.861796 
L 431.74026 295.996769 
L 443.132468 296.093753 
L 491.136104 296.029869 
L 491.828571 296.025864 
L 531.366234 296.073118 
L 549.236364 296.1259 
L 570.233766 296.160773 
L 592.348052 296.062897 
L 595.028571 295.898982 
L 595.050909 295.821715 
L 595.698701 294.901954 
L 596.368831 294.786927 
L 597.932468 294.937186 
L 602.846753 295.440736 
L 605.750649 295.162944 
L 606.197403 295.025323 
L 607.761039 295.122377 
L 609.771429 295.372181 
L 610.664935 295.319323 
L 613.122078 295.041647 
L 613.144416 294.993132 
L 614.507013 294.896101 
L 615.802597 295.241926 
L 619.287273 295.201424 
L 620.515844 294.844038 
L 623.620779 294.781077 
L 624.179221 294.609987 
L 624.514286 294.460785 
L 625.117403 294.236982 
L 625.184416 294.026265 
L 625.943896 293.422611 
L 626.77039 293.658105 
L 629.875325 292.979198 
L 630.992208 292.640917 
L 632.109091 292.459282 
L 633.225974 292.569224 
L 633.449351 292.609976 
L 634.119481 292.437687 
L 634.320519 292.326897 
L 634.432208 292.035773 
L 634.78961 291.713423 
L 635.236364 291.725257 
L 637.246753 292.404317 
L 638.721039 292.310983 
L 639.033766 292.409778 
L 639.703896 292.470987 
L 640.217662 292.414607 
L 640.820779 292.076315 
L 641.714286 291.932112 
L 642.607792 291.751556 
L 646.628571 291.953369 
L 647.991169 291.832463 
L 648.84 291.96075 
L 648.862338 291.813274 
L 649.309091 291.518322 
L 650.381299 291.370846 
L 652.034286 291.604168 
L 653.352208 291.516086 
L 653.687273 291.43569 
L 654.647792 291.676789 
L 655.988052 291.652226 
L 657.462338 291.413607 
L 657.596364 291.174988 
L 659.584416 291.344256 
L 660.701299 291.236964 
L 661.148052 291.157774 
L 662.041558 290.888494 
L 662.488312 290.741929 
L 663.605195 290.770483 
L 664.275325 290.666957 
L 665.168831 290.507335 
L 665.727273 290.546427 
L 666.911169 290.089372 
L 668.675844 290.270746 
L 670.686234 290.104902 
L 671.177662 289.847701 
L 672.115844 289.803198 
L 674.237922 289.878753 
L 675.890909 289.631404 
L 676.114286 289.52019 
L 676.717403 288.963201 
L 677.432208 288.911371 
L 677.432208 288.911371 
" clip-path="url(#pb1f5032ecc)" style="fill: none; stroke: #00a6d6; stroke-width: 3; stroke-linecap: square"/>
   </g>
   <g id="line2d_70">
    <path d="M 114.545455 278.43104 
L 123.770909 278.43104 
L 125.133506 277.773595 
L 137.106494 277.773595 
L 138.446753 217.85348 
L 150.531429 217.85348 
L 151.067532 214.733298 
L 151.76 211.613117 
L 153.077922 211.325017 
L 155.2 211.036918 
L 157.121039 210.748819 
L 161.521558 210.460719 
L 165.81039 209.888759 
L 204.40987 209.96294 
L 205.012987 211.468757 
L 217.142338 211.468757 
L 217.41039 212.530344 
L 218.236883 213.591932 
L 218.348571 214.65352 
L 231.795844 214.65352 
L 231.907532 218.004844 
L 243.96987 218.004844 
L 244.059221 219.381804 
L 244.572987 220.758764 
L 245.243117 222.135724 
L 257.327792 222.135724 
L 257.618182 223.334739 
L 257.953247 224.533755 
L 258.623377 226.332278 
L 258.668052 226.931786 
L 268.451948 230.03054 
L 268.921039 230.264408 
L 272.025974 231.258348 
L 272.249351 231.316815 
L 284.2 231.316815 
L 284.311688 232.56823 
L 284.758442 233.819644 
L 284.981818 235.071058 
L 285.428571 236.322472 
L 286.612468 236.766145 
L 289.225974 237.716873 
L 290.03013 238.033783 
L 290.566234 238.350692 
L 291.794805 238.794365 
L 292.353247 238.984511 
L 296.374026 240.505675 
L 298.049351 241.076112 
L 298.607792 241.266258 
L 299.277922 241.393021 
L 312.323117 241.393021 
L 312.457143 246.814239 
L 324.541818 246.814239 
L 325.636364 252.011873 
L 339.083636 252.011873 
L 339.262338 257.803896 
L 351.28 257.803896 
L 351.324675 258.480088 
L 351.682078 259.832473 
L 351.771429 260.508665 
L 352.441558 262.537243 
L 352.508571 263.213435 
L 364.615584 263.213435 
L 365.174026 266.214431 
L 365.844156 268.465177 
L 365.866494 269.215426 
L 377.951169 269.215426 
L 378.576623 271.4474 
L 379.023377 272.935383 
L 379.269091 275.167357 
L 381.279481 275.855023 
L 383.870649 277.28766 
L 384.228052 277.459577 
L 386.171429 278.376465 
L 386.841558 278.662992 
L 390.192208 280.267546 
L 390.683636 280.496768 
L 390.862338 280.611379 
L 392.202597 281.069823 
L 393.096104 281.299045 
L 404.823377 281.299045 
L 405.605195 284.161277 
L 406.275325 285.592394 
L 418.248312 285.592394 
L 418.337662 285.787856 
L 418.762078 286.178781 
L 418.806753 286.569706 
L 419.677922 287.351555 
L 431.561558 287.351555 
L 432.41039 288.271659 
L 432.857143 288.73171 
L 432.901818 288.961736 
L 444.986493 288.961736 
L 445.58961 289.582768 
L 446.25974 290.20418 
L 520.420779 290.219879 
L 565.98961 290.121596 
L 567.106494 289.878245 
L 579.392208 289.962836 
L 580.955844 290.174199 
L 619.287273 290.06328 
L 619.845714 260.042121 
L 620.515844 245.031542 
L 632.645195 245.031542 
L 633.672727 238.220602 
L 633.896104 237.247611 
L 633.963117 236.274619 
L 646.092468 236.274619 
L 646.405195 235.371394 
L 647.298701 234.167093 
L 659.428052 234.167093 
L 659.964156 234.970253 
L 660.031169 235.171043 
L 660.701299 235.773413 
L 672.785974 235.773413 
L 674.237922 237.926967 
L 677.432208 237.926967 
L 677.432208 237.926967 
" clip-path="url(#pb1f5032ecc)" style="fill: none; stroke: #99d28c; stroke-width: 3; stroke-linecap: square"/>
   </g>
   <g id="line2d_71">
    <path d="M 114.545455 295.590651 
L 114.724156 295.590651 
L 115.908052 294.738391 
L 121.291429 294.738391 
L 122.698701 293.773039 
L 127.903377 293.773039 
L 128.305455 293.416242 
L 129.243636 293.059444 
L 134.627013 293.059444 
L 137.731948 293.290849 
L 141.350649 293.290849 
L 142.333506 293.496626 
L 142.690909 293.702403 
L 148.230649 293.645907 
L 151.067532 293.589412 
L 155.2 293.512043 
L 157.121039 293.434675 
L 162.482078 293.529697 
L 162.75013 293.624719 
L 168.133506 293.624719 
L 169.451429 294.066715 
L 174.834805 294.066715 
L 175.817662 294.277752 
L 176.175065 294.488788 
L 194.961039 294.544976 
L 194.983377 294.337742 
L 196.18961 293.923274 
L 196.323636 293.71604 
L 201.684675 293.71604 
L 202.064416 293.392248 
L 203.248312 293.068456 
L 208.408312 293.068456 
L 209.748571 292.259682 
L 215.757403 292.153306 
L 216.583896 292.04693 
L 223.106494 292.04693 
L 223.173506 290.413933 
L 228.556883 290.413933 
L 229.785455 288.759186 
L 236.486753 288.759186 
L 236.509091 286.715549 
L 241.892468 286.715549 
L 242.875325 285.835218 
L 243.232727 284.954887 
L 248.616104 284.954887 
L 249.241558 283.741711 
L 249.911688 282.528536 
L 256.523636 282.528536 
L 256.612987 280.176889 
L 263.26961 280.176889 
L 263.403636 278.095023 
L 268.787013 278.095023 
L 269.345455 276.969066 
L 269.524156 276.687577 
L 269.568831 276.406087 
L 270.015584 275.843109 
L 275.376623 275.843109 
L 275.398961 275.551327 
L 276.739221 273.800637 
L 282.10026 273.800637 
L 283.194805 271.656442 
L 283.418182 271.299076 
L 290.03013 271.299076 
L 290.141818 269.552442 
L 291.794805 268.948682 
L 292.353247 268.767554 
L 296.374026 267.31853 
L 297.267532 267.137402 
L 302.248831 267.137402 
L 303.522078 264.741698 
L 308.860779 264.741698 
L 308.883117 264.460051 
L 309.240519 263.896757 
L 309.32987 263.61511 
L 309.776623 263.051816 
L 310 262.488522 
L 310.223377 262.206875 
L 315.562078 262.206875 
L 315.584416 261.786751 
L 316.924675 259.266011 
L 322.285714 259.266011 
L 322.33039 258.929719 
L 322.955844 257.920843 
L 323.179221 257.584551 
L 323.402597 256.911967 
L 323.625974 256.575675 
L 329.009351 256.575675 
L 330.34961 253.208493 
L 335.732987 253.208493 
L 336.358442 251.82151 
L 337.028571 250.434527 
L 343.662857 250.434527 
L 343.774545 246.897758 
L 349.157922 246.897758 
L 349.537662 245.954239 
L 349.984416 245.01072 
L 350.029091 244.53896 
L 350.431169 243.595441 
L 355.792208 243.595441 
L 355.814545 243.236908 
L 356.015584 242.878376 
L 356.06026 242.519843 
L 356.238961 242.16131 
L 356.283636 241.802778 
L 357.154805 240.010114 
L 362.493506 240.010114 
L 362.515844 239.627384 
L 362.716883 239.244653 
L 362.94026 238.479192 
L 363.833766 236.948271 
L 369.217143 236.948271 
L 370.535065 233.106471 
L 377.169351 233.106471 
L 377.281039 229.559407 
L 382.664416 229.559407 
L 382.686753 229.292512 
L 383.267532 227.958037 
L 383.28987 227.691142 
L 383.490909 227.424247 
L 383.513247 227.157352 
L 383.714286 226.890457 
L 383.870649 226.356668 
L 389.254026 226.356668 
L 389.343377 225.977685 
L 390.728312 224.651247 
L 395.977662 224.651247 
L 396 224.443779 
L 396.223377 224.236312 
L 396.268052 224.028845 
L 397.116883 223.198975 
L 397.362597 222.991508 
L 404.041558 222.991508 
L 404.153247 222.131921 
L 409.625974 222.069529 
L 409.849351 221.944744 
L 410.742857 221.632782 
L 410.876883 221.57039 
L 416.997403 221.670276 
L 418.337662 221.720219 
L 424.145455 221.824145 
L 424.19013 222.031998 
L 429.72987 222.09341 
L 431.07013 222.400466 
L 436.431169 222.505757 
L 437.994805 222.765341 
L 454.971429 222.80681 
L 457.428571 222.909278 
L 458.992208 222.950265 
L 463.236364 223.015203 
L 464.8 223.404828 
L 469.937662 223.493923 
L 471.277922 223.939395 
L 476.862338 224.048678 
L 478.425974 224.201473 
L 490.935065 224.174102 
L 492.275325 224.157259 
L 497.837403 224.157259 
L 497.85974 224.479852 
L 504.561039 224.479852 
L 504.583377 225.179625 
L 509.966753 225.179625 
L 510.815584 225.924171 
L 511.262338 226.296444 
L 511.307013 226.482581 
L 516.623377 226.482581 
L 516.645714 226.705949 
L 517.985974 228.046158 
L 524.62026 228.046158 
L 524.731948 229.659317 
L 530.115325 229.659317 
L 530.472727 230.026112 
L 531.366234 230.759702 
L 536.704935 230.759702 
L 536.727273 230.936161 
L 538.067532 231.99492 
L 543.651948 232.100258 
L 544.992208 232.626948 
L 550.12987 232.626948 
L 551.47013 233.578686 
L 564.425974 233.754273 
L 565.766234 233.803149 
L 577.381818 233.889357 
L 578.99013 234.071608 
L 589.444156 234.210819 
L 597.038961 234.250049 
L 597.061299 235.053907 
L 598.379221 239.877055 
L 603.74026 239.877055 
L 603.762597 241.25129 
L 605.102857 250.870933 
L 610.441558 250.870933 
L 610.463896 252.523434 
L 611.781818 262.43844 
L 617.165195 262.43844 
L 618.505455 269.483728 
L 623.888831 269.483728 
L 624.179221 270.290708 
L 624.514286 271.097689 
L 625.184416 272.30816 
L 631.885714 272.30816 
L 631.952727 274.100142 
L 637.336104 274.100142 
L 637.693506 274.610475 
L 638.721039 275.63114 
L 644.35013 275.741755 
L 644.394805 275.797063 
L 645.958442 276.0736 
L 652.011948 276.0736 
L 652.034286 277.146904 
L 657.596364 277.205681 
L 660.477922 277.264457 
L 664.498701 277.163373 
L 665.727273 276.9949 
L 672.093506 276.9949 
L 672.115844 276.155177 
L 677.432208 276.155177 
L 677.432208 276.155177 
" clip-path="url(#pb1f5032ecc)" style="fill: none; stroke: #f1be3e; stroke-width: 3; stroke-linecap: square"/>
   </g>
   <g id="patch_10">
    <path d="M 86.4 297 
L 86.4 123 
" style="fill: none; stroke: #000000; stroke-linejoin: miter; stroke-linecap: square"/>
   </g>
   <g id="patch_11">
    <path d="M 705.6 297 
L 705.6 123 
" style="fill: none; stroke: #000000; stroke-linejoin: miter; stroke-linecap: square"/>
   </g>
   <g id="patch_12">
    <path d="M 86.4 297 
L 705.6 297 
" style="fill: none; stroke: #000000; stroke-linejoin: miter; stroke-linecap: square"/>
   </g>
   <g id="patch_13">
    <path d="M 86.4 123 
L 705.6 123 
" style="fill: none; stroke: #000000; stroke-linejoin: miter; stroke-linecap: square"/>
   </g>
   <g id="patch_14">
    <path d="M 389.298701 162.090409 
Q 389.298701 225.540547 389.298701 287.872651 
" style="fill: none; stroke: #000000; stroke-linecap: round"/>
    <path d="M 391.298701 283.872651 
L 389.298701 287.872651 
L 387.298701 283.872651 
" style="fill: none; stroke: #000000; stroke-linecap: round"/>
   </g>
   <g id="text_19">
    <g id="patch_15">
     <path d="M 386.298701 159.585156 
L 392.298701 159.585156 
Q 395.298701 159.585156 395.298701 156.585156 
L 395.298701 147.414844 
Q 395.298701 144.414844 392.298701 144.414844 
L 386.298701 144.414844 
Q 383.298701 144.414844 383.298701 147.414844 
L 383.298701 156.585156 
Q 383.298701 159.585156 386.298701 159.585156 
z
" style="fill: #cccccc; stroke: #000000; stroke-linejoin: miter"/>
    </g>
    <text style="font: 10px 'Source Code Pro'; text-anchor: middle" x="389.298701" y="154.535156" transform="rotate(-0, 389.298701, 154.535156)">1</text>
   </g>
   <g id="legend_1">
    <g id="line2d_72">
     <path d="M 19.8 348.84 
L 31.8 348.84 
L 43.8 348.84 
" style="fill: none; stroke-dasharray: 11.1,4.8; stroke-dashoffset: 0; stroke: #c3312f; stroke-width: 3"/>
    </g>
    <g id="text_20">
     <!-- $Inline\ N_2O−N$ -->
     <g transform="translate(53.4 353.04)">
      <text>
       <tspan style="font: 12px 'Source Code Pro'" x="0 7.199997 14.399994 21.599991 28.799988 35.999985 45.599957 58.23335 65.433347 72.633344" y="-0.40625">InlineNO−N</tspan>
       <tspan style="font: 8.4px 'Source Code Pro'" x="52.901946" y="1.3421874999999996">2</tspan>
      </text>
     </g>
    </g>
    <g id="line2d_73">
     <path d="M 157.32 348.84 
L 169.32 348.84 
L 181.32 348.84 
" style="fill: none; stroke: #c3312f; stroke-width: 3; stroke-linecap: square"/>
    </g>
    <g id="text_21">
     <!-- $Offgas\ N_2O−N$ -->
     <g transform="translate(190.92 353.04)">
      <text>
       <tspan style="font: 12px 'Source Code Pro'" x="0 7.199997 14.399994 21.599991 28.799988 35.999985 45.599957 58.23335 65.433347 72.633344" y="-0.3125">OffgasNO−N</tspan>
       <tspan style="font: 8.4px 'Source Code Pro'" x="52.901946" y="1.4359374999999996">2</tspan>
      </text>
     </g>
    </g>
    <g id="line2d_74">
     <path d="M 294.84 348.84 
L 306.84 348.84 
L 318.84 348.84 
" style="fill: none; stroke: #00a6d6; stroke-width: 3; stroke-linecap: square"/>
    </g>
    <g id="text_22">
     <!-- $O_2$ -->
     <g transform="translate(328.44 353.04)">
      <text>
       <tspan style="font: 12px 'Source Code Pro'" x="0" y="-0.984375">O</tspan>
       <tspan style="font: 8.4px 'Source Code Pro'" x="7.301989" y="0.7640624999999996">2</tspan>
      </text>
     </g>
    </g>
    <g id="line2d_75">
     <path d="M 365.16 348.84 
L 377.16 348.84 
L 389.16 348.84 
" style="fill: none; stroke: #99d28c; stroke-width: 3; stroke-linecap: square"/>
    </g>
    <g id="text_23">
     <!-- $NH_4−N$ -->
     <g transform="translate(398.76 353.04)">
      <text>
       <tspan style="font: 12px 'Source Code Pro'" x="0 7.199997 19.83339 27.033387" y="-0.125">NH−N</tspan>
       <tspan style="font: 8.4px 'Source Code Pro'" x="14.501986" y="1.6234374999999996">4</tspan>
      </text>
     </g>
    </g>
    <g id="line2d_76">
     <path d="M 457.08 348.84 
L 469.08 348.84 
L 481.08 348.84 
" style="fill: none; stroke: #f1be3e; stroke-width: 3; stroke-linecap: square"/>
    </g>
    <g id="text_24">
     <!-- $NO_3−N$ -->
     <g transform="translate(490.68 353.04)">
      <text>
       <tspan style="font: 12px 'Source Code Pro'" x="0 7.199997 19.83339 27.033387" y="-0.984375">NO−N</tspan>
       <tspan style="font: 8.4px 'Source Code Pro'" x="14.501986" y="0.7640624999999996">3</tspan>
      </text>
     </g>
    </g>
   </g>
  </g>
 </g>
 <defs>
  <clipPath id="p382b44decd">
   <rect x="86.4" y="36" width="619.2" height="87"/>
  </clipPath>
  <clipPath id="pb1f5032ecc">
   <rect x="86.4" y="123" width="619.2" height="174"/>
  </clipPath>
 </defs>
 <defs>
  <pattern id="haf1a6f2371" patternUnits="userSpaceOnUse" x="0" y="0" width="72" height="72">
   <rect x="0" y="0" width="73" height="73" fill="#dddddd"/>
   <path d="M -36 36 
L 36 -36 
M -32 40 
L 40 -32 
M -28 44 
L 44 -28 
M -24 48 
L 48 -24 
M -20 52 
L 52 -20 
M -16 56 
L 56 -16 
M -12 60 
L 60 -12 
M -8 64 
L 64 -8 
M -4 68 
L 68 -4 
M 0 72 
L 72 0 
M 4 76 
L 76 4 
M 8 80 
L 80 8 
M 12 84 
L 84 12 
M 16 88 
L 88 16 
M 20 92 
L 92 20 
M 24 96 
L 96 24 
M 28 100 
L 100 28 
M 32 104 
L 104 32 
M 36 108 
L 108 36 
" style="fill: #ffffff; stroke: #ffffff; stroke-width: 1.0; stroke-linecap: butt; stroke-linejoin: miter"/>
  </pattern>
  <pattern id="hd8260f6867" patternUnits="userSpaceOnUse" x="0" y="0" width="72" height="72">
   <rect x="0" y="0" width="73" height="73" fill="#ffffff"/>
   <path d="M -36 36 
L 36 -36 
M -32 40 
L 40 -32 
M -28 44 
L 44 -28 
M -24 48 
L 48 -24 
M -20 52 
L 52 -20 
M -16 56 
L 56 -16 
M -12 60 
L 60 -12 
M -8 64 
L 64 -8 
M -4 68 
L 68 -4 
M 0 72 
L 72 0 
M 4 76 
L 76 4 
M 8 80 
L 80 8 
M 12 84 
L 84 12 
M 16 88 
L 88 16 
M 20 92 
L 92 20 
M 24 96 
L 96 24 
M 28 100 
L 100 28 
M 32 104 
L 104 32 
M 36 108 
L 108 36 
M -36 36 
L 36 108 
M -32 32 
L 40 104 
M -28 28 
L 44 100 
M -24 24 
L 48 96 
M -20 20 
L 52 92 
M -16 16 
L 56 88 
M -12 12 
L 60 84 
M -8 8 
L 64 80 
M -4 4 
L 68 76 
M 0 0 
L 72 72 
M 4 -4 
L 76 68 
M 8 -8 
L 80 64 
M 12 -12 
L 84 60 
M 16 -16 
L 88 56 
M 20 -20 
L 92 52 
M 24 -24 
L 96 48 
M 28 -28 
L 100 44 
M 32 -32 
L 104 40 
M 36 -36 
L 108 36 
" style="fill: #dddddd; stroke: #dddddd; stroke-width: 1.0; stroke-linecap: butt; stroke-linejoin: miter"/>
  </pattern>
 </defs>
</svg>
