<?xml version="1.0" encoding="utf-8" standalone="no"?>
<!DOCTYPE svg PUBLIC "-//W3C//DTD SVG 1.1//EN"
  "http://www.w3.org/Graphics/SVG/1.1/DTD/svg11.dtd">
<svg xmlns:xlink="http://www.w3.org/1999/xlink" width="654.16pt" height="552.38pt" viewBox="0 0 654.16 552.38" xmlns="http://www.w3.org/2000/svg" version="1.1">
 <metadata>
  <rdf:RDF xmlns:dc="http://purl.org/dc/elements/1.1/" xmlns:cc="http://creativecommons.org/ns#" xmlns:rdf="http://www.w3.org/1999/02/22-rdf-syntax-ns#">
   <cc:Work>
    <dc:type rdf:resource="http://purl.org/dc/dcmitype/StillImage"/>
    <dc:date>2022-10-30T20:06:33.392481</dc:date>
    <dc:format>image/svg+xml</dc:format>
    <dc:creator>
     <cc:Agent>
      <dc:title>Matplotlib v3.5.2, https://matplotlib.org/</dc:title>
     </cc:Agent>
    </dc:creator>
   </cc:Work>
  </rdf:RDF>
 </metadata>
 <defs>
  <style type="text/css">*{stroke-linejoin: round; stroke-linecap: butt}</style>
 </defs>
 <g id="figure_1">
  <g id="patch_1">
   <path d="M 0 552.38 
L 654.16 552.38 
L 654.16 0 
L 0 0 
z
" style="fill: #ffffff"/>
  </g>
  <g id="axes_1">
   <g id="patch_2">
    <path d="M 39.08 272.89125 
L 327.08 272.89125 
L 327.08 28.09125 
L 39.08 28.09125 
z
" style="fill: #ffffff"/>
   </g>
   <g id="PolyCollection_1">
    <defs>
     <path id="me10c935f02" d="M 39.08 -338.794815 
L 39.08 -524.28875 
L 43.194286 -524.28875 
L 47.308571 -524.28875 
L 51.422857 -524.28875 
L 55.537143 -524.28875 
L 59.651429 -524.28875 
L 63.765714 -524.28875 
L 67.88 -524.28875 
L 71.994286 -524.28875 
L 76.108571 -524.28875 
L 80.222857 -524.28875 
L 84.337143 -524.28875 
L 88.451429 -524.28875 
L 92.565714 -524.28875 
L 96.68 -524.28875 
L 100.794286 -524.28875 
L 104.908571 -524.28875 
L 109.022857 -524.28875 
L 113.137143 -524.28875 
L 117.251429 -524.28875 
L 121.365714 -524.28875 
L 125.48 -524.28875 
L 129.594286 -524.28875 
L 133.708571 -524.28875 
L 137.822857 -524.28875 
L 141.937143 -524.28875 
L 146.051429 -524.28875 
L 150.165714 -524.28875 
L 154.28 -524.28875 
L 158.394286 -524.28875 
L 162.508571 -524.28875 
L 166.622857 -524.28875 
L 170.737143 -524.28875 
L 174.851429 -524.28875 
L 178.965714 -524.28875 
L 183.08 -524.28875 
L 187.194286 -524.28875 
L 191.308571 -524.28875 
L 195.422857 -524.28875 
L 199.537143 -524.28875 
L 203.651429 -524.28875 
L 207.765714 -524.28875 
L 211.88 -524.28875 
L 215.994286 -524.28875 
L 220.108571 -524.28875 
L 224.222857 -524.28875 
L 228.337143 -524.28875 
L 232.451429 -524.28875 
L 236.565714 -524.28875 
L 240.68 -524.28875 
L 244.794286 -524.28875 
L 248.908571 -524.28875 
L 253.022857 -524.28875 
L 257.137143 -524.28875 
L 261.251429 -524.28875 
L 265.365714 -524.28875 
L 269.48 -524.28875 
L 273.594286 -524.28875 
L 277.708571 -524.28875 
L 281.822857 -524.28875 
L 285.937143 -524.28875 
L 290.051429 -524.28875 
L 294.165714 -524.28875 
L 298.28 -524.28875 
L 302.394286 -524.28875 
L 306.508571 -524.28875 
L 310.622857 -524.28875 
L 314.737143 -524.28875 
L 318.851429 -524.28875 
L 322.965714 -524.28875 
L 327.08 -524.28875 
L 327.08 -514.003618 
L 327.08 -514.003618 
L 322.965714 -511.500635 
L 318.851429 -508.997652 
L 314.737143 -506.494669 
L 310.622857 -503.991686 
L 306.508571 -501.488703 
L 302.394286 -498.985721 
L 298.28 -496.482738 
L 294.165714 -493.979755 
L 290.051429 -491.476772 
L 285.937143 -488.973789 
L 281.822857 -486.470806 
L 277.708571 -483.967823 
L 273.594286 -481.46484 
L 269.48 -478.961857 
L 265.365714 -476.458874 
L 261.251429 -473.955892 
L 257.137143 -471.452909 
L 253.022857 -468.949926 
L 248.908571 -466.446943 
L 244.794286 -463.94396 
L 240.68 -461.440977 
L 236.565714 -458.937994 
L 232.451429 -456.435011 
L 228.337143 -453.932028 
L 224.222857 -451.429045 
L 220.108571 -448.926063 
L 215.994286 -446.42308 
L 211.88 -443.920097 
L 207.765714 -441.417114 
L 203.651429 -438.914131 
L 199.537143 -436.411148 
L 195.422857 -433.908165 
L 191.308571 -431.405182 
L 187.194286 -428.902199 
L 183.08 -426.399216 
L 178.965714 -423.896234 
L 174.851429 -421.393251 
L 170.737143 -418.890268 
L 166.622857 -416.387285 
L 162.508571 -413.884302 
L 158.394286 -411.381319 
L 154.28 -408.878336 
L 150.165714 -406.375353 
L 146.051429 -403.87237 
L 141.937143 -401.369387 
L 137.822857 -398.866405 
L 133.708571 -396.363422 
L 129.594286 -393.860439 
L 125.48 -391.357456 
L 121.365714 -388.854473 
L 117.251429 -386.35149 
L 113.137143 -383.848507 
L 109.022857 -381.345524 
L 104.908571 -378.842541 
L 100.794286 -376.339559 
L 96.68 -373.836576 
L 92.565714 -371.333593 
L 88.451429 -368.83061 
L 84.337143 -366.327627 
L 80.222857 -363.824644 
L 76.108571 -361.321661 
L 71.994286 -358.818678 
L 67.88 -356.315695 
L 63.765714 -353.812712 
L 59.651429 -351.30973 
L 55.537143 -348.806747 
L 51.422857 -346.303764 
L 47.308571 -343.800781 
L 43.194286 -341.297798 
L 39.08 -338.794815 
z
" style="stroke: #000000"/>
    </defs>
    <g clip-path="url(#pd5effb4f34)">
     <use xlink:href="#me10c935f02" x="0" y="552.38" style="fill: #a0a0a0; stroke: #000000"/>
    </g>
   </g>
   <g id="PolyCollection_2">
    <defs>
     <path id="mab05347108" d="M 39.08 -285.214141 
L 39.08 -279.48875 
L 43.194286 -279.48875 
L 47.308571 -279.48875 
L 51.422857 -279.48875 
L 55.537143 -279.48875 
L 59.651429 -279.48875 
L 63.765714 -279.48875 
L 67.88 -279.48875 
L 71.994286 -279.48875 
L 76.108571 -279.48875 
L 80.222857 -279.48875 
L 84.337143 -279.48875 
L 88.451429 -279.48875 
L 92.565714 -279.48875 
L 96.68 -279.48875 
L 100.794286 -279.48875 
L 104.908571 -279.48875 
L 109.022857 -279.48875 
L 113.137143 -279.48875 
L 117.251429 -279.48875 
L 121.365714 -279.48875 
L 125.48 -279.48875 
L 129.594286 -279.48875 
L 133.708571 -279.48875 
L 137.822857 -279.48875 
L 141.937143 -279.48875 
L 146.051429 -279.48875 
L 150.165714 -279.48875 
L 154.28 -279.48875 
L 158.394286 -279.48875 
L 162.508571 -279.48875 
L 166.622857 -279.48875 
L 170.737143 -279.48875 
L 174.851429 -279.48875 
L 178.965714 -279.48875 
L 183.08 -279.48875 
L 187.194286 -279.48875 
L 191.308571 -279.48875 
L 195.422857 -279.48875 
L 199.537143 -279.48875 
L 203.651429 -279.48875 
L 207.765714 -279.48875 
L 211.88 -279.48875 
L 215.994286 -279.48875 
L 220.108571 -279.48875 
L 224.222857 -279.48875 
L 228.337143 -279.48875 
L 232.451429 -279.48875 
L 236.565714 -279.48875 
L 240.68 -279.48875 
L 244.794286 -279.48875 
L 248.908571 -279.48875 
L 253.022857 -279.48875 
L 257.137143 -279.48875 
L 261.251429 -279.48875 
L 265.365714 -279.48875 
L 269.48 -279.48875 
L 273.594286 -279.48875 
L 277.708571 -279.48875 
L 281.822857 -279.48875 
L 285.937143 -279.48875 
L 290.051429 -279.48875 
L 294.165714 -279.48875 
L 298.28 -279.48875 
L 302.394286 -279.48875 
L 306.508571 -279.48875 
L 310.622857 -279.48875 
L 314.737143 -279.48875 
L 318.851429 -279.48875 
L 322.965714 -279.48875 
L 327.08 -279.48875 
L 327.08 -423.629096 
L 327.08 -423.629096 
L 322.965714 -421.651739 
L 318.851429 -419.674383 
L 314.737143 -417.697026 
L 310.622857 -415.71967 
L 306.508571 -413.742313 
L 302.394286 -411.764957 
L 298.28 -409.7876 
L 294.165714 -407.810244 
L 290.051429 -405.832887 
L 285.937143 -403.855531 
L 281.822857 -401.878174 
L 277.708571 -399.900818 
L 273.594286 -397.923461 
L 269.48 -395.946105 
L 265.365714 -393.968748 
L 261.251429 -391.991392 
L 257.137143 -390.014035 
L 253.022857 -388.036679 
L 248.908571 -386.059322 
L 244.794286 -384.081966 
L 240.68 -382.104609 
L 236.565714 -380.127253 
L 232.451429 -378.149896 
L 228.337143 -376.17254 
L 224.222857 -374.195183 
L 220.108571 -372.217827 
L 215.994286 -370.24047 
L 211.88 -368.263114 
L 207.765714 -366.285757 
L 203.651429 -364.308401 
L 199.537143 -362.331044 
L 195.422857 -360.353688 
L 191.308571 -358.376331 
L 187.194286 -356.398975 
L 183.08 -354.421619 
L 178.965714 -352.444262 
L 174.851429 -350.466906 
L 170.737143 -348.489549 
L 166.622857 -346.512193 
L 162.508571 -344.534836 
L 158.394286 -342.55748 
L 154.28 -340.580123 
L 150.165714 -338.602767 
L 146.051429 -336.62541 
L 141.937143 -334.648054 
L 137.822857 -332.670697 
L 133.708571 -330.693341 
L 129.594286 -328.715984 
L 125.48 -326.738628 
L 121.365714 -324.761271 
L 117.251429 -322.783915 
L 113.137143 -320.806558 
L 109.022857 -318.829202 
L 104.908571 -316.851845 
L 100.794286 -314.874489 
L 96.68 -312.897132 
L 92.565714 -310.919776 
L 88.451429 -308.942419 
L 84.337143 -306.965063 
L 80.222857 -304.987706 
L 76.108571 -303.01035 
L 71.994286 -301.032993 
L 67.88 -299.055637 
L 63.765714 -297.07828 
L 59.651429 -295.100924 
L 55.537143 -293.123567 
L 51.422857 -291.146211 
L 47.308571 -289.168854 
L 43.194286 -287.191498 
L 39.08 -285.214141 
z
" style="stroke: #000000"/>
    </defs>
    <g clip-path="url(#pd5effb4f34)">
     <use xlink:href="#mab05347108" x="0" y="552.38" style="fill: #00a6d6; stroke: #000000"/>
    </g>
   </g>
   <g id="matplotlib.axis_1">
    <g id="xtick_1"/>
    <g id="xtick_2"/>
    <g id="xtick_3"/>
    <g id="xtick_4"/>
    <g id="xtick_5"/>
    <g id="xtick_6"/>
    <g id="xtick_7"/>
   </g>
   <g id="matplotlib.axis_2">
    <g id="ytick_1">
     <g id="line2d_1">
      <defs>
       <path id="m780ad59fce" d="M 0 0 
L -3.5 0 
" style="stroke: #000000"/>
      </defs>
      <g>
       <use xlink:href="#m780ad59fce" x="39.08" y="272.89125" style="stroke: #000000"/>
      </g>
     </g>
     <g id="text_1">
      <text style="font: 12px 'Source Code Pro'; text-anchor: end" x="32.08" y="277.163437" transform="rotate(-0, 32.08, 277.163437)">16</text>
     </g>
    </g>
    <g id="ytick_2">
     <g id="line2d_2">
      <g>
       <use xlink:href="#m780ad59fce" x="39.08" y="223.93125" style="stroke: #000000"/>
      </g>
     </g>
     <g id="text_2">
      <text style="font: 12px 'Source Code Pro'; text-anchor: end" x="32.08" y="228.203437" transform="rotate(-0, 32.08, 228.203437)">20</text>
     </g>
    </g>
    <g id="ytick_3">
     <g id="line2d_3">
      <g>
       <use xlink:href="#m780ad59fce" x="39.08" y="174.97125" style="stroke: #000000"/>
      </g>
     </g>
     <g id="text_3">
      <text style="font: 12px 'Source Code Pro'; text-anchor: end" x="32.08" y="179.243437" transform="rotate(-0, 32.08, 179.243437)">24</text>
     </g>
    </g>
    <g id="ytick_4">
     <g id="line2d_4">
      <g>
       <use xlink:href="#m780ad59fce" x="39.08" y="126.01125" style="stroke: #000000"/>
      </g>
     </g>
     <g id="text_4">
      <text style="font: 12px 'Source Code Pro'; text-anchor: end" x="32.08" y="130.283437" transform="rotate(-0, 32.08, 130.283437)">28</text>
     </g>
    </g>
    <g id="ytick_5">
     <g id="line2d_5">
      <g>
       <use xlink:href="#m780ad59fce" x="39.08" y="77.05125" style="stroke: #000000"/>
      </g>
     </g>
     <g id="text_5">
      <text style="font: 12px 'Source Code Pro'; text-anchor: end" x="32.08" y="81.323437" transform="rotate(-0, 32.08, 81.323437)">32</text>
     </g>
    </g>
    <g id="ytick_6">
     <g id="line2d_6">
      <g>
       <use xlink:href="#m780ad59fce" x="39.08" y="28.09125" style="stroke: #000000"/>
      </g>
     </g>
     <g id="text_6">
      <text style="font: 12px 'Source Code Pro'; text-anchor: end" x="32.08" y="32.363437" transform="rotate(-0, 32.08, 32.363437)">36</text>
     </g>
    </g>
    <g id="text_7">
     <!-- $conc.\ (mg\ L^{-1})$ -->
     <g transform="translate(10.92 194.89125)rotate(-90)">
      <text>
       <tspan style="font: 12px 'Source Code Pro'" x="0 7.199997 14.399994 21.599991 28.799988 39.839959 47.039956 54.239953 63.839925 81.513316" y="-0.5609375000000014">conc.(mgL)</tspan>
       <tspan style="font: 8.4px 'Source Code Pro'" x="71.141914 76.181912" y="-4.640625000000001">−1</tspan>
      </text>
     </g>
    </g>
   </g>
   <g id="line2d_7">
    <path d="M 39.08 214.169686 
L 43.194286 214.113272 
L 47.308571 214.002742 
L 51.422857 213.840329 
L 55.537143 213.628206 
L 59.651429 213.368484 
L 63.765714 213.063218 
L 67.88 212.714409 
L 71.994286 212.324006 
L 76.108571 211.893907 
L 80.222857 211.425963 
L 84.337143 210.921981 
L 88.451429 210.383724 
L 92.565714 209.812912 
L 96.68 209.21123 
L 100.794286 208.580323 
L 104.908571 207.921802 
L 109.022857 207.237245 
L 113.137143 206.528199 
L 117.251429 205.796182 
L 121.365714 205.042683 
L 125.48 204.269168 
L 129.594286 203.477076 
L 133.708571 202.667825 
L 137.822857 201.842813 
L 141.937143 201.00342 
L 146.051429 200.151006 
L 150.165714 199.286918 
L 154.28 198.412488 
L 158.394286 197.529035 
L 162.508571 196.637868 
L 166.622857 195.740288 
L 170.737143 194.837585 
L 174.851429 193.931046 
L 178.965714 193.021952 
L 183.08 192.111582 
L 187.194286 191.201212 
L 191.308571 190.292118 
L 195.422857 189.385579 
L 199.537143 188.482876 
L 203.651429 187.585296 
L 207.765714 186.694129 
L 211.88 185.810676 
L 215.994286 184.936246 
L 220.108571 184.072158 
L 224.222857 183.219744 
L 228.337143 182.380351 
L 232.451429 181.555339 
L 236.565714 180.746088 
L 240.68 179.953996 
L 244.794286 179.180481 
L 248.908571 178.426982 
L 253.022857 177.694965 
L 257.137143 176.985919 
L 261.251429 176.301362 
L 265.365714 175.642841 
L 269.48 175.011934 
L 273.594286 174.410252 
L 277.708571 173.83944 
L 281.822857 173.301183 
L 285.937143 172.797201 
L 290.051429 172.329257 
L 294.165714 171.899158 
L 298.28 171.508755 
L 302.394286 171.159946 
L 306.508571 170.85468 
L 310.622857 170.594958 
L 314.737143 170.382835 
L 318.851429 170.220422 
L 322.965714 170.109892 
L 327.08 267.165859 
" clip-path="url(#pd5effb4f34)" style="fill: none; stroke: #000000; stroke-width: 3; stroke-linecap: square"/>
   </g>
   <g id="patch_3">
    <path d="M 39.08 272.89125 
L 39.08 28.09125 
" style="fill: none; stroke: #000000; stroke-linejoin: miter; stroke-linecap: square"/>
   </g>
   <g id="patch_4">
    <path d="M 327.08 272.89125 
L 327.08 28.09125 
" style="fill: none; stroke: #000000; stroke-linejoin: miter; stroke-linecap: square"/>
   </g>
   <g id="patch_5">
    <path d="M 39.08 272.89125 
L 327.08 272.89125 
" style="fill: none; stroke: #000000; stroke-linejoin: miter; stroke-linecap: square"/>
   </g>
   <g id="patch_6">
    <path d="M 39.08 28.09125 
L 327.08 28.09125 
" style="fill: none; stroke: #000000; stroke-linejoin: miter; stroke-linecap: square"/>
   </g>
   <g id="text_8">
    <g id="patch_7">
     <path d="M 55.651429 67.276406 
L 117.651429 67.276406 
L 117.651429 50.106094 
L 55.651429 50.106094 
z
" style="fill: #ffffff; opacity: 0.85; stroke: #000000; stroke-linejoin: miter"/>
    </g>
    <text style="font: 10px 'Source Code Pro'; text-anchor: start" x="59.651429" y="61.226406" transform="rotate(-0, 59.651429, 61.226406)">A (0 min)</text>
   </g>
  </g>
  <g id="axes_2">
   <g id="patch_8">
    <path d="M 327.08 272.89125 
L 615.08 272.89125 
L 615.08 28.09125 
L 327.08 28.09125 
z
" style="fill: #ffffff"/>
   </g>
   <g id="PolyCollection_3">
    <defs>
     <path id="m9df7020aeb" d="M 327.08 -338.794815 
L 327.08 -524.28875 
L 331.194286 -524.28875 
L 335.308571 -524.28875 
L 339.422857 -524.28875 
L 343.537143 -524.28875 
L 347.651429 -524.28875 
L 351.765714 -524.28875 
L 355.88 -524.28875 
L 359.994286 -524.28875 
L 364.108571 -524.28875 
L 368.222857 -524.28875 
L 372.337143 -524.28875 
L 376.451429 -524.28875 
L 380.565714 -524.28875 
L 384.68 -524.28875 
L 388.794286 -524.28875 
L 392.908571 -524.28875 
L 397.022857 -524.28875 
L 401.137143 -524.28875 
L 405.251429 -524.28875 
L 409.365714 -524.28875 
L 413.48 -524.28875 
L 417.594286 -524.28875 
L 421.708571 -524.28875 
L 425.822857 -524.28875 
L 429.937143 -524.28875 
L 434.051429 -524.28875 
L 438.165714 -524.28875 
L 442.28 -524.28875 
L 446.394286 -524.28875 
L 450.508571 -524.28875 
L 454.622857 -524.28875 
L 458.737143 -524.28875 
L 462.851429 -524.28875 
L 466.965714 -524.28875 
L 471.08 -524.28875 
L 475.194286 -524.28875 
L 479.308571 -524.28875 
L 483.422857 -524.28875 
L 487.537143 -524.28875 
L 491.651429 -524.28875 
L 495.765714 -524.28875 
L 499.88 -524.28875 
L 503.994286 -524.28875 
L 508.108571 -524.28875 
L 512.222857 -524.28875 
L 516.337143 -524.28875 
L 520.451429 -524.28875 
L 524.565714 -524.28875 
L 528.68 -524.28875 
L 532.794286 -524.28875 
L 536.908571 -524.28875 
L 541.022857 -524.28875 
L 545.137143 -524.28875 
L 549.251429 -524.28875 
L 553.365714 -524.28875 
L 557.48 -524.28875 
L 561.594286 -524.28875 
L 565.708571 -524.28875 
L 569.822857 -524.28875 
L 573.937143 -524.28875 
L 578.051429 -524.28875 
L 582.165714 -524.28875 
L 586.28 -524.28875 
L 590.394286 -524.28875 
L 594.508571 -524.28875 
L 598.622857 -524.28875 
L 602.737143 -524.28875 
L 606.851429 -524.28875 
L 610.965714 -524.28875 
L 615.08 -524.28875 
L 615.08 -514.003618 
L 615.08 -514.003618 
L 610.965714 -511.500635 
L 606.851429 -508.997652 
L 602.737143 -506.494669 
L 598.622857 -503.991686 
L 594.508571 -501.488703 
L 590.394286 -498.985721 
L 586.28 -496.482738 
L 582.165714 -493.979755 
L 578.051429 -491.476772 
L 573.937143 -488.973789 
L 569.822857 -486.470806 
L 565.708571 -483.967823 
L 561.594286 -481.46484 
L 557.48 -478.961857 
L 553.365714 -476.458874 
L 549.251429 -473.955892 
L 545.137143 -471.452909 
L 541.022857 -468.949926 
L 536.908571 -466.446943 
L 532.794286 -463.94396 
L 528.68 -461.440977 
L 524.565714 -458.937994 
L 520.451429 -456.435011 
L 516.337143 -453.932028 
L 512.222857 -451.429045 
L 508.108571 -448.926063 
L 503.994286 -446.42308 
L 499.88 -443.920097 
L 495.765714 -441.417114 
L 491.651429 -438.914131 
L 487.537143 -436.411148 
L 483.422857 -433.908165 
L 479.308571 -431.405182 
L 475.194286 -428.902199 
L 471.08 -426.399216 
L 466.965714 -423.896234 
L 462.851429 -421.393251 
L 458.737143 -418.890268 
L 454.622857 -416.387285 
L 450.508571 -413.884302 
L 446.394286 -411.381319 
L 442.28 -408.878336 
L 438.165714 -406.375353 
L 434.051429 -403.87237 
L 429.937143 -401.369387 
L 425.822857 -398.866405 
L 421.708571 -396.363422 
L 417.594286 -393.860439 
L 413.48 -391.357456 
L 409.365714 -388.854473 
L 405.251429 -386.35149 
L 401.137143 -383.848507 
L 397.022857 -381.345524 
L 392.908571 -378.842541 
L 388.794286 -376.339559 
L 384.68 -373.836576 
L 380.565714 -371.333593 
L 376.451429 -368.83061 
L 372.337143 -366.327627 
L 368.222857 -363.824644 
L 364.108571 -361.321661 
L 359.994286 -358.818678 
L 355.88 -356.315695 
L 351.765714 -353.812712 
L 347.651429 -351.30973 
L 343.537143 -348.806747 
L 339.422857 -346.303764 
L 335.308571 -343.800781 
L 331.194286 -341.297798 
L 327.08 -338.794815 
z
" style="stroke: #000000"/>
    </defs>
    <g clip-path="url(#p5940210696)">
     <use xlink:href="#m9df7020aeb" x="0" y="552.38" style="fill: #a0a0a0; stroke: #000000"/>
    </g>
   </g>
   <g id="PolyCollection_4">
    <defs>
     <path id="m04d13e497d" d="M 327.08 -285.214141 
L 327.08 -279.48875 
L 331.194286 -279.48875 
L 335.308571 -279.48875 
L 339.422857 -279.48875 
L 343.537143 -279.48875 
L 347.651429 -279.48875 
L 351.765714 -279.48875 
L 355.88 -279.48875 
L 359.994286 -279.48875 
L 364.108571 -279.48875 
L 368.222857 -279.48875 
L 372.337143 -279.48875 
L 376.451429 -279.48875 
L 380.565714 -279.48875 
L 384.68 -279.48875 
L 388.794286 -279.48875 
L 392.908571 -279.48875 
L 397.022857 -279.48875 
L 401.137143 -279.48875 
L 405.251429 -279.48875 
L 409.365714 -279.48875 
L 413.48 -279.48875 
L 417.594286 -279.48875 
L 421.708571 -279.48875 
L 425.822857 -279.48875 
L 429.937143 -279.48875 
L 434.051429 -279.48875 
L 438.165714 -279.48875 
L 442.28 -279.48875 
L 446.394286 -279.48875 
L 450.508571 -279.48875 
L 454.622857 -279.48875 
L 458.737143 -279.48875 
L 462.851429 -279.48875 
L 466.965714 -279.48875 
L 471.08 -279.48875 
L 475.194286 -279.48875 
L 479.308571 -279.48875 
L 483.422857 -279.48875 
L 487.537143 -279.48875 
L 491.651429 -279.48875 
L 495.765714 -279.48875 
L 499.88 -279.48875 
L 503.994286 -279.48875 
L 508.108571 -279.48875 
L 512.222857 -279.48875 
L 516.337143 -279.48875 
L 520.451429 -279.48875 
L 524.565714 -279.48875 
L 528.68 -279.48875 
L 532.794286 -279.48875 
L 536.908571 -279.48875 
L 541.022857 -279.48875 
L 545.137143 -279.48875 
L 549.251429 -279.48875 
L 553.365714 -279.48875 
L 557.48 -279.48875 
L 561.594286 -279.48875 
L 565.708571 -279.48875 
L 569.822857 -279.48875 
L 573.937143 -279.48875 
L 578.051429 -279.48875 
L 582.165714 -279.48875 
L 586.28 -279.48875 
L 590.394286 -279.48875 
L 594.508571 -279.48875 
L 598.622857 -279.48875 
L 602.737143 -279.48875 
L 606.851429 -279.48875 
L 610.965714 -279.48875 
L 615.08 -279.48875 
L 615.08 -423.629096 
L 615.08 -423.629096 
L 610.965714 -421.651739 
L 606.851429 -419.674383 
L 602.737143 -417.697026 
L 598.622857 -415.71967 
L 594.508571 -413.742313 
L 590.394286 -411.764957 
L 586.28 -409.7876 
L 582.165714 -407.810244 
L 578.051429 -405.832887 
L 573.937143 -403.855531 
L 569.822857 -401.878174 
L 565.708571 -399.900818 
L 561.594286 -397.923461 
L 557.48 -395.946105 
L 553.365714 -393.968748 
L 549.251429 -391.991392 
L 545.137143 -390.014035 
L 541.022857 -388.036679 
L 536.908571 -386.059322 
L 532.794286 -384.081966 
L 528.68 -382.104609 
L 524.565714 -380.127253 
L 520.451429 -378.149896 
L 516.337143 -376.17254 
L 512.222857 -374.195183 
L 508.108571 -372.217827 
L 503.994286 -370.24047 
L 499.88 -368.263114 
L 495.765714 -366.285757 
L 491.651429 -364.308401 
L 487.537143 -362.331044 
L 483.422857 -360.353688 
L 479.308571 -358.376331 
L 475.194286 -356.398975 
L 471.08 -354.421619 
L 466.965714 -352.444262 
L 462.851429 -350.466906 
L 458.737143 -348.489549 
L 454.622857 -346.512193 
L 450.508571 -344.534836 
L 446.394286 -342.55748 
L 442.28 -340.580123 
L 438.165714 -338.602767 
L 434.051429 -336.62541 
L 429.937143 -334.648054 
L 425.822857 -332.670697 
L 421.708571 -330.693341 
L 417.594286 -328.715984 
L 413.48 -326.738628 
L 409.365714 -324.761271 
L 405.251429 -322.783915 
L 401.137143 -320.806558 
L 397.022857 -318.829202 
L 392.908571 -316.851845 
L 388.794286 -314.874489 
L 384.68 -312.897132 
L 380.565714 -310.919776 
L 376.451429 -308.942419 
L 372.337143 -306.965063 
L 368.222857 -304.987706 
L 364.108571 -303.01035 
L 359.994286 -301.032993 
L 355.88 -299.055637 
L 351.765714 -297.07828 
L 347.651429 -295.100924 
L 343.537143 -293.123567 
L 339.422857 -291.146211 
L 335.308571 -289.168854 
L 331.194286 -287.191498 
L 327.08 -285.214141 
z
" style="stroke: #000000"/>
    </defs>
    <g clip-path="url(#p5940210696)">
     <use xlink:href="#m04d13e497d" x="0" y="552.38" style="fill: #00a6d6; stroke: #000000"/>
    </g>
   </g>
   <g id="matplotlib.axis_3">
    <g id="xtick_8"/>
    <g id="xtick_9"/>
    <g id="xtick_10"/>
    <g id="xtick_11"/>
    <g id="xtick_12"/>
    <g id="xtick_13"/>
    <g id="xtick_14"/>
    <g id="xtick_15"/>
   </g>
   <g id="matplotlib.axis_4">
    <g id="ytick_7"/>
    <g id="ytick_8"/>
    <g id="ytick_9"/>
    <g id="ytick_10"/>
    <g id="ytick_11"/>
   </g>
   <g id="line2d_8">
    <path d="M 327.08 210.943666 
L 331.194286 210.573725 
L 335.308571 210.081427 
L 339.422857 209.533326 
L 343.537143 208.947937 
L 347.651429 208.33106 
L 351.765714 207.68502 
L 355.88 207.010968 
L 359.994286 206.309315 
L 364.108571 205.579618 
L 368.222857 204.820249 
L 372.337143 204.027934 
L 376.451429 203.197214 
L 380.565714 202.319902 
L 384.68 201.384631 
L 388.794286 200.37666 
L 392.908571 199.278101 
L 397.022857 198.068705 
L 401.137143 196.727291 
L 405.251429 195.233727 
L 409.365714 193.571255 
L 413.48 191.728767 
L 417.594286 189.702607 
L 421.708571 187.497516 
L 425.822857 185.126596 
L 429.937143 182.610566 
L 434.051429 179.977294 
L 438.165714 177.263796 
L 442.28 174.525015 
L 446.394286 171.854663 
L 450.508571 169.407596 
L 454.622857 167.35823 
L 458.737143 165.763118 
L 462.851429 164.522234 
L 466.965714 163.494356 
L 471.08 162.57849 
L 475.194286 161.72051 
L 479.308571 160.895816 
L 483.422857 160.09466 
L 487.537143 159.314 
L 491.651429 158.553735 
L 495.765714 157.815218 
L 499.88 157.100906 
L 503.994286 156.414712 
L 508.108571 155.762995 
L 512.222857 155.156377 
L 516.337143 154.61268 
L 520.451429 154.161324 
L 524.565714 153.849364 
L 528.68 153.748949 
L 532.794286 153.965231 
L 536.908571 154.642645 
L 541.022857 155.966263 
L 545.137143 158.154089 
L 549.251429 161.436443 
L 553.365714 166.020741 
L 557.48 172.044347 
L 561.594286 179.524051 
L 565.708571 188.31604 
L 569.822857 198.102265 
L 573.937143 208.41508 
L 578.051429 218.70175 
L 582.165714 228.416474 
L 586.28 237.115852 
L 590.394286 244.530071 
L 594.508571 250.58952 
L 598.622857 255.402332 
L 602.737143 259.195539 
L 606.851429 262.243043 
L 610.965714 264.803572 
L 615.08 267.165859 
" clip-path="url(#p5940210696)" style="fill: none; stroke: #000000; stroke-width: 3; stroke-linecap: square"/>
   </g>
   <g id="patch_9">
    <path d="M 327.08 272.89125 
L 327.08 28.09125 
" style="fill: none; stroke: #000000; stroke-linejoin: miter; stroke-linecap: square"/>
   </g>
   <g id="patch_10">
    <path d="M 615.08 272.89125 
L 615.08 28.09125 
" style="fill: none; stroke: #000000; stroke-linejoin: miter; stroke-linecap: square"/>
   </g>
   <g id="patch_11">
    <path d="M 327.08 272.89125 
L 615.08 272.89125 
" style="fill: none; stroke: #000000; stroke-linejoin: miter; stroke-linecap: square"/>
   </g>
   <g id="patch_12">
    <path d="M 327.08 28.09125 
L 615.08 28.09125 
" style="fill: none; stroke: #000000; stroke-linejoin: miter; stroke-linecap: square"/>
   </g>
   <g id="text_9">
    <g id="patch_13">
     <path d="M 343.651429 67.276406 
L 411.651429 67.276406 
L 411.651429 50.106094 
L 343.651429 50.106094 
z
" style="fill: #ffffff; opacity: 0.85; stroke: #000000; stroke-linejoin: miter"/>
    </g>
    <text style="font: 10px 'Source Code Pro'; text-anchor: start" x="347.651429" y="61.226406" transform="rotate(-0, 347.651429, 61.226406)">B (15 min)</text>
   </g>
  </g>
  <g id="axes_3">
   <g id="patch_14">
    <path d="M 39.08 517.69125 
L 327.08 517.69125 
L 327.08 272.89125 
L 39.08 272.89125 
z
" style="fill: #ffffff"/>
   </g>
   <g id="PolyCollection_5">
    <defs>
     <path id="maa42cc65a9" d="M 39.08 -93.994815 
L 39.08 -279.48875 
L 43.194286 -279.48875 
L 47.308571 -279.48875 
L 51.422857 -279.48875 
L 55.537143 -279.48875 
L 59.651429 -279.48875 
L 63.765714 -279.48875 
L 67.88 -279.48875 
L 71.994286 -279.48875 
L 76.108571 -279.48875 
L 80.222857 -279.48875 
L 84.337143 -279.48875 
L 88.451429 -279.48875 
L 92.565714 -279.48875 
L 96.68 -279.48875 
L 100.794286 -279.48875 
L 104.908571 -279.48875 
L 109.022857 -279.48875 
L 113.137143 -279.48875 
L 117.251429 -279.48875 
L 121.365714 -279.48875 
L 125.48 -279.48875 
L 129.594286 -279.48875 
L 133.708571 -279.48875 
L 137.822857 -279.48875 
L 141.937143 -279.48875 
L 146.051429 -279.48875 
L 150.165714 -279.48875 
L 154.28 -279.48875 
L 158.394286 -279.48875 
L 162.508571 -279.48875 
L 166.622857 -279.48875 
L 170.737143 -279.48875 
L 174.851429 -279.48875 
L 178.965714 -279.48875 
L 183.08 -279.48875 
L 187.194286 -279.48875 
L 191.308571 -279.48875 
L 195.422857 -279.48875 
L 199.537143 -279.48875 
L 203.651429 -279.48875 
L 207.765714 -279.48875 
L 211.88 -279.48875 
L 215.994286 -279.48875 
L 220.108571 -279.48875 
L 224.222857 -279.48875 
L 228.337143 -279.48875 
L 232.451429 -279.48875 
L 236.565714 -279.48875 
L 240.68 -279.48875 
L 244.794286 -279.48875 
L 248.908571 -279.48875 
L 253.022857 -279.48875 
L 257.137143 -279.48875 
L 261.251429 -279.48875 
L 265.365714 -279.48875 
L 269.48 -279.48875 
L 273.594286 -279.48875 
L 277.708571 -279.48875 
L 281.822857 -279.48875 
L 285.937143 -279.48875 
L 290.051429 -279.48875 
L 294.165714 -279.48875 
L 298.28 -279.48875 
L 302.394286 -279.48875 
L 306.508571 -279.48875 
L 310.622857 -279.48875 
L 314.737143 -279.48875 
L 318.851429 -279.48875 
L 322.965714 -279.48875 
L 327.08 -279.48875 
L 327.08 -269.203618 
L 327.08 -269.203618 
L 322.965714 -266.700635 
L 318.851429 -264.197652 
L 314.737143 -261.694669 
L 310.622857 -259.191686 
L 306.508571 -256.688703 
L 302.394286 -254.185721 
L 298.28 -251.682738 
L 294.165714 -249.179755 
L 290.051429 -246.676772 
L 285.937143 -244.173789 
L 281.822857 -241.670806 
L 277.708571 -239.167823 
L 273.594286 -236.66484 
L 269.48 -234.161857 
L 265.365714 -231.658874 
L 261.251429 -229.155892 
L 257.137143 -226.652909 
L 253.022857 -224.149926 
L 248.908571 -221.646943 
L 244.794286 -219.14396 
L 240.68 -216.640977 
L 236.565714 -214.137994 
L 232.451429 -211.635011 
L 228.337143 -209.132028 
L 224.222857 -206.629045 
L 220.108571 -204.126063 
L 215.994286 -201.62308 
L 211.88 -199.120097 
L 207.765714 -196.617114 
L 203.651429 -194.114131 
L 199.537143 -191.611148 
L 195.422857 -189.108165 
L 191.308571 -186.605182 
L 187.194286 -184.102199 
L 183.08 -181.599216 
L 178.965714 -179.096234 
L 174.851429 -176.593251 
L 170.737143 -174.090268 
L 166.622857 -171.587285 
L 162.508571 -169.084302 
L 158.394286 -166.581319 
L 154.28 -164.078336 
L 150.165714 -161.575353 
L 146.051429 -159.07237 
L 141.937143 -156.569387 
L 137.822857 -154.066405 
L 133.708571 -151.563422 
L 129.594286 -149.060439 
L 125.48 -146.557456 
L 121.365714 -144.054473 
L 117.251429 -141.55149 
L 113.137143 -139.048507 
L 109.022857 -136.545524 
L 104.908571 -134.042541 
L 100.794286 -131.539559 
L 96.68 -129.036576 
L 92.565714 -126.533593 
L 88.451429 -124.03061 
L 84.337143 -121.527627 
L 80.222857 -119.024644 
L 76.108571 -116.521661 
L 71.994286 -114.018678 
L 67.88 -111.515695 
L 63.765714 -109.012712 
L 59.651429 -106.50973 
L 55.537143 -104.006747 
L 51.422857 -101.503764 
L 47.308571 -99.000781 
L 43.194286 -96.497798 
L 39.08 -93.994815 
z
" style="stroke: #000000"/>
    </defs>
    <g clip-path="url(#p6db73cfd4f)">
     <use xlink:href="#maa42cc65a9" x="0" y="552.38" style="fill: #a0a0a0; stroke: #000000"/>
    </g>
   </g>
   <g id="PolyCollection_6">
    <defs>
     <path id="maeff35327a" d="M 39.08 -40.414141 
L 39.08 -34.68875 
L 43.194286 -34.68875 
L 47.308571 -34.68875 
L 51.422857 -34.68875 
L 55.537143 -34.68875 
L 59.651429 -34.68875 
L 63.765714 -34.68875 
L 67.88 -34.68875 
L 71.994286 -34.68875 
L 76.108571 -34.68875 
L 80.222857 -34.68875 
L 84.337143 -34.68875 
L 88.451429 -34.68875 
L 92.565714 -34.68875 
L 96.68 -34.68875 
L 100.794286 -34.68875 
L 104.908571 -34.68875 
L 109.022857 -34.68875 
L 113.137143 -34.68875 
L 117.251429 -34.68875 
L 121.365714 -34.68875 
L 125.48 -34.68875 
L 129.594286 -34.68875 
L 133.708571 -34.68875 
L 137.822857 -34.68875 
L 141.937143 -34.68875 
L 146.051429 -34.68875 
L 150.165714 -34.68875 
L 154.28 -34.68875 
L 158.394286 -34.68875 
L 162.508571 -34.68875 
L 166.622857 -34.68875 
L 170.737143 -34.68875 
L 174.851429 -34.68875 
L 178.965714 -34.68875 
L 183.08 -34.68875 
L 187.194286 -34.68875 
L 191.308571 -34.68875 
L 195.422857 -34.68875 
L 199.537143 -34.68875 
L 203.651429 -34.68875 
L 207.765714 -34.68875 
L 211.88 -34.68875 
L 215.994286 -34.68875 
L 220.108571 -34.68875 
L 224.222857 -34.68875 
L 228.337143 -34.68875 
L 232.451429 -34.68875 
L 236.565714 -34.68875 
L 240.68 -34.68875 
L 244.794286 -34.68875 
L 248.908571 -34.68875 
L 253.022857 -34.68875 
L 257.137143 -34.68875 
L 261.251429 -34.68875 
L 265.365714 -34.68875 
L 269.48 -34.68875 
L 273.594286 -34.68875 
L 277.708571 -34.68875 
L 281.822857 -34.68875 
L 285.937143 -34.68875 
L 290.051429 -34.68875 
L 294.165714 -34.68875 
L 298.28 -34.68875 
L 302.394286 -34.68875 
L 306.508571 -34.68875 
L 310.622857 -34.68875 
L 314.737143 -34.68875 
L 318.851429 -34.68875 
L 322.965714 -34.68875 
L 327.08 -34.68875 
L 327.08 -178.829096 
L 327.08 -178.829096 
L 322.965714 -176.851739 
L 318.851429 -174.874383 
L 314.737143 -172.897026 
L 310.622857 -170.91967 
L 306.508571 -168.942313 
L 302.394286 -166.964957 
L 298.28 -164.9876 
L 294.165714 -163.010244 
L 290.051429 -161.032887 
L 285.937143 -159.055531 
L 281.822857 -157.078174 
L 277.708571 -155.100818 
L 273.594286 -153.123461 
L 269.48 -151.146105 
L 265.365714 -149.168748 
L 261.251429 -147.191392 
L 257.137143 -145.214035 
L 253.022857 -143.236679 
L 248.908571 -141.259322 
L 244.794286 -139.281966 
L 240.68 -137.304609 
L 236.565714 -135.327253 
L 232.451429 -133.349896 
L 228.337143 -131.37254 
L 224.222857 -129.395183 
L 220.108571 -127.417827 
L 215.994286 -125.44047 
L 211.88 -123.463114 
L 207.765714 -121.485757 
L 203.651429 -119.508401 
L 199.537143 -117.531044 
L 195.422857 -115.553688 
L 191.308571 -113.576331 
L 187.194286 -111.598975 
L 183.08 -109.621619 
L 178.965714 -107.644262 
L 174.851429 -105.666906 
L 170.737143 -103.689549 
L 166.622857 -101.712193 
L 162.508571 -99.734836 
L 158.394286 -97.75748 
L 154.28 -95.780123 
L 150.165714 -93.802767 
L 146.051429 -91.82541 
L 141.937143 -89.848054 
L 137.822857 -87.870697 
L 133.708571 -85.893341 
L 129.594286 -83.915984 
L 125.48 -81.938628 
L 121.365714 -79.961271 
L 117.251429 -77.983915 
L 113.137143 -76.006558 
L 109.022857 -74.029202 
L 104.908571 -72.051845 
L 100.794286 -70.074489 
L 96.68 -68.097132 
L 92.565714 -66.119776 
L 88.451429 -64.142419 
L 84.337143 -62.165063 
L 80.222857 -60.187706 
L 76.108571 -58.21035 
L 71.994286 -56.232993 
L 67.88 -54.255637 
L 63.765714 -52.27828 
L 59.651429 -50.300924 
L 55.537143 -48.323567 
L 51.422857 -46.346211 
L 47.308571 -44.368854 
L 43.194286 -42.391498 
L 39.08 -40.414141 
z
" style="stroke: #000000"/>
    </defs>
    <g clip-path="url(#p6db73cfd4f)">
     <use xlink:href="#maeff35327a" x="0" y="552.38" style="fill: #00a6d6; stroke: #000000"/>
    </g>
   </g>
   <g id="matplotlib.axis_5">
    <g id="xtick_16">
     <g id="line2d_9">
      <defs>
       <path id="ma708a3b492" d="M 0 0 
L 0 3.5 
" style="stroke: #000000"/>
      </defs>
      <g>
       <use xlink:href="#ma708a3b492" x="39.08" y="517.69125" style="stroke: #000000"/>
      </g>
     </g>
     <g id="text_10">
      <text style="font: 12px 'Source Code Pro'; text-anchor: middle" x="39.08" y="533.235625" transform="rotate(-0, 39.08, 533.235625)">0</text>
     </g>
    </g>
    <g id="xtick_17">
     <g id="line2d_10">
      <g>
       <use xlink:href="#ma708a3b492" x="80.222857" y="517.69125" style="stroke: #000000"/>
      </g>
     </g>
     <g id="text_11">
      <text style="font: 12px 'Source Code Pro'; text-anchor: middle" x="80.222857" y="533.235625" transform="rotate(-0, 80.222857, 533.235625)">1</text>
     </g>
    </g>
    <g id="xtick_18">
     <g id="line2d_11">
      <g>
       <use xlink:href="#ma708a3b492" x="121.365714" y="517.69125" style="stroke: #000000"/>
      </g>
     </g>
     <g id="text_12">
      <text style="font: 12px 'Source Code Pro'; text-anchor: middle" x="121.365714" y="533.235625" transform="rotate(-0, 121.365714, 533.235625)">2</text>
     </g>
    </g>
    <g id="xtick_19">
     <g id="line2d_12">
      <g>
       <use xlink:href="#ma708a3b492" x="162.508571" y="517.69125" style="stroke: #000000"/>
      </g>
     </g>
     <g id="text_13">
      <text style="font: 12px 'Source Code Pro'; text-anchor: middle" x="162.508571" y="533.235625" transform="rotate(-0, 162.508571, 533.235625)">3</text>
     </g>
    </g>
    <g id="xtick_20">
     <g id="line2d_13">
      <g>
       <use xlink:href="#ma708a3b492" x="203.651429" y="517.69125" style="stroke: #000000"/>
      </g>
     </g>
     <g id="text_14">
      <text style="font: 12px 'Source Code Pro'; text-anchor: middle" x="203.651429" y="533.235625" transform="rotate(-0, 203.651429, 533.235625)">4</text>
     </g>
    </g>
    <g id="xtick_21">
     <g id="line2d_14">
      <g>
       <use xlink:href="#ma708a3b492" x="244.794286" y="517.69125" style="stroke: #000000"/>
      </g>
     </g>
     <g id="text_15">
      <text style="font: 12px 'Source Code Pro'; text-anchor: middle" x="244.794286" y="533.235625" transform="rotate(-0, 244.794286, 533.235625)">5</text>
     </g>
    </g>
    <g id="xtick_22">
     <g id="line2d_15">
      <g>
       <use xlink:href="#ma708a3b492" x="285.937143" y="517.69125" style="stroke: #000000"/>
      </g>
     </g>
     <g id="text_16">
      <text style="font: 12px 'Source Code Pro'; text-anchor: middle" x="285.937143" y="533.235625" transform="rotate(-0, 285.937143, 533.235625)">6</text>
     </g>
    </g>
    <g id="text_17">
     <text style="font: 12px 'Source Code Pro'; text-anchor: middle" x="183.08" y="548.48" transform="rotate(-0, 183.08, 548.48)">reactor depth (m)</text>
    </g>
   </g>
   <g id="matplotlib.axis_6">
    <g id="ytick_12">
     <g id="line2d_16">
      <g>
       <use xlink:href="#m780ad59fce" x="39.08" y="517.69125" style="stroke: #000000"/>
      </g>
     </g>
     <g id="text_18">
      <text style="font: 12px 'Source Code Pro'; text-anchor: end" x="32.08" y="521.963437" transform="rotate(-0, 32.08, 521.963437)">16</text>
     </g>
    </g>
    <g id="ytick_13">
     <g id="line2d_17">
      <g>
       <use xlink:href="#m780ad59fce" x="39.08" y="468.73125" style="stroke: #000000"/>
      </g>
     </g>
     <g id="text_19">
      <text style="font: 12px 'Source Code Pro'; text-anchor: end" x="32.08" y="473.003437" transform="rotate(-0, 32.08, 473.003437)">20</text>
     </g>
    </g>
    <g id="ytick_14">
     <g id="line2d_18">
      <g>
       <use xlink:href="#m780ad59fce" x="39.08" y="419.77125" style="stroke: #000000"/>
      </g>
     </g>
     <g id="text_20">
      <text style="font: 12px 'Source Code Pro'; text-anchor: end" x="32.08" y="424.043437" transform="rotate(-0, 32.08, 424.043437)">24</text>
     </g>
    </g>
    <g id="ytick_15">
     <g id="line2d_19">
      <g>
       <use xlink:href="#m780ad59fce" x="39.08" y="370.81125" style="stroke: #000000"/>
      </g>
     </g>
     <g id="text_21">
      <text style="font: 12px 'Source Code Pro'; text-anchor: end" x="32.08" y="375.083437" transform="rotate(-0, 32.08, 375.083437)">28</text>
     </g>
    </g>
    <g id="ytick_16">
     <g id="line2d_20">
      <g>
       <use xlink:href="#m780ad59fce" x="39.08" y="321.85125" style="stroke: #000000"/>
      </g>
     </g>
     <g id="text_22">
      <text style="font: 12px 'Source Code Pro'; text-anchor: end" x="32.08" y="326.123437" transform="rotate(-0, 32.08, 326.123437)">32</text>
     </g>
    </g>
    <g id="text_23">
     <!-- $conc.\ (mg\ L^{-1})$ -->
     <g transform="translate(10.92 439.69125)rotate(-90)">
      <text>
       <tspan style="font: 12px 'Source Code Pro'" x="0 7.199997 14.399994 21.599991 28.799988 39.839959 47.039956 54.239953 63.839925 81.513316" y="-0.5609375000000014">conc.(mgL)</tspan>
       <tspan style="font: 8.4px 'Source Code Pro'" x="71.141914 76.181912" y="-4.640625000000001">−1</tspan>
      </text>
     </g>
    </g>
   </g>
   <g id="line2d_21">
    <path d="M 39.08 448.933352 
L 43.194286 448.295494 
L 47.308571 447.44219 
L 51.422857 446.480818 
L 55.537143 445.433135 
L 59.651429 444.29718 
L 63.765714 443.064324 
L 67.88 441.724335 
L 71.994286 440.267249 
L 76.108571 438.684409 
L 80.222857 436.969226 
L 84.337143 435.117795 
L 88.451429 433.129314 
L 92.565714 431.006291 
L 96.68 428.754496 
L 100.794286 426.382666 
L 104.908571 423.901994 
L 109.022857 421.325464 
L 113.137143 418.667111 
L 117.251429 415.941273 
L 121.365714 413.16194 
L 125.48 410.342228 
L 129.594286 407.494059 
L 133.708571 404.628067 
L 137.822857 401.753844 
L 141.937143 398.880749 
L 146.051429 396.019956 
L 150.165714 393.189458 
L 154.28 390.425816 
L 158.394286 387.80755 
L 162.508571 385.479463 
L 166.622857 383.612402 
L 170.737143 382.266822 
L 174.851429 381.354872 
L 178.965714 380.756605 
L 183.08 380.4023 
L 187.194286 380.279948 
L 191.308571 380.418446 
L 195.422857 380.872738 
L 199.537143 381.714342 
L 203.651429 383.024643 
L 207.765714 384.888525 
L 211.88 387.3871 
L 215.994286 390.589213 
L 220.108571 394.542203 
L 224.222857 399.262872 
L 228.337143 404.729981 
L 232.451429 410.879707 
L 236.565714 417.605268 
L 240.68 424.761478 
L 244.794286 432.1742 
L 248.908571 439.653857 
L 253.022857 447.011333 
L 257.137143 454.074099 
L 261.251429 460.700245 
L 265.365714 466.788461 
L 269.48 472.282712 
L 273.594286 477.171337 
L 277.708571 481.481258 
L 281.822857 485.268733 
L 285.937143 488.608474 
L 290.051429 491.582966 
L 294.165714 494.273394 
L 298.28 496.75307 
L 302.394286 499.083605 
L 306.508571 501.313551 
L 310.622857 503.478947 
L 314.737143 505.605032 
L 318.851429 507.708498 
L 322.965714 509.799748 
L 327.08 511.965859 
" clip-path="url(#p6db73cfd4f)" style="fill: none; stroke: #000000; stroke-width: 3; stroke-linecap: square"/>
   </g>
   <g id="patch_15">
    <path d="M 39.08 517.69125 
L 39.08 272.89125 
" style="fill: none; stroke: #000000; stroke-linejoin: miter; stroke-linecap: square"/>
   </g>
   <g id="patch_16">
    <path d="M 327.08 517.69125 
L 327.08 272.89125 
" style="fill: none; stroke: #000000; stroke-linejoin: miter; stroke-linecap: square"/>
   </g>
   <g id="patch_17">
    <path d="M 39.08 517.69125 
L 327.08 517.69125 
" style="fill: none; stroke: #000000; stroke-linejoin: miter; stroke-linecap: square"/>
   </g>
   <g id="patch_18">
    <path d="M 39.08 272.89125 
L 327.08 272.89125 
" style="fill: none; stroke: #000000; stroke-linejoin: miter; stroke-linecap: square"/>
   </g>
   <g id="text_24">
    <g id="patch_19">
     <path d="M 55.651429 312.076406 
L 123.651429 312.076406 
L 123.651429 294.906094 
L 55.651429 294.906094 
z
" style="fill: #ffffff; opacity: 0.85; stroke: #000000; stroke-linejoin: miter"/>
    </g>
    <text style="font: 10px 'Source Code Pro'; text-anchor: start" x="59.651429" y="306.026406" transform="rotate(-0, 59.651429, 306.026406)">C (30 min)</text>
   </g>
  </g>
  <g id="axes_4">
   <g id="patch_20">
    <path d="M 327.08 517.69125 
L 615.08 517.69125 
L 615.08 272.89125 
L 327.08 272.89125 
z
" style="fill: #ffffff"/>
   </g>
   <g id="PolyCollection_7">
    <defs>
     <path id="me061cdd854" d="M 327.08 -93.994815 
L 327.08 -279.48875 
L 331.194286 -279.48875 
L 335.308571 -279.48875 
L 339.422857 -279.48875 
L 343.537143 -279.48875 
L 347.651429 -279.48875 
L 351.765714 -279.48875 
L 355.88 -279.48875 
L 359.994286 -279.48875 
L 364.108571 -279.48875 
L 368.222857 -279.48875 
L 372.337143 -279.48875 
L 376.451429 -279.48875 
L 380.565714 -279.48875 
L 384.68 -279.48875 
L 388.794286 -279.48875 
L 392.908571 -279.48875 
L 397.022857 -279.48875 
L 401.137143 -279.48875 
L 405.251429 -279.48875 
L 409.365714 -279.48875 
L 413.48 -279.48875 
L 417.594286 -279.48875 
L 421.708571 -279.48875 
L 425.822857 -279.48875 
L 429.937143 -279.48875 
L 434.051429 -279.48875 
L 438.165714 -279.48875 
L 442.28 -279.48875 
L 446.394286 -279.48875 
L 450.508571 -279.48875 
L 454.622857 -279.48875 
L 458.737143 -279.48875 
L 462.851429 -279.48875 
L 466.965714 -279.48875 
L 471.08 -279.48875 
L 475.194286 -279.48875 
L 479.308571 -279.48875 
L 483.422857 -279.48875 
L 487.537143 -279.48875 
L 491.651429 -279.48875 
L 495.765714 -279.48875 
L 499.88 -279.48875 
L 503.994286 -279.48875 
L 508.108571 -279.48875 
L 512.222857 -279.48875 
L 516.337143 -279.48875 
L 520.451429 -279.48875 
L 524.565714 -279.48875 
L 528.68 -279.48875 
L 532.794286 -279.48875 
L 536.908571 -279.48875 
L 541.022857 -279.48875 
L 545.137143 -279.48875 
L 549.251429 -279.48875 
L 553.365714 -279.48875 
L 557.48 -279.48875 
L 561.594286 -279.48875 
L 565.708571 -279.48875 
L 569.822857 -279.48875 
L 573.937143 -279.48875 
L 578.051429 -279.48875 
L 582.165714 -279.48875 
L 586.28 -279.48875 
L 590.394286 -279.48875 
L 594.508571 -279.48875 
L 598.622857 -279.48875 
L 602.737143 -279.48875 
L 606.851429 -279.48875 
L 610.965714 -279.48875 
L 615.08 -279.48875 
L 615.08 -269.203618 
L 615.08 -269.203618 
L 610.965714 -266.700635 
L 606.851429 -264.197652 
L 602.737143 -261.694669 
L 598.622857 -259.191686 
L 594.508571 -256.688703 
L 590.394286 -254.185721 
L 586.28 -251.682738 
L 582.165714 -249.179755 
L 578.051429 -246.676772 
L 573.937143 -244.173789 
L 569.822857 -241.670806 
L 565.708571 -239.167823 
L 561.594286 -236.66484 
L 557.48 -234.161857 
L 553.365714 -231.658874 
L 549.251429 -229.155892 
L 545.137143 -226.652909 
L 541.022857 -224.149926 
L 536.908571 -221.646943 
L 532.794286 -219.14396 
L 528.68 -216.640977 
L 524.565714 -214.137994 
L 520.451429 -211.635011 
L 516.337143 -209.132028 
L 512.222857 -206.629045 
L 508.108571 -204.126063 
L 503.994286 -201.62308 
L 499.88 -199.120097 
L 495.765714 -196.617114 
L 491.651429 -194.114131 
L 487.537143 -191.611148 
L 483.422857 -189.108165 
L 479.308571 -186.605182 
L 475.194286 -184.102199 
L 471.08 -181.599216 
L 466.965714 -179.096234 
L 462.851429 -176.593251 
L 458.737143 -174.090268 
L 454.622857 -171.587285 
L 450.508571 -169.084302 
L 446.394286 -166.581319 
L 442.28 -164.078336 
L 438.165714 -161.575353 
L 434.051429 -159.07237 
L 429.937143 -156.569387 
L 425.822857 -154.066405 
L 421.708571 -151.563422 
L 417.594286 -149.060439 
L 413.48 -146.557456 
L 409.365714 -144.054473 
L 405.251429 -141.55149 
L 401.137143 -139.048507 
L 397.022857 -136.545524 
L 392.908571 -134.042541 
L 388.794286 -131.539559 
L 384.68 -129.036576 
L 380.565714 -126.533593 
L 376.451429 -124.03061 
L 372.337143 -121.527627 
L 368.222857 -119.024644 
L 364.108571 -116.521661 
L 359.994286 -114.018678 
L 355.88 -111.515695 
L 351.765714 -109.012712 
L 347.651429 -106.50973 
L 343.537143 -104.006747 
L 339.422857 -101.503764 
L 335.308571 -99.000781 
L 331.194286 -96.497798 
L 327.08 -93.994815 
z
" style="stroke: #000000"/>
    </defs>
    <g clip-path="url(#p9d2011ad38)">
     <use xlink:href="#me061cdd854" x="0" y="552.38" style="fill: #a0a0a0; stroke: #000000"/>
    </g>
   </g>
   <g id="PolyCollection_8">
    <defs>
     <path id="m4f312f101e" d="M 327.08 -40.414141 
L 327.08 -34.68875 
L 331.194286 -34.68875 
L 335.308571 -34.68875 
L 339.422857 -34.68875 
L 343.537143 -34.68875 
L 347.651429 -34.68875 
L 351.765714 -34.68875 
L 355.88 -34.68875 
L 359.994286 -34.68875 
L 364.108571 -34.68875 
L 368.222857 -34.68875 
L 372.337143 -34.68875 
L 376.451429 -34.68875 
L 380.565714 -34.68875 
L 384.68 -34.68875 
L 388.794286 -34.68875 
L 392.908571 -34.68875 
L 397.022857 -34.68875 
L 401.137143 -34.68875 
L 405.251429 -34.68875 
L 409.365714 -34.68875 
L 413.48 -34.68875 
L 417.594286 -34.68875 
L 421.708571 -34.68875 
L 425.822857 -34.68875 
L 429.937143 -34.68875 
L 434.051429 -34.68875 
L 438.165714 -34.68875 
L 442.28 -34.68875 
L 446.394286 -34.68875 
L 450.508571 -34.68875 
L 454.622857 -34.68875 
L 458.737143 -34.68875 
L 462.851429 -34.68875 
L 466.965714 -34.68875 
L 471.08 -34.68875 
L 475.194286 -34.68875 
L 479.308571 -34.68875 
L 483.422857 -34.68875 
L 487.537143 -34.68875 
L 491.651429 -34.68875 
L 495.765714 -34.68875 
L 499.88 -34.68875 
L 503.994286 -34.68875 
L 508.108571 -34.68875 
L 512.222857 -34.68875 
L 516.337143 -34.68875 
L 520.451429 -34.68875 
L 524.565714 -34.68875 
L 528.68 -34.68875 
L 532.794286 -34.68875 
L 536.908571 -34.68875 
L 541.022857 -34.68875 
L 545.137143 -34.68875 
L 549.251429 -34.68875 
L 553.365714 -34.68875 
L 557.48 -34.68875 
L 561.594286 -34.68875 
L 565.708571 -34.68875 
L 569.822857 -34.68875 
L 573.937143 -34.68875 
L 578.051429 -34.68875 
L 582.165714 -34.68875 
L 586.28 -34.68875 
L 590.394286 -34.68875 
L 594.508571 -34.68875 
L 598.622857 -34.68875 
L 602.737143 -34.68875 
L 606.851429 -34.68875 
L 610.965714 -34.68875 
L 615.08 -34.68875 
L 615.08 -178.829096 
L 615.08 -178.829096 
L 610.965714 -176.851739 
L 606.851429 -174.874383 
L 602.737143 -172.897026 
L 598.622857 -170.91967 
L 594.508571 -168.942313 
L 590.394286 -166.964957 
L 586.28 -164.9876 
L 582.165714 -163.010244 
L 578.051429 -161.032887 
L 573.937143 -159.055531 
L 569.822857 -157.078174 
L 565.708571 -155.100818 
L 561.594286 -153.123461 
L 557.48 -151.146105 
L 553.365714 -149.168748 
L 549.251429 -147.191392 
L 545.137143 -145.214035 
L 541.022857 -143.236679 
L 536.908571 -141.259322 
L 532.794286 -139.281966 
L 528.68 -137.304609 
L 524.565714 -135.327253 
L 520.451429 -133.349896 
L 516.337143 -131.37254 
L 512.222857 -129.395183 
L 508.108571 -127.417827 
L 503.994286 -125.44047 
L 499.88 -123.463114 
L 495.765714 -121.485757 
L 491.651429 -119.508401 
L 487.537143 -117.531044 
L 483.422857 -115.553688 
L 479.308571 -113.576331 
L 475.194286 -111.598975 
L 471.08 -109.621619 
L 466.965714 -107.644262 
L 462.851429 -105.666906 
L 458.737143 -103.689549 
L 454.622857 -101.712193 
L 450.508571 -99.734836 
L 446.394286 -97.75748 
L 442.28 -95.780123 
L 438.165714 -93.802767 
L 434.051429 -91.82541 
L 429.937143 -89.848054 
L 425.822857 -87.870697 
L 421.708571 -85.893341 
L 417.594286 -83.915984 
L 413.48 -81.938628 
L 409.365714 -79.961271 
L 405.251429 -77.983915 
L 401.137143 -76.006558 
L 397.022857 -74.029202 
L 392.908571 -72.051845 
L 388.794286 -70.074489 
L 384.68 -68.097132 
L 380.565714 -66.119776 
L 376.451429 -64.142419 
L 372.337143 -62.165063 
L 368.222857 -60.187706 
L 364.108571 -58.21035 
L 359.994286 -56.232993 
L 355.88 -54.255637 
L 351.765714 -52.27828 
L 347.651429 -50.300924 
L 343.537143 -48.323567 
L 339.422857 -46.346211 
L 335.308571 -44.368854 
L 331.194286 -42.391498 
L 327.08 -40.414141 
z
" style="stroke: #000000"/>
    </defs>
    <g clip-path="url(#p9d2011ad38)">
     <use xlink:href="#m4f312f101e" x="0" y="552.38" style="fill: #00a6d6; stroke: #000000"/>
    </g>
   </g>
   <g id="matplotlib.axis_7">
    <g id="xtick_23">
     <g id="line2d_22">
      <g>
       <use xlink:href="#ma708a3b492" x="327.08" y="517.69125" style="stroke: #000000"/>
      </g>
     </g>
     <g id="text_25">
      <text style="font: 12px 'Source Code Pro'; text-anchor: middle" x="327.08" y="533.235625" transform="rotate(-0, 327.08, 533.235625)">0</text>
     </g>
    </g>
    <g id="xtick_24">
     <g id="line2d_23">
      <g>
       <use xlink:href="#ma708a3b492" x="368.222857" y="517.69125" style="stroke: #000000"/>
      </g>
     </g>
     <g id="text_26">
      <text style="font: 12px 'Source Code Pro'; text-anchor: middle" x="368.222857" y="533.235625" transform="rotate(-0, 368.222857, 533.235625)">1</text>
     </g>
    </g>
    <g id="xtick_25">
     <g id="line2d_24">
      <g>
       <use xlink:href="#ma708a3b492" x="409.365714" y="517.69125" style="stroke: #000000"/>
      </g>
     </g>
     <g id="text_27">
      <text style="font: 12px 'Source Code Pro'; text-anchor: middle" x="409.365714" y="533.235625" transform="rotate(-0, 409.365714, 533.235625)">2</text>
     </g>
    </g>
    <g id="xtick_26">
     <g id="line2d_25">
      <g>
       <use xlink:href="#ma708a3b492" x="450.508571" y="517.69125" style="stroke: #000000"/>
      </g>
     </g>
     <g id="text_28">
      <text style="font: 12px 'Source Code Pro'; text-anchor: middle" x="450.508571" y="533.235625" transform="rotate(-0, 450.508571, 533.235625)">3</text>
     </g>
    </g>
    <g id="xtick_27">
     <g id="line2d_26">
      <g>
       <use xlink:href="#ma708a3b492" x="491.651429" y="517.69125" style="stroke: #000000"/>
      </g>
     </g>
     <g id="text_29">
      <text style="font: 12px 'Source Code Pro'; text-anchor: middle" x="491.651429" y="533.235625" transform="rotate(-0, 491.651429, 533.235625)">4</text>
     </g>
    </g>
    <g id="xtick_28">
     <g id="line2d_27">
      <g>
       <use xlink:href="#ma708a3b492" x="532.794286" y="517.69125" style="stroke: #000000"/>
      </g>
     </g>
     <g id="text_30">
      <text style="font: 12px 'Source Code Pro'; text-anchor: middle" x="532.794286" y="533.235625" transform="rotate(-0, 532.794286, 533.235625)">5</text>
     </g>
    </g>
    <g id="xtick_29">
     <g id="line2d_28">
      <g>
       <use xlink:href="#ma708a3b492" x="573.937143" y="517.69125" style="stroke: #000000"/>
      </g>
     </g>
     <g id="text_31">
      <text style="font: 12px 'Source Code Pro'; text-anchor: middle" x="573.937143" y="533.235625" transform="rotate(-0, 573.937143, 533.235625)">6</text>
     </g>
    </g>
    <g id="xtick_30">
     <g id="line2d_29">
      <g>
       <use xlink:href="#ma708a3b492" x="615.08" y="517.69125" style="stroke: #000000"/>
      </g>
     </g>
     <g id="text_32">
      <text style="font: 12px 'Source Code Pro'; text-anchor: middle" x="615.08" y="533.235625" transform="rotate(-0, 615.08, 533.235625)">7</text>
     </g>
    </g>
    <g id="text_33">
     <text style="font: 12px 'Source Code Pro'; text-anchor: middle" x="471.08" y="548.48" transform="rotate(-0, 471.08, 548.48)">reactor depth (m)</text>
    </g>
   </g>
   <g id="matplotlib.axis_8">
    <g id="ytick_17"/>
    <g id="ytick_18"/>
    <g id="ytick_19"/>
    <g id="ytick_20"/>
    <g id="ytick_21"/>
   </g>
   <g id="line2d_30">
    <path d="M 327.08 428.147454 
L 331.194286 426.514809 
L 335.308571 424.369749 
L 339.422857 422.02251 
L 343.537143 419.563341 
L 347.651429 417.023406 
L 351.765714 414.418335 
L 355.88 411.759856 
L 359.994286 409.058822 
L 364.108571 406.325962 
L 368.222857 403.572097 
L 372.337143 400.808279 
L 376.451429 398.04599 
L 380.565714 395.297435 
L 384.68 392.575927 
L 388.794286 389.896348 
L 392.908571 387.275669 
L 397.022857 384.73348 
L 401.137143 382.292493 
L 405.251429 379.978949 
L 409.365714 377.82287 
L 413.48 375.858079 
L 417.594286 374.121928 
L 421.708571 372.654704 
L 425.822857 371.498758 
L 429.937143 370.697596 
L 434.051429 370.295651 
L 438.165714 370.340518 
L 442.28 370.891606 
L 446.394286 372.040229 
L 450.508571 373.930649 
L 454.622857 376.7168 
L 458.737143 380.423238 
L 462.851429 384.905302 
L 466.965714 389.964256 
L 471.08 395.42959 
L 475.194286 401.167692 
L 479.308571 407.06757 
L 483.422857 413.029993 
L 487.537143 418.963542 
L 491.651429 424.785008 
L 495.765714 430.421572 
L 499.88 435.813243 
L 503.994286 440.914713 
L 508.108571 445.696262 
L 512.222857 450.1436 
L 516.337143 454.256704 
L 520.451429 458.047853 
L 524.565714 461.539102 
L 528.68 464.759482 
L 532.794286 467.742211 
L 536.908571 470.522127 
L 541.022857 473.133538 
L 545.137143 475.608556 
L 549.251429 477.975975 
L 553.365714 480.260645 
L 557.48 482.483262 
L 561.594286 484.660513 
L 565.708571 486.805427 
L 569.822857 488.927875 
L 573.937143 491.035117 
L 578.051429 493.132335 
L 582.165714 495.223122 
L 586.28 497.309897 
L 590.394286 499.394243 
L 594.508571 501.477161 
L 598.622857 503.559267 
L 602.737143 505.640929 
L 606.851429 507.722357 
L 610.965714 509.803667 
L 615.08 511.965859 
" clip-path="url(#p9d2011ad38)" style="fill: none; stroke: #000000; stroke-width: 3; stroke-linecap: square"/>
   </g>
   <g id="patch_21">
    <path d="M 327.08 517.69125 
L 327.08 272.89125 
" style="fill: none; stroke: #000000; stroke-linejoin: miter; stroke-linecap: square"/>
   </g>
   <g id="patch_22">
    <path d="M 615.08 517.69125 
L 615.08 272.89125 
" style="fill: none; stroke: #000000; stroke-linejoin: miter; stroke-linecap: square"/>
   </g>
   <g id="patch_23">
    <path d="M 327.08 517.69125 
L 615.08 517.69125 
" style="fill: none; stroke: #000000; stroke-linejoin: miter; stroke-linecap: square"/>
   </g>
   <g id="patch_24">
    <path d="M 327.08 272.89125 
L 615.08 272.89125 
" style="fill: none; stroke: #000000; stroke-linejoin: miter; stroke-linecap: square"/>
   </g>
   <g id="text_34">
    <g id="patch_25">
     <path d="M 343.651429 312.076406 
L 411.651429 312.076406 
L 411.651429 294.906094 
L 343.651429 294.906094 
z
" style="fill: #ffffff; opacity: 0.85; stroke: #000000; stroke-linejoin: miter"/>
    </g>
    <text style="font: 10px 'Source Code Pro'; text-anchor: start" x="347.651429" y="306.026406" transform="rotate(-0, 347.651429, 306.026406)">D (50 min)</text>
   </g>
  </g>
  <g id="axes_5">
   <g id="matplotlib.axis_9"/>
   <g id="line2d_31">
    <path d="M 39.08 272.89125 
L 43.194286 272.89125 
L 47.308571 272.89125 
L 51.422857 272.89125 
L 55.537143 272.89125 
L 59.651429 272.89125 
L 63.765714 272.89125 
L 67.88 272.89125 
L 71.994286 272.89125 
L 76.108571 272.89125 
L 80.222857 272.89125 
L 84.337143 272.891249 
L 88.451429 272.891247 
L 92.565714 272.891243 
L 96.68 272.891231 
L 100.794286 272.891198 
L 104.908571 272.891108 
L 109.022857 272.890863 
L 113.137143 272.890197 
L 117.251429 272.888388 
L 121.365714 272.883471 
L 125.48 272.870105 
L 129.594286 272.833784 
L 133.708571 272.735132 
L 137.822857 272.467541 
L 141.937143 271.744363 
L 146.051429 269.809133 
L 150.165714 264.764352 
L 154.28 252.464637 
L 158.394286 226.805448 
L 162.508571 187.21125 
L 166.622857 147.617052 
L 170.737143 121.957863 
L 174.851429 109.658148 
L 178.965714 104.613367 
L 183.08 102.678137 
L 187.194286 101.954959 
L 191.308571 101.687368 
L 195.422857 101.588716 
L 199.537143 101.552395 
L 203.651429 101.539029 
L 207.765714 101.534112 
L 211.88 101.532303 
L 215.994286 101.531637 
L 220.108571 101.531392 
L 224.222857 101.531302 
L 228.337143 101.531269 
L 232.451429 101.531257 
L 236.565714 101.531253 
L 240.68 101.531251 
L 244.794286 101.53125 
L 248.908571 101.53125 
L 253.022857 101.53125 
L 257.137143 101.53125 
L 261.251429 101.53125 
L 265.365714 101.53125 
L 269.48 101.53125 
L 273.594286 101.53125 
L 277.708571 101.53125 
L 281.822857 101.53125 
L 285.937143 101.53125 
L 290.051429 101.53125 
L 294.165714 101.53125 
L 298.28 101.53125 
L 302.394286 101.53125 
L 306.508571 101.53125 
L 310.622857 101.53125 
L 314.737143 101.53125 
L 318.851429 101.53125 
L 322.965714 101.53125 
L 327.08 101.53125 
" clip-path="url(#pd5effb4f34)" style="fill: none; stroke-dasharray: 11.1,4.8; stroke-dashoffset: 0; stroke: #000000; stroke-width: 3"/>
   </g>
   <g id="patch_26">
    <path d="M 39.08 272.89125 
L 39.08 28.09125 
" style="fill: none; stroke: #000000; stroke-linejoin: miter; stroke-linecap: square"/>
   </g>
   <g id="patch_27">
    <path d="M 327.08 272.89125 
L 327.08 28.09125 
" style="fill: none; stroke: #000000; stroke-linejoin: miter; stroke-linecap: square"/>
   </g>
   <g id="patch_28">
    <path d="M 39.08 272.89125 
L 327.08 272.89125 
" style="fill: none; stroke: #000000; stroke-linejoin: miter; stroke-linecap: square"/>
   </g>
   <g id="patch_29">
    <path d="M 39.08 28.09125 
L 327.08 28.09125 
" style="fill: none; stroke: #000000; stroke-linejoin: miter; stroke-linecap: square"/>
   </g>
  </g>
  <g id="axes_6">
   <g id="matplotlib.axis_10">
    <g id="ytick_22">
     <g id="line2d_32">
      <defs>
       <path id="ma7d6cace60" d="M 0 0 
L 3.5 0 
" style="stroke: #000000"/>
      </defs>
      <g>
       <use xlink:href="#ma7d6cace60" x="615.08" y="272.89125" style="stroke: #000000"/>
      </g>
     </g>
     <g id="text_35">
      <text style="font: 12px 'Source Code Pro'; text-anchor: start" x="622.08" y="277.163437" transform="rotate(-0, 622.08, 277.163437)">0</text>
     </g>
    </g>
    <g id="ytick_23">
     <g id="line2d_33">
      <g>
       <use xlink:href="#ma7d6cace60" x="615.08" y="223.93125" style="stroke: #000000"/>
      </g>
     </g>
     <g id="text_36">
      <text style="font: 12px 'Source Code Pro'; text-anchor: start" x="622.08" y="228.203437" transform="rotate(-0, 622.08, 228.203437)">5</text>
     </g>
    </g>
    <g id="ytick_24">
     <g id="line2d_34">
      <g>
       <use xlink:href="#ma7d6cace60" x="615.08" y="174.97125" style="stroke: #000000"/>
      </g>
     </g>
     <g id="text_37">
      <text style="font: 12px 'Source Code Pro'; text-anchor: start" x="622.08" y="179.243437" transform="rotate(-0, 622.08, 179.243437)">10</text>
     </g>
    </g>
    <g id="ytick_25">
     <g id="line2d_35">
      <g>
       <use xlink:href="#ma7d6cace60" x="615.08" y="126.01125" style="stroke: #000000"/>
      </g>
     </g>
     <g id="text_38">
      <text style="font: 12px 'Source Code Pro'; text-anchor: start" x="622.08" y="130.283437" transform="rotate(-0, 622.08, 130.283437)">15</text>
     </g>
    </g>
    <g id="ytick_26">
     <g id="line2d_36">
      <g>
       <use xlink:href="#ma7d6cace60" x="615.08" y="77.05125" style="stroke: #000000"/>
      </g>
     </g>
     <g id="text_39">
      <text style="font: 12px 'Source Code Pro'; text-anchor: start" x="622.08" y="81.323437" transform="rotate(-0, 622.08, 81.323437)">20</text>
     </g>
    </g>
    <g id="ytick_27">
     <g id="line2d_37">
      <g>
       <use xlink:href="#ma7d6cace60" x="615.08" y="28.09125" style="stroke: #000000"/>
      </g>
     </g>
     <g id="text_40">
      <text style="font: 12px 'Source Code Pro'; text-anchor: start" x="622.08" y="32.363437" transform="rotate(-0, 622.08, 32.363437)">25</text>
     </g>
    </g>
    <g id="text_41">
     <!-- $MLSS\ (g\ L^{-1})$ -->
     <g transform="translate(649.96 186.97125)rotate(-90)">
      <text>
       <tspan style="font: 12px 'Source Code Pro'" x="0 7.199997 14.399994 21.599991 31.199963 38.39996 47.999932 65.673323" y="-0.5609375000000014">MLSS(gL)</tspan>
       <tspan style="font: 8.4px 'Source Code Pro'" x="55.301921 60.341919" y="-4.640625000000001">−1</tspan>
      </text>
     </g>
    </g>
   </g>
   <g id="line2d_38">
    <path d="M 327.08 272.89125 
L 331.194286 272.89125 
L 335.308571 272.89125 
L 339.422857 272.89125 
L 343.537143 272.89125 
L 347.651429 272.89125 
L 351.765714 272.89125 
L 355.88 272.89125 
L 359.994286 272.89125 
L 364.108571 272.89125 
L 368.222857 272.89125 
L 372.337143 272.891249 
L 376.451429 272.891247 
L 380.565714 272.891243 
L 384.68 272.891231 
L 388.794286 272.891198 
L 392.908571 272.891108 
L 397.022857 272.890863 
L 401.137143 272.890197 
L 405.251429 272.888388 
L 409.365714 272.883471 
L 413.48 272.870105 
L 417.594286 272.833784 
L 421.708571 272.735132 
L 425.822857 272.467541 
L 429.937143 271.744363 
L 434.051429 269.809133 
L 438.165714 264.764352 
L 442.28 252.464637 
L 446.394286 226.805448 
L 450.508571 187.21125 
L 454.622857 147.617052 
L 458.737143 121.957863 
L 462.851429 109.658148 
L 466.965714 104.613367 
L 471.08 102.678137 
L 475.194286 101.954959 
L 479.308571 101.687368 
L 483.422857 101.588716 
L 487.537143 101.552395 
L 491.651429 101.539029 
L 495.765714 101.534112 
L 499.88 101.532303 
L 503.994286 101.531637 
L 508.108571 101.531392 
L 512.222857 101.531302 
L 516.337143 101.531269 
L 520.451429 101.531257 
L 524.565714 101.531253 
L 528.68 101.531251 
L 532.794286 101.53125 
L 536.908571 101.53125 
L 541.022857 101.53125 
L 545.137143 101.53125 
L 549.251429 101.53125 
L 553.365714 101.53125 
L 557.48 101.53125 
L 561.594286 101.53125 
L 565.708571 101.53125 
L 569.822857 101.53125 
L 573.937143 101.53125 
L 578.051429 101.53125 
L 582.165714 101.53125 
L 586.28 101.53125 
L 590.394286 101.53125 
L 594.508571 101.53125 
L 598.622857 101.53125 
L 602.737143 101.53125 
L 606.851429 101.53125 
L 610.965714 101.53125 
L 615.08 101.53125 
" clip-path="url(#p5940210696)" style="fill: none; stroke-dasharray: 11.1,4.8; stroke-dashoffset: 0; stroke: #000000; stroke-width: 3"/>
   </g>
   <g id="patch_30">
    <path d="M 327.08 272.89125 
L 327.08 28.09125 
" style="fill: none; stroke: #000000; stroke-linejoin: miter; stroke-linecap: square"/>
   </g>
   <g id="patch_31">
    <path d="M 615.08 272.89125 
L 615.08 28.09125 
" style="fill: none; stroke: #000000; stroke-linejoin: miter; stroke-linecap: square"/>
   </g>
   <g id="patch_32">
    <path d="M 327.08 272.89125 
L 615.08 272.89125 
" style="fill: none; stroke: #000000; stroke-linejoin: miter; stroke-linecap: square"/>
   </g>
   <g id="patch_33">
    <path d="M 327.08 28.09125 
L 615.08 28.09125 
" style="fill: none; stroke: #000000; stroke-linejoin: miter; stroke-linecap: square"/>
   </g>
   <g id="legend_1">
    <g id="line2d_39">
     <path d="M 110.36 10.63125 
L 122.36 10.63125 
L 134.36 10.63125 
" style="fill: none; stroke-dasharray: 11.1,4.8; stroke-dashoffset: 0; stroke: #000000; stroke-width: 3"/>
    </g>
    <g id="text_42">
     <text style="font: 12px 'Source Code Pro'; text-anchor: start" x="143.96" y="14.83125" transform="rotate(-0, 143.96, 14.83125)">MLSS</text>
    </g>
    <g id="patch_34">
     <path d="M 196.76 14.83125 
L 220.76 14.83125 
L 220.76 6.43125 
L 196.76 6.43125 
z
" style="fill: #a0a0a0; stroke: #000000; stroke-linejoin: miter"/>
    </g>
    <g id="text_43">
     <!-- above $N_2$ sat. -->
     <g transform="translate(230.36 14.83125)">
      <text>
       <tspan style="font: 12px 'Source Code Pro'" x="0 7.199997 14.399994 21.599991 28.799988 35.999985 43.199982 55.833375 63.033372 70.233369 77.433366 84.633363" y="-0.453125">above N sat.</tspan>
       <tspan style="font: 8.4px 'Source Code Pro'" x="50.501971" y="1.2953124999999996">2</tspan>
      </text>
     </g>
    </g>
    <g id="patch_35">
     <path d="M 346.28 14.83125 
L 370.28 14.83125 
L 370.28 6.43125 
L 346.28 6.43125 
z
" style="fill: #00a6d6; stroke: #000000; stroke-linejoin: miter"/>
    </g>
    <g id="text_44">
     <text style="font: 12px 'Source Code Pro'; text-anchor: start" x="379.88" y="14.83125" transform="rotate(-0, 379.88, 14.83125)">below air eq.</text>
    </g>
    <g id="line2d_40">
     <path d="M 497.48 10.63125 
L 509.48 10.63125 
L 521.48 10.63125 
" style="fill: none; stroke: #000000; stroke-width: 3; stroke-linecap: square"/>
    </g>
    <g id="text_45">
     <!-- $N_2$ -->
     <g transform="translate(531.08 14.83125)">
      <text>
       <tspan style="font: 12px 'Source Code Pro'" x="0" y="-0.125">N</tspan>
       <tspan style="font: 8.4px 'Source Code Pro'" x="7.301989" y="1.6234374999999996">2</tspan>
      </text>
     </g>
    </g>
   </g>
  </g>
  <g id="axes_7">
   <g id="matplotlib.axis_11"/>
   <g id="line2d_41">
    <path d="M 39.08 517.69125 
L 43.194286 517.69125 
L 47.308571 517.69125 
L 51.422857 517.69125 
L 55.537143 517.69125 
L 59.651429 517.69125 
L 63.765714 517.69125 
L 67.88 517.69125 
L 71.994286 517.69125 
L 76.108571 517.69125 
L 80.222857 517.69125 
L 84.337143 517.691249 
L 88.451429 517.691247 
L 92.565714 517.691243 
L 96.68 517.691231 
L 100.794286 517.691198 
L 104.908571 517.691108 
L 109.022857 517.690863 
L 113.137143 517.690197 
L 117.251429 517.688388 
L 121.365714 517.683471 
L 125.48 517.670105 
L 129.594286 517.633784 
L 133.708571 517.535132 
L 137.822857 517.267541 
L 141.937143 516.544363 
L 146.051429 514.609133 
L 150.165714 509.564352 
L 154.28 497.264637 
L 158.394286 471.605448 
L 162.508571 432.01125 
L 166.622857 392.417052 
L 170.737143 366.757863 
L 174.851429 354.458148 
L 178.965714 349.413367 
L 183.08 347.478137 
L 187.194286 346.754959 
L 191.308571 346.487368 
L 195.422857 346.388716 
L 199.537143 346.352395 
L 203.651429 346.339029 
L 207.765714 346.334112 
L 211.88 346.332303 
L 215.994286 346.331637 
L 220.108571 346.331392 
L 224.222857 346.331302 
L 228.337143 346.331269 
L 232.451429 346.331257 
L 236.565714 346.331253 
L 240.68 346.331251 
L 244.794286 346.33125 
L 248.908571 346.33125 
L 253.022857 346.33125 
L 257.137143 346.33125 
L 261.251429 346.33125 
L 265.365714 346.33125 
L 269.48 346.33125 
L 273.594286 346.33125 
L 277.708571 346.33125 
L 281.822857 346.33125 
L 285.937143 346.33125 
L 290.051429 346.33125 
L 294.165714 346.33125 
L 298.28 346.33125 
L 302.394286 346.33125 
L 306.508571 346.33125 
L 310.622857 346.33125 
L 314.737143 346.33125 
L 318.851429 346.33125 
L 322.965714 346.33125 
L 327.08 346.33125 
" clip-path="url(#p6db73cfd4f)" style="fill: none; stroke-dasharray: 11.1,4.8; stroke-dashoffset: 0; stroke: #000000; stroke-width: 3"/>
   </g>
   <g id="patch_36">
    <path d="M 39.08 517.69125 
L 39.08 272.89125 
" style="fill: none; stroke: #000000; stroke-linejoin: miter; stroke-linecap: square"/>
   </g>
   <g id="patch_37">
    <path d="M 327.08 517.69125 
L 327.08 272.89125 
" style="fill: none; stroke: #000000; stroke-linejoin: miter; stroke-linecap: square"/>
   </g>
   <g id="patch_38">
    <path d="M 39.08 517.69125 
L 327.08 517.69125 
" style="fill: none; stroke: #000000; stroke-linejoin: miter; stroke-linecap: square"/>
   </g>
   <g id="patch_39">
    <path d="M 39.08 272.89125 
L 327.08 272.89125 
" style="fill: none; stroke: #000000; stroke-linejoin: miter; stroke-linecap: square"/>
   </g>
  </g>
  <g id="axes_8">
   <g id="matplotlib.axis_12">
    <g id="ytick_28">
     <g id="line2d_42">
      <g>
       <use xlink:href="#ma7d6cace60" x="615.08" y="517.69125" style="stroke: #000000"/>
      </g>
     </g>
     <g id="text_46">
      <text style="font: 12px 'Source Code Pro'; text-anchor: start" x="622.08" y="521.963437" transform="rotate(-0, 622.08, 521.963437)">0</text>
     </g>
    </g>
    <g id="ytick_29">
     <g id="line2d_43">
      <g>
       <use xlink:href="#ma7d6cace60" x="615.08" y="468.73125" style="stroke: #000000"/>
      </g>
     </g>
     <g id="text_47">
      <text style="font: 12px 'Source Code Pro'; text-anchor: start" x="622.08" y="473.003437" transform="rotate(-0, 622.08, 473.003437)">5</text>
     </g>
    </g>
    <g id="ytick_30">
     <g id="line2d_44">
      <g>
       <use xlink:href="#ma7d6cace60" x="615.08" y="419.77125" style="stroke: #000000"/>
      </g>
     </g>
     <g id="text_48">
      <text style="font: 12px 'Source Code Pro'; text-anchor: start" x="622.08" y="424.043437" transform="rotate(-0, 622.08, 424.043437)">10</text>
     </g>
    </g>
    <g id="ytick_31">
     <g id="line2d_45">
      <g>
       <use xlink:href="#ma7d6cace60" x="615.08" y="370.81125" style="stroke: #000000"/>
      </g>
     </g>
     <g id="text_49">
      <text style="font: 12px 'Source Code Pro'; text-anchor: start" x="622.08" y="375.083437" transform="rotate(-0, 622.08, 375.083437)">15</text>
     </g>
    </g>
    <g id="ytick_32">
     <g id="line2d_46">
      <g>
       <use xlink:href="#ma7d6cace60" x="615.08" y="321.85125" style="stroke: #000000"/>
      </g>
     </g>
     <g id="text_50">
      <text style="font: 12px 'Source Code Pro'; text-anchor: start" x="622.08" y="326.123437" transform="rotate(-0, 622.08, 326.123437)">20</text>
     </g>
    </g>
    <g id="text_51">
     <!-- $MLSS\ (g\ L^{-1})$ -->
     <g transform="translate(649.96 431.77125)rotate(-90)">
      <text>
       <tspan style="font: 12px 'Source Code Pro'" x="0 7.199997 14.399994 21.599991 31.199963 38.39996 47.999932 65.673323" y="-0.5609375000000014">MLSS(gL)</tspan>
       <tspan style="font: 8.4px 'Source Code Pro'" x="55.301921 60.341919" y="-4.640625000000001">−1</tspan>
      </text>
     </g>
    </g>
   </g>
   <g id="line2d_47">
    <path d="M 327.08 517.69125 
L 331.194286 517.69125 
L 335.308571 517.69125 
L 339.422857 517.69125 
L 343.537143 517.69125 
L 347.651429 517.69125 
L 351.765714 517.69125 
L 355.88 517.69125 
L 359.994286 517.69125 
L 364.108571 517.69125 
L 368.222857 517.69125 
L 372.337143 517.691249 
L 376.451429 517.691247 
L 380.565714 517.691243 
L 384.68 517.691231 
L 388.794286 517.691198 
L 392.908571 517.691108 
L 397.022857 517.690863 
L 401.137143 517.690197 
L 405.251429 517.688388 
L 409.365714 517.683471 
L 413.48 517.670105 
L 417.594286 517.633784 
L 421.708571 517.535132 
L 425.822857 517.267541 
L 429.937143 516.544363 
L 434.051429 514.609133 
L 438.165714 509.564352 
L 442.28 497.264637 
L 446.394286 471.605448 
L 450.508571 432.01125 
L 454.622857 392.417052 
L 458.737143 366.757863 
L 462.851429 354.458148 
L 466.965714 349.413367 
L 471.08 347.478137 
L 475.194286 346.754959 
L 479.308571 346.487368 
L 483.422857 346.388716 
L 487.537143 346.352395 
L 491.651429 346.339029 
L 495.765714 346.334112 
L 499.88 346.332303 
L 503.994286 346.331637 
L 508.108571 346.331392 
L 512.222857 346.331302 
L 516.337143 346.331269 
L 520.451429 346.331257 
L 524.565714 346.331253 
L 528.68 346.331251 
L 532.794286 346.33125 
L 536.908571 346.33125 
L 541.022857 346.33125 
L 545.137143 346.33125 
L 549.251429 346.33125 
L 553.365714 346.33125 
L 557.48 346.33125 
L 561.594286 346.33125 
L 565.708571 346.33125 
L 569.822857 346.33125 
L 573.937143 346.33125 
L 578.051429 346.33125 
L 582.165714 346.33125 
L 586.28 346.33125 
L 590.394286 346.33125 
L 594.508571 346.33125 
L 598.622857 346.33125 
L 602.737143 346.33125 
L 606.851429 346.33125 
L 610.965714 346.33125 
L 615.08 346.33125 
" clip-path="url(#p9d2011ad38)" style="fill: none; stroke-dasharray: 11.1,4.8; stroke-dashoffset: 0; stroke: #000000; stroke-width: 3"/>
   </g>
   <g id="patch_40">
    <path d="M 327.08 517.69125 
L 327.08 272.89125 
" style="fill: none; stroke: #000000; stroke-linejoin: miter; stroke-linecap: square"/>
   </g>
   <g id="patch_41">
    <path d="M 615.08 517.69125 
L 615.08 272.89125 
" style="fill: none; stroke: #000000; stroke-linejoin: miter; stroke-linecap: square"/>
   </g>
   <g id="patch_42">
    <path d="M 327.08 517.69125 
L 615.08 517.69125 
" style="fill: none; stroke: #000000; stroke-linejoin: miter; stroke-linecap: square"/>
   </g>
   <g id="patch_43">
    <path d="M 327.08 272.89125 
L 615.08 272.89125 
" style="fill: none; stroke: #000000; stroke-linejoin: miter; stroke-linecap: square"/>
   </g>
  </g>
 </g>
 <defs>
  <clipPath id="pd5effb4f34">
   <rect x="39.08" y="28.09125" width="288" height="244.8"/>
  </clipPath>
  <clipPath id="p5940210696">
   <rect x="327.08" y="28.09125" width="288" height="244.8"/>
  </clipPath>
  <clipPath id="p6db73cfd4f">
   <rect x="39.08" y="272.89125" width="288" height="244.8"/>
  </clipPath>
  <clipPath id="p9d2011ad38">
   <rect x="327.08" y="272.89125" width="288" height="244.8"/>
  </clipPath>
 </defs>
</svg>
