<?xml version="1.0" encoding="utf-8" standalone="no"?>
<!DOCTYPE svg PUBLIC "-//W3C//DTD SVG 1.1//EN"
  "http://www.w3.org/Graphics/SVG/1.1/DTD/svg11.dtd">
<svg xmlns:xlink="http://www.w3.org/1999/xlink" width="617.197625pt" height="202.581875pt" viewBox="0 0 617.197625 202.581875" xmlns="http://www.w3.org/2000/svg" version="1.1">
 <metadata>
  <rdf:RDF xmlns:dc="http://purl.org/dc/elements/1.1/" xmlns:cc="http://creativecommons.org/ns#" xmlns:rdf="http://www.w3.org/1999/02/22-rdf-syntax-ns#">
   <cc:Work>
    <dc:type rdf:resource="http://purl.org/dc/dcmitype/StillImage"/>
    <dc:date>2022-10-30T19:45:55.849082</dc:date>
    <dc:format>image/svg+xml</dc:format>
    <dc:creator>
     <cc:Agent>
      <dc:title>Matplotlib v3.5.2, https://matplotlib.org/</dc:title>
     </cc:Agent>
    </dc:creator>
   </cc:Work>
  </rdf:RDF>
 </metadata>
 <defs>
  <style type="text/css">*{stroke-linejoin: round; stroke-linecap: butt}</style>
 </defs>
 <g id="figure_1">
  <g id="patch_1">
   <path d="M 0 202.581875 
L 617.197625 202.581875 
L 617.197625 0 
L 0 0 
z
" style="fill: #ffffff"/>
  </g>
  <g id="axes_1">
   <g id="patch_2">
    <path d="M 57.757625 167.76 
L 615.757625 167.76 
L 615.757625 1.44 
L 57.757625 1.44 
z
" style="fill: #ffffff"/>
   </g>
   <g id="matplotlib.axis_1">
    <g id="xtick_1">
     <g id="line2d_1">
      <path d="M 83.121261 167.76 
L 83.121261 1.44 
" clip-path="url(#p861cff6423)" style="fill: none; stroke: #b0b0b0; stroke-linecap: square"/>
     </g>
     <g id="line2d_2">
      <defs>
       <path id="ma20877f77a" d="M 0 0 
L 0 3.5 
" style="stroke: #000000"/>
      </defs>
      <g>
       <use xlink:href="#ma20877f77a" x="83.121261" y="167.76" style="stroke: #000000"/>
      </g>
     </g>
     <g id="text_1">
      <text style="font: 12px 'Source Code Pro'; text-anchor: middle" x="83.121261" y="183.304375" transform="rotate(-0, 83.121261, 183.304375)">0.0</text>
     </g>
    </g>
    <g id="xtick_2">
     <g id="line2d_3">
      <path d="M 184.575807 167.76 
L 184.575807 1.44 
" clip-path="url(#p861cff6423)" style="fill: none; stroke: #b0b0b0; stroke-linecap: square"/>
     </g>
     <g id="line2d_4">
      <g>
       <use xlink:href="#ma20877f77a" x="184.575807" y="167.76" style="stroke: #000000"/>
      </g>
     </g>
     <g id="text_2">
      <text style="font: 12px 'Source Code Pro'; text-anchor: middle" x="184.575807" y="183.304375" transform="rotate(-0, 184.575807, 183.304375)">0.2</text>
     </g>
    </g>
    <g id="xtick_3">
     <g id="line2d_5">
      <path d="M 286.030352 167.76 
L 286.030352 1.44 
" clip-path="url(#p861cff6423)" style="fill: none; stroke: #b0b0b0; stroke-linecap: square"/>
     </g>
     <g id="line2d_6">
      <g>
       <use xlink:href="#ma20877f77a" x="286.030352" y="167.76" style="stroke: #000000"/>
      </g>
     </g>
     <g id="text_3">
      <text style="font: 12px 'Source Code Pro'; text-anchor: middle" x="286.030352" y="183.304375" transform="rotate(-0, 286.030352, 183.304375)">0.4</text>
     </g>
    </g>
    <g id="xtick_4">
     <g id="line2d_7">
      <path d="M 387.484898 167.76 
L 387.484898 1.44 
" clip-path="url(#p861cff6423)" style="fill: none; stroke: #b0b0b0; stroke-linecap: square"/>
     </g>
     <g id="line2d_8">
      <g>
       <use xlink:href="#ma20877f77a" x="387.484898" y="167.76" style="stroke: #000000"/>
      </g>
     </g>
     <g id="text_4">
      <text style="font: 12px 'Source Code Pro'; text-anchor: middle" x="387.484898" y="183.304375" transform="rotate(-0, 387.484898, 183.304375)">0.6</text>
     </g>
    </g>
    <g id="xtick_5">
     <g id="line2d_9">
      <path d="M 488.939443 167.76 
L 488.939443 1.44 
" clip-path="url(#p861cff6423)" style="fill: none; stroke: #b0b0b0; stroke-linecap: square"/>
     </g>
     <g id="line2d_10">
      <g>
       <use xlink:href="#ma20877f77a" x="488.939443" y="167.76" style="stroke: #000000"/>
      </g>
     </g>
     <g id="text_5">
      <text style="font: 12px 'Source Code Pro'; text-anchor: middle" x="488.939443" y="183.304375" transform="rotate(-0, 488.939443, 183.304375)">0.8</text>
     </g>
    </g>
    <g id="xtick_6">
     <g id="line2d_11">
      <path d="M 590.393989 167.76 
L 590.393989 1.44 
" clip-path="url(#p861cff6423)" style="fill: none; stroke: #b0b0b0; stroke-linecap: square"/>
     </g>
     <g id="line2d_12">
      <g>
       <use xlink:href="#ma20877f77a" x="590.393989" y="167.76" style="stroke: #000000"/>
      </g>
     </g>
     <g id="text_6">
      <text style="font: 12px 'Source Code Pro'; text-anchor: middle" x="590.393989" y="183.304375" transform="rotate(-0, 590.393989, 183.304375)">1.0</text>
     </g>
    </g>
    <g id="text_7">
     <text style="font: 12px 'Source Code Pro'; text-anchor: middle" x="336.757625" y="198.453125" transform="rotate(-0, 336.757625, 198.453125)">cumulative fraction of granules from lowest to highest COD uptake</text>
    </g>
   </g>
   <g id="matplotlib.axis_2">
    <g id="ytick_1">
     <g id="line2d_13">
      <path d="M 57.757625 160.2 
L 615.757625 160.2 
" clip-path="url(#p861cff6423)" style="fill: none; stroke: #b0b0b0; stroke-linecap: square"/>
     </g>
     <g id="line2d_14">
      <defs>
       <path id="m5847103375" d="M 0 0 
L -3.5 0 
" style="stroke: #000000"/>
      </defs>
      <g>
       <use xlink:href="#m5847103375" x="57.757625" y="160.2" style="stroke: #000000"/>
      </g>
     </g>
     <g id="text_8">
      <text style="font: 12px 'Source Code Pro'; text-anchor: end" x="50.757625" y="164.472188" transform="rotate(-0, 50.757625, 164.472188)">0.0</text>
     </g>
    </g>
    <g id="ytick_2">
     <g id="line2d_15">
      <path d="M 57.757625 129.96 
L 615.757625 129.96 
" clip-path="url(#p861cff6423)" style="fill: none; stroke: #b0b0b0; stroke-linecap: square"/>
     </g>
     <g id="line2d_16">
      <g>
       <use xlink:href="#m5847103375" x="57.757625" y="129.96" style="stroke: #000000"/>
      </g>
     </g>
     <g id="text_9">
      <text style="font: 12px 'Source Code Pro'; text-anchor: end" x="50.757625" y="134.232188" transform="rotate(-0, 50.757625, 134.232188)">0.2</text>
     </g>
    </g>
    <g id="ytick_3">
     <g id="line2d_17">
      <path d="M 57.757625 99.72 
L 615.757625 99.72 
" clip-path="url(#p861cff6423)" style="fill: none; stroke: #b0b0b0; stroke-linecap: square"/>
     </g>
     <g id="line2d_18">
      <g>
       <use xlink:href="#m5847103375" x="57.757625" y="99.72" style="stroke: #000000"/>
      </g>
     </g>
     <g id="text_10">
      <text style="font: 12px 'Source Code Pro'; text-anchor: end" x="50.757625" y="103.992188" transform="rotate(-0, 50.757625, 103.992188)">0.4</text>
     </g>
    </g>
    <g id="ytick_4">
     <g id="line2d_19">
      <path d="M 57.757625 69.48 
L 615.757625 69.48 
" clip-path="url(#p861cff6423)" style="fill: none; stroke: #b0b0b0; stroke-linecap: square"/>
     </g>
     <g id="line2d_20">
      <g>
       <use xlink:href="#m5847103375" x="57.757625" y="69.48" style="stroke: #000000"/>
      </g>
     </g>
     <g id="text_11">
      <text style="font: 12px 'Source Code Pro'; text-anchor: end" x="50.757625" y="73.752188" transform="rotate(-0, 50.757625, 73.752188)">0.6</text>
     </g>
    </g>
    <g id="ytick_5">
     <g id="line2d_21">
      <path d="M 57.757625 39.24 
L 615.757625 39.24 
" clip-path="url(#p861cff6423)" style="fill: none; stroke: #b0b0b0; stroke-linecap: square"/>
     </g>
     <g id="line2d_22">
      <g>
       <use xlink:href="#m5847103375" x="57.757625" y="39.24" style="stroke: #000000"/>
      </g>
     </g>
     <g id="text_12">
      <text style="font: 12px 'Source Code Pro'; text-anchor: end" x="50.757625" y="43.512188" transform="rotate(-0, 50.757625, 43.512188)">0.8</text>
     </g>
    </g>
    <g id="ytick_6">
     <g id="line2d_23">
      <path d="M 57.757625 9 
L 615.757625 9 
" clip-path="url(#p861cff6423)" style="fill: none; stroke: #b0b0b0; stroke-linecap: square"/>
     </g>
     <g id="line2d_24">
      <g>
       <use xlink:href="#m5847103375" x="57.757625" y="9" style="stroke: #000000"/>
      </g>
     </g>
     <g id="text_13">
      <text style="font: 12px 'Source Code Pro'; text-anchor: end" x="50.757625" y="13.272188" transform="rotate(-0, 50.757625, 13.272188)">1.0</text>
     </g>
    </g>
    <g id="text_14">
     <text style="font: 12px 'Source Code Pro'" transform="translate(9.984375 156.6)rotate(-90)">cumulative fraction </text>
     <text style="font: 12px 'Source Code Pro'" transform="translate(22.697625 138.6)rotate(-90)">COD sequestered</text>
    </g>
   </g>
   <g id="line2d_25">
    <path d="M 83.121261 160.2 
L 590.393989 9 
" clip-path="url(#p861cff6423)" style="fill: none; stroke-dasharray: 11.1,4.8; stroke-dashoffset: 0; stroke: #000000; stroke-width: 3"/>
   </g>
   <g id="line2d_26">
    <path d="M 83.176871 160.2 
L 115.651248 160.089679 
L 126.682068 159.79321 
L 137.747812 159.266085 
L 149.216593 158.503168 
L 161.040973 157.467022 
L 173.038632 156.200478 
L 185.611444 154.659134 
L 199.13343 152.771547 
L 212.866973 150.640153 
L 227.295916 148.164946 
L 242.458632 145.333365 
L 257.962961 142.205284 
L 273.673739 138.810819 
L 290.630122 134.917428 
L 306.462857 131.038285 
L 320.707637 127.321121 
L 334.887503 123.400251 
L 350.760288 118.766689 
L 366.060628 114.063603 
L 381.997609 108.926057 
L 397.326314 103.740921 
L 413.128156 98.148333 
L 427.865887 92.699808 
L 441.428038 87.462716 
L 456.515282 81.388371 
L 469.784938 75.812596 
L 484.187986 69.503843 
L 496.796036 63.754345 
L 508.641303 58.127509 
L 520.601512 52.182501 
L 532.023835 46.257379 
L 542.404968 40.629726 
L 551.663636 35.354987 
L 560.21436 30.246455 
L 568.943083 24.773989 
L 575.972038 20.113317 
L 581.794905 15.982359 
L 586.564605 12.338229 
L 589.591514 9.772223 
L 590.393989 9 
L 590.393989 9 
" clip-path="url(#p861cff6423)" style="fill: none; stroke: #00a6d6; stroke-width: 3; stroke-linecap: square"/>
   </g>
   <g id="line2d_27">
    <path d="M 83.185177 160.2 
L 386.192687 160.088993 
L 419.376321 159.855406 
L 439.8382 159.500344 
L 454.573595 159.039028 
L 466.419602 158.454793 
L 476.572361 157.742872 
L 485.695264 156.877249 
L 495.298438 155.723637 
L 503.336569 154.544767 
L 511.310705 153.157838 
L 519.752374 151.455883 
L 527.670608 149.604329 
L 536.082437 147.379739 
L 542.686559 145.402104 
L 549.620524 143.080765 
L 555.888916 140.762114 
L 562.317736 138.156653 
L 567.747379 135.7452 
L 573.231859 133.038876 
L 577.832577 130.526826 
L 581.885906 128.063815 
L 584.110175 126.468599 
L 585.624038 125.081542 
L 586.37437 124.100004 
L 586.827741 123.138947 
L 587.243245 121.689037 
L 587.640115 119.438854 
L 588.085731 115.480276 
L 588.535571 109.363445 
L 589.012088 99.670931 
L 589.508984 84.850106 
L 589.986253 63.295804 
L 590.30878 38.915811 
L 590.390414 14.752204 
L 590.393989 9 
L 590.393989 9 
" clip-path="url(#p861cff6423)" style="fill: none; stroke-dasharray: 11.1,4.8; stroke-dashoffset: 0; stroke: #00a6d6; stroke-width: 3"/>
   </g>
   <g id="line2d_28">
    <path d="M 83.281547 160.2 
L 580.000932 160.091297 
L 583.438829 159.896256 
L 585.818607 159.56106 
L 587.396852 159.056867 
L 587.772506 158.670302 
L 588.076593 158.031354 
L 588.373784 156.837269 
L 588.675427 154.627504 
L 588.94983 150.870682 
L 589.252225 143.415826 
L 589.583909 129.188751 
L 589.952763 102.725915 
L 590.285172 61.661103 
L 590.389976 23.00516 
L 590.393989 9 
L 590.393989 9 
" clip-path="url(#p861cff6423)" style="fill: none; stroke-dasharray: 3,4.95; stroke-dashoffset: 0; stroke: #00a6d6; stroke-width: 3"/>
   </g>
   <g id="patch_3">
    <path d="M 57.757625 167.76 
L 57.757625 1.44 
" style="fill: none; stroke: #000000; stroke-linejoin: miter; stroke-linecap: square"/>
   </g>
   <g id="patch_4">
    <path d="M 615.757625 167.76 
L 615.757625 1.44 
" style="fill: none; stroke: #000000; stroke-linejoin: miter; stroke-linecap: square"/>
   </g>
   <g id="patch_5">
    <path d="M 57.757625 167.76 
L 615.757625 167.76 
" style="fill: none; stroke: #000000; stroke-linejoin: miter; stroke-linecap: square"/>
   </g>
   <g id="patch_6">
    <path d="M 57.757625 1.44 
L 615.757625 1.44 
" style="fill: none; stroke: #000000; stroke-linejoin: miter; stroke-linecap: square"/>
   </g>
   <g id="legend_1">
    <g id="patch_7">
     <path d="M 63.757625 80.559375 
L 236.557625 80.559375 
L 236.557625 7.44 
L 63.757625 7.44 
z
" style="fill: #ffffff; opacity: 0.8; stroke: #cccccc; stroke-linejoin: miter"/>
    </g>
    <g id="line2d_29">
     <path d="M 68.557625 16.63125 
L 80.557625 16.63125 
L 92.557625 16.63125 
" style="fill: none; stroke-dasharray: 11.1,4.8; stroke-dashoffset: 0; stroke: #000000; stroke-width: 3"/>
    </g>
    <g id="text_15">
     <text style="font: 12px 'Source Code Pro'; text-anchor: start" x="102.157625" y="20.83125" transform="rotate(-0, 102.157625, 20.83125)">equality</text>
    </g>
    <g id="line2d_30">
     <path d="M 68.557625 33.924375 
L 80.557625 33.924375 
L 92.557625 33.924375 
" style="fill: none; stroke: #00a6d6; stroke-width: 3; stroke-linecap: square"/>
    </g>
    <g id="text_16">
     <text style="font: 12px 'Source Code Pro'; text-anchor: start" x="102.157625" y="38.124375" transform="rotate(-0, 102.157625, 38.124375)">gini 0.354 (start)</text>
    </g>
    <g id="line2d_31">
     <path d="M 68.557625 51.3975 
L 80.557625 51.3975 
L 92.557625 51.3975 
" style="fill: none; stroke-dasharray: 11.1,4.8; stroke-dashoffset: 0; stroke: #00a6d6; stroke-width: 3"/>
    </g>
    <g id="text_17">
     <text style="font: 12px 'Source Code Pro'; text-anchor: start" x="102.157625" y="55.5975" transform="rotate(-0, 102.157625, 55.5975)">gini 0.952 (lag)</text>
    </g>
    <g id="line2d_32">
     <path d="M 68.557625 68.870625 
L 80.557625 68.870625 
L 92.557625 68.870625 
" style="fill: none; stroke-dasharray: 3,4.95; stroke-dashoffset: 0; stroke: #00a6d6; stroke-width: 3"/>
    </g>
    <g id="text_18">
     <text style="font: 12px 'Source Code Pro'; text-anchor: start" x="102.157625" y="73.070625" transform="rotate(-0, 102.157625, 73.070625)">gini 0.998 (gran.)</text>
    </g>
   </g>
  </g>
 </g>
 <defs>
  <clipPath id="p861cff6423">
   <rect x="57.757625" y="1.44" width="558" height="166.32"/>
  </clipPath>
 </defs>
</svg>
