<?xml version="1.0" encoding="utf-8" standalone="no"?>
<!DOCTYPE svg PUBLIC "-//W3C//DTD SVG 1.1//EN"
  "http://www.w3.org/Graphics/SVG/1.1/DTD/svg11.dtd">
<svg xmlns:xlink="http://www.w3.org/1999/xlink" width="654.16pt" height="552.38pt" viewBox="0 0 654.16 552.38" xmlns="http://www.w3.org/2000/svg" version="1.1">
 <metadata>
  <rdf:RDF xmlns:dc="http://purl.org/dc/elements/1.1/" xmlns:cc="http://creativecommons.org/ns#" xmlns:rdf="http://www.w3.org/1999/02/22-rdf-syntax-ns#">
   <cc:Work>
    <dc:type rdf:resource="http://purl.org/dc/dcmitype/StillImage"/>
    <dc:date>2022-10-30T20:06:35.790365</dc:date>
    <dc:format>image/svg+xml</dc:format>
    <dc:creator>
     <cc:Agent>
      <dc:title>Matplotlib v3.5.2, https://matplotlib.org/</dc:title>
     </cc:Agent>
    </dc:creator>
   </cc:Work>
  </rdf:RDF>
 </metadata>
 <defs>
  <style type="text/css">*{stroke-linejoin: round; stroke-linecap: butt}</style>
 </defs>
 <g id="figure_1">
  <g id="patch_1">
   <path d="M 0 552.38 
L 654.16 552.38 
L 654.16 0 
L 0 0 
z
" style="fill: #ffffff"/>
  </g>
  <g id="axes_1">
   <g id="patch_2">
    <path d="M 39.08 272.89125 
L 327.08 272.89125 
L 327.08 28.09125 
L 39.08 28.09125 
z
" style="fill: #ffffff"/>
   </g>
   <g id="PolyCollection_1">
    <defs>
     <path id="m42abb19127" d="M 39.08 -338.794815 
L 39.08 -524.28875 
L 43.194286 -524.28875 
L 47.308571 -524.28875 
L 51.422857 -524.28875 
L 55.537143 -524.28875 
L 59.651429 -524.28875 
L 63.765714 -524.28875 
L 67.88 -524.28875 
L 71.994286 -524.28875 
L 76.108571 -524.28875 
L 80.222857 -524.28875 
L 84.337143 -524.28875 
L 88.451429 -524.28875 
L 92.565714 -524.28875 
L 96.68 -524.28875 
L 100.794286 -524.28875 
L 104.908571 -524.28875 
L 109.022857 -524.28875 
L 113.137143 -524.28875 
L 117.251429 -524.28875 
L 121.365714 -524.28875 
L 125.48 -524.28875 
L 129.594286 -524.28875 
L 133.708571 -524.28875 
L 137.822857 -524.28875 
L 141.937143 -524.28875 
L 146.051429 -524.28875 
L 150.165714 -524.28875 
L 154.28 -524.28875 
L 158.394286 -524.28875 
L 162.508571 -524.28875 
L 166.622857 -524.28875 
L 170.737143 -524.28875 
L 174.851429 -524.28875 
L 178.965714 -524.28875 
L 183.08 -524.28875 
L 187.194286 -524.28875 
L 191.308571 -524.28875 
L 195.422857 -524.28875 
L 199.537143 -524.28875 
L 203.651429 -524.28875 
L 207.765714 -524.28875 
L 211.88 -524.28875 
L 215.994286 -524.28875 
L 220.108571 -524.28875 
L 224.222857 -524.28875 
L 228.337143 -524.28875 
L 232.451429 -524.28875 
L 236.565714 -524.28875 
L 240.68 -524.28875 
L 244.794286 -524.28875 
L 248.908571 -524.28875 
L 253.022857 -524.28875 
L 257.137143 -524.28875 
L 261.251429 -524.28875 
L 265.365714 -524.28875 
L 269.48 -524.28875 
L 273.594286 -524.28875 
L 277.708571 -524.28875 
L 281.822857 -524.28875 
L 285.937143 -524.28875 
L 290.051429 -524.28875 
L 294.165714 -524.28875 
L 298.28 -524.28875 
L 302.394286 -524.28875 
L 306.508571 -524.28875 
L 310.622857 -524.28875 
L 314.737143 -524.28875 
L 318.851429 -524.28875 
L 322.965714 -524.28875 
L 327.08 -524.28875 
L 327.08 -514.003618 
L 327.08 -514.003618 
L 322.965714 -511.500635 
L 318.851429 -508.997652 
L 314.737143 -506.494669 
L 310.622857 -503.991686 
L 306.508571 -501.488703 
L 302.394286 -498.985721 
L 298.28 -496.482738 
L 294.165714 -493.979755 
L 290.051429 -491.476772 
L 285.937143 -488.973789 
L 281.822857 -486.470806 
L 277.708571 -483.967823 
L 273.594286 -481.46484 
L 269.48 -478.961857 
L 265.365714 -476.458874 
L 261.251429 -473.955892 
L 257.137143 -471.452909 
L 253.022857 -468.949926 
L 248.908571 -466.446943 
L 244.794286 -463.94396 
L 240.68 -461.440977 
L 236.565714 -458.937994 
L 232.451429 -456.435011 
L 228.337143 -453.932028 
L 224.222857 -451.429045 
L 220.108571 -448.926063 
L 215.994286 -446.42308 
L 211.88 -443.920097 
L 207.765714 -441.417114 
L 203.651429 -438.914131 
L 199.537143 -436.411148 
L 195.422857 -433.908165 
L 191.308571 -431.405182 
L 187.194286 -428.902199 
L 183.08 -426.399216 
L 178.965714 -423.896234 
L 174.851429 -421.393251 
L 170.737143 -418.890268 
L 166.622857 -416.387285 
L 162.508571 -413.884302 
L 158.394286 -411.381319 
L 154.28 -408.878336 
L 150.165714 -406.375353 
L 146.051429 -403.87237 
L 141.937143 -401.369387 
L 137.822857 -398.866405 
L 133.708571 -396.363422 
L 129.594286 -393.860439 
L 125.48 -391.357456 
L 121.365714 -388.854473 
L 117.251429 -386.35149 
L 113.137143 -383.848507 
L 109.022857 -381.345524 
L 104.908571 -378.842541 
L 100.794286 -376.339559 
L 96.68 -373.836576 
L 92.565714 -371.333593 
L 88.451429 -368.83061 
L 84.337143 -366.327627 
L 80.222857 -363.824644 
L 76.108571 -361.321661 
L 71.994286 -358.818678 
L 67.88 -356.315695 
L 63.765714 -353.812712 
L 59.651429 -351.30973 
L 55.537143 -348.806747 
L 51.422857 -346.303764 
L 47.308571 -343.800781 
L 43.194286 -341.297798 
L 39.08 -338.794815 
z
" style="stroke: #000000"/>
    </defs>
    <g clip-path="url(#p8693f5db00)">
     <use xlink:href="#m42abb19127" x="0" y="552.38" style="fill: #a0a0a0; stroke: #000000"/>
    </g>
   </g>
   <g id="PolyCollection_2">
    <defs>
     <path id="mce69a40cfa" d="M 39.08 -285.214141 
L 39.08 -279.48875 
L 43.194286 -279.48875 
L 47.308571 -279.48875 
L 51.422857 -279.48875 
L 55.537143 -279.48875 
L 59.651429 -279.48875 
L 63.765714 -279.48875 
L 67.88 -279.48875 
L 71.994286 -279.48875 
L 76.108571 -279.48875 
L 80.222857 -279.48875 
L 84.337143 -279.48875 
L 88.451429 -279.48875 
L 92.565714 -279.48875 
L 96.68 -279.48875 
L 100.794286 -279.48875 
L 104.908571 -279.48875 
L 109.022857 -279.48875 
L 113.137143 -279.48875 
L 117.251429 -279.48875 
L 121.365714 -279.48875 
L 125.48 -279.48875 
L 129.594286 -279.48875 
L 133.708571 -279.48875 
L 137.822857 -279.48875 
L 141.937143 -279.48875 
L 146.051429 -279.48875 
L 150.165714 -279.48875 
L 154.28 -279.48875 
L 158.394286 -279.48875 
L 162.508571 -279.48875 
L 166.622857 -279.48875 
L 170.737143 -279.48875 
L 174.851429 -279.48875 
L 178.965714 -279.48875 
L 183.08 -279.48875 
L 187.194286 -279.48875 
L 191.308571 -279.48875 
L 195.422857 -279.48875 
L 199.537143 -279.48875 
L 203.651429 -279.48875 
L 207.765714 -279.48875 
L 211.88 -279.48875 
L 215.994286 -279.48875 
L 220.108571 -279.48875 
L 224.222857 -279.48875 
L 228.337143 -279.48875 
L 232.451429 -279.48875 
L 236.565714 -279.48875 
L 240.68 -279.48875 
L 244.794286 -279.48875 
L 248.908571 -279.48875 
L 253.022857 -279.48875 
L 257.137143 -279.48875 
L 261.251429 -279.48875 
L 265.365714 -279.48875 
L 269.48 -279.48875 
L 273.594286 -279.48875 
L 277.708571 -279.48875 
L 281.822857 -279.48875 
L 285.937143 -279.48875 
L 290.051429 -279.48875 
L 294.165714 -279.48875 
L 298.28 -279.48875 
L 302.394286 -279.48875 
L 306.508571 -279.48875 
L 310.622857 -279.48875 
L 314.737143 -279.48875 
L 318.851429 -279.48875 
L 322.965714 -279.48875 
L 327.08 -279.48875 
L 327.08 -423.629096 
L 327.08 -423.629096 
L 322.965714 -421.651739 
L 318.851429 -419.674383 
L 314.737143 -417.697026 
L 310.622857 -415.71967 
L 306.508571 -413.742313 
L 302.394286 -411.764957 
L 298.28 -409.7876 
L 294.165714 -407.810244 
L 290.051429 -405.832887 
L 285.937143 -403.855531 
L 281.822857 -401.878174 
L 277.708571 -399.900818 
L 273.594286 -397.923461 
L 269.48 -395.946105 
L 265.365714 -393.968748 
L 261.251429 -391.991392 
L 257.137143 -390.014035 
L 253.022857 -388.036679 
L 248.908571 -386.059322 
L 244.794286 -384.081966 
L 240.68 -382.104609 
L 236.565714 -380.127253 
L 232.451429 -378.149896 
L 228.337143 -376.17254 
L 224.222857 -374.195183 
L 220.108571 -372.217827 
L 215.994286 -370.24047 
L 211.88 -368.263114 
L 207.765714 -366.285757 
L 203.651429 -364.308401 
L 199.537143 -362.331044 
L 195.422857 -360.353688 
L 191.308571 -358.376331 
L 187.194286 -356.398975 
L 183.08 -354.421619 
L 178.965714 -352.444262 
L 174.851429 -350.466906 
L 170.737143 -348.489549 
L 166.622857 -346.512193 
L 162.508571 -344.534836 
L 158.394286 -342.55748 
L 154.28 -340.580123 
L 150.165714 -338.602767 
L 146.051429 -336.62541 
L 141.937143 -334.648054 
L 137.822857 -332.670697 
L 133.708571 -330.693341 
L 129.594286 -328.715984 
L 125.48 -326.738628 
L 121.365714 -324.761271 
L 117.251429 -322.783915 
L 113.137143 -320.806558 
L 109.022857 -318.829202 
L 104.908571 -316.851845 
L 100.794286 -314.874489 
L 96.68 -312.897132 
L 92.565714 -310.919776 
L 88.451429 -308.942419 
L 84.337143 -306.965063 
L 80.222857 -304.987706 
L 76.108571 -303.01035 
L 71.994286 -301.032993 
L 67.88 -299.055637 
L 63.765714 -297.07828 
L 59.651429 -295.100924 
L 55.537143 -293.123567 
L 51.422857 -291.146211 
L 47.308571 -289.168854 
L 43.194286 -287.191498 
L 39.08 -285.214141 
z
" style="stroke: #000000"/>
    </defs>
    <g clip-path="url(#p8693f5db00)">
     <use xlink:href="#mce69a40cfa" x="0" y="552.38" style="fill: #00a6d6; stroke: #000000"/>
    </g>
   </g>
   <g id="matplotlib.axis_1">
    <g id="xtick_1"/>
    <g id="xtick_2"/>
    <g id="xtick_3"/>
    <g id="xtick_4"/>
    <g id="xtick_5"/>
    <g id="xtick_6"/>
    <g id="xtick_7"/>
   </g>
   <g id="matplotlib.axis_2">
    <g id="ytick_1">
     <g id="line2d_1">
      <defs>
       <path id="m6effad4ddd" d="M 0 0 
L -3.5 0 
" style="stroke: #000000"/>
      </defs>
      <g>
       <use xlink:href="#m6effad4ddd" x="39.08" y="272.89125" style="stroke: #000000"/>
      </g>
     </g>
     <g id="text_1">
      <text style="font: 12px 'Source Code Pro'; text-anchor: end" x="32.08" y="277.163437" transform="rotate(-0, 32.08, 277.163437)">16</text>
     </g>
    </g>
    <g id="ytick_2">
     <g id="line2d_2">
      <g>
       <use xlink:href="#m6effad4ddd" x="39.08" y="223.93125" style="stroke: #000000"/>
      </g>
     </g>
     <g id="text_2">
      <text style="font: 12px 'Source Code Pro'; text-anchor: end" x="32.08" y="228.203437" transform="rotate(-0, 32.08, 228.203437)">20</text>
     </g>
    </g>
    <g id="ytick_3">
     <g id="line2d_3">
      <g>
       <use xlink:href="#m6effad4ddd" x="39.08" y="174.97125" style="stroke: #000000"/>
      </g>
     </g>
     <g id="text_3">
      <text style="font: 12px 'Source Code Pro'; text-anchor: end" x="32.08" y="179.243437" transform="rotate(-0, 32.08, 179.243437)">24</text>
     </g>
    </g>
    <g id="ytick_4">
     <g id="line2d_4">
      <g>
       <use xlink:href="#m6effad4ddd" x="39.08" y="126.01125" style="stroke: #000000"/>
      </g>
     </g>
     <g id="text_4">
      <text style="font: 12px 'Source Code Pro'; text-anchor: end" x="32.08" y="130.283437" transform="rotate(-0, 32.08, 130.283437)">28</text>
     </g>
    </g>
    <g id="ytick_5">
     <g id="line2d_5">
      <g>
       <use xlink:href="#m6effad4ddd" x="39.08" y="77.05125" style="stroke: #000000"/>
      </g>
     </g>
     <g id="text_5">
      <text style="font: 12px 'Source Code Pro'; text-anchor: end" x="32.08" y="81.323437" transform="rotate(-0, 32.08, 81.323437)">32</text>
     </g>
    </g>
    <g id="ytick_6">
     <g id="line2d_6">
      <g>
       <use xlink:href="#m6effad4ddd" x="39.08" y="28.09125" style="stroke: #000000"/>
      </g>
     </g>
     <g id="text_6">
      <text style="font: 12px 'Source Code Pro'; text-anchor: end" x="32.08" y="32.363437" transform="rotate(-0, 32.08, 32.363437)">36</text>
     </g>
    </g>
    <g id="text_7">
     <!-- $conc.\ (mg\ L^{-1})$ -->
     <g transform="translate(10.92 194.89125)rotate(-90)">
      <text>
       <tspan style="font: 12px 'Source Code Pro'" x="0 7.199997 14.399994 21.599991 28.799988 39.839959 47.039956 54.239953 63.839925 81.513316" y="-0.5609375000000014">conc.(mgL)</tspan>
       <tspan style="font: 8.4px 'Source Code Pro'" x="71.141914 76.181912" y="-4.640625000000001">−1</tspan>
      </text>
     </g>
    </g>
   </g>
   <g id="line2d_7">
    <path d="M 39.08 207.258641 
L 43.194286 207.14185 
L 47.308571 206.910889 
L 51.422857 206.568167 
L 55.537143 206.116598 
L 59.651429 205.558917 
L 63.765714 204.89814 
L 67.88 204.137334 
L 71.994286 203.27968 
L 76.108571 202.328456 
L 80.222857 201.287029 
L 84.337143 200.158843 
L 88.451429 198.947409 
L 92.565714 197.656297 
L 96.68 196.289122 
L 100.794286 194.849537 
L 104.908571 193.341217 
L 109.022857 191.767851 
L 113.137143 190.133133 
L 117.251429 188.440751 
L 121.365714 186.694379 
L 125.48 184.897669 
L 129.594286 183.054244 
L 133.708571 181.167693 
L 137.822857 179.241565 
L 141.937143 177.27937 
L 146.051429 175.28457 
L 150.165714 173.260587 
L 154.28 171.210794 
L 158.394286 169.138525 
L 162.508571 167.047074 
L 166.622857 164.939695 
L 170.737143 162.819616 
L 174.851429 160.690035 
L 178.965714 158.554131 
L 183.08 156.415068 
L 187.194286 154.276005 
L 191.308571 152.140101 
L 195.422857 150.01052 
L 199.537143 147.890441 
L 203.651429 145.783062 
L 207.765714 143.691611 
L 211.88 141.619342 
L 215.994286 139.569549 
L 220.108571 137.545566 
L 224.222857 135.550766 
L 228.337143 133.588571 
L 232.451429 131.662443 
L 236.565714 129.775892 
L 240.68 127.932467 
L 244.794286 126.135757 
L 248.908571 124.389385 
L 253.022857 122.697003 
L 257.137143 121.062285 
L 261.251429 119.488919 
L 265.365714 117.980599 
L 269.48 116.541014 
L 273.594286 115.173839 
L 277.708571 113.882727 
L 281.822857 112.671293 
L 285.937143 111.543107 
L 290.051429 110.50168 
L 294.165714 109.550456 
L 298.28 108.692802 
L 302.394286 107.931996 
L 306.508571 107.27122 
L 310.622857 106.713538 
L 314.737143 106.261969 
L 318.851429 105.919247 
L 322.965714 105.688286 
L 327.08 267.165859 
" clip-path="url(#p8693f5db00)" style="fill: none; stroke: #000000; stroke-width: 3; stroke-linecap: square"/>
   </g>
   <g id="patch_3">
    <path d="M 39.08 272.89125 
L 39.08 28.09125 
" style="fill: none; stroke: #000000; stroke-linejoin: miter; stroke-linecap: square"/>
   </g>
   <g id="patch_4">
    <path d="M 327.08 272.89125 
L 327.08 28.09125 
" style="fill: none; stroke: #000000; stroke-linejoin: miter; stroke-linecap: square"/>
   </g>
   <g id="patch_5">
    <path d="M 39.08 272.89125 
L 327.08 272.89125 
" style="fill: none; stroke: #000000; stroke-linejoin: miter; stroke-linecap: square"/>
   </g>
   <g id="patch_6">
    <path d="M 39.08 28.09125 
L 327.08 28.09125 
" style="fill: none; stroke: #000000; stroke-linejoin: miter; stroke-linecap: square"/>
   </g>
   <g id="text_8">
    <g id="patch_7">
     <path d="M 55.651429 67.276406 
L 117.651429 67.276406 
L 117.651429 50.106094 
L 55.651429 50.106094 
z
" style="fill: #ffffff; opacity: 0.85; stroke: #000000; stroke-linejoin: miter"/>
    </g>
    <text style="font: 10px 'Source Code Pro'; text-anchor: start" x="59.651429" y="61.226406" transform="rotate(-0, 59.651429, 61.226406)">A (0 min)</text>
   </g>
  </g>
  <g id="axes_2">
   <g id="patch_8">
    <path d="M 327.08 272.89125 
L 615.08 272.89125 
L 615.08 28.09125 
L 327.08 28.09125 
z
" style="fill: #ffffff"/>
   </g>
   <g id="PolyCollection_3">
    <defs>
     <path id="me6c8ddba3a" d="M 327.08 -338.794815 
L 327.08 -524.28875 
L 331.194286 -524.28875 
L 335.308571 -524.28875 
L 339.422857 -524.28875 
L 343.537143 -524.28875 
L 347.651429 -524.28875 
L 351.765714 -524.28875 
L 355.88 -524.28875 
L 359.994286 -524.28875 
L 364.108571 -524.28875 
L 368.222857 -524.28875 
L 372.337143 -524.28875 
L 376.451429 -524.28875 
L 380.565714 -524.28875 
L 384.68 -524.28875 
L 388.794286 -524.28875 
L 392.908571 -524.28875 
L 397.022857 -524.28875 
L 401.137143 -524.28875 
L 405.251429 -524.28875 
L 409.365714 -524.28875 
L 413.48 -524.28875 
L 417.594286 -524.28875 
L 421.708571 -524.28875 
L 425.822857 -524.28875 
L 429.937143 -524.28875 
L 434.051429 -524.28875 
L 438.165714 -524.28875 
L 442.28 -524.28875 
L 446.394286 -524.28875 
L 450.508571 -524.28875 
L 454.622857 -524.28875 
L 458.737143 -524.28875 
L 462.851429 -524.28875 
L 466.965714 -524.28875 
L 471.08 -524.28875 
L 475.194286 -524.28875 
L 479.308571 -524.28875 
L 483.422857 -524.28875 
L 487.537143 -524.28875 
L 491.651429 -524.28875 
L 495.765714 -524.28875 
L 499.88 -524.28875 
L 503.994286 -524.28875 
L 508.108571 -524.28875 
L 512.222857 -524.28875 
L 516.337143 -524.28875 
L 520.451429 -524.28875 
L 524.565714 -524.28875 
L 528.68 -524.28875 
L 532.794286 -524.28875 
L 536.908571 -524.28875 
L 541.022857 -524.28875 
L 545.137143 -524.28875 
L 549.251429 -524.28875 
L 553.365714 -524.28875 
L 557.48 -524.28875 
L 561.594286 -524.28875 
L 565.708571 -524.28875 
L 569.822857 -524.28875 
L 573.937143 -524.28875 
L 578.051429 -524.28875 
L 582.165714 -524.28875 
L 586.28 -524.28875 
L 590.394286 -524.28875 
L 594.508571 -524.28875 
L 598.622857 -524.28875 
L 602.737143 -524.28875 
L 606.851429 -524.28875 
L 610.965714 -524.28875 
L 615.08 -524.28875 
L 615.08 -514.003618 
L 615.08 -514.003618 
L 610.965714 -511.500635 
L 606.851429 -508.997652 
L 602.737143 -506.494669 
L 598.622857 -503.991686 
L 594.508571 -501.488703 
L 590.394286 -498.985721 
L 586.28 -496.482738 
L 582.165714 -493.979755 
L 578.051429 -491.476772 
L 573.937143 -488.973789 
L 569.822857 -486.470806 
L 565.708571 -483.967823 
L 561.594286 -481.46484 
L 557.48 -478.961857 
L 553.365714 -476.458874 
L 549.251429 -473.955892 
L 545.137143 -471.452909 
L 541.022857 -468.949926 
L 536.908571 -466.446943 
L 532.794286 -463.94396 
L 528.68 -461.440977 
L 524.565714 -458.937994 
L 520.451429 -456.435011 
L 516.337143 -453.932028 
L 512.222857 -451.429045 
L 508.108571 -448.926063 
L 503.994286 -446.42308 
L 499.88 -443.920097 
L 495.765714 -441.417114 
L 491.651429 -438.914131 
L 487.537143 -436.411148 
L 483.422857 -433.908165 
L 479.308571 -431.405182 
L 475.194286 -428.902199 
L 471.08 -426.399216 
L 466.965714 -423.896234 
L 462.851429 -421.393251 
L 458.737143 -418.890268 
L 454.622857 -416.387285 
L 450.508571 -413.884302 
L 446.394286 -411.381319 
L 442.28 -408.878336 
L 438.165714 -406.375353 
L 434.051429 -403.87237 
L 429.937143 -401.369387 
L 425.822857 -398.866405 
L 421.708571 -396.363422 
L 417.594286 -393.860439 
L 413.48 -391.357456 
L 409.365714 -388.854473 
L 405.251429 -386.35149 
L 401.137143 -383.848507 
L 397.022857 -381.345524 
L 392.908571 -378.842541 
L 388.794286 -376.339559 
L 384.68 -373.836576 
L 380.565714 -371.333593 
L 376.451429 -368.83061 
L 372.337143 -366.327627 
L 368.222857 -363.824644 
L 364.108571 -361.321661 
L 359.994286 -358.818678 
L 355.88 -356.315695 
L 351.765714 -353.812712 
L 347.651429 -351.30973 
L 343.537143 -348.806747 
L 339.422857 -346.303764 
L 335.308571 -343.800781 
L 331.194286 -341.297798 
L 327.08 -338.794815 
z
" style="stroke: #000000"/>
    </defs>
    <g clip-path="url(#p6e4fc797bb)">
     <use xlink:href="#me6c8ddba3a" x="0" y="552.38" style="fill: #a0a0a0; stroke: #000000"/>
    </g>
   </g>
   <g id="PolyCollection_4">
    <defs>
     <path id="me873ec3b75" d="M 327.08 -285.214141 
L 327.08 -279.48875 
L 331.194286 -279.48875 
L 335.308571 -279.48875 
L 339.422857 -279.48875 
L 343.537143 -279.48875 
L 347.651429 -279.48875 
L 351.765714 -279.48875 
L 355.88 -279.48875 
L 359.994286 -279.48875 
L 364.108571 -279.48875 
L 368.222857 -279.48875 
L 372.337143 -279.48875 
L 376.451429 -279.48875 
L 380.565714 -279.48875 
L 384.68 -279.48875 
L 388.794286 -279.48875 
L 392.908571 -279.48875 
L 397.022857 -279.48875 
L 401.137143 -279.48875 
L 405.251429 -279.48875 
L 409.365714 -279.48875 
L 413.48 -279.48875 
L 417.594286 -279.48875 
L 421.708571 -279.48875 
L 425.822857 -279.48875 
L 429.937143 -279.48875 
L 434.051429 -279.48875 
L 438.165714 -279.48875 
L 442.28 -279.48875 
L 446.394286 -279.48875 
L 450.508571 -279.48875 
L 454.622857 -279.48875 
L 458.737143 -279.48875 
L 462.851429 -279.48875 
L 466.965714 -279.48875 
L 471.08 -279.48875 
L 475.194286 -279.48875 
L 479.308571 -279.48875 
L 483.422857 -279.48875 
L 487.537143 -279.48875 
L 491.651429 -279.48875 
L 495.765714 -279.48875 
L 499.88 -279.48875 
L 503.994286 -279.48875 
L 508.108571 -279.48875 
L 512.222857 -279.48875 
L 516.337143 -279.48875 
L 520.451429 -279.48875 
L 524.565714 -279.48875 
L 528.68 -279.48875 
L 532.794286 -279.48875 
L 536.908571 -279.48875 
L 541.022857 -279.48875 
L 545.137143 -279.48875 
L 549.251429 -279.48875 
L 553.365714 -279.48875 
L 557.48 -279.48875 
L 561.594286 -279.48875 
L 565.708571 -279.48875 
L 569.822857 -279.48875 
L 573.937143 -279.48875 
L 578.051429 -279.48875 
L 582.165714 -279.48875 
L 586.28 -279.48875 
L 590.394286 -279.48875 
L 594.508571 -279.48875 
L 598.622857 -279.48875 
L 602.737143 -279.48875 
L 606.851429 -279.48875 
L 610.965714 -279.48875 
L 615.08 -279.48875 
L 615.08 -423.629096 
L 615.08 -423.629096 
L 610.965714 -421.651739 
L 606.851429 -419.674383 
L 602.737143 -417.697026 
L 598.622857 -415.71967 
L 594.508571 -413.742313 
L 590.394286 -411.764957 
L 586.28 -409.7876 
L 582.165714 -407.810244 
L 578.051429 -405.832887 
L 573.937143 -403.855531 
L 569.822857 -401.878174 
L 565.708571 -399.900818 
L 561.594286 -397.923461 
L 557.48 -395.946105 
L 553.365714 -393.968748 
L 549.251429 -391.991392 
L 545.137143 -390.014035 
L 541.022857 -388.036679 
L 536.908571 -386.059322 
L 532.794286 -384.081966 
L 528.68 -382.104609 
L 524.565714 -380.127253 
L 520.451429 -378.149896 
L 516.337143 -376.17254 
L 512.222857 -374.195183 
L 508.108571 -372.217827 
L 503.994286 -370.24047 
L 499.88 -368.263114 
L 495.765714 -366.285757 
L 491.651429 -364.308401 
L 487.537143 -362.331044 
L 483.422857 -360.353688 
L 479.308571 -358.376331 
L 475.194286 -356.398975 
L 471.08 -354.421619 
L 466.965714 -352.444262 
L 462.851429 -350.466906 
L 458.737143 -348.489549 
L 454.622857 -346.512193 
L 450.508571 -344.534836 
L 446.394286 -342.55748 
L 442.28 -340.580123 
L 438.165714 -338.602767 
L 434.051429 -336.62541 
L 429.937143 -334.648054 
L 425.822857 -332.670697 
L 421.708571 -330.693341 
L 417.594286 -328.715984 
L 413.48 -326.738628 
L 409.365714 -324.761271 
L 405.251429 -322.783915 
L 401.137143 -320.806558 
L 397.022857 -318.829202 
L 392.908571 -316.851845 
L 388.794286 -314.874489 
L 384.68 -312.897132 
L 380.565714 -310.919776 
L 376.451429 -308.942419 
L 372.337143 -306.965063 
L 368.222857 -304.987706 
L 364.108571 -303.01035 
L 359.994286 -301.032993 
L 355.88 -299.055637 
L 351.765714 -297.07828 
L 347.651429 -295.100924 
L 343.537143 -293.123567 
L 339.422857 -291.146211 
L 335.308571 -289.168854 
L 331.194286 -287.191498 
L 327.08 -285.214141 
z
" style="stroke: #000000"/>
    </defs>
    <g clip-path="url(#p6e4fc797bb)">
     <use xlink:href="#me873ec3b75" x="0" y="552.38" style="fill: #00a6d6; stroke: #000000"/>
    </g>
   </g>
   <g id="matplotlib.axis_3">
    <g id="xtick_8"/>
    <g id="xtick_9"/>
    <g id="xtick_10"/>
    <g id="xtick_11"/>
    <g id="xtick_12"/>
    <g id="xtick_13"/>
    <g id="xtick_14"/>
    <g id="xtick_15"/>
   </g>
   <g id="matplotlib.axis_4">
    <g id="ytick_7"/>
    <g id="ytick_8"/>
    <g id="ytick_9"/>
    <g id="ytick_10"/>
    <g id="ytick_11"/>
   </g>
   <g id="line2d_8">
    <path d="M 327.08 200.160443 
L 331.194286 199.326875 
L 335.308571 198.214912 
L 339.422857 196.972951 
L 343.537143 195.642075 
L 347.651429 194.235284 
L 351.765714 192.758197 
L 355.88 191.214307 
L 359.994286 189.606157 
L 364.108571 187.935406 
L 368.222857 186.202532 
L 372.337143 184.406379 
L 376.451429 182.54361 
L 380.565714 180.608156 
L 384.68 178.590761 
L 388.794286 176.478782 
L 392.908571 174.256413 
L 397.022857 171.90547 
L 401.137143 169.406812 
L 405.251429 166.742328 
L 409.365714 163.897263 
L 413.48 160.862488 
L 417.594286 157.63631 
L 421.708571 154.22542 
L 425.822857 150.644854 
L 429.937143 146.917262 
L 434.051429 143.072435 
L 438.165714 139.149312 
L 442.28 135.204764 
L 446.394286 131.334438 
L 450.508571 127.695139 
L 454.622857 124.463241 
L 458.737143 121.697278 
L 462.851429 119.299221 
L 466.965714 117.129867 
L 471.08 115.090265 
L 475.194286 113.128352 
L 479.308571 111.221624 
L 483.422857 109.362461 
L 487.537143 107.550011 
L 491.651429 105.786467 
L 495.765714 104.07569 
L 499.88 102.423064 
L 503.994286 100.836241 
L 508.108571 99.326833 
L 512.222857 97.913424 
L 516.337143 96.626405 
L 520.451429 95.515202 
L 524.565714 94.658161 
L 528.68 94.174746 
L 532.794286 94.238364 
L 536.908571 95.08638 
L 541.022857 97.02185 
L 545.137143 100.400129 
L 549.251429 105.594065 
L 553.365714 112.935123 
L 557.48 122.635098 
L 561.594286 134.702798 
L 565.708571 148.878914 
L 569.822857 164.615394 
L 573.937143 181.11885 
L 578.051429 197.46013 
L 582.165714 212.728977 
L 586.28 226.193246 
L 590.394286 237.416418 
L 594.508571 246.299811 
L 598.622857 253.042543 
L 602.737143 258.040995 
L 606.851429 261.766983 
L 610.965714 264.663451 
L 615.08 267.165859 
" clip-path="url(#p6e4fc797bb)" style="fill: none; stroke: #000000; stroke-width: 3; stroke-linecap: square"/>
   </g>
   <g id="patch_9">
    <path d="M 327.08 272.89125 
L 327.08 28.09125 
" style="fill: none; stroke: #000000; stroke-linejoin: miter; stroke-linecap: square"/>
   </g>
   <g id="patch_10">
    <path d="M 615.08 272.89125 
L 615.08 28.09125 
" style="fill: none; stroke: #000000; stroke-linejoin: miter; stroke-linecap: square"/>
   </g>
   <g id="patch_11">
    <path d="M 327.08 272.89125 
L 615.08 272.89125 
" style="fill: none; stroke: #000000; stroke-linejoin: miter; stroke-linecap: square"/>
   </g>
   <g id="patch_12">
    <path d="M 327.08 28.09125 
L 615.08 28.09125 
" style="fill: none; stroke: #000000; stroke-linejoin: miter; stroke-linecap: square"/>
   </g>
   <g id="text_9">
    <g id="patch_13">
     <path d="M 343.651429 67.276406 
L 411.651429 67.276406 
L 411.651429 50.106094 
L 343.651429 50.106094 
z
" style="fill: #ffffff; opacity: 0.85; stroke: #000000; stroke-linejoin: miter"/>
    </g>
    <text style="font: 10px 'Source Code Pro'; text-anchor: start" x="347.651429" y="61.226406" transform="rotate(-0, 347.651429, 61.226406)">B (15 min)</text>
   </g>
  </g>
  <g id="axes_3">
   <g id="patch_14">
    <path d="M 39.08 517.69125 
L 327.08 517.69125 
L 327.08 272.89125 
L 39.08 272.89125 
z
" style="fill: #ffffff"/>
   </g>
   <g id="PolyCollection_5">
    <defs>
     <path id="m06b0b7627f" d="M 39.08 -93.994815 
L 39.08 -279.48875 
L 43.194286 -279.48875 
L 47.308571 -279.48875 
L 51.422857 -279.48875 
L 55.537143 -279.48875 
L 59.651429 -279.48875 
L 63.765714 -279.48875 
L 67.88 -279.48875 
L 71.994286 -279.48875 
L 76.108571 -279.48875 
L 80.222857 -279.48875 
L 84.337143 -279.48875 
L 88.451429 -279.48875 
L 92.565714 -279.48875 
L 96.68 -279.48875 
L 100.794286 -279.48875 
L 104.908571 -279.48875 
L 109.022857 -279.48875 
L 113.137143 -279.48875 
L 117.251429 -279.48875 
L 121.365714 -279.48875 
L 125.48 -279.48875 
L 129.594286 -279.48875 
L 133.708571 -279.48875 
L 137.822857 -279.48875 
L 141.937143 -279.48875 
L 146.051429 -279.48875 
L 150.165714 -279.48875 
L 154.28 -279.48875 
L 158.394286 -279.48875 
L 162.508571 -279.48875 
L 166.622857 -279.48875 
L 170.737143 -279.48875 
L 174.851429 -279.48875 
L 178.965714 -279.48875 
L 183.08 -279.48875 
L 187.194286 -279.48875 
L 191.308571 -279.48875 
L 195.422857 -279.48875 
L 199.537143 -279.48875 
L 203.651429 -279.48875 
L 207.765714 -279.48875 
L 211.88 -279.48875 
L 215.994286 -279.48875 
L 220.108571 -279.48875 
L 224.222857 -279.48875 
L 228.337143 -279.48875 
L 232.451429 -279.48875 
L 236.565714 -279.48875 
L 240.68 -279.48875 
L 244.794286 -279.48875 
L 248.908571 -279.48875 
L 253.022857 -279.48875 
L 257.137143 -279.48875 
L 261.251429 -279.48875 
L 265.365714 -279.48875 
L 269.48 -279.48875 
L 273.594286 -279.48875 
L 277.708571 -279.48875 
L 281.822857 -279.48875 
L 285.937143 -279.48875 
L 290.051429 -279.48875 
L 294.165714 -279.48875 
L 298.28 -279.48875 
L 302.394286 -279.48875 
L 306.508571 -279.48875 
L 310.622857 -279.48875 
L 314.737143 -279.48875 
L 318.851429 -279.48875 
L 322.965714 -279.48875 
L 327.08 -279.48875 
L 327.08 -269.203618 
L 327.08 -269.203618 
L 322.965714 -266.700635 
L 318.851429 -264.197652 
L 314.737143 -261.694669 
L 310.622857 -259.191686 
L 306.508571 -256.688703 
L 302.394286 -254.185721 
L 298.28 -251.682738 
L 294.165714 -249.179755 
L 290.051429 -246.676772 
L 285.937143 -244.173789 
L 281.822857 -241.670806 
L 277.708571 -239.167823 
L 273.594286 -236.66484 
L 269.48 -234.161857 
L 265.365714 -231.658874 
L 261.251429 -229.155892 
L 257.137143 -226.652909 
L 253.022857 -224.149926 
L 248.908571 -221.646943 
L 244.794286 -219.14396 
L 240.68 -216.640977 
L 236.565714 -214.137994 
L 232.451429 -211.635011 
L 228.337143 -209.132028 
L 224.222857 -206.629045 
L 220.108571 -204.126063 
L 215.994286 -201.62308 
L 211.88 -199.120097 
L 207.765714 -196.617114 
L 203.651429 -194.114131 
L 199.537143 -191.611148 
L 195.422857 -189.108165 
L 191.308571 -186.605182 
L 187.194286 -184.102199 
L 183.08 -181.599216 
L 178.965714 -179.096234 
L 174.851429 -176.593251 
L 170.737143 -174.090268 
L 166.622857 -171.587285 
L 162.508571 -169.084302 
L 158.394286 -166.581319 
L 154.28 -164.078336 
L 150.165714 -161.575353 
L 146.051429 -159.07237 
L 141.937143 -156.569387 
L 137.822857 -154.066405 
L 133.708571 -151.563422 
L 129.594286 -149.060439 
L 125.48 -146.557456 
L 121.365714 -144.054473 
L 117.251429 -141.55149 
L 113.137143 -139.048507 
L 109.022857 -136.545524 
L 104.908571 -134.042541 
L 100.794286 -131.539559 
L 96.68 -129.036576 
L 92.565714 -126.533593 
L 88.451429 -124.03061 
L 84.337143 -121.527627 
L 80.222857 -119.024644 
L 76.108571 -116.521661 
L 71.994286 -114.018678 
L 67.88 -111.515695 
L 63.765714 -109.012712 
L 59.651429 -106.50973 
L 55.537143 -104.006747 
L 51.422857 -101.503764 
L 47.308571 -99.000781 
L 43.194286 -96.497798 
L 39.08 -93.994815 
z
" style="stroke: #000000"/>
    </defs>
    <g clip-path="url(#p40848e4da5)">
     <use xlink:href="#m06b0b7627f" x="0" y="552.38" style="fill: #a0a0a0; stroke: #000000"/>
    </g>
   </g>
   <g id="PolyCollection_6">
    <defs>
     <path id="m5e4e7e713e" d="M 39.08 -40.414141 
L 39.08 -34.68875 
L 43.194286 -34.68875 
L 47.308571 -34.68875 
L 51.422857 -34.68875 
L 55.537143 -34.68875 
L 59.651429 -34.68875 
L 63.765714 -34.68875 
L 67.88 -34.68875 
L 71.994286 -34.68875 
L 76.108571 -34.68875 
L 80.222857 -34.68875 
L 84.337143 -34.68875 
L 88.451429 -34.68875 
L 92.565714 -34.68875 
L 96.68 -34.68875 
L 100.794286 -34.68875 
L 104.908571 -34.68875 
L 109.022857 -34.68875 
L 113.137143 -34.68875 
L 117.251429 -34.68875 
L 121.365714 -34.68875 
L 125.48 -34.68875 
L 129.594286 -34.68875 
L 133.708571 -34.68875 
L 137.822857 -34.68875 
L 141.937143 -34.68875 
L 146.051429 -34.68875 
L 150.165714 -34.68875 
L 154.28 -34.68875 
L 158.394286 -34.68875 
L 162.508571 -34.68875 
L 166.622857 -34.68875 
L 170.737143 -34.68875 
L 174.851429 -34.68875 
L 178.965714 -34.68875 
L 183.08 -34.68875 
L 187.194286 -34.68875 
L 191.308571 -34.68875 
L 195.422857 -34.68875 
L 199.537143 -34.68875 
L 203.651429 -34.68875 
L 207.765714 -34.68875 
L 211.88 -34.68875 
L 215.994286 -34.68875 
L 220.108571 -34.68875 
L 224.222857 -34.68875 
L 228.337143 -34.68875 
L 232.451429 -34.68875 
L 236.565714 -34.68875 
L 240.68 -34.68875 
L 244.794286 -34.68875 
L 248.908571 -34.68875 
L 253.022857 -34.68875 
L 257.137143 -34.68875 
L 261.251429 -34.68875 
L 265.365714 -34.68875 
L 269.48 -34.68875 
L 273.594286 -34.68875 
L 277.708571 -34.68875 
L 281.822857 -34.68875 
L 285.937143 -34.68875 
L 290.051429 -34.68875 
L 294.165714 -34.68875 
L 298.28 -34.68875 
L 302.394286 -34.68875 
L 306.508571 -34.68875 
L 310.622857 -34.68875 
L 314.737143 -34.68875 
L 318.851429 -34.68875 
L 322.965714 -34.68875 
L 327.08 -34.68875 
L 327.08 -178.829096 
L 327.08 -178.829096 
L 322.965714 -176.851739 
L 318.851429 -174.874383 
L 314.737143 -172.897026 
L 310.622857 -170.91967 
L 306.508571 -168.942313 
L 302.394286 -166.964957 
L 298.28 -164.9876 
L 294.165714 -163.010244 
L 290.051429 -161.032887 
L 285.937143 -159.055531 
L 281.822857 -157.078174 
L 277.708571 -155.100818 
L 273.594286 -153.123461 
L 269.48 -151.146105 
L 265.365714 -149.168748 
L 261.251429 -147.191392 
L 257.137143 -145.214035 
L 253.022857 -143.236679 
L 248.908571 -141.259322 
L 244.794286 -139.281966 
L 240.68 -137.304609 
L 236.565714 -135.327253 
L 232.451429 -133.349896 
L 228.337143 -131.37254 
L 224.222857 -129.395183 
L 220.108571 -127.417827 
L 215.994286 -125.44047 
L 211.88 -123.463114 
L 207.765714 -121.485757 
L 203.651429 -119.508401 
L 199.537143 -117.531044 
L 195.422857 -115.553688 
L 191.308571 -113.576331 
L 187.194286 -111.598975 
L 183.08 -109.621619 
L 178.965714 -107.644262 
L 174.851429 -105.666906 
L 170.737143 -103.689549 
L 166.622857 -101.712193 
L 162.508571 -99.734836 
L 158.394286 -97.75748 
L 154.28 -95.780123 
L 150.165714 -93.802767 
L 146.051429 -91.82541 
L 141.937143 -89.848054 
L 137.822857 -87.870697 
L 133.708571 -85.893341 
L 129.594286 -83.915984 
L 125.48 -81.938628 
L 121.365714 -79.961271 
L 117.251429 -77.983915 
L 113.137143 -76.006558 
L 109.022857 -74.029202 
L 104.908571 -72.051845 
L 100.794286 -70.074489 
L 96.68 -68.097132 
L 92.565714 -66.119776 
L 88.451429 -64.142419 
L 84.337143 -62.165063 
L 80.222857 -60.187706 
L 76.108571 -58.21035 
L 71.994286 -56.232993 
L 67.88 -54.255637 
L 63.765714 -52.27828 
L 59.651429 -50.300924 
L 55.537143 -48.323567 
L 51.422857 -46.346211 
L 47.308571 -44.368854 
L 43.194286 -42.391498 
L 39.08 -40.414141 
z
" style="stroke: #000000"/>
    </defs>
    <g clip-path="url(#p40848e4da5)">
     <use xlink:href="#m5e4e7e713e" x="0" y="552.38" style="fill: #00a6d6; stroke: #000000"/>
    </g>
   </g>
   <g id="matplotlib.axis_5">
    <g id="xtick_16">
     <g id="line2d_9">
      <defs>
       <path id="maaa774ae75" d="M 0 0 
L 0 3.5 
" style="stroke: #000000"/>
      </defs>
      <g>
       <use xlink:href="#maaa774ae75" x="39.08" y="517.69125" style="stroke: #000000"/>
      </g>
     </g>
     <g id="text_10">
      <text style="font: 12px 'Source Code Pro'; text-anchor: middle" x="39.08" y="533.235625" transform="rotate(-0, 39.08, 533.235625)">0</text>
     </g>
    </g>
    <g id="xtick_17">
     <g id="line2d_10">
      <g>
       <use xlink:href="#maaa774ae75" x="80.222857" y="517.69125" style="stroke: #000000"/>
      </g>
     </g>
     <g id="text_11">
      <text style="font: 12px 'Source Code Pro'; text-anchor: middle" x="80.222857" y="533.235625" transform="rotate(-0, 80.222857, 533.235625)">1</text>
     </g>
    </g>
    <g id="xtick_18">
     <g id="line2d_11">
      <g>
       <use xlink:href="#maaa774ae75" x="121.365714" y="517.69125" style="stroke: #000000"/>
      </g>
     </g>
     <g id="text_12">
      <text style="font: 12px 'Source Code Pro'; text-anchor: middle" x="121.365714" y="533.235625" transform="rotate(-0, 121.365714, 533.235625)">2</text>
     </g>
    </g>
    <g id="xtick_19">
     <g id="line2d_12">
      <g>
       <use xlink:href="#maaa774ae75" x="162.508571" y="517.69125" style="stroke: #000000"/>
      </g>
     </g>
     <g id="text_13">
      <text style="font: 12px 'Source Code Pro'; text-anchor: middle" x="162.508571" y="533.235625" transform="rotate(-0, 162.508571, 533.235625)">3</text>
     </g>
    </g>
    <g id="xtick_20">
     <g id="line2d_13">
      <g>
       <use xlink:href="#maaa774ae75" x="203.651429" y="517.69125" style="stroke: #000000"/>
      </g>
     </g>
     <g id="text_14">
      <text style="font: 12px 'Source Code Pro'; text-anchor: middle" x="203.651429" y="533.235625" transform="rotate(-0, 203.651429, 533.235625)">4</text>
     </g>
    </g>
    <g id="xtick_21">
     <g id="line2d_14">
      <g>
       <use xlink:href="#maaa774ae75" x="244.794286" y="517.69125" style="stroke: #000000"/>
      </g>
     </g>
     <g id="text_15">
      <text style="font: 12px 'Source Code Pro'; text-anchor: middle" x="244.794286" y="533.235625" transform="rotate(-0, 244.794286, 533.235625)">5</text>
     </g>
    </g>
    <g id="xtick_22">
     <g id="line2d_15">
      <g>
       <use xlink:href="#maaa774ae75" x="285.937143" y="517.69125" style="stroke: #000000"/>
      </g>
     </g>
     <g id="text_16">
      <text style="font: 12px 'Source Code Pro'; text-anchor: middle" x="285.937143" y="533.235625" transform="rotate(-0, 285.937143, 533.235625)">6</text>
     </g>
    </g>
    <g id="text_17">
     <text style="font: 12px 'Source Code Pro'; text-anchor: middle" x="183.08" y="548.48" transform="rotate(-0, 183.08, 548.48)">reactor depth (m)</text>
    </g>
   </g>
   <g id="matplotlib.axis_6">
    <g id="ytick_12">
     <g id="line2d_16">
      <g>
       <use xlink:href="#m6effad4ddd" x="39.08" y="517.69125" style="stroke: #000000"/>
      </g>
     </g>
     <g id="text_18">
      <text style="font: 12px 'Source Code Pro'; text-anchor: end" x="32.08" y="521.963437" transform="rotate(-0, 32.08, 521.963437)">16</text>
     </g>
    </g>
    <g id="ytick_13">
     <g id="line2d_17">
      <g>
       <use xlink:href="#m6effad4ddd" x="39.08" y="468.73125" style="stroke: #000000"/>
      </g>
     </g>
     <g id="text_19">
      <text style="font: 12px 'Source Code Pro'; text-anchor: end" x="32.08" y="473.003437" transform="rotate(-0, 32.08, 473.003437)">20</text>
     </g>
    </g>
    <g id="ytick_14">
     <g id="line2d_18">
      <g>
       <use xlink:href="#m6effad4ddd" x="39.08" y="419.77125" style="stroke: #000000"/>
      </g>
     </g>
     <g id="text_20">
      <text style="font: 12px 'Source Code Pro'; text-anchor: end" x="32.08" y="424.043437" transform="rotate(-0, 32.08, 424.043437)">24</text>
     </g>
    </g>
    <g id="ytick_15">
     <g id="line2d_19">
      <g>
       <use xlink:href="#m6effad4ddd" x="39.08" y="370.81125" style="stroke: #000000"/>
      </g>
     </g>
     <g id="text_21">
      <text style="font: 12px 'Source Code Pro'; text-anchor: end" x="32.08" y="375.083437" transform="rotate(-0, 32.08, 375.083437)">28</text>
     </g>
    </g>
    <g id="ytick_16">
     <g id="line2d_20">
      <g>
       <use xlink:href="#m6effad4ddd" x="39.08" y="321.85125" style="stroke: #000000"/>
      </g>
     </g>
     <g id="text_22">
      <text style="font: 12px 'Source Code Pro'; text-anchor: end" x="32.08" y="326.123437" transform="rotate(-0, 32.08, 326.123437)">32</text>
     </g>
    </g>
    <g id="text_23">
     <!-- $conc.\ (mg\ L^{-1})$ -->
     <g transform="translate(10.92 439.69125)rotate(-90)">
      <text>
       <tspan style="font: 12px 'Source Code Pro'" x="0 7.199997 14.399994 21.599991 28.799988 39.839959 47.039956 54.239953 63.839925 81.513316" y="-0.5609375000000014">conc.(mgL)</tspan>
       <tspan style="font: 8.4px 'Source Code Pro'" x="71.141914 76.181912" y="-4.640625000000001">−1</tspan>
      </text>
     </g>
    </g>
   </g>
   <g id="line2d_21">
    <path d="M 39.08 429.683025 
L 43.194286 428.323715 
L 47.308571 426.529704 
L 51.422857 424.548861 
L 55.537143 422.443201 
L 59.651429 420.223324 
L 63.765714 417.885536 
L 67.88 415.422434 
L 71.994286 412.826307 
L 76.108571 410.090575 
L 80.222857 407.210675 
L 84.337143 404.184701 
L 88.451429 401.013835 
L 92.565714 397.70256 
L 96.68 394.25861 
L 100.794286 390.692681 
L 104.908571 387.017921 
L 109.022857 383.249275 
L 113.137143 379.402736 
L 117.251429 375.494618 
L 121.365714 371.540899 
L 125.48 367.556712 
L 129.594286 363.556037 
L 133.708571 359.551632 
L 137.822857 355.555314 
L 141.937143 351.578831 
L 146.051429 347.636 
L 150.165714 343.74785 
L 154.28 339.954586 
L 158.394286 336.33927 
L 162.508571 333.052562 
L 166.622857 330.273025 
L 170.737143 328.07138 
L 174.851429 326.373417 
L 178.965714 325.077133 
L 183.08 324.135983 
L 187.194286 323.567175 
L 191.308571 323.435348 
L 195.422857 323.837638 
L 199.537143 324.893285 
L 203.651429 326.734954 
L 207.765714 329.499158 
L 211.88 333.314561 
L 215.994286 338.288062 
L 220.108571 344.489629 
L 224.222857 351.937556 
L 228.337143 360.586388 
L 232.451429 370.319859 
L 236.565714 380.950865 
L 240.68 392.22965 
L 244.794286 403.860108 
L 248.908571 415.522732 
L 253.022857 426.901363 
L 257.137143 437.710103 
L 261.251429 447.71652 
L 265.365714 456.757886 
L 269.48 464.748444 
L 273.594286 471.677291 
L 277.708571 477.598102 
L 281.822857 482.613161 
L 285.937143 486.854802 
L 290.051429 490.467294 
L 294.165714 493.591588 
L 298.28 496.354346 
L 302.394286 498.861639 
L 306.508571 501.196846 
L 310.622857 503.421731 
L 314.737143 505.579489 
L 318.851429 507.698643 
L 322.965714 509.796962 
L 327.08 511.965859 
" clip-path="url(#p40848e4da5)" style="fill: none; stroke: #000000; stroke-width: 3; stroke-linecap: square"/>
   </g>
   <g id="patch_15">
    <path d="M 39.08 517.69125 
L 39.08 272.89125 
" style="fill: none; stroke: #000000; stroke-linejoin: miter; stroke-linecap: square"/>
   </g>
   <g id="patch_16">
    <path d="M 327.08 517.69125 
L 327.08 272.89125 
" style="fill: none; stroke: #000000; stroke-linejoin: miter; stroke-linecap: square"/>
   </g>
   <g id="patch_17">
    <path d="M 39.08 517.69125 
L 327.08 517.69125 
" style="fill: none; stroke: #000000; stroke-linejoin: miter; stroke-linecap: square"/>
   </g>
   <g id="patch_18">
    <path d="M 39.08 272.89125 
L 327.08 272.89125 
" style="fill: none; stroke: #000000; stroke-linejoin: miter; stroke-linecap: square"/>
   </g>
   <g id="text_24">
    <g id="patch_19">
     <path d="M 55.651429 312.076406 
L 123.651429 312.076406 
L 123.651429 294.906094 
L 55.651429 294.906094 
z
" style="fill: #ffffff; opacity: 0.85; stroke: #000000; stroke-linejoin: miter"/>
    </g>
    <text style="font: 10px 'Source Code Pro'; text-anchor: start" x="59.651429" y="306.026406" transform="rotate(-0, 59.651429, 306.026406)">C (30 min)</text>
   </g>
  </g>
  <g id="axes_4">
   <g id="patch_20">
    <path d="M 327.08 517.69125 
L 615.08 517.69125 
L 615.08 272.89125 
L 327.08 272.89125 
z
" style="fill: #ffffff"/>
   </g>
   <g id="PolyCollection_7">
    <defs>
     <path id="mc47a7b5555" d="M 327.08 -93.994815 
L 327.08 -279.48875 
L 331.194286 -279.48875 
L 335.308571 -279.48875 
L 339.422857 -279.48875 
L 343.537143 -279.48875 
L 347.651429 -279.48875 
L 351.765714 -279.48875 
L 355.88 -279.48875 
L 359.994286 -279.48875 
L 364.108571 -279.48875 
L 368.222857 -279.48875 
L 372.337143 -279.48875 
L 376.451429 -279.48875 
L 380.565714 -279.48875 
L 384.68 -279.48875 
L 388.794286 -279.48875 
L 392.908571 -279.48875 
L 397.022857 -279.48875 
L 401.137143 -279.48875 
L 405.251429 -279.48875 
L 409.365714 -279.48875 
L 413.48 -279.48875 
L 417.594286 -279.48875 
L 421.708571 -279.48875 
L 425.822857 -279.48875 
L 429.937143 -279.48875 
L 434.051429 -279.48875 
L 438.165714 -279.48875 
L 442.28 -279.48875 
L 446.394286 -279.48875 
L 450.508571 -279.48875 
L 454.622857 -279.48875 
L 458.737143 -279.48875 
L 462.851429 -279.48875 
L 466.965714 -279.48875 
L 471.08 -279.48875 
L 475.194286 -279.48875 
L 479.308571 -279.48875 
L 483.422857 -279.48875 
L 487.537143 -279.48875 
L 491.651429 -279.48875 
L 495.765714 -279.48875 
L 499.88 -279.48875 
L 503.994286 -279.48875 
L 508.108571 -279.48875 
L 512.222857 -279.48875 
L 516.337143 -279.48875 
L 520.451429 -279.48875 
L 524.565714 -279.48875 
L 528.68 -279.48875 
L 532.794286 -279.48875 
L 536.908571 -279.48875 
L 541.022857 -279.48875 
L 545.137143 -279.48875 
L 549.251429 -279.48875 
L 553.365714 -279.48875 
L 557.48 -279.48875 
L 561.594286 -279.48875 
L 565.708571 -279.48875 
L 569.822857 -279.48875 
L 573.937143 -279.48875 
L 578.051429 -279.48875 
L 582.165714 -279.48875 
L 586.28 -279.48875 
L 590.394286 -279.48875 
L 594.508571 -279.48875 
L 598.622857 -279.48875 
L 602.737143 -279.48875 
L 606.851429 -279.48875 
L 610.965714 -279.48875 
L 615.08 -279.48875 
L 615.08 -269.203618 
L 615.08 -269.203618 
L 610.965714 -266.700635 
L 606.851429 -264.197652 
L 602.737143 -261.694669 
L 598.622857 -259.191686 
L 594.508571 -256.688703 
L 590.394286 -254.185721 
L 586.28 -251.682738 
L 582.165714 -249.179755 
L 578.051429 -246.676772 
L 573.937143 -244.173789 
L 569.822857 -241.670806 
L 565.708571 -239.167823 
L 561.594286 -236.66484 
L 557.48 -234.161857 
L 553.365714 -231.658874 
L 549.251429 -229.155892 
L 545.137143 -226.652909 
L 541.022857 -224.149926 
L 536.908571 -221.646943 
L 532.794286 -219.14396 
L 528.68 -216.640977 
L 524.565714 -214.137994 
L 520.451429 -211.635011 
L 516.337143 -209.132028 
L 512.222857 -206.629045 
L 508.108571 -204.126063 
L 503.994286 -201.62308 
L 499.88 -199.120097 
L 495.765714 -196.617114 
L 491.651429 -194.114131 
L 487.537143 -191.611148 
L 483.422857 -189.108165 
L 479.308571 -186.605182 
L 475.194286 -184.102199 
L 471.08 -181.599216 
L 466.965714 -179.096234 
L 462.851429 -176.593251 
L 458.737143 -174.090268 
L 454.622857 -171.587285 
L 450.508571 -169.084302 
L 446.394286 -166.581319 
L 442.28 -164.078336 
L 438.165714 -161.575353 
L 434.051429 -159.07237 
L 429.937143 -156.569387 
L 425.822857 -154.066405 
L 421.708571 -151.563422 
L 417.594286 -149.060439 
L 413.48 -146.557456 
L 409.365714 -144.054473 
L 405.251429 -141.55149 
L 401.137143 -139.048507 
L 397.022857 -136.545524 
L 392.908571 -134.042541 
L 388.794286 -131.539559 
L 384.68 -129.036576 
L 380.565714 -126.533593 
L 376.451429 -124.03061 
L 372.337143 -121.527627 
L 368.222857 -119.024644 
L 364.108571 -116.521661 
L 359.994286 -114.018678 
L 355.88 -111.515695 
L 351.765714 -109.012712 
L 347.651429 -106.50973 
L 343.537143 -104.006747 
L 339.422857 -101.503764 
L 335.308571 -99.000781 
L 331.194286 -96.497798 
L 327.08 -93.994815 
z
" style="stroke: #000000"/>
    </defs>
    <g clip-path="url(#pce2941c8ef)">
     <use xlink:href="#mc47a7b5555" x="0" y="552.38" style="fill: #a0a0a0; stroke: #000000"/>
    </g>
   </g>
   <g id="PolyCollection_8">
    <defs>
     <path id="mb0ada8692d" d="M 327.08 -40.414141 
L 327.08 -34.68875 
L 331.194286 -34.68875 
L 335.308571 -34.68875 
L 339.422857 -34.68875 
L 343.537143 -34.68875 
L 347.651429 -34.68875 
L 351.765714 -34.68875 
L 355.88 -34.68875 
L 359.994286 -34.68875 
L 364.108571 -34.68875 
L 368.222857 -34.68875 
L 372.337143 -34.68875 
L 376.451429 -34.68875 
L 380.565714 -34.68875 
L 384.68 -34.68875 
L 388.794286 -34.68875 
L 392.908571 -34.68875 
L 397.022857 -34.68875 
L 401.137143 -34.68875 
L 405.251429 -34.68875 
L 409.365714 -34.68875 
L 413.48 -34.68875 
L 417.594286 -34.68875 
L 421.708571 -34.68875 
L 425.822857 -34.68875 
L 429.937143 -34.68875 
L 434.051429 -34.68875 
L 438.165714 -34.68875 
L 442.28 -34.68875 
L 446.394286 -34.68875 
L 450.508571 -34.68875 
L 454.622857 -34.68875 
L 458.737143 -34.68875 
L 462.851429 -34.68875 
L 466.965714 -34.68875 
L 471.08 -34.68875 
L 475.194286 -34.68875 
L 479.308571 -34.68875 
L 483.422857 -34.68875 
L 487.537143 -34.68875 
L 491.651429 -34.68875 
L 495.765714 -34.68875 
L 499.88 -34.68875 
L 503.994286 -34.68875 
L 508.108571 -34.68875 
L 512.222857 -34.68875 
L 516.337143 -34.68875 
L 520.451429 -34.68875 
L 524.565714 -34.68875 
L 528.68 -34.68875 
L 532.794286 -34.68875 
L 536.908571 -34.68875 
L 541.022857 -34.68875 
L 545.137143 -34.68875 
L 549.251429 -34.68875 
L 553.365714 -34.68875 
L 557.48 -34.68875 
L 561.594286 -34.68875 
L 565.708571 -34.68875 
L 569.822857 -34.68875 
L 573.937143 -34.68875 
L 578.051429 -34.68875 
L 582.165714 -34.68875 
L 586.28 -34.68875 
L 590.394286 -34.68875 
L 594.508571 -34.68875 
L 598.622857 -34.68875 
L 602.737143 -34.68875 
L 606.851429 -34.68875 
L 610.965714 -34.68875 
L 615.08 -34.68875 
L 615.08 -178.829096 
L 615.08 -178.829096 
L 610.965714 -176.851739 
L 606.851429 -174.874383 
L 602.737143 -172.897026 
L 598.622857 -170.91967 
L 594.508571 -168.942313 
L 590.394286 -166.964957 
L 586.28 -164.9876 
L 582.165714 -163.010244 
L 578.051429 -161.032887 
L 573.937143 -159.055531 
L 569.822857 -157.078174 
L 565.708571 -155.100818 
L 561.594286 -153.123461 
L 557.48 -151.146105 
L 553.365714 -149.168748 
L 549.251429 -147.191392 
L 545.137143 -145.214035 
L 541.022857 -143.236679 
L 536.908571 -141.259322 
L 532.794286 -139.281966 
L 528.68 -137.304609 
L 524.565714 -135.327253 
L 520.451429 -133.349896 
L 516.337143 -131.37254 
L 512.222857 -129.395183 
L 508.108571 -127.417827 
L 503.994286 -125.44047 
L 499.88 -123.463114 
L 495.765714 -121.485757 
L 491.651429 -119.508401 
L 487.537143 -117.531044 
L 483.422857 -115.553688 
L 479.308571 -113.576331 
L 475.194286 -111.598975 
L 471.08 -109.621619 
L 466.965714 -107.644262 
L 462.851429 -105.666906 
L 458.737143 -103.689549 
L 454.622857 -101.712193 
L 450.508571 -99.734836 
L 446.394286 -97.75748 
L 442.28 -95.780123 
L 438.165714 -93.802767 
L 434.051429 -91.82541 
L 429.937143 -89.848054 
L 425.822857 -87.870697 
L 421.708571 -85.893341 
L 417.594286 -83.915984 
L 413.48 -81.938628 
L 409.365714 -79.961271 
L 405.251429 -77.983915 
L 401.137143 -76.006558 
L 397.022857 -74.029202 
L 392.908571 -72.051845 
L 388.794286 -70.074489 
L 384.68 -68.097132 
L 380.565714 -66.119776 
L 376.451429 -64.142419 
L 372.337143 -62.165063 
L 368.222857 -60.187706 
L 364.108571 -58.21035 
L 359.994286 -56.232993 
L 355.88 -54.255637 
L 351.765714 -52.27828 
L 347.651429 -50.300924 
L 343.537143 -48.323567 
L 339.422857 -46.346211 
L 335.308571 -44.368854 
L 331.194286 -42.391498 
L 327.08 -40.414141 
z
" style="stroke: #000000"/>
    </defs>
    <g clip-path="url(#pce2941c8ef)">
     <use xlink:href="#mb0ada8692d" x="0" y="552.38" style="fill: #00a6d6; stroke: #000000"/>
    </g>
   </g>
   <g id="matplotlib.axis_7">
    <g id="xtick_23">
     <g id="line2d_22">
      <g>
       <use xlink:href="#maaa774ae75" x="327.08" y="517.69125" style="stroke: #000000"/>
      </g>
     </g>
     <g id="text_25">
      <text style="font: 12px 'Source Code Pro'; text-anchor: middle" x="327.08" y="533.235625" transform="rotate(-0, 327.08, 533.235625)">0</text>
     </g>
    </g>
    <g id="xtick_24">
     <g id="line2d_23">
      <g>
       <use xlink:href="#maaa774ae75" x="368.222857" y="517.69125" style="stroke: #000000"/>
      </g>
     </g>
     <g id="text_26">
      <text style="font: 12px 'Source Code Pro'; text-anchor: middle" x="368.222857" y="533.235625" transform="rotate(-0, 368.222857, 533.235625)">1</text>
     </g>
    </g>
    <g id="xtick_25">
     <g id="line2d_24">
      <g>
       <use xlink:href="#maaa774ae75" x="409.365714" y="517.69125" style="stroke: #000000"/>
      </g>
     </g>
     <g id="text_27">
      <text style="font: 12px 'Source Code Pro'; text-anchor: middle" x="409.365714" y="533.235625" transform="rotate(-0, 409.365714, 533.235625)">2</text>
     </g>
    </g>
    <g id="xtick_26">
     <g id="line2d_25">
      <g>
       <use xlink:href="#maaa774ae75" x="450.508571" y="517.69125" style="stroke: #000000"/>
      </g>
     </g>
     <g id="text_28">
      <text style="font: 12px 'Source Code Pro'; text-anchor: middle" x="450.508571" y="533.235625" transform="rotate(-0, 450.508571, 533.235625)">3</text>
     </g>
    </g>
    <g id="xtick_27">
     <g id="line2d_26">
      <g>
       <use xlink:href="#maaa774ae75" x="491.651429" y="517.69125" style="stroke: #000000"/>
      </g>
     </g>
     <g id="text_29">
      <text style="font: 12px 'Source Code Pro'; text-anchor: middle" x="491.651429" y="533.235625" transform="rotate(-0, 491.651429, 533.235625)">4</text>
     </g>
    </g>
    <g id="xtick_28">
     <g id="line2d_27">
      <g>
       <use xlink:href="#maaa774ae75" x="532.794286" y="517.69125" style="stroke: #000000"/>
      </g>
     </g>
     <g id="text_30">
      <text style="font: 12px 'Source Code Pro'; text-anchor: middle" x="532.794286" y="533.235625" transform="rotate(-0, 532.794286, 533.235625)">5</text>
     </g>
    </g>
    <g id="xtick_29">
     <g id="line2d_28">
      <g>
       <use xlink:href="#maaa774ae75" x="573.937143" y="517.69125" style="stroke: #000000"/>
      </g>
     </g>
     <g id="text_31">
      <text style="font: 12px 'Source Code Pro'; text-anchor: middle" x="573.937143" y="533.235625" transform="rotate(-0, 573.937143, 533.235625)">6</text>
     </g>
    </g>
    <g id="xtick_30">
     <g id="line2d_29">
      <g>
       <use xlink:href="#maaa774ae75" x="615.08" y="517.69125" style="stroke: #000000"/>
      </g>
     </g>
     <g id="text_32">
      <text style="font: 12px 'Source Code Pro'; text-anchor: middle" x="615.08" y="533.235625" transform="rotate(-0, 615.08, 533.235625)">7</text>
     </g>
    </g>
    <g id="text_33">
     <text style="font: 12px 'Source Code Pro'; text-anchor: middle" x="471.08" y="548.48" transform="rotate(-0, 471.08, 548.48)">reactor depth (m)</text>
    </g>
   </g>
   <g id="matplotlib.axis_8">
    <g id="ytick_17"/>
    <g id="ytick_18"/>
    <g id="ytick_19"/>
    <g id="ytick_20"/>
    <g id="ytick_21"/>
   </g>
   <g id="line2d_30">
    <path d="M 327.08 393.949105 
L 331.194286 391.47895 
L 335.308571 388.257745 
L 339.422857 384.767797 
L 343.537143 381.149811 
L 347.651429 377.450866 
L 351.765714 373.692781 
L 355.88 369.890848 
L 359.994286 366.058912 
L 364.108571 362.210779 
L 368.222857 358.360702 
L 372.337143 354.523696 
L 376.451429 350.71593 
L 380.565714 346.955219 
L 384.68 343.261643 
L 388.794286 339.658273 
L 392.908571 336.171952 
L 397.022857 332.834096 
L 401.137143 329.681419 
L 405.251429 326.75651 
L 409.365714 324.108127 
L 413.48 321.791115 
L 417.594286 319.865829 
L 421.708571 318.396987 
L 425.822857 317.451984 
L 429.937143 317.098896 
L 434.051429 317.404892 
L 438.165714 318.436932 
L 442.28 320.268747 
L 446.394286 322.999273 
L 450.508571 326.772199 
L 454.622857 331.731481 
L 458.737143 337.881581 
L 462.851429 345.047489 
L 466.965714 352.990421 
L 471.08 361.49139 
L 475.194286 370.361813 
L 479.308571 379.431718 
L 483.422857 388.541747 
L 487.537143 397.542208 
L 491.651429 406.296365 
L 495.765714 414.685154 
L 499.88 422.611596 
L 503.994286 430.003915 
L 508.108571 436.816919 
L 512.222857 443.031551 
L 516.337143 448.652747 
L 520.451429 453.705964 
L 524.565714 458.232785 
L 528.68 462.286118 
L 532.794286 465.925435 
L 536.908571 469.212434 
L 541.022857 472.207415 
L 545.137143 474.966519 
L 549.251429 477.539875 
L 553.365714 479.970599 
L 557.48 482.294514 
L 561.594286 484.540433 
L 565.708571 486.730815 
L 569.822857 488.88265 
L 573.937143 491.008415 
L 578.051429 493.117006 
L 582.165714 495.214587 
L 586.28 497.305305 
L 590.394286 499.391866 
L 594.508571 501.475986 
L 598.622857 503.55872 
L 602.737143 505.640695 
L 606.851429 507.722269 
L 610.965714 509.803643 
L 615.08 511.965859 
" clip-path="url(#pce2941c8ef)" style="fill: none; stroke: #000000; stroke-width: 3; stroke-linecap: square"/>
   </g>
   <g id="patch_21">
    <path d="M 327.08 517.69125 
L 327.08 272.89125 
" style="fill: none; stroke: #000000; stroke-linejoin: miter; stroke-linecap: square"/>
   </g>
   <g id="patch_22">
    <path d="M 615.08 517.69125 
L 615.08 272.89125 
" style="fill: none; stroke: #000000; stroke-linejoin: miter; stroke-linecap: square"/>
   </g>
   <g id="patch_23">
    <path d="M 327.08 517.69125 
L 615.08 517.69125 
" style="fill: none; stroke: #000000; stroke-linejoin: miter; stroke-linecap: square"/>
   </g>
   <g id="patch_24">
    <path d="M 327.08 272.89125 
L 615.08 272.89125 
" style="fill: none; stroke: #000000; stroke-linejoin: miter; stroke-linecap: square"/>
   </g>
   <g id="text_34">
    <g id="patch_25">
     <path d="M 343.651429 312.076406 
L 411.651429 312.076406 
L 411.651429 294.906094 
L 343.651429 294.906094 
z
" style="fill: #ffffff; opacity: 0.85; stroke: #000000; stroke-linejoin: miter"/>
    </g>
    <text style="font: 10px 'Source Code Pro'; text-anchor: start" x="347.651429" y="306.026406" transform="rotate(-0, 347.651429, 306.026406)">D (50 min)</text>
   </g>
  </g>
  <g id="axes_5">
   <g id="matplotlib.axis_9"/>
   <g id="line2d_31">
    <path d="M 39.08 272.89125 
L 43.194286 272.89125 
L 47.308571 272.89125 
L 51.422857 272.89125 
L 55.537143 272.89125 
L 59.651429 272.89125 
L 63.765714 272.89125 
L 67.88 272.89125 
L 71.994286 272.89125 
L 76.108571 272.89125 
L 80.222857 272.89125 
L 84.337143 272.891249 
L 88.451429 272.891247 
L 92.565714 272.891243 
L 96.68 272.891231 
L 100.794286 272.891198 
L 104.908571 272.891108 
L 109.022857 272.890863 
L 113.137143 272.890197 
L 117.251429 272.888388 
L 121.365714 272.883471 
L 125.48 272.870105 
L 129.594286 272.833784 
L 133.708571 272.735132 
L 137.822857 272.467541 
L 141.937143 271.744363 
L 146.051429 269.809133 
L 150.165714 264.764352 
L 154.28 252.464637 
L 158.394286 226.805448 
L 162.508571 187.21125 
L 166.622857 147.617052 
L 170.737143 121.957863 
L 174.851429 109.658148 
L 178.965714 104.613367 
L 183.08 102.678137 
L 187.194286 101.954959 
L 191.308571 101.687368 
L 195.422857 101.588716 
L 199.537143 101.552395 
L 203.651429 101.539029 
L 207.765714 101.534112 
L 211.88 101.532303 
L 215.994286 101.531637 
L 220.108571 101.531392 
L 224.222857 101.531302 
L 228.337143 101.531269 
L 232.451429 101.531257 
L 236.565714 101.531253 
L 240.68 101.531251 
L 244.794286 101.53125 
L 248.908571 101.53125 
L 253.022857 101.53125 
L 257.137143 101.53125 
L 261.251429 101.53125 
L 265.365714 101.53125 
L 269.48 101.53125 
L 273.594286 101.53125 
L 277.708571 101.53125 
L 281.822857 101.53125 
L 285.937143 101.53125 
L 290.051429 101.53125 
L 294.165714 101.53125 
L 298.28 101.53125 
L 302.394286 101.53125 
L 306.508571 101.53125 
L 310.622857 101.53125 
L 314.737143 101.53125 
L 318.851429 101.53125 
L 322.965714 101.53125 
L 327.08 101.53125 
" clip-path="url(#p8693f5db00)" style="fill: none; stroke-dasharray: 11.1,4.8; stroke-dashoffset: 0; stroke: #000000; stroke-width: 3"/>
   </g>
   <g id="patch_26">
    <path d="M 39.08 272.89125 
L 39.08 28.09125 
" style="fill: none; stroke: #000000; stroke-linejoin: miter; stroke-linecap: square"/>
   </g>
   <g id="patch_27">
    <path d="M 327.08 272.89125 
L 327.08 28.09125 
" style="fill: none; stroke: #000000; stroke-linejoin: miter; stroke-linecap: square"/>
   </g>
   <g id="patch_28">
    <path d="M 39.08 272.89125 
L 327.08 272.89125 
" style="fill: none; stroke: #000000; stroke-linejoin: miter; stroke-linecap: square"/>
   </g>
   <g id="patch_29">
    <path d="M 39.08 28.09125 
L 327.08 28.09125 
" style="fill: none; stroke: #000000; stroke-linejoin: miter; stroke-linecap: square"/>
   </g>
  </g>
  <g id="axes_6">
   <g id="matplotlib.axis_10">
    <g id="ytick_22">
     <g id="line2d_32">
      <defs>
       <path id="m215b55c370" d="M 0 0 
L 3.5 0 
" style="stroke: #000000"/>
      </defs>
      <g>
       <use xlink:href="#m215b55c370" x="615.08" y="272.89125" style="stroke: #000000"/>
      </g>
     </g>
     <g id="text_35">
      <text style="font: 12px 'Source Code Pro'; text-anchor: start" x="622.08" y="277.163437" transform="rotate(-0, 622.08, 277.163437)">0</text>
     </g>
    </g>
    <g id="ytick_23">
     <g id="line2d_33">
      <g>
       <use xlink:href="#m215b55c370" x="615.08" y="223.93125" style="stroke: #000000"/>
      </g>
     </g>
     <g id="text_36">
      <text style="font: 12px 'Source Code Pro'; text-anchor: start" x="622.08" y="228.203437" transform="rotate(-0, 622.08, 228.203437)">5</text>
     </g>
    </g>
    <g id="ytick_24">
     <g id="line2d_34">
      <g>
       <use xlink:href="#m215b55c370" x="615.08" y="174.97125" style="stroke: #000000"/>
      </g>
     </g>
     <g id="text_37">
      <text style="font: 12px 'Source Code Pro'; text-anchor: start" x="622.08" y="179.243437" transform="rotate(-0, 622.08, 179.243437)">10</text>
     </g>
    </g>
    <g id="ytick_25">
     <g id="line2d_35">
      <g>
       <use xlink:href="#m215b55c370" x="615.08" y="126.01125" style="stroke: #000000"/>
      </g>
     </g>
     <g id="text_38">
      <text style="font: 12px 'Source Code Pro'; text-anchor: start" x="622.08" y="130.283437" transform="rotate(-0, 622.08, 130.283437)">15</text>
     </g>
    </g>
    <g id="ytick_26">
     <g id="line2d_36">
      <g>
       <use xlink:href="#m215b55c370" x="615.08" y="77.05125" style="stroke: #000000"/>
      </g>
     </g>
     <g id="text_39">
      <text style="font: 12px 'Source Code Pro'; text-anchor: start" x="622.08" y="81.323437" transform="rotate(-0, 622.08, 81.323437)">20</text>
     </g>
    </g>
    <g id="ytick_27">
     <g id="line2d_37">
      <g>
       <use xlink:href="#m215b55c370" x="615.08" y="28.09125" style="stroke: #000000"/>
      </g>
     </g>
     <g id="text_40">
      <text style="font: 12px 'Source Code Pro'; text-anchor: start" x="622.08" y="32.363437" transform="rotate(-0, 622.08, 32.363437)">25</text>
     </g>
    </g>
    <g id="text_41">
     <!-- $MLSS\ (g\ L^{-1})$ -->
     <g transform="translate(649.96 186.97125)rotate(-90)">
      <text>
       <tspan style="font: 12px 'Source Code Pro'" x="0 7.199997 14.399994 21.599991 31.199963 38.39996 47.999932 65.673323" y="-0.5609375000000014">MLSS(gL)</tspan>
       <tspan style="font: 8.4px 'Source Code Pro'" x="55.301921 60.341919" y="-4.640625000000001">−1</tspan>
      </text>
     </g>
    </g>
   </g>
   <g id="line2d_38">
    <path d="M 327.08 272.89125 
L 331.194286 272.89125 
L 335.308571 272.89125 
L 339.422857 272.89125 
L 343.537143 272.89125 
L 347.651429 272.89125 
L 351.765714 272.89125 
L 355.88 272.89125 
L 359.994286 272.89125 
L 364.108571 272.89125 
L 368.222857 272.89125 
L 372.337143 272.891249 
L 376.451429 272.891247 
L 380.565714 272.891243 
L 384.68 272.891231 
L 388.794286 272.891198 
L 392.908571 272.891108 
L 397.022857 272.890863 
L 401.137143 272.890197 
L 405.251429 272.888388 
L 409.365714 272.883471 
L 413.48 272.870105 
L 417.594286 272.833784 
L 421.708571 272.735132 
L 425.822857 272.467541 
L 429.937143 271.744363 
L 434.051429 269.809133 
L 438.165714 264.764352 
L 442.28 252.464637 
L 446.394286 226.805448 
L 450.508571 187.21125 
L 454.622857 147.617052 
L 458.737143 121.957863 
L 462.851429 109.658148 
L 466.965714 104.613367 
L 471.08 102.678137 
L 475.194286 101.954959 
L 479.308571 101.687368 
L 483.422857 101.588716 
L 487.537143 101.552395 
L 491.651429 101.539029 
L 495.765714 101.534112 
L 499.88 101.532303 
L 503.994286 101.531637 
L 508.108571 101.531392 
L 512.222857 101.531302 
L 516.337143 101.531269 
L 520.451429 101.531257 
L 524.565714 101.531253 
L 528.68 101.531251 
L 532.794286 101.53125 
L 536.908571 101.53125 
L 541.022857 101.53125 
L 545.137143 101.53125 
L 549.251429 101.53125 
L 553.365714 101.53125 
L 557.48 101.53125 
L 561.594286 101.53125 
L 565.708571 101.53125 
L 569.822857 101.53125 
L 573.937143 101.53125 
L 578.051429 101.53125 
L 582.165714 101.53125 
L 586.28 101.53125 
L 590.394286 101.53125 
L 594.508571 101.53125 
L 598.622857 101.53125 
L 602.737143 101.53125 
L 606.851429 101.53125 
L 610.965714 101.53125 
L 615.08 101.53125 
" clip-path="url(#p6e4fc797bb)" style="fill: none; stroke-dasharray: 11.1,4.8; stroke-dashoffset: 0; stroke: #000000; stroke-width: 3"/>
   </g>
   <g id="patch_30">
    <path d="M 327.08 272.89125 
L 327.08 28.09125 
" style="fill: none; stroke: #000000; stroke-linejoin: miter; stroke-linecap: square"/>
   </g>
   <g id="patch_31">
    <path d="M 615.08 272.89125 
L 615.08 28.09125 
" style="fill: none; stroke: #000000; stroke-linejoin: miter; stroke-linecap: square"/>
   </g>
   <g id="patch_32">
    <path d="M 327.08 272.89125 
L 615.08 272.89125 
" style="fill: none; stroke: #000000; stroke-linejoin: miter; stroke-linecap: square"/>
   </g>
   <g id="patch_33">
    <path d="M 327.08 28.09125 
L 615.08 28.09125 
" style="fill: none; stroke: #000000; stroke-linejoin: miter; stroke-linecap: square"/>
   </g>
   <g id="legend_1">
    <g id="line2d_39">
     <path d="M 110.36 10.63125 
L 122.36 10.63125 
L 134.36 10.63125 
" style="fill: none; stroke-dasharray: 11.1,4.8; stroke-dashoffset: 0; stroke: #000000; stroke-width: 3"/>
    </g>
    <g id="text_42">
     <text style="font: 12px 'Source Code Pro'; text-anchor: start" x="143.96" y="14.83125" transform="rotate(-0, 143.96, 14.83125)">MLSS</text>
    </g>
    <g id="patch_34">
     <path d="M 196.76 14.83125 
L 220.76 14.83125 
L 220.76 6.43125 
L 196.76 6.43125 
z
" style="fill: #a0a0a0; stroke: #000000; stroke-linejoin: miter"/>
    </g>
    <g id="text_43">
     <!-- above $N_2$ sat. -->
     <g transform="translate(230.36 14.83125)">
      <text>
       <tspan style="font: 12px 'Source Code Pro'" x="0 7.199997 14.399994 21.599991 28.799988 35.999985 43.199982 55.833375 63.033372 70.233369 77.433366 84.633363" y="-0.453125">above N sat.</tspan>
       <tspan style="font: 8.4px 'Source Code Pro'" x="50.501971" y="1.2953124999999996">2</tspan>
      </text>
     </g>
    </g>
    <g id="patch_35">
     <path d="M 346.28 14.83125 
L 370.28 14.83125 
L 370.28 6.43125 
L 346.28 6.43125 
z
" style="fill: #00a6d6; stroke: #000000; stroke-linejoin: miter"/>
    </g>
    <g id="text_44">
     <text style="font: 12px 'Source Code Pro'; text-anchor: start" x="379.88" y="14.83125" transform="rotate(-0, 379.88, 14.83125)">below air eq.</text>
    </g>
    <g id="line2d_40">
     <path d="M 497.48 10.63125 
L 509.48 10.63125 
L 521.48 10.63125 
" style="fill: none; stroke: #000000; stroke-width: 3; stroke-linecap: square"/>
    </g>
    <g id="text_45">
     <!-- $N_2$ -->
     <g transform="translate(531.08 14.83125)">
      <text>
       <tspan style="font: 12px 'Source Code Pro'" x="0" y="-0.125">N</tspan>
       <tspan style="font: 8.4px 'Source Code Pro'" x="7.301989" y="1.6234374999999996">2</tspan>
      </text>
     </g>
    </g>
   </g>
  </g>
  <g id="axes_7">
   <g id="matplotlib.axis_11"/>
   <g id="line2d_41">
    <path d="M 39.08 517.69125 
L 43.194286 517.69125 
L 47.308571 517.69125 
L 51.422857 517.69125 
L 55.537143 517.69125 
L 59.651429 517.69125 
L 63.765714 517.69125 
L 67.88 517.69125 
L 71.994286 517.69125 
L 76.108571 517.69125 
L 80.222857 517.69125 
L 84.337143 517.691249 
L 88.451429 517.691247 
L 92.565714 517.691243 
L 96.68 517.691231 
L 100.794286 517.691198 
L 104.908571 517.691108 
L 109.022857 517.690863 
L 113.137143 517.690197 
L 117.251429 517.688388 
L 121.365714 517.683471 
L 125.48 517.670105 
L 129.594286 517.633784 
L 133.708571 517.535132 
L 137.822857 517.267541 
L 141.937143 516.544363 
L 146.051429 514.609133 
L 150.165714 509.564352 
L 154.28 497.264637 
L 158.394286 471.605448 
L 162.508571 432.01125 
L 166.622857 392.417052 
L 170.737143 366.757863 
L 174.851429 354.458148 
L 178.965714 349.413367 
L 183.08 347.478137 
L 187.194286 346.754959 
L 191.308571 346.487368 
L 195.422857 346.388716 
L 199.537143 346.352395 
L 203.651429 346.339029 
L 207.765714 346.334112 
L 211.88 346.332303 
L 215.994286 346.331637 
L 220.108571 346.331392 
L 224.222857 346.331302 
L 228.337143 346.331269 
L 232.451429 346.331257 
L 236.565714 346.331253 
L 240.68 346.331251 
L 244.794286 346.33125 
L 248.908571 346.33125 
L 253.022857 346.33125 
L 257.137143 346.33125 
L 261.251429 346.33125 
L 265.365714 346.33125 
L 269.48 346.33125 
L 273.594286 346.33125 
L 277.708571 346.33125 
L 281.822857 346.33125 
L 285.937143 346.33125 
L 290.051429 346.33125 
L 294.165714 346.33125 
L 298.28 346.33125 
L 302.394286 346.33125 
L 306.508571 346.33125 
L 310.622857 346.33125 
L 314.737143 346.33125 
L 318.851429 346.33125 
L 322.965714 346.33125 
L 327.08 346.33125 
" clip-path="url(#p40848e4da5)" style="fill: none; stroke-dasharray: 11.1,4.8; stroke-dashoffset: 0; stroke: #000000; stroke-width: 3"/>
   </g>
   <g id="patch_36">
    <path d="M 39.08 517.69125 
L 39.08 272.89125 
" style="fill: none; stroke: #000000; stroke-linejoin: miter; stroke-linecap: square"/>
   </g>
   <g id="patch_37">
    <path d="M 327.08 517.69125 
L 327.08 272.89125 
" style="fill: none; stroke: #000000; stroke-linejoin: miter; stroke-linecap: square"/>
   </g>
   <g id="patch_38">
    <path d="M 39.08 517.69125 
L 327.08 517.69125 
" style="fill: none; stroke: #000000; stroke-linejoin: miter; stroke-linecap: square"/>
   </g>
   <g id="patch_39">
    <path d="M 39.08 272.89125 
L 327.08 272.89125 
" style="fill: none; stroke: #000000; stroke-linejoin: miter; stroke-linecap: square"/>
   </g>
  </g>
  <g id="axes_8">
   <g id="matplotlib.axis_12">
    <g id="ytick_28">
     <g id="line2d_42">
      <g>
       <use xlink:href="#m215b55c370" x="615.08" y="517.69125" style="stroke: #000000"/>
      </g>
     </g>
     <g id="text_46">
      <text style="font: 12px 'Source Code Pro'; text-anchor: start" x="622.08" y="521.963437" transform="rotate(-0, 622.08, 521.963437)">0</text>
     </g>
    </g>
    <g id="ytick_29">
     <g id="line2d_43">
      <g>
       <use xlink:href="#m215b55c370" x="615.08" y="468.73125" style="stroke: #000000"/>
      </g>
     </g>
     <g id="text_47">
      <text style="font: 12px 'Source Code Pro'; text-anchor: start" x="622.08" y="473.003437" transform="rotate(-0, 622.08, 473.003437)">5</text>
     </g>
    </g>
    <g id="ytick_30">
     <g id="line2d_44">
      <g>
       <use xlink:href="#m215b55c370" x="615.08" y="419.77125" style="stroke: #000000"/>
      </g>
     </g>
     <g id="text_48">
      <text style="font: 12px 'Source Code Pro'; text-anchor: start" x="622.08" y="424.043437" transform="rotate(-0, 622.08, 424.043437)">10</text>
     </g>
    </g>
    <g id="ytick_31">
     <g id="line2d_45">
      <g>
       <use xlink:href="#m215b55c370" x="615.08" y="370.81125" style="stroke: #000000"/>
      </g>
     </g>
     <g id="text_49">
      <text style="font: 12px 'Source Code Pro'; text-anchor: start" x="622.08" y="375.083437" transform="rotate(-0, 622.08, 375.083437)">15</text>
     </g>
    </g>
    <g id="ytick_32">
     <g id="line2d_46">
      <g>
       <use xlink:href="#m215b55c370" x="615.08" y="321.85125" style="stroke: #000000"/>
      </g>
     </g>
     <g id="text_50">
      <text style="font: 12px 'Source Code Pro'; text-anchor: start" x="622.08" y="326.123437" transform="rotate(-0, 622.08, 326.123437)">20</text>
     </g>
    </g>
    <g id="text_51">
     <!-- $MLSS\ (g\ L^{-1})$ -->
     <g transform="translate(649.96 431.77125)rotate(-90)">
      <text>
       <tspan style="font: 12px 'Source Code Pro'" x="0 7.199997 14.399994 21.599991 31.199963 38.39996 47.999932 65.673323" y="-0.5609375000000014">MLSS(gL)</tspan>
       <tspan style="font: 8.4px 'Source Code Pro'" x="55.301921 60.341919" y="-4.640625000000001">−1</tspan>
      </text>
     </g>
    </g>
   </g>
   <g id="line2d_47">
    <path d="M 327.08 517.69125 
L 331.194286 517.69125 
L 335.308571 517.69125 
L 339.422857 517.69125 
L 343.537143 517.69125 
L 347.651429 517.69125 
L 351.765714 517.69125 
L 355.88 517.69125 
L 359.994286 517.69125 
L 364.108571 517.69125 
L 368.222857 517.69125 
L 372.337143 517.691249 
L 376.451429 517.691247 
L 380.565714 517.691243 
L 384.68 517.691231 
L 388.794286 517.691198 
L 392.908571 517.691108 
L 397.022857 517.690863 
L 401.137143 517.690197 
L 405.251429 517.688388 
L 409.365714 517.683471 
L 413.48 517.670105 
L 417.594286 517.633784 
L 421.708571 517.535132 
L 425.822857 517.267541 
L 429.937143 516.544363 
L 434.051429 514.609133 
L 438.165714 509.564352 
L 442.28 497.264637 
L 446.394286 471.605448 
L 450.508571 432.01125 
L 454.622857 392.417052 
L 458.737143 366.757863 
L 462.851429 354.458148 
L 466.965714 349.413367 
L 471.08 347.478137 
L 475.194286 346.754959 
L 479.308571 346.487368 
L 483.422857 346.388716 
L 487.537143 346.352395 
L 491.651429 346.339029 
L 495.765714 346.334112 
L 499.88 346.332303 
L 503.994286 346.331637 
L 508.108571 346.331392 
L 512.222857 346.331302 
L 516.337143 346.331269 
L 520.451429 346.331257 
L 524.565714 346.331253 
L 528.68 346.331251 
L 532.794286 346.33125 
L 536.908571 346.33125 
L 541.022857 346.33125 
L 545.137143 346.33125 
L 549.251429 346.33125 
L 553.365714 346.33125 
L 557.48 346.33125 
L 561.594286 346.33125 
L 565.708571 346.33125 
L 569.822857 346.33125 
L 573.937143 346.33125 
L 578.051429 346.33125 
L 582.165714 346.33125 
L 586.28 346.33125 
L 590.394286 346.33125 
L 594.508571 346.33125 
L 598.622857 346.33125 
L 602.737143 346.33125 
L 606.851429 346.33125 
L 610.965714 346.33125 
L 615.08 346.33125 
" clip-path="url(#pce2941c8ef)" style="fill: none; stroke-dasharray: 11.1,4.8; stroke-dashoffset: 0; stroke: #000000; stroke-width: 3"/>
   </g>
   <g id="patch_40">
    <path d="M 327.08 517.69125 
L 327.08 272.89125 
" style="fill: none; stroke: #000000; stroke-linejoin: miter; stroke-linecap: square"/>
   </g>
   <g id="patch_41">
    <path d="M 615.08 517.69125 
L 615.08 272.89125 
" style="fill: none; stroke: #000000; stroke-linejoin: miter; stroke-linecap: square"/>
   </g>
   <g id="patch_42">
    <path d="M 327.08 517.69125 
L 615.08 517.69125 
" style="fill: none; stroke: #000000; stroke-linejoin: miter; stroke-linecap: square"/>
   </g>
   <g id="patch_43">
    <path d="M 327.08 272.89125 
L 615.08 272.89125 
" style="fill: none; stroke: #000000; stroke-linejoin: miter; stroke-linecap: square"/>
   </g>
  </g>
 </g>
 <defs>
  <clipPath id="p8693f5db00">
   <rect x="39.08" y="28.09125" width="288" height="244.8"/>
  </clipPath>
  <clipPath id="p6e4fc797bb">
   <rect x="327.08" y="28.09125" width="288" height="244.8"/>
  </clipPath>
  <clipPath id="p40848e4da5">
   <rect x="39.08" y="272.89125" width="288" height="244.8"/>
  </clipPath>
  <clipPath id="pce2941c8ef">
   <rect x="327.08" y="272.89125" width="288" height="244.8"/>
  </clipPath>
 </defs>
</svg>
